<?xml version="1.0" encoding="utf-8"?>
<!-- Generator: Adobe Illustrator 23.0.1, SVG Export Plug-In . SVG Version: 6.00 Build 0)  -->
<svg version="1.1" id="Layer_1" xmlns="http://www.w3.org/2000/svg" xmlns:xlink="http://www.w3.org/1999/xlink" x="0px" y="0px"
	 viewBox="0 0 270 95.6" style="enable-background:new 0 0 270 95.6;" xml:space="preserve">
<style type="text/css">
	.st0{fill:#FFFFFF;}
	.st1{font-family:'ArialMT';}
	.st2{font-size:23px;}
	.st3{fill:#1290EE;}
	.st4{enable-background:new    ;}
	.st5{font-family:'SegoeUI';}
	.st6{font-size:22px;}
</style>
<title>blaa4</title>
<text transform="matrix(1 0 0 1 20.375 28.0625)" class="st0 st1 st2">Lol hvad sker der for en</text>
<text transform="matrix(1 0 0 1 20.375 55.6625)" class="st0 st1 st2">klam kælling der kom op</text>
<text transform="matrix(1 0 0 1 20.375 83.2625)" class="st0 st1 st2">på min skærm der</text>
<text transform="matrix(1 0 0 1 192.875 83.2625)" class="st1 st2">  </text>
<image style="overflow:visible;enable-background:new    ;" width="160" height="160" xlink:href="../../../../../../../Downloads/face-with-tears-of-joy_1f602.png"  transform="matrix(0.1686 0 0 0.1686 195.9063 62.0938)">
</image>
<image style="overflow:visible;enable-background:new    ;" width="160" height="160" xlink:href="../../../../../../../Downloads/face-with-tears-of-joy_1f602.png"  transform="matrix(0.1686 0 0 0.1686 225.1563 62)">
</image>
<path class="st3" d="M202,94.5h27.3h5.4c17.8-0.1,32.2-14.5,32.3-32.3V34.8C266.9,17,252.5,2.6,234.7,2.5H35.3
	C17.5,2.6,3.1,17,3,34.8v27.4C3.1,80,17.5,94.4,35.3,94.5H161H202z"/>
<g>
	<g class="st4">
		<path class="st0" d="M29.1,26.5h-8V11.1h1.8v13.8h6.2V26.5z"/>
		<path class="st0" d="M35.9,26.8c-1.6,0-2.9-0.5-3.9-1.5c-1-1-1.5-2.4-1.5-4.1c0-1.8,0.5-3.3,1.5-4.3s2.4-1.6,4.1-1.6
			c1.6,0,2.9,0.5,3.8,1.5c0.9,1,1.4,2.4,1.4,4.2c0,1.8-0.5,3.2-1.5,4.2C38.9,26.2,37.5,26.8,35.9,26.8z M36,16.7
			c-1.1,0-2,0.4-2.7,1.2c-0.7,0.8-1,1.8-1,3.2c0,1.3,0.3,2.3,1,3.1s1.6,1.1,2.7,1.1c1.1,0,2-0.4,2.6-1.1s0.9-1.8,0.9-3.1
			c0-1.4-0.3-2.4-0.9-3.2S37.1,16.7,36,16.7z"/>
		<path class="st0" d="M45.9,26.5h-1.8V10.2h1.8V26.5z"/>
		<path class="st0" d="M64.6,26.5h-1.8v-6.3c0-2.3-0.9-3.4-2.6-3.4c-0.9,0-1.6,0.3-2.2,1c-0.6,0.7-0.9,1.5-0.9,2.6v6.2h-1.8V10.2
			h1.8v7.1h0c0.8-1.4,2-2.1,3.6-2.1c2.5,0,3.7,1.5,3.7,4.5V26.5z"/>
		<path class="st0" d="M76.6,15.5l-4.4,11h-1.7l-4.2-11h1.9l2.8,8c0.2,0.6,0.3,1.1,0.4,1.5h0c0.1-0.6,0.2-1,0.3-1.5l2.9-8H76.6z"/>
		<path class="st0" d="M86.4,26.5h-1.8v-1.7h0c-0.8,1.3-1.9,2-3.4,2c-1.1,0-2-0.3-2.6-0.9c-0.6-0.6-0.9-1.3-0.9-2.3
			c0-2.1,1.2-3.3,3.6-3.6l3.3-0.5c0-1.9-0.8-2.8-2.3-2.8c-1.3,0-2.5,0.5-3.6,1.4v-1.8c1.1-0.7,2.3-1,3.7-1c2.6,0,3.9,1.4,3.9,4.1
			V26.5z M84.6,20.9L82,21.3c-0.8,0.1-1.4,0.3-1.8,0.6c-0.4,0.3-0.6,0.8-0.6,1.5c0,0.5,0.2,1,0.6,1.3c0.4,0.3,0.9,0.5,1.5,0.5
			c0.9,0,1.6-0.3,2.2-0.9c0.6-0.6,0.9-1.4,0.9-2.3V20.9z"/>
		<path class="st0" d="M99.1,26.5h-1.8v-1.9h0c-0.8,1.4-2.1,2.1-3.8,2.1c-1.4,0-2.5-0.5-3.3-1.5c-0.8-1-1.2-2.3-1.2-4
			c0-1.8,0.5-3.3,1.4-4.4c0.9-1.1,2.1-1.6,3.7-1.6c1.5,0,2.6,0.6,3.3,1.8h0v-6.8h1.8V26.5z M97.3,21.5v-1.6c0-0.9-0.3-1.6-0.9-2.3
			c-0.6-0.6-1.3-0.9-2.2-0.9c-1.1,0-1.9,0.4-2.5,1.2c-0.6,0.8-0.9,1.9-0.9,3.3c0,1.3,0.3,2.3,0.9,3c0.6,0.7,1.4,1.1,2.4,1.1
			c1,0,1.8-0.4,2.4-1.1S97.3,22.6,97.3,21.5z"/>
		<path class="st0" d="M108,26.1v-1.9c1,0.7,2,1.1,3.2,1.1c1.5,0,2.3-0.5,2.3-1.5c0-0.3-0.1-0.5-0.2-0.7c-0.1-0.2-0.3-0.4-0.5-0.5
			s-0.5-0.3-0.8-0.4c-0.3-0.1-0.6-0.3-1-0.4c-0.5-0.2-0.9-0.4-1.3-0.6c-0.4-0.2-0.7-0.4-0.9-0.7c-0.2-0.2-0.4-0.5-0.6-0.8
			c-0.1-0.3-0.2-0.7-0.2-1.1c0-0.5,0.1-1,0.4-1.4c0.2-0.4,0.6-0.7,0.9-1c0.4-0.3,0.8-0.5,1.3-0.6s1-0.2,1.6-0.2c1,0,1.8,0.2,2.6,0.5
			v1.8c-0.8-0.5-1.7-0.8-2.8-0.8c-0.3,0-0.6,0-0.9,0.1c-0.3,0.1-0.5,0.2-0.7,0.3c-0.2,0.1-0.3,0.3-0.4,0.5c-0.1,0.2-0.2,0.4-0.2,0.6
			c0,0.3,0.1,0.5,0.2,0.7c0.1,0.2,0.3,0.4,0.5,0.5c0.2,0.2,0.4,0.3,0.7,0.4c0.3,0.1,0.6,0.3,1,0.4c0.5,0.2,0.9,0.4,1.3,0.6
			c0.4,0.2,0.7,0.4,1,0.7c0.3,0.2,0.5,0.5,0.6,0.9c0.1,0.3,0.2,0.7,0.2,1.1c0,0.5-0.1,1-0.4,1.4c-0.2,0.4-0.6,0.7-1,1
			c-0.4,0.3-0.9,0.5-1.4,0.6c-0.5,0.1-1.1,0.2-1.6,0.2C109.8,26.8,108.8,26.5,108,26.1z"/>
		<path class="st0" d="M127.1,26.5h-2.5l-4.9-5.3h0v5.3H118V10.2h1.8v10.3h0l4.6-5h2.3l-5.1,5.3L127.1,26.5z"/>
		<path class="st0" d="M137.8,21.4H130c0,1.2,0.4,2.2,1,2.8c0.6,0.7,1.5,1,2.6,1c1.2,0,2.4-0.4,3.4-1.2v1.7c-1,0.7-2.2,1.1-3.8,1.1
			c-1.6,0-2.8-0.5-3.7-1.5c-0.9-1-1.3-2.4-1.3-4.2c0-1.7,0.5-3.1,1.5-4.2c1-1.1,2.2-1.6,3.6-1.6s2.6,0.5,3.3,1.4
			c0.8,0.9,1.2,2.2,1.2,3.9V21.4z M136,19.9c0-1-0.3-1.8-0.7-2.4s-1.2-0.8-2-0.8c-0.8,0-1.5,0.3-2.1,0.9s-0.9,1.4-1.1,2.3H136z"/>
		<path class="st0" d="M146.2,17.3c-0.3-0.2-0.8-0.4-1.3-0.4c-0.8,0-1.4,0.4-1.9,1.1c-0.5,0.7-0.8,1.7-0.8,2.9v5.6h-1.8v-11h1.8v2.3
			h0c0.3-0.8,0.6-1.4,1.1-1.8c0.5-0.4,1.1-0.7,1.7-0.7c0.5,0,0.8,0,1.1,0.2V17.3z"/>
		<path class="st0" d="M163.5,26.5h-1.8v-1.9h0c-0.8,1.4-2.1,2.1-3.8,2.1c-1.4,0-2.5-0.5-3.3-1.5c-0.8-1-1.2-2.3-1.2-4
			c0-1.8,0.5-3.3,1.4-4.4s2.1-1.6,3.7-1.6c1.5,0,2.6,0.6,3.3,1.8h0v-6.8h1.8V26.5z M161.7,21.5v-1.6c0-0.9-0.3-1.6-0.9-2.3
			s-1.3-0.9-2.2-0.9c-1.1,0-1.9,0.4-2.5,1.2s-0.9,1.9-0.9,3.3c0,1.3,0.3,2.3,0.9,3c0.6,0.7,1.4,1.1,2.4,1.1c1,0,1.8-0.4,2.4-1.1
			C161.4,23.5,161.7,22.6,161.7,21.5z"/>
		<path class="st0" d="M175.9,21.4h-7.8c0,1.2,0.4,2.2,1,2.8s1.5,1,2.6,1c1.2,0,2.4-0.4,3.4-1.2v1.7c-1,0.7-2.2,1.1-3.8,1.1
			c-1.6,0-2.8-0.5-3.7-1.5c-0.9-1-1.3-2.4-1.3-4.2c0-1.7,0.5-3.1,1.5-4.2c1-1.1,2.2-1.6,3.6-1.6s2.6,0.5,3.3,1.4
			c0.8,0.9,1.2,2.2,1.2,3.9V21.4z M174.1,19.9c0-1-0.3-1.8-0.7-2.4c-0.5-0.6-1.2-0.8-2-0.8c-0.8,0-1.5,0.3-2.1,0.9s-0.9,1.4-1.1,2.3
			H174.1z"/>
		<path class="st0" d="M184.3,17.3c-0.3-0.2-0.8-0.4-1.3-0.4c-0.8,0-1.4,0.4-1.9,1.1c-0.5,0.7-0.8,1.7-0.8,2.9v5.6h-1.8v-11h1.8v2.3
			h0c0.3-0.8,0.6-1.4,1.1-1.8c0.5-0.4,1.1-0.7,1.7-0.7c0.5,0,0.8,0,1.1,0.2V17.3z"/>
		<path class="st0" d="M197.7,11.8c-0.3-0.2-0.7-0.3-1.2-0.3c-1.2,0-1.8,0.8-1.8,2.3v1.7h2.6V17h-2.6v9.5h-1.8V17H191v-1.5h1.9v-1.8
			c0-1.2,0.3-2.1,1-2.7c0.7-0.7,1.5-1,2.5-1c0.5,0,1,0.1,1.3,0.2V11.8z"/>
		<path class="st0" d="M203.7,26.8c-1.6,0-2.9-0.5-3.9-1.5c-1-1-1.5-2.4-1.5-4.1c0-1.8,0.5-3.3,1.5-4.3s2.4-1.6,4.1-1.6
			c1.6,0,2.9,0.5,3.8,1.5s1.4,2.4,1.4,4.2c0,1.8-0.5,3.2-1.5,4.2C206.7,26.2,205.4,26.8,203.7,26.8z M203.9,16.7
			c-1.1,0-2,0.4-2.7,1.2c-0.7,0.8-1,1.8-1,3.2c0,1.3,0.3,2.3,1,3.1s1.6,1.1,2.7,1.1c1.1,0,2-0.4,2.6-1.1c0.6-0.7,0.9-1.8,0.9-3.1
			c0-1.4-0.3-2.4-0.9-3.2C205.9,17.1,205,16.7,203.9,16.7z"/>
		<path class="st0" d="M217.8,17.3c-0.3-0.2-0.8-0.4-1.3-0.4c-0.8,0-1.4,0.4-1.9,1.1c-0.5,0.7-0.8,1.7-0.8,2.9v5.6H212v-11h1.8v2.3
			h0c0.3-0.8,0.6-1.4,1.1-1.8c0.5-0.4,1.1-0.7,1.7-0.7c0.5,0,0.8,0,1.1,0.2V17.3z"/>
		<path class="st0" d="M234.5,21.4h-7.8c0,1.2,0.4,2.2,1,2.8s1.5,1,2.6,1c1.2,0,2.4-0.4,3.4-1.2v1.7c-1,0.7-2.2,1.1-3.8,1.1
			c-1.6,0-2.8-0.5-3.7-1.5c-0.9-1-1.3-2.4-1.3-4.2c0-1.7,0.5-3.1,1.5-4.2c1-1.1,2.2-1.6,3.6-1.6s2.6,0.5,3.3,1.4
			c0.8,0.9,1.2,2.2,1.2,3.9V21.4z M232.7,19.9c0-1-0.3-1.8-0.7-2.4c-0.5-0.6-1.2-0.8-2-0.8c-0.8,0-1.5,0.3-2.1,0.9s-0.9,1.4-1.1,2.3
			H232.7z"/>
		<path class="st0" d="M246.3,26.5h-1.8v-6.3c0-2.3-0.9-3.5-2.6-3.5c-0.9,0-1.6,0.3-2.2,1c-0.6,0.7-0.9,1.5-0.9,2.5v6.3h-1.8v-11
			h1.8v1.8h0c0.8-1.4,2-2.1,3.6-2.1c1.2,0,2.1,0.4,2.8,1.2c0.6,0.8,1,1.9,1,3.4V26.5z"/>
	</g>
</g>
<text transform="matrix(1 0 0 1 19.125 54.1)" class="st0 st5 st6">klam kælling der kom op</text>
<text transform="matrix(1 0 0 1 19.125 81.7)" class="st0 st5 st6">på min skærm der</text>
<text transform="matrix(1 0 0 1 191.625 81.7)" class="st1 st2">  </text>
<image style="overflow:visible;enable-background:new    ;" width="160" height="160" xlink:href="../../../../../../../Downloads/face-with-tears-of-joy_1f602.png"  transform="matrix(0.1686 0 0 0.1686 197.6563 60.5313)">
</image>
<image style="overflow:visible;enable-background:new    ;" width="160" height="160" xlink:href="../../../../../../../Downloads/face-with-tears-of-joy_1f602.png"  transform="matrix(0.1686 0 0 0.1686 226.9063 60.4375)">
</image>
</svg>
