<?xml version="1.0" encoding="utf-8"?>
<!-- Generator: Adobe Illustrator 23.0.1, SVG Export Plug-In . SVG Version: 6.00 Build 0)  -->
<svg version="1.1" id="Layer_1" xmlns="http://www.w3.org/2000/svg" xmlns:xlink="http://www.w3.org/1999/xlink" x="0px" y="0px"
	 viewBox="0 0 195 67.9" style="enable-background:new 0 0 195 67.9;" xml:space="preserve">
<style type="text/css">
	.st0{fill:#FFFFFF;}
	.st1{font-family:'SegoeUI';}
	.st2{font-size:22px;}
	.st3{fill:#1290EE;}
</style>
<title>blaa2</title>
<text transform="matrix(1 0 0 1 21.375 26.1875)" class="st0 st1 st2">Bror, prøv lige at</text>
<text transform="matrix(1 0 0 1 21.375 52.5875)" class="st0 st1 st2">se hendes røv!</text>
<image style="overflow:visible;enable-background:new    ;" width="160" height="160" xlink:href="../../../../../../../Downloads/face-screaming-in-fear_1f631.png"  transform="matrix(0.1334 0 0 0.1334 161.9375 33.5)">
</image>
<g>
	<path class="st3" d="M3.5,33.8c0-0.1,0-0.2,0-0.3s0-0.2,0-0.3V33.8z"/>
	<path class="st3" d="M126.5,65.5h27.3h5.4c17.7-0.1,32-14.3,32.3-32c-0.3-17.7-14.6-31.9-32.3-32H35.8c-17.7,0.1-32,14.3-32.3,32
		c0.3,17.7,14.6,31.9,32.3,32h66.7H126.5z"/>
	<path class="st3" d="M191.5,33.2c0,0.1,0,0.2,0,0.3s0,0.2,0,0.3V33.2z"/>
</g>
<text transform="matrix(1 0 0 1 16.8438 27.1875)" class="st0 st1 st2">Bror, prøv lige at</text>
<text transform="matrix(1 0 0 1 16.8438 53.5875)" class="st0 st1 st2">se hendes røv!</text>
<image style="overflow:visible;enable-background:new    ;" width="160" height="160" xlink:href="../../../../../../../Downloads/face-screaming-in-fear_1f631.png"  transform="matrix(0.1334 0 0 0.1334 157.4063 34.5)">
</image>
</svg>
