<?xml version="1.0" encoding="utf-8"?>
<!-- Generator: Adobe Illustrator 23.0.1, SVG Export Plug-In . SVG Version: 6.00 Build 0)  -->
<svg version="1.1" id="Layer_1" xmlns="http://www.w3.org/2000/svg" xmlns:xlink="http://www.w3.org/1999/xlink" x="0px" y="0px"
	 viewBox="0 0 270 95.6" style="enable-background:new 0 0 270 95.6;" xml:space="preserve">
<style type="text/css">
	.st0{fill:#FFFFFF;}
	.st1{font-family:'MyriadPro-Regular';}
	.st2{font-size:23px;}
	.st3{fill:#1290EE;}
</style>
<title>blaa4</title>
<text transform="matrix(1 0 0 1 20.375 28.0625)"><tspan x="0" y="0" class="st0 st1 st2">Lol hvad sker der for en</tspan><tspan x="0" y="27.6" class="st0 st1 st2">klam kælling der kom op</tspan><tspan x="0" y="55.2" class="st0 st1 st2">på min skærm der</tspan><tspan x="172.5" y="55.2" class="st1 st2">  </tspan></text>
<image style="overflow:visible;" width="160" height="160" xlink:href="../../../../../../../Downloads/face-with-tears-of-joy_1f602.png"  transform="matrix(0.1686 0 0 0.1686 195.9063 62.0938)">
</image>
<image style="overflow:visible;" width="160" height="160" xlink:href="../../../../../../../Downloads/face-with-tears-of-joy_1f602.png"  transform="matrix(0.1686 0 0 0.1686 225.1563 62)">
</image>
<path class="st3" d="M202,94.5h27.3h5.4c17.8-0.1,32.2-14.5,32.3-32.3V34.8C266.9,17,252.5,2.6,234.7,2.5H35.3
	C17.5,2.6,3.1,17,3,34.8v27.4C3.1,80,17.5,94.4,35.3,94.5H161H202z"/>
<text transform="matrix(1 0 0 1 19.125 26.5)"><tspan x="0" y="0" class="st0 st1 st2">Lol hvad sker der for en</tspan><tspan x="0" y="27.6" class="st0 st1 st2">klam kælling der kom op</tspan><tspan x="0" y="55.2" class="st0 st1 st2">på min skærm der</tspan><tspan x="172.5" y="55.2" class="st1 st2">  </tspan></text>
<image style="overflow:visible;" width="160" height="160" xlink:href="../../../../../../../Downloads/face-with-tears-of-joy_1f602.png"  transform="matrix(0.1686 0 0 0.1686 194.6563 60.5313)">
</image>
<image style="overflow:visible;" width="160" height="160" xlink:href="../../../../../../../Downloads/face-with-tears-of-joy_1f602.png"  transform="matrix(0.1686 0 0 0.1686 223.9063 60.4375)">
</image>
</svg>
