<?xml version="1.0" encoding="utf-8"?>
<!-- Generator: Adobe Illustrator 23.0.1, SVG Export Plug-In . SVG Version: 6.00 Build 0)  -->
<svg version="1.1" id="Layer_1" xmlns="http://www.w3.org/2000/svg" xmlns:xlink="http://www.w3.org/1999/xlink" x="0px" y="0px"
	 viewBox="0 0 320 150" style="enable-background:new 0 0 320 150;" xml:space="preserve">
<style type="text/css">
	.st0{fill:#FFFFFF;}
	.st1{font-family:'SegoeUI';}
	.st2{font-size:22px;}
	.st3{fill:#1290EE;}
</style>
<title>blaa3</title>
<text transform="matrix(1 0 0 1 31.875 27.5)" class="st0 st1 st2">HAHAHHAHA! </text>
<text transform="matrix(1 0 0 1 31.875 53.9)" class="st0 st1 st2">Prøv at se hvor skæv den er!</text>
<text transform="matrix(1 0 0 1 31.875 80.3)" class="st0 st1 st2">Fuck det må være kniv at se </text>
<text transform="matrix(1 0 0 1 31.875 106.7)" class="st0 st1 st2">sådan ud </text>
<image style="overflow:visible;enable-background:new    ;" width="160" height="160" xlink:href="../../../../../../../Downloads/face-with-tears-of-joy_1f602.png"  transform="matrix(0.1758 0 0 0.1758 175.5 6.5)">
</image>
<image style="overflow:visible;enable-background:new    ;" width="160" height="160" xlink:href="../../../../../../../Downloads/face-with-tears-of-joy_1f602.png"  transform="matrix(0.1758 0 0 0.1758 206.25 6.5)">
</image>
<image style="overflow:visible;enable-background:new    ;" width="160" height="160" xlink:href="../../../../../../../Downloads/face-with-tears-of-joy_1f602.png"  transform="matrix(0.1758 0 0 0.1758 237.25 6.5)">
</image>
<image style="overflow:visible;enable-background:new    ;" width="160" height="160" xlink:href="../../../../../../../Downloads/face-with-tears-of-joy_1f602.png"  transform="matrix(0.1758 0 0 0.1758 267.625 6.5)">
</image>
<image style="overflow:visible;enable-background:new    ;" width="160" height="160" xlink:href="../../../../../../../Downloads/face-with-stuck-out-tongue-and-winking-eye_1f61c.png"  transform="matrix(0.1758 0 0 0.1764 126 84.4063)">
</image>
<image style="overflow:visible;enable-background:new    ;" width="160" height="160" xlink:href="../../../../../../../Downloads/face-with-stuck-out-tongue-and-winking-eye_1f61c.png"  transform="matrix(0.1758 0 0 0.1764 153.6563 84.4063)">
</image>
<image style="overflow:visible;enable-background:new    ;" width="160" height="160" xlink:href="../../../../../../../Downloads/face-with-stuck-out-tongue-and-winking-eye_1f61c.png"  transform="matrix(0.1758 0 0 0.1764 182.1563 84.4063)">
</image>
<path class="st3" d="M250,123.5h27.3h5.4c17.8-0.1,32.2-14.5,32.3-32.3V35.8C314.9,18,300.5,3.6,282.7,3.5H37.3
	C19.5,3.6,5.1,18,5,35.8v55.4c0.1,17.8,14.5,32.2,32.3,32.3h164.5H250z"/>
<text transform="matrix(1 0 0 1 23.1592 30.5)" class="st0 st1 st2">HAHAHHAHA! </text>
<text transform="matrix(1 0 0 1 23.1592 56.9)" class="st0 st1 st2">Prøv at se hvor skæv den er!</text>
<text transform="matrix(1 0 0 1 23.1592 83.3)" class="st0 st1 st2">Fuck det må være kniv at se </text>
<text transform="matrix(1 0 0 1 23.1592 109.7)" class="st0 st1 st2">sådan ud </text>
<image style="overflow:visible;enable-background:new    ;" width="160" height="160" xlink:href="../../../../../../../Downloads/face-with-tears-of-joy_1f602.png"  transform="matrix(0.1758 0 0 0.1758 166.7843 9.5)">
</image>
<image style="overflow:visible;enable-background:new    ;" width="160" height="160" xlink:href="../../../../../../../Downloads/face-with-tears-of-joy_1f602.png"  transform="matrix(0.1758 0 0 0.1758 197.5343 9.5)">
</image>
<image style="overflow:visible;enable-background:new    ;" width="160" height="160" xlink:href="../../../../../../../Downloads/face-with-tears-of-joy_1f602.png"  transform="matrix(0.1758 0 0 0.1758 228.5343 9.5)">
</image>
<image style="overflow:visible;enable-background:new    ;" width="160" height="160" xlink:href="../../../../../../../Downloads/face-with-tears-of-joy_1f602.png"  transform="matrix(0.1758 0 0 0.1758 258.9092 9.5)">
</image>
<image style="overflow:visible;enable-background:new    ;" width="160" height="160" xlink:href="../../../../../../../Downloads/face-with-stuck-out-tongue-and-winking-eye_1f61c.png"  transform="matrix(0.1758 0 0 0.1764 117.2842 87.4063)">
</image>
<image style="overflow:visible;enable-background:new    ;" width="160" height="160" xlink:href="../../../../../../../Downloads/face-with-stuck-out-tongue-and-winking-eye_1f61c.png"  transform="matrix(0.1758 0 0 0.1764 144.9406 87.4063)">
</image>
<image style="overflow:visible;enable-background:new    ;" width="160" height="160" xlink:href="../../../../../../../Downloads/face-with-stuck-out-tongue-and-winking-eye_1f61c.png"  transform="matrix(0.1758 0 0 0.1764 173.4406 87.4063)">
</image>
</svg>
