<svg id="Layer_1" data-name="Layer 1" xmlns="http://www.w3.org/2000/svg" xmlns:xlink="http://www.w3.org/1999/xlink" width="120" height="90" viewBox="0 0 120 90"><defs><style>.cls-1{fill:#1290ee;}.cls-2{fill:#fff;}</style></defs><title>blue_new1</title><path class="cls-1" d="M83.7,1.5H36.3A32.39,32.39,0,0,0,4,33.8v-.6A32.39,32.39,0,0,0,36.3,65.5H51c4.11,4,20.57,18.69,43,23-10.78-10-14.68-19.89-15.7-23h5.4A32.39,32.39,0,0,0,116,33.2v.6A32.39,32.39,0,0,0,83.7,1.5Z"/><path class="cls-2" d="M26.59,41.26h-3l-7-8.33a5.14,5.14,0,0,1-.48-.63h-.05v9H13.92V23.06h2.13v8.55h.05a6.24,6.24,0,0,1,.48-.62l6.81-7.93H26l-7.81,8.73Z"/><path class="cls-2" d="M30.8,41.26H28.72V22H30.8Z"/><path class="cls-2" d="M44.32,41.26H42.24v-2h-.05a4.36,4.36,0,0,1-4,2.34,4.3,4.3,0,0,1-3-1,3.59,3.59,0,0,1-1.1-2.73q0-3.64,4.29-4.24l3.9-.55c0-2.21-.89-3.31-2.68-3.31a6.39,6.39,0,0,0-4.24,1.6V29.18A8,8,0,0,1,39.74,28c3.06,0,4.58,1.61,4.58,4.85Zm-2.08-6.57-3.13.43a5.06,5.06,0,0,0-2.19.71,2.08,2.08,0,0,0-.73,1.83,2,2,0,0,0,.67,1.55,2.65,2.65,0,0,0,1.81.6,3.34,3.34,0,0,0,2.56-1.08,3.89,3.89,0,0,0,1-2.75Z"/><path class="cls-2" d="M66.71,41.26H64.62V33.8A5.72,5.72,0,0,0,64,30.67a2.54,2.54,0,0,0-2.24-1,2.78,2.78,0,0,0-2.27,1.22,4.66,4.66,0,0,0-.93,2.92v7.41H56.43V33.54q0-3.83-3-3.83a2.72,2.72,0,0,0-2.26,1.15,4.69,4.69,0,0,0-.89,3v7.41H48.25v-13h2.08v2.06h.05a4.41,4.41,0,0,1,4-2.36,3.75,3.75,0,0,1,3.68,2.69A4.62,4.62,0,0,1,62.41,28c2.86,0,4.3,1.76,4.3,5.29Z"/><path class="cls-2" d="M76.67,41.13a3.91,3.91,0,0,1-1.94.41q-3.42,0-3.42-3.81V30H69.08V28.26h2.23V25.09l2.09-.67v3.84h3.27V30H73.4v7.32a3,3,0,0,0,.44,1.87,1.79,1.79,0,0,0,1.47.56,2.17,2.17,0,0,0,1.36-.43Z"/><image width="160" height="160" transform="translate(76.48 18.39) scale(0.2)" xlink:href="../../../../../../../Downloads/face-with-open-mouth-vomiting_1f92e.png"/></svg>
