<svg id="Layer_1" data-name="Layer 1" xmlns="http://www.w3.org/2000/svg" xmlns:xlink="http://www.w3.org/1999/xlink" viewBox="0 0 40 40"><defs><style>.cls-1{fill:#fff;stroke:#000;stroke-miterlimit:10;}</style></defs><title>boksmedflueben</title><image width="1064" height="540" transform="translate(-794.7385 -634.8438) scale(1.0273 1.1981)" xlink:href="../../Desktop/sex%20og%20samfund/yasss.png"/><rect class="cls-1" x="1.9776" y="1.9776" width="36.0449" height="36.0449"/><path d="M8.2781,18.7752a3.3474,3.3474,0,0,1,3.2667-.3973c1.4757.6094,1.4639,2.1275,2.8,5.5616,1.1271,2.8971,1.8366,4.72,2.8,4.7671.7711.0373,1.5286-1.0723,3.7334-6.3561,1.5482-3.71,3.2312-7.38,4.6668-11.1232,1.215-3.168,1.8412-4.9806,3.2668-5.1643,1.0938-.1409,2.6337.68,2.8,1.589a1.5184,1.5184,0,0,1-.4667,1.1918c-.1367.1571-1.3358,2.7531-3.7334,7.9451-.8874,1.9214-1.525,3.6644-2.8,7.1506-.5852,1.5993-1.2624,3.1731-1.8667,4.7671-1.1471,3.0263-1.3645,3.7918-2.3334,4.37a6.6837,6.6837,0,0,1-5.6,0c-1.2756-.5511-2.0048-1.36-5.1335-8.3424C7.929,20.83,7.4723,19.5556,8.2781,18.7752Z"/></svg>
