<svg id="Layer_1" data-name="Layer 1" xmlns="http://www.w3.org/2000/svg" xmlns:xlink="http://www.w3.org/1999/xlink" viewBox="0 0 1920 1080"><defs><style>.cls-1{fill:#333;}.cls-1,.cls-2,.cls-3,.cls-4,.cls-5,.cls-6,.cls-7,.cls-9{stroke:#000;stroke-miterlimit:10;}.cls-1,.cls-3,.cls-4{stroke-width:4px;}.cls-2,.cls-5,.cls-6,.cls-7{stroke-width:5px;}.cls-2{fill:url(#linear-gradient);}.cls-3{fill:url(#White_Black);}.cls-5{fill:none;}.cls-7,.cls-8{fill:#fff;}.cls-10{fill:#fff08a;}</style><linearGradient id="linear-gradient" x1="583.1903" y1="659.0218" x2="1318.8152" y2="659.0218" gradientUnits="userSpaceOnUse"><stop offset="0" stop-color="#b3b3b3"/><stop offset="1" stop-color="#666"/></linearGradient><linearGradient id="White_Black" x1="581" y1="322.2666" x2="1318.0263" y2="322.2666" gradientUnits="userSpaceOnUse"><stop offset="0" stop-color="#fff"/><stop offset="1"/></linearGradient></defs><title>forgrund</title><ellipse class="cls-1" cx="960" cy="1022.5" rx="1082" ry="157"/><path class="cls-2" d="M1302.3672,308.0154s11.7592,6.5658,15.6591,14.2368c.37.7273,1.5734,46.9629,0,84.3246-1.6,37.9957-12.0706,148.03-14.2368,163.176-21.5546,150.7046-50.4856,248.25-78.7648,393.8921a24.5962,24.5962,0,0,1-18.9427,19.3669,1206.8651,1206.8651,0,0,1-245.2227,26.9857A1212.3119,1212.3119,0,0,1,699.2022,983.19h0a24.5977,24.5977,0,0,1-19.1884-20.4873q-.22-1.5036-.4516-3.0815c-4.79-32.6722-8.4763-57.2445-8.7611-59.1373-6.5844-43.76-31.274-167.3363-35.0443-186.1731L597.62,497.477q-.193-1.0977-.2863-2.2095Q590.2622,410.9068,583.19,326.546"/><ellipse class="cls-3" cx="949.5131" cy="322.2666" rx="368.5131" ry="49.2666"/><ellipse class="cls-4" cx="948.9656" cy="338.7368" rx="332.9212" ry="29.6503"/><path class="cls-5" d="M1380.4564,797.88c2.9974,8.343,7.0191,20.0775,11.1857,34.1367,7.3224,24.7074,7.4156,30.69,7.0946,34.59-1.2331,14.979-10.5731,23.4814-17.2432,30.4859-11.593,12.1744-25.9187,31.1631-36.6633,60.549"/><path class="cls-6" d="M1386.7844,972.1041c-.2987,1.5249-3.4869,2.0375-6.2719,2.4854-8.06,1.2962-12.887-.88-19.179-1.9594-13.9045-2.3852-20.2631,3.1083-22.6524-.7385-2.2128-3.5627,1.0785-11.7573,6.4451-14.7563,2.445-1.3662,5.3925-1.6943,17.4425,2.57C1371.5587,962.8867,1387.4859,968.5229,1386.7844,972.1041Z"/><path class="cls-6" d="M1232.209,1028.19c.6564,1.4157,3.88,1.1955,6.6962,1.0031,8.15-.5568,12.3224-3.7617,18.1828-6.23,12.9507-5.4549,20.4532-1.5459,21.8538-5.8259,1.2971-3.9639-3.87-11.1916-9.8094-12.8982-2.7057-.7775-5.6511-.432-16.3473,6.4323C1244.8051,1015.7918,1230.6673,1024.8647,1232.209,1028.19Z"/><path class="cls-5" d="M1262.0465,831.2762c-4.4819,8.0206-10.596,19.3424-17.2842,33.0437-11.7538,24.0783-12.9578,30.2607-13.3693,34.3709-1.5807,15.786,5.9684,26.5563,11.186,35.2147,9.0686,15.0488,19.541,37.7338,24.5789,70.4467"/><path class="cls-5" d="M1436.1518,601.0448c16.55,8.2445,24.8309,18.1349,28.8835,24.1228a72.08,72.08,0,0,1,10.3567,24.5663c1.6448,9.0111,1.0046,17.4584,5.9228,29.6239a37.9307,37.9307,0,0,0,3.7,7.2119,43.205,43.205,0,0,0,15.9133,13.8872"/><path class="cls-7" d="M1508.0676,696.76a48.0489,48.0489,0,0,1,10.6917-3.9916c6.1644-1.46,13.014-3.0825,15.0255-.3679,1.4072,1.8991.295,9.3411.3342,7.0041h0a52.5579,52.5579,0,0,1-7.2818,1.67c-4.7952.6194-8.2721-.5243-8.3333-.2436-.0866.3967,7.1207,1.487,14.2655,6.0662,2.0194,1.2942,3.93,2.8008,4.8382,5.2527.7844,2.1179.8991,5.1532-.4651,5.9047-1.0174.56-2.1666-.53-6.3122-2.6057-2.659-1.3313-1.7052-.6418-7.9533-3.4606-4.8465-2.1864-7.2469-3.4253-7.4063-3.1756-.3519.551,11.9648,5.605,13.7153,14.6585.1611.8336.8119,4.1994-1.0122,5.62-1.7231,1.3417-4.8544.3245-6.65-.7324-2.3625-1.3908-2.6678-3.0012-5.3426-6.8815-2.7463-3.9837-5.0031-7.2574-6.7316-6.922-2.6627.5167-1.1029,9.0223-5.3491,10.8731-2.3085,1.0063-5.7619-.2035-6.607-2.0762-.5671-1.2566.33-2.17,1.854-5.8641,1.466-3.5535,2.7068-6.5611,2.8235-10.14.115-3.5233-.9692-4.235-.0819-6.19C1502.7314,699.744,1503.9478,698.6866,1508.0676,696.76Z"/><path d="M1450.5275,703.0773c1.4588-24.08-3.3947-49.8363-13.1016-101.349-4.6518-24.6863-7.566-35.2547-9.3111-57.0927-1.1273-14.1069-2.4861-32.2941.3336-55.051a217.4787,217.4787,0,0,1,17.6651-62.8748c8.0968-19.6194,13.4382-25.7954,11.1147-33.1347-2.6642-8.4153-12.2894-11.9839-25.5283-13.1246-13.4113-1.1556-30.5308.18-47.8634,1.4946-37.6579,2.8557-61.8166,4.7959-77.9576,19.5542-7.2843,4.8993-14.5731,10.0724-21.7287,15.4559-8.2506,6.2075-14.0643,10.9751-19.1932,15.1814-5.908,4.8449-11.01,9.029-18.255,14.1568a250.6453,250.6453,0,0,1-30.8272,18.6036c-.0226-.0023-.0459-.0108-.0684-.0127a4.1606,4.1606,0,0,0-2.14.3755c-5.8245,1.1232-9.9908,4.0785-12.1029,8.6347-2.2512,4.8566-1.0195,11.5992,1.2171,23.8394,2.7916,15.2807,4.1928,22.9507,4.7352,25.4991,1.2354,5.8073,2.0894,9.521,6.3325,27.7766l2.767,11.9012c2.4638,10.5913,2.56,11.0045,2.8421,12.4018,2.6536,13.14,3.8341,23.2052,5.0837,33.8617,1.9787,16.8738,2.6968,29.6534,3.1716,38.11,1.0232,18.219,1.4385,26.7779.5662,38.7347-.6671,9.1353-1.1488,15.736-3.7141,23.919a74.9606,74.9606,0,0,1-4.782,11.3693c-1.2336,2.579-2.7688,5.789-4.8223,10.2524-.295.6412-2.91,6.5751-8.7944,19.9371-10.186,23.1265-12.0213,27.3774-14.7667,34.7658-2.6907,7.2413-3.8686,11.25-6.2163,19.2412-2.5847,8.7959-3.8073,14.2267-3.766,21.2992.0373,6.3928,1.1467,10.9824,3.4266,14.0777a12.6957,12.6957,0,0,0,5.86,4.38,24.2947,24.2947,0,0,0,7.0758,1.6862,28.5861,28.5861,0,0,0,7.6043-.4016l-.0917-.7829c.2871.0347.5588.08.8585.1061,5.7769.498,13.9133-.698,25.4939-5.0475l201.4309-54.2306a69.9969,69.9969,0,0,0,7.3876-10.4737C1452.01,756.13,1448.7009,733.23,1450.5275,703.0773Z"/><path class="cls-8" d="M1248.8114,451.0254c7.366-5.2133,12.5226-9.4421,18.493-14.3385,5.0964-4.1793,10.8732-8.9167,19.0529-15.0708q4.4178-3.3237,8.8986-6.5263c-6.3268,11.1864-8.6542,23.0421-9.6061,31.4018a97.2642,97.2642,0,0,1-9.79,32.8491c-6.1231,11.9172-10.889,21.2969-18.2437,22.3385a10.2286,10.2286,0,0,1-2.3225.0612c-12.7432-1.0985-24.5723-25.14-34.0009-33.7917A253.9953,253.9953,0,0,0,1248.8114,451.0254Z"/><path class="cls-8" d="M1228.79,608.3963c-1.2664-10.7985-2.4622-20.9982-5.1708-34.4079-.3009-1.4922-.35-1.7-2.8828-12.59l-2.767-11.9c-4.2311-18.2048-5.082-21.9049-6.3055-27.6565-.5225-2.4544-1.9178-10.0931-4.6983-25.31-2.0835-11.4034-3.0255-17.0124-1.6934-19.8864a10.21,10.21,0,0,1,5.8147-5.107c3,29.8922,6.6078,56.6255,10.2285,79.7408,7.7787,49.6591,13.2643,67.676,13.666,98.9108a282.4887,282.4887,0,0,1-3.3857,47.2631c.415-3.4727.6759-7.0221.96-10.9183.9413-12.9019.4087-22.391-.5584-39.6171C1231.5173,638.3782,1230.7926,625.4749,1228.79,608.3963Z"/><path class="cls-8" d="M1187.95,837.147c-.5429-.7367-2.1946-2.98-2.2374-10.3664-.0365-6.2282,1.0987-11.21,3.5-19.3819,2.3049-7.8457,3.4619-11.7835,6.0769-18.82,2.6869-7.231,4.5082-11.4481,14.6319-34.4345,5.0992-11.5766,8.468-19.2254,8.7554-19.8492,2.035-4.4236,3.56-7.6111,4.785-10.1728a81.4636,81.4636,0,0,0,5.0981-12.1753c.5754-1.8356,1.05-3.6,1.4548-5.3294-1.6557,8.7551-3.6084,16.9389-5.7026,24.4751-14.7032,27.8076-46.2512,91.823-29.1988,109.9711a20.0123,20.0123,0,0,1-3.1071-.9653A9.0473,9.0473,0,0,1,1187.95,837.147Z"/><path class="cls-8" d="M1436.9908,772.9122a65.3544,65.3544,0,0,1-6,8.6914L1323.0623,810.661l-92.3259,24.8566-.1657.0447-.1624.0609c-9.9181,3.7251-17.9856,5.352-23.9784,4.8354-3.6129-.3115-6.402-1.4044-8.29-3.2485-7.8741-7.6917-1.24-31.37,3.4146-44.8006,5.6734-16.3679,14.5324-35.9816,26.3312-58.2963l.3-.5672.1789-.6439a295.04,295.04,0,0,0,10.91-82.7837c-.2848-22.15-3.0773-37.9042-7.3042-61.7517-1.8995-10.7169-4.0524-22.8637-6.4429-38.124-4.0888-26.1035-7.5052-52.74-10.1674-79.23.3191-.159.6348-.325.9532-.4853,2.9883,1.2952,7.9774,8.0179,12.06,13.526,7.7195,10.4157,16.4691,22.221,26.6406,23.0978a13.7008,13.7008,0,0,0,3.0935-.0824c9.3105-1.3186,14.8275-12.0569,21.2156-24.4909l.1414-.2752a102.6219,102.6219,0,0,0,10.4363-35.0222c1.4386-12.6339,5.0583-23.4637,10.7584-32.1885a47.464,47.464,0,0,1,7.5717-9.0209c1.3851-.93,2.7706-1.8679,4.1542-2.776l-.1932-.4675a57.2157,57.2157,0,0,1,18.4132-8.5373c13.8611-3.9254,32.2313-5.3185,53.5021-6.9315l.8742-.0663c17.2424-1.3082,33.5285-2.5437,46.4415-1.431l.0016,0c15.9241,1.3727,20.653,6.04,21.816,9.7131.7785,2.4591-.4426,5.4242-4.4223,13.9569-1.7888,3.8353-4.013,8.604-6.4764,14.5667A223.4582,223.4582,0,0,0,1424.205,488.73c-2.9624,23.91-1.3984,43.4819-.3634,56.4334,1.36,17.02,3.4648,27.6084,6.3777,42.2633.9021,4.5387,1.9246,9.6827,3.0287,15.5417,9.5907,50.8966,14.4047,76.4437,12.9971,99.6786-.4671,7.7115-.6019,14.8182-.7323,21.6909C1445.1424,743.8763,1444.85,759.309,1436.9908,772.9122Z"/><path d="M1276.7492,737.507l-5.6933-41.7732,2.6545-.5665,8.9152,19.8463c2.064,4.5983,3.7537,8.7661,5.2306,12.8518l.0475-.0734c-.984-5.5308-1.7323-10.6005-2.6194-17.1088l-2.382-17.4775,2.2912-.4889,5.6933,41.7732-2.459.5247-8.8679-19.92c-1.9468-4.3686-3.8541-8.872-5.4211-13.1942l-.075.08c.8577,5.2379,1.5978,10.2471,2.5438,17.1882l2.4328,17.85Z"/><path d="M1294.801,733.9094l.989-5.8235c-2.0712-3.3843-3.7452-8.7037-4.59-14.9021-1.7992-13.2009.7988-22.6213,5.7159-23.6707,1.7323-.37,3.5047.4,5.1417,2.2836l.9642-5.3719,1.7846,1.9149-1.0059,5.7c2.08,3.4465,3.69,8.7165,4.5258,14.8516,1.9851,14.5653-1.0608,22.8056-5.5592,23.7656-1.7882.3816-3.5972-.4449-5.2337-2.3282l-1.0335,5.7066Zm6.5956-37.89c-1.1948-1.5945-2.52-2.46-3.9175-2.1618-4.1069.8764-5.0256,9.7469-3.8347,18.4852a40.9261,40.9261,0,0,0,2.9261,10.92l.02-.0683Zm-3.2027,30.0858c1.1841,1.7251,2.4173,2.5461,3.926,2.2241,3.94-.8407,5.029-9.3013,3.7451-18.7218a40.043,40.043,0,0,0-2.7915-10.566l-.0835.0178Z"/><path d="M1328.4575,724.5585a10.8025,10.8025,0,0,1-5.4709,3.5275c-2.85.6082-5.4166-.502-7.7927-4.0136-2.0933-3.1248-3.86-8.4878-4.7466-14.9961-1.67-12.4633.9442-22.3967,7.2584-23.7442a6.3155,6.3155,0,0,1,4.9558.9193l.0128,4.5256a5.363,5.363,0,0,0-4.4078-.9089c-4.5819.9779-6.71,7.9381-5.2824,18.4121,1.4444,10.5978,5.1753,16.2435,9.5616,15.3074a4.7541,4.7541,0,0,0,3.0891-1.8066l-1.6979-12.4583-3.8276.8169-.5912-4.338,6.2026-1.3237Z"/><path d="M1339.5054,703.9593l-7.32,1.5621,2.0528,15.0614,8.1581-1.741.6166,4.5241-10.589,2.26-5.6933-41.7732,10.17-2.17.6165,4.5241-7.739,1.6515,1.7993,13.2019,7.32-1.5621Z"/><path d="M1346.1681,722.6926l-5.6934-41.7732,2.6545-.5665,8.9152,19.8463c2.064,4.5984,3.7537,8.7661,5.2307,12.8518l.0474-.0734c-.9839-5.5308-1.7323-10.6005-2.6193-17.1088l-2.3821-17.4775,2.2912-.4889,5.6933,41.7732-2.459.5247-8.8679-19.92c-1.9468-4.3686-3.8541-8.872-5.4211-13.1942l-.075.08c.8577,5.2379,1.5978,10.2471,2.5438,17.1882l2.4328,17.85Z"/><path d="M1363.44,715.69c-.3126-2.2932.1664-4.0533,1.144-4.2619s1.8684,1.2591,2.1809,3.5524c.3042,2.2318-.1105,4.0423-1.1443,4.2629C1364.6424,719.4521,1363.7439,717.9218,1363.44,715.69Z"/><path d="M1372.6354,674.0561l2.9646-.6326,3.81,27.9524c1.512,11.0938-1.0222,15.1429-4.9744,15.9864a5.7408,5.7408,0,0,1-3.3045-.3158l-.1566-4.4949a4.2593,4.2593,0,0,0,2.5971.2752c2.6581-.5673,3.93-3.0712,2.8146-11.2529Z"/><path d="M1380.1547,672.9619a13.5951,13.5951,0,0,1,4.4336-1.7755,5.14,5.14,0,0,1,5.6153,2.3731A19.2908,19.2908,0,0,1,1393,681.9562a24.0826,24.0826,0,0,1-.1985,9.2263c-.8379,3.304-2.6669,5.289-4.98,5.7826a3.776,3.776,0,0,1-1.9548.035l2.2807,16.7338-2.3671.5052Zm5.1124,19.6379a3.7148,3.7148,0,0,0,2.0181.0156c2.8565-.61,4.1669-4.1427,3.3813-9.9065-.7518-5.5162-2.8292-7.815-5.441-7.2576a5.0387,5.0387,0,0,0-2.1715.91Z"/><path d="M1412.2544,706.6758a10.7881,10.7881,0,0,1-5.4656,3.5263c-2.8474.6076-5.4117-.503-7.7862-4.015-2.0918-3.1251-3.8572-8.4883-4.7442-14.9966-1.67-12.4633.9407-22.3959,7.2491-23.7422a6.3061,6.3061,0,0,1,4.9514.92l.0133,4.5255a5.3553,5.3553,0,0,0-4.4038-.91c-4.5777.9769-6.703,7.9366-5.2755,18.4106,1.4444,10.5978,5.1726,16.2441,9.5549,15.3088a4.7468,4.7468,0,0,0,3.0861-1.806L1407.736,691.44l-3.8241.8161-.5912-4.338,6.1969-1.3224Z"/><ellipse class="cls-8" cx="1296.7032" cy="567.6905" rx="30.9374" ry="21.3536" transform="translate(416.4347 1676.2207) rotate(-75.191)"/><path d="M1300.7666,539.0359c10.6009.163,17.696,13.4229,15.4934,28.9553s-13.0193,28.5169-23.62,28.3539-17.696-13.4229-15.4935-28.9553,13.0193-28.5169,23.62-28.3539m.4955-3.4945c-13.1489-.2022-25.8493,14.0276-28.3671,31.783s6.1,32.313,19.2493,32.5152,25.8494-14.0276,28.3672-31.783-6.1-32.313-19.2494-32.5152Z"/><ellipse class="cls-8" cx="1370.1164" cy="551.7142" rx="29.5734" ry="21.1838" transform="translate(421.4589 1683.8169) rotate(-71.9718)"/><path d="M1374.3423,524.4987c10.5931.0936,17.6071,12.6358,15.3164,27.3881s-13.1753,27.1365-23.7683,27.0429-17.607-12.6357-15.3163-27.3881,13.1752-27.1364,23.7682-27.0429m.5154-3.3189c-13.1392-.1161-25.9134,13.4606-28.5319,30.3243s5.91,30.6286,19.0493,30.7446,25.9134-13.4607,28.5319-30.3244-5.91-30.6285-19.0493-30.7445Z"/><path d="M1276.387,604.8979c8.1728,5.6007,17.1883,7.4019,26.3014,5.13,1.6243-.4048,1.1085-3.5956-.5221-3.1891a29.35,29.35,0,0,1-24.3369-4.6324c-1.4492-.9931-2.9017,1.6911-1.4424,2.6911Z"/><path d="M1388.6,572.9119c-6.4612,10.604-16.2367,16.9489-26.85,17.3549-1.6422.0628-1.8264,3.31-.1675,3.2462,11.5894-.4433,22.09-7.1787,29.1536-18.7712,1.0125-1.6617-1.13-3.4806-2.1359-1.83Z"/><ellipse class="cls-9" cx="1295.1527" cy="572.2663" rx="9.0952" ry="9.0253" transform="translate(680.9198 1848.0512) rotate(-88.1296)"/><path d="M1335.2838,587.4175c.3908,7.3751,4.7307,13.4,6.4628,20.3725.9586,3.8593,2.1631,8.9984,1.6008,13.01-.6242,4.4531-3.9312,6.9034-5.7808,10.4852-.9056,1.7536,1.23,3.5833,2.1359,1.83,1.6-3.0979,4.2831-5.2288,5.5017-8.6622,1.1521-3.246.8084-6.9707.3684-10.3779a64.1376,64.1376,0,0,0-2.8768-12.3516c-1.5571-4.5872-4.5689-8.9591-4.8405-14.0844-.1091-2.0594-2.682-2.3082-2.5715-.2217Z"/><ellipse class="cls-9" cx="1365.242" cy="559.0953" rx="9.0952" ry="9.0253" transform="translate(761.8855 1905.3621) rotate(-88.1296)"/><path d="M1152.02,744.33l-1.6913-4.2612a40.9338,40.9338,0,0,0,16.74-11.07,36.5655,36.5655,0,0,0,4.3947-6.2987c4.4245-7.7125,6.009-14.0254,7.5413-20.1307.69-2.751,1.3427-5.35,2.2346-8.0548a74.6193,74.6193,0,0,1,14.1208-23.8174c8.1516-9.1129,19.2374-16.13,32.95-20.8558l1.5815,4.3007c-12.9348,4.4574-23.3526,11.0326-30.9639,19.5414a71.0141,71.0141,0,0,0-13.1928,22.2158c-.8411,2.5519-1.4742,5.0751-2.1448,7.746-1.6063,6.4-3.2674,13.0171-8.0008,21.2691a40.8752,40.8752,0,0,1-4.9316,7.0471A45.5941,45.5941,0,0,1,1152.02,744.33Z"/><path class="cls-7" d="M1147.4342,737.8a47.5339,47.5339,0,0,0-10.0453-5.3291c-5.9079-2.2387-12.4725-4.7263-14.8409-2.2941-1.6569,1.7015-1.5822,9.22-1.2983,6.8988h0a52.1146,52.1146,0,0,0,6.9863,2.5905c4.6669,1.23,8.2707.5426,8.2927.8287.031.4043-7.2627.5594-14.9762,4.18-2.18,1.0234-4.2819,2.2711-5.52,4.5845-1.07,1.9984-1.6027,4.9919-.3544,5.9119.931.6861,2.2205-.2471,6.6158-1.7719,2.8192-.9779,1.7786-.4171,8.36-2.4084,5.1052-1.5446,7.6553-2.4642,7.7788-2.1963.2727.5913-12.6322,4.0187-15.6173,12.7668-.2748.8054-1.3845,4.0576.2272,5.7,1.5224,1.551,4.7663.9449,6.6915.128,2.5335-1.075,3.0584-2.6319,6.2453-6.1341,3.2719-3.5956,5.9606-6.55,7.6274-5.996,2.5677.854-.1527,9.0836,3.8,11.4632,2.1491,1.2938,5.7387.5382,6.8349-1.2092.7356-1.1726-.0274-2.1929-1.0277-6.05-.9623-3.71-1.7767-6.85-1.3983-10.4122.3726-3.5066,1.5454-4.0728.936-6.124C1152.3108,741.4431,1151.2512,740.2389,1147.4342,737.8Z"/><path d="M649.0977,752.3134c.1416-16.83,1.109-28.2738,2.1331-40.39.9519-11.26,1.9365-22.9033,2.2034-39.2482a378.2824,378.2824,0,0,0-2.1185-47.7083c-.7776-8.3216-1.5811-16.9268-2.2214-28.5008a640.0561,640.0561,0,0,1,4.3228-115.1594l.3879-3.0751L634.7979,482.32,358.3554,513.1284l.4867,4.3674.1521-.017c2.0876,22.2474,4.0289,44.6738,5.7643,66.7389,3.9807,50.62,6.158,89.7118,7.9074,121.1234,1.2506,22.4569,2.4052,45.1714,3.4318,67.5476a191.17,191.17,0,0,0-18.4685,5.4224q-.5453.1893-1.088.3837l-.806.2876-.3987.7571a15.8757,15.8757,0,0,0-1.1391,2.75c-1.1867,3.8722-.4785,6.9743.3416,10.5667a54.2052,54.2052,0,0,1,1.4421,8.8619c.0447.6377.0837,1.6618.1159,3.0429.0455,1.9692.0249,3.8945-.0129,7.39-.0347,3.2438-.0841,7.8233-.1086,15.0191-.0334,9.9306.0181,13.9641.0485,16.3736.0288,2.23.04,3.1537-.0476,6.2293-.0446,1.5648-.0936,2.9356-.1382,4.1768a80.7661,80.7661,0,0,0,.1476,11.8586,75.16,75.16,0,0,0,3.4164,16.2379l.7172,2.182,56.4358-21.3537c-.47,11.4446-.95,22.85-1.4356,34.0595l-.145,3.3528,3.1313-1.2069a895.2089,895.2089,0,0,1,100.6-32.2373c5.837-1.4867,11.5289-2.8687,17.032-4.2043,18.8817-4.5847,36.7163-8.9143,61.1209-17.3943a555.8379,555.8379,0,0,0,55.3192-22.6131l1.4541-.6893-.2181-1.5949A475.894,475.894,0,0,1,649.0977,752.3134Z"/><path class="cls-10" d="M362.8949,878.68a70.6468,70.6468,0,0,1-2.5348-13.0929,76.4071,76.4071,0,0,1-.13-11.28c.0447-1.2506.094-2.6318.1391-4.2086.0905-3.1657.0785-4.116.0493-6.4113-.0309-2.3957-.0819-6.4069-.0485-16.3015.0241-7.1812.0734-11.75.1082-14.9873.0382-3.5434.0592-5.4953.0124-7.5391-.0343-1.47-.0755-2.534-.1261-3.2507a58.744,58.744,0,0,0-1.5413-9.5306c-.7631-3.3425-1.2674-5.55-.4244-8.3005a11.3741,11.3741,0,0,1,.4639-1.2421c.0708-.0249.1421-.05.2133-.0738a186.5264,186.5264,0,0,1,19.79-5.7083l1.788-.41-.0841-1.8317c-1.0481-22.9789-2.2309-46.3332-3.5168-69.4147-1.75-31.4334-3.93-70.5536-7.9142-121.2229-1.739-22.1125-3.6844-44.5873-5.777-66.8815l228.771-25.4955L384.8394,536.0827l.1339,1.9018C392.7,647.7936,395.5,714.2206,393.297,735.42a199.0276,199.0276,0,0,0-.7236,20.2054c-.0086,4.9786-.0171,10.1263-.3236,15.1427q-.1146,1.863-.2326,3.6652c-.9047,14.0311-1.558,24.1686,4.667,26.8819,1.8352.8,3.1657.5314,13.0053-1.8077,3.4344-.8172,6.5915-1.58,9.4259-2.2739-.6129,16.6784-1.2567,33.4734-1.9159,49.9646q-.222,5.5507-.4487,11.1044Z"/><path class="cls-10" d="M648.8436,817.7863a551.7711,551.7711,0,0,1-53.4273,21.7488c-24.2054,8.41-41.94,12.716-60.7149,17.274-5.516,1.3391-11.219,2.7236-17.0809,4.2164a897.6875,897.6875,0,0,0-97.9652,31.1952c.661-15.3315,1.3108-30.9927,1.9357-46.6057.6978-17.4552,1.3785-35.2494,2.0223-52.8891l.1064-2.9116-2.8292.6987c-3.4987.8635-7.6061,1.8635-12.2173,2.96-6.0172,1.4317-9.7117,2.2824-10.2328,2.0549-3.3974-1.4807-2.7056-12.2018-2.0369-22.5693.0773-1.2052.1571-2.4336.2326-3.6808.3142-5.146.3236-10.3606.3322-15.4028a195.7732,195.7732,0,0,1,.7-19.759c2.2163-21.3273-.5348-87.3715-8.1769-196.2956l246.0181-52.9156,13.0055-1.4494a642.7768,642.7768,0,0,0-3.8084,111.4962c.6447,11.6568,1.4884,20.6938,2.2335,28.6669a374.555,374.555,0,0,1,2.1,47.2272c-.2644,16.1955-1.2421,27.7634-2.188,38.95-.9854,11.6645-2.0052,23.7265-2.1485,40.7224A480.5452,480.5452,0,0,0,648.8436,817.7863Z"/><path class="cls-5" d="M654.1308,661.2179c17.0849,2.9684,27.2932,9.7493,32.62,14.122a70.7914,70.7914,0,0,1,16.28,19.6838c4.0568,7.82,5.92,15.757,13.795,25.5632a36.9926,36.9926,0,0,0,5.3655,5.595,40.6614,40.6614,0,0,0,18.1436,8.3287"/><path class="cls-7" d="M745.6154,729.1281a43.8318,43.8318,0,0,1,8.354-6.6412c5.0588-3.0562,10.68-6.4521,13.25-4.5182,1.7977,1.3529,2.9521,8.4981,2.3139,6.3406h0a47.6035,47.6035,0,0,1-5.9915,3.56c-4.0838,1.9031-7.5036,1.82-7.4772,2.0947.0373.3886,6.7575-.6152,14.4268,1.6032a10.3863,10.3863,0,0,1,5.813,3.4788c1.3071,1.7272,2.2831,4.4833,1.2869,5.5531-.7429.7979-2.0784.1159-6.3609-.6372-2.7469-.4831-1.7005-.1152-8.0659-.966-4.9374-.66-7.4277-1.13-7.4976-.8564-.1541.604,12.249,1.82,16.412,9.6487.3833.7208,1.9309,3.6314.7186,5.4436-1.1452,1.7118-4.2214,1.6486-6.1214,1.1773-2.5-.62-3.2355-2.0146-6.7305-4.8346-3.5881-2.8952-6.5368-5.2744-7.9766-4.4854-2.218,1.2154,1.6177,8.5943-1.6235,11.4757-1.7622,1.5666-5.18,1.4161-6.4706-.0689-.8659-.9965-.3315-2.0849-.0407-5.9022.28-3.672.5166-6.78-.41-10.1-.9124-3.2683-2.081-3.62-1.8552-5.6627C741.7317,733.3541,742.5085,732.0443,745.6154,729.1281Z"/><path class="cls-5" d="M396.7017,697.9106c-20.29,3.5791-32.2946,11.1382-38.5389,15.9858a77.8893,77.8893,0,0,0-18.9362,21.6571c-4.65,8.5519-6.6838,17.1843-15.8368,27.9685a41.865,41.865,0,0,1-6.262,6.1718c-7.4114,5.8367-15.7855,8.2778-21.4248,9.4045"/><path class="cls-7" d="M292.352,773.9992a52.0312,52.0312,0,0,0-10.1116-7.0106c-6.1-3.2-12.8788-6.7561-15.8954-4.6076-2.11,1.503-3.3176,9.2627-2.608,6.9135h0a58.39,58.39,0,0,0,7.2237,3.7258c4.9114,1.9728,8.9846,1.8095,8.96,2.1076-.0353.4214-8.0672-.5214-17.1542,2.0443-2.5682.7251-5.089,1.6933-6.8451,3.89-1.517,1.8977-2.6151,4.9023-1.4028,6.039.9042.8479,2.48.0811,7.5651-.8259,3.262-.5817,2.0238-.161,9.5891-1.2183,5.8682-.82,8.8247-1.3824,8.9144-1.0876.1978.6506-14.5538,2.232-19.33,10.7965-.44.7885-2.2155,3.9724-.7281,5.9082,1.405,1.8286,5.0693,1.6943,7.3224,1.1435,2.965-.7249,3.8082-2.25,7.9065-5.3777,4.2077-3.2109,7.6654-5.85,9.4-5.0263,2.6717,1.2683-1.7253,9.3383,2.205,12.3882,2.1369,1.6582,6.2063,1.4222,7.7091-.213,1.0084-1.0973.346-2.2642-.0906-6.39-.42-3.969-.7753-7.3283.2509-10.942,1.01-3.5576,2.3945-3.9638,2.0774-6.17C297.08,778.4909,296.1231,777.09,292.352,773.9992Z"/><path class="cls-5" d="M494.3124,872.6094c-2.142,42.4929,1.5606,59.1153,6.1984,65.4506a20.48,20.48,0,0,1,4.4383,11.4687c.2264,6.8149-3.8023,11.9805-4.7529,13.3023-4.7029,6.54-8.8717,23.0264-7.7025,65.1771"/><path class="cls-6" d="M528.9447,1040.2151c-.4365,1.6612-3.4529,2.002-6.0878,2.3-7.6262.8618-11.8853-1.8794-17.6206-3.5137-12.6741-3.6115-19.1559,2.0005-20.9758-2.4116-1.6854-4.0864,2.227-12.8945,7.527-15.8246,2.4146-1.3349,5.1881-1.489,15.943,4.0648C515.7543,1028.9731,529.97,1036.3138,528.9447,1040.2151Z"/><path class="cls-6" d="M605.6332,1016.3571c-.3927,1.672-3.3991,2.0919-6.0253,2.4587-7.6009,1.0617-11.9306-1.5667-17.7068-3.05-12.7645-3.2776-19.0968,2.5027-21.0318-1.86-1.7922-4.0408,1.8876-12.9486,7.1089-16.0168,2.3787-1.3978,5.1472-1.6247,16.0442,3.6448C592.1522,1005.4653,606.5554,1012.43,605.6332,1016.3571Z"/><path class="cls-8" d="M490.7007,683.0986q-.6131,0-1.2315-.0478c-12.43-.97-21.4072-16.3174-20.0112-34.2129,1.3438-17.2383,11.8164-30.7422,23.8418-30.7422q.6138,0,1.2319.0479c5.8916.4589,11.22,4.1806,15.0049,10.4785,3.9146,6.5136,5.6929,14.9424,5.0069,23.7334C513.1992,669.5947,502.7261,683.0986,490.7007,683.0986Z"/><path d="M493.3022,616.095v4h0c.3555,0,.7168.0142,1.0736.042,5.2285.4078,10.0037,3.787,13.4458,9.5151,3.7022,6.1608,5.3812,14.1683,4.7277,22.5473-1.2428,15.935-11.0441,28.8991-21.8487,28.8991-.3571,0-.7191-.0141-1.076-.0419-5.2285-.4079-10.0036-3.787-13.4458-9.5152-3.7021-6.1608-5.3811-14.1682-4.7277-22.5473,1.2427-15.9336,11.0443-28.8977,21.8493-28.8991l.0014-4m-.0019,0c-12.9857.0017-24.4038,14.2157-25.8366,32.5881-1.4838,19.0249,8.2989,35.3044,21.85,36.3613.4648.0363.9258.0541,1.387.0541,12.9856,0,24.4037-14.2157,25.8366-32.5881,1.4838-19.0249-8.299-35.3044-21.85-36.3613-.4649-.0362-.9258-.0541-1.387-.0541Z"/><path d="M473.1415,689.2675a39.8712,39.8712,0,0,0,27.0127,4.357c1.896-.35,1.0929-3.2417-.7975-2.8928a36.5036,36.5036,0,0,1-24.701-4.0546c-1.691-.9347-3.206,1.6552-1.5142,2.59Z"/><path d="M588.3222,663.9348a36.1271,36.1271,0,0,1-27.78,13.9218c-1.9274.0448-1.9345,3.045,0,3a38.9849,38.9849,0,0,0,29.9009-14.8c1.1867-1.4977-.9224-3.6345-2.1213-2.1213Z"/><ellipse class="cls-9" cx="491.9634" cy="653.0951" rx="12.3057" ry="9.2293" transform="translate(-197.4074 1092.7871) rotate(-85.5404)"/><path d="M533.4083,675.5743c.389,5.7748,4.4984,10.5054,6.2146,15.9312,1.0705,3.3847,2.5626,8.2282,1.5757,11.738-.874,3.108-4.1515,5.1921-5.9365,7.795-1.0947,1.5962,1.504,3.0983,2.59,1.5142,1.7126-2.4975,4.4719-4.2,5.7137-7.02,1.1107-2.5219.8714-5.2918.5015-7.948a42.7874,42.7874,0,0,0-3.0926-11.0087c-1.5555-3.6213-4.2955-6.9745-4.5668-11.0018-.1291-1.9161-3.13-1.93-3,0Z"/><path d="M566.8677,574.4961a48.22,48.22,0,0,1,27.83,14.3816c1.3412,1.3938,3.4609-.7292,2.1213-2.1214a50.8052,50.8052,0,0,0-29.1538-15.153c-1.8887-.2889-2.7029,2.6014-.7975,2.8928Z"/><path d="M485.2191,586.6155a50.6867,50.6867,0,0,0-23.9371,22.5006c-.9068,1.7035,1.6819,3.2208,2.59,1.5141a48.0748,48.0748,0,0,1,22.8609-21.4242c1.7556-.7964.2324-3.3827-1.5142-2.5905Z"/><path class="cls-8" d="M562.335,669.9531c-12.4639-.331-22.2163-15.1972-21.74-33.1406.4673-17.6152,10.8057-31.9463,23.0459-31.9463.14,0,.2813.001.4209.0049,5.9073.1572,11.4195,3.6006,15.522,9.6963,4.2436,6.3047,6.4521,14.6308,6.2178,23.4443-.4668,17.6162-10.8042,31.9463-23.0435,31.9463C562.7573,669.958,562.4746,669.957,562.335,669.9531Z"/><path d="M563.64,606.8657c.1218,0,.2457.0016.3681.0048,5.2426.1391,10.1847,3.269,13.9161,8.813,4.0133,5.9629,6.1007,13.8737,5.8778,22.2752-.4389,16.542-9.88,30-21.0464,30-.1219,0-.2458-.0017-.3681-.0049-5.2426-.1391-10.1847-3.269-13.9161-8.813-4.0133-5.9629-6.1007-13.8737-5.8778-22.2752.4388-16.5419,9.88-30,21.0464-30m0-4c-13.38,0-24.5448,15.0388-25.045,33.8936-.5061,19.076,10.0986,34.8324,23.6864,35.1929.1576.0042.3172.0063.4742.0063,13.3794,0,24.5448-15.0389,25.045-33.8937.5061-19.076-10.0986-34.8324-23.6864-35.1929-.1576-.0042-.3173-.0062-.4742-.0062Z"/><ellipse class="cls-9" cx="561.5212" cy="641.5897" rx="12.3057" ry="9.2293" transform="translate(-94.7359 1185.8965) rotate(-88.4802)"/><path class="cls-5" d="M570.7837,851.5139c-2.142,42.4928,1.5607,59.1153,6.1985,65.4506a20.4812,20.4812,0,0,1,4.4382,11.4687c.2264,6.8149-3.8023,11.98-4.7528,13.3022-4.703,6.54-8.8718,23.0265-7.7026,65.1772"/><path d="M454.891,786.0991l-8.1917-37.2411,2.3483-.5165,9.4848,17.6665c2.1965,4.0932,4.0236,7.804,5.6538,11.4425l.0369-.0656c-1.2914-4.93-2.3377-9.4492-3.614-15.2514l-3.4273-15.5813,2.0279-.446,8.1917,37.2411-2.1757.4785-9.4479-17.7329c-2.0734-3.8889-4.1218-7.8981-5.85-11.7473l-.0624.072c1.1566,4.669,2.1908,9.1336,3.5521,15.3224l3.5,15.9132Z"/><path d="M470.8839,782.8126l.4638-5.1994c-2.1141-3.0109-4.0114-7.7484-5.2269-13.2744-2.5887-11.7687-.9408-20.1835,3.4113-21.1408,1.5326-.3371,3.1853.3423,4.7973,2.0154l.4743-4.7964,1.7484,1.7-.4881,5.0891c2.1261,3.0657,3.9625,7.76,5.1656,13.23,2.8562,12.9851.7173,20.3493-3.2631,21.2248-1.5824.3481-3.2722-.3815-4.8849-2.0544l-.5121,5.0952Zm3.16-33.8291c-1.193-1.4173-2.45-2.1838-3.6862-1.9119-3.6344.7995-3.8111,8.7167-2.0975,16.5069a38.7683,38.7683,0,0,0,3.4355,9.73l.0127-.061Zm-.6769,26.8528c1.1926,1.5339,2.3634,2.2611,3.6985,1.9674,3.4858-.7667,3.847-8.3192,2-16.7176a37.8391,37.8391,0,0,0-3.2894-9.4138l-.0739.0162Z"/><path d="M500.5084,774.3269a8.7776,8.7776,0,0,1-4.6682,3.17c-2.5217.5547-4.9145-.4247-7.3117-3.5474-2.1152-2.7784-4.0985-7.5553-5.3748-13.3575-2.4187-11.1111-.7933-19.9837,4.7951-21.2129a5.9763,5.9763,0,0,1,4.53.799l.3442,4.037a5.0876,5.0876,0,0,0-4.0365-.7918c-4.055.8919-5.4606,7.11-3.4066,16.4477,2.0782,9.448,5.8523,14.4686,9.7339,13.6147a3.8841,3.8841,0,0,0,2.65-1.6249l-2.443-11.1066-3.3879.7452-.8506-3.8673,5.4888-1.2074Z"/><path d="M508.948,755.9031,502.47,757.328l2.9535,13.4273,7.22-1.5881.8872,4.0333-9.37,2.0612-8.1917-37.2411,9-1.98.8872,4.0333-6.8489,1.5065,2.5889,11.7695,6.478-1.4249Z"/><path d="M516.3221,772.5865,508.13,735.3454l2.3483-.5166,9.4848,17.6666c2.1965,4.0932,4.0236,7.804,5.6538,11.4425l.0369-.0656c-1.2914-4.93-2.3377-9.4492-3.6139-15.2514L518.6129,733.04l2.0279-.4461,8.1917,37.2411-2.1756.4786-9.448-17.7329c-2.0734-3.8889-4.1218-7.8982-5.85-11.7473l-.0624.072c1.1566,4.669,2.1908,9.1335,3.5522,15.3224l3.5,15.9132Z"/><path d="M524.5059,732.2644a10.1032,10.1032,0,0,1,3.7606-1.6379,4.8361,4.8361,0,0,1,5.17,1.7012,13.308,13.308,0,0,1,2.8305,6.271c.79,3.5911.42,6.9745-1.02,8.7969l.0244.1112c1.7768.5356,4.2755,3.0566,5.4908,8.5817a18.1273,18.1273,0,0,1,.2318,7.7691,5.991,5.991,0,0,1-4.9952,4.7487,11.8513,11.8513,0,0,1-3.4346.2918Zm5.5053,14.7771,1.9533-.43c2.2744-.5,3.0262-3.4458,2.2361-7.0376-.96-4.3652-2.82-5.7514-4.9961-5.2728a4.4567,4.4567,0,0,0-1.8307.75Zm3.9258,17.8473a5.4025,5.4025,0,0,0,1.8533-.1763c2.2254-.49,3.8764-2.7638,2.6852-8.1793-1.118-5.0829-3.5332-6.7533-5.8823-6.2366l-1.78.3915Z"/><path d="M539.9459,728.3471l8.1917,37.2411-2.1508.4731L537.7951,728.82Z"/><path d="M543.7032,727.5207l2.1508-.4731,7.3045,33.2078,7.12-1.5662.8872,4.0332-9.271,2.0393Z"/><path d="M555.3708,724.9542l2.1508-.4731,7.3045,33.2078,7.12-1.5662.8871,4.0333-9.271,2.0393Z"/><path d="M580.0181,740.27l-6.4779,1.4249,2.9535,13.4274,7.22-1.5881.8871,4.0332-9.37,2.0612-8.1917-37.2411,9-1.98.8872,4.0332-6.8488,1.5065,2.5888,11.77,6.478-1.425Z"/><path d="M579.31,720.21a14.6856,14.6856,0,0,1,4.4036-1.7793c3.0908-.68,5.6438.4382,7.771,3.1566,2.1512,2.7123,3.9648,6.8323,5.2894,12.8544,1.3371,6.0785,1.59,11.2359.7864,15.0044-.7919,3.8233-2.95,6.2682-6.1893,6.9807a16.2061,16.2061,0,0,1-4.003.4169Zm9.3945,32.4584a6.3981,6.3981,0,0,0,2.2364-.2022c4.5986-1.0115,5.8321-7.3075,3.62-17.3637-1.9075-8.7906-5.3605-13.8817-9.91-12.881a5.95,5.95,0,0,0-2.4124,1.0517Z"/><path d="M608.644,733.9736l-6.4779,1.4249,2.9535,13.4273,7.22-1.5881.8872,4.0333-9.37,2.0612-8.1917-37.2411,9-1.98.8872,4.0333-6.8489,1.5065,2.5889,11.7695,6.478-1.4249Z"/><path d="M607.9357,713.9129a10.8086,10.8086,0,0,1,3.9589-1.6816,4.9965,4.9965,0,0,1,5.49,1.9789,16.8546,16.8546,0,0,1,2.8659,6.7843c1.0815,4.9169.4145,8.4813-1.0494,10.1942l.0363.1651c1.5049.712,2.8543,3.1961,4.1008,6.9764,1.686,5.0745,2.8719,8.5792,3.5338,9.9394l-2.2247.4893c-.503-.99-1.5789-4.1133-3.0695-8.6515-1.6248-5.03-2.9405-6.7679-4.93-6.5033l-2.0272.4459,3.5489,16.1338-2.1508.4731Zm5.882,16.49,2.2006-.484c2.2992-.5058,3.1382-3.6444,2.2023-7.8992-1.0573-4.8065-3.0767-6.5639-5.3639-6.1183a4.37,4.37,0,0,0-2.0288.9091Z"/><path d="M1461.3074,821.1605a58.41,58.41,0,0,0,6.8809,8.8445l199.6084,56.9929c11.4119,4.257,19.5262,5.7674,25.3574,5.7674.3024,0,.5778-.0176.8681-.0255l-.1327.6169a36.2566,36.2566,0,0,0,7.6208.8415,29.8591,29.8591,0,0,0,7.1979-.8567,12.67,12.67,0,0,0,6.116-3.0848c2.4515-2.3075,3.8043-5.8849,4.1731-10.9714.4081-5.6272-.5391-10.0343-2.68-17.2136-1.9451-6.5228-2.9209-9.7943-5.25-15.7435-2.3759-6.07-4-9.58-13.0371-28.6885-5.2212-11.0406-7.541-15.9437-7.8042-16.4743-1.8322-3.694-3.2086-6.3547-4.3146-8.4924a53.9934,53.9934,0,0,1-4.2161-9.3786c-2.1538-6.69-2.2957-11.9777-2.4926-19.2955-.2568-9.5781.6041-16.3628,2.5766-30.7958.9155-6.6994,2.3-16.8233,5.1625-30.12a245.8232,245.8232,0,0,1,6.8637-26.6066c.3562-1.0929.474-1.4153,3.4989-9.6774l3.3974-9.284c5.21-14.2412,6.2609-17.1388,7.8033-21.6769.6772-1.9915,2.4828-8.001,6.08-19.9736,2.882-9.59,4.4692-14.8732,2.4587-18.8938-1.8863-3.7718-5.92-6.41-11.7147-7.7041a5.1782,5.1782,0,0,0-2.1309-.4458c-.0228,0-.0466.0052-.0694.0055a273.2956,273.2956,0,0,1-30.0143-16.9249c-7.0145-4.579-11.9248-8.26-17.6107-12.5222-4.9361-3.7-10.5311-7.8945-18.5-13.4021-6.9117-4.7766-13.9681-9.3948-21.0342-13.7947-15.4552-12.856-39.6319-16.0583-77.3266-20.9157-17.35-2.2356-34.4837-4.4739-48.0207-4.4744-13.3629,0-23.22,2.18-26.3338,8.6961-2.7153,5.683,2.3322,10.9659,9.4518,27.14a146.7875,146.7875,0,0,1,14.4929,51.2635c1.654,18.3091-.6542,32.6937-2.5182,43.8461-2.8855,17.2644-6.3618,25.4773-12.316,44.8095-12.4245,40.3405-18.6367,60.5107-18.4189,79.78C1455.2523,786.4548,1450.74,804.4578,1461.3074,821.1605Z"/><path class="cls-8" d="M1697.5264,590.884c-9.9233,6.24-23.0565,24.5665-35.9192,24.5665a12.99,12.99,0,0,1-2.3307-.2081c-7.3368-1.3339-11.64-9.1275-17.1754-19.0344a66.141,66.141,0,0,1-8.1357-26.8213A56.9851,56.9851,0,0,0,1625.94,543.73q4.3267,2.8656,8.604,5.8059c7.9008,5.46,13.46,9.6279,18.3652,13.3046,5.7459,4.3074,10.7086,8.0276,17.8406,12.6831A275.7,275.7,0,0,0,1697.5264,590.884Z"/><path class="cls-8" d="M1677.4929,732.6167c-1.8647,13.6464-2.8917,21.1637-2.6146,31.4988.0839,3.121.1621,5.9644.3991,8.7573a179.6552,179.6552,0,0,1-.9526-37.856c2.0226-24.8368,8.469-38.8026,18.86-77.8,4.8366-18.1525,9.8475-39.1859,14.4118-62.7755a9.9566,9.9566,0,0,1,5.5786,4.4643c1.19,2.3793-.0477,6.78-2.7325,15.7143-3.5829,11.9228-5.3809,17.9078-6.0332,19.8257-1.5276,4.4946-2.5744,7.3817-7.77,21.5832l-3.3974,9.2832c-3.11,8.4953-3.17,8.6575-3.55,9.8248a249.2175,249.2175,0,0,0-6.9795,27.0354C1679.8148,715.63,1678.4177,725.8522,1677.4929,732.6167Z"/><path class="cls-8" d="M1707.6677,889.1422a24.1183,24.1183,0,0,1-3.1723.5552c18.0766-13.2765-10.3082-66.4007-23.6422-89.5458a198.2413,198.2413,0,0,1-4.4619-19.8746c.3167,1.4042.7026,2.8415,1.1857,4.3422a58.6589,58.6589,0,0,0,4.492,10.042c1.0984,2.1232,2.4655,4.7653,4.2813,8.4264.2564.5162,3.2453,6.8363,7.7695,16.4016,8.9819,18.9931,10.5936,22.475,12.9188,28.4157,2.2632,5.7809,3.2217,8.995,5.1313,15.3987,1.9893,6.67,2.8719,10.7136,2.5123,15.6691-.4258,5.8773-2.2018,7.5494-2.7857,8.0986A9.2454,9.2454,0,0,1,1707.6677,889.1422Z"/><path class="cls-8" d="M1458.9169,779.5952c.2252-5.48.4581-11.1465.3884-17.3173-.21-18.5927,5.9516-38.599,18.2274-78.457,1.4132-4.5882,2.7073-8.613,3.8491-12.164,3.6868-11.4662,6.3506-19.7506,8.6-33.206,1.7113-10.239,4.2974-25.7121,2.56-44.9486a151.296,151.296,0,0,0-14.8761-52.6946c-2.1665-4.9157-4.1544-8.8644-5.7532-12.04-3.557-7.0656-4.63-9.51-3.7206-11.4139,1.3591-2.8443,6.3531-6.235,22.4265-6.235h.0016c13.034,0,29.3361,2.1015,46.5952,4.3261l.875.1128c21.2916,2.7436,39.68,5.1132,53.4054,9.1891a65.6429,65.6429,0,0,1,18.061,8.06l-.2184.3588c1.3433.8178,2.687,1.6595,4.0307,2.495a41.8948,41.8948,0,0,1,7.1413,7.7006c5.2759,7.3365,8.352,16.2059,9.1428,26.3618a70.092,70.092,0,0,0,8.6723,28.5955l.1278.2288c5.775,10.3364,10.7625,19.2632,20.05,20.9518a17.4087,17.4087,0,0,0,3.1045.2778c10.2668,0,19.6712-8.7971,27.9685-16.5588,4.3877-4.1045,9.75-9.1138,12.82-9.94.3117.1495.62.3033.9327.4518-4.0483,20.9052-8.862,41.8745-14.3239,62.3735-3.1931,11.9839-5.9863,21.5055-8.4506,29.9064-5.4836,18.6936-9.1064,31.0433-10.5407,48.656a190.0564,190.0564,0,0,0,6.6732,66.6485l.1465.5248.2719.4721c10.7,18.5733,18.586,34.7946,23.4389,48.2135,3.9817,11.01,9.4206,30.3151,1.1092,35.8977-1.9926,1.3385-4.8519,2.0171-8.4987,2.0171-6.049,0-14.0717-1.8486-23.8454-5.4946l-.16-.06-.1642-.0469-91.49-26.1227-106.9521-30.5373a53.9865,53.9865,0,0,1-5.5788-7.3306C1457.7706,807.4794,1458.2765,795.1742,1458.9169,779.5952Z"/><path class="cls-5" d="M1618.5217,868.689c-3.2711,7.7047-7.6943,18.5534-12.3977,31.5911-8.2655,22.9121-8.73,28.5626-8.6841,32.2694.1777,14.2365,8.182,22.8443,13.8391,29.8731,9.8324,12.2167,21.7321,31.0423,29.6966,59.4791"/><path class="cls-6" d="M1605.67,1033.31c.1764,1.46,3.06,2.1389,5.5794,2.7321,7.291,1.7169,11.8442-.0462,17.6684-.683,12.87-1.4072,18.3384,4.1741,20.768.683,2.25-3.2333-.2406-11.1812-4.9595-14.3437-2.15-1.4407-4.8253-1.9306-16.1185,1.3661C1620.1822,1025.5242,1605.2552,1029.8816,1605.67,1033.31Z"/><path class="cls-6" d="M1532.3518,1022.0532c-.69,1.2984-3.6252.8936-6.1889.54-7.42-1.0233-11.0332-4.3077-16.2375-6.9987-11.5005-5.9468-18.6114-2.7086-19.6211-6.84-.9351-3.8266,4.25-10.3447,9.7914-11.596,2.5243-.57,5.1967-.0638,14.5456,7.0779C1521.6161,1009.5643,1533.973,1019.0039,1532.3518,1022.0532Z"/><path class="cls-5" d="M1515.9653,841.9751c3.591,7.8561,8.4656,18.9326,13.7145,32.2937,9.2242,23.48,9.9333,29.3989,10.0491,33.31.4445,15.0206-7.1443,24.7427-12.4664,32.61-9.25,13.6743-20.2689,34.4825-26.9526,65.1024"/><path d="M1746.6457,807.9822l1.8174-3.9255a37.4457,37.4457,0,0,1-14.6108-11.4867,34.6612,34.6612,0,0,1-3.62-6.2229c-3.558-7.5612-4.6069-13.6261-5.6213-19.4915-.4571-2.643-.8888-5.14-1.5331-7.7514a71.3389,71.3389,0,0,0-11.406-23.3782c-6.8786-9.1125-16.5741-16.4228-28.8179-21.7263l-1.7194,3.9694c11.5493,5.0028,20.6618,11.8543,27.0845,20.3627a67.8908,67.8908,0,0,1,10.6587,21.8075c.6075,2.4638,1.0266,4.8878,1.4706,7.4539,1.0633,6.1485,2.163,12.5057,5.9694,20.5958a38.7434,38.7434,0,0,0,4.0641,6.9631A41.7161,41.7161,0,0,0,1746.6457,807.9822Z"/><path class="cls-7" d="M1751.2551,802.0886a43.1425,43.1425,0,0,1,9.527-4.4257c5.5463-1.7562,11.709-3.7077,13.7212-1.2639,1.4077,1.71.8625,8.8131.75,6.6013h0a46.8487,46.8487,0,0,1-6.555,2.0231c-4.3471.878-7.6.0087-7.6384.2778-.054.38,6.6081.9717,13.4343,4.8653a10.2235,10.2235,0,0,1,4.7589,4.6709c.8519,1.9545,1.1494,4.8171-.0508,5.6107-.8952.5919-2.0156-.369-5.9394-2.0785-2.5168-1.0965-1.6006-.5028-7.4949-2.7868-4.572-1.7715-6.8463-2.7964-6.9763-2.5506-.287.5423,11.3,4.57,13.476,13.022.2.7782,1.0091,3.9206-.5694,5.3746-1.491,1.3736-4.42.6027-6.1292-.2869-2.2493-1.1708-2.6307-2.6748-5.3237-6.18-2.7649-3.5988-5.0369-6.5562-6.5968-6.1337-2.403.6508-.4366,8.597-4.2033,10.6057-2.0479,1.0921-5.2836.1589-6.1755-1.56-.5985-1.1534.1642-2.0715,1.3239-5.657,1.1156-3.4489,2.06-6.368,1.94-9.7585-.1184-3.338-1.1552-3.9447-.4676-5.8468C1746.5631,805.2355,1747.6088,804.1616,1751.2551,802.0886Z"/><path class="cls-5" d="M1479.7749,665.8023c-15.6624,6.7853-23.8645,15.6308-27.9515,21.0447a69.6848,69.6848,0,0,0-11.0323,22.5937c-2.0762,8.419-2.0265,16.4442-7.2972,27.6456a36.4048,36.4048,0,0,1-3.8421,6.5926,40.0233,40.0233,0,0,1-15.4376,12.1588"/><path class="cls-7" d="M1407.9179,751.9069a43.138,43.138,0,0,0-9.527-4.4257c-5.5463-1.7563-11.709-3.7077-13.7212-1.2639-1.4077,1.71-.8624,8.8131-.75,6.6013h0a46.8634,46.8634,0,0,0,6.555,2.0231c4.3471.878,7.6.0087,7.6384.2778.054.38-6.6081.9717-13.4343,4.8653a10.2235,10.2235,0,0,0-4.7589,4.6709c-.8519,1.9545-1.1494,4.8171.0508,5.6107.8952.5919,2.0156-.369,5.9394-2.0785,2.5168-1.0965,1.6006-.5029,7.4949-2.7868,4.572-1.7716,6.8463-2.7964,6.9763-2.5507.287.5424-11.3,4.5695-13.4759,13.0221-.2.7782-1.0091,3.9206.5693,5.3746,1.4911,1.3735,4.42.6027,6.1292-.2869,2.2493-1.1709,2.6307-2.6748,5.3237-6.18,2.7649-3.5988,5.037-6.5562,6.5968-6.1337,2.403.6508.4366,8.597,4.2033,10.6057,2.0479,1.0921,5.2836.1589,6.1755-1.56.5985-1.1535-.1642-2.0715-1.3239-5.657-1.1156-3.4489-2.06-6.368-1.94-9.7586.1184-3.3379,1.1553-3.9447.4676-5.8468C1412.61,755.0538,1411.5642,753.98,1407.9179,751.9069Z"/><path d="M1493.817,764.6034l10.0482-32.2675,2.59.8067.8053,18.1588c.1852,4.2066.19,7.9368.0341,11.5119l.0693-.0305c1.1236-4.3771,2.2915-8.3193,3.857-13.3466l4.2041-13.5,2.2358.6962L1507.613,768.9l-2.4-.7472-.7359-18.19c-.1632-3.99-.242-8.0578-.0809-11.8419l-.0965.0228c-1.1307,4.1115-2.2841,8.007-3.9537,13.3686L1496.0528,765.3Z"/><path d="M1511.34,770.27l3.0023-3.6863c-.6323-3.3475-.2053-7.8887,1.2857-12.6766,3.1753-10.197,8.9288-15.7057,13.7271-14.2114a6.0988,6.0988,0,0,1,3.79,3.9641l2.8162-3.3769.9082,2.1732-2.9726,3.5908c.6178,3.3957.1507,7.8724-1.3251,12.6114-3.5035,11.2509-9.231,15.7172-13.6208,14.35a6.2263,6.2263,0,0,1-3.8567-4.0377l-3,3.5831Zm19.6787-23.9114a4.46,4.46,0,0,0-2.7347-3.32c-4.0078-1.2481-8.053,4.6348-10.1549,11.3846a27.4479,27.4479,0,0,0-1.3352,9.09l.0424-.04Zm-13.7979,19.9133c.4376,1.7647,1.2474,2.91,2.72,3.3681,3.8444,1.1972,7.8941-4.3168,10.16-11.5936a26.7664,26.7664,0,0,0,1.3275-8.7772l-.0815-.0253Z"/><path d="M1544.9707,778.9572a11.4489,11.4489,0,0,1-6.1954.0139c-2.7811-.8661-4.6839-2.8237-5.5439-6.4006-.7463-3.1732-.3864-7.7873,1.1791-12.8146,3.0239-9.6141,8.9779-15.48,15.14-13.561a7.72,7.72,0,0,1,4.1184,2.91l-1.6312,3.2206a6.528,6.528,0,0,0-3.63-2.6532c-4.4712-1.3923-8.9094,2.5827-11.4289,10.6733-2.5492,8.1862-1.2468,13.896,3.0336,15.229a5.1189,5.1189,0,0,0,3.431.1236l2.9967-9.6233-3.7351-1.1631,1.0435-3.3508,6.0527,1.8848Z"/><path d="M1562.3731,769.3563l-7.1431-2.2244-3.6229,11.6341,7.9611,2.4791L1558.48,784.74l-10.3332-3.2178,10.0482-32.2675,9.9242,3.0905-1.0883,3.4946-7.552-2.3518-3.1756,10.1977,7.143,2.2244Z"/><path d="M1561.5588,785.6984l10.0482-32.2674,2.59.8066.8053,18.1589c.1852,4.2066.19,7.9368.0342,11.5119l.0692-.0305c1.1236-4.3771,2.2915-8.3193,3.8571-13.3466l4.204-13.5,2.2358.6962-10.0482,32.2675-2.4-.7473-.7359-18.19c-.1632-3.99-.242-8.0578-.0809-11.8419l-.0964.0228c-1.1308,4.1115-2.2841,8.0069-3.9538,13.3686l-4.2936,13.7879Z"/><path d="M1579.6171,788.5909c.5516-1.7714,1.6208-2.8036,2.5748-2.5065s1.2214,1.7455.67,3.5169c-.5368,1.7239-1.5666,2.8212-2.5754,2.507C1579.332,791.8111,1579.08,790.3148,1579.6171,788.5909Z"/><path d="M1602.9908,763.204l2.893.9009-6.7238,21.5917c-2.6685,8.5694-6.415,10.2914-10.2717,9.09a7.1966,7.1966,0,0,1-2.854-1.7294l1.4908-3.2643a5.3259,5.3259,0,0,0,2.2333,1.3783c2.5939.8078,4.6451-.3917,6.6132-6.7116Z"/><path d="M1610.1432,765.8516a15.9337,15.9337,0,0,1,4.6275.7581,5.7988,5.7988,0,0,1,4.1832,4.2435,13.3811,13.3811,0,0,1-.5357,7.2383,15.3161,15.3161,0,0,1-3.5273,6.4637,6.3423,6.3423,0,0,1-6.5726,1.84,4.7715,4.7715,0,0,1-1.7689-.8655l-4.0252,12.9259-2.31-.7193Zm-2.5354,16.2787a4.6918,4.6918,0,0,0,1.8073.93c2.7876.868,5.2472-1.045,6.6336-5.4972,1.3269-4.261.295-6.84-2.2537-7.6338a5.8381,5.8381,0,0,0-2.2811-.3428Z"/><path d="M1626.7433,804.4215a11.4312,11.4312,0,0,1-6.19.0155c-2.7786-.8653-4.6792-2.8222-5.5376-6.3986-.7449-3.1727-.3841-7.7866,1.1814-12.8139,3.0239-9.6141,8.9745-15.4809,15.13-13.5638a7.7079,7.7079,0,0,1,4.1142,2.9089l-1.6307,3.2208a6.5179,6.5179,0,0,0-3.6262-2.6521c-4.4671-1.391-8.9026,2.5848-11.4221,10.6754-2.5492,8.1862-1.2493,13.8953,3.0272,15.227a5.1113,5.1113,0,0,0,3.428.1227l2.9967-9.6233-3.7317-1.1621,1.0435-3.3508,6.0472,1.8831Z"/><ellipse class="cls-8" cx="1619.5045" cy="651.1483" rx="22.0627" ry="37.6363"/><path d="M1619.5045,615.675c10.7868,0,19.9,16.2448,19.9,35.4733s-9.1129,35.4733-19.9,35.4733-19.9-16.2448-19.9-35.4733,9.1129-35.4733,19.9-35.4733m0-4.326c-13.3794,0-24.2256,17.8188-24.2256,39.7993s10.8462,39.7993,24.2256,39.7993,24.2257-17.8188,24.2257-39.7993-10.8462-39.7993-24.2257-39.7993Z"/><ellipse class="cls-8" cx="1546.8276" cy="632.1139" rx="22.0627" ry="37.6363"/><path d="M1546.8276,596.6406c10.7867,0,19.9,16.2447,19.9,35.4733s-9.1129,35.4732-19.9,35.4732-19.9-16.2447-19.9-35.4732,9.1129-35.4733,19.9-35.4733m0-4.326c-13.38,0-24.2257,17.8187-24.2257,39.7993s10.8462,39.7993,24.2257,39.7993,24.2256-17.8188,24.2256-39.7993-10.8462-39.7993-24.2256-39.7993Z"/><path d="M1635.0632,696.1213a38.8538,38.8538,0,0,1-26.6964,2.2792,1.2989,1.2989,0,0,1,.69-2.5029,35.9506,35.9506,0,0,0,24.6963-2.0176c1.5078-.6911,2.8283,1.5454,1.31,2.2413Z"/><path d="M1523.9577,662.9586a35.48,35.48,0,0,0,26.0824,15.6578c1.647.1627,1.6638,2.76,0,2.5956a38.2491,38.2491,0,0,1-28.3237-16.9433c-.9313-1.3923,1.3161-2.6932,2.2413-1.31Z"/><ellipse class="cls-9" cx="1606.289" cy="657.6373" rx="9.0846" ry="12.1128"/><ellipse class="cls-9" cx="1532.7469" cy="636.0073" rx="9.0846" ry="12.1128"/><path d="M1576.7835,678.1644c-.775,5.8441-5.4485,10.3423-7.55,15.774-1.1634,3.0063-2.64,7.0147-2.283,10.247.3964,3.5877,3.5926,5.7651,5.2657,8.7434a1.2988,1.2988,0,0,1-2.2412,1.31c-1.4471-2.5759-4.0331-4.4563-5.08-7.273-.9895-2.6631-.4511-5.6046.1676-8.2867a42.34,42.34,0,0,1,3.5312-9.635c1.8024-3.5448,5.0556-6.8184,5.5942-10.88.2164-1.6319,2.8148-1.6534,2.5956,0Z"/></svg>
