<svg id="Layer_1" data-name="Layer 1" xmlns="http://www.w3.org/2000/svg" xmlns:xlink="http://www.w3.org/1999/xlink" viewBox="0 0 1920 1080"><defs><style>.cls-1,.cls-11,.cls-4{fill:none;}.cls-2{clip-path:url(#clip-path);}.cls-3{fill:#fff08a;}.cls-10,.cls-11,.cls-12,.cls-4,.cls-5,.cls-6,.cls-8,.cls-9{stroke:#000;stroke-miterlimit:10;}.cls-4,.cls-5,.cls-6{stroke-width:5px;}.cls-12,.cls-5,.cls-7{fill:#fff;}.cls-9{fill:#39b54a;}.cls-10,.cls-11,.cls-12,.cls-9{stroke-width:2px;}.cls-10{fill:#0071bc;}</style><clipPath id="clip-path"><rect class="cls-1" x="-0.5" y="0.5" width="1920" height="1079"/></clipPath></defs><title>Gameover_indhold</title><g class="cls-2"><path d="M976.9721,436.9456c-17.5892,7.5665-29.9488,11.8045-43.0341,16.2916-12.1612,4.17-24.736,8.4814-41.8777,15.6951-22.3506,9.4064-34.564,16.2027-48.7059,24.0731-8.3085,4.624-16.9006,9.4049-28.6587,15.3766A728.1981,728.1981,0,0,1,692.803,556.6644l-3.38,1.0055,12.9689,17.9175L861.18,849.3161l4.3245-2.5086-.0873-.1506c22.2085-12.3709,44.67-24.6715,66.8507-36.592,50.8837-27.3466,90.5912-47.5318,122.4971-63.7509,22.81-11.5954,45.9329-23.2088,68.7619-34.534a217.5166,217.5166,0,0,0,14.1112,16.7452q.447.481.8982.957l.6689.7075.9711.0681a18.0572,18.0572,0,0,0,3.3858-.0745c4.5759-.5391,7.4815-2.6984,10.8461-5.1989a61.6733,61.6733,0,0,1,8.5666-5.5635c.6437-.3388,1.6921-.8489,3.1154-1.5154,2.03-.95,4.0438-1.811,7.7007-3.3737,3.3936-1.4506,8.1846-3.4983,15.6886-6.771,10.3557-4.5168,14.5321-6.4192,17.027-7.5554,2.3089-1.0521,3.2653-1.4875,6.5081-2.8056,1.65-.6707,3.1-1.2481,4.4126-1.7705a91.888,91.888,0,0,0,12.28-5.5891,85.513,85.513,0,0,0,15.3421-11l1.9433-1.7469-48.1023-48.977c12.1322-4.7565,24.2285-9.4843,36.1229-14.1165l3.5577-1.3857-2.692-2.7074a1018.45,1018.45,0,0,1-79.6776-89.9747c-4.2234-5.3964-8.2714-10.69-12.1845-15.8077-13.4282-17.56-26.1111-34.1456-46.1268-55.67a632.3659,632.3659,0,0,0-48.902-47.2371l-1.3842-1.1981-1.5607.958A541.4253,541.4253,0,0,1,976.9721,436.9456Z"/><path class="cls-3" d="M1239.7346,677.038a80.37,80.37,0,0,1-12.4713,8.64,86.9151,86.9151,0,0,1-11.6861,5.3052c-1.3227.5268-2.7834,1.1084-4.446,1.7842-3.3378,1.3567-4.3218,1.8048-6.6984,2.8872-2.4805,1.13-6.6338,3.022-16.952,7.5224-7.4885,3.2665-12.2688,5.3094-15.6553,6.7568-3.7071,1.5844-5.7492,2.4571-7.8559,3.4426-1.5154.71-2.6039,1.24-3.327,1.6214a66.8434,66.8434,0,0,0-9.2175,5.9732c-3.1307,2.3266-5.1984,3.8637-8.4485,4.2465a12.9238,12.9238,0,0,1-1.5059.0862c-.0584-.0623-.117-.1251-.1747-.1882a212.2219,212.2219,0,0,1-15.0147-17.9907l-1.2468-1.6737-1.8688.9272c-23.4466,11.6237-47.2226,23.56-70.667,35.4782-31.9283,16.23-71.6639,36.43-122.5977,63.8037-22.2278,11.946-44.7384,24.273-66.9934,36.6706L731.5024,615.8062l141.44,195.4119,1.9189-1.0111c110.7989-58.3764,178.6836-91.7389,201.7669-99.162a226.417,226.417,0,0,0,21.3708-8.5077c5.188-2.2731,10.5521-4.6236,15.9159-6.6038q1.9924-.7346,3.9231-1.4377c15.0248-5.4891,25.88-9.4555,25.8521-17.181-.0082-2.2776-.8978-3.54-7.8434-12.7134-2.4251-3.2015-4.6667-6.1391-6.6881-8.7726,17.6475-7.0063,35.4307-14.034,52.9045-20.9064q5.8817-2.3132,11.7683-4.6225Z"/><path class="cls-3" d="M1047.2632,406.2005a627.6949,627.6949,0,0,1,47.1347,45.6633c19.8521,21.3494,32.4639,37.8418,45.8157,55.3027,3.9226,5.13,7.9783,10.4336,12.2194,15.8532a1021.3016,1021.3016,0,0,0,77.385,87.7092c-16.2671,6.339-32.8723,12.8407-49.4161,19.3463-18.4953,7.274-37.3357,14.7212-55.9984,22.1361l-3.0806,1.2237,2.0244,2.6257c2.5028,3.2473,5.4267,7.0658,8.6816,11.3649,4.2489,5.6093,6.828,9.0663,6.83,9.7131.0154,4.2163-11.4653,8.41-22.5671,12.4657q-1.9354.7078-3.9392,1.4448c-5.5024,2.0316-10.9365,4.4119-16.1906,6.714a222.7531,222.7531,0,0,1-20.8951,8.3282c-23.2232,7.4676-90.7317,40.6037-200.6477,98.4868L706.7572,572.6623l-7.47-12.8779a731.2714,731.2714,0,0,0,117.8425-47.1389c11.8424-6.0142,20.8656-11.0349,28.8261-15.4652,14.0134-7.7989,26.1158-14.5335,48.2137-23.8329,16.9849-7.148,29.4784-11.4321,41.56-15.5745,12.5976-4.32,25.6246-8.7871,43.3876-16.428A546.6974,546.6974,0,0,0,1047.2632,406.2005Z"/><path class="cls-4" d="M1013.4707,763.8806c-11.8932,37.9941-75.9189,71.66-82.8788,77.3557a88.6152,88.6152,0,0,0-20.9029,25.1845c-5.0385,9.8621-7.099,19.7393-17.1934,32.2718a47.6326,47.6326,0,0,1-6.9413,7.2023c-8.2583,6.8548-17.7109,9.876-24.0915,11.3223"/><path class="cls-5" d="M857.5025,911.5161a59.19,59.19,0,0,0-11.7049-7.6775c-7.0316-3.4613-14.8447-7.3073-18.2126-4.7755-2.3562,1.7711-3.5024,10.6316-2.764,7.939h0a66.4183,66.4183,0,0,0,8.3245,4.0261c5.6434,2.1,10.2712,1.7952,10.2515,2.135-.0278.48-9.19-.357-19.45,2.8267-2.9.9-5.7383,2.0746-7.6713,4.6246-1.67,2.2027-2.8307,5.6518-1.4187,6.9093,1.0531.9378,2.8223.02,8.58-1.1606,3.6927-.757,2.2968-.2423,10.87-1.6661,6.65-1.1043,9.996-1.83,10.1066-1.4975.244.7341-16.4869,2.9641-21.6686,12.8441-.4771.91-2.4035,4.5827-.6553,6.7408,1.6514,2.0386,5.8149,1.7787,8.3612,1.0864,3.351-.9112,4.2653-2.6705,8.8349-6.3473,4.6915-3.7749,8.5468-6.877,10.5434-5.9914,3.0757,1.3643-1.6891,10.671,2.87,14.0248,2.4787,1.8233,7.1,1.4359,8.7613-.4678,1.1148-1.2774.3273-2.5851-.29-7.2651-.5937-4.5018-1.0961-8.3119-.0347-12.4518,1.0449-4.0756,2.6074-4.578,2.1822-7.0777C863.0106,916.4862,861.8818,914.9206,857.5025,911.5161Z"/><path class="cls-4" d="M1173.1783,542.98c45.228-17.2464,66.5759-41.2582,72.7621-44.23,6.9924-3.3593,46.5285-4.5661,89.8826-25.1034"/><path class="cls-6" d="M1331.8264,430.0963c1.93-.307,3.6671,2.6777,5.1849,5.2849,4.3928,7.5459,3.4907,13.2371,4.4177,19.9582,2.0486,14.8524,10.8632,19.0294,7.1031,22.9467-3.4824,3.628-14.4473,3.5914-19.9275-.5843-2.4967-1.9024-3.9284-4.72-3.0751-18.464C1326.1663,448.9837,1327.2942,430.8171,1331.8264,430.0963Z"/><path class="cls-6" d="M1271.8335,361.1786c1.921-.3575,3.7362,2.5806,5.3219,5.147,4.5893,7.428,3.837,13.141,4.94,19.8354,2.4378,14.7935,11.3591,18.7376,7.7031,22.7522-3.386,3.7182-14.348,3.9695-19.936-.0609-2.5458-1.8362-4.051-4.615-3.5588-18.3769C1266.6712,380.2082,1267.3218,362.0182,1271.8335,361.1786Z"/><path class="cls-7" d="M935.0273,674.1016c-13.2773,0-23.51-5.667-26.7045-14.7891-2.1973-6.2744-.7745-13.4561,4.0053-20.2227,4.9624-7.0244,12.8848-12.71,22.3081-16.01a49.7923,49.7923,0,0,1,16.4654-2.8867c13.2768,0,23.5092,5.667,26.7036,14.788,4.6465,13.2706-7.1577,29.5245-26.3135,36.2334A49.7867,49.7867,0,0,1,935.0273,674.1016Z"/><path d="M951.1039,617.6931v5h.0009c11.9967,0,21.551,5.148,24.3409,13.1149,1.9225,5.49.6128,11.8664-3.6878,17.9542-4.6647,6.603-12.1554,11.963-21.0923,15.0925a47.2852,47.2852,0,0,1-15.6388,2.7465c-11.9987,0-21.5544-5.148-24.3442-13.1149-1.9225-5.49-.6129-11.8664,3.6877-17.9542,4.6647-6.603,12.1555-11.963,21.0924-15.0925a47.2968,47.2968,0,0,1,15.6391-2.7465l.0022-5m-.0026,0a52.5769,52.5769,0,0,0-17.2912,3.0275c-20.49,7.175-32.9574,24.8232-27.8466,39.4182,3.6478,10.4171,15.2611,16.4624,29.0632,16.4624a52.5644,52.5644,0,0,0,17.2913-3.0275c20.49-7.175,32.9574-24.8232,27.8466-39.4182-3.6478-10.4171-15.2612-16.4634-29.0633-16.4624Z"/><path d="M991.7789,648.865a44.48,44.48,0,0,0-7.6769-29.6087c-1.0849-1.5826-3.6859-.0838-2.5905,1.5142a41.9506,41.9506,0,0,1,7.2674,28.0945c-.1812,1.9211,2.82,1.9087,3,0Z"/><path d="M913.0227,540.5933a41.1468,41.1468,0,0,1,27.2763,22.7585c.812,1.75,3.3988.2276,2.59-1.5141A44.0019,44.0019,0,0,0,913.82,537.7005c-1.8707-.4817-2.6688,2.411-.7975,2.8928Z"/><ellipse class="cls-8" cx="949.3955" cy="638.5728" rx="14" ry="10.5" transform="translate(-157.697 349.6556) rotate(-19.2989)"/><path d="M950.1625,592.3157c5.7747-2.9238,8.8608-9.5715,13.6508-13.7718,2.87-2.5167,6.8052-5.71,10.62-6.7435,4.0675-1.1017,7.6534,1.6612,11.5339,2.3473,1.888.3339,2.6984-2.5567.7975-2.8928-3.3693-.5957-6.4251-2.6973-9.8848-2.7923-3.5347-.097-6.8264,1.87-9.6656,3.7417a49.2214,49.2214,0,0,0-9.0488,7.6567c-3.096,3.3481-5.3414,7.75-9.5168,9.8643-1.7228.8722-.206,3.4613,1.5142,2.59Z"/><path d="M829.2652,603.9207a54.9911,54.9911,0,0,1,2.3174-35.6387c.7333-1.7843-2.1678-2.5616-2.8929-.7975a57.6545,57.6545,0,0,0-2.3174,37.2337,1.5013,1.5013,0,0,0,2.8929-.7975Z"/><path d="M879.492,683.2131a57.8587,57.8587,0,0,0,34.6543,14.7374c1.9258.1437,1.9166-2.8569,0-3a54.499,54.499,0,0,1-32.533-13.8587c-1.4346-1.2846-3.5633.83-2.1213,2.1213Z"/><path class="cls-7" d="M887.8115,606.4434c-12.1386,0-21.7876-5.1573-25.1811-13.4571-5.3213-13.0146,5.6338-29.8525,24.42-37.5342a49.5679,49.5679,0,0,1,18.5415-3.7861c12.1382,0,21.7871,5.1572,25.1811,13.458,5.3213,13.0147-5.6338,29.8526-24.4209,37.5342a49.5569,49.5569,0,0,1-18.538,3.7852Z"/><path d="M905.5927,554.1663c11.1023,0,19.8642,4.5612,22.8664,11.9038,2.2016,5.3844,1.2207,11.8194-2.762,18.12-4.32,6.8337-11.526,12.5708-20.2906,16.1545a47.0487,47.0487,0,0,1-17.5956,3.6c-11.1023,0-19.8643-4.5612-22.8665-11.9038-2.2016-5.3844-1.2207-11.8194,2.7621-18.12,4.32-6.8336,11.5259-12.5707,20.29-16.1544a47.0492,47.0492,0,0,1,17.5957-3.6m0-5a51.8215,51.8215,0,0,0-19.488,3.9715c-20.0951,8.2164-31.641,26.4809-25.7884,40.7946,3.9347,9.623,14.7345,15.0114,27.4947,15.0114a51.8209,51.8209,0,0,0,19.4878-3.9715c20.0952-8.2166,31.641-26.4808,25.7884-40.7946-3.9347-9.6231-14.7344-15.0114-27.4945-15.0114Z"/><ellipse class="cls-8" cx="902.7182" cy="570.324" rx="14" ry="10.5" transform="translate(-148.6997 384.0715) rotate(-22.2387)"/><path class="cls-4" d="M1116.1614,473.0224c45.2281-17.2464,68.9933-35.7667,75.1795-38.7387,6.9923-3.3593,44.1112-10.0576,87.4653-30.5949"/><path d="M1101.167,623.68,1066.1439,649.28l-1.6142-2.2085,14.0482-17.9736c3.2553-4.1633,6.2818-7.7667,9.3232-11.1318l-.0852-.0084c-4.5414,3.6043-8.7676,6.7652-14.2243,10.7536l-14.6533,10.71-1.3939-1.9071,35.0231-25.5993,1.4955,2.0461-14.1341,17.9658c-3.0991,3.9413-6.3349,7.9119-9.5509,11.4754l.1036.032c4.3315-3.3444,8.5063-6.4676,14.3265-10.7218l14.9655-10.9386Z"/><path d="M1090.4146,608.5339l-5.6266,1.9c-2.1662,3.5814-6.2295,7.7284-11.4264,11.5268-11.0678,8.09-20.5851,10.2308-23.5767,6.138-1.0535-1.4413-1.1035-3.4736-.1-5.919l-5.2117,1.7046.9693-2.6,5.5228-1.8244c2.2177-3.6191,6.264-7.6828,11.4078-11.4425,12.2117-8.9259,20.86-10.074,23.5963-6.3307,1.0877,1.4881,1.1025,3.582.1,6.0281l5.54-1.8022Zm-36.6737,12.2148c-.929,1.8919-1.151,3.5519-.3011,4.7146,2.4982,3.418,10.8231-.027,18.1494-5.3819a44.1052,44.1052,0,0,0,8.5564-8.0369l-.0694.0148Zm28.2712-11.6032c1.0506-1.9449,1.2711-3.4973.3534-4.7529-2.3962-3.2782-10.4258-.1927-18.3241,5.58a43.0467,43.0467,0,0,0-8.2945,7.74l.0507.07Z"/><path d="M1068,581.5763a9.986,9.986,0,0,1,5.4408,3.4079c1.7334,2.3715,1.81,5.3119-.3425,9.2393-1.9236,3.4759-5.9885,7.7306-11.4451,11.719-10.461,7.6113-20.4447,9.9856-24.2861,4.73a6.7993,6.7993,0,0,1-1.2443-5.0829l4.0458-2.2088a5.7883,5.7883,0,0,0,1.0257,4.566c2.7874,3.8136,9.9064,2.427,18.6879-3.9916,8.8853-6.4945,12.3832-12.7255,9.7149-16.376a4.4194,4.4194,0,0,0-2.9065-2.0143L1056.2457,593.2l2.3287,3.186-3.637,2.6584-3.773-5.162Z"/><path d="M1044.9479,581.2331l4.4529,6.0921,12.6276-9.23-4.9628-6.79,3.7931-2.7724,6.4412,8.8124-35.0231,25.5993-6.1863-8.4637,3.7931-2.7724,4.7078,6.441,11.0686-8.09-4.4529-6.0922Z"/><path d="M1058.94,565.9078l-35.0231,25.5993-1.6142-2.2085,14.0482-17.9736c3.2553-4.1633,6.2818-7.7667,9.3232-11.1318l-.0852-.0084c-4.5414,3.6044-8.7676,6.7652-14.2243,10.7536l-14.6533,10.7105-1.3939-1.9071,35.0231-25.5993,1.4955,2.0461-14.1341,17.9658c-3.0991,3.9414-6.3349,7.9119-9.5509,11.4754l.1036.032c4.3315-3.3444,8.5063-6.4676,14.3265-10.7218l14.9655-10.9386Z"/><path d="M1013.2027,575.868a11.4946,11.4946,0,0,1-3.4291-3.165,5.5021,5.5021,0,0,1-.5983-6.163c.7558-1.8012,2.478-3.8084,5.2325-5.8217,3.3771-2.4684,7.07-3.6338,9.6274-2.97l.1046-.0764c-.2567-2.0955,1.223-5.8529,6.419-9.6508a20.623,20.623,0,0,1,7.9835-3.8023,6.8158,6.8158,0,0,1,7.2342,3.0247,13.4858,13.4858,0,0,1,1.8782,3.4426Zm12.8636-12.5056-1.3427-1.8369c-1.5634-2.139-4.975-1.5717-8.3529.8973-4.1052,3-4.6959,5.573-3.2,7.6191a5.0709,5.0709,0,0,0,1.62,1.5625Zm16.7843-12.268a6.1427,6.1427,0,0,0-1.033-1.849c-1.53-2.0929-4.6546-2.77-9.7476.953-4.78,3.4939-5.4125,6.7744-3.7978,8.9835l1.2235,1.6739Z"/><path d="M1002.0469,561.5864l35.0231-25.5992,1.4784,2.0227-35.0231,25.5992Z"/><path d="M999.4642,558.0529l-1.4785-2.0227,31.23-22.8268-4.8944-6.6962,3.793-2.7724,6.3729,8.7189Z"/><path d="M991.4439,547.08l-1.4784-2.0227,31.23-22.8268-4.8945-6.6962,3.7931-2.7724,6.3728,8.7188Z"/><path d="M996.0948,514.3957l4.4529,6.0921,12.6276-9.23-4.9628-6.79,3.7931-2.7724,6.4412,8.8124-35.0231,25.5993-6.1863-8.4637,3.7931-2.7724,4.7078,6.4409,11.0686-8.09L992.354,517.13Z"/><path d="M975.5309,524.328a16.7114,16.7114,0,0,1-3.8712-3.77c-2.1246-2.9068-2.13-6.0776-.2749-9.5386,1.8382-3.4832,5.2969-7.26,10.96-11.3995,5.7165-4.1784,10.9706-6.8059,15.2631-7.6961,4.344-.9279,7.8789.1986,10.1056,3.245a18.442,18.442,0,0,1,2.269,3.9771Zm29.4918-24.66a7.2817,7.2817,0,0,0-1.2357-2.236c-3.161-4.3247-10.2822-2.7233-19.7394,4.1893-8.279,6.0154-11.9976,11.9444-8.87,16.223a6.7679,6.7679,0,0,0,2.2008,2.03Z"/><path d="M976.4176,487.4747l4.4529,6.0921,12.6276-9.23-4.9628-6.79,3.7931-2.7724,6.4412,8.8124-35.0231,25.5993-6.1863-8.4637,3.7931-2.7724,4.7078,6.4409,11.0686-8.09-4.4529-6.0921Z"/><path d="M955.8537,497.407a12.294,12.294,0,0,1-3.5654-3.3514,5.6844,5.6844,0,0,1-.4557-6.6231,19.1765,19.1765,0,0,1,5.7507-6.0937c4.6241-3.38,8.6413-4.3191,11.0959-3.58l.1553-.1135c.0515-1.8933,2.02-4.437,5.3846-7.4676,4.5111-4.0815,7.6169-6.9227,8.73-8.2354l1.5292,2.0922c-.8.9774-3.5594,3.5294-7.6015,7.1616-4.4925,3.9972-5.6994,6.164-4.512,8.1144l1.3934,1.9064,15.173-11.09,1.4784,2.0227Zm14.4741-13.6828-1.5126-2.0694c-1.5805-2.1624-5.2332-1.5974-9.2346,1.3274-4.52,3.304-5.4246,6.2122-3.9122,8.3895a4.9712,4.9712,0,0,0,1.8765,1.6959Z"/><path class="cls-4" d="M820.3461,508.2422c-15.3938,36.7155-82.2869,64.247-89.7489,69.2671a88.6125,88.6125,0,0,0-23.1662,23.12c-5.9386,9.3477-8.9136,18.989-20.1357,30.5228a47.63,47.63,0,0,1-7.5844,6.5216c-8.863,6.0526-18.5567,8.1767-25.0446,9.02"/><path class="cls-5" d="M651.2565,640.6469a59.1945,59.1945,0,0,0-10.9358-8.7384c-6.6771-4.1036-14.0964-8.6633-17.6863-6.4575-2.5114,1.543-4.4811,10.2575-3.4942,7.6458h0a66.4275,66.4275,0,0,0,7.9116,4.7868c5.4223,2.6186,10.0583,2.7478,10.0069,3.0843-.0725.4756-9.1164-1.2148-19.6287.9955-2.9712.6248-5.9072,1.529-8.07,3.8871-1.8683,2.0369-3.3468,5.3624-2.0585,6.7463.9608,1.0322,2.8081.2835,8.6506-.3532,3.7474-.4084,2.3094-.0265,10.9782-.6423,6.7241-.4777,10.1233-.8875,10.2023-.546.1744.7537-16.6918,1.4095-22.7747,10.7617-.56.861-2.8214,4.3379-1.2827,6.65,1.4536,2.1841,5.6232,2.3147,8.2231,1.8634,3.4214-.5938,4.4962-2.26,9.39-5.4933,5.0239-3.32,9.1525-6.0477,11.0575-4.9793,2.9346,1.6459-2.6795,10.4663,1.5461,14.2317,2.2973,2.0471,6.9346,2.0935,8.7667.3535,1.2293-1.1676.5675-2.5432.3907-7.26-.17-4.5375-.3141-8.3779,1.13-12.4,1.4214-3.96,3.0241-4.3142,2.8344-6.8428C656.2757,646.11,655.2983,644.446,651.2565,640.6469Z"/><path class="cls-9" d="M2236.5,212.6323C2236.5,419.9421,2058.3642,588,1838.6224,588s-397.8776-168.0579-397.8776-375.3677c0-170.9153,137.2172-283.6693,149.6473-293.3736,19.2134-15,115.4342-87.1649,248.23-81.9941C2014.322-155.8941,2236.5-14.36,2236.5,212.6323Z"/><path class="cls-10" d="M1485.7646,386.0193c-4.8223-16.1549,8.7014-35.7522,8.5172-45.02-.3835-19.2975-4.867-38.9358-4.867-38.936-4.2319-18.536-8.0369-22.92-4.867-29.202,3.3431-6.6252,9.5991-5.7606,29.202-14.6011,16.4969-7.44,24.8341-11.3255,29.2021-19.468,6.679-12.4509,1.0628-26.5362,0-29.202-3.7584-9.4258-13.4125-22.8763-24.3351-21.9015-5.2193.4658-8.8728,4.06-12.1675,7.3005-9.3668,9.2137-6.7551,16.4855-14.601,24.335-5.8838,5.8864-16.217,10.6654-21.9015,7.3005-3.3877-2.0053-3.57-5.9827-4.867-26.7685-1.6065-25.7417-1.8344-27.769,0-31.6355,3.4191-7.2078,10.3911-11.2946,24.335-19.4681,17.5321-10.2767,22.4829-9.3027,29.202-17.0345,2.6311-3.0277,9.81-12.3116,9.734-24.335-.1018-16.1227-13.1484-21.29-24.335-46.2365-3.9794-8.8741-14.297-20.1459-12.8276-25.3128C1533.49-37.64,1596.9448-91.0751,1630.342-107.7737c9.6808,2.637-27.0932,40.91-28.9861,54.5459-1.905,13.7238,8.3061,20.7959,14.601,36.5025,14.27,35.6051-16.8165,52.6222-4.867,80.3056,7.4425,17.2423,30.919,32.5852,77.8721,63.271a23.63,23.63,0,0,1,7.3005,7.3005c6.0472,9.6885,5.4059,25.5692-2.4335,34.0691-8.394,9.1012-17.7537,1.839-36.5025,9.734-14.8126,6.2373-30.603,19.8793-29.2021,31.6355.9224,7.74,8.5541,8.44,9.734,17.0345.9881,7.1959-3.7426,11.2155-14.601,26.7685-16.6311,23.8216-18.8489,33.4642-19.468,36.5026-1.1555,5.6716-3.1411,16.1414,2.4335,24.335,3.3571,4.9341,6.2406,4.3177,12.1675,9.734,9.0722,8.2909,7.403,14.3848,14.601,24.335,8.9867,12.4227,15.4465,8.2574,24.3351,19.468,10.2244,12.8956,2.7587,19.772,12.1675,34.0691,11.5766,17.5916,33.6891,23.6074,36.5025,24.335,12.1666,3.1461,16.13.1847,21.9015,4.867,9.4456,7.6625,2.26,18.3728,9.734,34.069,9.2795,19.4862,27.7414,18.49,31.6356,36.5026.4274,1.9769,2.1744,11.0991-2.4335,19.468-12.8861,23.4035-40.1528,10.9507-63.2711,14.601-18.3849,2.9029-30.7461,18.8569-34.2577,16.6967C1596.9448,521.2057,1527.9241,462.2041,1485.7646,386.0193Z"/><path class="cls-10" d="M2128.2091,468.7584c-2.09-12.0894-4.867-31.6355-17.0345-36.5025-12.48-4.9922-23.0113,4.4878-36.5025-2.4335-3.9839-2.0438-8.334-8.6631-17.0345-21.9016-9.2611-14.0916-13.892-21.1375-14.601-26.7685-1.5988-12.6942,5.306-23.4152,12.1675-34.069,11.1094-17.25,18.1321-16.8462,21.9015-29.2021,4.61-15.1113-1.6092-29.7627-2.4335-31.6355-6.4515-14.6574-16.4392-15.7565-17.0345-26.7685-.3984-7.3688,4.0245-7.789,7.3-21.9015,2.0375-8.778,3.9865-17.1731,0-24.335-2.3646-4.2481-5.03-4.8523-17.0345-12.1676-3.7486-2.2843-13.916-8.48-21.9015-14.601-7.111-5.45-15.281-11.7121-21.9016-21.9015-7.8087-12.0181-3.9152-14.8069-12.1675-29.202-8.254-14.3988-14.9-16.4069-14.601-24.335.1628-4.3105,2.271-7.5223,14.601-19.4681,18.0826-17.5189,27.3113-26.3369,36.5026-29.202,5.9491-1.8545,18.4722-5.7583,29.202,0,8.4311,4.5248,7.8373,10.7666,19.468,19.468,7.3938,5.5317,14.1471,7.8821,19.468,9.734,8.2095,2.8573,28.0013,9.7457,34.0691,2.4335,5.058-6.0956-2.7951-17.9933,2.4335-21.9015,2.74-2.0479,5.5719.7143,12.1675,0,6.1737-.6685,13.356-4.1352,17.0345-9.734,6.1108-9.3006,2.017-23.6688-4.867-31.6355-5.6905-6.5855-9.8811-4.8547-19.468-14.601A85.4916,85.4916,0,0,1,2128.2091,3.96c-5.8241-8.47-5.1735-10.0387-9.734-17.0346-8.3524-12.8129-14.0909-13.0061-17.0345-21.9015-1.9733-5.9636,6.6065-14.4587,4.867-19.468-9.734-12.1675-38.936-29.202-55.97-41.3695-3.8862-1.64-17.3257-.1032-24.335-2.4335-3.696-1.2288-7.2263-2.5182-24.3351-9.734-19.4389-8.1986-22.81-9.878-26.7685-12.1676-9.9413-5.7493-9.0629-6.9439-14.601-9.734-13.9909-7.0487-28.9332-4.1275-48.67,0-25.5493,5.3431-23.2917,9.4875-36.5025,9.734-17.2555.3221-18.5251-6.7971-43.803-9.734-11.3343-1.3168-23.028-2.542-36.5026,2.4335-5.3791,1.9863-14.4667,5.4722-21.9015,14.601-2.0844,2.56-11.5009,14.7248-9.734,31.6356.3467,3.3178,1.2509,11.9708,7.3005,19.468,6.7839,8.4069,15.7251,10.016,38.9361,14.601,46.8918,9.2628,40.942,8.7288,48.67,9.734,29.1138,3.7868,33.4595.947,43.803,7.3005,5.3545,3.289,11.6816,10.3044,24.3351,24.335,13.0459,14.4657,14.1248,17.6863,14.601,19.4681,3.7875,14.1688-6.2115,28.3128-12.1675,36.5025-10.6,14.5745-21.3208,21.0389-36.5026,31.6355-4.5542,3.1788,8.9251-6.1379-58.404,46.2366-33.54,26.09-43.9457,33.8948-43.8031,46.2365.0746,6.4405,4.1054,12.4053,12.1675,24.335a153.5881,153.5881,0,0,0,31.6356,34.0691c17.4334,13.9018,27.9261,22.2687,43.803,24.335,13.9861,1.82,17.9079-3.1026,36.5026,0,10.3694,1.73,22.1454,3.695,26.7685,12.1675,3.2346,5.9282.6571,10.8083-2.4335,26.7685-4.5248,23.3669-.99,23.1856-4.867,38.9361-3.7525,15.2431-9.5814,25.6407-17.0345,38.936-3.9414,7.0307-10.7393,16.8546-24.3351,36.5025-13.8723,20.0477-14.8945,20.8088-21.9015,31.6356-11.12,17.1829-10.599,18.4387-17.0345,26.7685a156.9479,156.9479,0,0,1-26.7685,26.7685c-20.2657,15.959-30.1473,15.7879-36.5026,29.202-1.3884,2.9305-5.2716,11.1266-2.4335,19.4681,2.5625,7.5312,9.2873,11.3115,19.4681,17.0345,8.0963,4.5512,6.5908,4.8043,21.9015,12.1675,4.17,2.0053,22.1472,13.4642,24.335,14.601"/><path class="cls-11" d="M1534,436c1.1064,4.314,5.9781,16.8106,37,27"/><path class="cls-11" d="M1518,316a75.8625,75.8625,0,0,0-10,29c-.9233,7.2477-2.4645,19.3453,3,32"/><path class="cls-11" d="M1564,318a54.6569,54.6569,0,0,1,36,32"/><path class="cls-11" d="M1616,386a120.8909,120.8909,0,0,1,4,42"/><ellipse class="cls-11" cx="1567.5916" cy="391.2679" rx="15.1943" ry="25.5101" transform="translate(-42.5512 524.9616) rotate(-18.7611)"/><path class="cls-11" d="M1124,423a1075.6668,1075.6668,0,0,0,139,9c35.2079.0015,71.6061-.137,118-7a648.3231,648.3231,0,0,0,142-38"/><path class="cls-11" d="M1354,387a498.8584,498.8584,0,0,0,96-13q6.0788-1.4388,12-3"/><path class="cls-11" d="M1245,481a690.5221,690.5221,0,0,0,128-18,690.1085,690.1085,0,0,0,100-32"/><path class="cls-11" d="M1117,648c54.8892-30.0218,100.8635-52.1882,133-67,84.6834-39.0309,139-62,139-62,36.5206-15.4437,64.6329-26.6594,101-50a490.574,490.574,0,0,0,55-41"/><path class="cls-11" d="M1223,664c42.0927-30.5346,77.427-54.0859,102-70,38.3079-24.8091,61.2413-38.0379,155-96,21.2545-13.14,38.6568-23.9466,50-31"/><path class="cls-11" d="M1408,487c23.243-14.853,48.2189-29.3157,75-43q7.0267-3.59,14-7"/><path class="cls-11" d="M1116,557a615.8587,615.8587,0,0,0,130-25q13.9177-4.28,27-9"/><path class="cls-12" d="M1787.0316,166.8341c4.6434,23.29-13.9851,46.6345-41.608,52.1418s-53.78-8.9083-58.4232-32.1982c11.5407-16.35,28.95-35.7643,41.608-52.1418C1756.2312,129.1286,1782.3882,143.5442,1787.0316,166.8341Z"/><ellipse cx="1711.5443" cy="192.3273" rx="17.5" ry="16" transform="translate(1241.8816 1849.37) rotate(-80.5869)"/><path class="cls-12" d="M1478.8967,119.5572c-11.9386,20.5292-1.8783,48.65,22.47,62.81s53.7652,8.9963,65.7038-11.5329c-5.6209-19.2075-15.8015-43.2149-22.47-62.81C1520.2519,93.8645,1490.8353,99.028,1478.8967,119.5572Z"/><ellipse cx="1541.3022" cy="169.0428" rx="17.5" ry="16" transform="translate(1120.4166 1661.3709) rotate(-80.5087)"/><path class="cls-11" d="M1582,155c.7137-22.3746-1.8939-58.7593-24-93a142.9188,142.9188,0,0,0-12-16"/><path class="cls-11" d="M1677.7152,150.6738c11.908-18.956,34.3977-47.6764,71.8616-63.7254a142.9443,142.9443,0,0,1,18.8913-6.5662"/></g></svg>
