<svg id="Layer_1" data-name="Layer 1" xmlns="http://www.w3.org/2000/svg" xmlns:xlink="http://www.w3.org/1999/xlink" viewBox="0 0 1920 1080"><defs><style>.cls-1,.cls-4,.cls-8{fill:none;}.cls-2{clip-path:url(#clip-path);}.cls-3,.cls-5,.cls-9{fill:#fff;}.cls-4,.cls-5,.cls-6,.cls-7,.cls-8,.cls-9{stroke:#000;stroke-miterlimit:10;}.cls-4,.cls-5{stroke-width:5px;}.cls-6{fill:#39b54a;}.cls-6,.cls-7,.cls-8,.cls-9{stroke-width:2px;}.cls-7{fill:#0071bc;}</style><clipPath id="clip-path"><rect class="cls-1" x="3" width="1920" height="1080"/></clipPath></defs><title>Gameover_indhold2</title><g class="cls-2"><path d="M818.2048,490.663c-23.9744,8.3457-46.2224,25.1542-90.7184,58.7713-21.3236,16.11-29.9639,24.141-50.082,35.48-12.9957,7.3247-29.8006,16.6519-53.2208,22.7681a191.0218,191.0218,0,0,1-69.9346,4.7634c-23.1907-1.69-31.9694-5.6538-37.8109.2916-6.6982,6.8172-5.041,20.1482.8687,36.8977,5.9865,16.9676,16.337,37.4431,26.7794,58.19,22.6876,45.0748,37.3468,73.9466,60.1119,87.5688,8.5754,6.8879,17.4193,13.6674,26.3966,20.1952,10.35,7.5267,18.0207,12.6627,24.7893,17.1958,7.7959,5.22,14.5285,9.7278,23.3047,16.472a360.6232,360.6232,0,0,1,34.2459,30.0512c.01.0289.0139.0611.0239.09a6.9056,6.9056,0,0,0,1.4948,2.4717c4.1662,6.6858,9.22,10.5615,14.7274,11.2383,5.8716.7222,11.7161-3.6307,22.3265-11.533l.1514-.1131c13.156-9.7989,19.76-14.716,21.9108-16.4416,4.9414-3.9637,8.0674-6.5772,23.4114-19.4773l10.0024-8.4111c8.9008-7.4869,9.248-7.7794,10.445-8.7141a323.1552,323.1552,0,0,1,29.9361-20.5035c15.212-9.5369,27.1445-15.7995,35.0414-19.9441,17.0134-8.9275,25.04-13.0414,37.0231-17.0035,9.1544-3.0261,15.7684-5.2128,25.0133-5.5064,4.4919-.142,7.1236.2178,13.4815,1.0892,3.1391.43,7.0463.9657,12.4343,1.6105.7445.09,7.3048.7481,21.6767,2.1929l2.1917.22c27.6686,2.78,32.7361,3.2454,41.316,3.5095,8.4019.2578,12.8876.0177,21.8307-.4619,9.8435-.5275,15.7236-1.3115,22.5164-4.34,6.1413-2.7372,9.9762-6.0329,11.749-10.1352.4069-.9277,1.6451-3.7517,1.12-9.0481a40.1285,40.1285,0,0,0-2.1213-9.4054,48.4677,48.4677,0,0,0-4.4126-9.1753l-.7058.4422c-.1186-.3676-.2186-.7209-.3524-1.1-2.5785-7.3089-8.0384-16.8042-18.36-29.2044Q987.3593,589.301,907.9128,476.9482a76.23,76.23,0,0,0-14.0028-4.669C868.5388,466.5041,848.2249,480.2129,818.2048,490.663Z"/><path class="cls-3" d="M682.1319,844.6733c-8.9233-6.8583-15.7277-11.4142-23.6061-16.6892-6.7255-4.5044-14.3481-9.6079-24.6083-17.0689-3.6948-2.6869-7.3574-5.4275-11-8.1884,14.1283,3.0654,26.7843.9339,35.3433-1.4159a86.068,86.068,0,0,1,36.8346-1.7992c14.7245,2.5073,26.2853,4.415,31.1826,13.0147a17.38,17.38,0,0,1,1.2885,2.8283c5.688,16.1228-11.2144,40.7817-14.5594,56.0111A363.9065,363.9065,0,0,0,682.1319,844.6733Z"/><path class="cls-3" d="M844.3652,803.02a327.87,327.87,0,0,0-30.4159,20.8415c-1.2783.9987-1.4532,1.1454-10.6053,8.8436l-10.0014,8.4107c-15.3011,12.8643-18.4158,15.4678-23.31,19.393-2.0711,1.6609-8.6472,6.56-21.7491,16.3163l-.1519.1133c-9.8834,7.3617-14.789,10.8814-18.2644,10.4536-3.1441-.3862-5.8259-2.4508-7.9991-4.995,27.2141-16.2724,51.0631-31.9611,71.4189-46.1429,43.7308-30.467,58.1867-44.794,88.07-58.4382a234.4913,234.4913,0,0,1,47.3289-15.7376c-3.5648.9521-7.1218,2.1256-11.025,3.4159-12.93,4.2754-21.791,8.9256-37.8771,17.3667C871.8113,787.0444,859.7619,793.3671,844.3652,803.02Z"/><path class="cls-3" d="M1086.3972,756.8988c-.4214.9771-1.7074,3.95-8.8029,7.1137-5.9821,2.6667-11.3836,3.3687-20.5284,3.8589-8.78.4708-13.1865.7074-21.3513.4559-8.3973-.2583-13.4246-.7205-40.9245-3.4836l-2.1917-.22c-13.4624-1.3528-20.8782-2.0978-21.57-2.1813-5.3426-.64-9.2233-1.1708-12.3412-1.5975-6.2973-.8635-9.4587-1.296-14.4246-1.1392-2.0725.0657-4.0236.2246-5.903.4555a257.975,257.975,0,0,1,26.6-3.2962c34.5781,6.3609,112.9628,18.1783,121.42-10.4192a32.4425,32.4425,0,0,1,.7147,4.2259A12.4167,12.4167,0,0,1,1086.3972,756.8988Z"/><path class="cls-3" d="M892.66,477.896a70.4274,70.4274,0,0,1,11.551,3.7139l100.1817,141.6764,57.7835,81.7171.1307.1847.1448.1741c8.84,10.62,14.6785,19.8493,17.3533,27.4311,1.6127,4.5712,2.0362,8.4587,1.2586,11.555-3.2426,12.9147-29.57,14.7322-44.9751,14.6662-18.7749-.0806-42.3636-2.71-70.1109-7.8141l-.7054-.13-.7151.0513a247.7551,247.7551,0,0,0-85.542,21.4461c-21.1913,9.6756-34.8929,19.74-55.6332,34.9749-9.3207,6.8466-19.885,14.6066-33.3237,23.9693-22.9872,16.0151-46.8438,31.428-70.9593,45.853-.3222-.3251-.6493-.6432-.9724-.9671-.334-4.2176,3.5024-13.1789,6.6485-20.5148,5.9491-13.872,12.692-29.5946,8.1519-42.4636a23.2918,23.2918,0,0,0-1.7172-3.7671c-6.1995-10.8862-19.4667-13.1449-34.829-15.76l-.3408-.058a91.2107,91.2107,0,0,0-39.2705,1.92c-12.9351,3.5513-25.2863,3.6628-36.7107.3312a54.8044,54.8044,0,0,1-12.7021-5.5078c-1.6289-1.31-3.2658-2.6179-4.8725-3.9354l-.3482.4343c-6.2353-4.6746-12.0978-10.9055-17.9743-19.0336-11.12-15.3812-22.1881-37.37-35.0032-62.83l-.527-1.0468c-10.3886-20.6382-20.201-40.1318-25.9651-56.4689l-.0007-.002c-7.1077-20.1472-5.1144-27.9235-2.1905-30.8994,1.9572-1.992,5.4606-1.74,15.7892-.4416,4.643.5836,10.4156,1.3092,17.4662,1.8262a196.8715,196.8715,0,0,0,71.8759-4.9233c24.6063-6.4261,42.6371-16.5887,54.5684-23.3135,15.68-8.8374,24.7679-15.8819,37.3466-25.6318,3.8955-3.0194,8.3106-6.4416,13.3709-10.2648,43.964-33.2151,66.0313-49.887,89.1645-57.94,7.6777-2.6727,14.5966-5.4992,21.2877-8.2327C860.3672,480.1034,875.3922,473.9655,892.66,477.896Z"/><path d="M1149.5819,632.11c-5.9326,10.19-13.3158,22.87-30.0546,29.1568-5.0759,1.9062-12.6477,3.739-43.9242,3.4016-14.52-.1555-29.2958-.737-43.9193-1.7281l.2893-5.73c14.5192.9833,29.1916,1.56,43.61,1.7155,30.34.3278,37.5706-1.4067,41.9655-3.0575,14.9157-5.6011,21.7467-17.3339,27.2359-26.7617q.7353-1.263,1.4462-2.4705c13.73-23.2,32.7974-43.9807,56.6824-61.8314a11.0319,11.0319,0,0,1,.0378-5.2248,21.7208,21.7208,0,0,1,9.7836-12.7377c3.1563-1.883,6.2915-2.52,8.8275-1.7941a6.2227,6.2227,0,0,1,4.3589,4.2841,27.0185,27.0185,0,0,1,1.0586,5.7881,51.1574,51.1574,0,0,0,4.7275,17.788c.8136,1.7073,1.7043,3.3355,2.566,4.9109,2.6648,4.8741,5.4238,9.9135,6.3442,17.8719.5052,4.37,1.0787,9.3232-2.351,11.0662l.001,0c-4.6612,2.3713-10.7524-3.5117-26.0715-25.18a99.6642,99.6642,0,0,1-7.126-11.2458c-22.7552,17.215-40.9321,37.1565-54.0623,59.3422Q1150.305,630.8612,1149.5819,632.11Z"/><path d="M1176.5612,511.0332a22.2021,22.2021,0,0,1-13.209-8.5787c-31.1889,3.4141-60.6545,1.5883-87.6673-5.4479-.9563-.2482-1.9326-.51-2.9287-.7767-11.2019-2.9986-25.1437-6.7309-41.25-.3682-4.7366,1.8708-11.8137,5.6526-35.9989,26.9828-11.4713,10.1161-22.8564,20.7241-33.8405,31.5287l-3.9677-4.1268c11.0564-10.8773,22.5188-21.5573,34.0674-31.7419,24.8759-21.9389,32.2492-25.8646,37.6683-28.0057,17.8387-7.0464,32.7753-3.0475,44.7777.1659q1.476.395,2.8912.7676c25.9392,6.7551,54.2411,8.5729,84.2213,5.4418-.3039-3.65.688-9.0276,3.74-18.68,8.037-25.4148,12.0949-32.9231,17.3716-32.139,2.348.3488,3.6447,2.2746,4.4982,4.6971a39.6738,39.6738,0,0,1,1.2792,5.078c1.62,7.85.5334,13.51-.5171,18.9838-.3385,1.7674-.69,3.5945-.9408,5.4735a50.1362,50.1362,0,0,0,1.0262,18.3933c.9359,4.4629,1.821,8.678-2.0812,11.278C1183.4669,511.4466,1180.2212,511.8289,1176.5612,511.0332Z"/><path d="M703.8658,764.4159c5.9164,16.77,32.7937,22.3955,60.0321,12.5639s44.5232-31.3967,38.6068-48.1671-32.7937-22.3955-60.0321-12.5639-44.5233,31.3967-38.6068,48.1671Z"/><path d="M648.14,681.8332c5.9164,16.77,32.7937,22.3954,60.0321,12.5639S752.6956,663,746.7792,646.23s-32.7938-22.3955-60.0321-12.564-44.5233,31.3967-38.6068,48.1672Z"/><path d="M815.796,746.0006a52.155,52.155,0,0,0-8.9808-34.4819c-1.25-1.8256-4.0514.1516-2.7965,1.9844a48.2564,48.2564,0,0,1,8.4207,31.8579c-.19,2.199,3.1656,2.8539,3.3566.64Z"/><path d="M725.57,621.5691a46.8073,46.8073,0,0,1,30.937,25.6894c.93,1.9916,4.1559.851,3.2165-1.161a50.4633,50.4633,0,0,0-33.5211-27.9237c-2.1371-.5446-2.7554,2.8542-.6324,3.3953Z"/><path d="M767.7724,680.9819c6.8992-3.5853,10.4068-11.4552,16.2083-16.5194,3.2111-2.8029,7.5252-6.4468,11.6886-7.4449,4.6211-1.1079,8.7328,1.9245,13.1633,2.6895,2.1691.3745,2.8014-3.0207.6324-3.3952-3.832-.6617-7.3058-3.0621-11.2591-3.1141-3.7376-.0491-7.1446,1.9414-10.1947,3.9167a55.855,55.855,0,0,0-10.3783,8.7357c-3.5956,3.8448-6.2137,9.3866-11.0083,11.8783-1.9266,1.0012-.8042,4.2678,1.1478,3.2534Z"/><path class="cls-3" d="M653.5011,679.8982c-4.77-13.5206,11.3309-32.2091,35.1589-40.81s47.9885-4.4441,52.7584,9.0764-11.3309,32.2092-35.159,40.81-47.9884,4.4441-52.7583-9.0765"/><ellipse cx="708.9488" cy="653.7718" rx="16.5287" ry="12.6491" transform="translate(-183.6311 288.6321) rotate(-20.4327)"/><path class="cls-3" d="M709.2266,762.4809c-4.77-13.52,11.3309-32.2091,35.159-40.81s47.9884-4.4441,52.7583,9.0765-11.3309,32.2091-35.159,40.81-47.9884,4.4441-52.7583-9.0765"/><ellipse cx="767.5082" cy="734.109" rx="16.5287" ry="12.6491" transform="translate(-207.993 314.1301) rotate(-20.4327)"/><path d="M918.46,709.594l-3.7344,5.36.0942.1391,4.7751-3.8243,22.728-15.76,1.8436,2.72-35.2833,24.4661-1.04-1.534,15.2561-27.7523,3.5362-5.1178-.1183-.1746-4.5056,3.6875-22.627,15.69-1.8437-2.72,35.2813-24.4648,1.0406,1.5354Z"/><path d="M922.8706,676.6a25.1063,25.1063,0,0,1-4.4274,5.6336,52.4929,52.4929,0,0,1-6.8669,5.5814q-8.6835,6.0213-15.072,6.6569-6.3885.6378-9.6268-4.14a9.64,9.64,0,0,1-1.6429-4.04,9.951,9.951,0,0,1,.3391-4.2338l-3.9708.6008.5073-3.0177,4.78-.6988a26.16,26.16,0,0,1,4.4242-5.5813,51.3618,51.3618,0,0,1,6.7417-5.4946q8.6865-6.0234,15.0856-6.6413,6.4015-.6186,9.6633,4.1941a9.3267,9.3267,0,0,1,1.3571,8.0284l3.7007-.5658-.5578,3.0527Zm-13.3745,8.1456a44.3275,44.3275,0,0,0,4.5643-3.6009,27.5261,27.5261,0,0,0,3.493-3.78l-27.25,4.0294a8.2027,8.2027,0,0,0-.7476,3.3114,5.3989,5.3989,0,0,0,.9949,3.08q2.1739,3.2076,6.9124,2.6139T909.4961,684.7458Zm-9.36-13.81a43.1049,43.1049,0,0,0-4.4129,3.4959,28.4523,28.4523,0,0,0-3.4656,3.711l27.2482-4.028a7.4835,7.4835,0,0,0,.6349-3.21,5.57,5.57,0,0,0-1.0089-2.9383q-2.1986-3.2439-6.949-2.6678Q907.4328,665.8764,900.1364,670.9359Z"/><path d="M889.196,654.6842l-5.5541-8.1948,15.2832-10.5977a8.0825,8.0825,0,0,1,2.0022.5849,11.6753,11.6753,0,0,1,1.9789,1.0892,12.0648,12.0648,0,0,1,1.7732,1.4863,12.6042,12.6042,0,0,1,1.4383,1.7456,10.6566,10.6566,0,0,1,1.8412,5.029,11.7006,11.7006,0,0,1-.9823,5.654,21.9752,21.9752,0,0,1-4.0974,6.12,43.1873,43.1873,0,0,1-7.47,6.36,37.0616,37.0616,0,0,1-8.898,4.7349,21.3981,21.3981,0,0,1-7.3084,1.3256,11.9833,11.9833,0,0,1-5.54-1.3378,10.2086,10.2086,0,0,1-3.6382-3.2177,18.3778,18.3778,0,0,1-2.0168-3.6765,10.2947,10.2947,0,0,1-.6917-2.9037l4.1671-1.8133a9.8889,9.8889,0,0,0,2.0489,5.6026,7.7492,7.7492,0,0,0,2.6924,2.4134,8.3256,8.3256,0,0,0,4.1678.9292,17.516,17.516,0,0,0,5.6922-1.179,32.3243,32.3243,0,0,0,7.2444-3.9471,36.6279,36.6279,0,0,0,5.9513-4.9966,18.2561,18.2561,0,0,0,3.3237-4.7306,9.0023,9.0023,0,0,0,.8969-4.3787,7.7358,7.7358,0,0,0-1.3476-3.8715,7.04,7.04,0,0,0-3.8086-2.93l-9.676,6.7095,2.8593,6.3735Z"/><path d="M862.8909,653.6487l-9.0048-13.2864,3.6709-2.5454L864.6,648.2084l11.364-7.88-6.4524-9.52,3.6729-2.5468,6.4524,9.52,12.3554-8.5675-7.1612-10.566,3.6729-2.5469,9.1232,13.4609Z"/><path d="M859.2524,622.2359l-3.7345,5.36.0943.1391,4.775-3.8243,22.728-15.76,1.8437,2.72-35.2833,24.4661-1.04-1.534L863.8921,606.05l3.5362-5.1178-.1183-.1746-4.5056,3.6875-22.6271,15.69-1.8436-2.72,35.2813-24.4647,1.0406,1.5354Z"/><path d="M867.6211,590.2379a4.39,4.39,0,0,1-2.4765.9225,2.0065,2.0065,0,0,1-1.75-.914,2.1477,2.1477,0,0,1-.2473-2.0333,4.3547,4.3547,0,0,1,1.7321-2.0209,4.3107,4.3107,0,0,1,2.4618-.8872,2.0782,2.0782,0,0,1,1.81.95,2.04,2.04,0,0,1,.1874,1.9977A4.4829,4.4829,0,0,1,867.6211,590.2379Z"/><path d="M828.619,603.0817l-1.961-2.8934,27.0935-18.7872q3.9708-2.7534,6.8942-2.9616a4.8555,4.8555,0,0,1,4.6248,2.3041,7.6366,7.6366,0,0,1,.4227.7332,8.5753,8.5753,0,0,1,.417.9394,8.6679,8.6679,0,0,1,.31.991,2.8922,2.8922,0,0,1,.09.8865l-3.854,1.8505a4.8438,4.8438,0,0,0-.846-2.54,2.2509,2.2509,0,0,0-2.7757-.9205,16.5083,16.5083,0,0,0-4.3133,2.2984Z"/><path d="M822.7275,593.6356a15.1583,15.1583,0,0,1-2.5336-2.4463q-1.1886-1.4318-2.2056-2.93a15.09,15.09,0,0,1-1.7639-3.57,9.19,9.19,0,0,1-.4071-4.1524,10.64,10.64,0,0,1,1.7738-4.4861,17.4142,17.4142,0,0,1,4.7315-4.5366,19.0535,19.0535,0,0,1,5.9033-2.9129,11.9015,11.9015,0,0,1,4.9894-.3329,9.1889,9.1889,0,0,1,4.0168,1.6743,12.6657,12.6657,0,0,1,2.9828,3.109l.39.5762c.1808.2667.3622.5519.5423.8526s.348.6055.5042.906a5.207,5.207,0,0,1,.3031.6618l13.2-9.1528,1.9619,2.8949Zm-1.2124-7.9243q.6146.9067,1.23,1.7089a5.1848,5.1848,0,0,0,1.1466,1.1532l14.3908-9.9789a1.626,1.626,0,0,0-.2528-.6444c-.1569-.2667-.3226-.5461-.4949-.8354-.1713-.2921-.3461-.5631-.5192-.8186l-.3789-.559a10.5912,10.5912,0,0,0-1.9166-2.1316,6.1982,6.1982,0,0,0-2.5962-1.2994,7.0545,7.0545,0,0,0-3.4088.1339,13.8017,13.8017,0,0,0-4.3117,2.1429,11.4168,11.4168,0,0,0-3.0319,2.8971,7.2048,7.2048,0,0,0-1.2153,2.9453,6.3971,6.3971,0,0,0,.1939,2.813A8.981,8.981,0,0,0,821.5151,585.7113Z"/><path d="M821.4091,554.667l-5.5541-8.1949,15.2833-10.5977a8.09,8.09,0,0,1,2.0022.585,11.6707,11.6707,0,0,1,1.9788,1.0891,12.0655,12.0655,0,0,1,1.7732,1.4864,12.6042,12.6042,0,0,1,1.4383,1.7456,10.6578,10.6578,0,0,1,1.8413,5.029,11.702,11.702,0,0,1-.9824,5.654,21.973,21.973,0,0,1-4.0974,6.12,43.1871,43.1871,0,0,1-7.47,6.36,37.0545,37.0545,0,0,1-8.898,4.7349,21.3984,21.3984,0,0,1-7.3084,1.3257,11.9845,11.9845,0,0,1-5.54-1.3378,10.2083,10.2083,0,0,1-3.6381-3.2177,18.3817,18.3817,0,0,1-2.0169-3.6765,10.2945,10.2945,0,0,1-.6917-2.9038l4.1671-1.8132a9.8887,9.8887,0,0,0,2.0489,5.6025,7.7492,7.7492,0,0,0,2.6924,2.4134,8.3256,8.3256,0,0,0,4.1678.9293,17.5191,17.5191,0,0,0,5.6922-1.1791,32.3192,32.3192,0,0,0,7.2444-3.947,36.6279,36.6279,0,0,0,5.9513-4.9966,18.2578,18.2578,0,0,0,3.3238-4.7307,9.0027,9.0027,0,0,0,.8968-4.3786,7.7358,7.7358,0,0,0-1.3476-3.8715,7.04,7.04,0,0,0-3.8086-2.93l-9.676,6.7094,2.8594,6.3735Z"/><path class="cls-4" d="M812.7591,826.4024c-10.8243,34.9768-69.0958,65.9689-75.43,71.2124a81.4351,81.4351,0,0,0-19.0242,23.1845c-4.5857,9.0789-6.461,18.1717-15.6481,29.709a43.6246,43.6246,0,0,1-6.3176,6.63c-7.516,6.31-16.119,9.0917-21.9262,10.4231"/><path class="cls-5" d="M670.8084,962.3133a53.82,53.82,0,0,0-10.6529-7.0678c-6.4-3.1864-13.5106-6.7269-16.5758-4.3962-2.1444,1.63-3.1876,9.7873-2.5156,7.3086h0a60.1775,60.1775,0,0,0,7.5764,3.7063c5.1362,1.9333,9.348,1.6527,9.33,1.9655-.0253.4421-8.3641-.3287-17.7016,2.6021-2.6391.8284-5.2226,1.91-6.9819,4.2574-1.52,2.0277-2.5763,5.203-1.2912,6.3605.9585.8634,2.5687.0181,7.8086-1.0684,3.3609-.6968,2.09-.223,9.8931-1.5337,6.0523-1.0166,9.0976-1.6848,9.1982-1.3786.2222.6758-15.0051,2.7287-19.7211,11.8241-.4342.8374-2.1875,4.2187-.5964,6.2054,1.503,1.8768,5.2923,1.6375,7.61,1,3.05-.8388,3.8819-2.4583,8.0408-5.8431,4.27-3.4752,7.7787-6.3309,9.5958-5.5156,2.7993,1.2559-1.5373,9.8235,2.6122,12.9109,2.2559,1.6786,6.4619,1.3219,7.9739-.4306,1.0146-1.176.2979-2.38-.2638-6.6881-.54-4.1443-.9976-7.6518-.0316-11.4629.9511-3.752,2.3731-4.2145,1.9861-6.5157C675.8215,966.8888,674.7942,965.4475,670.8084,962.3133Z"/><path class="cls-4" d="M623.34,613.16c-14.01,33.8-74.8914,59.1448-81.6828,63.7662a81.1817,81.1817,0,0,0-21.0842,21.2836c-5.4048,8.6054-8.1125,17.481-18.3259,28.0988a43.4818,43.4818,0,0,1-6.9028,6.0037c-8.0665,5.572-16.8889,7.5274-22.7937,8.3038"/><path class="cls-5" d="M469.4467,735.0493a53.9916,53.9916,0,0,0-9.9529-8.0444c-6.077-3.7776-12.8295-7.9752-16.0968-5.9447-2.2857,1.4206-4.0783,9.443-3.18,7.0387h0a60.364,60.364,0,0,0,7.2006,4.4067c4.9349,2.4106,9.1543,2.53,9.1076,2.8393-.0661.4378-8.2971-1.1184-17.8647.9165-2.7041.5751-5.3763,1.4075-7.3448,3.5783-1.7,1.8752-3.0461,4.9366-1.8736,6.2106.8745.95,2.5558.261,7.8732-.3252,3.4105-.3759,2.1019-.0244,9.9915-.5913,6.12-.44,9.2135-.817,9.2854-.5026.1587.6938-15.1916,1.2975-20.7278,9.907-.51.7927-2.5679,3.9934-1.1675,6.1219,1.323,2.0107,5.1178,2.1309,7.484,1.7155,3.114-.5467,4.0922-2.08,8.5458-5.0571,4.5724-3.0561,8.33-5.5674,10.0637-4.5839,2.6709,1.5152-2.4387,9.6351,1.4071,13.1015,2.0909,1.8846,6.3115,1.9272,7.9788.3254,1.1189-1.0748.5166-2.3412.3557-6.6838-.1549-4.1771-.2859-7.7126,1.0282-11.4156,1.2937-3.6456,2.7523-3.9716,2.58-6.2993C474.0148,740.0789,473.1252,738.5467,469.4467,735.0493Z"/><path class="cls-6" d="M2152.5,257.6323C2152.5,464.9421,1974.3642,633,1754.6224,633s-397.8776-168.0579-397.8776-375.3677c0-170.9153,137.2172-283.6693,149.6473-293.3736,19.2134-15,115.4342-87.1649,248.23-81.9941C1930.322-110.8941,2152.5,30.64,2152.5,257.6323Z"/><path class="cls-7" d="M1401.7646,431.0193c-4.8223-16.1549,8.7014-35.7522,8.5172-45.02-.3835-19.2975-4.867-38.9358-4.867-38.936-4.2319-18.536-8.0369-22.92-4.867-29.202,3.3431-6.6252,9.5991-5.7606,29.202-14.6011,16.4969-7.44,24.8341-11.3255,29.2021-19.468,6.679-12.4509,1.0628-26.5362,0-29.202-3.7584-9.4258-13.4125-22.8763-24.3351-21.9015-5.2193.4658-8.8728,4.06-12.1675,7.3005-9.3668,9.2137-6.7551,16.4855-14.601,24.335-5.8838,5.8864-16.217,10.6654-21.9015,7.3005-3.3877-2.0053-3.57-5.9827-4.867-26.7685-1.6065-25.7417-1.8344-27.769,0-31.6355,3.4191-7.2078,10.3911-11.2946,24.335-19.4681,17.5321-10.2767,22.4829-9.3027,29.202-17.0345,2.6311-3.0277,9.81-12.3116,9.734-24.335-.1018-16.1227-13.1484-21.29-24.335-46.2365-3.9794-8.8741-14.297-20.1459-12.8276-25.3128C1449.49,7.36,1512.9448-46.0751,1546.342-62.7737c9.6808,2.637-27.0932,40.91-28.9861,54.5459-1.905,13.7238,8.3061,20.7959,14.601,36.5025,14.27,35.6051-16.8165,52.6222-4.867,80.3056,7.4425,17.2423,30.919,32.5852,77.8721,63.271a23.63,23.63,0,0,1,7.3005,7.3005c6.0472,9.6885,5.4059,25.5692-2.4335,34.0691-8.394,9.1012-17.7537,1.839-36.5025,9.734-14.8126,6.2373-30.603,19.8793-29.2021,31.6355.9224,7.74,8.5541,8.44,9.734,17.0345.9881,7.1959-3.7426,11.2155-14.601,26.7685-16.6311,23.8216-18.8489,33.4642-19.468,36.5026-1.1555,5.6716-3.1411,16.1414,2.4335,24.335,3.3571,4.9341,6.2406,4.3177,12.1675,9.734,9.0722,8.2909,7.403,14.3848,14.601,24.335,8.9867,12.4227,15.4465,8.2574,24.3351,19.468,10.2244,12.8956,2.7587,19.772,12.1675,34.0691,11.5766,17.5916,33.6891,23.6074,36.5025,24.335,12.1666,3.1461,16.13.1847,21.9015,4.867,9.4456,7.6625,2.26,18.3728,9.734,34.069,9.2795,19.4862,27.7414,18.49,31.6356,36.5026.4274,1.9769,2.1744,11.0991-2.4335,19.468-12.8861,23.4035-40.1528,10.9507-63.2711,14.601-18.3849,2.9029-30.7461,18.8569-34.2577,16.6967C1512.9448,566.2057,1443.9241,507.2041,1401.7646,431.0193Z"/><path class="cls-7" d="M2044.2091,513.7584c-2.09-12.0894-4.867-31.6355-17.0345-36.5025-12.48-4.9922-23.0113,4.4878-36.5025-2.4335-3.9839-2.0438-8.334-8.6631-17.0345-21.9016-9.2611-14.0916-13.892-21.1375-14.601-26.7685-1.5988-12.6942,5.306-23.4152,12.1675-34.069,11.1094-17.25,18.1321-16.8462,21.9015-29.2021,4.61-15.1113-1.6092-29.7627-2.4335-31.6355-6.4515-14.6574-16.4392-15.7565-17.0345-26.7685-.3984-7.3688,4.0245-7.789,7.3005-21.9015,2.0375-8.778,3.9865-17.1731,0-24.335-2.3646-4.2481-5.03-4.8523-17.0345-12.1676-3.7486-2.2843-13.916-8.48-21.9015-14.601-7.111-5.45-15.281-11.7121-21.9016-21.9015-7.8087-12.0181-3.9152-14.8069-12.1675-29.202-8.254-14.3988-14.9-16.4069-14.601-24.335.1628-4.3105,2.271-7.5223,14.601-19.4681,18.0826-17.5189,27.3113-26.3369,36.5026-29.202,5.9491-1.8545,18.4722-5.7583,29.202,0,8.4311,4.5248,7.8373,10.7666,19.468,19.468,7.3938,5.5317,14.1471,7.8821,19.468,9.734,8.21,2.8573,28.0013,9.7457,34.0691,2.4335,5.058-6.0956-2.7951-17.9933,2.4335-21.9015,2.74-2.0479,5.5719.7143,12.1675,0,6.1737-.6685,13.356-4.1352,17.0345-9.734,6.1108-9.3006,2.017-23.6688-4.867-31.6355-5.6905-6.5855-9.8811-4.8547-19.468-14.601a85.4916,85.4916,0,0,1-9.7341-12.1675c-5.8241-8.47-5.1735-10.0387-9.734-17.0346-8.3524-12.8129-14.0909-13.0061-17.0345-21.9015-1.9733-5.9636,6.6065-14.4587,4.867-19.468-9.734-12.1675-38.936-29.202-55.9705-41.3695-3.8862-1.64-17.3257-.1032-24.335-2.4335-3.696-1.2288-7.2263-2.5182-24.3351-9.734-19.4389-8.1986-22.81-9.878-26.7685-12.1676-9.9413-5.7493-9.0629-6.9439-14.601-9.734-13.9909-7.0487-28.9332-4.1275-48.67,0-25.5493,5.3431-23.2917,9.4875-36.5025,9.734-17.2555.3221-18.5251-6.7971-43.803-9.734-11.3343-1.3168-23.028-2.542-36.5026,2.4335-5.3791,1.9863-14.4667,5.4722-21.9015,14.601-2.0844,2.56-11.5009,14.7248-9.734,31.6356.3467,3.3178,1.2509,11.9708,7.3005,19.468,6.7839,8.4069,15.7251,10.016,38.9361,14.601,46.8918,9.2628,40.942,8.7288,48.67,9.734,29.1138,3.7868,33.4595.947,43.803,7.3005,5.3545,3.289,11.6816,10.3044,24.3351,24.335,13.0459,14.4657,14.1248,17.6863,14.601,19.4681,3.7875,14.1688-6.2115,28.3128-12.1675,36.5025-10.6,14.5745-21.3208,21.0389-36.5026,31.6355-4.5542,3.1788,8.9251-6.1379-58.404,46.2366-33.54,26.09-43.9457,33.8948-43.8031,46.2365.0746,6.4405,4.1054,12.4053,12.1675,24.335a153.5881,153.5881,0,0,0,31.6356,34.0691c17.4334,13.9018,27.9261,22.2687,43.803,24.335,13.9861,1.82,17.9079-3.1026,36.5026,0,10.3694,1.73,22.1454,3.695,26.7685,12.1675,3.2346,5.9282.6571,10.8083-2.4335,26.7685-4.5248,23.3669-.99,23.1856-4.867,38.9361-3.7525,15.2431-9.5814,25.6407-17.0345,38.936-3.9414,7.0307-10.7393,16.8546-24.3351,36.5025-13.8723,20.0477-14.8945,20.8088-21.9015,31.6356-11.12,17.1829-10.599,18.4387-17.0345,26.7685a156.9479,156.9479,0,0,1-26.7685,26.7685c-20.2657,15.959-30.1473,15.7879-36.5026,29.202-1.3884,2.9305-5.2716,11.1266-2.4335,19.4681,2.5625,7.5312,9.2873,11.3115,19.4681,17.0345,8.0963,4.5512,6.5908,4.8043,21.9015,12.1675,4.17,2.0053,22.1472,13.4642,24.335,14.601"/><path class="cls-8" d="M1450,481c1.1064,4.314,5.9781,16.8106,37,27"/><path class="cls-8" d="M1434,361a75.8625,75.8625,0,0,0-10,29c-.9233,7.2477-2.4645,19.3453,3,32"/><path class="cls-8" d="M1480,363a54.6569,54.6569,0,0,1,36,32"/><path class="cls-8" d="M1532,431a120.8909,120.8909,0,0,1,4,42"/><ellipse class="cls-8" cx="1483.5916" cy="436.2679" rx="15.1943" ry="25.5101" transform="translate(-61.4873 500.3363) rotate(-18.7611)"/><path class="cls-8" d="M1040,468a1075.6668,1075.6668,0,0,0,139,9c35.2079.0015,71.6061-.137,118-7a648.3231,648.3231,0,0,0,142-38"/><path class="cls-8" d="M1270,432a498.8584,498.8584,0,0,0,96-13q6.0788-1.4388,12-3"/><path class="cls-8" d="M1161,526a690.5221,690.5221,0,0,0,128-18,690.1085,690.1085,0,0,0,100-32"/><path class="cls-8" d="M1033,693c54.8892-30.0218,100.8635-52.1882,133-67,84.6834-39.0309,139-62,139-62,36.5206-15.4437,64.6329-26.6594,101-50a490.574,490.574,0,0,0,55-41"/><path class="cls-8" d="M1139,709c42.0927-30.5346,77.427-54.0859,102-70,38.3079-24.8091,61.2413-38.0379,155-96,21.2545-13.14,38.6568-23.9466,50-31"/><path class="cls-8" d="M1324,532c23.243-14.853,48.2189-29.3157,75-43q7.0267-3.59,14-7"/><path class="cls-8" d="M1032,602a615.8587,615.8587,0,0,0,130-25q13.9177-4.28,27-9"/><path class="cls-9" d="M1703.0316,211.8341c4.6434,23.29-13.9851,46.6345-41.608,52.1418s-53.78-8.9083-58.4232-32.1982c11.5407-16.35,28.95-35.7643,41.608-52.1418C1672.2312,174.1286,1698.3882,188.5442,1703.0316,211.8341Z"/><ellipse cx="1627.5443" cy="237.3273" rx="17.5" ry="16" transform="translate(1127.2258 1804.1413) rotate(-80.5869)"/><path class="cls-9" d="M1394.8967,164.5572c-11.9386,20.5292-1.8783,48.65,22.47,62.81s53.7652,8.9963,65.7038-11.5329c-5.6209-19.2075-15.8015-43.2149-22.47-62.81C1436.2519,138.8645,1406.8353,144.028,1394.8967,164.5572Z"/><ellipse cx="1457.3022" cy="214.0428" rx="17.5" ry="16" transform="translate(1005.884 1616.1005) rotate(-80.5087)"/><path class="cls-8" d="M1498,200c.7137-22.3746-1.8939-58.7593-24-93a142.9188,142.9188,0,0,0-12-16"/><path class="cls-8" d="M1593.7152,195.6738c11.908-18.956,34.3977-47.6764,71.8616-63.7254a142.9443,142.9443,0,0,1,18.8913-6.5662"/></g></svg>