<?xml version="1.0" encoding="utf-8"?>
<!-- Generator: Adobe Illustrator 23.0.1, SVG Export Plug-In . SVG Version: 6.00 Build 0)  -->
<svg version="1.1" id="Layer_1" xmlns="http://www.w3.org/2000/svg" xmlns:xlink="http://www.w3.org/1999/xlink" x="0px" y="0px"
	 viewBox="0 0 270 120" style="enable-background:new 0 0 270 120;" xml:space="preserve">
<style type="text/css">
	.st0{font-family:'MyriadPro-Regular';}
	.st1{font-size:22px;}
	.st2{fill:#CCCCCC;}
</style>
<title>graa4</title>
<text transform="matrix(1 0 0 1 19.8125 28.9063)"><tspan x="0" y="0" class="st0 st1">Hvad fuck har du gang i?</tspan><tspan x="0" y="26.4" class="st0 st1">Du skal ikke sende sådan </tspan><tspan x="0" y="52.8" class="st0 st1">noget shit. Fuck lige af.</tspan></text>
<path class="st2" d="M234.7,2.5H35.3C17.5,2.6,3.1,17,3,34.8v27.4C3.1,80,17.5,94.4,35.3,94.5H202c0,0,0,0,0,0h27.3c0,0,0,0,0,0h5.4
	c17.8-0.1,32.2-14.5,32.3-32.3V34.8C266.9,17,252.5,2.6,234.7,2.5z"/>
<text transform="matrix(1 0 0 1 20.8125 28.9063)"><tspan x="0" y="0" class="st0 st1">Hvad fuck har du gang i?</tspan><tspan x="0" y="26.4" class="st0 st1">Du skal ikke sende sådan </tspan><tspan x="0" y="52.8" class="st0 st1">noget shit. Fuck lige af.</tspan></text>
</svg>
