<?xml version="1.0" encoding="utf-8"?>
<!-- Generator: Adobe Illustrator 23.0.1, SVG Export Plug-In . SVG Version: 6.00 Build 0)  -->
<svg version="1.1" id="Layer_1" xmlns="http://www.w3.org/2000/svg" xmlns:xlink="http://www.w3.org/1999/xlink" x="0px" y="0px"
	 viewBox="0 0 195 90" style="enable-background:new 0 0 195 90;" xml:space="preserve">
<style type="text/css">
	.st0{font-family:'SegoeUI';}
	.st1{font-size:20px;}
	.st2{fill:#CCCCCC;}
</style>
<title>graa3</title>
<text transform="matrix(1 0 0 1 18.875 24.3125)" class="st0 st1">Stop nu med at </text>
<text transform="matrix(1 0 0 1 18.875 48.3125)" class="st0 st1">sende nudes dude.</text>
<g>
	<path class="st2" d="M3.5,33.8c0-0.1,0-0.2,0-0.3c0-0.1,0-0.2,0-0.3V33.8z"/>
	<path class="st2" d="M191.5,33.2c0,0.1,0,0.2,0,0.3c0,0.1,0,0.2,0,0.3V33.2z"/>
	<path class="st2" d="M159.2,1.5H35.8c-17.7,0.1-32,14.3-32.3,32c0.3,17.7,14.6,31.9,32.3,32h87.8h2.9h27.3h5.4
		c17.7-0.1,32-14.3,32.3-32C191.2,15.8,176.9,1.6,159.2,1.5z"/>
</g>
<text transform="matrix(1 0 0 1 18.875 25.3125)" class="st0 st1">Stop nu med at </text>
<text transform="matrix(1 0 0 1 18.875 49.3125)" class="st0 st1">sende nudes dude.</text>
</svg>
