<?xml version="1.0" encoding="utf-8"?>
<!-- Generator: Adobe Illustrator 23.0.1, SVG Export Plug-In . SVG Version: 6.00 Build 0)  -->
<svg version="1.1" id="Layer_1" xmlns="http://www.w3.org/2000/svg" xmlns:xlink="http://www.w3.org/1999/xlink" x="0px" y="0px"
	 viewBox="0 0 320 127.6" style="enable-background:new 0 0 320 127.6;" xml:space="preserve">
<style type="text/css">
	.st0{font-family:'SegoeUI';}
	.st1{font-size:21px;}
	.st2{fill:#CCCCCC;}
	.st3{font-size:21.8375px;}
</style>
<title>graa1</title>
<text transform="matrix(1 0 0 1 32 39)" class="st0 st1">Stop dig selv! Hvorfor sender</text>
<text transform="matrix(1 0 0 1 32 66)" class="st0 st1">du sådan noget pis?        Kæft</text>
<text transform="matrix(1 0 0 1 32 93)" class="st0 st1">en taber du er...</text>
<image style="overflow:visible;enable-background:new    ;" width="160" height="160" xlink:href="../../../../../../../Downloads/thinking-face_1f914.png"  transform="matrix(0.216 0 0 0.216 222 42.9375)">
</image>
<path class="st2" d="M250,123.5h27.3h5.4c17.8-0.1,32.2-14.5,32.3-32.3V35.8C314.9,18,300.5,3.6,282.7,3.5H37.3
	C19.5,3.6,5.1,18,5,35.8v55.4c0.1,17.8,14.5,32.2,32.3,32.3h160.3H250z"/>
<text transform="matrix(1 0 0 1 20.75 39.001)" class="st0 st3">Stop dig selv! Hvorfor sender</text>
<text transform="matrix(1 0 0 1 20.75 67.0781)" class="st0 st3">du sådan noget pis?        Kæft</text>
<text transform="matrix(1 0 0 1 20.75 95.1543)" class="st0 st3">en taber du er...</text>
<image style="overflow:visible;enable-background:new    ;" width="160" height="160" xlink:href="../../../../../../../Downloads/thinking-face_1f914.png"  transform="matrix(0.2246 0 0 0.2246 218.3277 43.0965)">
</image>
</svg>
