<svg id="Layer_1" data-name="Layer 1" xmlns="http://www.w3.org/2000/svg" xmlns:xlink="http://www.w3.org/1999/xlink" viewBox="0 0 178 45"><defs><style>.cls-1{fill:#51a2f9;}</style></defs><title>ja</title><image width="640" height="567" transform="translate(-1 -2.5) scale(0.2812 0.0882)" xlink:href="../../Desktop/sex%20og%20samfund/mtl_desktop_back.png"/><rect class="cls-1" x="4.0562" y="-2.5" width="169.8876" height="45.5556" rx="13.892"/><path d="M77.3224,9.6387h2.1992V22.1631c0,4.9712-2.2249,6.4985-5.1559,6.4985a6.55,6.55,0,0,1-2.3513-.4444l.3288-1.9715a4.8342,4.8342,0,0,0,1.8448.3607c1.9721,0,3.1344-.9716,3.1344-4.6375Z"/><path d="M89.8858,28.3561l-.1767-1.6938H89.634a4.4379,4.4379,0,0,1-3.7408,1.9993,3.658,3.658,0,0,1-3.7408-3.86c0-3.2492,2.6289-5.0266,7.3552-4.9989v-.2778c0-1.11-.2785-3.11-2.7809-3.11a5.7025,5.7025,0,0,0-3.1848,1l-.5046-1.6108a7.0824,7.0824,0,0,1,4.0182-1.1941c3.7408,0,4.65,2.8049,4.65,5.4986v5.0265a20.7032,20.7032,0,0,0,.2025,3.2216Zm-.3278-6.8592c-2.4264-.0559-5.1816.4161-5.1816,3.0268a2.069,2.069,0,0,0,2.0975,2.3329,3.0825,3.0825,0,0,0,2.9577-2.2494,2.7743,2.7743,0,0,0,.1264-.778Z"/></svg>
