<svg id="Layer_1" data-name="Layer 1" xmlns="http://www.w3.org/2000/svg" viewBox="0 0 1920 1086.8521"><defs><style>.cls-1{fill:#f4a612;}.cls-2,.cls-5{fill:#fff;}.cls-3{fill:#454545;}.cls-4{fill:#fff08a;}.cls-5{stroke:#fff;}.cls-5,.cls-6{stroke-miterlimit:10;stroke-width:3px;}.cls-6{stroke:#000;}</style></defs><title>lvl complete</title><rect class="cls-1" x="0.5202" y="-2.0118" width="1918.9595" height="1085.8737"/><rect y="849.7121" width="1920" height="236.6245"/><path class="cls-2" d="M915.2245,919.5118,109.9524,934.1687,262.2468,2.3136l480.1926-8.74Q828.8319,456.5427,915.2245,919.5118Z"/><ellipse class="cls-3" cx="512.0486" cy="920.842" rx="405.271" ry="67.1271" transform="translate(-16.6779 9.4738) rotate(-1.0431)"/><path d="M646.1785,595.243c.826-19.2338,2.3781-32.2778,4.0212-46.0879,1.5273-12.8347,3.1067-26.1057,4.0561-44.78,1.2374-24.3495.4217-38.3786-.5236-54.6233-.5554-9.5439-1.1289-19.4132-1.4-32.67a736.0589,736.0589,0,0,1,9.4653-131.476l.5627-3.5-21.7726,3.9184-315.531,24.237.3808,5.0121.1736-.0133c1.4946,25.5156,2.8157,51.23,3.917,76.5233,2.5259,58.0253,3.4568,102.8013,4.2047,138.78.5346,25.722.95,51.7345,1.2329,77.3554a216.5477,216.5477,0,0,0-21.2128,5.465c-.4183.13-.8357.2626-1.2522.3954l-.9278.2967-.4832.85a18.2058,18.2058,0,0,0-1.4038,3.0987c-1.5023,4.3794-.82,7.9539-.0291,12.0932a62.3234,62.3234,0,0,1,1.29,10.188c.0255.7309.0295,1.9031.0115,3.4833-.0261,2.2528-.1256,4.453-.3066,8.4473-.1677,3.7069-.4048,8.94-.717,17.1652-.43,11.3511-.5312,15.9642-.5918,18.72-.0554,2.5505-.0787,3.6069-.3,7.1193-.1126,1.7871-.2224,3.3523-.3222,4.7694a92.89,92.89,0,0,0-.3007,13.5623,86.4035,86.4035,0,0,0,3.2428,18.6986l.7292,2.5229,65.011-22.169c-.9864,13.0645-1.9831,26.0841-2.978,38.879l-.2974,3.8271,3.608-1.2553A1014.1727,1014.1727,0,0,1,493.39,721.2189c6.6954-1.4677,13.2217-2.8214,19.5314-4.13,21.65-4.4909,42.0985-8.732,70.1815-17.4565A630.1814,630.1814,0,0,0,646.8939,675.98l1.68-.73-.1848-1.8319A547.28,547.28,0,0,1,646.1785,595.243Z"/><path class="cls-4" d="M315.7744,728.3321A81.2014,81.2014,0,0,1,313.41,713.264a87.8657,87.8657,0,0,1,.2983-12.9c.1-1.428.2109-3.0049.3244-4.8057.2281-3.6154.2519-4.7021.3094-7.3272.06-2.74.16-7.3276.589-18.6375.3111-8.2084.5478-13.43.7152-17.1288.1834-4.0493.2845-6.28.312-8.6181.0191-1.6823.0143-2.9-.015-3.7212a67.537,67.537,0,0,0-1.3758-10.9564c-.7355-3.8514-1.2217-6.3953-.1546-9.5058a13.0462,13.0462,0,0,1,.5766-1.4015c.0815-.0256.1635-.0513.2454-.0759a211.2774,211.2774,0,0,1,22.7271-5.7393l2.0492-.398-.0233-2.0974c-.2837-26.3106-.7058-53.0558-1.2558-79.493-.7479-36.0036-1.68-80.8116-4.2086-138.8939-1.1034-25.3476-2.4273-51.1176-3.9256-76.687L591.7163,294.82,354.2621,337.5545l.0771,2.1793c4.4459,125.8384,5.0048,201.8875,1.6628,226.0342a228.89,228.89,0,0,0-1.6211,23.07c-.2065,5.6911-.42,11.5755-.9663,17.2979q-.2038,2.1254-.4093,4.1808c-1.5831,16.0041-2.7263,27.5671,4.2442,30.9162,2.055.9875,3.5784.7332,14.8584-1.55,3.9372-.7977,7.5569-1.5447,10.807-2.2249-1.3558,19.0419-2.7514,38.2161-4.1526,57.0423q-.4718,6.3368-.949,12.6764Z"/><path class="cls-4" d="M643.3025,670.08a625.5287,625.5287,0,0,1-61.6058,22.74c-27.8538,8.653-48.1876,12.8706-69.7151,17.3353-6.3246,1.3116-12.8636,2.6679-19.5875,4.1414a1017.0194,1017.0194,0,0,0-112.6185,31.77c1.3573-17.5,2.7149-35.378,4.0423-53.2017,1.4832-19.9267,2.96-40.2416,4.3892-60.3813l.2361-3.3243-3.2444.6863c-4.0122.8482-8.7218,1.8282-14.008,2.8981-6.8982,1.3978-11.1324,2.2234-11.7158,1.9427-3.8044-1.8277-2.5941-14.0564-1.4242-25.8818.1355-1.3746.2748-2.7757.41-4.1985.5606-5.87.7774-11.8312.9863-17.5949a225.1736,225.1736,0,0,1,1.5762-22.56c3.3627-24.2928,2.8443-99.9024-1.5409-224.7257l281.8121-50.7182,14.8445-1.14a739.1757,739.1757,0,0,0-8.7357,127.3087c.2724,13.3514.8747,23.7158,1.4068,32.86.9367,16.097,1.7451,29.9987.5211,54.0725-.9405,18.5038-2.5092,31.6892-4.0267,44.44-1.5814,13.2955-3.2174,27.0439-4.052,46.4676A552.6582,552.6582,0,0,0,643.3025,670.08Z"/><path d="M750.0408,580.9484a48.1208,48.1208,0,0,1-21.3945-10.8154,44.9241,44.9241,0,0,1-6.2149-6.9775c-6.1855-8.32-8.9048-15.3008-11.5346-22.0513-1.0977-2.8179-2.1343-5.479-3.3941-8.1421a78.9613,78.9613,0,0,0-17.1294-22.3462c-9.2456-8.1885-21.1523-13.8628-35.3891-16.8652l1.0322-4.8926c15.0947,3.1836,27.7695,9.2446,37.6724,18.0146a82.9627,82.9627,0,0,1,18.3344,23.9517c1.334,2.8218,2.4019,5.563,3.5327,8.4648,2.5093,6.4424,5.1045,13.1036,10.8882,20.8838a40.22,40.22,0,0,0,5.544,6.2412,43.1813,43.1813,0,0,0,19.206,9.669Z"/><path class="cls-2" d="M756.8347,572.5726a49.8855,49.8855,0,0,1,9.7608-7.26c5.8726-3.2928,12.3979-6.9516,15.2432-4.6388,1.99,1.6181,3.0207,9.8322,2.38,7.34h0a54.0739,54.0739,0,0,1-6.953,3.8318c-4.7185,2.0134-8.6035,1.7824-8.5843,2.0976.027.4457,7.7075-.4348,16.34,2.4059,2.44.8029,4.83,1.8618,6.4719,4.2078,1.4179,2.0264,2.4186,5.2159,1.2437,6.3993-.8763.8826-2.3677.05-7.2072-.9811-3.104-.6614-1.9289-.1992-9.1327-1.4248-5.5877-.9506-8.4006-1.5869-8.4908-1.2768-.1991.6843,13.8552,2.5668,18.2791,11.6822.4073.8392,2.0519,4.228.6019,6.2515-1.37,1.9114-4.8649,1.7169-7.0066,1.1026-2.8184-.8083-3.5991-2.4315-7.4614-5.7941-3.9653-3.4523-7.2239-6.2893-8.8921-5.4445-2.57,1.3013,1.5,9.889-2.2994,13.0543-2.0655,1.7208-5.9457,1.413-7.3543-.3359-.9452-1.1735-.2946-2.3966.187-6.7489.4632-4.1866.8552-7.73-.0673-11.5619-.9083-3.7725-2.2231-4.2214-1.8856-6.5472C752.252,577.2493,753.1869,575.7829,756.8347,572.5726Z"/><path d="M757.615,607.7717q-.4642,0-.9365-.0469a7.0793,7.0793,0,0,1-4.8516-2.3662c-1.3623-1.6914-1.0952-3.4248-.7568-5.6192.1211-.7841.27-1.7509.4058-2.9736.4511-4.0752.8076-7.2949-.0132-10.7021a14.251,14.251,0,0,0-1.0845-2.9991,7.0589,7.0589,0,0,1-.8442-4.4912c.3647-2.52,1.7378-4.4345,5.6489-7.8779h0l1.6514,1.877-1.648-1.88a52.4625,52.4625,0,0,1,10.186-7.5606c6.8238-3.8261,13.8794-7.7822,18.043-4.3974,2.3867,1.9384,3.9248,9.0654,3.312,10.64l-.6606,1.6983-1.8316-.0958-.0283-.0019c-.8022.49-1.8838,1.1289-3.0566,1.7568a43.6464,43.6464,0,0,1,4.6523,1.2432c2.6572.875,5.6543,2.17,7.7388,5.1484,1.7441,2.4932,3.4414,7.1045.9692,9.5948-1.6225,1.6337-3.6133,1.1318-6.1343.498-.8877-.2246-1.9877-.5019-3.3676-.7959-.4287-.0918-.7647-.1592-1.0513-.2119a17.5205,17.5205,0,0,1,4.4771,5.6562c1.7929,3.6934,1.9223,6.6534.3847,8.7989-2.124,2.9638-6.5683,2.9541-9.728,2.05-2.5479-.7305-3.853-1.9981-5.66-3.752-.7539-.7324-1.6089-1.5625-2.7539-2.5595a55.4026,55.4026,0,0,0-5.6616-4.5489c.02.6328.0879,1.3975.1406,1.99.2842,3.2148.6743,7.6181-2.4287,10.2031A7.98,7.98,0,0,1,757.615,607.7717Zm-1.8261-5.4834a2.72,2.72,0,0,0,1.3833.4609,3.3664,3.3664,0,0,0,2.3554-.5439c1.0923-.91.8462-3.6895.6489-5.9219-.2529-2.8565-.54-6.0957,2.1221-7.4424,3.167-1.6074,6.5469,1.3359,11.6626,5.7891,1.2476,1.0859,2.1939,2.0049,2.9541,2.7441,1.6807,1.6318,2.273,2.165,3.5542,2.5322,2.0825.5987,3.9585.3028,4.2857-.1552.0058-.0088.5678-.8477-.8184-3.7032-2.9019-5.9785-11.2573-8.5283-14.8252-9.6162-1.8325-.5595-4.3423-1.3252-3.6055-3.8564.6929-2.3819,2.4663-2.0635,7.2115-1.211,1.1406.2051,2.5063.4512,4.0991.7217,3.7412.6367,5.187.8106,6.1435.9258a28.0343,28.0343,0,0,1,3.0909.5176c1.4619.3115,2.6186.6035,3.5483.8379.35.0879.7183.1806,1.0518.26a8.0869,8.0869,0,0,0-1.2061-2.6367c-1.1719-1.6748-2.9282-2.5166-5.2046-3.2656a47.4112,47.4112,0,0,0-13.8105-2.1055c-1.729-.0449-4.0977-.1064-4.2437-2.5254-.1484-2.4609,2.4263-2.76,3.2725-2.8584a23.5855,23.5855,0,0,0,6.8257-1.6894,45.4666,45.4666,0,0,0,5.353-2.8613,12.7992,12.7992,0,0,0-1.42-4.11c-1.4834-1.206-8.8555,2.9326-12.3985,4.919a47.2713,47.2713,0,0,0-9.3286,6.9531l-1.6552-1.874,1.6518,1.8769c-3.4961,3.0772-3.8892,4.0459-4.0044,4.8408-.08.55-.0254.6934.4248,1.6563a19.028,19.028,0,0,1,1.417,3.9472c1.0254,4.2579.6065,8.0411.1216,12.4229-.146,1.3184-.3057,2.3535-.4336,3.1855A17.0008,17.0008,0,0,0,755.7889,602.2883Z"/><path d="M243.719,614.29l-.8134-4.9336c9.2607-1.5263,17.2192-4.705,23.6552-9.4463a45.6269,45.6269,0,0,0,6.9932-6.4716c7.3325-8.0977,10.793-15.1592,14.14-21.9883,1.5049-3.07,2.9263-5.9717,4.6685-8.9424a90.9456,90.9456,0,0,1,23.0742-24.7637c12.1992-8.8569,27.5308-14.6426,45.5684-17.1958l.7011,4.95c-17.2211,2.438-31.8,7.9195-43.332,16.2915a87.1283,87.1283,0,0,0-21.6992,23.2481c-1.647,2.8086-3.0288,5.6279-4.4912,8.6133-3.499,7.14-7.1172,14.5224-14.9229,23.1425a50.3077,50.3077,0,0,1-7.7343,7.1416C262.449,609.15,253.7659,612.634,243.719,614.29Z"/><path class="cls-2" d="M239.7037,605.8611a59.227,59.227,0,0,0-11.22-8.4161c-6.81-3.9007-14.3762-8.2351-17.8909-5.8988-2.4589,1.6344-4.1382,10.4572-3.2385,7.8h0a66.3317,66.3317,0,0,0,8.0661,4.5462c5.5062,2.45,10.1439,2.4255,10.1038,2.7653-.0568.48-9.1517-.9165-19.5849,1.6555-2.9488.7269-5.8532,1.7336-7.9367,4.1754-1.8,2.1092-3.167,5.5-1.8335,6.848.9945,1.0051,2.816.1911,8.6341-.6437,3.7318-.5354,2.3073-.1037,10.9508-1.0118,6.7046-.7044,10.0883-1.23,10.1786-.8891.1993.7515-16.6358,1.9734-22.4049,11.5743-.5312.8839-2.6759,4.4532-1.0613,6.7252,1.5252,2.1463,5.6969,2.1384,8.28,1.5982,3.4-.711,4.4187-2.421,9.2021-5.8336,4.911-3.5035,8.9467-6.3826,10.8861-5.3726,2.9876,1.556-2.3306,10.6068,2.0176,14.25,2.3641,1.9805,7,1.8723,8.7736.0627,1.19-1.2143.4829-2.5745.15-7.3089-.3207-4.554-.592-8.4084.7175-12.4987,1.2893-4.0268,2.8793-4.4362,2.6058-6.9707C244.9014,611.1838,243.8693,609.5439,239.7037,605.8611Z"/><path d="M237.4353,643.6789a9.78,9.78,0,0,1-6.1879-2.03c-3.4742-2.91-2.7691-7.6386-2.2544-11.0918a26.6134,26.6134,0,0,0,.309-2.6592c-1.7021.5713-5.2275,3.086-7.8925,4.9874-1.4346,1.0234-2.502,1.875-3.4439,2.6259-2.1929,1.7491-3.7773,3.0127-6.707,3.626-3.6089.7549-8.6094.5273-10.83-2.5977-1.1694-1.6445-1.9526-4.621.9565-9.4609a19.5929,19.5929,0,0,1,6.1778-6.19c-.625.0459-1.2325.1113-2.4048.2793-1.6611.2383-3.001.4775-4.0772.6689-3.0483.544-5.062.9033-6.69-.7422-2.7647-2.7939-.4922-7.6474,1.7095-10.2285,2.5727-3.0146,6.1142-4.209,9.24-4.98a55.6421,55.6421,0,0,1,6.1675-1.1465c-1.6021-.8623-3.0918-1.7607-4.127-2.4082-.0991.0088-.1982.0088-.3056.01l-1.8345-.041-.5273-1.7813c-.4649-1.6025,1.5463-9.0937,4.4951-11.0546,4.8017-3.1924,12.791,1.3857,20.5176,5.8125a61.8135,61.8135,0,0,1,11.6337,8.7119h0c4.4184,3.9062,5.9311,6.0351,6.2251,8.76a7.0715,7.0715,0,0,1-1.2486,4.8116,14.6151,14.6151,0,0,0-1.4619,3.1914c-1.1631,3.6318-.9165,7.13-.6045,11.5595.0928,1.3194.2183,2.3828.3189,3.2383.2817,2.3916.5039,4.2813-1.1763,5.9961A8.43,8.43,0,0,1,237.4353,643.6789Zm-7.5239-20.915a4.4119,4.4119,0,0,1,2.0791.5029c2.9185,1.5195,2.4028,4.9775,1.9478,8.0273-.378,2.5362-.8067,5.4112.52,6.5225,1.418,1.1894,4.4541,1.0537,5.33.2793a15.8762,15.8762,0,0,0-.1656-1.9619c-.1064-.9073-.24-2.0362-.34-3.4717-.3359-4.7695-.6265-8.8877.83-13.4365a19.4465,19.4465,0,0,1,1.8994-4.1768c.5923-1.02.6655-1.1728.602-1.7637-.0917-.8476-.5195-1.9736-4.5659-5.5507h-.0005a57.1161,57.1161,0,0,0-10.8061-8.1192c-4.8755-2.7929-13.0357-7.4687-15.2647-5.9873-.61.49-1.4643,2.7012-1.9677,4.4483a57.3813,57.3813,0,0,0,6.4277,3.5312,31.1661,31.1661,0,0,0,8.2153,2.2754c1.0933.1689,3.6534.5654,3.3545,3.07-.2837,2.4014-2.5415,2.3428-4.7148,2.29a62.5737,62.5737,0,0,0-16.7544,1.497c-2.8555.7041-5.0767,1.5469-6.6328,3.3711a8.2641,8.2641,0,0,0-1.6953,3.1338c.5439-.0723,1.2763-.2031,1.9941-.3311,1.1138-.1982,2.5-.4462,4.2451-.6962a35.7923,35.7923,0,0,1,3.6465-.375c1.1524-.07,2.894-.1748,7.398-.6485,1.9165-.2011,3.56-.3877,4.9321-.5439,1.7685-.2,3.0459-.3457,3.9609-.416,1.0991-.084,3.3853-.2627,3.9634,1.917l.2725,1.0273-.5591.9551c-.6529,1.0761-1.5435,1.2773-3.9243,1.8135-4.3726.9843-14.6128,3.291-18.4673,9.706-1.813,3.0166-1.1944,3.9512-1.167,3.9893.5254.7373,3.0864,1.1523,5.7309.6,1.7652-.3692,2.5987-1.0342,4.6128-2.6407.9419-.7509,2.1138-1.6855,3.649-2.7812C223.4119,625.3146,226.989,622.7639,229.9114,622.7639Z"/><path d="M459.7268,904.2072l-5-.0351c.2857-40.9454,4.1626-65.71,11.8516-75.71l.1973-.2539c1.2871-1.65,5.2041-6.6738,5.2138-13.2432a20.8108,20.8108,0,0,0-4.0112-11.6591l-.1523-.2237c-6.8091-10.0674-8.4058-35.1494-4.8819-76.68l4.9824.4219c-3.3759,39.7861-2.0166,64.5,4.0411,73.457l.1352.1973a25.6027,25.6027,0,0,1,4.8867,14.4941c-.0122,8.2832-4.7226,14.3252-6.2705,16.31l-.1772.2285C463.6394,840.4865,460.0008,864.9455,459.7268,904.2072Z"/><path d="M498.1893,919.5927c-.5619,1.8816-4.005,2.1514-7.0127,2.3871-8.7049.6821-13.4392-2.6207-19.8957-4.7168-14.2676-4.6322-21.8592,1.5259-23.754-3.59-1.7548-4.7384,3.0415-14.6523,9.1834-17.7913,2.7981-1.43,5.9577-1.496,17.9665,5.28C483.6361,906.217,499.5089,915.1735,498.1893,919.5927Z"/><path d="M488.8924,924.5705c-5.7408,0-9.8618-1.6445-13.8638-3.2422-1.4551-.58-2.96-1.1807-4.5195-1.6875a37.1642,37.1642,0,0,0-15.8208-1.4766c-3.8951.3194-7.9224.6524-9.5054-3.623-2.2666-6.1191,3.2681-17.2461,10.3892-20.8857,3.8735-1.9805,7.9028-1.6856,20.3335,5.3281,17.6245,9.9463,26.2773,15.9726,24.6792,21.3242v.001c-1.0528,3.5244-5.5777,3.8789-9.2134,4.1631C490.5115,924.5392,489.6863,924.5705,488.8924,924.5705Zm-29.2559-11.66a39.5337,39.5337,0,0,1,12.4165,1.9747c1.7163.5576,3.2988,1.1894,4.8291,1.8,4.3911,1.7519,8.1807,3.2666,14.0991,2.8027a20.3112,20.3112,0,0,0,4.7037-.7217c-.9087-2.4238-8.3794-7.6074-22.23-15.4238-12.2857-6.9326-14.2051-5.95-15.608-5.2344-5.4829,2.8027-9.1323,11.5742-7.976,14.6973.2011.5429.5888.6924,4.4067.376C455.7791,913.0578,457.5706,912.91,459.6365,912.91Z"/><path d="M586.3264,895.3653c-.5125,1.8959-3.9474,2.2564-6.9479,2.5714-8.6841.9117-13.503-2.265-20.012-4.19-14.3837-4.2539-21.8118,2.1024-23.84-2.9619-1.878-4.6905,2.6579-14.7275,8.7157-18.0276,2.76-1.5034,5.9166-1.6528,18.0982,4.804C571.429,882.3785,587.53,890.9128,586.3264,895.3653Z"/><path d="M576.3831,900.5978c-5.3423,0-9.3076-1.4638-13.1646-2.8867-1.4692-.542-2.9892-1.1025-4.5615-1.5674a37.1668,37.1668,0,0,0-15.8535-1.0586c-3.8857.4249-7.9028.86-9.5972-3.372-2.4262-6.0567,2.816-17.3252,9.84-21.1514,3.8183-2.08,7.8549-1.8916,20.4648,4.79,17.876,9.4756,26.686,15.2735,25.2285,20.6661h0c-.96,3.55-5.4712,4.0234-9.0962,4.4052A31.1551,31.1551,0,0,1,576.3831,900.5978Zm-27.6577-10.91a39.5193,39.5193,0,0,1,11.35,1.6611c1.73.5117,3.3281,1.1016,4.874,1.6719,4.436,1.6367,8.2666,3.05,14.168,2.43a20.2593,20.2593,0,0,0,4.6836-.8467c-.9732-2.3994-8.5791-7.3857-22.6314-14.834-12.4575-6.6035-14.3491-5.5683-15.7314-4.8174-5.4092,2.9463-8.8282,11.8116-7.59,14.9024.2144.5361.6031.6748,4.4141.26A57.2529,57.2529,0,0,1,548.7254,889.6877Z"/><path class="cls-2" d="M468.8249,509.6q-.6888-.024-1.3806-.1023c-6.606-.7505-12.4572-5.1766-16.4751-12.4605-4.171-7.5614-5.85-17.22-4.7289-27.1949,2.1972-19.5381,14.5369-34.4718,28.0932-33.9981q.6888.0241,1.3806.1023c6.606.75,12.4566,5.1766,16.475,12.46,4.171,7.5624,5.85,17.2208,4.7284,27.1959C494.7208,495.14,482.3811,510.0732,468.8249,509.6Z"/><path d="M474.4222,433.3318l-.1736,5.0241h0c.3927.0138.7911.0434,1.1842.0881,5.78.657,10.9545,4.6281,14.5694,11.1818,3.921,7.1086,5.4946,16.2335,4.4309,25.6937-2.017,17.9382-13.466,32.1893-25.5217,31.7681-.3945-.0138-.7938-.0435-1.1869-.0881-5.78-.6571-10.9545-4.6282-14.5694-11.1819-3.921-7.1085-5.4946-16.2334-4.4308-25.6937,2.0167-17.9366,13.466-32.1877,25.5224-31.768l.1751-5.0241m-.0022,0c-14.7646-.5139-28.3086,15.2816-30.6637,36.2275-2.4388,21.69,8.0408,40.689,23.4069,42.4356.5271.06,1.05.0986,1.5749.1169,14.7647.5159,28.3086-15.2816,30.6637-36.2275,2.4388-21.69-8.0408-40.689-23.4069-42.4356-.5271-.06-1.05-.0986-1.5749-.1169Z"/><path d="M448.7188,516.0045a44.7237,44.7237,0,0,0,30.3828,6.0275c1.9064-.29,1.2047-3.2243-.6966-2.9346a41.3307,41.3307,0,0,1-28.083-5.643c-1.6552-1.0028-3.2589,1.5469-1.6032,2.55Z"/><path d="M580.71,491.9479a41.1,41.1,0,0,1-32.2834,14.8672c-1.928-.0274-2.0388,2.987-.1042,3.0145a43.9211,43.9211,0,0,0,34.434-15.6761c1.2336-1.4661-.8-3.6872-2.0464-2.2056Z"/><ellipse cx="476.5515" cy="482.2007" rx="14.0752" ry="10.5007" transform="translate(-55.2386 902.6982) rotate(-83.6718)"/><path d="M475.8885,496.7394a8.4489,8.4489,0,0,1-.9663-.0551c-6.0269-.6846-10.1993-7.7393-9.3013-15.7251a16.429,16.429,0,0,1,5.6474-11.0757,9.2892,9.2892,0,0,1,6.9126-2.1665c6.0264.685,10.1993,7.74,9.3013,15.7256a16.4318,16.4318,0,0,1-5.6479,11.0761A9.5043,9.5043,0,0,1,475.8885,496.7394Zm1.3315-28.0771a8.5306,8.5306,0,0,0-5.3286,2.0029,15.6454,15.6454,0,0,0-5.2764,10.4053c-.8369,7.439,2.94,13.9976,8.42,14.6206a8.33,8.33,0,0,0,6.1758-1.9546,15.6435,15.6435,0,0,0,5.2769-10.4053l.497.0557-.497-.0557c.8364-7.4389-2.9409-13.9975-8.42-14.6211A7.6,7.6,0,0,0,477.22,468.6623Z"/><path d="M517.8788,502.9277c.2312,7.1462,5.2705,13.25,6.8929,20.16.8763,3.7321,2.0514,8.4563.76,12.1819-1.1711,3.3794-4.9447,5.54-6.9785,8.3773-1.1319,1.5793,1.4118,3.1808,2.5362,1.612,2.0075-2.8011,5.2193-4.5973,6.7513-7.7492,1.2134-2.4962,1.1864-5.2394.9832-7.9516a47.5987,47.5987,0,0,0-2.686-12.39c-1.66-4.6526-5.0982-9.0976-5.2612-14.1353-.0624-1.93-3.0611-2.0491-2.9982-.1048Z"/><path d="M559.7713,388.5012a54.8084,54.8084,0,0,1,31.1635,17.6029c1.29,1.4493,3.4819-.61,2.1937-2.0575a57.4025,57.4025,0,0,0-32.46-18.4244c-1.8776-.3533-2.7919,2.5225-.8975,2.879Z"/><path d="M466.4946,399.4932a57.5188,57.5188,0,0,0-28.0288,24.6992c-.9643,1.6807,1.57,3.2959,2.5362,1.612a54.9043,54.9043,0,0,1,26.9159-23.6554c1.7826-.7377.35-3.39-1.4233-2.6558Z"/><path class="cls-2" d="M550.7975,497.4182c-14.0342-.8656-24.4413-18.1414-23.1988-38.51,1.22-19.9987,13.4373-35.8759,27.2336-35.3938.1567.0054.3157.013.4727.0224,14.0342.8656,24.4408,18.1414,23.1983,38.5107-1.22,19.9987-13.4353,35.875-27.23,35.393C551.2721,497.4407,550.9545,497.4277,550.7975,497.4182Z"/><path d="M554.7453,426.0268c.1345.0047.2714.0113.4065.02,5.8062.3581,11.1761,4.0572,15.1206,10.4159,4.2784,6.897,6.3154,15.9287,5.7356,25.4313-1.1378,18.6509-12.1962,33.47-24.651,33.0352-.1346-.0047-.2714-.0113-.4064-.02-5.8063-.3582-11.1762-4.0572-15.1207-10.4159-4.2784-6.897-6.3153-15.9287-5.7356-25.4314,1.1379-18.6508,12.1963-33.47,24.651-33.0351m.1736-5.0242c-15.2123-.5315-28.5014,16.217-29.8152,37.7515-1.3292,21.7872,10.1058,40.2209,25.5407,41.1728.179.011.3605.02.539.026,15.2123.5316,28.5014-16.217,29.8152-37.7515,1.3292-21.7871-10.1057-40.2208-25.5407-41.1727-.179-.0111-.3605-.02-.539-.0261Z"/><ellipse cx="558.3015" cy="469.7399" rx="14.0759" ry="10.5002" transform="translate(55.875 998.8182) rotate(-86.5564)"/><path d="M557.94,484.3049q-.2629,0-.5263-.0161c-6.0537-.3731-10.5806-7.2037-10.0913-15.2256h0a17.1862,17.1862,0,0,1,3.7929-10.0381,9.8008,9.8008,0,0,1,8.0742-3.834c6.0538.3731,10.5811,7.2036,10.0918,15.2256a17.1862,17.1862,0,0,1-3.7929,10.0381A9.9337,9.9337,0,0,1,557.94,484.3049Zm-9.62-15.1812c-.4556,7.4722,3.6514,13.8277,9.1548,14.167a8.8464,8.8464,0,0,0,7.2495-3.4819,16.1838,16.1838,0,0,0,3.5586-9.4527c.4556-7.4721-3.6514-13.8276-9.1553-14.1669a8.8232,8.8232,0,0,0-7.249,3.4819,16.1848,16.1848,0,0,0-3.5586,9.4526Z"/><path d="M547.5081,883.1291l-5-.0352c.2851-40.9443,4.1616-65.7089,11.8511-75.7089l.1967-.254c1.2872-1.65,5.2051-6.6738,5.2149-13.2441a20.8079,20.8079,0,0,0-4.0122-11.66l-.1514-.2216c-6.8091-10.0684-8.4057-35.15-4.8823-76.6807l4.9824.4219c-3.3755,39.7861-2.0161,64.5,4.041,73.457l.1338.1953a25.5988,25.5988,0,0,1,4.8887,14.4961c-.0122,8.2852-4.7241,14.3262-6.272,16.3115l-.1763.2266C551.42,819.4094,547.7815,843.8684,547.5081,883.1291Z"/><path d="M424.0316,626.1507l-7.8425-42.8986,2.69-.4972,10.086,20.5728c2.3357,4.7666,4.2665,9.0813,5.9762,13.3054l.0446-.0734c-1.2736-5.6871-2.2846-10.895-3.5064-17.5787l-3.2812-17.9483,2.3233-.4294,7.8424,42.8986-2.4926.4607L425.83,603.3153c-2.2037-4.5281-4.3744-9.1927-6.1869-13.6616l-.0738.08c1.1306,5.3835,2.13,10.5283,3.4334,17.6574l3.351,18.3306Z"/><path d="M442.3452,623.0291l.7328-5.9255c-2.2848-3.526-4.2547-9.0172-5.4184-15.3826-2.4783-13.5566-.2722-23.1107,4.7139-24.0322,1.7559-.3245,3.6081.5179,5.3749,2.4946l.7287-5.4643,1.9208,2.0134-.7561,5.7983c2.2964,3.5891,4.1988,9.0286,5.3506,15.329,2.7345,14.9577.0115,23.2913-4.5488,24.1341-1.8129.335-3.7054-.5661-5.473-2.5426l-.7835,5.8044Zm4.93-38.5472c-1.3-1.6676-2.6992-2.5938-4.1156-2.332-4.1639.7695-4.6776,9.8132-3.0371,18.7869a44.5166,44.5166,0,0,0,3.5218,11.2592l.0168-.0693Zm-1.8306,30.6707c1.2953,1.8009,2.5978,2.6787,4.1274,2.396,3.9937-.738,4.7028-9.3575,2.9342-19.0317a43.4539,43.4539,0,0,0-3.368-10.8924l-.0847.0156Z"/><path d="M476.3635,614.5053a9.9812,9.9812,0,0,1-5.4331,3.4387c-2.8891.5339-5.571-.6808-8.1732-4.3458-2.2951-3.26-4.3614-8.8-5.5833-15.4835-2.311-12.7981-.1124-22.8765,6.29-24.06a6.771,6.771,0,0,1,5.1187,1.0933l.2319,4.6287a5.7644,5.7644,0,0,0-4.5583-1.0655c-4.6458.8586-6.49,7.9112-4.5232,18.6674,1.99,10.8833,6.0824,16.7726,10.5295,15.9507a4.4159,4.4159,0,0,0,3.077-1.7523l-2.3388-12.7939-3.8815.7173-.8144-4.4548,6.2886-1.1622Z"/><path d="M486.6872,593.7789l-7.4217,1.3716,2.8276,15.4671,8.2716-1.5286.8493,4.646-10.7357,1.984L472.6359,572.82l10.3107-1.9055.8494,4.646-7.8466,1.45,2.4785,13.5575,7.4216-1.3716Z"/><path d="M494.4123,613.1439,486.57,570.2453l2.69-.4972,10.0861,20.5728c2.3357,4.7665,4.2665,9.0813,5.9762,13.3054l.0446-.0735c-1.2736-5.687-2.2846-10.895-3.5065-17.5786L498.58,568.0258l2.3233-.4293,7.8424,42.8986-2.4926.4606L496.211,590.3085c-2.2037-4.5281-4.3743-9.1927-6.1868-13.6617l-.0738.08c1.1306,5.3834,2.13,10.5283,3.4333,17.6574l3.3511,18.3306Z"/><path d="M505.3105,567.3738a11.46,11.46,0,0,1,4.3405-1.7231,5.4869,5.4869,0,0,1,5.811,2.15c1.2939,1.4712,2.3536,3.9075,2.97,7.2813.7562,4.1366.2017,7.99-1.5074,10.0159l.0234.1281c1.999.6829,4.74,3.6641,5.904,10.0285a20.8471,20.8471,0,0,1-.0435,8.8907,6.829,6.829,0,0,1-5.8672,5.23,13.4122,13.4122,0,0,1-3.9167.1972Zm5.6756,17.1116,2.2378-.4136c2.6058-.4816,3.577-3.8189,2.8206-7.9564-.9193-5.0283-2.98-6.6869-5.4722-6.2262a5.0551,5.0551,0,0,0-2.1112.7844Zm3.7584,20.5585a6.1118,6.1118,0,0,0,2.1141-.1279c2.55-.4712,4.5167-3.0055,3.3763-9.2438-1.07-5.855-3.75-7.8605-6.4417-7.3631l-2.0392.3769Z"/><path d="M523.02,563.509l7.8424,42.8986-2.4641.4554-7.8424-42.8986Z"/><path d="M527.3251,562.7135l2.4641-.4554,6.9931,38.2526,8.1576-1.5075.8493,4.6459-10.6217,1.963Z"/><path d="M540.6925,560.2431l2.4641-.4554L550.15,598.04l8.1576-1.5075.8493,4.646-10.6217,1.9629Z"/><path d="M568.1112,578.7312l-7.4217,1.3716,2.8276,15.4672,8.2716-1.5287.8493,4.646-10.7356,1.984L554.06,557.7727l10.3107-1.9055.8493,4.646-7.8466,1.45,2.4785,13.5575,7.4217-1.3715Z"/><path d="M568.0986,555.77a16.6529,16.6529,0,0,1,5.0772-1.8592c3.5411-.6544,6.4.7253,8.7109,3.9174,2.3387,3.1861,4.238,7.968,5.5061,14.905,1.28,7.0019,1.3642,12.9078.3012,17.1839-1.0514,4.3392-3.6017,7.0485-7.3129,7.7344a18.3415,18.3415,0,0,1-4.568.3175Zm9.399,37.479a7.2433,7.2433,0,0,0,2.5508-.1424c5.2685-.9736,6.92-8.1221,4.8021-19.706-1.8215-10.1249-5.5463-16.0822-10.7587-15.1189a6.7478,6.7478,0,0,0-2.7844,1.1064Z"/><path d="M600.9075,572.67l-7.4217,1.3715,2.8276,15.4672,8.2716-1.5286.8493,4.6459L594.6986,594.61l-7.8424-42.8987,10.3107-1.9055.8494,4.646-7.8466,1.45,2.4785,13.5576,7.4216-1.3716Z"/><path d="M600.8949,549.7091a12.2563,12.2563,0,0,1,4.5676-1.765,5.67,5.67,0,0,1,6.1633,2.48,19.3421,19.3421,0,0,1,2.99,7.87c1.0354,5.6639.1361,9.7122-1.596,11.6122l.0348.19c1.6829.8736,3.119,3.767,4.3869,8.1381,1.7165,5.868,2.9263,9.9217,3.6252,11.5029l-2.5488.471c-.5328-1.1514-1.6327-4.765-3.1482-10.0121-1.6486-5.8144-3.0759-7.8538-5.3485-7.63l-2.3225.4292,3.3975,18.5849-2.4641.4554Zm6.0362,19.0844,2.5211-.466c2.6343-.4868,3.7121-4.0414,2.8161-8.9426-1.0121-5.5368-3.2388-7.626-5.8569-7.2074a4.9579,4.9579,0,0,0-2.3427.9586Z"/><path class="cls-5" d="M142.88,68.9753H186.3a4.7468,4.7468,0,0,1,3.4424,1.2,3.8462,3.8462,0,0,1,1.2392,2.8613,3.6008,3.6008,0,0,1-1.2392,2.7227,4.7188,4.7188,0,0,1-3.3506,1.1538H172.4388v92.2036H214.39a5.6691,5.6691,0,0,0,2.6621-.8306,3.4129,3.4129,0,0,0,1.1016-2.5844l3.1211-25.4737a4.3671,4.3671,0,0,1,1.56-2.9536,4.7434,4.7434,0,0,1,3.0293-1.0151,4.8655,4.8655,0,0,1,3.3047,1.2,4.1774,4.1774,0,0,1,1.377,3.3227v.5537l-2.7539,29.6275a7.4556,7.4556,0,0,1-2.0655,4.3838,6.1227,6.1227,0,0,1-4.5439,1.7075H139.0247a4.8532,4.8532,0,0,1-3.4424-1.1538,3.7,3.7,0,0,1-1.2392-2.815,3.7494,3.7494,0,0,1,1.2392-2.769,4.6152,4.6152,0,0,1,3.3506-1.2h24.6934V76.9128H142.7884a4.5485,4.5485,0,0,1-3.3047-1.1538,3.6608,3.6608,0,0,1-1.1934-2.7227A3.8459,3.8459,0,0,1,139.53,70.175,4.6151,4.6151,0,0,1,142.88,68.9753Z"/><path class="cls-6" d="M318.2122,105.1555V136.72a5.3175,5.3175,0,0,1-1.01,3.5073,3.1229,3.1229,0,0,1-2.4785,1.2,3.4833,3.4833,0,0,1-2.4785-1.061,4.1439,4.1439,0,0,1-1.1934-2.9077l-1.1933-13.66H279.9329v45.41H336.388l1.4687-23.1665a3.5294,3.5294,0,0,1,1.2852-2.584,4.123,4.123,0,0,1,2.7539-1.0151,3.5689,3.5689,0,0,1,2.708,1.2456,5.0623,5.0623,0,0,1,1.1475,3.5537v24.92a4.6164,4.6164,0,0,1-1.4229,3.6,5.3163,5.3163,0,0,1-3.7178,1.292H255.6067a4.74,4.74,0,0,1-3.4424-1.2,3.7452,3.7452,0,0,1-1.2392-2.7691,3.6051,3.6051,0,0,1,1.2392-2.7226,4.7226,4.7226,0,0,1,3.3506-1.1538H271.12V76.9128H258.7278a4.3883,4.3883,0,0,1-3.2588-1.1538,3.7268,3.7268,0,0,1-1.1474-2.7227,3.8462,3.8462,0,0,1,1.2392-2.8613,4.6152,4.6152,0,0,1,3.3506-1.2h80.5977a5.2122,5.2122,0,0,1,3.7177,1.3384,4.7665,4.7665,0,0,1,1.4229,3.6455v24.92a3.9691,3.9691,0,0,1-1.1016,3,3.5886,3.5886,0,0,1-2.57,1.0615,4.0563,4.0563,0,0,1-2.6162-.9228,3.3776,3.3776,0,0,1-1.2392-2.5845l-1.2852-22.52H279.9329v39.7793h29.9258l1.1933-12.2754a4.9387,4.9387,0,0,1,1.2393-3.0454,3.2671,3.2671,0,0,1,2.4326-1.1079,3.0827,3.0827,0,0,1,2.4785,1.2461A5.6829,5.6829,0,0,1,318.2122,105.1555Z"/><path class="cls-6" d="M431.1224,68.9753h27.9062a4.69,4.69,0,0,1,3.3965,1.1538,3.7712,3.7712,0,0,1,1.1933,2.8149,3.8139,3.8139,0,0,1-1.1933,2.7686,4.45,4.45,0,0,1-3.3047,1.2h-7.8945l-29.0078,98.2954a14.1467,14.1467,0,0,1-2.4327,4.0146,4.6654,4.6654,0,0,1-3.4423,1.1539,5.0474,5.0474,0,0,1-3.6719-1.3384,9.347,9.347,0,0,1-2.2031-3.83L379.0735,76.9128h-9.5469a4.3881,4.3881,0,0,1-3.2587-1.1538,3.7266,3.7266,0,0,1-1.1475-2.7227A3.8459,3.8459,0,0,1,366.36,70.175a4.6148,4.6148,0,0,1,3.3505-1.2h31.211a4.69,4.69,0,0,1,3.3965,1.1538,3.7712,3.7712,0,0,1,1.1933,2.8149,3.8139,3.8139,0,0,1-1.1933,2.7686,4.45,4.45,0,0,1-3.3047,1.2H388.9876l27.8144,89.1577,25.2442-89.1577H431.0306a4.607,4.607,0,0,1-3.3506-1.2,3.7431,3.7431,0,0,1-1.2393-2.7686,3.7009,3.7009,0,0,1,1.2393-2.8149A4.8576,4.8576,0,0,1,431.1224,68.9753Z"/><path class="cls-6" d="M545.8684,105.1555V136.72a5.318,5.318,0,0,1-1.01,3.5073,3.1229,3.1229,0,0,1-2.4785,1.2,3.4835,3.4835,0,0,1-2.4786-1.061,4.1438,4.1438,0,0,1-1.1933-2.9077l-1.1934-13.66H507.5891v45.41h56.4551l1.4688-23.1665a3.5289,3.5289,0,0,1,1.2851-2.584,4.1232,4.1232,0,0,1,2.7539-1.0151,3.5687,3.5687,0,0,1,2.708,1.2456,5.0618,5.0618,0,0,1,1.1475,3.5537v24.92a4.6164,4.6164,0,0,1-1.4228,3.6,5.3165,5.3165,0,0,1-3.7178,1.292H483.263a4.74,4.74,0,0,1-3.4424-1.2,3.745,3.745,0,0,1-1.2393-2.7691,3.6049,3.6049,0,0,1,1.2393-2.7226,4.7226,4.7226,0,0,1,3.3506-1.1538h15.6054V76.9128H486.3841a4.3882,4.3882,0,0,1-3.2588-1.1538,3.7269,3.7269,0,0,1-1.1475-2.7227,3.8459,3.8459,0,0,1,1.2393-2.8613,4.6151,4.6151,0,0,1,3.3506-1.2h80.5976a5.2124,5.2124,0,0,1,3.7178,1.3384,4.7668,4.7668,0,0,1,1.4228,3.6455v24.92a3.969,3.969,0,0,1-1.1015,3,3.5887,3.5887,0,0,1-2.57,1.0615,4.0561,4.0561,0,0,1-2.6162-.9228,3.3777,3.3777,0,0,1-1.2393-2.5845l-1.2852-22.52H507.5891v39.7793h29.9258l1.1934-12.2754a4.9386,4.9386,0,0,1,1.2392-3.0454,3.2675,3.2675,0,0,1,2.4327-1.1079,3.0827,3.0827,0,0,1,2.4785,1.2461A5.6835,5.6835,0,0,1,545.8684,105.1555Z"/><path class="cls-6" d="M598.1927,68.9753h43.42a4.7468,4.7468,0,0,1,3.4424,1.2,3.8462,3.8462,0,0,1,1.2392,2.8613,3.6008,3.6008,0,0,1-1.2392,2.7227,4.7188,4.7188,0,0,1-3.3506,1.1538H627.7513v92.2036h41.9511a5.6691,5.6691,0,0,0,2.6621-.8306,3.4129,3.4129,0,0,0,1.1016-2.5844l3.1211-25.4737a4.3671,4.3671,0,0,1,1.56-2.9536,4.7434,4.7434,0,0,1,3.0293-1.0151,4.8655,4.8655,0,0,1,3.3047,1.2,4.1774,4.1774,0,0,1,1.377,3.3227v.5537l-2.7539,29.6275a7.4556,7.4556,0,0,1-2.0655,4.3838,6.1227,6.1227,0,0,1-4.5439,1.7075H594.3372a4.8532,4.8532,0,0,1-3.4424-1.1538,3.7,3.7,0,0,1-1.2392-2.815,3.7494,3.7494,0,0,1,1.2392-2.769,4.6152,4.6152,0,0,1,3.3506-1.2h24.6934V76.9128H598.1009a4.5485,4.5485,0,0,1-3.3047-1.1538,3.6608,3.6608,0,0,1-1.1934-2.7227,3.8459,3.8459,0,0,1,1.2393-2.8613A4.6151,4.6151,0,0,1,598.1927,68.9753Z"/><path class="cls-5" d="M915.7181,145.3962a1.6082,1.6082,0,0,1-.0918.646,41.9356,41.9356,0,0,1-7.252,15.7368,40.4776,40.4776,0,0,1-14.6416,12.1367q-9.2256,4.7073-21.8018,4.707a46.27,46.27,0,0,1-25.3359-7.1064,48.3325,48.3325,0,0,1-17.5791-20.167q-6.3816-13.059-6.38-30.3193,0-15.6893,6.38-27.8731A46.9727,46.9727,0,0,1,846.595,74.236a48.0193,48.0193,0,0,1,25.2441-6.7378,44.791,44.791,0,0,1,13.6778,2.0767,39.419,39.419,0,0,1,11.4287,5.6763,25.188,25.188,0,0,1,7.39,8.122V73.59a4.3907,4.3907,0,0,1,1.3311-3.3686,4.5053,4.5053,0,0,1,7.665,3.4609v27.0425a4.1058,4.1058,0,0,1-1.2392,3.23,4.3247,4.3247,0,0,1-2.9834,1.1074,3.9464,3.9464,0,0,1-2.8457-1.1533,5.6849,5.6849,0,0,1-1.5606-3.1846A28.9577,28.9577,0,0,0,898.69,87.5266a31.7594,31.7594,0,0,0-11.52-8.9063,35.4223,35.4223,0,0,0-15.0547-3.1846q-12.3926,0-21.5722,5.9073a38.5815,38.5815,0,0,0-14.1367,16.4287,55.441,55.441,0,0,0-4.9571,23.9048q0,15.0445,5.5537,26.1655a41.3071,41.3071,0,0,0,14.8252,16.9829,37.0637,37.0637,0,0,0,20.1953,5.86q13.0335,0,22.0313-7.1064,8.9957-7.106,12.76-19.6592a3.5763,3.5763,0,0,1,3.6718-2.5845,5.8269,5.8269,0,0,1,3.58,1.2461A3.5312,3.5312,0,0,1,915.7181,145.3962Z"/><path class="cls-5" d="M1028.261,123.3376a68.4562,68.4562,0,0,1-5.37,27.043,48.0943,48.0943,0,0,1-16.0185,20.4433q-10.65,7.8-25.6114,7.7988-14.9634,0-25.6113-7.7988a48.0831,48.0831,0,0,1-16.0186-20.4433,68.458,68.458,0,0,1-5.37-27.043,69.4667,69.4667,0,0,1,5.37-27.1812A48.9275,48.9275,0,0,1,955.65,75.4357q10.6479-7.9365,25.6113-7.9375,14.9619,0,25.6114,7.9375a48.939,48.939,0,0,1,16.0185,20.7207A69.4649,69.4649,0,0,1,1028.261,123.3376Zm-8.8125,0a62.0168,62.0168,0,0,0-4.4062-23.397,42.001,42.001,0,0,0-13.0352-17.7212q-8.6294-6.7836-20.7461-6.7837t-20.7461,6.7837A41.9934,41.9934,0,0,0,947.48,99.9406a64.213,64.213,0,0,0-.0918,46.5171,40.7169,40.7169,0,0,0,12.9433,17.5361q8.628,6.693,20.93,6.6914,12.3,0,20.93-6.6914a40.7322,40.7322,0,0,0,12.9434-17.5361A61.9688,61.9688,0,0,0,1019.4485,123.3376Z"/><path class="cls-5" d="M1145.5774,177.0539h-32.4043a4.74,4.74,0,0,1-3.4424-1.2,3.8454,3.8454,0,0,1-1.2392-2.8613,3.6654,3.6654,0,0,1,1.1934-2.7227,4.5562,4.5562,0,0,1,3.3046-1.1538h12.209V86.4191l-23.5918,54.6392a7.5055,7.5055,0,0,1-2.57,3.2768,5.9877,5.9877,0,0,1-3.4883,1.1534,5.7139,5.7139,0,0,1-3.2129-.9688,6.294,6.294,0,0,1-2.2949-3l-24.51-54.7314v82.3281h11.0156a4.6924,4.6924,0,0,1,3.3965,1.1538,3.669,3.669,0,0,1,1.1933,2.7227,3.8454,3.8454,0,0,1-1.2392,2.8613,4.74,4.74,0,0,1-3.4424,1.2h-31.8535a4.6842,4.6842,0,0,1-3.3965-1.1538,3.7645,3.7645,0,0,1-1.1934-2.815,3.8148,3.8148,0,0,1,1.1934-2.769,4.4546,4.4546,0,0,1,3.3047-1.2h12.209V76.9128h-10.9239a4.55,4.55,0,0,1-3.3047-1.1538,3.6607,3.6607,0,0,1-1.1933-2.7227,3.8462,3.8462,0,0,1,1.2392-2.8613,4.616,4.616,0,0,1,3.3506-1.2h18.1758q2.7539,0,4.2227,3.23l27.6308,61.1923,26.6211-61.6538a4.3513,4.3513,0,0,1,4.1309-2.7685h17.625a4.7468,4.7468,0,0,1,3.4424,1.2,3.8462,3.8462,0,0,1,1.2392,2.8613,3.6008,3.6008,0,0,1-1.2392,2.7227,4.7188,4.7188,0,0,1-3.3506,1.1538H1134.011v92.2036h11.75a4.3981,4.3981,0,0,1,3.2588,1.1538,3.7371,3.7371,0,0,1,1.1475,2.7227,3.8451,3.8451,0,0,1-1.2393,2.8613A4.6112,4.6112,0,0,1,1145.5774,177.0539Z"/><path class="cls-5" d="M1200.8391,68.9753a151.021,151.021,0,0,1,25.6573,1.8,31.4041,31.4041,0,0,1,16.8447,8.3066q6.7,6.5069,6.7012,19.7974t-6.334,19.7051a28.8565,28.8565,0,0,1-15.9268,8.122,144.4125,144.4125,0,0,1-24.5556,1.7076h-10.6485v40.7026h30.2012a4.4577,4.4577,0,0,1,3.3047,1.2,3.8186,3.8186,0,0,1,1.1933,2.769,3.768,3.768,0,0,1-1.1933,2.815,4.6858,4.6858,0,0,1-3.3965,1.1538h-54.7109a4.8532,4.8532,0,0,1-3.4424-1.1538,3.7,3.7,0,0,1-1.2393-2.815,3.75,3.75,0,0,1,1.2393-2.769,4.616,4.616,0,0,1,3.3506-1.2h15.8808V76.9128h-14.5957a4.55,4.55,0,0,1-3.3047-1.1538,3.6607,3.6607,0,0,1-1.1933-2.7227,3.8462,3.8462,0,0,1,1.2392-2.8613,4.616,4.616,0,0,1,3.3506-1.2Zm5.6915,52.0547a109.7169,109.7169,0,0,0,18.3134-1.2456,20.9937,20.9937,0,0,0,11.75-6q4.6348-4.7527,4.6358-14.5367,0-10.3359-5.5537-15.229a24.9814,24.9814,0,0,0-13.2647-5.999,143.5024,143.5024,0,0,0-19.7363-1.1074h-10.0977V121.03Z"/><path class="cls-5" d="M1281.1614,68.9753h43.42a4.7466,4.7466,0,0,1,3.4424,1.2,3.8459,3.8459,0,0,1,1.2393,2.8613,3.6006,3.6006,0,0,1-1.2393,2.7227,4.7187,4.7187,0,0,1-3.3506,1.1538H1310.72v92.2036h41.9512a5.6671,5.6671,0,0,0,2.6621-.8306,3.41,3.41,0,0,0,1.1016-2.5844l3.121-25.4737a4.3692,4.3692,0,0,1,1.5606-2.9536,4.743,4.743,0,0,1,3.0293-1.0151,4.8659,4.8659,0,0,1,3.3047,1.2,4.1777,4.1777,0,0,1,1.3769,3.3227v.5537l-2.7539,29.6275a7.4561,7.4561,0,0,1-2.0654,4.3838,6.1214,6.1214,0,0,1-4.544,1.7075h-82.1582a4.8529,4.8529,0,0,1-3.4423-1.1538,3.7,3.7,0,0,1-1.2393-2.815,3.75,3.75,0,0,1,1.2393-2.769,4.6156,4.6156,0,0,1,3.3505-1.2h24.6934V76.9128H1281.07a4.55,4.55,0,0,1-3.3047-1.1538,3.6607,3.6607,0,0,1-1.1933-2.7227,3.8462,3.8462,0,0,1,1.2392-2.8613A4.616,4.616,0,0,1,1281.1614,68.9753Z"/><path class="cls-5" d="M1456.4934,105.1555V136.72a5.318,5.318,0,0,1-1.01,3.5073,3.1215,3.1215,0,0,1-2.4785,1.2,3.4835,3.4835,0,0,1-2.4786-1.061,4.146,4.146,0,0,1-1.1933-2.9077l-1.1934-13.66h-29.9258v45.41h56.4551l1.4688-23.1665a3.5307,3.5307,0,0,1,1.2851-2.584,4.125,4.125,0,0,1,2.7539-1.0151,3.568,3.568,0,0,1,2.708,1.2456,5.0618,5.0618,0,0,1,1.1475,3.5537v24.92a4.6164,4.6164,0,0,1-1.4228,3.6,5.3148,5.3148,0,0,1-3.7178,1.292H1393.888a4.74,4.74,0,0,1-3.4424-1.2,3.745,3.745,0,0,1-1.2393-2.7691,3.6049,3.6049,0,0,1,1.2393-2.7226,4.7234,4.7234,0,0,1,3.3506-1.1538h15.6054V76.9128h-12.3925a4.389,4.389,0,0,1-3.2588-1.1538,3.7289,3.7289,0,0,1-1.1475-2.7227,3.8459,3.8459,0,0,1,1.2393-2.8613,4.6159,4.6159,0,0,1,3.3506-1.2H1477.79a5.2108,5.2108,0,0,1,3.7178,1.3384,4.7668,4.7668,0,0,1,1.4228,3.6455v24.92a3.969,3.969,0,0,1-1.1015,3,3.5879,3.5879,0,0,1-2.57,1.0615,4.0561,4.0561,0,0,1-2.6162-.9228,3.3806,3.3806,0,0,1-1.2393-2.5845l-1.2852-22.52h-55.9043v39.7793H1448.14l1.1934-12.2754a4.9386,4.9386,0,0,1,1.2392-3.0454,3.2683,3.2683,0,0,1,2.4327-1.1079,3.0814,3.0814,0,0,1,2.4785,1.2461A5.6835,5.6835,0,0,1,1456.4934,105.1555Z"/><path class="cls-5" d="M1513.8665,76.9128l-1.1016,25.0122a4.3882,4.3882,0,0,1-1.1933,3.0918,3.5879,3.5879,0,0,1-2.57,1.0615,4.3611,4.3611,0,0,1-3.1211-1.3384,4.8457,4.8457,0,0,1-1.377-3.6455V73.9592a6.5014,6.5014,0,0,1,.8721-3.7842,3.4453,3.4453,0,0,1,2.9834-1.2h84.0859a3.1765,3.1765,0,0,1,2.8,1.2461,6.54,6.54,0,0,1,.8721,3.7378v27.1352a4.8216,4.8216,0,0,1-1.2393,3.5532,4.0572,4.0572,0,0,1-2.9834,1.2461,4.0164,4.0164,0,0,1-2.7539-1.0615,3.9655,3.9655,0,0,1-1.2851-2.9072l-.918-25.0122h-32.3125v92.2036h22.2148a4.56,4.56,0,0,1,3.3047,1.1538,3.6687,3.6687,0,0,1,1.1934,2.7227,3.8451,3.8451,0,0,1-1.2393,2.8613,4.74,4.74,0,0,1-3.4423,1.2h-52.875a4.9056,4.9056,0,0,1-3.4883-1.2,3.78,3.78,0,0,1-1.2852-2.8613,3.6051,3.6051,0,0,1,1.2393-2.7227,4.7237,4.7237,0,0,1,3.3506-1.1538h22.2148V76.9128Z"/><path class="cls-5" d="M1684.15,105.1555V136.72a5.3175,5.3175,0,0,1-1.01,3.5073,3.1215,3.1215,0,0,1-2.4785,1.2,3.4833,3.4833,0,0,1-2.4785-1.061,4.146,4.146,0,0,1-1.1934-2.9077l-1.1933-13.66H1645.87v45.41h56.4551l1.4687-23.1665a3.5311,3.5311,0,0,1,1.2852-2.584,4.1249,4.1249,0,0,1,2.7539-1.0151,3.5681,3.5681,0,0,1,2.708,1.2456,5.0623,5.0623,0,0,1,1.1475,3.5537v24.92a4.6164,4.6164,0,0,1-1.4229,3.6,5.3146,5.3146,0,0,1-3.7178,1.292h-85.0039a4.74,4.74,0,0,1-3.4424-1.2,3.7452,3.7452,0,0,1-1.2392-2.7691,3.6051,3.6051,0,0,1,1.2392-2.7226,4.7234,4.7234,0,0,1,3.3506-1.1538h15.6055V76.9128h-12.3926a4.3891,4.3891,0,0,1-3.2588-1.1538,3.7288,3.7288,0,0,1-1.1474-2.7227,3.8462,3.8462,0,0,1,1.2392-2.8613,4.616,4.616,0,0,1,3.3506-1.2h80.5977a5.2105,5.2105,0,0,1,3.7177,1.3384,4.7665,4.7665,0,0,1,1.4229,3.6455v24.92a3.9691,3.9691,0,0,1-1.1016,3,3.5877,3.5877,0,0,1-2.57,1.0615,4.0563,4.0563,0,0,1-2.6162-.9228,3.3808,3.3808,0,0,1-1.2392-2.5845l-1.2852-22.52H1645.87v39.7793h29.9258l1.1933-12.2754a4.9387,4.9387,0,0,1,1.2393-3.0454,3.2679,3.2679,0,0,1,2.4326-1.1079,3.0814,3.0814,0,0,1,2.4785,1.2461A5.6829,5.6829,0,0,1,1684.15,105.1555Z"/><path class="cls-5" d="M1787.4212,168.47a9.2016,9.2016,0,0,1-2.6621,6.6914,8.8725,8.8725,0,0,1-6.6094,2.7227,9.0194,9.0194,0,0,1-6.6553-2.7227,9.1173,9.1173,0,0,1-2.708-6.6914,8.8176,8.8176,0,0,1,2.708-6.5991,9.1829,9.1829,0,0,1,6.6553-2.63,9.0312,9.0312,0,0,1,6.6094,2.63A8.897,8.897,0,0,1,1787.4212,168.47Zm-9.18-100.9722a5.5547,5.5547,0,0,1,4.3144,1.7076q1.56,1.7094,1.5606,6.0454,0,7.015-.459,14.0752t-1.3769,18.2285q-.9186,11.2617-1.377,18.9668-.46,7.7073-.459,15.4594a4.4832,4.4832,0,0,1-.5508,2.5845,1.9268,1.9268,0,0,1-1.6523.7383,1.8842,1.8842,0,0,1-1.6524-.7842,4.5157,4.5157,0,0,1-.5507-2.5386q0-7.66-.459-14.8134-.46-7.1514-1.4688-19.52-.9185-10.2451-1.4228-17.7207t-.5049-14.6753q0-4.3366,1.5605-6.0454A5.7873,5.7873,0,0,1,1778.2415,67.4982Z"/></svg>
