<svg id="Layer_1" data-name="Layer 1" xmlns="http://www.w3.org/2000/svg" xmlns:xlink="http://www.w3.org/1999/xlink" viewBox="0 0 174 46"><defs><style>.cls-1{fill:#fff;}</style></defs><title>nej</title><image width="640" height="567" transform="translate(-3 -2) scale(0.2813 0.0882)" xlink:href="../../Desktop/sex%20og%20samfund/mtl_desktop_back.png"/><rect class="cls-1" x="0.1034" y="-0.913" width="173.7931" height="44.5652" rx="13.892"/><path d="M68.3823,29.2723V10.9617h2.4569l5.5846,9.2641a52.7532,52.7532,0,0,1,3.1287,5.95l.0516-.0276c-.2071-2.4446-.2587-4.6726-.2587-7.5253V10.9617h2.1205V29.2723H79.19l-5.5331-9.2912a59.1868,59.1868,0,0,1-3.258-6.1125l-.0768.0271c.1293,2.3092.1808,4.51.1808,7.5524v7.8242Z"/><path d="M86.5888,23.1327c.0526,3.2327,2.0175,4.5638,4.2925,4.5638a7.8875,7.8875,0,0,0,3.4651-.6793l.387,1.7116a9.7051,9.7051,0,0,1-4.1622.8152c-3.8531,0-6.1534-2.6622-6.1534-6.6289s2.2236-7.0907,5.8685-7.0907c4.0854,0,5.1714,3.7762,5.1714,6.1943a9.3682,9.3682,0,0,1-.0778,1.114ZM93.26,21.421c.0253-1.5216-.595-3.885-3.1549-3.885-2.3014,0-3.31,2.2275-3.49,3.885Z"/><path d="M95.2274,33.0756A3.5831,3.5831,0,0,0,97.71,32.07c.6213-.7606.8537-1.7929.8537-4.9444V16.1232h2.275V28.05c0,2.5534-.3879,4.2109-1.4992,5.4061A5.61,5.61,0,0,1,95.4607,34.95Zm5.8694-20.6469a1.3711,1.3711,0,0,1-1.4224,1.467,1.3955,1.3955,0,0,1-1.3961-1.467,1.4291,1.4291,0,0,1,1.4487-1.4946A1.3826,1.3826,0,0,1,101.0968,12.4287Z"/></svg>
