<svg id="Layer_1" data-name="Layer 1" xmlns="http://www.w3.org/2000/svg" xmlns:xlink="http://www.w3.org/1999/xlink" width="195" height="67.91" viewBox="0 0 195 67.91"><defs><style>.cls-1{isolation:isolate;}.cls-2{fill:#fff;}.cls-3{fill:#1290ee;}</style><image id="image" width="160" height="160" xlink:href="../../../../../../../Downloads/face-screaming-in-fear_1f631.png"/></defs><title>newblue2</title><g class="cls-1"><g class="cls-1"><path class="cls-2" d="M23.39,26.19V10.78h4.39a4.81,4.81,0,0,1,3.17,1,3.16,3.16,0,0,1,1.17,2.55,3.74,3.74,0,0,1-.71,2.27,3.79,3.79,0,0,1-2,1.38v0A4,4,0,0,1,32,19.18a3.62,3.62,0,0,1,.93,2.58A4,4,0,0,1,31.46,25a5.26,5.26,0,0,1-3.58,1.23ZM25.2,12.42v5h1.85a3.54,3.54,0,0,0,2.33-.71,2.52,2.52,0,0,0,.85-2c0-1.5-1-2.24-3-2.24Zm0,6.59v5.54h2.45a3.65,3.65,0,0,0,2.46-.75A2.56,2.56,0,0,0,31,21.74Q31,19,27.27,19Z"/><path class="cls-2" d="M41.51,17a2.16,2.16,0,0,0-1.34-.35,2.23,2.23,0,0,0-1.88,1.06,4.89,4.89,0,0,0-.76,2.9v5.61H35.77v-11h1.76v2.26h0a3.93,3.93,0,0,1,1.15-1.81A2.66,2.66,0,0,1,40.45,15a2.94,2.94,0,0,1,1.06.15Z"/><path class="cls-2" d="M48,26.45a5.11,5.11,0,0,1-3.9-1.55,5.69,5.69,0,0,1-1.45-4.08,6,6,0,0,1,1.51-4.33,5.43,5.43,0,0,1,4.09-1.56,4.93,4.93,0,0,1,3.84,1.51,6,6,0,0,1,1.38,4.2A5.92,5.92,0,0,1,52,24.86,5.23,5.23,0,0,1,48,26.45Zm.12-10a3.35,3.35,0,0,0-2.68,1.16,4.73,4.73,0,0,0-1,3.18,4.44,4.44,0,0,0,1,3.08A3.38,3.38,0,0,0,48.14,25a3.24,3.24,0,0,0,2.63-1.1,4.83,4.83,0,0,0,.92-3.15,4.88,4.88,0,0,0-.92-3.18A3.2,3.2,0,0,0,48.14,16.41Z"/><path class="cls-2" d="M62,17a2.11,2.11,0,0,0-1.33-.35,2.23,2.23,0,0,0-1.88,1.06,4.89,4.89,0,0,0-.76,2.9v5.61H56.31v-11h1.76v2.26h0a3.93,3.93,0,0,1,1.15-1.81A2.64,2.64,0,0,1,61,15a2.85,2.85,0,0,1,1,.15Z"/><path class="cls-2" d="M65.57,23.74,63.85,29H62.59l1.26-5.28Z"/><path class="cls-2" d="M76.56,24.6h0v6.65H74.75V15.19h1.76v1.93h0a4.15,4.15,0,0,1,3.8-2.19,4,4,0,0,1,3.32,1.48,6.13,6.13,0,0,1,1.19,4,6.85,6.85,0,0,1-1.34,4.42,4.49,4.49,0,0,1-3.67,1.66A3.68,3.68,0,0,1,76.56,24.6Zm0-4.44V21.7A3.26,3.26,0,0,0,77.4,24a2.92,2.92,0,0,0,2.25.95,3,3,0,0,0,2.51-1.22,5.66,5.66,0,0,0,.91-3.41,4.49,4.49,0,0,0-.85-2.88,2.82,2.82,0,0,0-2.3-1,3.13,3.13,0,0,0-2.47,1.07A4,4,0,0,0,76.51,20.16Z"/><path class="cls-2" d="M93.42,17a2.13,2.13,0,0,0-1.33-.35,2.23,2.23,0,0,0-1.88,1.06,4.89,4.89,0,0,0-.76,2.9v5.61H87.69v-11h1.76v2.26h0a3.93,3.93,0,0,1,1.15-1.81A2.64,2.64,0,0,1,92.37,15a2.85,2.85,0,0,1,1,.15Z"/><path class="cls-2" d="M106.16,14.93l-1.8,1.93a6.29,6.29,0,0,1,1,3.72,6,6,0,0,1-1.49,4.29,5.83,5.83,0,0,1-7.4.48L95,27.07l-.88-.84,1.6-1.76a6,6,0,0,1-1.1-3.65,5.91,5.91,0,0,1,1.53-4.33,5.47,5.47,0,0,1,4.1-1.56A5.18,5.18,0,0,1,103.52,16l1.74-1.89Zm-3.79,2.28a3.24,3.24,0,0,0-2.31-.8,3.35,3.35,0,0,0-2.69,1.16,4.78,4.78,0,0,0-1,3.18,5.08,5.08,0,0,0,.53,2.41Zm.75,1-5.45,5.93A3.48,3.48,0,0,0,100,25a3.26,3.26,0,0,0,2.67-1.11,4.88,4.88,0,0,0,.92-3.16A5.5,5.5,0,0,0,103.12,18.22Z"/><path class="cls-2" d="M116.87,15.19l-4.38,11h-1.73l-4.17-11h1.94l2.79,8a7.08,7.08,0,0,1,.39,1.54h0a7.71,7.71,0,0,1,.34-1.5l2.92-8Z"/><path class="cls-2" d="M126.55,26.19h-1.76V9.9h1.76Z"/><path class="cls-2" d="M131,12.39a1.12,1.12,0,0,1-.81-.32,1.09,1.09,0,0,1-.33-.81,1.13,1.13,0,0,1,.33-.83,1.2,1.2,0,0,1,1.63,0,1.1,1.1,0,0,1,.34.83,1.07,1.07,0,0,1-.34.8A1.12,1.12,0,0,1,131,12.39Zm.86,13.8h-1.76v-11h1.76Z"/><path class="cls-2" d="M144.83,25.31q0,6.06-5.8,6.06a7.69,7.69,0,0,1-3.56-.78V28.83a7.29,7.29,0,0,0,3.54,1q4.06,0,4.06-4.32v-1.2h0A4.44,4.44,0,0,1,136,25,5.84,5.84,0,0,1,134.69,21,6.86,6.86,0,0,1,136,16.58a4.51,4.51,0,0,1,3.69-1.65,3.59,3.59,0,0,1,3.3,1.78h0V15.19h1.76Zm-1.76-4.1V19.59a3.13,3.13,0,0,0-.88-2.24,2.9,2.9,0,0,0-2.21-.94,3.07,3.07,0,0,0-2.56,1.19,5.33,5.33,0,0,0-.92,3.32,4.54,4.54,0,0,0,.88,2.94,2.87,2.87,0,0,0,2.35,1.1,3.06,3.06,0,0,0,2.41-1.05A3.92,3.92,0,0,0,143.07,21.21Z"/><path class="cls-2" d="M157.24,21.13h-7.76a4.05,4.05,0,0,0,1,2.83,3.4,3.4,0,0,0,2.6,1,5.45,5.45,0,0,0,3.42-1.22v1.65a6.42,6.42,0,0,1-3.84,1.06A4.65,4.65,0,0,1,149,25a6.14,6.14,0,0,1-1.33-4.22,6,6,0,0,1,1.46-4.18,4.65,4.65,0,0,1,3.61-1.62,4.14,4.14,0,0,1,3.34,1.4,5.79,5.79,0,0,1,1.18,3.87Zm-1.8-1.5a3.57,3.57,0,0,0-.74-2.37,2.51,2.51,0,0,0-2-.85,2.87,2.87,0,0,0-2.12.89,4,4,0,0,0-1.07,2.33Z"/><path class="cls-2" d="M173.81,26.19H172V24.47h0a3.67,3.67,0,0,1-3.38,2,3.63,3.63,0,0,1-2.58-.87,3,3,0,0,1-.92-2.31q0-3.09,3.63-3.59l3.29-.46c0-1.87-.75-2.81-2.26-2.81a5.38,5.38,0,0,0-3.59,1.36V16a6.8,6.8,0,0,1,3.74-1c2.58,0,3.88,1.37,3.88,4.1ZM172,20.62l-2.65.37a4.18,4.18,0,0,0-1.85.61,1.74,1.74,0,0,0-.62,1.54,1.66,1.66,0,0,0,.58,1.31A2.21,2.21,0,0,0,169,25a2.8,2.8,0,0,0,2.16-.92,3.26,3.26,0,0,0,.85-2.32Z"/><path class="cls-2" d="M182.23,26.08a3.4,3.4,0,0,1-1.65.34q-2.88,0-2.88-3.22V16.69h-1.9v-1.5h1.9V12.5l1.76-.57v3.26h2.77v1.5h-2.77v6.2a2.59,2.59,0,0,0,.37,1.58,1.52,1.52,0,0,0,1.25.47,1.88,1.88,0,0,0,1.15-.36Z"/></g><g class="cls-1"><path class="cls-2" d="M22.49,52.19V50.3a5.21,5.21,0,0,0,3.17,1.06c1.55,0,2.32-.51,2.32-1.54a1.27,1.27,0,0,0-.2-.75,1.94,1.94,0,0,0-.53-.54,4.62,4.62,0,0,0-.8-.43l-1-.39a13.51,13.51,0,0,1-1.29-.58,3.9,3.9,0,0,1-.92-.67,2.58,2.58,0,0,1-.56-.84,3.14,3.14,0,0,1-.19-1.11,2.59,2.59,0,0,1,.36-1.37,3.09,3.09,0,0,1,.94-1,4.61,4.61,0,0,1,1.35-.61,6.63,6.63,0,0,1,4.12.29v1.79a5,5,0,0,0-2.79-.8,3,3,0,0,0-.89.12,2.19,2.19,0,0,0-.69.31,1.57,1.57,0,0,0-.44.49,1.33,1.33,0,0,0-.15.63,1.54,1.54,0,0,0,.15.72,1.7,1.7,0,0,0,.46.51,3.33,3.33,0,0,0,.73.41c.29.13.61.26,1,.4s.92.38,1.31.57a4.4,4.4,0,0,1,1,.67,2.66,2.66,0,0,1,.63.86,2.83,2.83,0,0,1,.22,1.14,2.7,2.7,0,0,1-.36,1.42,3,3,0,0,1-1,1,4.3,4.3,0,0,1-1.38.59,6.76,6.76,0,0,1-1.64.2A6.21,6.21,0,0,1,22.49,52.19Z"/><path class="cls-2" d="M41.33,47.53H33.57a4.1,4.1,0,0,0,1,2.83,3.38,3.38,0,0,0,2.6,1,5.38,5.38,0,0,0,3.41-1.22v1.65a6.32,6.32,0,0,1-3.83,1.06,4.66,4.66,0,0,1-3.67-1.5,6.19,6.19,0,0,1-1.33-4.22A6,6,0,0,1,33.2,43a4.65,4.65,0,0,1,3.61-1.62,4.14,4.14,0,0,1,3.34,1.4,5.79,5.79,0,0,1,1.18,3.87ZM39.53,46a3.58,3.58,0,0,0-.74-2.38,2.51,2.51,0,0,0-2-.85,2.87,2.87,0,0,0-2.12.89A4,4,0,0,0,33.59,46Z"/><path class="cls-2" d="M59.16,52.59H57.39V46.25c0-2.29-.85-3.44-2.55-3.44a2.76,2.76,0,0,0-2.17,1,3.68,3.68,0,0,0-.88,2.55v6.23H50V36.3h1.77v7.11h0a4,4,0,0,1,3.61-2.08q3.72,0,3.72,4.48Z"/><path class="cls-2" d="M71.32,47.53H63.55a4.1,4.1,0,0,0,1,2.83,3.38,3.38,0,0,0,2.6,1,5.36,5.36,0,0,0,3.41-1.22v1.65a6.3,6.3,0,0,1-3.83,1.06,4.66,4.66,0,0,1-3.67-1.5,6.19,6.19,0,0,1-1.33-4.22A6,6,0,0,1,63.18,43a4.65,4.65,0,0,1,3.61-1.62,4.13,4.13,0,0,1,3.34,1.4,5.8,5.8,0,0,1,1.19,3.87ZM69.51,46a3.58,3.58,0,0,0-.74-2.38,2.51,2.51,0,0,0-2-.85,2.87,2.87,0,0,0-2.12.89A4.08,4.08,0,0,0,63.57,46Z"/><path class="cls-2" d="M83.11,52.59H81.35V46.31q0-3.5-2.56-3.5a2.74,2.74,0,0,0-2.18,1,3.64,3.64,0,0,0-.87,2.5v6.28H74v-11h1.76v1.82h0a4,4,0,0,1,3.61-2.08,3.34,3.34,0,0,1,2.76,1.17,5.16,5.16,0,0,1,1,3.36Z"/><path class="cls-2" d="M95.82,52.59H94.06V50.72h0a4.05,4.05,0,0,1-3.78,2.13,4.12,4.12,0,0,1-3.31-1.48,6.06,6.06,0,0,1-1.24-4A6.65,6.65,0,0,1,87.05,43a4.56,4.56,0,0,1,3.67-1.64A3.5,3.5,0,0,1,94,43.11h0V36.3h1.76Zm-1.76-5V46a3.15,3.15,0,0,0-.88-2.25,3,3,0,0,0-2.24-.93A3,3,0,0,0,88.41,44a5.17,5.17,0,0,0-.93,3.27,4.64,4.64,0,0,0,.89,3,2.87,2.87,0,0,0,2.38,1.1,3,3,0,0,0,2.39-1.06A4,4,0,0,0,94.06,47.61Z"/><path class="cls-2" d="M108.23,47.53h-7.77a4.1,4.1,0,0,0,1,2.83,3.38,3.38,0,0,0,2.6,1,5.36,5.36,0,0,0,3.41-1.22v1.65a6.3,6.3,0,0,1-3.83,1.06,4.66,4.66,0,0,1-3.67-1.5,6.19,6.19,0,0,1-1.33-4.22A6,6,0,0,1,100.09,43a4.65,4.65,0,0,1,3.61-1.62,4.13,4.13,0,0,1,3.34,1.4,5.8,5.8,0,0,1,1.19,3.87ZM106.42,46a3.64,3.64,0,0,0-.73-2.38,2.55,2.55,0,0,0-2-.85,2.87,2.87,0,0,0-2.12.89A4.08,4.08,0,0,0,100.48,46Z"/><path class="cls-2" d="M110.22,52.19V50.3a5.21,5.21,0,0,0,3.17,1.06c1.55,0,2.32-.51,2.32-1.54a1.27,1.27,0,0,0-.2-.75,1.94,1.94,0,0,0-.53-.54,4.28,4.28,0,0,0-.8-.43l-1-.39a12.23,12.23,0,0,1-1.28-.58,4,4,0,0,1-.93-.67,2.58,2.58,0,0,1-.56-.84,3.15,3.15,0,0,1-.18-1.11,2.59,2.59,0,0,1,.35-1.37,3.2,3.2,0,0,1,.94-1,4.61,4.61,0,0,1,1.35-.61,6.63,6.63,0,0,1,4.12.29v1.79a5,5,0,0,0-2.79-.8,3,3,0,0,0-.89.12,2.13,2.13,0,0,0-.68.31,1.46,1.46,0,0,0-.44.49,1.23,1.23,0,0,0-.16.63,1.42,1.42,0,0,0,.16.72,1.54,1.54,0,0,0,.45.51,3.58,3.58,0,0,0,.73.41c.29.13.61.26,1,.4s.92.38,1.31.57a4.4,4.4,0,0,1,1,.67,2.66,2.66,0,0,1,.63.86,2.83,2.83,0,0,1,.22,1.14,2.7,2.7,0,0,1-.36,1.42,3.06,3.06,0,0,1-1,1,4.45,4.45,0,0,1-1.39.59,6.76,6.76,0,0,1-1.64.2A6.23,6.23,0,0,1,110.22,52.19Z"/><path class="cls-2" d="M132,43.37a2.13,2.13,0,0,0-1.33-.35,2.25,2.25,0,0,0-1.89,1.06A5,5,0,0,0,128,47v5.61h-1.76v-11H128v2.26h.05A3.85,3.85,0,0,1,129.21,42a2.62,2.62,0,0,1,1.72-.65,2.94,2.94,0,0,1,1.06.15Z"/><path class="cls-2" d="M144.73,41.33l-1.81,1.93A6.22,6.22,0,0,1,144,47a6,6,0,0,1-1.5,4.29,5.83,5.83,0,0,1-7.4.48l-1.56,1.72-.88-.84,1.6-1.76a5.94,5.94,0,0,1-1.09-3.65,6,6,0,0,1,1.52-4.33,5.49,5.49,0,0,1,4.11-1.56,5.15,5.15,0,0,1,3.3,1.05l1.75-1.89Zm-3.79,2.28a3.26,3.26,0,0,0-2.31-.8A3.34,3.34,0,0,0,135.94,44a4.73,4.73,0,0,0-1,3.18,5,5,0,0,0,.54,2.41Zm.75,1-5.46,5.93a3.48,3.48,0,0,0,2.37.81,3.26,3.26,0,0,0,2.67-1.11,4.82,4.82,0,0,0,.92-3.16A5.64,5.64,0,0,0,141.69,44.62Z"/><path class="cls-2" d="M155.44,41.59l-4.39,11h-1.72l-4.17-11h1.93l2.79,8a7.08,7.08,0,0,1,.39,1.54h0a7,7,0,0,1,.35-1.5l2.92-8Z"/><path class="cls-2" d="M158.67,52.78a1.14,1.14,0,0,1-.84-.34,1.19,1.19,0,0,1,.84-2,1.14,1.14,0,0,1,.84.35,1.18,1.18,0,0,1,0,1.68A1.17,1.17,0,0,1,158.67,52.78Zm.9-15.6-.2,11.07h-1.45l-.19-11.07Z"/></g></g><use class="cls-1" transform="translate(161.94 33.5) scale(0.13)" xlink:href="#image"/><path class="cls-3" d="M3.5,33.8c0-.1,0-.2,0-.3s0-.2,0-.3Z"/><path class="cls-3" d="M126.5,65.5h32.7a32.48,32.48,0,0,0,32.29-32,32.48,32.48,0,0,0-32.29-32H35.8a32.48,32.48,0,0,0-32.29,32,32.48,32.48,0,0,0,32.29,32h90.7Z"/><path class="cls-3" d="M191.5,33.2c0,.1,0,.2,0,.3s0,.2,0,.3Z"/><g class="cls-1"><g class="cls-1"><path class="cls-2" d="M18.86,27.19V11.78h4.39a4.82,4.82,0,0,1,3.17,1,3.16,3.16,0,0,1,1.17,2.55,3.74,3.74,0,0,1-.71,2.27,3.83,3.83,0,0,1-2,1.38v0a3.91,3.91,0,0,1,2.49,1.18,3.58,3.58,0,0,1,.94,2.58A4,4,0,0,1,26.93,26a5.26,5.26,0,0,1-3.58,1.23Zm1.81-13.77v5h1.85a3.56,3.56,0,0,0,2.33-.71,2.52,2.52,0,0,0,.85-2c0-1.5-1-2.24-3-2.24Zm0,6.59v5.54h2.45a3.65,3.65,0,0,0,2.46-.75,2.56,2.56,0,0,0,.88-2.06q0-2.73-3.72-2.73Z"/><path class="cls-2" d="M37,18a2.11,2.11,0,0,0-1.33-.35,2.23,2.23,0,0,0-1.88,1.06,4.89,4.89,0,0,0-.76,2.9v5.61H31.24v-11H33v2.26h0a3.93,3.93,0,0,1,1.15-1.81A2.64,2.64,0,0,1,35.92,16a2.85,2.85,0,0,1,1,.15Z"/><path class="cls-2" d="M43.48,27.45a5.1,5.1,0,0,1-3.89-1.55,5.69,5.69,0,0,1-1.46-4.08,6,6,0,0,1,1.52-4.33,5.43,5.43,0,0,1,4.09-1.56,4.93,4.93,0,0,1,3.84,1.51A6,6,0,0,1,49,21.64a5.92,5.92,0,0,1-1.48,4.22A5.23,5.23,0,0,1,43.48,27.45Zm.13-10a3.35,3.35,0,0,0-2.68,1.16,4.73,4.73,0,0,0-1,3.18,4.44,4.44,0,0,0,1,3.08A3.36,3.36,0,0,0,43.61,26a3.24,3.24,0,0,0,2.63-1.1,4.83,4.83,0,0,0,.92-3.15,4.88,4.88,0,0,0-.92-3.18A3.2,3.2,0,0,0,43.61,17.41Z"/><path class="cls-2" d="M57.51,18a2.11,2.11,0,0,0-1.33-.35,2.23,2.23,0,0,0-1.88,1.06,4.89,4.89,0,0,0-.76,2.9v5.61H51.78v-11h1.76v2.26h0a3.93,3.93,0,0,1,1.15-1.81A2.64,2.64,0,0,1,56.46,16a2.85,2.85,0,0,1,1,.15Z"/><path class="cls-2" d="M61,24.74,59.32,30H58.06l1.26-5.28Z"/><path class="cls-2" d="M72,25.6h0v6.65H70.22V16.19H72v1.93h0a4.15,4.15,0,0,1,3.8-2.19,4,4,0,0,1,3.32,1.48,6.13,6.13,0,0,1,1.19,4A6.85,6.85,0,0,1,79,25.79a4.5,4.5,0,0,1-3.68,1.66A3.68,3.68,0,0,1,72,25.6Zm0-4.44V22.7A3.26,3.26,0,0,0,72.87,25a2.92,2.92,0,0,0,2.25.95,3,3,0,0,0,2.51-1.22,5.66,5.66,0,0,0,.91-3.41,4.49,4.49,0,0,0-.85-2.88,2.82,2.82,0,0,0-2.3-1,3.12,3.12,0,0,0-2.47,1.07A3.9,3.9,0,0,0,72,21.16Z"/><path class="cls-2" d="M88.89,18a2.13,2.13,0,0,0-1.33-.35,2.26,2.26,0,0,0-1.89,1.06,5,5,0,0,0-.75,2.9v5.61H83.16v-11h1.76v2.26h0a3.85,3.85,0,0,1,1.15-1.81A2.64,2.64,0,0,1,87.84,16a2.85,2.85,0,0,1,1,.15Z"/><path class="cls-2" d="M101.63,15.93l-1.8,1.93a6.29,6.29,0,0,1,1,3.72,6,6,0,0,1-1.49,4.29,5.83,5.83,0,0,1-7.4.48l-1.56,1.72-.88-.84,1.6-1.76a6,6,0,0,1-1.1-3.65,5.91,5.91,0,0,1,1.53-4.33,5.46,5.46,0,0,1,4.1-1.56A5.18,5.18,0,0,1,99,17l1.74-1.89Zm-3.79,2.28a3.26,3.26,0,0,0-2.31-.8,3.34,3.34,0,0,0-2.69,1.16,4.73,4.73,0,0,0-1,3.18,5.08,5.08,0,0,0,.53,2.41Zm.75,1-5.46,5.93a3.52,3.52,0,0,0,2.38.81,3.26,3.26,0,0,0,2.67-1.11,4.88,4.88,0,0,0,.92-3.16A5.5,5.5,0,0,0,98.59,19.22Z"/><path class="cls-2" d="M112.34,16.19l-4.38,11h-1.73l-4.17-11H104l2.79,8a6.47,6.47,0,0,1,.38,1.54h0a7,7,0,0,1,.34-1.5l2.92-8Z"/><path class="cls-2" d="M122,27.19h-1.76V10.9H122Z"/><path class="cls-2" d="M126.49,13.39a1.11,1.11,0,0,1-.81-.32,1.09,1.09,0,0,1-.33-.81,1.13,1.13,0,0,1,.33-.83,1.2,1.2,0,0,1,1.63,0,1.1,1.1,0,0,1,.34.83,1.07,1.07,0,0,1-.34.8A1.12,1.12,0,0,1,126.49,13.39Zm.86,13.8h-1.76v-11h1.76Z"/><path class="cls-2" d="M140.3,26.31q0,6.06-5.8,6.06a7.69,7.69,0,0,1-3.56-.78V29.83a7.29,7.29,0,0,0,3.54,1q4.07,0,4.06-4.32v-1.2h0a4.45,4.45,0,0,1-7.09.64A5.89,5.89,0,0,1,130.16,22a6.86,6.86,0,0,1,1.35-4.46,4.51,4.51,0,0,1,3.69-1.65,3.59,3.59,0,0,1,3.3,1.78h0V16.19h1.76Zm-1.76-4.1V20.59a3.13,3.13,0,0,0-.88-2.24,2.92,2.92,0,0,0-2.21-.94,3.07,3.07,0,0,0-2.56,1.19,5.33,5.33,0,0,0-.92,3.32,4.54,4.54,0,0,0,.88,2.94A2.87,2.87,0,0,0,135.2,26a3.06,3.06,0,0,0,2.41-1.05A3.92,3.92,0,0,0,138.54,22.21Z"/><path class="cls-2" d="M152.71,22.13h-7.77a4.1,4.1,0,0,0,1,2.83,3.4,3.4,0,0,0,2.6,1A5.45,5.45,0,0,0,152,24.74v1.65a6.42,6.42,0,0,1-3.84,1.06,4.65,4.65,0,0,1-3.66-1.5,6.14,6.14,0,0,1-1.33-4.22,6,6,0,0,1,1.45-4.18,4.67,4.67,0,0,1,3.62-1.62,4.14,4.14,0,0,1,3.34,1.4,5.79,5.79,0,0,1,1.18,3.87Zm-1.8-1.5a3.63,3.63,0,0,0-.74-2.37,2.51,2.51,0,0,0-2-.85,2.87,2.87,0,0,0-2.12.89A4,4,0,0,0,145,20.63Z"/><path class="cls-2" d="M169.28,27.19h-1.77V25.47h0a3.68,3.68,0,0,1-3.38,2,3.63,3.63,0,0,1-2.58-.87,3,3,0,0,1-.93-2.31q0-3.09,3.64-3.59l3.29-.46c0-1.87-.75-2.81-2.26-2.81a5.38,5.38,0,0,0-3.59,1.36V17a6.8,6.8,0,0,1,3.74-1c2.58,0,3.88,1.37,3.88,4.1Zm-1.77-5.57-2.65.37a4.13,4.13,0,0,0-1.85.61,1.74,1.74,0,0,0-.62,1.54,1.68,1.68,0,0,0,.57,1.31,2.25,2.25,0,0,0,1.54.51,2.8,2.8,0,0,0,2.16-.92,3.26,3.26,0,0,0,.85-2.32Z"/><path class="cls-2" d="M177.7,27.08a3.43,3.43,0,0,1-1.65.34c-1.92,0-2.89-1.07-2.89-3.22V17.69h-1.89v-1.5h1.89V13.5l1.77-.57v3.26h2.77v1.5h-2.77v6.2a2.59,2.59,0,0,0,.37,1.58,1.52,1.52,0,0,0,1.25.47,1.88,1.88,0,0,0,1.15-.36Z"/></g><g class="cls-1"><path class="cls-2" d="M18,53.19V51.3a5.21,5.21,0,0,0,3.17,1.06c1.55,0,2.32-.51,2.32-1.54a1.35,1.35,0,0,0-.2-.75,1.85,1.85,0,0,0-.54-.54,4.18,4.18,0,0,0-.79-.43l-1-.39a13.51,13.51,0,0,1-1.29-.58,3.9,3.9,0,0,1-.92-.67,2.58,2.58,0,0,1-.56-.84A2.93,2.93,0,0,1,18,45.51a2.59,2.59,0,0,1,.36-1.37,3.09,3.09,0,0,1,.94-1,4.61,4.61,0,0,1,1.35-.61,6.63,6.63,0,0,1,4.12.29v1.79a5,5,0,0,0-2.79-.8,3,3,0,0,0-.89.12,2.19,2.19,0,0,0-.69.31,1.57,1.57,0,0,0-.44.49,1.33,1.33,0,0,0-.15.63,1.54,1.54,0,0,0,.15.72,1.7,1.7,0,0,0,.46.51,3,3,0,0,0,.73.41c.29.13.61.26,1,.4s.92.38,1.31.57a4.9,4.9,0,0,1,1,.67,2.49,2.49,0,0,1,.62.86,2.67,2.67,0,0,1,.22,1.14,2.79,2.79,0,0,1-.35,1.42,3.19,3.19,0,0,1-1,1,4.3,4.3,0,0,1-1.38.59,6.84,6.84,0,0,1-1.65.2A6.19,6.19,0,0,1,18,53.19Z"/><path class="cls-2" d="M36.8,48.53H29a4.05,4.05,0,0,0,1,2.83,3.4,3.4,0,0,0,2.6,1A5.39,5.39,0,0,0,36,51.14v1.65a6.34,6.34,0,0,1-3.83,1.06,4.66,4.66,0,0,1-3.67-1.5,6.14,6.14,0,0,1-1.33-4.22A6,6,0,0,1,28.67,44a4.65,4.65,0,0,1,3.61-1.62,4.14,4.14,0,0,1,3.34,1.4A5.79,5.79,0,0,1,36.8,47.6ZM35,47a3.58,3.58,0,0,0-.74-2.38,2.51,2.51,0,0,0-2-.85,2.87,2.87,0,0,0-2.12.89A4,4,0,0,0,29.06,47Z"/><path class="cls-2" d="M54.62,53.59H52.86V47.25c0-2.29-.85-3.44-2.55-3.44a2.76,2.76,0,0,0-2.17,1,3.68,3.68,0,0,0-.89,2.55v6.23H45.49V37.3h1.76v7.11h0a4,4,0,0,1,3.61-2.08q3.71,0,3.71,4.48Z"/><path class="cls-2" d="M66.78,48.53H59a4.1,4.1,0,0,0,1,2.83,3.38,3.38,0,0,0,2.6,1A5.38,5.38,0,0,0,66,51.14v1.65a6.32,6.32,0,0,1-3.83,1.06,4.66,4.66,0,0,1-3.67-1.5,6.19,6.19,0,0,1-1.33-4.22A6,6,0,0,1,58.65,44a4.65,4.65,0,0,1,3.61-1.62,4.14,4.14,0,0,1,3.34,1.4,5.79,5.79,0,0,1,1.18,3.87ZM65,47a3.58,3.58,0,0,0-.74-2.38,2.51,2.51,0,0,0-2-.85,2.87,2.87,0,0,0-2.12.89A4,4,0,0,0,59,47Z"/><path class="cls-2" d="M78.58,53.59H76.82V47.31c0-2.33-.86-3.5-2.56-3.5a2.77,2.77,0,0,0-2.19,1,3.69,3.69,0,0,0-.86,2.5v6.28H69.45v-11h1.76v1.82h0a4,4,0,0,1,3.61-2.08,3.34,3.34,0,0,1,2.76,1.17,5.16,5.16,0,0,1,1,3.36Z"/><path class="cls-2" d="M91.29,53.59H89.53V51.72h0a4.05,4.05,0,0,1-3.78,2.13,4.11,4.11,0,0,1-3.31-1.48,6.06,6.06,0,0,1-1.24-4A6.6,6.6,0,0,1,82.52,44a4.55,4.55,0,0,1,3.66-1.64,3.52,3.52,0,0,1,3.3,1.78h0V37.3h1.76Zm-1.76-5V47a3.12,3.12,0,0,0-.89-2.25,2.93,2.93,0,0,0-2.23-.93A3,3,0,0,0,83.88,45,5.17,5.17,0,0,0,83,48.26a4.64,4.64,0,0,0,.89,3,2.87,2.87,0,0,0,2.38,1.1,3,3,0,0,0,2.39-1.06A4,4,0,0,0,89.53,48.61Z"/><path class="cls-2" d="M103.69,48.53H95.93a4.1,4.1,0,0,0,1,2.83,3.38,3.38,0,0,0,2.6,1,5.38,5.38,0,0,0,3.41-1.22v1.65a6.32,6.32,0,0,1-3.83,1.06,4.66,4.66,0,0,1-3.67-1.5,6.19,6.19,0,0,1-1.33-4.22A6,6,0,0,1,95.56,44a4.65,4.65,0,0,1,3.61-1.62,4.14,4.14,0,0,1,3.34,1.4,5.79,5.79,0,0,1,1.18,3.87ZM101.89,47a3.58,3.58,0,0,0-.74-2.38,2.51,2.51,0,0,0-2-.85A2.87,2.87,0,0,0,97,44.7,4,4,0,0,0,96,47Z"/><path class="cls-2" d="M105.69,53.19V51.3a5.21,5.21,0,0,0,3.17,1.06c1.55,0,2.32-.51,2.32-1.54a1.27,1.27,0,0,0-.2-.75,1.94,1.94,0,0,0-.53-.54,4.28,4.28,0,0,0-.8-.43l-1-.39a13.51,13.51,0,0,1-1.29-.58,4.12,4.12,0,0,1-.92-.67,2.58,2.58,0,0,1-.56-.84,3.14,3.14,0,0,1-.19-1.11,2.59,2.59,0,0,1,.36-1.37,3.09,3.09,0,0,1,.94-1,4.61,4.61,0,0,1,1.35-.61,6.63,6.63,0,0,1,4.12.29v1.79a5,5,0,0,0-2.79-.8,3,3,0,0,0-.89.12,2,2,0,0,0-.68.31,1.49,1.49,0,0,0-.45.49,1.33,1.33,0,0,0-.15.63,1.54,1.54,0,0,0,.15.72,1.7,1.7,0,0,0,.46.51,3,3,0,0,0,.73.41c.29.13.61.26,1,.4s.92.38,1.31.57a4.4,4.4,0,0,1,1,.67,2.66,2.66,0,0,1,.63.86,2.83,2.83,0,0,1,.22,1.14,2.7,2.7,0,0,1-.36,1.42,3.06,3.06,0,0,1-1,1,4.45,4.45,0,0,1-1.39.59,6.76,6.76,0,0,1-1.64.2A6.21,6.21,0,0,1,105.69,53.19Z"/><path class="cls-2" d="M127.46,44.37a2.16,2.16,0,0,0-1.34-.35,2.23,2.23,0,0,0-1.88,1.06,4.89,4.89,0,0,0-.76,2.9v5.61h-1.76v-11h1.76v2.26h0A4,4,0,0,1,124.67,43a2.66,2.66,0,0,1,1.73-.65,2.94,2.94,0,0,1,1.06.15Z"/><path class="cls-2" d="M140.2,42.33l-1.81,1.93A6.29,6.29,0,0,1,139.44,48,6,6,0,0,1,138,52.27a5.83,5.83,0,0,1-7.4.48L129,54.47l-.88-.84,1.6-1.76a5.94,5.94,0,0,1-1.09-3.65,6,6,0,0,1,1.52-4.33,5.49,5.49,0,0,1,4.11-1.56,5.15,5.15,0,0,1,3.3,1.05l1.74-1.89Zm-3.8,2.28a3.23,3.23,0,0,0-2.31-.8A3.37,3.37,0,0,0,131.4,45a4.78,4.78,0,0,0-1,3.18,5,5,0,0,0,.54,2.41Zm.76,1-5.46,5.93a3.48,3.48,0,0,0,2.37.81,3.26,3.26,0,0,0,2.67-1.11,4.82,4.82,0,0,0,.92-3.16A5.64,5.64,0,0,0,137.16,45.62Z"/><path class="cls-2" d="M150.91,42.59l-4.39,11h-1.73l-4.16-11h1.93l2.79,8a7.08,7.08,0,0,1,.39,1.54h0a7,7,0,0,1,.35-1.5l2.92-8Z"/><path class="cls-2" d="M154.14,53.78a1.14,1.14,0,0,1-.84-.34,1.19,1.19,0,0,1,.84-2,1.19,1.19,0,0,1,.84,2A1.17,1.17,0,0,1,154.14,53.78Zm.9-15.6-.2,11.07h-1.45l-.2-11.07Z"/></g></g><use class="cls-1" transform="translate(157.41 34.5) scale(0.13)" xlink:href="#image"/></svg>
