<svg id="Layer_1" data-name="Layer 1" xmlns="http://www.w3.org/2000/svg" xmlns:xlink="http://www.w3.org/1999/xlink" width="320" height="150" viewBox="0 0 320 150"><defs><style>.cls-1{isolation:isolate;}.cls-2{fill:#fff;}.cls-3{fill:#1290ee;}</style><image id="image" width="160" height="160" xlink:href="../../../../../../../Downloads/face-with-tears-of-joy_1f602.png"/><image id="image-2" width="160" height="160" xlink:href="../../../../../../../Downloads/face-with-stuck-out-tongue-and-winking-eye_1f61c.png"/></defs><title>newblue3</title><g class="cls-1"><g class="cls-1"><path class="cls-2" d="M45.47,27.5h-1.8v-7h-8v7H33.89V12.1H35.7v6.75h8V12.1h1.8Z"/><path class="cls-2" d="M61.44,27.5h-2l-1.63-4.32H51.28L49.74,27.5h-2l5.91-15.4h1.87Zm-4.22-5.94L54.8,15a6.3,6.3,0,0,1-.24-1h0a5.12,5.12,0,0,1-.25,1l-2.39,6.56Z"/><path class="cls-2" d="M75.28,27.5h-1.8v-7h-8v7H63.7V12.1h1.81v6.75h8V12.1h1.8Z"/><path class="cls-2" d="M91.25,27.5h-2l-1.63-4.32H81.08L79.55,27.5h-2l5.91-15.4h1.87ZM87,21.56,84.61,15a6.3,6.3,0,0,1-.24-1h0a5.89,5.89,0,0,1-.25,1l-2.39,6.56Z"/><path class="cls-2" d="M105.09,27.5h-1.8v-7h-8v7H93.51V12.1h1.81v6.75h8V12.1h1.8Z"/><path class="cls-2" d="M120.71,27.5h-1.8v-7h-8v7h-1.81V12.1h1.81v6.75h8V12.1h1.8Z"/><path class="cls-2" d="M136.68,27.5h-2L133,23.18h-6.53L125,27.5h-2l5.91-15.4h1.87Zm-4.23-5.94L130,15a6.3,6.3,0,0,1-.24-1h0a5.89,5.89,0,0,1-.25,1l-2.39,6.56Z"/><path class="cls-2" d="M150.52,27.5h-1.8v-7h-8v7h-1.81V12.1h1.81v6.75h8V12.1h1.8Z"/><path class="cls-2" d="M166.49,27.5h-2l-1.64-4.32h-6.53l-1.53,4.32h-2l5.91-15.4h1.87Zm-4.23-5.94L159.85,15a6.3,6.3,0,0,1-.24-1h0a5.89,5.89,0,0,1-.25,1l-2.4,6.56Z"/><path class="cls-2" d="M169.86,27.69a1.14,1.14,0,0,1-.84-.34,1.18,1.18,0,0,1,0-1.68,1.15,1.15,0,0,1,.84-.35,1.18,1.18,0,0,1,.84.35,1.18,1.18,0,0,1,0,1.68A1.17,1.17,0,0,1,169.86,27.69Zm.9-15.59-.2,11.06h-1.45l-.2-11.06Z"/></g><g class="cls-1"><path class="cls-2" d="M35.7,48.08V53.9H33.89V38.5h4.24A5.62,5.62,0,0,1,42,39.7a4.3,4.3,0,0,1,1.36,3.39,4.7,4.7,0,0,1-1.51,3.59,5.79,5.79,0,0,1-4.08,1.4Zm0-7.95v6.31h1.89a4.2,4.2,0,0,0,2.85-.85,3,3,0,0,0,1-2.41q0-3-3.6-3Z"/><path class="cls-2" d="M51.72,44.68a2.37,2.37,0,0,0-3.22.71,4.89,4.89,0,0,0-.76,2.9V53.9H46v-11h1.76v2.27h0a3.83,3.83,0,0,1,1.15-1.81,2.61,2.61,0,0,1,1.73-.65,2.94,2.94,0,0,1,1.06.15Z"/><path class="cls-2" d="M64.46,42.64l-1.81,1.94a6.23,6.23,0,0,1,1.05,3.71,6,6,0,0,1-1.49,4.29,5.83,5.83,0,0,1-7.4.48l-1.56,1.72-.88-.84L54,52.18a5.94,5.94,0,0,1-1.09-3.65A5.91,5.91,0,0,1,54.4,44.2a5.49,5.49,0,0,1,4.1-1.56,5.16,5.16,0,0,1,3.31,1l1.74-1.89Zm-3.8,2.28a3.23,3.23,0,0,0-2.31-.8,3.37,3.37,0,0,0-2.69,1.16,4.78,4.78,0,0,0-1,3.18,5,5,0,0,0,.54,2.41Zm.76,1L56,51.86a3.48,3.48,0,0,0,2.37.82A3.27,3.27,0,0,0,61,51.56a4.88,4.88,0,0,0,.92-3.16A5.67,5.67,0,0,0,61.42,45.93Z"/><path class="cls-2" d="M75.17,42.9l-4.39,11H69.05l-4.16-11h1.93l2.79,8A7.08,7.08,0,0,1,70,52.43h0a6.93,6.93,0,0,1,.35-1.49l2.92-8Z"/><path class="cls-2" d="M91,53.9H89.2V52.18h0a3.67,3.67,0,0,1-3.38,2,3.59,3.59,0,0,1-2.57-.87A3,3,0,0,1,82.27,51c0-2.06,1.21-3.25,3.63-3.59l3.3-.46c0-1.87-.76-2.81-2.27-2.81a5.44,5.44,0,0,0-3.59,1.36V43.67a6.88,6.88,0,0,1,3.74-1C89.66,42.64,91,44,91,46.75ZM89.2,48.34l-2.66.36a4.31,4.31,0,0,0-1.85.61,1.76,1.76,0,0,0-.62,1.54,1.68,1.68,0,0,0,.58,1.32,2.21,2.21,0,0,0,1.53.51,2.83,2.83,0,0,0,2.16-.92,3.3,3.3,0,0,0,.86-2.33Z"/><path class="cls-2" d="M99.38,53.79a3.38,3.38,0,0,1-1.64.35q-2.89,0-2.89-3.23V44.4H93V42.9h1.89V40.21l1.76-.56V42.9h2.77v1.5H96.61v6.2A2.57,2.57,0,0,0,97,52.18a1.49,1.49,0,0,0,1.25.47,1.88,1.88,0,0,0,1.15-.36Z"/><path class="cls-2" d="M107.09,53.5V51.61a5.22,5.22,0,0,0,3.17,1.07c1.55,0,2.32-.52,2.32-1.55a1.37,1.37,0,0,0-.2-.75,2.08,2.08,0,0,0-.53-.54,4,4,0,0,0-.8-.42l-1-.4a13.51,13.51,0,0,1-1.29-.58,3.9,3.9,0,0,1-.92-.67,2.58,2.58,0,0,1-.56-.84,3.14,3.14,0,0,1-.19-1.11,2.62,2.62,0,0,1,.36-1.37,3.09,3.09,0,0,1,.94-1,4.59,4.59,0,0,1,1.35-.6,5.87,5.87,0,0,1,1.56-.21,6.29,6.29,0,0,1,2.56.5v1.78a5,5,0,0,0-2.79-.8,3,3,0,0,0-.89.12,2.19,2.19,0,0,0-.69.31,1.57,1.57,0,0,0-.44.49,1.33,1.33,0,0,0-.15.63,1.54,1.54,0,0,0,.15.72,1.73,1.73,0,0,0,.46.52,3.32,3.32,0,0,0,.73.4c.29.13.61.26,1,.4a13.77,13.77,0,0,1,1.31.58,4.61,4.61,0,0,1,1,.66,2.66,2.66,0,0,1,.63.86,2.84,2.84,0,0,1,.22,1.15,2.69,2.69,0,0,1-.36,1.41,2.9,2.9,0,0,1-1,1,4.09,4.09,0,0,1-1.38.59,6.76,6.76,0,0,1-1.64.2A6.21,6.21,0,0,1,107.09,53.5Z"/><path class="cls-2" d="M125.93,48.84h-7.76a4.1,4.1,0,0,0,1,2.84,3.41,3.41,0,0,0,2.59,1,5.4,5.4,0,0,0,3.42-1.23V53.1a6.32,6.32,0,0,1-3.83,1.06,4.66,4.66,0,0,1-3.67-1.5,6.14,6.14,0,0,1-1.33-4.22,6,6,0,0,1,1.46-4.18,4.65,4.65,0,0,1,3.61-1.62,4.14,4.14,0,0,1,3.34,1.4,5.8,5.8,0,0,1,1.18,3.88Zm-1.8-1.49a3.58,3.58,0,0,0-.74-2.38,2.51,2.51,0,0,0-2-.85,2.84,2.84,0,0,0-2.12.9,4,4,0,0,0-1.07,2.33Z"/><path class="cls-2" d="M143.75,53.9H142V47.56c0-2.29-.85-3.44-2.55-3.44a2.79,2.79,0,0,0-2.17,1,3.68,3.68,0,0,0-.88,2.55V53.9h-1.77V37.61h1.77v7.12h0A4,4,0,0,1,140,42.64c2.48,0,3.71,1.5,3.71,4.48Z"/><path class="cls-2" d="M155.72,42.9l-4.38,11h-1.73l-4.17-11h1.94l2.79,8a7,7,0,0,1,.38,1.54h0a7,7,0,0,1,.34-1.49l2.92-8Z"/><path class="cls-2" d="M162.21,54.16a5.11,5.11,0,0,1-3.89-1.54,5.72,5.72,0,0,1-1.46-4.09,6,6,0,0,1,1.52-4.33,5.42,5.42,0,0,1,4.09-1.56,4.93,4.93,0,0,1,3.84,1.52,6,6,0,0,1,1.38,4.2,5.9,5.9,0,0,1-1.49,4.21A5.2,5.2,0,0,1,162.21,54.16Zm.13-10a3.37,3.37,0,0,0-2.69,1.16,4.73,4.73,0,0,0-1,3.18,4.52,4.52,0,0,0,1,3.09,3.42,3.42,0,0,0,2.68,1.13A3.2,3.2,0,0,0,165,51.57a4.77,4.77,0,0,0,.92-3.15,4.86,4.86,0,0,0-.92-3.18A3.2,3.2,0,0,0,162.34,44.12Z"/><path class="cls-2" d="M176.24,44.68a2.19,2.19,0,0,0-1.33-.35A2.26,2.26,0,0,0,173,45.39a5,5,0,0,0-.76,2.9V53.9H170.5v-11h1.76v2.27h.05a3.76,3.76,0,0,1,1.15-1.81,2.57,2.57,0,0,1,1.73-.65,2.88,2.88,0,0,1,1.05.15Z"/><path class="cls-2" d="M183.51,53.5V51.61a5.22,5.22,0,0,0,3.17,1.07c1.55,0,2.32-.52,2.32-1.55a1.37,1.37,0,0,0-.2-.75,2.08,2.08,0,0,0-.53-.54,4,4,0,0,0-.8-.42l-1-.4a13.51,13.51,0,0,1-1.29-.58,3.9,3.9,0,0,1-.92-.67,2.58,2.58,0,0,1-.56-.84,3.14,3.14,0,0,1-.19-1.11,2.62,2.62,0,0,1,.36-1.37,3.09,3.09,0,0,1,.94-1,4.59,4.59,0,0,1,1.35-.6,5.87,5.87,0,0,1,1.56-.21,6.29,6.29,0,0,1,2.56.5v1.78a5,5,0,0,0-2.79-.8,3,3,0,0,0-.89.12,2.19,2.19,0,0,0-.69.31,1.57,1.57,0,0,0-.44.49,1.33,1.33,0,0,0-.15.63,1.54,1.54,0,0,0,.15.72,1.73,1.73,0,0,0,.46.52,3.32,3.32,0,0,0,.73.4c.29.13.61.26,1,.4s.92.38,1.31.58a4.61,4.61,0,0,1,1,.66,2.66,2.66,0,0,1,.63.86,2.84,2.84,0,0,1,.22,1.15,2.69,2.69,0,0,1-.36,1.41,3,3,0,0,1-1,1,4.09,4.09,0,0,1-1.38.59,6.76,6.76,0,0,1-1.64.2A6.21,6.21,0,0,1,183.51,53.5Z"/><path class="cls-2" d="M202.64,53.9h-2.47l-4.85-5.29h0V53.9h-1.76V37.61h1.76V47.94h0l4.62-5h2.31l-5.11,5.31Z"/><path class="cls-2" d="M220.09,48.84H212.3a4.1,4.1,0,0,0,1,2.84,3.41,3.41,0,0,0,2.59,1,5.44,5.44,0,0,0,3.45-1.23V53.1a6.28,6.28,0,0,1-3.85,1.06,4.22,4.22,0,0,1-4.11-2.46h-.05a4.73,4.73,0,0,1-4.15,2.46,3.67,3.67,0,0,1-2.59-.87,3,3,0,0,1-.94-2.31q0-3.23,4.12-3.48l2.81-.17q0-3.21-2.31-3.21a5.6,5.6,0,0,0-3.54,1.32V43.67a6.75,6.75,0,0,1,3.73-1,3.06,3.06,0,0,1,3.23,2.15h0a4.13,4.13,0,0,1,3.82-2.15A4.2,4.2,0,0,1,218.9,44a5.88,5.88,0,0,1,1.19,3.9Zm-9.53.66v-.68l-2.18.13a5.1,5.1,0,0,0-2.23.52,1.58,1.58,0,0,0-.73,1.47A1.56,1.56,0,0,0,206,52.2a2.33,2.33,0,0,0,1.54.48,2.92,2.92,0,0,0,2.16-.91A3.14,3.14,0,0,0,210.56,49.5Zm7.72-2.15a3.68,3.68,0,0,0-.73-2.39,2.48,2.48,0,0,0-2-.84,2.91,2.91,0,0,0-2.14.89,3.9,3.9,0,0,0-1.1,2.34Z"/><path class="cls-2" d="M231.4,42.9,227,53.9h-1.73l-4.17-11h1.93l2.8,8a7.61,7.61,0,0,1,.38,1.54h.05a7,7,0,0,1,.34-1.49l2.92-8Z"/><path class="cls-2" d="M248.71,53.9h-1.77V52h0a4.43,4.43,0,0,1-7.09.65,6,6,0,0,1-1.24-4,6.55,6.55,0,0,1,1.37-4.37,4.53,4.53,0,0,1,3.66-1.65,3.54,3.54,0,0,1,3.3,1.79h0V37.61h1.77Zm-1.77-5V47.3a3.12,3.12,0,0,0-.88-2.25,2.93,2.93,0,0,0-2.23-.93,3,3,0,0,0-2.54,1.19,5.18,5.18,0,0,0-.92,3.26,4.64,4.64,0,0,0,.89,3,2.88,2.88,0,0,0,2.38,1.11A3,3,0,0,0,246,51.61,4,4,0,0,0,246.94,48.93Z"/><path class="cls-2" d="M261.11,48.84h-7.76a4.19,4.19,0,0,0,1,2.84,3.43,3.43,0,0,0,2.6,1,5.4,5.4,0,0,0,3.42-1.23V53.1a6.32,6.32,0,0,1-3.83,1.06,4.66,4.66,0,0,1-3.67-1.5,6.14,6.14,0,0,1-1.33-4.22A6,6,0,0,1,253,44.26a4.65,4.65,0,0,1,3.61-1.62,4.14,4.14,0,0,1,3.34,1.4,5.8,5.8,0,0,1,1.18,3.88Zm-1.8-1.49a3.58,3.58,0,0,0-.74-2.38,2.51,2.51,0,0,0-2-.85,2.84,2.84,0,0,0-2.12.9,4,4,0,0,0-1.07,2.33Z"/><path class="cls-2" d="M272.91,53.9h-1.76V47.63c0-2.34-.86-3.51-2.56-3.51a2.8,2.8,0,0,0-2.19,1,3.71,3.71,0,0,0-.86,2.51V53.9h-1.76v-11h1.76v1.83h0a4,4,0,0,1,3.61-2.09A3.37,3.37,0,0,1,272,43.81a5.17,5.17,0,0,1,1,3.37Z"/><path class="cls-2" d="M291.09,48.84h-7.76a4.15,4.15,0,0,0,1,2.84,3.42,3.42,0,0,0,2.6,1,5.4,5.4,0,0,0,3.41-1.23V53.1a6.3,6.3,0,0,1-3.83,1.06,4.66,4.66,0,0,1-3.67-1.5,6.19,6.19,0,0,1-1.33-4.22A6,6,0,0,1,283,44.26a4.65,4.65,0,0,1,3.61-1.62,4.13,4.13,0,0,1,3.34,1.4,5.8,5.8,0,0,1,1.18,3.88Zm-1.8-1.49a3.58,3.58,0,0,0-.74-2.38,2.51,2.51,0,0,0-2-.85,2.84,2.84,0,0,0-2.12.9,4,4,0,0,0-1.07,2.33Z"/><path class="cls-2" d="M299.5,44.68a2.37,2.37,0,0,0-3.22.71,4.89,4.89,0,0,0-.76,2.9V53.9h-1.76v-11h1.76v2.27h0a3.83,3.83,0,0,1,1.15-1.81,2.59,2.59,0,0,1,1.73-.65,2.94,2.94,0,0,1,1.06.15Z"/><path class="cls-2" d="M302.75,54.09a1.14,1.14,0,0,1-.84-.34,1.18,1.18,0,0,1,0-1.68,1.15,1.15,0,0,1,.84-.35,1.18,1.18,0,0,1,.84.35,1.18,1.18,0,0,1,0,1.68A1.17,1.17,0,0,1,302.75,54.09Zm.9-15.59-.2,11.06H302l-.2-11.06Z"/></g><g class="cls-1"><path class="cls-2" d="M41.71,66.53h-6v5.33h5.56v1.62H35.7V80.3H33.89V64.9h7.82Z"/><path class="cls-2" d="M53.29,80.3H51.53V78.56h0a3.62,3.62,0,0,1-3.39,2q-3.94,0-3.94-4.69V69.3h1.76v6.29c0,2.33.88,3.49,2.66,3.49a2.67,2.67,0,0,0,2.12-1,3.59,3.59,0,0,0,.83-2.48V69.3h1.76Z"/><path class="cls-2" d="M64.35,79.79a5.73,5.73,0,0,1-3,.77A5,5,0,0,1,57.54,79a5.57,5.57,0,0,1-1.44-4,6.11,6.11,0,0,1,1.56-4.37A5.42,5.42,0,0,1,61.81,69a5.77,5.77,0,0,1,2.56.54v1.8a4.51,4.51,0,0,0-2.62-.86A3.56,3.56,0,0,0,59,71.73a4.61,4.61,0,0,0-1.08,3.18,4.36,4.36,0,0,0,1,3,3.51,3.51,0,0,0,2.72,1.12,4.42,4.42,0,0,0,2.71-1Z"/><path class="cls-2" d="M76.14,80.3H73.67L68.82,75h0V80.3H67V64h1.76V74.34h0l4.62-5h2.31l-5.11,5.31Z"/><path class="cls-2" d="M93.36,80.3H91.6V78.43h0a4.07,4.07,0,0,1-3.78,2.13,4.11,4.11,0,0,1-3.32-1.48,6.09,6.09,0,0,1-1.24-4,6.56,6.56,0,0,1,1.38-4.37A4.52,4.52,0,0,1,88.26,69a3.54,3.54,0,0,1,3.3,1.79h0V64h1.76Zm-1.76-5V73.7a3.12,3.12,0,0,0-.88-2.25,2.94,2.94,0,0,0-2.23-.93A3,3,0,0,0,86,71.71,5.12,5.12,0,0,0,85,75a4.64,4.64,0,0,0,.88,3,2.89,2.89,0,0,0,2.38,1.11A3,3,0,0,0,90.68,78,3.91,3.91,0,0,0,91.6,75.33Z"/><path class="cls-2" d="M105.77,75.24H98a4.15,4.15,0,0,0,1,2.84,3.43,3.43,0,0,0,2.6,1A5.4,5.4,0,0,0,105,77.85V79.5a6.35,6.35,0,0,1-3.84,1.06,4.65,4.65,0,0,1-3.66-1.5,6.14,6.14,0,0,1-1.33-4.22,6,6,0,0,1,1.45-4.18A4.67,4.67,0,0,1,101.25,69a4.14,4.14,0,0,1,3.34,1.4,5.8,5.8,0,0,1,1.18,3.88ZM104,73.75a3.64,3.64,0,0,0-.74-2.38,2.51,2.51,0,0,0-2-.85,2.83,2.83,0,0,0-2.12.9A4,4,0,0,0,98,73.75Z"/><path class="cls-2" d="M113.54,80.19a3.42,3.42,0,0,1-1.65.35c-1.92,0-2.89-1.08-2.89-3.23V70.8h-1.89V69.3H109V66.61l1.77-.57V69.3h2.77v1.5h-2.77V77a2.57,2.57,0,0,0,.37,1.58,1.49,1.49,0,0,0,1.25.47,1.9,1.9,0,0,0,1.15-.36Z"/><path class="cls-2" d="M137.54,80.3h-1.77V74a4.73,4.73,0,0,0-.56-2.64,2.16,2.16,0,0,0-1.9-.82,2.33,2.33,0,0,0-1.91,1,3.91,3.91,0,0,0-.79,2.47V80.3h-1.77V73.77c0-2.16-.83-3.25-2.5-3.25a2.32,2.32,0,0,0-1.91,1,4,4,0,0,0-.75,2.53V80.3h-1.76v-11h1.76V71h0a3.74,3.74,0,0,1,3.42-2,3.18,3.18,0,0,1,3.11,2.28A3.93,3.93,0,0,1,133.9,69c2.42,0,3.64,1.5,3.64,4.48Z"/><path class="cls-2" d="M148.74,80.3H147V78.58h0a3.67,3.67,0,0,1-3.38,2,3.62,3.62,0,0,1-2.57-.87,3,3,0,0,1-.93-2.31c0-2.06,1.21-3.25,3.63-3.59l3.3-.46c0-1.87-.76-2.81-2.27-2.81a5.45,5.45,0,0,0-3.59,1.36V70.07a6.88,6.88,0,0,1,3.74-1q3.88,0,3.88,4.11ZM147,74.74l-2.66.36a4.21,4.21,0,0,0-1.84.61,1.74,1.74,0,0,0-.63,1.54,1.68,1.68,0,0,0,.58,1.32,2.21,2.21,0,0,0,1.53.51,2.83,2.83,0,0,0,2.16-.92,3.3,3.3,0,0,0,.86-2.33Zm-2.34-7.07a2.22,2.22,0,0,1-1.56-.57,1.9,1.9,0,0,1-.61-1.47,2,2,0,0,1,.63-1.55,2.27,2.27,0,0,1,1.61-.58,2.18,2.18,0,0,1,1.57.58,2,2,0,0,1,.61,1.48,2,2,0,0,1-.65,1.51A2.29,2.29,0,0,1,144.64,67.67Zm0-3.3a1.16,1.16,0,0,0-.86.35,1.18,1.18,0,0,0-.35.86,1.07,1.07,0,0,0,1.21,1.21,1.25,1.25,0,0,0,.89-.35,1.16,1.16,0,0,0,.35-.86,1.18,1.18,0,0,0-.35-.87A1.24,1.24,0,0,0,144.64,64.37Z"/><path class="cls-2" d="M166.73,69.3l-4.38,11h-1.73l-4.17-11h1.94l2.79,8a7.08,7.08,0,0,1,.39,1.54h0a7.19,7.19,0,0,1,.34-1.5l2.92-8Z"/><path class="cls-2" d="M184.26,75.24h-7.78a4.09,4.09,0,0,0,1,2.84,3.43,3.43,0,0,0,2.59,1,5.4,5.4,0,0,0,3.45-1.23V79.5a6.28,6.28,0,0,1-3.85,1.06,4.23,4.23,0,0,1-4.11-2.46h0a4.74,4.74,0,0,1-4.16,2.46,3.63,3.63,0,0,1-2.58-.87,3,3,0,0,1-.94-2.31q0-3.22,4.11-3.48l2.82-.17c0-2.14-.78-3.21-2.31-3.21a5.66,5.66,0,0,0-3.55,1.31V70.07a6.79,6.79,0,0,1,3.74-1,3.06,3.06,0,0,1,3.22,2.15h0a4.59,4.59,0,0,1,7.19-.75,5.83,5.83,0,0,1,1.19,3.9Zm-9.52.66v-.68l-2.19.13a5.09,5.09,0,0,0-2.22.52,1.76,1.76,0,0,0-.17,2.73,2.31,2.31,0,0,0,1.54.48,2.89,2.89,0,0,0,2.15-.91A3.15,3.15,0,0,0,174.74,75.9Zm7.72-2.15a3.69,3.69,0,0,0-.74-2.39,2.46,2.46,0,0,0-2-.84,3,3,0,0,0-2.14.89,3.89,3.89,0,0,0-1.09,2.34Z"/><path class="cls-2" d="M192.66,71.08a2.17,2.17,0,0,0-1.33-.35,2.23,2.23,0,0,0-1.88,1.06,4.89,4.89,0,0,0-.76,2.9V80.3h-1.76v-11h1.76v2.27h0a3.83,3.83,0,0,1,1.15-1.81,2.59,2.59,0,0,1,1.73-.65,2.85,2.85,0,0,1,1,.15Z"/><path class="cls-2" d="M203.42,75.24h-7.77a4.15,4.15,0,0,0,1,2.84,3.42,3.42,0,0,0,2.6,1,5.36,5.36,0,0,0,3.41-1.23V79.5a6.3,6.3,0,0,1-3.83,1.06,4.63,4.63,0,0,1-3.66-1.5,6.14,6.14,0,0,1-1.34-4.22,6,6,0,0,1,1.46-4.18A4.67,4.67,0,0,1,198.89,69a4.16,4.16,0,0,1,3.35,1.4,5.86,5.86,0,0,1,1.18,3.88Zm-1.81-1.49a3.58,3.58,0,0,0-.73-2.38,2.55,2.55,0,0,0-2-.85,2.82,2.82,0,0,0-2.11.9,4.06,4.06,0,0,0-1.08,2.33Z"/><path class="cls-2" d="M221.24,80.3h-2.47L213.91,75h0V80.3h-1.76V64h1.76V74.34h0l4.62-5h2.31l-5.1,5.31Z"/><path class="cls-2" d="M232.17,80.3h-1.76V74q0-3.51-2.55-3.51a2.79,2.79,0,0,0-2.19,1A3.67,3.67,0,0,0,224.8,74V80.3H223v-11h1.76v1.83h0A4,4,0,0,1,228.46,69a3.37,3.37,0,0,1,2.76,1.17,5.17,5.17,0,0,1,.95,3.37Z"/><path class="cls-2" d="M236.4,66.51a1.1,1.1,0,0,1-.81-.33,1.07,1.07,0,0,1-.33-.81,1.13,1.13,0,0,1,1.14-1.15,1.14,1.14,0,0,1,.82.33,1.15,1.15,0,0,1-.82,2Zm.85,13.79h-1.76v-11h1.76Z"/><path class="cls-2" d="M249.47,69.3l-4.38,11h-1.73l-4.17-11h1.93l2.8,8a7.61,7.61,0,0,1,.38,1.54h0a7.87,7.87,0,0,1,.35-1.5l2.92-8Z"/><path class="cls-2" d="M265.26,80.3H263.5V78.58h0a3.7,3.7,0,0,1-3.39,2,3.62,3.62,0,0,1-2.57-.87,3,3,0,0,1-.93-2.31c0-2.06,1.21-3.25,3.63-3.59l3.3-.46c0-1.87-.76-2.81-2.27-2.81a5.45,5.45,0,0,0-3.59,1.36V70.07a6.88,6.88,0,0,1,3.74-1q3.89,0,3.88,4.11Zm-1.76-5.56-2.66.36a4.21,4.21,0,0,0-1.84.61,1.74,1.74,0,0,0-.63,1.54,1.71,1.71,0,0,0,.58,1.32,2.21,2.21,0,0,0,1.53.51,2.83,2.83,0,0,0,2.16-.92,3.3,3.3,0,0,0,.86-2.33Z"/><path class="cls-2" d="M273.68,80.19a3.36,3.36,0,0,1-1.64.35q-2.9,0-2.89-3.23V70.8h-1.89V69.3h1.89V66.61l1.76-.57V69.3h2.77v1.5h-2.77V77a2.56,2.56,0,0,0,.38,1.58,1.47,1.47,0,0,0,1.24.47,1.86,1.86,0,0,0,1.15-.36Z"/><path class="cls-2" d="M281.39,79.9V78a5.22,5.22,0,0,0,3.17,1.07c1.55,0,2.32-.52,2.32-1.55a1.37,1.37,0,0,0-.19-.75,2.31,2.31,0,0,0-.54-.54,3.75,3.75,0,0,0-.8-.42l-1-.4a13.26,13.26,0,0,1-1.28-.58,4,4,0,0,1-.93-.67,2.75,2.75,0,0,1-.56-.84,3.15,3.15,0,0,1-.18-1.11,2.61,2.61,0,0,1,.35-1.37,3.12,3.12,0,0,1,1-1,4.19,4.19,0,0,1,1.34-.6,5.89,5.89,0,0,1,1.57-.21,6.27,6.27,0,0,1,2.55.5v1.78a5,5,0,0,0-2.79-.8,3,3,0,0,0-.89.12,2.13,2.13,0,0,0-.68.31,1.46,1.46,0,0,0-.44.49,1.23,1.23,0,0,0-.16.63,1.42,1.42,0,0,0,.16.72,1.57,1.57,0,0,0,.45.52,3.57,3.57,0,0,0,.73.4c.29.13.62.26,1,.4a13.77,13.77,0,0,1,1.31.58,4.37,4.37,0,0,1,1,.66,2.54,2.54,0,0,1,.85,2,2.69,2.69,0,0,1-.36,1.41,3,3,0,0,1-1,1,4.14,4.14,0,0,1-1.39.59,6.76,6.76,0,0,1-1.64.2A6.23,6.23,0,0,1,281.39,79.9Z"/><path class="cls-2" d="M300.24,75.24h-7.77a4.15,4.15,0,0,0,1,2.84,3.43,3.43,0,0,0,2.6,1,5.36,5.36,0,0,0,3.41-1.23V79.5a6.3,6.3,0,0,1-3.83,1.06,4.62,4.62,0,0,1-3.66-1.5,6.14,6.14,0,0,1-1.34-4.22,6,6,0,0,1,1.46-4.18A4.65,4.65,0,0,1,295.71,69a4.13,4.13,0,0,1,3.34,1.4,5.81,5.81,0,0,1,1.19,3.88Zm-1.81-1.49a3.64,3.64,0,0,0-.73-2.38,2.55,2.55,0,0,0-2-.85,2.82,2.82,0,0,0-2.11.9,4.06,4.06,0,0,0-1.08,2.33Z"/></g><g class="cls-1"><path class="cls-2" d="M33,106.3v-1.89a5.22,5.22,0,0,0,3.17,1.07c1.55,0,2.32-.52,2.32-1.55a1.29,1.29,0,0,0-.2-.75,2.08,2.08,0,0,0-.53-.54,4,4,0,0,0-.8-.42l-1-.4a13.51,13.51,0,0,1-1.29-.58,3.9,3.9,0,0,1-.92-.67,2.48,2.48,0,0,1-.56-.84A3.14,3.14,0,0,1,33,98.62a2.62,2.62,0,0,1,.36-1.37,3.09,3.09,0,0,1,.94-1,4.59,4.59,0,0,1,1.35-.6,5.87,5.87,0,0,1,1.56-.21,6.29,6.29,0,0,1,2.56.5v1.78a5,5,0,0,0-2.79-.8,3,3,0,0,0-.89.12,2.19,2.19,0,0,0-.69.31,1.57,1.57,0,0,0-.44.49,1.33,1.33,0,0,0-.15.63,1.54,1.54,0,0,0,.15.72,1.73,1.73,0,0,0,.46.52,3.8,3.8,0,0,0,.73.41l1,.39a13.77,13.77,0,0,1,1.31.58,4.37,4.37,0,0,1,1,.66,2.77,2.77,0,0,1,.63.86,2.84,2.84,0,0,1,.22,1.15,2.69,2.69,0,0,1-.36,1.41,2.9,2.9,0,0,1-1,1,4.09,4.09,0,0,1-1.38.59,6.76,6.76,0,0,1-1.64.2A6.21,6.21,0,0,1,33,106.3Z"/><path class="cls-2" d="M50.87,106.7H49.11V105h0a3.67,3.67,0,0,1-3.38,2,3.6,3.6,0,0,1-2.57-.87,3,3,0,0,1-.93-2.31c0-2.06,1.21-3.25,3.63-3.59l3.3-.46c0-1.87-.76-2.81-2.27-2.81a5.44,5.44,0,0,0-3.59,1.36V96.47a6.88,6.88,0,0,1,3.74-1c2.58,0,3.88,1.37,3.88,4.11Zm-1.76-5.56-2.66.36a4.45,4.45,0,0,0-1.85.61,1.76,1.76,0,0,0-.62,1.54,1.67,1.67,0,0,0,.58,1.32,2.21,2.21,0,0,0,1.53.51,2.83,2.83,0,0,0,2.16-.92,3.3,3.3,0,0,0,.86-2.33Zm-2.35-7.07a2.2,2.2,0,0,1-1.55-.57A1.9,1.9,0,0,1,44.59,92a2,2,0,0,1,.64-1.55,2.27,2.27,0,0,1,1.61-.58,2.18,2.18,0,0,1,1.57.58A2,2,0,0,1,49,92a2,2,0,0,1-.66,1.51A2.27,2.27,0,0,1,46.76,94.07Zm0-3.3A1.18,1.18,0,0,0,45.56,92a1.06,1.06,0,0,0,1.2,1.21,1.25,1.25,0,0,0,.9-.35A1.16,1.16,0,0,0,48,92a1.18,1.18,0,0,0-.35-.87A1.25,1.25,0,0,0,46.76,90.77Z"/><path class="cls-2" d="M63.58,106.7H61.81v-1.87h0a4.43,4.43,0,0,1-7.09.65,6,6,0,0,1-1.25-4,6.56,6.56,0,0,1,1.38-4.37,4.53,4.53,0,0,1,3.66-1.65,3.54,3.54,0,0,1,3.3,1.79h0V90.42h1.77Zm-1.77-5V100.1a3.12,3.12,0,0,0-.88-2.25,2.93,2.93,0,0,0-2.23-.93,3,3,0,0,0-2.54,1.19,5.18,5.18,0,0,0-.92,3.26,4.59,4.59,0,0,0,.89,3,2.88,2.88,0,0,0,2.37,1.11,3,3,0,0,0,2.4-1.07A4,4,0,0,0,61.81,101.73Z"/><path class="cls-2" d="M75,106.7H73.25V105h0a3.68,3.68,0,0,1-3.38,2,3.63,3.63,0,0,1-2.58-.87,3,3,0,0,1-.92-2.31c0-2.06,1.21-3.25,3.63-3.59l3.29-.46c0-1.87-.75-2.81-2.26-2.81a5.44,5.44,0,0,0-3.59,1.36V96.47a6.88,6.88,0,0,1,3.74-1c2.58,0,3.88,1.37,3.88,4.11Zm-1.77-5.56-2.65.36a4.4,4.4,0,0,0-1.85.61,1.76,1.76,0,0,0-.62,1.54A1.69,1.69,0,0,0,68.7,105a2.25,2.25,0,0,0,1.54.51,2.83,2.83,0,0,0,2.16-.92,3.3,3.3,0,0,0,.85-2.33Z"/><path class="cls-2" d="M87.47,106.7H85.7v-6.27q0-3.51-2.55-3.51a2.8,2.8,0,0,0-2.19,1,3.66,3.66,0,0,0-.86,2.51v6.27H78.33v-11H80.1v1.83h0a4,4,0,0,1,3.61-2.09,3.37,3.37,0,0,1,2.76,1.17,5.17,5.17,0,0,1,1,3.37Z"/><path class="cls-2" d="M105.71,106.7h-1.77V105h0a3.62,3.62,0,0,1-3.39,2q-3.93,0-3.93-4.69V95.7h1.75V102c0,2.32.88,3.48,2.66,3.48a2.67,2.67,0,0,0,2.12-1,3.59,3.59,0,0,0,.83-2.48V95.7h1.77Z"/><path class="cls-2" d="M118.65,106.7h-1.76v-1.87h0a4.44,4.44,0,0,1-7.1.65,6,6,0,0,1-1.24-4,6.61,6.61,0,0,1,1.37-4.37,4.54,4.54,0,0,1,3.67-1.65,3.54,3.54,0,0,1,3.3,1.79h0V90.42h1.76Zm-1.76-5V100.1a3.17,3.17,0,0,0-.88-2.25,3,3,0,0,0-2.24-.93,3,3,0,0,0-2.53,1.19,5.12,5.12,0,0,0-.93,3.26,4.64,4.64,0,0,0,.89,3,2.88,2.88,0,0,0,2.38,1.11,3,3,0,0,0,2.39-1.07A4,4,0,0,0,116.89,101.73Z"/></g></g><use class="cls-1" transform="translate(175.5 6.5) scale(0.18)" xlink:href="#image"/><use class="cls-1" transform="translate(206.25 6.5) scale(0.18)" xlink:href="#image"/><use class="cls-1" transform="translate(237.25 6.5) scale(0.18)" xlink:href="#image"/><use class="cls-1" transform="translate(267.63 6.5) scale(0.18)" xlink:href="#image"/><use class="cls-1" transform="translate(126 84.41) scale(0.18 0.18)" xlink:href="#image-2"/><use class="cls-1" transform="translate(153.66 84.41) scale(0.18 0.18)" xlink:href="#image-2"/><use class="cls-1" transform="translate(182.16 84.41) scale(0.18 0.18)" xlink:href="#image-2"/><path class="cls-3" d="M250,123.5h32.7A32.48,32.48,0,0,0,315,91.2V35.8A32.48,32.48,0,0,0,282.7,3.5H37.3A32.48,32.48,0,0,0,5,35.8V91.2a32.48,32.48,0,0,0,32.3,32.3H250Z"/><g class="cls-1"><g class="cls-1"><path class="cls-2" d="M36.76,30.5H35v-7H27v7h-1.8V15.1H27v6.75h8V15.1h1.81Z"/><path class="cls-2" d="M52.72,30.5h-2l-1.63-4.32H42.56L41,30.5H39l5.91-15.4h1.87ZM48.5,24.56,46.08,18a6.53,6.53,0,0,1-.23-1H45.8a6,6,0,0,1-.24,1l-2.4,6.56Z"/><path class="cls-2" d="M66.57,30.5H64.76v-7h-8v7H55V15.1h1.8v6.75h8V15.1h1.81Z"/><path class="cls-2" d="M82.53,30.5h-2L78.9,26.18H72.37L70.83,30.5h-2l5.91-15.4H76.6Zm-4.22-5.94L75.89,18a5.57,5.57,0,0,1-.23-1h0a6,6,0,0,1-.24,1L73,24.56Z"/><path class="cls-2" d="M96.38,30.5H94.57v-7h-8v7H84.8V15.1h1.8v6.75h8V15.1h1.81Z"/><path class="cls-2" d="M112,30.5h-1.81v-7h-8v7h-1.8V15.1h1.8v6.75h8V15.1H112Z"/><path class="cls-2" d="M128,30.5h-2l-1.63-4.32H117.8l-1.54,4.32h-2l5.91-15.4H122Zm-4.22-5.94L121.32,18a6.3,6.3,0,0,1-.24-1h0a5.12,5.12,0,0,1-.25,1l-2.39,6.56Z"/><path class="cls-2" d="M141.81,30.5H140v-7h-8v7h-1.8V15.1H132v6.75h8V15.1h1.81Z"/><path class="cls-2" d="M157.77,30.5h-2l-1.63-4.32h-6.53l-1.54,4.32h-2L150,15.1h1.87Zm-4.22-5.94L151.13,18a6.3,6.3,0,0,1-.24-1h0a5.12,5.12,0,0,1-.25,1l-2.39,6.56Z"/><path class="cls-2" d="M161.14,30.69a1.19,1.19,0,0,1,0-2.37,1.18,1.18,0,0,1,.84.35,1.18,1.18,0,0,1,0,1.68A1.17,1.17,0,0,1,161.14,30.69ZM162,15.1l-.2,11.06h-1.45L160.2,15.1Z"/></g><g class="cls-1"><path class="cls-2" d="M27,51.08V56.9h-1.8V41.5h4.23a5.6,5.6,0,0,1,3.83,1.2,4.27,4.27,0,0,1,1.36,3.39,4.66,4.66,0,0,1-1.51,3.59A5.77,5.77,0,0,1,29,51.08Zm0-7.95v6.31h1.89a4.25,4.25,0,0,0,2.86-.85,3,3,0,0,0,1-2.41q0-3-3.61-3Z"/><path class="cls-2" d="M43,47.68a2.19,2.19,0,0,0-1.33-.35,2.26,2.26,0,0,0-1.89,1.06,5,5,0,0,0-.75,2.9V56.9H37.26v-11H39v2.27h0a3.76,3.76,0,0,1,1.15-1.81A2.57,2.57,0,0,1,42,45.71a2.85,2.85,0,0,1,1,.15Z"/><path class="cls-2" d="M55.74,45.64l-1.8,1.94A6.23,6.23,0,0,1,55,51.29a6,6,0,0,1-1.49,4.29,5.85,5.85,0,0,1-7.41.48l-1.55,1.72-.88-.84,1.6-1.76a6,6,0,0,1-1.1-3.65,5.91,5.91,0,0,1,1.53-4.33,5.46,5.46,0,0,1,4.1-1.56,5.18,5.18,0,0,1,3.31,1l1.74-1.89ZM52,47.92a3.26,3.26,0,0,0-2.31-.8A3.34,3.34,0,0,0,47,48.28a4.73,4.73,0,0,0-1,3.18,5,5,0,0,0,.54,2.41Zm.75,1-5.46,5.93a3.53,3.53,0,0,0,2.38.82,3.29,3.29,0,0,0,2.67-1.12,4.88,4.88,0,0,0,.92-3.16A5.53,5.53,0,0,0,52.7,48.93Z"/><path class="cls-2" d="M66.45,45.9l-4.38,11H60.34l-4.17-11H58.1l2.8,8a7.61,7.61,0,0,1,.38,1.54h0a7,7,0,0,1,.34-1.49l2.92-8Z"/><path class="cls-2" d="M82.24,56.9H80.48V55.18h0a3.7,3.7,0,0,1-3.39,2,3.62,3.62,0,0,1-2.57-.87A3,3,0,0,1,73.55,54c0-2.06,1.21-3.25,3.63-3.59l3.3-.46c0-1.87-.76-2.81-2.27-2.81a5.41,5.41,0,0,0-3.58,1.36V46.67a6.85,6.85,0,0,1,3.73-1q3.89,0,3.88,4.11Zm-1.76-5.56-2.65.36a4.21,4.21,0,0,0-1.85.61,1.73,1.73,0,0,0-.62,1.54,1.7,1.7,0,0,0,.57,1.32,2.21,2.21,0,0,0,1.53.51,2.86,2.86,0,0,0,2.17-.92,3.34,3.34,0,0,0,.85-2.33Z"/><path class="cls-2" d="M90.66,56.79a3.36,3.36,0,0,1-1.64.35q-2.89,0-2.89-3.23V47.4H84.24V45.9h1.89V43.21l1.76-.56V45.9h2.77v1.5H87.89v6.2a2.56,2.56,0,0,0,.38,1.58,1.47,1.47,0,0,0,1.24.47,1.86,1.86,0,0,0,1.15-.36Z"/><path class="cls-2" d="M98.38,56.5V54.61a5.2,5.2,0,0,0,3.16,1.07c1.55,0,2.33-.52,2.33-1.55a1.37,1.37,0,0,0-.2-.75,2.31,2.31,0,0,0-.54-.54,3.75,3.75,0,0,0-.8-.42l-1-.4a13.26,13.26,0,0,1-1.28-.58,4,4,0,0,1-.93-.67,2.55,2.55,0,0,1-.55-.84,2.93,2.93,0,0,1-.19-1.11,2.71,2.71,0,0,1,.35-1.37,3.12,3.12,0,0,1,1-1,4.37,4.37,0,0,1,1.35-.6,5.76,5.76,0,0,1,1.56-.21,6.35,6.35,0,0,1,2.56.5v1.78a5,5,0,0,0-2.8-.8,3.09,3.09,0,0,0-.89.12,2.24,2.24,0,0,0-.68.31,1.46,1.46,0,0,0-.44.49,1.23,1.23,0,0,0-.16.63,1.42,1.42,0,0,0,.16.72,1.57,1.57,0,0,0,.45.52,3.57,3.57,0,0,0,.73.4c.29.13.62.26,1,.4a12.72,12.72,0,0,1,1.31.58,4.37,4.37,0,0,1,1,.66,2.54,2.54,0,0,1,.85,2,2.69,2.69,0,0,1-.36,1.41,3,3,0,0,1-1,1A4.06,4.06,0,0,1,103,57a6.76,6.76,0,0,1-1.64.2A6.19,6.19,0,0,1,98.38,56.5Z"/><path class="cls-2" d="M117.22,51.84h-7.77a4.15,4.15,0,0,0,1,2.84,3.43,3.43,0,0,0,2.6,1,5.4,5.4,0,0,0,3.42-1.23V56.1a6.35,6.35,0,0,1-3.84,1.06,4.63,4.63,0,0,1-3.66-1.5,6.14,6.14,0,0,1-1.33-4.22,6,6,0,0,1,1.45-4.18,4.67,4.67,0,0,1,3.62-1.62A4.16,4.16,0,0,1,116,47a5.86,5.86,0,0,1,1.18,3.88Zm-1.81-1.49a3.58,3.58,0,0,0-.73-2.38,2.55,2.55,0,0,0-2-.85,2.82,2.82,0,0,0-2.11.9,4.06,4.06,0,0,0-1.08,2.33Z"/><path class="cls-2" d="M135,56.9h-1.76V50.56c0-2.29-.86-3.44-2.56-3.44a2.8,2.8,0,0,0-2.17,1,3.68,3.68,0,0,0-.88,2.55V56.9h-1.76V40.61h1.76v7.12h0a4,4,0,0,1,3.61-2.09c2.48,0,3.72,1.5,3.72,4.48Z"/><path class="cls-2" d="M147,45.9l-4.39,11h-1.73l-4.16-11h1.93l2.79,8a7.08,7.08,0,0,1,.39,1.54h0a6.93,6.93,0,0,1,.35-1.49l2.92-8Z"/><path class="cls-2" d="M153.49,57.16a5.13,5.13,0,0,1-3.89-1.54,5.72,5.72,0,0,1-1.46-4.09,6,6,0,0,1,1.52-4.33,5.43,5.43,0,0,1,4.09-1.56,4.93,4.93,0,0,1,3.84,1.52,6,6,0,0,1,1.38,4.2,5.86,5.86,0,0,1-1.49,4.21A5.2,5.2,0,0,1,153.49,57.16Zm.13-10a3.35,3.35,0,0,0-2.68,1.16,4.73,4.73,0,0,0-1,3.18,4.47,4.47,0,0,0,1,3.09,3.39,3.39,0,0,0,2.67,1.13,3.22,3.22,0,0,0,2.63-1.11,4.83,4.83,0,0,0,.92-3.15,4.92,4.92,0,0,0-.92-3.18A3.22,3.22,0,0,0,153.62,47.12Z"/><path class="cls-2" d="M167.52,47.68a2.17,2.17,0,0,0-1.33-.35,2.23,2.23,0,0,0-1.88,1.06,4.89,4.89,0,0,0-.76,2.9V56.9h-1.76v-11h1.76v2.27h0a3.83,3.83,0,0,1,1.15-1.81,2.59,2.59,0,0,1,1.73-.65,2.85,2.85,0,0,1,1.05.15Z"/><path class="cls-2" d="M174.8,56.5V54.61A5.2,5.2,0,0,0,178,55.68c1.55,0,2.33-.52,2.33-1.55a1.37,1.37,0,0,0-.2-.75,2.13,2.13,0,0,0-.54-.54,3.75,3.75,0,0,0-.8-.42l-1-.4a13.26,13.26,0,0,1-1.28-.58,4,4,0,0,1-.93-.67,2.55,2.55,0,0,1-.55-.84,2.93,2.93,0,0,1-.19-1.11,2.71,2.71,0,0,1,.35-1.37,3.12,3.12,0,0,1,1-1,4.37,4.37,0,0,1,1.35-.6,5.76,5.76,0,0,1,1.56-.21,6.27,6.27,0,0,1,2.55.5v1.78a5,5,0,0,0-2.79-.8,3.09,3.09,0,0,0-.89.12,2.24,2.24,0,0,0-.68.31,1.46,1.46,0,0,0-.44.49,1.23,1.23,0,0,0-.16.63,1.42,1.42,0,0,0,.16.72,1.57,1.57,0,0,0,.45.52,3.57,3.57,0,0,0,.73.4c.29.13.62.26,1,.4a12.72,12.72,0,0,1,1.31.58,4.37,4.37,0,0,1,1,.66,2.54,2.54,0,0,1,.85,2,2.69,2.69,0,0,1-.36,1.41,3,3,0,0,1-1,1,4.06,4.06,0,0,1-1.39.59,6.76,6.76,0,0,1-1.64.2A6.19,6.19,0,0,1,174.8,56.5Z"/><path class="cls-2" d="M193.93,56.9h-2.47l-4.86-5.29h0V56.9H184.8V40.61h1.76V50.94h0l4.62-5h2.31l-5.1,5.31Z"/><path class="cls-2" d="M211.37,51.84h-7.79a4.15,4.15,0,0,0,1,2.84,3.43,3.43,0,0,0,2.59,1,5.4,5.4,0,0,0,3.45-1.23V56.1a6.28,6.28,0,0,1-3.85,1.06,4.23,4.23,0,0,1-4.11-2.46h0a4.74,4.74,0,0,1-4.16,2.46,3.63,3.63,0,0,1-2.58-.87,3,3,0,0,1-.94-2.31q0-3.23,4.11-3.48l2.81-.17c0-2.14-.76-3.21-2.3-3.21A5.61,5.61,0,0,0,196,48.44V46.67a6.79,6.79,0,0,1,3.74-1A3.06,3.06,0,0,1,203,47.79h0a4.59,4.59,0,0,1,7.19-.75,5.83,5.83,0,0,1,1.19,3.9Zm-9.53.66v-.68l-2.18.13a5.09,5.09,0,0,0-2.22.52,1.76,1.76,0,0,0-.17,2.73,2.3,2.3,0,0,0,1.53.48,2.89,2.89,0,0,0,2.16-.91A3.14,3.14,0,0,0,201.84,52.5Zm7.73-2.15a3.69,3.69,0,0,0-.74-2.39,2.46,2.46,0,0,0-2-.84,3,3,0,0,0-2.14.89,3.89,3.89,0,0,0-1.09,2.34Z"/><path class="cls-2" d="M222.68,45.9l-4.38,11h-1.73l-4.17-11h1.94l2.79,8a7.08,7.08,0,0,1,.39,1.54h0a7.6,7.6,0,0,1,.34-1.49l2.93-8Z"/><path class="cls-2" d="M240,56.9h-1.76V55h0a4.44,4.44,0,0,1-7.1.65,6,6,0,0,1-1.24-4,6.61,6.61,0,0,1,1.37-4.37,4.54,4.54,0,0,1,3.67-1.65,3.54,3.54,0,0,1,3.3,1.79h0V40.61H240Zm-1.76-5V50.3a3.17,3.17,0,0,0-.88-2.25,3,3,0,0,0-2.24-.93,3,3,0,0,0-2.53,1.19,5.12,5.12,0,0,0-.93,3.26,4.64,4.64,0,0,0,.89,3,2.88,2.88,0,0,0,2.38,1.11,3,3,0,0,0,2.39-1.07A4,4,0,0,0,238.23,51.93Z"/><path class="cls-2" d="M252.4,51.84h-7.77a4.15,4.15,0,0,0,1,2.84,3.43,3.43,0,0,0,2.6,1,5.36,5.36,0,0,0,3.41-1.23V56.1a6.3,6.3,0,0,1-3.83,1.06,4.63,4.63,0,0,1-3.66-1.5,6.14,6.14,0,0,1-1.34-4.22,6,6,0,0,1,1.46-4.18,4.67,4.67,0,0,1,3.62-1.62,4.16,4.16,0,0,1,3.34,1.4,5.86,5.86,0,0,1,1.18,3.88Zm-1.81-1.49a3.58,3.58,0,0,0-.73-2.38,2.55,2.55,0,0,0-2-.85,2.82,2.82,0,0,0-2.11.9,4.06,4.06,0,0,0-1.08,2.33Z"/><path class="cls-2" d="M264.19,56.9h-1.76V50.63q0-3.51-2.56-3.51a2.77,2.77,0,0,0-2.18,1,3.67,3.67,0,0,0-.87,2.51V56.9h-1.76v-11h1.76v1.83h.05a4,4,0,0,1,3.61-2.09,3.37,3.37,0,0,1,2.76,1.17,5.23,5.23,0,0,1,.95,3.37Z"/><path class="cls-2" d="M282.38,51.84h-7.77a4.15,4.15,0,0,0,1,2.84,3.43,3.43,0,0,0,2.6,1,5.4,5.4,0,0,0,3.42-1.23V56.1a6.35,6.35,0,0,1-3.84,1.06,4.65,4.65,0,0,1-3.66-1.5,6.14,6.14,0,0,1-1.33-4.22,6,6,0,0,1,1.45-4.18,4.67,4.67,0,0,1,3.62-1.62A4.14,4.14,0,0,1,281.2,47a5.8,5.8,0,0,1,1.18,3.88Zm-1.81-1.49a3.58,3.58,0,0,0-.73-2.38,2.53,2.53,0,0,0-2-.85,2.82,2.82,0,0,0-2.11.9,4.06,4.06,0,0,0-1.08,2.33Z"/><path class="cls-2" d="M290.78,47.68a2.19,2.19,0,0,0-1.33-.35,2.26,2.26,0,0,0-1.89,1.06,5,5,0,0,0-.76,2.9V56.9H285v-11h1.76v2.27h.05A3.76,3.76,0,0,1,288,46.36a2.57,2.57,0,0,1,1.73-.65,2.88,2.88,0,0,1,1,.15Z"/><path class="cls-2" d="M294,57.09a1.19,1.19,0,1,1,.84-2,1.16,1.16,0,0,1,0,1.68A1.14,1.14,0,0,1,294,57.09Zm.91-15.59-.21,11.06h-1.45l-.19-11.06Z"/></g><g class="cls-1"><path class="cls-2" d="M33,69.53H27v5.33h5.57v1.62H27V83.3h-1.8V67.9H33Z"/><path class="cls-2" d="M44.58,83.3H42.82V81.56h0a3.62,3.62,0,0,1-3.39,2q-3.93,0-3.93-4.69V72.3H37.2v6.29q0,3.5,2.66,3.49a2.67,2.67,0,0,0,2.12-1,3.6,3.6,0,0,0,.84-2.48V72.3h1.76Z"/><path class="cls-2" d="M55.63,82.79a5.67,5.67,0,0,1-3,.77A5,5,0,0,1,48.83,82a5.53,5.53,0,0,1-1.45-4,6.11,6.11,0,0,1,1.56-4.37A5.45,5.45,0,0,1,53.1,72a5.73,5.73,0,0,1,2.55.54v1.8A4.49,4.49,0,0,0,53,73.52a3.56,3.56,0,0,0-2.76,1.21,4.61,4.61,0,0,0-1.08,3.18,4.4,4.4,0,0,0,1,3,3.53,3.53,0,0,0,2.73,1.12,4.37,4.37,0,0,0,2.7-1Z"/><path class="cls-2" d="M67.43,83.3H65L60.1,78h0V83.3H58.3V67h1.76V77.34h0l4.62-5H67l-5.1,5.31Z"/><path class="cls-2" d="M84.65,83.3H82.89V81.43h0a4.43,4.43,0,0,1-7.09.65,6,6,0,0,1-1.24-4,6.55,6.55,0,0,1,1.37-4.37A4.53,4.53,0,0,1,79.54,72a3.52,3.52,0,0,1,3.3,1.79h0V67h1.76Zm-1.76-5V76.7A3.13,3.13,0,0,0,82,74.45a2.93,2.93,0,0,0-2.23-.93,3,3,0,0,0-2.53,1.19A5.12,5.12,0,0,0,76.31,78a4.64,4.64,0,0,0,.89,3,2.88,2.88,0,0,0,2.38,1.11A3,3,0,0,0,82,81,4,4,0,0,0,82.89,78.33Z"/><path class="cls-2" d="M97.05,78.24H89.29a4.15,4.15,0,0,0,1,2.84,3.42,3.42,0,0,0,2.6,1,5.4,5.4,0,0,0,3.41-1.23V82.5a6.3,6.3,0,0,1-3.83,1.06,4.66,4.66,0,0,1-3.67-1.5,6.19,6.19,0,0,1-1.33-4.22,6,6,0,0,1,1.46-4.18A4.65,4.65,0,0,1,92.53,72a4.14,4.14,0,0,1,3.34,1.4,5.8,5.8,0,0,1,1.18,3.88Zm-1.8-1.49a3.58,3.58,0,0,0-.74-2.38,2.51,2.51,0,0,0-2-.85,2.84,2.84,0,0,0-2.12.9,4,4,0,0,0-1.07,2.33Z"/><path class="cls-2" d="M104.82,83.19a3.36,3.36,0,0,1-1.64.35q-2.9,0-2.89-3.23V73.8H98.4V72.3h1.89V69.61l1.76-.57V72.3h2.77v1.5h-2.77V80a2.49,2.49,0,0,0,.38,1.58,1.47,1.47,0,0,0,1.24.47,1.86,1.86,0,0,0,1.15-.36Z"/><path class="cls-2" d="M128.82,83.3h-1.76V77a4.72,4.72,0,0,0-.57-2.64,2.13,2.13,0,0,0-1.89-.82,2.36,2.36,0,0,0-1.92,1,3.91,3.91,0,0,0-.79,2.47V83.3h-1.76V76.77c0-2.16-.84-3.25-2.5-3.25a2.33,2.33,0,0,0-1.92,1A4,4,0,0,0,115,77V83.3H113.2v-11H115V74h0a3.76,3.76,0,0,1,3.42-2,3.18,3.18,0,0,1,3.12,2.28A3.91,3.91,0,0,1,125.19,72c2.42,0,3.63,1.5,3.63,4.48Z"/><path class="cls-2" d="M140,83.3h-1.76V81.58h0a3.7,3.7,0,0,1-3.39,2,3.62,3.62,0,0,1-2.57-.87,3,3,0,0,1-.93-2.31c0-2.06,1.21-3.25,3.63-3.59l3.3-.46c0-1.87-.75-2.81-2.26-2.81a5.42,5.42,0,0,0-3.59,1.36V73.07a6.86,6.86,0,0,1,3.74-1Q140,72,140,76.15Zm-1.76-5.56-2.65.36a4.26,4.26,0,0,0-1.85.61,1.76,1.76,0,0,0-.62,1.54,1.7,1.7,0,0,0,.57,1.32,2.24,2.24,0,0,0,1.53.51,2.84,2.84,0,0,0,2.17-.92,3.3,3.3,0,0,0,.85-2.33Zm-2.34-7.07a2.2,2.2,0,0,1-1.55-.57,1.9,1.9,0,0,1-.62-1.47,2,2,0,0,1,.63-1.55A2.3,2.3,0,0,1,136,66.5a2.15,2.15,0,0,1,1.56.58,2,2,0,0,1,.62,1.48,2,2,0,0,1-.66,1.51A2.29,2.29,0,0,1,135.92,70.67Zm0-3.3a1.18,1.18,0,0,0-1.2,1.21,1.07,1.07,0,0,0,1.2,1.21,1.21,1.21,0,0,0,.89-.35,1.13,1.13,0,0,0,.36-.86,1.15,1.15,0,0,0-.36-.87A1.21,1.21,0,0,0,135.92,67.37Z"/><path class="cls-2" d="M158,72.3l-4.39,11H151.9l-4.16-11h1.93l2.79,8a7.08,7.08,0,0,1,.39,1.54h0a7.18,7.18,0,0,1,.35-1.5l2.92-8Z"/><path class="cls-2" d="M175.55,78.24h-7.79a4.1,4.1,0,0,0,1,2.84,3.41,3.41,0,0,0,2.59,1,5.4,5.4,0,0,0,3.44-1.23V82.5a6.23,6.23,0,0,1-3.84,1.06,4.24,4.24,0,0,1-4.12-2.46h0a4.73,4.73,0,0,1-4.16,2.46,3.66,3.66,0,0,1-2.58-.87,3,3,0,0,1-.94-2.31q0-3.22,4.12-3.48l2.81-.17q0-3.21-2.31-3.21a5.65,5.65,0,0,0-3.54,1.31V73.07a6.73,6.73,0,0,1,3.73-1,3.07,3.07,0,0,1,3.23,2.15h0A4.12,4.12,0,0,1,171,72a4.2,4.2,0,0,1,3.37,1.4,5.88,5.88,0,0,1,1.19,3.9ZM166,78.9v-.68l-2.18.13a5.1,5.1,0,0,0-2.23.52,1.76,1.76,0,0,0-.17,2.73,2.31,2.31,0,0,0,1.54.48,2.92,2.92,0,0,0,2.16-.91A3.14,3.14,0,0,0,166,78.9Zm7.72-2.15a3.68,3.68,0,0,0-.73-2.39,2.48,2.48,0,0,0-2-.84,2.91,2.91,0,0,0-2.13.89,3.9,3.9,0,0,0-1.1,2.34Z"/><path class="cls-2" d="M184,74.08a2.19,2.19,0,0,0-1.33-.35,2.25,2.25,0,0,0-1.89,1.06,5,5,0,0,0-.76,2.9V83.3h-1.76v-11H180v2.27H180a3.76,3.76,0,0,1,1.15-1.81,2.57,2.57,0,0,1,1.73-.65,2.88,2.88,0,0,1,1,.15Z"/><path class="cls-2" d="M194.7,78.24h-7.77a4.15,4.15,0,0,0,1,2.84,3.43,3.43,0,0,0,2.6,1,5.4,5.4,0,0,0,3.42-1.23V82.5a6.35,6.35,0,0,1-3.84,1.06,4.65,4.65,0,0,1-3.66-1.5,6.14,6.14,0,0,1-1.33-4.22,6,6,0,0,1,1.45-4.18A4.67,4.67,0,0,1,190.18,72a4.14,4.14,0,0,1,3.34,1.4,5.8,5.8,0,0,1,1.18,3.88Zm-1.8-1.49a3.64,3.64,0,0,0-.74-2.38,2.51,2.51,0,0,0-2-.85,2.84,2.84,0,0,0-2.12.9A4,4,0,0,0,187,76.75Z"/><path class="cls-2" d="M212.52,83.3h-2.47L205.2,78h0V83.3h-1.76V67h1.76V77.34h0l4.62-5h2.31L207,77.61Z"/><path class="cls-2" d="M223.46,83.3H221.7V77c0-2.34-.86-3.51-2.56-3.51a2.8,2.8,0,0,0-2.19,1,3.71,3.71,0,0,0-.86,2.51V83.3h-1.76v-11h1.76v1.83h0A4,4,0,0,1,219.74,72a3.37,3.37,0,0,1,2.76,1.17,5.17,5.17,0,0,1,1,3.37Z"/><path class="cls-2" d="M227.68,69.51a1.12,1.12,0,0,1-.81-.33,1.07,1.07,0,0,1-.33-.81,1.09,1.09,0,0,1,.33-.82,1.17,1.17,0,0,1,1.63,0,1.13,1.13,0,0,1,0,1.62A1.09,1.09,0,0,1,227.68,69.51Zm.86,13.79h-1.76v-11h1.76Z"/><path class="cls-2" d="M240.75,72.3l-4.38,11h-1.73l-4.17-11h1.94l2.79,8a7.08,7.08,0,0,1,.39,1.54h0a7.88,7.88,0,0,1,.34-1.5l2.92-8Z"/><path class="cls-2" d="M256.54,83.3h-1.76V81.58h0a3.7,3.7,0,0,1-3.38,2,3.63,3.63,0,0,1-2.58-.87,3,3,0,0,1-.93-2.31c0-2.06,1.21-3.25,3.63-3.59l3.3-.46c0-1.87-.75-2.81-2.26-2.81a5.44,5.44,0,0,0-3.59,1.36V73.07a6.86,6.86,0,0,1,3.74-1q3.87,0,3.87,4.11Zm-1.76-5.56-2.65.36a4.26,4.26,0,0,0-1.85.61,1.76,1.76,0,0,0-.62,1.54,1.7,1.7,0,0,0,.57,1.32,2.24,2.24,0,0,0,1.53.51,2.84,2.84,0,0,0,2.17-.92,3.3,3.3,0,0,0,.85-2.33Z"/><path class="cls-2" d="M265,83.19a3.42,3.42,0,0,1-1.65.35c-1.92,0-2.89-1.08-2.89-3.23V73.8h-1.89V72.3h1.89V69.61l1.76-.57V72.3H265v1.5h-2.78V80a2.56,2.56,0,0,0,.38,1.58,1.49,1.49,0,0,0,1.25.47,1.9,1.9,0,0,0,1.15-.36Z"/><path class="cls-2" d="M272.68,82.9V81a5.2,5.2,0,0,0,3.17,1.07c1.54,0,2.32-.52,2.32-1.55a1.37,1.37,0,0,0-.2-.75,2,2,0,0,0-.54-.54,3.67,3.67,0,0,0-.79-.42l-1-.4c-.48-.19-.91-.39-1.28-.58a3.7,3.7,0,0,1-.92-.67,2.43,2.43,0,0,1-.56-.84,2.93,2.93,0,0,1-.19-1.11,2.71,2.71,0,0,1,.35-1.37,3.24,3.24,0,0,1,.95-1,4.15,4.15,0,0,1,1.35-.6,5.76,5.76,0,0,1,1.56-.21,6.32,6.32,0,0,1,2.56.5v1.78a5,5,0,0,0-2.8-.8,3.14,3.14,0,0,0-.89.12,2.24,2.24,0,0,0-.68.31,1.46,1.46,0,0,0-.44.49,1.34,1.34,0,0,0-.16.63,1.53,1.53,0,0,0,.16.72,1.6,1.6,0,0,0,.46.52,3.32,3.32,0,0,0,.73.4c.28.13.61.26,1,.4s.92.38,1.31.58a4.53,4.53,0,0,1,1,.66,2.39,2.39,0,0,1,.63.86,3,3,0,0,1-.14,2.56,3,3,0,0,1-1,1,4.09,4.09,0,0,1-1.38.59,6.84,6.84,0,0,1-1.65.2A6.19,6.19,0,0,1,272.68,82.9Z"/><path class="cls-2" d="M291.52,78.24h-7.77a4.15,4.15,0,0,0,1,2.84,3.43,3.43,0,0,0,2.6,1,5.4,5.4,0,0,0,3.42-1.23V82.5a6.35,6.35,0,0,1-3.84,1.06,4.65,4.65,0,0,1-3.66-1.5,6.14,6.14,0,0,1-1.33-4.22,6,6,0,0,1,1.45-4.18A4.67,4.67,0,0,1,287,72a4.14,4.14,0,0,1,3.34,1.4,5.8,5.8,0,0,1,1.18,3.88Zm-1.8-1.49a3.64,3.64,0,0,0-.74-2.38,2.51,2.51,0,0,0-2-.85,2.83,2.83,0,0,0-2.12.9,4,4,0,0,0-1.07,2.33Z"/></g><g class="cls-1"><path class="cls-2" d="M24.28,109.3v-1.89a5.2,5.2,0,0,0,3.17,1.07c1.54,0,2.32-.52,2.32-1.55a1.37,1.37,0,0,0-.2-.75,2.13,2.13,0,0,0-.54-.54,3.75,3.75,0,0,0-.8-.42l-1-.4a13.26,13.26,0,0,1-1.28-.58,4,4,0,0,1-.93-.67,2.45,2.45,0,0,1-.55-.84,2.93,2.93,0,0,1-.19-1.11,2.71,2.71,0,0,1,.35-1.37,3.12,3.12,0,0,1,1-1,4.37,4.37,0,0,1,1.35-.6,5.76,5.76,0,0,1,1.56-.21,6.35,6.35,0,0,1,2.56.5v1.78a5,5,0,0,0-2.8-.8,3.09,3.09,0,0,0-.89.12,2.24,2.24,0,0,0-.68.31,1.46,1.46,0,0,0-.44.49,1.23,1.23,0,0,0-.16.63,1.42,1.42,0,0,0,.16.72,1.57,1.57,0,0,0,.45.52,4.24,4.24,0,0,0,.74.41l1,.39a12.72,12.72,0,0,1,1.31.58,4.37,4.37,0,0,1,1,.66,2.77,2.77,0,0,1,.63.86,3,3,0,0,1-.14,2.56,3,3,0,0,1-1,1,4.06,4.06,0,0,1-1.39.59,6.76,6.76,0,0,1-1.64.2A6.19,6.19,0,0,1,24.28,109.3Z"/><path class="cls-2" d="M42.15,109.7H40.39V108h0A3.7,3.7,0,0,1,37,110a3.62,3.62,0,0,1-2.57-.87,3,3,0,0,1-.93-2.31c0-2.06,1.21-3.25,3.63-3.59l3.3-.46c0-1.87-.76-2.81-2.27-2.81a5.41,5.41,0,0,0-3.58,1.36V99.47a6.85,6.85,0,0,1,3.73-1q3.88,0,3.88,4.11Zm-1.76-5.56-2.65.36a4.35,4.35,0,0,0-1.85.61,1.73,1.73,0,0,0-.62,1.54,1.69,1.69,0,0,0,.57,1.32,2.21,2.21,0,0,0,1.53.51,2.86,2.86,0,0,0,2.17-.92,3.34,3.34,0,0,0,.85-2.33Zm-2.34-7.07a2.18,2.18,0,0,1-1.55-.57A1.87,1.87,0,0,1,35.88,95a2,2,0,0,1,.63-1.55,2.27,2.27,0,0,1,1.61-.58,2.18,2.18,0,0,1,1.57.58A2,2,0,0,1,40.3,95a2,2,0,0,1-.65,1.51A2.29,2.29,0,0,1,38.05,97.07Zm0-3.3a1.16,1.16,0,0,0-.86.35,1.18,1.18,0,0,0-.35.86,1.07,1.07,0,0,0,1.21,1.21,1.23,1.23,0,0,0,.89-.35,1.12,1.12,0,0,0,.35-.86,1.15,1.15,0,0,0-.35-.87A1.22,1.22,0,0,0,38.05,93.77Z"/><path class="cls-2" d="M54.86,109.7H53.1v-1.87h-.05A4.05,4.05,0,0,1,49.27,110,4.09,4.09,0,0,1,46,108.48a6,6,0,0,1-1.24-4,6.61,6.61,0,0,1,1.37-4.37,4.54,4.54,0,0,1,3.67-1.65,3.51,3.51,0,0,1,3.29,1.79h.05V93.42h1.76Zm-1.76-5V103.1a3.17,3.17,0,0,0-.88-2.25A3,3,0,0,0,50,99.92a3,3,0,0,0-2.53,1.19,5.12,5.12,0,0,0-.93,3.26,4.64,4.64,0,0,0,.89,3,2.88,2.88,0,0,0,2.38,1.11,3,3,0,0,0,2.39-1.07A4,4,0,0,0,53.1,104.73Z"/><path class="cls-2" d="M66.3,109.7H64.54V108h0a3.7,3.7,0,0,1-3.39,2,3.62,3.62,0,0,1-2.57-.87,3,3,0,0,1-.93-2.31c0-2.06,1.21-3.25,3.63-3.59l3.3-.46c0-1.87-.76-2.81-2.27-2.81a5.45,5.45,0,0,0-3.59,1.36V99.47a6.88,6.88,0,0,1,3.74-1q3.89,0,3.88,4.11Zm-1.76-5.56-2.66.36a4.35,4.35,0,0,0-1.84.61,1.74,1.74,0,0,0-.63,1.54A1.7,1.7,0,0,0,60,108a2.21,2.21,0,0,0,1.53.51,2.83,2.83,0,0,0,2.16-.92,3.3,3.3,0,0,0,.86-2.33Z"/><path class="cls-2" d="M78.75,109.7H77v-6.27q0-3.51-2.56-3.51a2.77,2.77,0,0,0-2.18,1,3.67,3.67,0,0,0-.87,2.51v6.27H69.62v-11h1.76v1.83h0A4,4,0,0,1,75,98.44a3.34,3.34,0,0,1,2.76,1.17,5.17,5.17,0,0,1,1,3.37Z"/><path class="cls-2" d="M97,109.7H95.23V108h0a3.63,3.63,0,0,1-3.4,2q-3.93,0-3.93-4.69V98.7h1.75V105q0,3.48,2.66,3.48a2.71,2.71,0,0,0,2.13-1,3.64,3.64,0,0,0,.83-2.48V98.7H97Z"/><path class="cls-2" d="M109.93,109.7h-1.76v-1.87h0a4.07,4.07,0,0,1-3.78,2.13,4.11,4.11,0,0,1-3.32-1.48,6.08,6.08,0,0,1-1.24-4,6.56,6.56,0,0,1,1.38-4.37,4.53,4.53,0,0,1,3.66-1.65,3.54,3.54,0,0,1,3.3,1.79h0V93.42h1.76Zm-1.76-5V103.1a3.12,3.12,0,0,0-.88-2.25,2.94,2.94,0,0,0-2.23-.93,3,3,0,0,0-2.54,1.19,5.18,5.18,0,0,0-.92,3.26,4.64,4.64,0,0,0,.88,3,2.91,2.91,0,0,0,2.38,1.11,3,3,0,0,0,2.39-1.07A3.91,3.91,0,0,0,108.17,104.73Z"/></g></g><use class="cls-1" transform="translate(166.78 9.5) scale(0.18)" xlink:href="#image"/><use class="cls-1" transform="translate(197.53 9.5) scale(0.18)" xlink:href="#image"/><use class="cls-1" transform="translate(228.53 9.5) scale(0.18)" xlink:href="#image"/><use class="cls-1" transform="translate(258.91 9.5) scale(0.18)" xlink:href="#image"/><use class="cls-1" transform="translate(117.28 87.41) scale(0.18 0.18)" xlink:href="#image-2"/><use class="cls-1" transform="translate(144.94 87.41) scale(0.18 0.18)" xlink:href="#image-2"/><use class="cls-1" transform="translate(173.44 87.41) scale(0.18 0.18)" xlink:href="#image-2"/></svg>
