<svg id="Layer_1" data-name="Layer 1" xmlns="http://www.w3.org/2000/svg" xmlns:xlink="http://www.w3.org/1999/xlink" width="270" height="95.56" viewBox="0 0 270 95.56"><defs><style>.cls-1{fill:#fff;}.cls-2{fill:#1290ee;}</style><image id="image" width="160" height="160" xlink:href="../../../../../../../Downloads/face-with-tears-of-joy_1f602.png"/></defs><title>newblue4</title><path class="cls-1" d="M22.12,12.56h2V26.38h6.63v1.68H22.12Z"/><path class="cls-1" d="M42.66,22.41c0,4.11-2.85,5.91-5.54,5.91-3,0-5.34-2.21-5.34-5.73,0-3.73,2.44-5.91,5.52-5.91S42.66,19,42.66,22.41Zm-8.83.11c0,2.44,1.4,4.28,3.38,4.28s3.38-1.82,3.38-4.33c0-1.88-.94-4.27-3.33-4.27S33.83,20.41,33.83,22.52Z"/><path class="cls-1" d="M45.21,11.74h2V28.06h-2Z"/><path class="cls-1" d="M55.52,11.74h2v6.94h.05A3.83,3.83,0,0,1,59,17.25a4.19,4.19,0,0,1,2.07-.57c1.49,0,3.88.92,3.88,4.76v6.62H63V21.67c0-1.79-.67-3.31-2.58-3.31a2.91,2.91,0,0,0-2.71,2,2.39,2.39,0,0,0-.14,1v6.71h-2Z"/><path class="cls-1" d="M68.77,16.93,71,23.19a28,28,0,0,1,.9,2.85h.07c.25-.92.57-1.84.94-2.85L75,16.93h2.12L72.77,28.06H70.84L66.6,16.93Z"/><path class="cls-1" d="M85.12,28.06,85,26.66h-.07a4.17,4.17,0,0,1-3.41,1.66,3.17,3.17,0,0,1-3.4-3.2c0-2.69,2.39-4.16,6.69-4.14v-.23a2.3,2.3,0,0,0-2.53-2.58,5.58,5.58,0,0,0-2.89.83l-.46-1.33a6.87,6.87,0,0,1,3.65-1c3.41,0,4.23,2.32,4.23,4.55V25.4A15.39,15.39,0,0,0,87,28.06Zm-.3-5.68c-2.21,0-4.72.35-4.72,2.51A1.79,1.79,0,0,0,82,26.82,2.77,2.77,0,0,0,84.7,25a2.13,2.13,0,0,0,.12-.65Z"/><path class="cls-1" d="M99.65,11.74V25.19c0,1,0,2.11.1,2.87H97.93l-.09-1.93h0A4.12,4.12,0,0,1,94,28.32c-2.69,0-4.76-2.28-4.76-5.66,0-3.7,2.27-6,5-6a3.7,3.7,0,0,1,3.35,1.7h0V11.74Zm-2,9.72a3.56,3.56,0,0,0-.09-.85,3,3,0,0,0-2.92-2.34c-2.1,0-3.34,1.84-3.34,4.3,0,2.25,1.11,4.11,3.29,4.11a3,3,0,0,0,3-2.41,3.5,3.5,0,0,0,.09-.88Z"/><path class="cls-1" d="M107.61,26a5.34,5.34,0,0,0,2.67.81c1.47,0,2.16-.74,2.16-1.66s-.57-1.49-2.07-2c-2-.72-2.94-1.82-2.94-3.15,0-1.8,1.45-3.27,3.84-3.27a5.49,5.49,0,0,1,2.73.69l-.5,1.47a4.4,4.4,0,0,0-2.28-.64c-1.19,0-1.86.69-1.86,1.52s.67,1.33,2.12,1.88c1.93.74,2.92,1.7,2.92,3.36,0,1.95-1.52,3.33-4.17,3.33a6.34,6.34,0,0,1-3.12-.76Z"/><path class="cls-1" d="M119,22h0c.28-.39.67-.88,1-1.27l3.27-3.84h2.43l-4.3,4.58,4.9,6.55h-2.46L120,22.73l-1,1.15v4.18h-2V11.74h2Z"/><path class="cls-1" d="M128.91,22.87a3.57,3.57,0,0,0,3.82,3.86,7.17,7.17,0,0,0,3.08-.58l.34,1.45a9,9,0,0,1-3.7.69C129,28.29,127,26,127,22.68s2-6,5.22-6c3.63,0,4.6,3.2,4.6,5.24a8.33,8.33,0,0,1-.07.95Zm5.93-1.45c0-1.29-.53-3.29-2.8-3.29-2,0-2.95,1.88-3.11,3.29Z"/><path class="cls-1" d="M139.31,20.41c0-1.32,0-2.44-.1-3.48H141l.07,2.19h.1a3.32,3.32,0,0,1,3.08-2.44,2,2,0,0,1,.57.07v1.91a2.78,2.78,0,0,0-3.4,2.53,5.17,5.17,0,0,0-.09.94v5.93h-2Z"/><path class="cls-1" d="M161.32,11.74V25.19c0,1,0,2.11.09,2.87h-1.82l-.09-1.93h-.05a4.12,4.12,0,0,1-3.79,2.19c-2.69,0-4.76-2.28-4.76-5.66,0-3.7,2.27-6,5-6a3.73,3.73,0,0,1,3.36,1.7h0V11.74Zm-2,9.72a3.56,3.56,0,0,0-.09-.85,3,3,0,0,0-2.92-2.34c-2.09,0-3.34,1.84-3.34,4.3,0,2.25,1.11,4.11,3.29,4.11a3,3,0,0,0,3-2.41,3.5,3.5,0,0,0,.09-.88Z"/><path class="cls-1" d="M165.8,22.87a3.57,3.57,0,0,0,3.82,3.86,7.17,7.17,0,0,0,3.08-.58L173,27.6a9,9,0,0,1-3.7.69c-3.42,0-5.47-2.25-5.47-5.61s2-6,5.22-6c3.63,0,4.6,3.2,4.6,5.24a8.33,8.33,0,0,1-.07.95Zm5.93-1.45c0-1.29-.52-3.29-2.8-3.29-2.05,0-2.94,1.88-3.11,3.29Z"/><path class="cls-1" d="M176.2,20.41c0-1.32,0-2.44-.09-3.48h1.77l.06,2.19h.1a3.32,3.32,0,0,1,3.08-2.44,2,2,0,0,1,.57.07v1.91a2.77,2.77,0,0,0-.69-.07,2.84,2.84,0,0,0-2.71,2.6,5.17,5.17,0,0,0-.09.94v5.93h-2Z"/><path class="cls-1" d="M188.8,28.06V18.47h-1.56V16.93h1.56V16.4a5.24,5.24,0,0,1,1.29-3.88,3.86,3.86,0,0,1,2.71-1,4.53,4.53,0,0,1,1.73.33l-.28,1.56a3,3,0,0,0-1.29-.25c-1.72,0-2.16,1.51-2.16,3.21v.6h2.69v1.54H190.8v9.59Z"/><path class="cls-1" d="M205.08,22.41c0,4.11-2.85,5.91-5.54,5.91-3,0-5.33-2.21-5.33-5.73,0-3.73,2.43-5.91,5.52-5.91S205.08,19,205.08,22.41Zm-8.83.11c0,2.44,1.41,4.28,3.38,4.28S203,25,203,22.47c0-1.88-.94-4.27-3.33-4.27S196.25,20.41,196.25,22.52Z"/><path class="cls-1" d="M207.64,20.41c0-1.32,0-2.44-.09-3.48h1.77l.07,2.19h.09a3.32,3.32,0,0,1,3.08-2.44,2,2,0,0,1,.57.07v1.91a2.77,2.77,0,0,0-.69-.07,2.84,2.84,0,0,0-2.71,2.6,6.25,6.25,0,0,0-.09.94v5.93h-2Z"/><path class="cls-1" d="M221.16,22.87A3.57,3.57,0,0,0,225,26.73a7.17,7.17,0,0,0,3.08-.58l.35,1.45a9.12,9.12,0,0,1-3.71.69c-3.42,0-5.47-2.25-5.47-5.61s2-6,5.22-6c3.63,0,4.6,3.2,4.6,5.24a8.33,8.33,0,0,1-.07.95Zm5.93-1.45c0-1.29-.52-3.29-2.8-3.29-2,0-2.94,1.88-3.11,3.29Z"/><path class="cls-1" d="M231.56,20c0-1.15,0-2.1-.09-3h1.79l.11,1.84h0a4.09,4.09,0,0,1,3.68-2.09c1.54,0,3.93.92,3.93,4.74v6.64h-2V21.65c0-1.8-.67-3.29-2.58-3.29a2.87,2.87,0,0,0-2.71,2.07,3,3,0,0,0-.14.94v6.69h-2Z"/><path class="cls-1" d="M24.05,49.64h.05c.28-.39.67-.88,1-1.27l3.26-3.84h2.44l-4.3,4.58,4.9,6.55H28.93l-3.84-5.33-1,1.15v4.18h-2V39.34h2Z"/><path class="cls-1" d="M33.23,39.34h2V55.66h-2Z"/><path class="cls-1" d="M44.82,55.66l-.16-1.4h-.07a4.15,4.15,0,0,1-3.4,1.66,3.17,3.17,0,0,1-3.4-3.2c0-2.69,2.39-4.16,6.69-4.14v-.23A2.3,2.3,0,0,0,42,45.77a5.59,5.59,0,0,0-2.9.83l-.46-1.33a6.88,6.88,0,0,1,3.66-1c3.4,0,4.23,2.32,4.23,4.55V53a15.45,15.45,0,0,0,.18,2.66ZM44.52,50c-2.2,0-4.71.35-4.71,2.51a1.79,1.79,0,0,0,1.91,1.93,2.77,2.77,0,0,0,2.69-1.86,2.11,2.11,0,0,0,.11-.65Z"/><path class="cls-1" d="M49.75,47.55c0-1.15,0-2.1-.1-3h1.77l.1,1.8h.06a3.85,3.85,0,0,1,3.5-2,3.29,3.29,0,0,1,3.15,2.23h.05a4.59,4.59,0,0,1,1.24-1.45A3.81,3.81,0,0,1,62,44.28c1.47,0,3.65,1,3.65,4.83v6.55h-2v-6.3c0-2.14-.78-3.42-2.42-3.42a2.62,2.62,0,0,0-2.39,1.84,3.34,3.34,0,0,0-.16,1v6.87h-2V49c0-1.77-.78-3.05-2.32-3.05a2.78,2.78,0,0,0-2.51,2,2.9,2.9,0,0,0-.16,1v6.71h-2Z"/><path class="cls-1" d="M75.8,49.64h0c.28-.39.67-.88,1-1.27l3.26-3.84h2.44l-4.3,4.58,4.9,6.55H80.68l-3.84-5.33-1,1.15v4.18h-2V39.34h2Z"/><path class="cls-1" d="M92.75,50.3c-.07,2.65,1.45,4.05,3.54,4.05a6.48,6.48,0,0,0,3-.64l.37,1.42a7.85,7.85,0,0,1-3.66.79,4.41,4.41,0,0,1-4.23-2.46h0a4.34,4.34,0,0,1-4.13,2.46,3.18,3.18,0,0,1-3.48-3.18c0-2.57,2.39-4.07,6.72-4v-.46a2.47,2.47,0,0,0-2.6-2.49,5.4,5.4,0,0,0-2.85.86l-.49-1.34a7.08,7.08,0,0,1,3.48-1A3.37,3.37,0,0,1,92,46.65H92a4.24,4.24,0,0,1,3.89-2.37c3.4,0,4.34,3.29,4.34,5.13a4.32,4.32,0,0,1-.07.89Zm-1.86-.23c-2.14,0-4.74.33-4.74,2.51a1.8,1.8,0,0,0,1.93,1.84,2.74,2.74,0,0,0,2.7-1.91,2.38,2.38,0,0,0,.11-.8Zm7.43-1.21c.07-1.13-.55-3.13-2.6-3.13a3.16,3.16,0,0,0-3,3.13Z"/><path class="cls-1" d="M102.78,39.34h2V55.66h-2Z"/><path class="cls-1" d="M108.21,39.34h2V55.66h-2Z"/><path class="cls-1" d="M115.89,41.41a1.26,1.26,0,0,1-2.51,0,1.24,1.24,0,0,1,1.27-1.27A1.2,1.2,0,0,1,115.89,41.41Zm-2.25,14.25V44.53h2V55.66Z"/><path class="cls-1" d="M119,47.55c0-1.15,0-2.1-.09-3h1.79l.12,1.84h0a4.09,4.09,0,0,1,3.68-2.09c1.54,0,3.93.92,3.93,4.74v6.64h-2V49.25c0-1.8-.67-3.29-2.57-3.29A2.88,2.88,0,0,0,121.18,48,3,3,0,0,0,121,49v6.69h-2Z"/><path class="cls-1" d="M141.37,44.53c0,.81-.09,1.7-.09,3.06v6.46c0,2.56-.5,4.12-1.58,5.08a5.89,5.89,0,0,1-4,1.34,7.12,7.12,0,0,1-3.7-.92l.5-1.54a6.31,6.31,0,0,0,3.27.87c2.07,0,3.58-1.08,3.58-3.88V53.75h0a4,4,0,0,1-3.54,1.87c-2.76,0-4.74-2.35-4.74-5.43,0-3.77,2.46-5.91,5-5.91a3.72,3.72,0,0,1,3.48,1.93h0l.09-1.68Zm-2.09,4.4a2.95,2.95,0,0,0-2.94-3.06c-1.93,0-3.31,1.63-3.31,4.2,0,2.19,1.1,4,3.29,4a3,3,0,0,0,2.8-2.07,3.41,3.41,0,0,0,.16-1.08Z"/><path class="cls-1" d="M159.13,39.34V52.79c0,1,0,2.11.09,2.87H157.4l-.09-1.93h0a4.13,4.13,0,0,1-3.8,2.19c-2.69,0-4.76-2.28-4.76-5.66,0-3.7,2.28-6,5-6a3.73,3.73,0,0,1,3.36,1.7h.05V39.34Zm-2,9.72a3.58,3.58,0,0,0-.1-.85,3,3,0,0,0-2.92-2.34c-2.09,0-3.33,1.84-3.33,4.3,0,2.25,1.1,4.11,3.29,4.11a3,3,0,0,0,3-2.41,3.49,3.49,0,0,0,.1-.88Z"/><path class="cls-1" d="M163.62,50.47a3.56,3.56,0,0,0,3.81,3.86,7.14,7.14,0,0,0,3.08-.58l.35,1.45a9,9,0,0,1-3.7.69c-3.43,0-5.48-2.25-5.48-5.61s2-6,5.22-6c3.64,0,4.6,3.2,4.6,5.24a6.5,6.5,0,0,1-.07.95ZM169.55,49c0-1.29-.53-3.29-2.81-3.29-2,0-2.94,1.88-3.1,3.29Z"/><path class="cls-1" d="M174,48c0-1.32,0-2.44-.09-3.48h1.77l.07,2.19h.09a3.34,3.34,0,0,1,3.08-2.44,2.1,2.1,0,0,1,.58.07v1.91a2.87,2.87,0,0,0-.69-.07,2.84,2.84,0,0,0-2.72,2.6,6.25,6.25,0,0,0-.09.94v5.93h-2Z"/><path class="cls-1" d="M188.41,49.64h.05c.27-.39.66-.88,1-1.27l3.27-3.84h2.44l-4.3,4.58,4.9,6.55h-2.47l-3.84-5.33-1,1.15v4.18h-2V39.34h2Z"/><path class="cls-1" d="M207.27,50c0,4.11-2.85,5.91-5.54,5.91-3,0-5.34-2.21-5.34-5.73,0-3.73,2.44-5.91,5.52-5.91S207.27,46.6,207.27,50Zm-8.83.11c0,2.44,1.4,4.28,3.38,4.28s3.38-1.82,3.38-4.33c0-1.88-.95-4.27-3.34-4.27S198.44,48,198.44,50.12Z"/><path class="cls-1" d="M209.82,47.55c0-1.15,0-2.1-.09-3h1.77l.09,1.8h.07a3.84,3.84,0,0,1,3.5-2,3.3,3.3,0,0,1,3.15,2.23h0a4.72,4.72,0,0,1,1.24-1.45,3.86,3.86,0,0,1,2.47-.78c1.47,0,3.65,1,3.65,4.83v6.55h-2v-6.3c0-2.14-.78-3.42-2.41-3.42a2.61,2.61,0,0,0-2.39,1.84,3.34,3.34,0,0,0-.16,1v6.87h-2V49c0-1.77-.78-3.05-2.32-3.05A2.76,2.76,0,0,0,212,48a2.9,2.9,0,0,0-.16,1v6.71h-2Z"/><path class="cls-1" d="M244,50c0,4.11-2.85,5.91-5.54,5.91-3,0-5.33-2.21-5.33-5.73,0-3.73,2.43-5.91,5.51-5.91S244,46.6,244,50Zm-8.83.11c0,2.44,1.4,4.28,3.38,4.28s3.38-1.82,3.38-4.33c0-1.88-.94-4.27-3.33-4.27S235.12,48,235.12,50.12Z"/><path class="cls-1" d="M246.51,48.17c0-1.43,0-2.58-.09-3.64h1.81l.09,1.91h.05a4.37,4.37,0,0,1,3.95-2.16c2.69,0,4.72,2.28,4.72,5.66,0,4-2.44,6-5.06,6a3.93,3.93,0,0,1-3.43-1.75h0v6h-2Zm2,3a4.22,4.22,0,0,0,.09.83,3.13,3.13,0,0,0,3,2.37c2.14,0,3.38-1.75,3.38-4.3,0-2.23-1.17-4.14-3.31-4.14a3.52,3.52,0,0,0-3.19,3.33Z"/><path class="cls-1" d="M22.05,75.77c0-1.43,0-2.58-.09-3.64h1.82L23.87,74h.05a4.35,4.35,0,0,1,3.95-2.16c2.69,0,4.72,2.28,4.72,5.66,0,4-2.44,6-5.06,6a3.91,3.91,0,0,1-3.43-1.75h-.05v6h-2Zm2,3a4.19,4.19,0,0,0,.1.83,3.11,3.11,0,0,0,3,2.37c2.14,0,3.38-1.75,3.38-4.3,0-2.23-1.17-4.14-3.31-4.14a3.52,3.52,0,0,0-3.2,3.33Z"/><path class="cls-1" d="M41.3,83.26l-.16-1.4h-.07a4.15,4.15,0,0,1-3.4,1.66,3.17,3.17,0,0,1-3.4-3.2c0-2.69,2.39-4.16,6.69-4.14V76a2.29,2.29,0,0,0-2.53-2.57,5.58,5.58,0,0,0-2.9.82l-.46-1.33a6.88,6.88,0,0,1,3.66-1c3.4,0,4.23,2.32,4.23,4.55V80.6a15.45,15.45,0,0,0,.18,2.66ZM41,77.58c-2.2,0-4.71.35-4.71,2.51A1.79,1.79,0,0,0,38.2,82a2.77,2.77,0,0,0,2.69-1.86,2.11,2.11,0,0,0,.11-.65Zm-4.34-8.76A2.16,2.16,0,0,1,39,66.64a2.14,2.14,0,1,1-2.34,2.18Zm3.49,0A1.19,1.19,0,0,0,39,67.51a1.18,1.18,0,0,0-1.13,1.31,1.16,1.16,0,1,0,2.32,0Z"/><path class="cls-1" d="M51.1,75.15c0-1.15,0-2.1-.09-3h1.77l.09,1.8h.07a3.84,3.84,0,0,1,3.5-2.05,3.3,3.3,0,0,1,3.15,2.23h0a4.74,4.74,0,0,1,1.25-1.45,3.81,3.81,0,0,1,2.46-.78c1.47,0,3.65,1,3.65,4.83v6.55H65V77c0-2.14-.78-3.42-2.41-3.42a2.61,2.61,0,0,0-2.39,1.84,3.34,3.34,0,0,0-.16,1v6.87h-2V76.59c0-1.77-.78-3-2.32-3a2.76,2.76,0,0,0-2.51,2,2.9,2.9,0,0,0-.16,1v6.71h-2Z"/><path class="cls-1" d="M72.54,69A1.26,1.26,0,0,1,70,69a1.24,1.24,0,0,1,1.27-1.27A1.21,1.21,0,0,1,72.54,69ZM70.28,83.26V72.13h2V83.26Z"/><path class="cls-1" d="M75.67,75.15c0-1.15,0-2.1-.1-3h1.8L77.48,74h0a4.1,4.1,0,0,1,3.68-2.09c1.54,0,3.93.92,3.93,4.74v6.64h-2V76.85c0-1.8-.67-3.29-2.58-3.29a2.87,2.87,0,0,0-2.71,2.07,3,3,0,0,0-.14.94v6.69h-2Z"/><path class="cls-1" d="M93,81.19A5.34,5.34,0,0,0,95.7,82c1.47,0,2.16-.74,2.16-1.66s-.57-1.49-2.07-2c-2-.72-2.94-1.82-2.94-3.15,0-1.8,1.44-3.27,3.84-3.27a5.52,5.52,0,0,1,2.73.69L98.92,74a4.4,4.4,0,0,0-2.28-.64c-1.19,0-1.86.69-1.86,1.52s.67,1.33,2.11,1.88c1.94.74,2.92,1.7,2.92,3.36,0,2-1.51,3.33-4.16,3.33a6.38,6.38,0,0,1-3.13-.76Z"/><path class="cls-1" d="M104.41,77.24h0c.28-.39.67-.88,1-1.27l3.26-3.84h2.44l-4.3,4.58,4.9,6.55h-2.46l-3.84-5.33-1,1.15v4.18h-2V66.94h2Z"/><path class="cls-1" d="M121.36,77.91c-.06,2.64,1.45,4,3.55,4a6.44,6.44,0,0,0,3-.64l.37,1.42a7.85,7.85,0,0,1-3.66.79,4.41,4.41,0,0,1-4.23-2.47h0a4.35,4.35,0,0,1-4.14,2.47,3.18,3.18,0,0,1-3.48-3.18c0-2.57,2.4-4.07,6.72-4v-.46a2.47,2.47,0,0,0-2.6-2.48,5.42,5.42,0,0,0-2.85.85l-.48-1.34a7.07,7.07,0,0,1,3.47-1,3.39,3.39,0,0,1,3.59,2.37h0a4.24,4.24,0,0,1,3.89-2.37c3.4,0,4.34,3.29,4.34,5.13a4.49,4.49,0,0,1-.07.9Zm-1.86-.24c-2.14,0-4.74.33-4.74,2.51A1.81,1.81,0,0,0,116.7,82a2.72,2.72,0,0,0,2.69-1.91,2.38,2.38,0,0,0,.11-.8Zm7.43-1.21c.07-1.13-.55-3.13-2.6-3.13a3.16,3.16,0,0,0-3,3.13Z"/><path class="cls-1" d="M131.39,75.61c0-1.32,0-2.44-.09-3.48h1.77l.07,2.19h.09a3.34,3.34,0,0,1,3.08-2.44,2,2,0,0,1,.58.07v1.91a2.78,2.78,0,0,0-3.4,2.53,5.21,5.21,0,0,0-.1.94v5.93h-2Z"/><path class="cls-1" d="M139,75.15c0-1.15,0-2.1-.09-3h1.77l.09,1.8h.07a3.82,3.82,0,0,1,3.49-2.05,3.29,3.29,0,0,1,3.15,2.23h0a4.59,4.59,0,0,1,1.24-1.45,3.83,3.83,0,0,1,2.46-.78c1.47,0,3.66,1,3.66,4.83v6.55h-2V77c0-2.14-.78-3.42-2.42-3.42a2.62,2.62,0,0,0-2.39,1.84,3.34,3.34,0,0,0-.16,1v6.87h-2V76.59c0-1.77-.78-3-2.32-3a2.76,2.76,0,0,0-2.5,2,2.68,2.68,0,0,0-.17,1v6.71h-2Z"/><path class="cls-1" d="M172.68,66.94V80.39c0,1,0,2.11.09,2.87H171l-.09-1.93h-.05A4.11,4.11,0,0,1,167,83.52c-2.69,0-4.76-2.28-4.76-5.66,0-3.7,2.28-6,5-6a3.73,3.73,0,0,1,3.36,1.7h0V66.94Zm-2,9.72a3.56,3.56,0,0,0-.09-.85,3,3,0,0,0-2.92-2.34c-2.09,0-3.33,1.84-3.33,4.3,0,2.25,1.1,4.11,3.28,4.11a3,3,0,0,0,3-2.41,3.5,3.5,0,0,0,.09-.88Z"/><path class="cls-1" d="M177.16,78.07A3.57,3.57,0,0,0,181,81.93a7.17,7.17,0,0,0,3.08-.58l.35,1.45a9,9,0,0,1-3.71.69c-3.42,0-5.47-2.25-5.47-5.61s2-6,5.22-6c3.63,0,4.6,3.2,4.6,5.24a8.33,8.33,0,0,1-.07.95Zm5.94-1.45c0-1.29-.53-3.29-2.81-3.29-2,0-2.94,1.88-3.1,3.29Z"/><path class="cls-1" d="M187.56,75.61c0-1.32,0-2.44-.09-3.48h1.77l.07,2.19h.09a3.33,3.33,0,0,1,3.08-2.44,2.1,2.1,0,0,1,.58.07v1.91a2.87,2.87,0,0,0-.69-.07,2.84,2.84,0,0,0-2.72,2.6,6.38,6.38,0,0,0-.09.94v5.93h-2Z"/><use transform="translate(195.91 62.09) scale(0.17)" xlink:href="#image"/><use transform="translate(225.16 62) scale(0.17)" xlink:href="#image"/><path class="cls-2" d="M202,94.5h32.7A32.39,32.39,0,0,0,267,62.2V34.8A32.39,32.39,0,0,0,234.7,2.5H35.3A32.39,32.39,0,0,0,3,34.8V62.2A32.39,32.39,0,0,0,35.3,94.5H202Z"/><path class="cls-1" d="M20.87,11h2V24.82H29.5V26.5H20.87Z"/><path class="cls-1" d="M41.41,20.84c0,4.12-2.85,5.91-5.54,5.91-3,0-5.34-2.2-5.34-5.72,0-3.73,2.44-5.91,5.52-5.91S41.41,17.44,41.41,20.84ZM32.58,21c0,2.44,1.4,4.28,3.38,4.28s3.38-1.82,3.38-4.33c0-1.88-.94-4.27-3.33-4.27S32.58,18.84,32.58,21Z"/><path class="cls-1" d="M44,10.17h2V26.5H44Z"/><path class="cls-1" d="M54.27,10.17h2v7h.05a3.76,3.76,0,0,1,1.45-1.43,4.19,4.19,0,0,1,2.07-.57c1.49,0,3.88.92,3.88,4.76V26.5h-2V20.11c0-1.8-.67-3.31-2.58-3.31a2.91,2.91,0,0,0-2.71,2,2.37,2.37,0,0,0-.14,1V26.5h-2Z"/><path class="cls-1" d="M67.52,15.37l2.18,6.26a28,28,0,0,1,.9,2.85h.07c.25-.92.57-1.84.94-2.85l2.16-6.26h2.12L71.52,26.5H69.59L65.35,15.37Z"/><path class="cls-1" d="M83.87,26.5l-.16-1.4h-.07a4.16,4.16,0,0,1-3.41,1.65,3.17,3.17,0,0,1-3.4-3.19c0-2.69,2.39-4.17,6.69-4.14v-.23A2.3,2.3,0,0,0,81,16.61a5.49,5.49,0,0,0-2.89.83l-.46-1.33a6.87,6.87,0,0,1,3.65-1c3.41,0,4.23,2.32,4.23,4.55v4.16a15.43,15.43,0,0,0,.19,2.67Zm-.3-5.68c-2.21-.05-4.72.35-4.72,2.51a1.79,1.79,0,0,0,1.91,1.93,2.77,2.77,0,0,0,2.69-1.86,2.13,2.13,0,0,0,.12-.65Z"/><path class="cls-1" d="M98.4,10.17V23.63c0,1,0,2.11.1,2.87H96.68l-.09-1.93h0a4.12,4.12,0,0,1-3.79,2.18c-2.69,0-4.76-2.27-4.76-5.65,0-3.71,2.27-6,5-6a3.7,3.7,0,0,1,3.35,1.7h0V10.17Zm-2,9.73a3.51,3.51,0,0,0-.09-.85,3,3,0,0,0-2.92-2.35C91.27,16.7,90,18.54,90,21c0,2.26,1.11,4.12,3.29,4.12a3,3,0,0,0,3-2.41,3.55,3.55,0,0,0,.09-.88Z"/><path class="cls-1" d="M106.36,24.43a5.34,5.34,0,0,0,2.67.81c1.47,0,2.16-.74,2.16-1.66s-.57-1.5-2.07-2c-2-.71-2.94-1.81-2.94-3.15,0-1.79,1.45-3.26,3.84-3.26a5.49,5.49,0,0,1,2.73.69l-.5,1.47a4.31,4.31,0,0,0-2.28-.64c-1.19,0-1.86.69-1.86,1.51s.67,1.34,2.12,1.89c1.93.73,2.92,1.7,2.92,3.36,0,2-1.52,3.33-4.17,3.33a6.34,6.34,0,0,1-3.12-.76Z"/><path class="cls-1" d="M117.75,20.48h0c.28-.4.67-.88,1-1.27l3.27-3.84h2.43L120.18,20l4.9,6.55h-2.46l-3.84-5.33-1,1.14V26.5h-2V10.17h2Z"/><path class="cls-1" d="M127.66,21.3a3.57,3.57,0,0,0,3.82,3.87,7.33,7.33,0,0,0,3.08-.58L134.9,26a9,9,0,0,1-3.7.69c-3.43,0-5.47-2.25-5.47-5.61s2-6,5.22-6c3.63,0,4.6,3.19,4.6,5.24a8.11,8.11,0,0,1-.07.94Zm5.93-1.45c0-1.28-.53-3.28-2.8-3.28-2,0-2.95,1.88-3.11,3.28Z"/><path class="cls-1" d="M138.06,18.84c0-1.31,0-2.43-.1-3.47h1.77l.07,2.19h.1A3.32,3.32,0,0,1,143,15.12a2,2,0,0,1,.57.07V17.1a2.78,2.78,0,0,0-3.4,2.52,5.38,5.38,0,0,0-.09.95V26.5h-2Z"/><path class="cls-1" d="M160.07,10.17V23.63c0,1,0,2.11.09,2.87h-1.82l-.09-1.93h-.05a4.12,4.12,0,0,1-3.79,2.18c-2.69,0-4.76-2.27-4.76-5.65,0-3.71,2.27-6,5-6a3.73,3.73,0,0,1,3.36,1.7h0V10.17Zm-2,9.73a3.51,3.51,0,0,0-.09-.85A3,3,0,0,0,155,16.7c-2.09,0-3.34,1.84-3.34,4.3,0,2.26,1.11,4.12,3.29,4.12a3,3,0,0,0,3-2.41,3.55,3.55,0,0,0,.09-.88Z"/><path class="cls-1" d="M164.55,21.3a3.57,3.57,0,0,0,3.82,3.87,7.33,7.33,0,0,0,3.08-.58l.34,1.45a9,9,0,0,1-3.7.69c-3.42,0-5.47-2.25-5.47-5.61s2-6,5.22-6c3.63,0,4.6,3.19,4.6,5.24a8.11,8.11,0,0,1-.07.94Zm5.93-1.45c0-1.28-.52-3.28-2.8-3.28-2.05,0-2.94,1.88-3.11,3.28Z"/><path class="cls-1" d="M175,18.84c0-1.31,0-2.43-.09-3.47h1.77l.06,2.19h.1a3.32,3.32,0,0,1,3.08-2.44,2,2,0,0,1,.57.07V17.1a2.77,2.77,0,0,0-.69-.07A2.84,2.84,0,0,0,177,19.62a5.38,5.38,0,0,0-.09.95V26.5h-2Z"/><path class="cls-1" d="M187.55,26.5V16.91H186V15.37h1.56v-.53A5.24,5.24,0,0,1,188.84,11a3.86,3.86,0,0,1,2.71-1,4.76,4.76,0,0,1,1.73.32L193,11.81a3,3,0,0,0-1.29-.26c-1.72,0-2.16,1.52-2.16,3.22v.6h2.69v1.54h-2.69V26.5Z"/><path class="cls-1" d="M203.83,20.84c0,4.12-2.85,5.91-5.54,5.91-3,0-5.33-2.2-5.33-5.72,0-3.73,2.43-5.91,5.52-5.91S203.83,17.44,203.83,20.84ZM195,21c0,2.44,1.41,4.28,3.38,4.28s3.38-1.82,3.38-4.33c0-1.88-.94-4.27-3.33-4.27S195,18.84,195,21Z"/><path class="cls-1" d="M206.39,18.84c0-1.31,0-2.43-.09-3.47h1.77l.07,2.19h.09a3.32,3.32,0,0,1,3.08-2.44,2,2,0,0,1,.57.07V17.1a2.77,2.77,0,0,0-.69-.07,2.84,2.84,0,0,0-2.71,2.59,6.53,6.53,0,0,0-.09.95V26.5h-2Z"/><path class="cls-1" d="M219.91,21.3a3.57,3.57,0,0,0,3.82,3.87,7.33,7.33,0,0,0,3.08-.58l.35,1.45a9.12,9.12,0,0,1-3.71.69c-3.42,0-5.47-2.25-5.47-5.61s2-6,5.22-6c3.63,0,4.6,3.19,4.6,5.24a8.11,8.11,0,0,1-.07.94Zm5.93-1.45c0-1.28-.52-3.28-2.8-3.28-2,0-2.94,1.88-3.11,3.28Z"/><path class="cls-1" d="M230.31,18.38c0-1.15,0-2.09-.09-3H232l.11,1.84h0a4.09,4.09,0,0,1,3.68-2.09c1.54,0,3.93.92,3.93,4.73V26.5h-2V20.08c0-1.79-.67-3.28-2.58-3.28a2.87,2.87,0,0,0-2.71,2.07,2.91,2.91,0,0,0-.14.94V26.5h-2Z"/><path class="cls-1" d="M22.8,48.08h.05c.28-.4.67-.88,1-1.27L27.1,43h2.44l-4.3,4.58,4.9,6.55H27.68l-3.84-5.33-1,1.15V54.1h-2V37.77h2Z"/><path class="cls-1" d="M32,37.77h2V54.1H32Z"/><path class="cls-1" d="M43.57,54.1l-.16-1.4h-.07a4.14,4.14,0,0,1-3.4,1.65,3.17,3.17,0,0,1-3.4-3.19c0-2.69,2.39-4.17,6.69-4.14v-.23a2.3,2.3,0,0,0-2.53-2.58,5.5,5.5,0,0,0-2.9.83l-.46-1.33a6.88,6.88,0,0,1,3.66-1c3.4,0,4.23,2.32,4.23,4.55v4.16a15.5,15.5,0,0,0,.18,2.67Zm-.3-5.68c-2.2-.05-4.71.35-4.71,2.51a1.79,1.79,0,0,0,1.91,1.93A2.77,2.77,0,0,0,43.16,51a2.11,2.11,0,0,0,.11-.65Z"/><path class="cls-1" d="M48.5,46c0-1.15,0-2.09-.1-3h1.77l.1,1.79h.06a3.86,3.86,0,0,1,3.5-2A3.29,3.29,0,0,1,57,45H57a4.48,4.48,0,0,1,1.24-1.45,3.76,3.76,0,0,1,2.46-.78c1.47,0,3.65,1,3.65,4.83V54.1h-2V47.8c0-2.14-.78-3.43-2.42-3.43a2.62,2.62,0,0,0-2.39,1.84,3.45,3.45,0,0,0-.16,1V54.1h-2V47.43c0-1.77-.78-3.06-2.32-3.06a2.78,2.78,0,0,0-2.51,2,2.9,2.9,0,0,0-.16,1V54.1h-2Z"/><path class="cls-1" d="M74.55,48.08h0c.28-.4.67-.88,1-1.27L78.85,43h2.44L77,47.55l4.9,6.55H79.43l-3.84-5.33-1,1.15V54.1h-2V37.77h2Z"/><path class="cls-1" d="M91.5,48.74c-.07,2.65,1.45,4,3.54,4a6.61,6.61,0,0,0,3-.64l.37,1.42a8,8,0,0,1-3.66.78,4.39,4.39,0,0,1-4.23-2.46h0a4.34,4.34,0,0,1-4.13,2.46,3.18,3.18,0,0,1-3.48-3.17c0-2.58,2.39-4.07,6.72-4V46.7A2.47,2.47,0,0,0,87,44.21a5.39,5.39,0,0,0-2.85.85l-.49-1.33a7.08,7.08,0,0,1,3.48-1,3.37,3.37,0,0,1,3.58,2.37h.05a4.22,4.22,0,0,1,3.89-2.37c3.4,0,4.34,3.29,4.34,5.13a4.32,4.32,0,0,1-.07.89Zm-1.86-.23c-2.14,0-4.74.32-4.74,2.51a1.8,1.8,0,0,0,1.93,1.84A2.74,2.74,0,0,0,89.53,51a2.38,2.38,0,0,0,.11-.8Zm7.43-1.22c.07-1.12-.55-3.12-2.6-3.12a3.16,3.16,0,0,0-3,3.12Z"/><path class="cls-1" d="M101.53,37.77h2V54.1h-2Z"/><path class="cls-1" d="M107,37.77h2V54.1h-2Z"/><path class="cls-1" d="M114.64,39.84a1.26,1.26,0,0,1-2.51,0,1.23,1.23,0,0,1,1.27-1.26A1.2,1.2,0,0,1,114.64,39.84ZM112.39,54.1V43h2V54.1Z"/><path class="cls-1" d="M117.77,46c0-1.15,0-2.09-.09-3h1.79l.12,1.84h0a4.09,4.09,0,0,1,3.68-2.09c1.54,0,3.93.92,3.93,4.73V54.1h-2V47.68c0-1.79-.67-3.28-2.57-3.28a2.88,2.88,0,0,0-2.72,2.07,2.91,2.91,0,0,0-.14.94V54.1h-2Z"/><path class="cls-1" d="M140.12,43c0,.81-.09,1.7-.09,3.06v6.46c0,2.55-.5,4.12-1.58,5.08a5.94,5.94,0,0,1-4,1.34,7.22,7.22,0,0,1-3.7-.92l.5-1.54a6.31,6.31,0,0,0,3.27.87c2.07,0,3.58-1.08,3.58-3.89V52.19h0a4,4,0,0,1-3.54,1.86c-2.76,0-4.74-2.34-4.74-5.42,0-3.77,2.46-5.91,5-5.91a3.72,3.72,0,0,1,3.48,1.93h0l.09-1.68ZM138,47.36a3,3,0,0,0-.11-.92,2.92,2.92,0,0,0-2.83-2.14c-1.93,0-3.31,1.64-3.31,4.21,0,2.19,1.1,4,3.29,4a3,3,0,0,0,2.8-2.07,3.33,3.33,0,0,0,.16-1.08Z"/><path class="cls-1" d="M157.88,37.77V51.23c0,1,0,2.11.09,2.87h-1.82l-.09-1.93h0a4.12,4.12,0,0,1-3.8,2.18c-2.69,0-4.76-2.27-4.76-5.65,0-3.71,2.28-6,5-6a3.73,3.73,0,0,1,3.36,1.7h.05V37.77Zm-2,9.73a3.53,3.53,0,0,0-.1-.85,3,3,0,0,0-2.92-2.35c-2.09,0-3.33,1.84-3.33,4.3,0,2.26,1.1,4.12,3.29,4.12a3,3,0,0,0,3-2.41,3.54,3.54,0,0,0,.1-.88Z"/><path class="cls-1" d="M162.37,48.9a3.56,3.56,0,0,0,3.81,3.87,7.29,7.29,0,0,0,3.08-.58l.35,1.45a9,9,0,0,1-3.7.69c-3.43,0-5.48-2.25-5.48-5.61s2-6,5.22-6c3.64,0,4.6,3.19,4.6,5.24a6.34,6.34,0,0,1-.07.94Zm5.93-1.45c0-1.28-.53-3.28-2.81-3.28-2,0-2.94,1.88-3.1,3.28Z"/><path class="cls-1" d="M172.76,46.44c0-1.31,0-2.43-.09-3.47h1.77l.07,2.19h.09a3.34,3.34,0,0,1,3.08-2.44,2.1,2.1,0,0,1,.58.07V44.7a2.87,2.87,0,0,0-.69-.07,2.84,2.84,0,0,0-2.72,2.59,6.53,6.53,0,0,0-.09,1V54.1h-2Z"/><path class="cls-1" d="M187.16,48.08h.05c.27-.4.66-.88,1-1.27L191.46,43h2.44l-4.3,4.58,4.9,6.55H192l-3.84-5.33-1,1.15V54.1h-2V37.77h2Z"/><path class="cls-1" d="M206,48.44c0,4.12-2.85,5.91-5.54,5.91-3,0-5.34-2.2-5.34-5.72,0-3.73,2.44-5.91,5.52-5.91S206,45,206,48.44Zm-8.83.12c0,2.44,1.4,4.28,3.38,4.28S204,51,204,48.51c0-1.88-.95-4.27-3.34-4.27S197.19,46.44,197.19,48.56Z"/><path class="cls-1" d="M208.57,46c0-1.15,0-2.09-.09-3h1.77l.09,1.79h.07a3.85,3.85,0,0,1,3.5-2A3.3,3.3,0,0,1,217.06,45h0a4.6,4.6,0,0,1,1.24-1.45,3.8,3.8,0,0,1,2.47-.78c1.47,0,3.65,1,3.65,4.83V54.1h-2V47.8c0-2.14-.78-3.43-2.41-3.43a2.61,2.61,0,0,0-2.39,1.84,3.45,3.45,0,0,0-.16,1V54.1h-2V47.43c0-1.77-.78-3.06-2.32-3.06a2.76,2.76,0,0,0-2.51,2,2.9,2.9,0,0,0-.16,1V54.1h-2Z"/><path class="cls-1" d="M242.7,48.44c0,4.12-2.85,5.91-5.54,5.91-3,0-5.33-2.2-5.33-5.72,0-3.73,2.43-5.91,5.51-5.91S242.7,45,242.7,48.44Zm-8.83.12c0,2.44,1.4,4.28,3.38,4.28s3.38-1.82,3.38-4.33c0-1.88-.94-4.27-3.33-4.27S233.87,46.44,233.87,48.56Z"/><path class="cls-1" d="M245.26,46.6c0-1.42,0-2.57-.09-3.63H247l.09,1.91h.05a4.37,4.37,0,0,1,3.95-2.16c2.69,0,4.72,2.27,4.72,5.65,0,4-2.44,6-5.06,6a3.92,3.92,0,0,1-3.43-1.74h0v6h-2Zm2,3a4.22,4.22,0,0,0,.09.83,3.13,3.13,0,0,0,3,2.37c2.14,0,3.38-1.75,3.38-4.3,0-2.23-1.17-4.14-3.31-4.14a3.22,3.22,0,0,0-3,2.5,3.35,3.35,0,0,0-.14.83Z"/><path class="cls-1" d="M20.8,74.2c0-1.42,0-2.57-.09-3.63h1.82l.09,1.91h.05a4.35,4.35,0,0,1,3.95-2.16c2.69,0,4.72,2.27,4.72,5.65,0,4-2.44,6-5.06,6a3.91,3.91,0,0,1-3.43-1.74H22.8v6h-2Zm2,3a4.19,4.19,0,0,0,.1.83,3.11,3.11,0,0,0,3,2.37c2.14,0,3.38-1.75,3.38-4.3,0-2.23-1.17-4.14-3.31-4.14a3.23,3.23,0,0,0-3.06,2.5,3.35,3.35,0,0,0-.14.83Z"/><path class="cls-1" d="M40.05,81.7l-.16-1.4h-.07A4.14,4.14,0,0,1,36.42,82,3.17,3.17,0,0,1,33,78.76c0-2.69,2.39-4.17,6.69-4.14v-.23a2.3,2.3,0,0,0-2.53-2.58,5.5,5.5,0,0,0-2.9.83l-.46-1.33a6.88,6.88,0,0,1,3.66-1c3.4,0,4.23,2.32,4.23,4.55V79a15.5,15.5,0,0,0,.18,2.67ZM39.75,76c-2.2,0-4.71.35-4.71,2.51A1.79,1.79,0,0,0,37,80.46a2.77,2.77,0,0,0,2.69-1.86,2.11,2.11,0,0,0,.11-.65Zm-4.34-8.76a2.16,2.16,0,0,1,2.34-2.18,2.14,2.14,0,1,1-2.34,2.18Zm3.49-.05a1.17,1.17,0,1,0-2.32.05,1.16,1.16,0,1,0,2.32-.05Z"/><path class="cls-1" d="M49.85,73.58c0-1.15,0-2.09-.09-3h1.77l.09,1.79h.07a3.85,3.85,0,0,1,3.5-2,3.3,3.3,0,0,1,3.15,2.23h0a4.63,4.63,0,0,1,1.25-1.45,3.76,3.76,0,0,1,2.46-.78c1.47,0,3.65,1,3.65,4.83V81.7h-2V75.4c0-2.14-.78-3.43-2.41-3.43A2.61,2.61,0,0,0,59,73.81a3.45,3.45,0,0,0-.16,1V81.7h-2V75C56.82,73.26,56,72,54.5,72A2.77,2.77,0,0,0,52,74a2.9,2.9,0,0,0-.16,1V81.7h-2Z"/><path class="cls-1" d="M71.29,67.44a1.26,1.26,0,0,1-2.51,0,1.23,1.23,0,0,1,1.27-1.26A1.2,1.2,0,0,1,71.29,67.44ZM69,81.7V70.57h2V81.7Z"/><path class="cls-1" d="M74.42,73.58c0-1.15,0-2.09-.1-3h1.8l.11,1.84h0A4.09,4.09,0,0,1,80,70.32c1.54,0,3.93.92,3.93,4.73V81.7h-2V75.28c0-1.79-.67-3.28-2.58-3.28a2.87,2.87,0,0,0-2.71,2.07,2.91,2.91,0,0,0-.14.94V81.7h-2Z"/><path class="cls-1" d="M91.78,79.63a5.34,5.34,0,0,0,2.67.81c1.47,0,2.16-.74,2.16-1.66s-.57-1.49-2.07-2c-2-.71-2.94-1.81-2.94-3.15,0-1.79,1.44-3.26,3.84-3.26a5.52,5.52,0,0,1,2.73.69l-.5,1.47a4.3,4.3,0,0,0-2.28-.65c-1.19,0-1.86.7-1.86,1.52s.67,1.34,2.11,1.89c1.94.73,2.92,1.7,2.92,3.36,0,2-1.51,3.33-4.16,3.33a6.38,6.38,0,0,1-3.13-.76Z"/><path class="cls-1" d="M103.16,75.68h0c.28-.4.67-.88,1-1.27l3.26-3.84h2.44l-4.3,4.58,4.9,6.55H108l-3.84-5.33-1,1.14V81.7h-2V65.37h2Z"/><path class="cls-1" d="M120.11,76.34c-.06,2.65,1.45,4,3.55,4a6.56,6.56,0,0,0,3-.64l.37,1.42a8,8,0,0,1-3.66.78,4.4,4.4,0,0,1-4.23-2.46h0A4.36,4.36,0,0,1,115,82a3.18,3.18,0,0,1-3.48-3.17c0-2.58,2.4-4.07,6.72-4V74.3a2.47,2.47,0,0,0-2.6-2.49,5.42,5.42,0,0,0-2.85.85l-.48-1.33a7.07,7.07,0,0,1,3.47-1,3.39,3.39,0,0,1,3.59,2.37h0a4.22,4.22,0,0,1,3.89-2.37c3.4,0,4.34,3.29,4.34,5.13a4.32,4.32,0,0,1-.07.89Zm-1.86-.23c-2.14,0-4.74.32-4.74,2.51a1.81,1.81,0,0,0,1.94,1.84,2.72,2.72,0,0,0,2.69-1.91,2.38,2.38,0,0,0,.11-.8Zm7.43-1.22c.07-1.12-.55-3.12-2.6-3.12a3.16,3.16,0,0,0-3,3.12Z"/><path class="cls-1" d="M130.14,74c0-1.31,0-2.43-.09-3.47h1.77l.07,2.18H132a3.35,3.35,0,0,1,3.08-2.43,2,2,0,0,1,.58.07v1.9a3.47,3.47,0,0,0-.69-.06,2.83,2.83,0,0,0-2.71,2.59,5.33,5.33,0,0,0-.1,1V81.7h-2Z"/><path class="cls-1" d="M137.76,73.58c0-1.15,0-2.09-.09-3h1.77l.09,1.79h.07a3.84,3.84,0,0,1,3.49-2,3.29,3.29,0,0,1,3.15,2.23h0a4.48,4.48,0,0,1,1.24-1.45,3.77,3.77,0,0,1,2.46-.78c1.47,0,3.66,1,3.66,4.83V81.7h-2V75.4c0-2.14-.78-3.43-2.42-3.43a2.62,2.62,0,0,0-2.39,1.84,3.45,3.45,0,0,0-.16,1V81.7h-2V75c0-1.77-.78-3.06-2.32-3.06a2.77,2.77,0,0,0-2.5,2,2.68,2.68,0,0,0-.17,1V81.7h-2Z"/><path class="cls-1" d="M171.43,65.37V78.83c0,1,0,2.11.09,2.87H169.7l-.09-1.93h-.05A4.11,4.11,0,0,1,165.77,82c-2.69,0-4.76-2.27-4.76-5.65,0-3.71,2.28-6,5-6a3.73,3.73,0,0,1,3.36,1.7h0V65.37Zm-2,9.73a3.51,3.51,0,0,0-.09-.85,3,3,0,0,0-2.92-2.35c-2.09,0-3.33,1.84-3.33,4.3,0,2.26,1.1,4.12,3.28,4.12a3,3,0,0,0,3-2.41,3.55,3.55,0,0,0,.09-.88Z"/><path class="cls-1" d="M175.91,76.5a3.57,3.57,0,0,0,3.82,3.87,7.33,7.33,0,0,0,3.08-.58l.35,1.45a9.12,9.12,0,0,1-3.71.69c-3.42,0-5.47-2.25-5.47-5.61s2-6,5.22-6c3.63,0,4.6,3.19,4.6,5.24a8.11,8.11,0,0,1-.07.94Zm5.94-1.45c0-1.28-.53-3.28-2.81-3.28-2,0-2.94,1.88-3.1,3.28Z"/><path class="cls-1" d="M186.31,74c0-1.31,0-2.43-.09-3.47H188l.07,2.18h.09a3.34,3.34,0,0,1,3.08-2.43,2.1,2.1,0,0,1,.58.07v1.9a3.54,3.54,0,0,0-.69-.06,2.84,2.84,0,0,0-2.72,2.59,6.53,6.53,0,0,0-.09,1V81.7h-2Z"/><use transform="translate(194.66 60.53) scale(0.17)" xlink:href="#image"/><use transform="translate(223.91 60.44) scale(0.17)" xlink:href="#image"/></svg>
