<svg id="Layer_1" data-name="Layer 1" xmlns="http://www.w3.org/2000/svg" width="270" height="120" viewBox="0 0 270 120"><defs><style>.cls-1{fill:#ccc;}</style></defs><title>newgrey4</title><path d="M23.4,14.08v6.2h7.17v-6.2h1.94V28.91H30.57V22H23.4v7H21.48V14.08Z"/><path d="M36.71,18.26l2.09,6A28.16,28.16,0,0,1,39.66,27h.06c.24-.88.55-1.76.91-2.73l2.06-6h2L40.54,28.91H38.69l-4-10.65Z"/><path d="M52.35,28.91l-.15-1.35h-.07a4,4,0,0,1-3.26,1.59,3,3,0,0,1-3.25-3.06c0-2.57,2.29-4,6.4-4v-.22a2.2,2.2,0,0,0-2.42-2.47,5.25,5.25,0,0,0-2.77.8L46.39,19a6.61,6.61,0,0,1,3.5-.95c3.25,0,4,2.23,4,4.36v4a15.33,15.33,0,0,0,.17,2.56Zm-.29-5.44c-2.11,0-4.51.33-4.51,2.4a1.72,1.72,0,0,0,1.83,1.85A2.63,2.63,0,0,0,52,25.94a1.93,1.93,0,0,0,.11-.62Z"/><path d="M66.26,13.28V26.16c0,.94,0,2,.08,2.75H64.6l-.08-1.85h0a3.93,3.93,0,0,1-3.63,2.09c-2.57,0-4.55-2.18-4.55-5.41,0-3.55,2.18-5.73,4.77-5.73a3.55,3.55,0,0,1,3.21,1.63h0V13.28Zm-1.94,9.31a3.2,3.2,0,0,0-.09-.81,2.84,2.84,0,0,0-2.79-2.25c-2,0-3.19,1.76-3.19,4.12,0,2.15,1,3.94,3.14,3.94a2.91,2.91,0,0,0,2.84-2.31,3.23,3.23,0,0,0,.09-.84Z"/><path d="M74.33,28.91V19.73h-1.5V18.26h1.5v-.51A5,5,0,0,1,75.56,14a3.73,3.73,0,0,1,2.6-1,4.61,4.61,0,0,1,1.65.31l-.27,1.5a2.73,2.73,0,0,0-1.23-.25c-1.65,0-2.07,1.46-2.07,3.08v.58h2.58v1.47H76.24v9.18Z"/><path d="M89.46,26q0,1.65.09,2.91H87.84l-.11-1.74h0a4,4,0,0,1-3.52,2c-1.67,0-3.67-.93-3.67-4.67V18.26h1.93v5.89c0,2,.62,3.39,2.38,3.39a2.74,2.74,0,0,0,2.73-2.75V18.26h1.93Z"/><path d="M100.27,28.51a7.21,7.21,0,0,1-3.06.62,5.06,5.06,0,0,1-5.3-5.44A5.4,5.4,0,0,1,97.63,18a6.38,6.38,0,0,1,2.68.55l-.44,1.49a4.54,4.54,0,0,0-2.24-.5c-2.45,0-3.77,1.8-3.77,4a3.66,3.66,0,0,0,3.7,4,5.55,5.55,0,0,0,2.38-.53Z"/><path d="M104.45,23.14h0c.26-.37.64-.83,1-1.21l3.12-3.67h2.33l-4.11,4.38,4.68,6.27h-2.35l-3.67-5.11-1,1.1v4h-1.92V13.28h1.92Z"/><path d="M117.51,13.28h1.94v6.65h0a3.73,3.73,0,0,1,1.39-1.37,4,4,0,0,1,2-.55c1.43,0,3.72.89,3.72,4.56v6.34h-1.94V22.79c0-1.72-.64-3.17-2.46-3.17a2.78,2.78,0,0,0-2.6,1.94,2.33,2.33,0,0,0-.13.92v6.43h-1.94Z"/><path d="M135.62,28.91l-.16-1.35h-.06a4,4,0,0,1-3.26,1.59,3,3,0,0,1-3.25-3.06c0-2.57,2.28-4,6.4-4v-.22a2.2,2.2,0,0,0-2.42-2.47,5.23,5.23,0,0,0-2.77.8L129.66,19a6.61,6.61,0,0,1,3.5-.95c3.25,0,4,2.23,4,4.36v4a15.26,15.26,0,0,0,.18,2.56Zm-.29-5.44c-2.11,0-4.51.33-4.51,2.4a1.72,1.72,0,0,0,1.83,1.85,2.63,2.63,0,0,0,2.57-1.78,1.93,1.93,0,0,0,.11-.62Z"/><path d="M140.33,21.58c0-1.25,0-2.33-.09-3.32h1.69l.07,2.09h.09A3.2,3.2,0,0,1,145,18a2.29,2.29,0,0,1,.55.07v1.83a2.62,2.62,0,0,0-.66-.07,2.72,2.72,0,0,0-2.6,2.49,5.82,5.82,0,0,0-.09.9v5.68h-1.91Z"/><path d="M161.38,13.28V26.16c0,.94,0,2,.09,2.75h-1.74l-.09-1.85h0A3.94,3.94,0,0,1,156,29.15c-2.58,0-4.56-2.18-4.56-5.41,0-3.55,2.18-5.73,4.78-5.73a3.55,3.55,0,0,1,3.21,1.63h0V13.28Zm-1.93,9.31a3.72,3.72,0,0,0-.09-.81,2.85,2.85,0,0,0-2.8-2.25c-2,0-3.19,1.76-3.19,4.12,0,2.15,1.06,3.94,3.15,3.94a2.92,2.92,0,0,0,2.84-2.31,3.73,3.73,0,0,0,.09-.84Z"/><path d="M173.5,26q0,1.65.09,2.91h-1.71l-.11-1.74h-.05a4,4,0,0,1-3.52,2c-1.67,0-3.67-.93-3.67-4.67V18.26h1.93v5.89c0,2,.62,3.39,2.38,3.39a2.74,2.74,0,0,0,2.73-2.75V18.26h1.93Z"/><path d="M190.55,18.26c0,.77-.09,1.62-.09,2.92v6.19c0,2.44-.48,3.93-1.51,4.86a5.65,5.65,0,0,1-3.88,1.27,6.9,6.9,0,0,1-3.54-.87l.49-1.48a6,6,0,0,0,3.12.84c2,0,3.43-1,3.43-3.72V27.08h0a3.81,3.81,0,0,1-3.39,1.78c-2.64,0-4.53-2.24-4.53-5.19,0-3.61,2.35-5.66,4.79-5.66a3.56,3.56,0,0,1,3.33,1.85h0l.09-1.6Zm-2,4.2a2.69,2.69,0,0,0-.11-.88,2.8,2.8,0,0,0-2.71-2c-1.84,0-3.16,1.57-3.16,4,0,2.09,1.05,3.83,3.14,3.83a2.84,2.84,0,0,0,2.69-2,3.4,3.4,0,0,0,.15-1Z"/><path d="M199.57,28.91l-.15-1.35h-.07a4,4,0,0,1-3.25,1.59,3,3,0,0,1-3.26-3.06c0-2.57,2.29-4,6.4-4v-.22a2.2,2.2,0,0,0-2.42-2.47,5.25,5.25,0,0,0-2.77.8L193.61,19a6.64,6.64,0,0,1,3.5-.95c3.25,0,4,2.23,4,4.36v4a15.33,15.33,0,0,0,.17,2.56Zm-.28-5.44c-2.12,0-4.51.33-4.51,2.4a1.71,1.71,0,0,0,1.82,1.85,2.66,2.66,0,0,0,2.58-1.78,2.25,2.25,0,0,0,.11-.62Z"/><path d="M204.28,21.14c0-1.1,0-2-.09-2.88h1.72L206,20h0a3.91,3.91,0,0,1,3.52-2c1.48,0,3.77.89,3.77,4.54v6.36h-1.94V22.77c0-1.72-.64-3.15-2.47-3.15a2.75,2.75,0,0,0-2.59,2,2.71,2.71,0,0,0-.13.9v6.41h-1.94Z"/><path d="M225.66,18.26c0,.77-.08,1.62-.08,2.92v6.19c0,2.44-.49,3.93-1.52,4.86a5.64,5.64,0,0,1-3.87,1.27,6.92,6.92,0,0,1-3.55-.87l.49-1.48a6,6,0,0,0,3.12.84c2,0,3.43-1,3.43-3.72V27.08h0a3.8,3.8,0,0,1-3.39,1.78c-2.64,0-4.53-2.24-4.53-5.19,0-3.61,2.35-5.66,4.8-5.66a3.55,3.55,0,0,1,3.32,1.85h0l.09-1.6Zm-2,4.2a2.69,2.69,0,0,0-.11-.88,2.79,2.79,0,0,0-2.7-2c-1.85,0-3.17,1.57-3.17,4,0,2.09,1,3.83,3.14,3.83a2.84,2.84,0,0,0,2.69-2,3.4,3.4,0,0,0,.15-1Z"/><path d="M235.61,15.26a1.2,1.2,0,0,1-2.4,0,1.18,1.18,0,0,1,1.21-1.21A1.15,1.15,0,0,1,235.61,15.26Zm-2.16,13.65V18.26h1.94V28.91Z"/><path d="M240.09,24.7l0-.57a5,5,0,0,1,1.37-3.8c1-1.17,1.54-2,1.54-3s-.71-1.87-2.09-1.89a3.9,3.9,0,0,0-2.23.68l-.53-1.39a5.85,5.85,0,0,1,3.15-.88c2.53,0,3.68,1.57,3.68,3.24,0,1.49-.84,2.57-1.9,3.83a4.35,4.35,0,0,0-1.25,3.23l0,.57Zm-.48,3.08a1.3,1.3,0,0,1,1.32-1.38,1.38,1.38,0,0,1,0,2.75A1.3,1.3,0,0,1,239.61,27.78Z"/><path d="M21.48,40.67a28.51,28.51,0,0,1,4.08-.3c2.75,0,4.7.63,6,1.84a6.84,6.84,0,0,1,2.09,5.33,7.85,7.85,0,0,1-2.13,5.76c-1.39,1.39-3.68,2.14-6.56,2.14a31,31,0,0,1-3.48-.18ZM23.4,53.79a11.87,11.87,0,0,0,1.94.11c4.09,0,6.31-2.29,6.31-6.3,0-3.49-2-5.72-6-5.72a10.83,10.83,0,0,0-2.24.2Z"/><path d="M45.05,52.4c0,1.1,0,2.07.09,2.91H43.42l-.11-1.74h0a4,4,0,0,1-3.53,2c-1.67,0-3.67-.93-3.67-4.67V44.66H38v5.89c0,2,.61,3.39,2.37,3.39a2.81,2.81,0,0,0,2.56-1.76,3.06,3.06,0,0,0,.17-1V44.66h1.94Z"/><path d="M52.66,53.33a5.09,5.09,0,0,0,2.55.77c1.41,0,2.07-.71,2.07-1.59s-.55-1.43-2-2c-1.92-.68-2.82-1.73-2.82-3,0-1.72,1.39-3.13,3.68-3.13a5.31,5.31,0,0,1,2.61.66l-.48,1.41a4.2,4.2,0,0,0-2.18-.61c-1.14,0-1.78.66-1.78,1.45s.64,1.28,2,1.8c1.85.71,2.8,1.63,2.8,3.22,0,1.87-1.45,3.19-4,3.19a6.1,6.1,0,0,1-3-.73Z"/><path d="M63.55,49.54h0c.27-.37.64-.83,1-1.21l3.12-3.67H70L65.88,49l4.69,6.27H68.21L64.54,50.2l-1,1.1v4H61.63V39.68h1.92Z"/><path d="M78.24,55.31,78.09,54H78a3.94,3.94,0,0,1-3.25,1.59,3,3,0,0,1-3.26-3.06c0-2.57,2.29-4,6.4-4v-.22a2.2,2.2,0,0,0-2.42-2.47,5.25,5.25,0,0,0-2.77.8l-.44-1.28a6.64,6.64,0,0,1,3.5-1c3.26,0,4,2.23,4,4.36v4A15.33,15.33,0,0,0,80,55.31ZM78,49.87c-2.11,0-4.51.33-4.51,2.4a1.71,1.71,0,0,0,1.82,1.85,2.66,2.66,0,0,0,2.58-1.78,2.25,2.25,0,0,0,.11-.62Z"/><path d="M83,39.68h1.94V55.31H83Z"/><path d="M95,41.66a1.14,1.14,0,0,1-1.23,1.19,1.16,1.16,0,0,1-1.17-1.19,1.18,1.18,0,0,1,1.21-1.21A1.15,1.15,0,0,1,95,41.66ZM92.81,55.31V44.66h1.93V55.31Z"/><path d="M99.87,49.54h0c.27-.37.64-.83,1-1.21L104,44.66h2.34L102.2,49l4.69,6.27h-2.36l-3.67-5.11-1,1.1v4H98V39.68h1.91Z"/><path d="M110.56,49.54h0c.27-.37.64-.83,1-1.21l3.12-3.67H117L112.89,49l4.69,6.27h-2.35l-3.68-5.11-1,1.1v4h-1.91V39.68h1.91Z"/><path d="M120,50.33A3.42,3.42,0,0,0,123.7,54a6.93,6.93,0,0,0,2.94-.55l.33,1.39a8.72,8.72,0,0,1-3.54.66c-3.28,0-5.24-2.16-5.24-5.37s1.9-5.75,5-5.75c3.48,0,4.4,3.06,4.4,5a5.72,5.72,0,0,1-.07.9ZM125.72,49c0-1.24-.51-3.15-2.68-3.15-2,0-2.82,1.8-3,3.15Z"/><path d="M134.39,53.33a5.09,5.09,0,0,0,2.55.77c1.41,0,2.07-.71,2.07-1.59s-.55-1.43-2-2c-1.92-.68-2.82-1.73-2.82-3,0-1.72,1.39-3.13,3.67-3.13a5.33,5.33,0,0,1,2.62.66L140,46.48a4.2,4.2,0,0,0-2.18-.61c-1.14,0-1.78.66-1.78,1.45s.64,1.28,2,1.8c1.85.71,2.8,1.63,2.8,3.22,0,1.87-1.46,3.19-4,3.19a6.09,6.09,0,0,1-3-.73Z"/><path d="M144.44,50.33a3.41,3.41,0,0,0,3.65,3.7,7,7,0,0,0,2.95-.55l.33,1.39a8.76,8.76,0,0,1-3.54.66c-3.28,0-5.24-2.16-5.24-5.37s1.89-5.75,5-5.75c3.47,0,4.4,3.06,4.4,5a7.28,7.28,0,0,1-.07.9ZM150.12,49c0-1.24-.51-3.15-2.69-3.15-2,0-2.81,1.8-3,3.15Z"/><path d="M154.38,47.54c0-1.1,0-2-.08-2.88H156l.11,1.76h0a3.9,3.9,0,0,1,3.52-2c1.47,0,3.76.88,3.76,4.54v6.36h-1.94V49.17c0-1.72-.63-3.15-2.46-3.15a2.75,2.75,0,0,0-2.6,2,2.71,2.71,0,0,0-.13.9v6.41h-1.94Z"/><path d="M175.79,39.68V52.56c0,.94,0,2,.09,2.75h-1.74l-.09-1.85h0a3.94,3.94,0,0,1-3.63,2.09c-2.58,0-4.56-2.18-4.56-5.41,0-3.55,2.18-5.73,4.78-5.73A3.55,3.55,0,0,1,173.81,46h0V39.68ZM173.85,49a3.71,3.71,0,0,0-.08-.81,2.86,2.86,0,0,0-2.8-2.25c-2,0-3.19,1.76-3.19,4.12,0,2.15,1.06,3.94,3.15,3.94a2.92,2.92,0,0,0,2.84-2.31,3.74,3.74,0,0,0,.08-.84Z"/><path d="M180.08,50.33a3.41,3.41,0,0,0,3.65,3.7,7,7,0,0,0,3-.55l.33,1.39a8.76,8.76,0,0,1-3.54.66c-3.28,0-5.24-2.16-5.24-5.37s1.89-5.75,5-5.75c3.47,0,4.4,3.06,4.4,5a7.28,7.28,0,0,1-.07.9ZM185.76,49c0-1.24-.51-3.15-2.69-3.15-2,0-2.81,1.8-3,3.15Z"/><path d="M194.42,53.33a5.16,5.16,0,0,0,2.56.77c1.4,0,2.06-.71,2.06-1.59s-.55-1.43-2-2c-1.91-.68-2.81-1.73-2.81-3,0-1.72,1.38-3.13,3.67-3.13a5.33,5.33,0,0,1,2.62.66l-.48,1.41a4.2,4.2,0,0,0-2.18-.61c-1.15,0-1.78.66-1.78,1.45s.63,1.28,2,1.8c1.85.71,2.79,1.63,2.79,3.22,0,1.87-1.45,3.19-4,3.19a6.09,6.09,0,0,1-3-.73Z"/><path d="M209.3,55.31,209.14,54h-.06a4,4,0,0,1-3.26,1.59,3,3,0,0,1-3.26-3.06c0-2.57,2.29-4,6.41-4v-.22a2.2,2.2,0,0,0-2.42-2.47,5.29,5.29,0,0,0-2.78.8l-.44-1.28a6.64,6.64,0,0,1,3.5-1c3.26,0,4,2.23,4,4.36v4a14.27,14.27,0,0,0,.18,2.56ZM209,49.87c-2.11,0-4.51.33-4.51,2.4a1.72,1.72,0,0,0,1.83,1.85,2.65,2.65,0,0,0,2.57-1.78,1.93,1.93,0,0,0,.11-.62Zm-4.16-8.38a2.08,2.08,0,0,1,2.25-2.09,2,2,0,0,1,2.17,2.07,2.22,2.22,0,0,1-4.42,0Zm3.35-.05a1.12,1.12,0,1,0-2.23.05,1.12,1.12,0,1,0,2.23-.05Z"/><path d="M223.2,39.68V52.56c0,.94,0,2,.09,2.75h-1.74l-.09-1.85h0a3.94,3.94,0,0,1-3.63,2.09c-2.58,0-4.56-2.18-4.56-5.41,0-3.55,2.18-5.73,4.78-5.73A3.55,3.55,0,0,1,221.22,46h0V39.68ZM221.26,49a3.71,3.71,0,0,0-.08-.81,2.86,2.86,0,0,0-2.8-2.25c-2,0-3.19,1.76-3.19,4.12,0,2.15,1.06,3.94,3.15,3.94a2.92,2.92,0,0,0,2.84-2.31,3.74,3.74,0,0,0,.08-.84Z"/><path d="M232.31,55.31,232.15,54h-.06a4,4,0,0,1-3.26,1.59,3,3,0,0,1-3.25-3.06c0-2.57,2.28-4,6.4-4v-.22a2.2,2.2,0,0,0-2.42-2.47,5.23,5.23,0,0,0-2.77.8l-.45-1.28a6.64,6.64,0,0,1,3.5-1c3.26,0,4,2.23,4,4.36v4a15.26,15.26,0,0,0,.18,2.56ZM232,49.87c-2.11,0-4.51.33-4.51,2.4a1.72,1.72,0,0,0,1.83,1.85,2.65,2.65,0,0,0,2.57-1.78,1.93,1.93,0,0,0,.11-.62Z"/><path d="M237,47.54c0-1.1,0-2-.08-2.88h1.71l.11,1.76h.05a3.91,3.91,0,0,1,3.52-2c1.47,0,3.76.88,3.76,4.54v6.36h-1.94V49.17c0-1.72-.63-3.15-2.46-3.15a2.75,2.75,0,0,0-2.6,2,3,3,0,0,0-.13.9v6.41H237Z"/><path d="M21.42,73.94c0-1.1,0-2-.09-2.88h1.72l.11,1.76h0a3.91,3.91,0,0,1,3.52-2c1.48,0,3.76.89,3.76,4.54v6.36H28.55V75.57c0-1.72-.64-3.15-2.47-3.15a2.75,2.75,0,0,0-2.59,2,2.7,2.7,0,0,0-.14.9v6.41H21.42Z"/><path d="M43.27,76.29C43.27,80.23,40.54,82,38,82c-2.88,0-5.1-2.11-5.1-5.48,0-3.57,2.33-5.66,5.28-5.66S43.27,73,43.27,76.29Zm-8.45.11c0,2.34,1.34,4.1,3.23,4.1s3.24-1.74,3.24-4.14c0-1.81-.91-4.09-3.19-4.09S34.82,74.38,34.82,76.4Z"/><path d="M54.88,71.06c0,.77-.09,1.62-.09,2.92v6.19c0,2.44-.48,3.93-1.51,4.86A5.65,5.65,0,0,1,49.4,86.3a6.81,6.81,0,0,1-3.54-.88L46.34,84a6,6,0,0,0,3.13.84c2,0,3.43-1,3.43-3.72V79.88h0a3.81,3.81,0,0,1-3.39,1.78c-2.64,0-4.53-2.24-4.53-5.19,0-3.61,2.35-5.66,4.79-5.66a3.56,3.56,0,0,1,3.33,1.85h0l.09-1.6Zm-2,4.2a2.69,2.69,0,0,0-.11-.88,2.8,2.8,0,0,0-2.71-2c-1.85,0-3.17,1.56-3.17,4,0,2.09,1.06,3.83,3.15,3.83a2.84,2.84,0,0,0,2.69-2,3.4,3.4,0,0,0,.15-1Z"/><path d="M59.08,76.73a3.42,3.42,0,0,0,3.65,3.7,7,7,0,0,0,3-.55L66,81.27a8.72,8.72,0,0,1-3.54.66c-3.28,0-5.24-2.16-5.24-5.37s1.9-5.75,5-5.75c3.48,0,4.4,3.06,4.4,5a5.72,5.72,0,0,1-.07.9Zm5.68-1.38c0-1.23-.51-3.15-2.69-3.15-2,0-2.81,1.8-3,3.15Z"/><path d="M71.36,68v3.06h2.77v1.47H71.36v5.74c0,1.32.37,2.07,1.45,2.07a4.1,4.1,0,0,0,1.12-.13L74,81.66a4.59,4.59,0,0,1-1.72.27,2.69,2.69,0,0,1-2.09-.82,3.94,3.94,0,0,1-.74-2.77V72.53H67.82V71.06h1.65V68.5Z"/><path d="M80.71,79.73a5.09,5.09,0,0,0,2.55.77c1.41,0,2.07-.71,2.07-1.59s-.55-1.43-2-2c-1.92-.68-2.82-1.74-2.82-3,0-1.72,1.39-3.13,3.68-3.13a5.31,5.31,0,0,1,2.61.66l-.48,1.41a4.2,4.2,0,0,0-2.18-.61c-1.14,0-1.78.66-1.78,1.45s.64,1.28,2,1.8c1.85.71,2.8,1.63,2.8,3.22,0,1.87-1.45,3.19-4,3.19a6.1,6.1,0,0,1-3-.73Z"/><path d="M89.68,66.08h1.94v6.65h0a3.64,3.64,0,0,1,1.39-1.36,4,4,0,0,1,2-.56c1.43,0,3.72.89,3.72,4.56v6.34H96.81V75.59c0-1.72-.64-3.17-2.46-3.17a2.78,2.78,0,0,0-2.6,1.94,2.33,2.33,0,0,0-.13.92v6.43H89.68Z"/><path d="M104.05,68.06a1.14,1.14,0,0,1-1.23,1.19,1.16,1.16,0,0,1-1.17-1.19,1.18,1.18,0,0,1,1.21-1.21A1.15,1.15,0,0,1,104.05,68.06Zm-2.16,13.65V71.06h1.94V81.71Z"/><path d="M109.37,68v3.06h2.78v1.47h-2.78v5.74c0,1.32.38,2.07,1.46,2.07a4.16,4.16,0,0,0,1.12-.13l.09,1.45a4.63,4.63,0,0,1-1.72.27,2.68,2.68,0,0,1-2.09-.82,3.94,3.94,0,0,1-.75-2.77V72.53h-1.65V71.06h1.65V68.5Z"/><path d="M113.8,80.56a1.3,1.3,0,0,1,1.32-1.38,1.27,1.27,0,0,1,1.29,1.38,1.31,1.31,0,1,1-2.61,0Z"/><path d="M123.54,66.88h8v1.6h-6.07v4.93h5.61V75h-5.61v6.71h-1.92Z"/><path d="M142.33,78.8c0,1.1,0,2.07.09,2.91H140.7L140.59,80h0A4,4,0,0,1,137,82c-1.67,0-3.68-.93-3.68-4.67V71.06h1.94V77c0,2,.62,3.39,2.38,3.39a2.7,2.7,0,0,0,2.72-2.75V71.06h1.94Z"/><path d="M153.13,81.31a7.17,7.17,0,0,1-3.06.62,5.06,5.06,0,0,1-5.3-5.44,5.4,5.4,0,0,1,5.72-5.65,6.39,6.39,0,0,1,2.69.55l-.44,1.49a4.58,4.58,0,0,0-2.25-.5c-2.44,0-3.76,1.8-3.76,4a3.65,3.65,0,0,0,3.7,4,5.49,5.49,0,0,0,2.37-.53Z"/><path d="M157.31,75.94h.05c.26-.37.63-.83.94-1.21l3.13-3.67h2.33l-4.12,4.38,4.69,6.27H162L158.3,76.6l-1,1.1v4H155.4V66.08h1.91Z"/><path d="M170.38,66.08h1.94V81.71h-1.94Z"/><path d="M177.73,68.06a1.2,1.2,0,0,1-2.4,0,1.18,1.18,0,0,1,1.21-1.21A1.16,1.16,0,0,1,177.73,68.06Zm-2.16,13.65V71.06h1.94V81.71Z"/><path d="M189.89,71.06c0,.77-.08,1.62-.08,2.92v6.19c0,2.44-.49,3.93-1.52,4.86a5.64,5.64,0,0,1-3.87,1.27,6.82,6.82,0,0,1-3.55-.88l.49-1.47a6,6,0,0,0,3.12.84c2,0,3.43-1,3.43-3.72V79.88h0a3.8,3.8,0,0,1-3.39,1.78c-2.64,0-4.53-2.24-4.53-5.19,0-3.61,2.35-5.66,4.8-5.66a3.55,3.55,0,0,1,3.32,1.85h0l.09-1.6Zm-2,4.2a2.69,2.69,0,0,0-.11-.88,2.79,2.79,0,0,0-2.7-2c-1.85,0-3.17,1.56-3.17,4,0,2.09,1.05,3.83,3.14,3.83a2.84,2.84,0,0,0,2.69-2,3.4,3.4,0,0,0,.15-1Z"/><path d="M194.09,76.73a3.42,3.42,0,0,0,3.66,3.7,7,7,0,0,0,2.95-.55l.33,1.39a8.82,8.82,0,0,1-3.55.66c-3.28,0-5.23-2.16-5.23-5.37s1.89-5.75,5-5.75c3.48,0,4.4,3.06,4.4,5a7.76,7.76,0,0,1-.06.9Zm5.68-1.38c0-1.23-.5-3.15-2.68-3.15-2,0-2.82,1.8-3,3.15Z"/><path d="M214.6,81.71l-.16-1.35h-.06A4,4,0,0,1,211.12,82a3,3,0,0,1-3.25-3.06c0-2.57,2.28-4,6.4-4v-.22a2.2,2.2,0,0,0-2.42-2.47,5.23,5.23,0,0,0-2.77.8l-.44-1.28a6.6,6.6,0,0,1,3.49-1c3.26,0,4.05,2.23,4.05,4.36v4a15.26,15.26,0,0,0,.18,2.56Zm-.29-5.44c-2.11,0-4.51.33-4.51,2.4a1.72,1.72,0,0,0,1.83,1.85,2.65,2.65,0,0,0,2.57-1.78,1.93,1.93,0,0,0,.11-.62Z"/><path d="M219.5,81.71V72.53H218V71.06h1.49v-.51a5,5,0,0,1,1.24-3.72,3.7,3.7,0,0,1,2.59-1,4.56,4.56,0,0,1,1.65.31l-.26,1.5a2.76,2.76,0,0,0-1.23-.25c-1.65,0-2.07,1.46-2.07,3.08v.58H224v1.47h-2.57v9.18Z"/><path d="M224.54,80.56a1.3,1.3,0,0,1,1.32-1.38,1.39,1.39,0,0,1,0,2.77A1.3,1.3,0,0,1,224.54,80.56Z"/><path class="cls-1" d="M234.7,2.5H35.3A32.39,32.39,0,0,0,3,34.8V62.2A32.39,32.39,0,0,0,35.3,94.5H234.7A32.39,32.39,0,0,0,267,62.2V34.8A32.39,32.39,0,0,0,234.7,2.5Z"/><path d="M24.4,14.08v6.2h7.17v-6.2h1.94V28.91H31.57V22H24.4v7H22.48V14.08Z"/><path d="M37.71,18.26l2.09,6A28.16,28.16,0,0,1,40.66,27h.06c.24-.88.55-1.76.91-2.73l2.06-6h2L41.54,28.91H39.69l-4-10.65Z"/><path d="M53.35,28.91l-.15-1.35h-.07a4,4,0,0,1-3.26,1.59,3,3,0,0,1-3.25-3.06c0-2.57,2.29-4,6.4-4v-.22a2.2,2.2,0,0,0-2.42-2.47,5.25,5.25,0,0,0-2.77.8L47.39,19a6.61,6.61,0,0,1,3.5-.95c3.25,0,4,2.23,4,4.36v4a15.33,15.33,0,0,0,.17,2.56Zm-.29-5.44c-2.11,0-4.51.33-4.51,2.4a1.72,1.72,0,0,0,1.83,1.85A2.63,2.63,0,0,0,53,25.94a1.93,1.93,0,0,0,.11-.62Z"/><path d="M67.26,13.28V26.16c0,.94,0,2,.08,2.75H65.6l-.08-1.85h0a3.93,3.93,0,0,1-3.63,2.09c-2.57,0-4.55-2.18-4.55-5.41,0-3.55,2.18-5.73,4.77-5.73a3.55,3.55,0,0,1,3.21,1.63h0V13.28Zm-1.94,9.31a3.2,3.2,0,0,0-.09-.81,2.84,2.84,0,0,0-2.79-2.25c-2,0-3.19,1.76-3.19,4.12,0,2.15,1,3.94,3.14,3.94a2.91,2.91,0,0,0,2.84-2.31,3.23,3.23,0,0,0,.09-.84Z"/><path d="M75.33,28.91V19.73h-1.5V18.26h1.5v-.51A5,5,0,0,1,76.56,14a3.73,3.73,0,0,1,2.6-1,4.61,4.61,0,0,1,1.65.31l-.27,1.5a2.73,2.73,0,0,0-1.23-.25c-1.65,0-2.07,1.46-2.07,3.08v.58h2.58v1.47H77.24v9.18Z"/><path d="M90.46,26q0,1.65.09,2.91H88.84l-.11-1.74h0a4,4,0,0,1-3.52,2c-1.67,0-3.67-.93-3.67-4.67V18.26h1.93v5.89c0,2,.62,3.39,2.38,3.39a2.74,2.74,0,0,0,2.73-2.75V18.26h1.93Z"/><path d="M101.27,28.51a7.21,7.21,0,0,1-3.06.62,5.06,5.06,0,0,1-5.3-5.44A5.4,5.4,0,0,1,98.63,18a6.38,6.38,0,0,1,2.68.55l-.44,1.49a4.54,4.54,0,0,0-2.24-.5c-2.45,0-3.77,1.8-3.77,4a3.66,3.66,0,0,0,3.7,4,5.55,5.55,0,0,0,2.38-.53Z"/><path d="M105.45,23.14h0c.26-.37.64-.83,1-1.21l3.12-3.67h2.33l-4.11,4.38,4.68,6.27h-2.35l-3.67-5.11-1,1.1v4h-1.92V13.28h1.92Z"/><path d="M118.51,13.28h1.94v6.65h0a3.73,3.73,0,0,1,1.39-1.37,4,4,0,0,1,2-.55c1.43,0,3.72.89,3.72,4.56v6.34h-1.94V22.79c0-1.72-.64-3.17-2.46-3.17a2.78,2.78,0,0,0-2.6,1.94,2.33,2.33,0,0,0-.13.92v6.43h-1.94Z"/><path d="M136.62,28.91l-.16-1.35h-.06a4,4,0,0,1-3.26,1.59,3,3,0,0,1-3.25-3.06c0-2.57,2.28-4,6.4-4v-.22a2.2,2.2,0,0,0-2.42-2.47,5.23,5.23,0,0,0-2.77.8L130.66,19a6.61,6.61,0,0,1,3.5-.95c3.25,0,4,2.23,4,4.36v4a15.26,15.26,0,0,0,.18,2.56Zm-.29-5.44c-2.11,0-4.51.33-4.51,2.4a1.72,1.72,0,0,0,1.83,1.85,2.63,2.63,0,0,0,2.57-1.78,1.93,1.93,0,0,0,.11-.62Z"/><path d="M141.33,21.58c0-1.25,0-2.33-.09-3.32h1.69l.07,2.09h.09A3.2,3.2,0,0,1,146,18a2.29,2.29,0,0,1,.55.07v1.83a2.62,2.62,0,0,0-.66-.07,2.72,2.72,0,0,0-2.6,2.49,5.82,5.82,0,0,0-.09.9v5.68h-1.91Z"/><path d="M162.38,13.28V26.16c0,.94,0,2,.09,2.75h-1.74l-.09-1.85h0A3.94,3.94,0,0,1,157,29.15c-2.58,0-4.56-2.18-4.56-5.41,0-3.55,2.18-5.73,4.78-5.73a3.55,3.55,0,0,1,3.21,1.63h0V13.28Zm-1.93,9.31a3.72,3.72,0,0,0-.09-.81,2.85,2.85,0,0,0-2.8-2.25c-2,0-3.19,1.76-3.19,4.12,0,2.15,1.06,3.94,3.15,3.94a2.92,2.92,0,0,0,2.84-2.31,3.73,3.73,0,0,0,.09-.84Z"/><path d="M174.5,26q0,1.65.09,2.91h-1.71l-.11-1.74h-.05a4,4,0,0,1-3.52,2c-1.67,0-3.67-.93-3.67-4.67V18.26h1.93v5.89c0,2,.62,3.39,2.38,3.39a2.74,2.74,0,0,0,2.73-2.75V18.26h1.93Z"/><path d="M191.55,18.26c0,.77-.09,1.62-.09,2.92v6.19c0,2.44-.48,3.93-1.51,4.86a5.65,5.65,0,0,1-3.88,1.27,6.9,6.9,0,0,1-3.54-.87l.49-1.48a6,6,0,0,0,3.12.84c2,0,3.43-1,3.43-3.72V27.08h0a3.81,3.81,0,0,1-3.39,1.78c-2.64,0-4.53-2.24-4.53-5.19,0-3.61,2.35-5.66,4.79-5.66a3.56,3.56,0,0,1,3.33,1.85h0l.09-1.6Zm-2,4.2a2.69,2.69,0,0,0-.11-.88,2.8,2.8,0,0,0-2.71-2c-1.84,0-3.16,1.57-3.16,4,0,2.09,1.05,3.83,3.14,3.83a2.84,2.84,0,0,0,2.69-2,3.4,3.4,0,0,0,.15-1Z"/><path d="M200.57,28.91l-.15-1.35h-.07a4,4,0,0,1-3.25,1.59,3,3,0,0,1-3.26-3.06c0-2.57,2.29-4,6.4-4v-.22a2.2,2.2,0,0,0-2.42-2.47,5.25,5.25,0,0,0-2.77.8L194.61,19a6.64,6.64,0,0,1,3.5-.95c3.25,0,4,2.23,4,4.36v4a15.33,15.33,0,0,0,.17,2.56Zm-.28-5.44c-2.12,0-4.51.33-4.51,2.4a1.71,1.71,0,0,0,1.82,1.85,2.66,2.66,0,0,0,2.58-1.78,2.25,2.25,0,0,0,.11-.62Z"/><path d="M205.28,21.14c0-1.1,0-2-.09-2.88h1.72L207,20h0a3.91,3.91,0,0,1,3.52-2c1.48,0,3.77.89,3.77,4.54v6.36h-1.94V22.77c0-1.72-.64-3.15-2.47-3.15a2.75,2.75,0,0,0-2.59,2,2.71,2.71,0,0,0-.13.9v6.41h-1.94Z"/><path d="M226.66,18.26c0,.77-.08,1.62-.08,2.92v6.19c0,2.44-.49,3.93-1.52,4.86a5.64,5.64,0,0,1-3.87,1.27,6.92,6.92,0,0,1-3.55-.87l.49-1.48a6,6,0,0,0,3.12.84c2,0,3.43-1,3.43-3.72V27.08h0a3.8,3.8,0,0,1-3.39,1.78c-2.64,0-4.53-2.24-4.53-5.19,0-3.61,2.35-5.66,4.8-5.66a3.55,3.55,0,0,1,3.32,1.85h0l.09-1.6Zm-2,4.2a2.69,2.69,0,0,0-.11-.88,2.79,2.79,0,0,0-2.7-2c-1.85,0-3.17,1.57-3.17,4,0,2.09,1,3.83,3.14,3.83a2.84,2.84,0,0,0,2.69-2,3.4,3.4,0,0,0,.15-1Z"/><path d="M236.61,15.26a1.2,1.2,0,0,1-2.4,0,1.18,1.18,0,0,1,1.21-1.21A1.15,1.15,0,0,1,236.61,15.26Zm-2.16,13.65V18.26h1.94V28.91Z"/><path d="M241.09,24.7l0-.57a5,5,0,0,1,1.37-3.8c1-1.17,1.54-2,1.54-3s-.71-1.87-2.09-1.89a3.9,3.9,0,0,0-2.23.68l-.53-1.39a5.85,5.85,0,0,1,3.15-.88c2.53,0,3.68,1.57,3.68,3.24,0,1.49-.84,2.57-1.9,3.83a4.35,4.35,0,0,0-1.25,3.23l0,.57Zm-.48,3.08a1.3,1.3,0,0,1,1.32-1.38,1.38,1.38,0,0,1,0,2.75A1.3,1.3,0,0,1,240.61,27.78Z"/><path d="M22.48,40.67a28.51,28.51,0,0,1,4.08-.3c2.75,0,4.7.63,6,1.84a6.84,6.84,0,0,1,2.09,5.33,7.85,7.85,0,0,1-2.13,5.76c-1.39,1.39-3.68,2.14-6.56,2.14a31,31,0,0,1-3.48-.18ZM24.4,53.79a11.87,11.87,0,0,0,1.94.11c4.09,0,6.31-2.29,6.31-6.3,0-3.49-2-5.72-6-5.72a10.83,10.83,0,0,0-2.24.2Z"/><path d="M46.05,52.4c0,1.1,0,2.07.09,2.91H44.42l-.11-1.74h0a4,4,0,0,1-3.53,2c-1.67,0-3.67-.93-3.67-4.67V44.66H39v5.89c0,2,.61,3.39,2.37,3.39a2.81,2.81,0,0,0,2.56-1.76,3.06,3.06,0,0,0,.17-1V44.66h1.94Z"/><path d="M53.66,53.33a5.09,5.09,0,0,0,2.55.77c1.41,0,2.07-.71,2.07-1.59s-.55-1.43-2-2c-1.92-.68-2.82-1.73-2.82-3,0-1.72,1.39-3.13,3.68-3.13a5.31,5.31,0,0,1,2.61.66l-.48,1.41a4.2,4.2,0,0,0-2.18-.61c-1.14,0-1.78.66-1.78,1.45s.64,1.28,2,1.8c1.85.71,2.8,1.63,2.8,3.22,0,1.87-1.45,3.19-4,3.19a6.1,6.1,0,0,1-3-.73Z"/><path d="M64.55,49.54h0c.27-.37.64-.83,1-1.21l3.12-3.67H71L66.88,49l4.69,6.27H69.21L65.54,50.2l-1,1.1v4H62.63V39.68h1.92Z"/><path d="M79.24,55.31,79.09,54H79a3.94,3.94,0,0,1-3.25,1.59,3,3,0,0,1-3.26-3.06c0-2.57,2.29-4,6.4-4v-.22a2.2,2.2,0,0,0-2.42-2.47,5.25,5.25,0,0,0-2.77.8l-.44-1.28a6.64,6.64,0,0,1,3.5-1c3.26,0,4,2.23,4,4.36v4A15.33,15.33,0,0,0,81,55.31ZM79,49.87c-2.11,0-4.51.33-4.51,2.4a1.71,1.71,0,0,0,1.82,1.85,2.66,2.66,0,0,0,2.58-1.78,2.25,2.25,0,0,0,.11-.62Z"/><path d="M84,39.68h1.94V55.31H84Z"/><path d="M96,41.66a1.14,1.14,0,0,1-1.23,1.19,1.16,1.16,0,0,1-1.17-1.19,1.18,1.18,0,0,1,1.21-1.21A1.15,1.15,0,0,1,96,41.66ZM93.81,55.31V44.66h1.93V55.31Z"/><path d="M100.87,49.54h0c.27-.37.64-.83,1-1.21L105,44.66h2.34L103.2,49l4.69,6.27h-2.36l-3.67-5.11-1,1.1v4H99V39.68h1.91Z"/><path d="M111.56,49.54h0c.27-.37.64-.83,1-1.21l3.12-3.67H118L113.89,49l4.69,6.27h-2.35l-3.68-5.11-1,1.1v4h-1.91V39.68h1.91Z"/><path d="M121,50.33A3.42,3.42,0,0,0,124.7,54a6.93,6.93,0,0,0,2.94-.55l.33,1.39a8.72,8.72,0,0,1-3.54.66c-3.28,0-5.24-2.16-5.24-5.37s1.9-5.75,5-5.75c3.48,0,4.4,3.06,4.4,5a5.72,5.72,0,0,1-.07.9ZM126.72,49c0-1.24-.51-3.15-2.68-3.15-2,0-2.82,1.8-3,3.15Z"/><path d="M135.39,53.33a5.09,5.09,0,0,0,2.55.77c1.41,0,2.07-.71,2.07-1.59s-.55-1.43-2-2c-1.92-.68-2.82-1.73-2.82-3,0-1.72,1.39-3.13,3.67-3.13a5.33,5.33,0,0,1,2.62.66L141,46.48a4.2,4.2,0,0,0-2.18-.61c-1.14,0-1.78.66-1.78,1.45s.64,1.28,2,1.8c1.85.71,2.8,1.63,2.8,3.22,0,1.87-1.46,3.19-4,3.19a6.09,6.09,0,0,1-3-.73Z"/><path d="M145.44,50.33a3.41,3.41,0,0,0,3.65,3.7,7,7,0,0,0,2.95-.55l.33,1.39a8.76,8.76,0,0,1-3.54.66c-3.28,0-5.24-2.16-5.24-5.37s1.89-5.75,5-5.75c3.47,0,4.4,3.06,4.4,5a7.28,7.28,0,0,1-.07.9ZM151.12,49c0-1.24-.51-3.15-2.69-3.15-2,0-2.81,1.8-3,3.15Z"/><path d="M155.38,47.54c0-1.1,0-2-.08-2.88H157l.11,1.76h0a3.9,3.9,0,0,1,3.52-2c1.47,0,3.76.88,3.76,4.54v6.36h-1.94V49.17c0-1.72-.63-3.15-2.46-3.15a2.75,2.75,0,0,0-2.6,2,2.71,2.71,0,0,0-.13.9v6.41h-1.94Z"/><path d="M176.79,39.68V52.56c0,.94,0,2,.09,2.75h-1.74l-.09-1.85h0a3.94,3.94,0,0,1-3.63,2.09c-2.58,0-4.56-2.18-4.56-5.41,0-3.55,2.18-5.73,4.78-5.73A3.55,3.55,0,0,1,174.81,46h0V39.68ZM174.85,49a3.71,3.71,0,0,0-.08-.81,2.86,2.86,0,0,0-2.8-2.25c-2,0-3.19,1.76-3.19,4.12,0,2.15,1.06,3.94,3.15,3.94a2.92,2.92,0,0,0,2.84-2.31,3.74,3.74,0,0,0,.08-.84Z"/><path d="M181.08,50.33a3.41,3.41,0,0,0,3.65,3.7,7,7,0,0,0,3-.55l.33,1.39a8.76,8.76,0,0,1-3.54.66c-3.28,0-5.24-2.16-5.24-5.37s1.89-5.75,5-5.75c3.47,0,4.4,3.06,4.4,5a7.28,7.28,0,0,1-.07.9ZM186.76,49c0-1.24-.51-3.15-2.69-3.15-2,0-2.81,1.8-3,3.15Z"/><path d="M195.42,53.33a5.16,5.16,0,0,0,2.56.77c1.4,0,2.06-.71,2.06-1.59s-.55-1.43-2-2c-1.91-.68-2.81-1.73-2.81-3,0-1.72,1.38-3.13,3.67-3.13a5.33,5.33,0,0,1,2.62.66l-.48,1.41a4.2,4.2,0,0,0-2.18-.61c-1.15,0-1.78.66-1.78,1.45s.63,1.28,2,1.8c1.85.71,2.79,1.63,2.79,3.22,0,1.87-1.45,3.19-4,3.19a6.09,6.09,0,0,1-3-.73Z"/><path d="M210.3,55.31,210.14,54h-.06a4,4,0,0,1-3.26,1.59,3,3,0,0,1-3.26-3.06c0-2.57,2.29-4,6.41-4v-.22a2.2,2.2,0,0,0-2.42-2.47,5.29,5.29,0,0,0-2.78.8l-.44-1.28a6.64,6.64,0,0,1,3.5-1c3.26,0,4,2.23,4,4.36v4a14.27,14.27,0,0,0,.18,2.56ZM210,49.87c-2.11,0-4.51.33-4.51,2.4a1.72,1.72,0,0,0,1.83,1.85,2.65,2.65,0,0,0,2.57-1.78,1.93,1.93,0,0,0,.11-.62Zm-4.16-8.38a2.08,2.08,0,0,1,2.25-2.09,2,2,0,0,1,2.17,2.07,2.22,2.22,0,0,1-4.42,0Zm3.35-.05a1.12,1.12,0,1,0-2.23.05,1.12,1.12,0,1,0,2.23-.05Z"/><path d="M224.2,39.68V52.56c0,.94,0,2,.09,2.75h-1.74l-.09-1.85h0a3.94,3.94,0,0,1-3.63,2.09c-2.58,0-4.56-2.18-4.56-5.41,0-3.55,2.18-5.73,4.78-5.73A3.55,3.55,0,0,1,222.22,46h0V39.68ZM222.26,49a3.71,3.71,0,0,0-.08-.81,2.86,2.86,0,0,0-2.8-2.25c-2,0-3.19,1.76-3.19,4.12,0,2.15,1.06,3.94,3.15,3.94a2.92,2.92,0,0,0,2.84-2.31,3.74,3.74,0,0,0,.08-.84Z"/><path d="M233.31,55.31,233.15,54h-.06a4,4,0,0,1-3.26,1.59,3,3,0,0,1-3.25-3.06c0-2.57,2.28-4,6.4-4v-.22a2.2,2.2,0,0,0-2.42-2.47,5.23,5.23,0,0,0-2.77.8l-.45-1.28a6.64,6.64,0,0,1,3.5-1c3.26,0,4,2.23,4,4.36v4a15.26,15.26,0,0,0,.18,2.56ZM233,49.87c-2.11,0-4.51.33-4.51,2.4a1.72,1.72,0,0,0,1.83,1.85,2.65,2.65,0,0,0,2.57-1.78,1.93,1.93,0,0,0,.11-.62Z"/><path d="M238,47.54c0-1.1,0-2-.08-2.88h1.71l.11,1.76h.05a3.91,3.91,0,0,1,3.52-2c1.47,0,3.76.88,3.76,4.54v6.36h-1.94V49.17c0-1.72-.63-3.15-2.46-3.15a2.75,2.75,0,0,0-2.6,2,3,3,0,0,0-.13.9v6.41H238Z"/><path d="M22.42,73.94c0-1.1,0-2-.09-2.88h1.72l.11,1.76h0a3.91,3.91,0,0,1,3.52-2c1.48,0,3.76.89,3.76,4.54v6.36H29.55V75.57c0-1.72-.64-3.15-2.47-3.15a2.75,2.75,0,0,0-2.59,2,2.7,2.7,0,0,0-.14.9v6.41H22.42Z"/><path d="M44.27,76.29C44.27,80.23,41.54,82,39,82c-2.88,0-5.1-2.11-5.1-5.48,0-3.57,2.33-5.66,5.28-5.66S44.27,73,44.27,76.29Zm-8.45.11c0,2.34,1.34,4.1,3.23,4.1s3.24-1.74,3.24-4.14c0-1.81-.91-4.09-3.19-4.09S35.82,74.38,35.82,76.4Z"/><path d="M55.88,71.06c0,.77-.09,1.62-.09,2.92v6.19c0,2.44-.48,3.93-1.51,4.86A5.65,5.65,0,0,1,50.4,86.3a6.81,6.81,0,0,1-3.54-.88L47.34,84a6,6,0,0,0,3.13.84c2,0,3.43-1,3.43-3.72V79.88h0a3.81,3.81,0,0,1-3.39,1.78c-2.64,0-4.53-2.24-4.53-5.19,0-3.61,2.35-5.66,4.79-5.66a3.56,3.56,0,0,1,3.33,1.85h0l.09-1.6Zm-2,4.2a2.69,2.69,0,0,0-.11-.88,2.8,2.8,0,0,0-2.71-2c-1.85,0-3.17,1.56-3.17,4,0,2.09,1.06,3.83,3.15,3.83a2.84,2.84,0,0,0,2.69-2,3.4,3.4,0,0,0,.15-1Z"/><path d="M60.08,76.73a3.42,3.42,0,0,0,3.65,3.7,7,7,0,0,0,3-.55L67,81.27a8.72,8.72,0,0,1-3.54.66c-3.28,0-5.24-2.16-5.24-5.37s1.9-5.75,5-5.75c3.48,0,4.4,3.06,4.4,5a5.72,5.72,0,0,1-.07.9Zm5.68-1.38c0-1.23-.51-3.15-2.69-3.15-2,0-2.81,1.8-3,3.15Z"/><path d="M72.36,68v3.06h2.77v1.47H72.36v5.74c0,1.32.37,2.07,1.45,2.07a4.1,4.1,0,0,0,1.12-.13L75,81.66a4.59,4.59,0,0,1-1.72.27,2.69,2.69,0,0,1-2.09-.82,3.94,3.94,0,0,1-.74-2.77V72.53H68.82V71.06h1.65V68.5Z"/><path d="M81.71,79.73a5.09,5.09,0,0,0,2.55.77c1.41,0,2.07-.71,2.07-1.59s-.55-1.43-2-2c-1.92-.68-2.82-1.74-2.82-3,0-1.72,1.39-3.13,3.68-3.13a5.31,5.31,0,0,1,2.61.66l-.48,1.41a4.2,4.2,0,0,0-2.18-.61c-1.14,0-1.78.66-1.78,1.45s.64,1.28,2,1.8c1.85.71,2.8,1.63,2.8,3.22,0,1.87-1.45,3.19-4,3.19a6.1,6.1,0,0,1-3-.73Z"/><path d="M90.68,66.08h1.94v6.65h0a3.64,3.64,0,0,1,1.39-1.36,4,4,0,0,1,2-.56c1.43,0,3.72.89,3.72,4.56v6.34H97.81V75.59c0-1.72-.64-3.17-2.46-3.17a2.78,2.78,0,0,0-2.6,1.94,2.33,2.33,0,0,0-.13.92v6.43H90.68Z"/><path d="M105.05,68.06a1.14,1.14,0,0,1-1.23,1.19,1.16,1.16,0,0,1-1.17-1.19,1.18,1.18,0,0,1,1.21-1.21A1.15,1.15,0,0,1,105.05,68.06Zm-2.16,13.65V71.06h1.94V81.71Z"/><path d="M110.37,68v3.06h2.78v1.47h-2.78v5.74c0,1.32.38,2.07,1.46,2.07a4.16,4.16,0,0,0,1.12-.13l.09,1.45a4.63,4.63,0,0,1-1.72.27,2.68,2.68,0,0,1-2.09-.82,3.94,3.94,0,0,1-.75-2.77V72.53h-1.65V71.06h1.65V68.5Z"/><path d="M114.8,80.56a1.3,1.3,0,0,1,1.32-1.38,1.27,1.27,0,0,1,1.29,1.38,1.31,1.31,0,1,1-2.61,0Z"/><path d="M124.54,66.88h8v1.6h-6.07v4.93h5.61V75h-5.61v6.71h-1.92Z"/><path d="M143.33,78.8c0,1.1,0,2.07.09,2.91H141.7L141.59,80h0A4,4,0,0,1,138,82c-1.67,0-3.68-.93-3.68-4.67V71.06h1.94V77c0,2,.62,3.39,2.38,3.39a2.7,2.7,0,0,0,2.72-2.75V71.06h1.94Z"/><path d="M154.13,81.31a7.17,7.17,0,0,1-3.06.62,5.06,5.06,0,0,1-5.3-5.44,5.4,5.4,0,0,1,5.72-5.65,6.39,6.39,0,0,1,2.69.55l-.44,1.49a4.58,4.58,0,0,0-2.25-.5c-2.44,0-3.76,1.8-3.76,4a3.65,3.65,0,0,0,3.7,4,5.49,5.49,0,0,0,2.37-.53Z"/><path d="M158.31,75.94h.05c.26-.37.63-.83.94-1.21l3.13-3.67h2.33l-4.12,4.38,4.69,6.27H163L159.3,76.6l-1,1.1v4H156.4V66.08h1.91Z"/><path d="M171.38,66.08h1.94V81.71h-1.94Z"/><path d="M178.73,68.06a1.2,1.2,0,0,1-2.4,0,1.18,1.18,0,0,1,1.21-1.21A1.16,1.16,0,0,1,178.73,68.06Zm-2.16,13.65V71.06h1.94V81.71Z"/><path d="M190.89,71.06c0,.77-.08,1.62-.08,2.92v6.19c0,2.44-.49,3.93-1.52,4.86a5.64,5.64,0,0,1-3.87,1.27,6.82,6.82,0,0,1-3.55-.88l.49-1.47a6,6,0,0,0,3.12.84c2,0,3.43-1,3.43-3.72V79.88h0a3.8,3.8,0,0,1-3.39,1.78c-2.64,0-4.53-2.24-4.53-5.19,0-3.61,2.35-5.66,4.8-5.66a3.55,3.55,0,0,1,3.32,1.85h0l.09-1.6Zm-2,4.2a2.69,2.69,0,0,0-.11-.88,2.79,2.79,0,0,0-2.7-2c-1.85,0-3.17,1.56-3.17,4,0,2.09,1.05,3.83,3.14,3.83a2.84,2.84,0,0,0,2.69-2,3.4,3.4,0,0,0,.15-1Z"/><path d="M195.09,76.73a3.42,3.42,0,0,0,3.66,3.7,7,7,0,0,0,2.95-.55l.33,1.39a8.82,8.82,0,0,1-3.55.66c-3.28,0-5.23-2.16-5.23-5.37s1.89-5.75,5-5.75c3.48,0,4.4,3.06,4.4,5a7.76,7.76,0,0,1-.06.9Zm5.68-1.38c0-1.23-.5-3.15-2.68-3.15-2,0-2.82,1.8-3,3.15Z"/><path d="M215.6,81.71l-.16-1.35h-.06A4,4,0,0,1,212.12,82a3,3,0,0,1-3.25-3.06c0-2.57,2.28-4,6.4-4v-.22a2.2,2.2,0,0,0-2.42-2.47,5.23,5.23,0,0,0-2.77.8l-.44-1.28a6.6,6.6,0,0,1,3.49-1c3.26,0,4.05,2.23,4.05,4.36v4a15.26,15.26,0,0,0,.18,2.56Zm-.29-5.44c-2.11,0-4.51.33-4.51,2.4a1.72,1.72,0,0,0,1.83,1.85,2.65,2.65,0,0,0,2.57-1.78,1.93,1.93,0,0,0,.11-.62Z"/><path d="M220.5,81.71V72.53H219V71.06h1.49v-.51a5,5,0,0,1,1.24-3.72,3.7,3.7,0,0,1,2.59-1,4.56,4.56,0,0,1,1.65.31l-.26,1.5a2.76,2.76,0,0,0-1.23-.25c-1.65,0-2.07,1.46-2.07,3.08v.58H225v1.47h-2.57v9.18Z"/><path d="M225.54,80.56a1.3,1.3,0,0,1,1.32-1.38,1.39,1.39,0,0,1,0,2.77A1.3,1.3,0,0,1,225.54,80.56Z"/></svg>
