<svg id="Layer_1" data-name="Layer 1" xmlns="http://www.w3.org/2000/svg" xmlns:xlink="http://www.w3.org/1999/xlink" width="320" height="127.63" viewBox="0 0 320 127.63"><defs><style>.cls-1{isolation:isolate;}.cls-2{fill:#ccc;}</style><image id="image" width="160" height="160" xlink:href="../../../../../../../Downloads/thinking-face_1f914.png"/></defs><title>newgray1</title><g class="cls-1"><g class="cls-1"><path d="M33.24,38.41v-2a4.21,4.21,0,0,0,.84.55,6.58,6.58,0,0,0,1,.41,8.52,8.52,0,0,0,1.08.27,6.29,6.29,0,0,0,1,.09,3.94,3.94,0,0,0,2.37-.59,2,2,0,0,0,.79-1.7,1.91,1.91,0,0,0-.27-1,2.73,2.73,0,0,0-.72-.81,8.24,8.24,0,0,0-1.09-.7l-1.36-.7c-.51-.26-1-.52-1.43-.79a5.89,5.89,0,0,1-1.16-.88,3.76,3.76,0,0,1-.78-1.09,3.74,3.74,0,0,1,.16-3.18A3.89,3.89,0,0,1,34.86,25a5.07,5.07,0,0,1,1.64-.71,7.32,7.32,0,0,1,1.87-.24,7.18,7.18,0,0,1,3.17.52v1.94a5.78,5.78,0,0,0-3.35-.9,5.33,5.33,0,0,0-1.12.12,2.91,2.91,0,0,0-1,.38,2.37,2.37,0,0,0-.72.69,1.85,1.85,0,0,0-.27,1,2.15,2.15,0,0,0,.21,1,2.39,2.39,0,0,0,.62.75,6,6,0,0,0,1,.65c.39.21.84.45,1.35.7s1,.53,1.5.82a6.76,6.76,0,0,1,1.24,1,4.27,4.27,0,0,1,.85,1.16,3.26,3.26,0,0,1,.31,1.46,3.74,3.74,0,0,1-.42,1.84,3.54,3.54,0,0,1-1.15,1.22,4.9,4.9,0,0,1-1.67.69,9.13,9.13,0,0,1-2,.21,7.61,7.61,0,0,1-.86-.06c-.34,0-.69-.09-1.05-.16a9.92,9.92,0,0,1-1-.27A3.4,3.4,0,0,1,33.24,38.41Z"/><path d="M49.05,38.9a3.21,3.21,0,0,1-1.57.33c-1.84,0-2.75-1-2.75-3.08V29.94H42.92V28.5h1.81V25.94l1.68-.55V28.5h2.64v1.44H46.41v5.91a2.44,2.44,0,0,0,.36,1.51,1.42,1.42,0,0,0,1.19.45,1.78,1.78,0,0,0,1.09-.35Z"/><path d="M55.69,39.25A4.84,4.84,0,0,1,52,37.77a5.43,5.43,0,0,1-1.39-3.9A5.65,5.65,0,0,1,52,29.74a5.18,5.18,0,0,1,3.9-1.49A4.73,4.73,0,0,1,59.6,29.7a5.72,5.72,0,0,1,1.32,4,5.65,5.65,0,0,1-1.42,4A5,5,0,0,1,55.69,39.25Zm.12-9.58a3.21,3.21,0,0,0-2.56,1.1,4.54,4.54,0,0,0-1,3,4.23,4.23,0,0,0,1,2.94,3.22,3.22,0,0,0,2.55,1.08,3.09,3.09,0,0,0,2.51-1,4.63,4.63,0,0,0,.87-3,4.67,4.67,0,0,0-.87-3A3,3,0,0,0,55.81,29.67Z"/><path d="M65.33,37.48h0v6.35H63.6V28.5h1.68v1.85h0A4,4,0,0,1,69,28.25a3.83,3.83,0,0,1,3.16,1.41,5.84,5.84,0,0,1,1.14,3.78A6.52,6.52,0,0,1,72,37.66a4.25,4.25,0,0,1-3.51,1.59A3.49,3.49,0,0,1,65.33,37.48Zm0-4.23v1.46a3.13,3.13,0,0,0,.85,2.21,3,3,0,0,0,4.54-.26,5.34,5.34,0,0,0,.87-3.25,4.25,4.25,0,0,0-.81-2.75,2.69,2.69,0,0,0-2.2-1,3,3,0,0,0-2.35,1A3.72,3.72,0,0,0,65.28,33.25Z"/><path d="M90.66,39H89V37.22h0a4.23,4.23,0,0,1-6.77.62A5.78,5.78,0,0,1,81,34a6.29,6.29,0,0,1,1.32-4.18,4.34,4.34,0,0,1,3.49-1.57A3.37,3.37,0,0,1,88.94,30h0v-6.5h1.68ZM89,34.25V32.7a3,3,0,0,0-.84-2.15A2.81,2.81,0,0,0,86,29.67a2.88,2.88,0,0,0-2.42,1.13,4.92,4.92,0,0,0-.88,3.11,4.48,4.48,0,0,0,.84,2.87,2.77,2.77,0,0,0,2.27,1,2.87,2.87,0,0,0,2.28-1A3.77,3.77,0,0,0,89,34.25Z"/><path d="M94.93,25.83a1.08,1.08,0,0,1-.77-.3,1.12,1.12,0,0,1,0-1.57,1.1,1.1,0,1,1,.77,1.87ZM95.75,39H94.07V28.5h1.68Z"/><path d="M108.11,38.16q0,5.78-5.53,5.78a7.35,7.35,0,0,1-3.41-.74V41.52a7,7,0,0,0,3.39,1q3.87,0,3.87-4.13V37.24h0a4.25,4.25,0,0,1-6.76.61,5.6,5.6,0,0,1-1.19-3.76,6.54,6.54,0,0,1,1.28-4.26,4.31,4.31,0,0,1,3.52-1.58A3.41,3.41,0,0,1,106.39,30h0V28.5h1.68Zm-1.68-3.91V32.7a3,3,0,0,0-.84-2.14,2.82,2.82,0,0,0-2.11-.89A2.93,2.93,0,0,0,101,30.8a5.07,5.07,0,0,0-.88,3.18,4.37,4.37,0,0,0,.84,2.8,2.74,2.74,0,0,0,2.24,1,2.94,2.94,0,0,0,2.31-1A3.76,3.76,0,0,0,106.43,34.25Z"/><path d="M116.64,38.62v-1.8a5,5,0,0,0,3,1c1.48,0,2.22-.49,2.22-1.48a1.34,1.34,0,0,0-.19-.71,2,2,0,0,0-.52-.52,3.86,3.86,0,0,0-.76-.4l-.93-.38a12.32,12.32,0,0,1-1.23-.55,3.57,3.57,0,0,1-.88-.64,2.33,2.33,0,0,1-.53-.8,2.91,2.91,0,0,1-.18-1.06A2.58,2.58,0,0,1,117,30a3,3,0,0,1,.91-.95,4,4,0,0,1,1.28-.58,5.77,5.77,0,0,1,1.5-.2,6,6,0,0,1,2.44.48v1.7a4.74,4.74,0,0,0-2.67-.76,3.18,3.18,0,0,0-.85.11,2.05,2.05,0,0,0-.65.3,1.35,1.35,0,0,0-.42.47,1.21,1.21,0,0,0-.15.6,1.4,1.4,0,0,0,.15.68,1.43,1.43,0,0,0,.43.49,2.9,2.9,0,0,0,.7.39l.93.38a11.61,11.61,0,0,1,1.25.55,4.26,4.26,0,0,1,1,.64,2.48,2.48,0,0,1,.6.81,2.67,2.67,0,0,1,.21,1.1,2.56,2.56,0,0,1-.35,1.35,2.79,2.79,0,0,1-.91,1,4.3,4.3,0,0,1-1.33.56,6.6,6.6,0,0,1-1.56.19A5.92,5.92,0,0,1,116.64,38.62Z"/><path d="M134.62,34.17h-7.41a3.91,3.91,0,0,0,.94,2.71,3.27,3.27,0,0,0,2.48.95,5.16,5.16,0,0,0,3.26-1.17v1.58a6.08,6.08,0,0,1-3.66,1,4.43,4.43,0,0,1-3.49-1.43,5.87,5.87,0,0,1-1.28-4,5.77,5.77,0,0,1,1.39-4,4.47,4.47,0,0,1,3.45-1.55,3.94,3.94,0,0,1,3.19,1.34,5.51,5.51,0,0,1,1.13,3.7Zm-1.72-1.42a3.44,3.44,0,0,0-.7-2.27,2.42,2.42,0,0,0-1.93-.81,2.72,2.72,0,0,0-2,.85,3.89,3.89,0,0,0-1,2.23Z"/><path d="M138.85,39h-1.69V23.46h1.69Z"/><path d="M150.5,28.5,146.32,39h-1.65l-4-10.5h1.85l2.66,7.63a6.85,6.85,0,0,1,.37,1.47h0a7,7,0,0,1,.33-1.43l2.79-7.67Z"/><path d="M153.59,39.18a1.09,1.09,0,0,1-.8-.32,1.12,1.12,0,0,1,0-1.61,1.13,1.13,0,0,1,1.6,0,1.12,1.12,0,0,1,0,1.61A1.09,1.09,0,0,1,153.59,39.18Zm.86-14.88-.19,10.56h-1.39l-.18-10.56Z"/><path d="M175.31,39h-1.72V32.29H166V39h-1.73V24.3H166v6.45h7.61V24.3h1.72Z"/><path d="M187.19,28.5,183,39h-1.65l-4-10.5h1.85l2.66,7.63a6.85,6.85,0,0,1,.37,1.47h0a7,7,0,0,1,.33-1.43l2.79-7.67Z"/><path d="M193.39,39.25a4.84,4.84,0,0,1-3.72-1.48,5.43,5.43,0,0,1-1.39-3.9,5.65,5.65,0,0,1,1.45-4.13,5.18,5.18,0,0,1,3.9-1.49,4.73,4.73,0,0,1,3.67,1.45,5.72,5.72,0,0,1,1.32,4,5.65,5.65,0,0,1-1.42,4A5,5,0,0,1,193.39,39.25Zm.12-9.58a3.19,3.19,0,0,0-2.56,1.1,4.54,4.54,0,0,0-.95,3,4.23,4.23,0,0,0,1,2.94,3.22,3.22,0,0,0,2.55,1.08,3.09,3.09,0,0,0,2.51-1,4.63,4.63,0,0,0,.87-3,4.67,4.67,0,0,0-.87-3A3,3,0,0,0,193.51,29.67Z"/><path d="M206.78,30.2a2.11,2.11,0,0,0-1.27-.34,2.14,2.14,0,0,0-1.8,1,4.64,4.64,0,0,0-.73,2.77V39H201.3V28.5H203v2.16H203a3.6,3.6,0,0,1,1.09-1.72,2.46,2.46,0,0,1,1.65-.62,2.71,2.71,0,0,1,1,.14Z"/><path d="M213.79,24.93a2.3,2.3,0,0,0-1.12-.28c-1.17,0-1.76.75-1.76,2.23V28.5h2.46v1.44h-2.46V39h-1.67V29.94h-1.8V28.5h1.8V26.8a3.56,3.56,0,0,1,.95-2.61,3.23,3.23,0,0,1,2.38-1,3.38,3.38,0,0,1,1.22.18Z"/><path d="M219.56,39.25a4.82,4.82,0,0,1-3.71-1.48,5.43,5.43,0,0,1-1.39-3.9,5.69,5.69,0,0,1,1.44-4.13,5.22,5.22,0,0,1,3.91-1.49,4.73,4.73,0,0,1,3.67,1.45,5.76,5.76,0,0,1,1.31,4,5.61,5.61,0,0,1-1.42,4A5,5,0,0,1,219.56,39.25Zm.13-9.58a3.23,3.23,0,0,0-2.57,1.1,4.59,4.59,0,0,0-.94,3,4.28,4.28,0,0,0,.95,2.94,3.25,3.25,0,0,0,2.56,1.08,3.07,3.07,0,0,0,2.5-1,4.58,4.58,0,0,0,.88-3,4.62,4.62,0,0,0-.88-3A3,3,0,0,0,219.69,29.67Z"/><path d="M233,30.2a2.12,2.12,0,0,0-1.28-.34,2.16,2.16,0,0,0-1.8,1,4.72,4.72,0,0,0-.72,2.77V39h-1.68V28.5h1.68v2.16h0a3.69,3.69,0,0,1,1.1-1.72,2.46,2.46,0,0,1,1.65-.62,2.71,2.71,0,0,1,1,.14Z"/><path d="M239.9,38.62v-1.8a5,5,0,0,0,3,1c1.48,0,2.22-.49,2.22-1.48a1.34,1.34,0,0,0-.19-.71,2.09,2.09,0,0,0-.51-.52,4.16,4.16,0,0,0-.76-.4l-.94-.38a13.44,13.44,0,0,1-1.23-.55,3.77,3.77,0,0,1-.88-.64,2.33,2.33,0,0,1-.53-.8,2.91,2.91,0,0,1-.18-1.06,2.48,2.48,0,0,1,.34-1.31,2.82,2.82,0,0,1,.9-.95,4.1,4.1,0,0,1,1.29-.58,5.7,5.7,0,0,1,1.49-.2,5.94,5.94,0,0,1,2.44.48v1.7a4.72,4.72,0,0,0-2.67-.76,3.18,3.18,0,0,0-.85.11,2.05,2.05,0,0,0-.65.3,1.35,1.35,0,0,0-.42.47,1.21,1.21,0,0,0-.15.6,1.4,1.4,0,0,0,.15.68,1.36,1.36,0,0,0,.44.49,2.83,2.83,0,0,0,.69.39c.28.12.59.25.94.38s.88.36,1.25.55a4.19,4.19,0,0,1,.94.64,2.48,2.48,0,0,1,.6.81,2.67,2.67,0,0,1,.21,1.1,2.56,2.56,0,0,1-.34,1.35,2.91,2.91,0,0,1-.92,1,4.14,4.14,0,0,1-1.32.56,6.75,6.75,0,0,1-1.57.19A5.92,5.92,0,0,1,239.9,38.62Z"/><path d="M257.88,34.17h-7.41a4,4,0,0,0,.94,2.71,3.27,3.27,0,0,0,2.48.95,5.18,5.18,0,0,0,3.27-1.17v1.58a6.13,6.13,0,0,1-3.67,1A4.44,4.44,0,0,1,250,37.82a5.87,5.87,0,0,1-1.27-4,5.72,5.72,0,0,1,1.39-4,4.44,4.44,0,0,1,3.45-1.55,4,4,0,0,1,3.19,1.34,5.56,5.56,0,0,1,1.12,3.7Zm-1.72-1.42a3.44,3.44,0,0,0-.7-2.27,2.39,2.39,0,0,0-1.92-.81,2.69,2.69,0,0,0-2,.85,3.84,3.84,0,0,0-1,2.23Z"/><path d="M269.14,39h-1.68V33c0-2.23-.81-3.34-2.44-3.34a2.66,2.66,0,0,0-2.09.95,3.51,3.51,0,0,0-.82,2.39v6h-1.68V28.5h1.68v1.74h0a3.79,3.79,0,0,1,3.44-2,3.23,3.23,0,0,1,2.64,1.12,4.93,4.93,0,0,1,.91,3.21Z"/><path d="M281.27,39h-1.68V37.22h0a4.23,4.23,0,0,1-6.77.62A5.78,5.78,0,0,1,271.59,34a6.29,6.29,0,0,1,1.32-4.18,4.34,4.34,0,0,1,3.49-1.57A3.37,3.37,0,0,1,279.55,30h0v-6.5h1.68Zm-1.68-4.75V32.7a3,3,0,0,0-.84-2.15,2.81,2.81,0,0,0-2.13-.88,2.88,2.88,0,0,0-2.42,1.13,4.92,4.92,0,0,0-.88,3.11,4.48,4.48,0,0,0,.84,2.87,2.77,2.77,0,0,0,2.27,1,2.87,2.87,0,0,0,2.28-1A3.77,3.77,0,0,0,279.59,34.25Z"/><path d="M293.12,34.17H285.7a3.92,3.92,0,0,0,.95,2.71,3.25,3.25,0,0,0,2.48.95,5.16,5.16,0,0,0,3.26-1.17v1.58a6.12,6.12,0,0,1-3.66,1,4.45,4.45,0,0,1-3.5-1.43,5.87,5.87,0,0,1-1.27-4,5.72,5.72,0,0,1,1.39-4,4.44,4.44,0,0,1,3.45-1.55A4,4,0,0,1,292,29.59a5.56,5.56,0,0,1,1.13,3.7Zm-1.73-1.42a3.39,3.39,0,0,0-.7-2.27,2.39,2.39,0,0,0-1.92-.81,2.69,2.69,0,0,0-2,.85,3.84,3.84,0,0,0-1,2.23Z"/><path d="M301.13,30.2a2.07,2.07,0,0,0-1.27-.34,2.14,2.14,0,0,0-1.8,1,4.72,4.72,0,0,0-.72,2.77V39h-1.68V28.5h1.68v2.16h0a3.69,3.69,0,0,1,1.1-1.72,2.46,2.46,0,0,1,1.65-.62,2.62,2.62,0,0,1,1,.14Z"/></g><g class="cls-1"><path d="M42.66,66H41V64.22h0a4.23,4.23,0,0,1-6.77.62A5.78,5.78,0,0,1,33,61a6.29,6.29,0,0,1,1.32-4.18,4.34,4.34,0,0,1,3.49-1.57A3.35,3.35,0,0,1,40.94,57h0v-6.5h1.68ZM41,61.25V59.7a3,3,0,0,0-.84-2.15A2.81,2.81,0,0,0,38,56.67a2.88,2.88,0,0,0-2.42,1.13,4.92,4.92,0,0,0-.88,3.11,4.48,4.48,0,0,0,.84,2.87,2.77,2.77,0,0,0,2.27,1,2.91,2.91,0,0,0,2.29-1A3.81,3.81,0,0,0,41,61.25Z"/><path d="M54.56,66H52.88V64.34h0a3.46,3.46,0,0,1-3.24,1.91q-3.76,0-3.76-4.47V55.5h1.67v6c0,2.21.85,3.32,2.55,3.32a2.55,2.55,0,0,0,2-.91,3.45,3.45,0,0,0,.8-2.37v-6h1.68Z"/><path d="M63.07,65.62v-1.8a5,5,0,0,0,3,1c1.48,0,2.22-.49,2.22-1.48a1.26,1.26,0,0,0-.19-.71,2.09,2.09,0,0,0-.51-.52,4.16,4.16,0,0,0-.76-.4l-.94-.38a13.44,13.44,0,0,1-1.23-.55,3.77,3.77,0,0,1-.88-.64,2.48,2.48,0,0,1-.53-.8,2.91,2.91,0,0,1-.18-1.06A2.48,2.48,0,0,1,63.43,57a2.82,2.82,0,0,1,.9-.95,4.21,4.21,0,0,1,1.29-.58,5.7,5.7,0,0,1,1.49-.2,5.94,5.94,0,0,1,2.44.48v1.7a4.72,4.72,0,0,0-2.67-.76,3.24,3.24,0,0,0-.85.11,2.05,2.05,0,0,0-.65.3,1.35,1.35,0,0,0-.42.47,1.21,1.21,0,0,0-.15.6,1.4,1.4,0,0,0,.15.68,1.46,1.46,0,0,0,.44.49,2.83,2.83,0,0,0,.69.39c.28.12.59.25.94.38s.88.36,1.25.55a4.19,4.19,0,0,1,.94.64,2.48,2.48,0,0,1,.6.81,2.67,2.67,0,0,1,.21,1.1,2.56,2.56,0,0,1-.34,1.35,2.91,2.91,0,0,1-.92,1,4.14,4.14,0,0,1-1.32.56,6.68,6.68,0,0,1-1.57.19A5.92,5.92,0,0,1,63.07,65.62Z"/><path d="M80.13,66H78.45V64.36h0a3.52,3.52,0,0,1-3.23,1.89,3.47,3.47,0,0,1-2.46-.83,2.89,2.89,0,0,1-.88-2.21q0-2.94,3.46-3.42l3.15-.44c0-1.79-.72-2.68-2.16-2.68A5.18,5.18,0,0,0,72.86,58V56.24a6.47,6.47,0,0,1,3.57-1q3.7,0,3.7,3.92Zm-1.68-5.31L75.92,61a4.12,4.12,0,0,0-1.77.58,1.67,1.67,0,0,0-.59,1.47,1.57,1.57,0,0,0,.55,1.25,2.08,2.08,0,0,0,1.46.49A2.71,2.71,0,0,0,77.64,64a3.13,3.13,0,0,0,.81-2.22Zm-2.24-6.75a2.13,2.13,0,0,1-1.48-.54A1.83,1.83,0,0,1,74.14,52a1.91,1.91,0,0,1,.61-1.47A2.18,2.18,0,0,1,76.29,50a2.07,2.07,0,0,1,1.49.56,2,2,0,0,1,0,2.85A2.16,2.16,0,0,1,76.21,53.94Zm0-3.15a1.09,1.09,0,0,0-.82.34,1.14,1.14,0,0,0-.32.82,1,1,0,0,0,1.14,1.15,1.18,1.18,0,0,0,.86-.33A1.11,1.11,0,0,0,77.4,52a1.13,1.13,0,0,0-.33-.83A1.18,1.18,0,0,0,76.21,50.79Z"/><path d="M92.26,66H90.58V64.22h0a4.23,4.23,0,0,1-6.77.62A5.78,5.78,0,0,1,82.58,61a6.29,6.29,0,0,1,1.32-4.18,4.34,4.34,0,0,1,3.49-1.57A3.37,3.37,0,0,1,90.54,57h0v-6.5h1.68Zm-1.68-4.75V59.7a3,3,0,0,0-.84-2.15,2.81,2.81,0,0,0-2.13-.88,2.87,2.87,0,0,0-2.42,1.13,4.92,4.92,0,0,0-.88,3.11,4.48,4.48,0,0,0,.84,2.87,2.77,2.77,0,0,0,2.27,1,2.87,2.87,0,0,0,2.28-1A3.77,3.77,0,0,0,90.58,61.25Z"/><path d="M103.18,66H101.5V64.36h0a3.84,3.84,0,0,1-5.69,1.06,2.89,2.89,0,0,1-.88-2.21q0-2.94,3.46-3.42l3.15-.44c0-1.79-.72-2.68-2.16-2.68A5.18,5.18,0,0,0,95.91,58V56.24a6.47,6.47,0,0,1,3.57-1q3.7,0,3.7,3.92Zm-1.68-5.31L99,61a4.12,4.12,0,0,0-1.77.58,1.67,1.67,0,0,0-.59,1.47,1.57,1.57,0,0,0,.55,1.25,2.08,2.08,0,0,0,1.46.49,2.71,2.71,0,0,0,2.07-.88,3.13,3.13,0,0,0,.81-2.22Z"/><path d="M115.07,66h-1.68V60c0-2.23-.82-3.34-2.45-3.34a2.64,2.64,0,0,0-2.08.95A3.51,3.51,0,0,0,108,60v6h-1.68V55.5H108v1.74h0a3.82,3.82,0,0,1,3.45-2,3.2,3.2,0,0,1,2.63,1.12,4.93,4.93,0,0,1,.92,3.21Z"/><path d="M132.7,66H131V60c0-2.23-.81-3.34-2.44-3.34a2.66,2.66,0,0,0-2.09.95,3.51,3.51,0,0,0-.82,2.39v6H124V55.5h1.68v1.74h0a3.8,3.8,0,0,1,3.45-2,3.22,3.22,0,0,1,2.63,1.12,4.93,4.93,0,0,1,.91,3.21Z"/><path d="M140.26,66.25a4.86,4.86,0,0,1-3.72-1.48,5.47,5.47,0,0,1-1.39-3.9,5.69,5.69,0,0,1,1.45-4.13,5.21,5.21,0,0,1,3.91-1.49,4.72,4.72,0,0,1,3.66,1.45,5.72,5.72,0,0,1,1.32,4,5.61,5.61,0,0,1-1.42,4A5,5,0,0,1,140.26,66.25Zm.12-9.58a3.21,3.21,0,0,0-2.56,1.1,4.53,4.53,0,0,0-.94,3,4.23,4.23,0,0,0,1,2.94,3.24,3.24,0,0,0,2.55,1.08,3.08,3.08,0,0,0,2.51-1,5.62,5.62,0,0,0,0-6A3,3,0,0,0,140.38,56.67Z"/><path d="M157.14,65.16q0,5.78-5.54,5.78a7.31,7.31,0,0,1-3.4-.74V68.52a7,7,0,0,0,3.38,1q3.88,0,3.88-4.13V64.24h0a4.26,4.26,0,0,1-6.77.61,5.65,5.65,0,0,1-1.19-3.76,6.54,6.54,0,0,1,1.29-4.26,4.29,4.29,0,0,1,3.52-1.58A3.43,3.43,0,0,1,155.42,57h0V55.5h1.68Zm-1.68-3.91V59.7a3,3,0,0,0-.85-2.14,2.8,2.8,0,0,0-2.11-.89,2.93,2.93,0,0,0-2.44,1.13,5.14,5.14,0,0,0-.88,3.18,4.31,4.31,0,0,0,.85,2.8,2.73,2.73,0,0,0,2.24,1,2.92,2.92,0,0,0,2.3-1A3.76,3.76,0,0,0,155.46,61.25Z"/><path d="M169,61.17h-7.41a4,4,0,0,0,.94,2.71,3.27,3.27,0,0,0,2.48.95,5.14,5.14,0,0,0,3.26-1.17v1.58a6.08,6.08,0,0,1-3.66,1,4.43,4.43,0,0,1-3.49-1.43,5.87,5.87,0,0,1-1.27-4,5.76,5.76,0,0,1,1.38-4,4.47,4.47,0,0,1,3.46-1.55,3.93,3.93,0,0,1,3.18,1.34,5.51,5.51,0,0,1,1.13,3.7Zm-1.72-1.42a3.44,3.44,0,0,0-.7-2.27,2.39,2.39,0,0,0-1.93-.81,2.72,2.72,0,0,0-2,.85,3.89,3.89,0,0,0-1,2.23Z"/><path d="M176.4,65.9a3.24,3.24,0,0,1-1.57.33c-1.84,0-2.76-1-2.76-3.08V56.94h-1.81V55.5h1.81V52.94l1.68-.55V55.5h2.65v1.44h-2.65v5.91a2.44,2.44,0,0,0,.36,1.51,1.43,1.43,0,0,0,1.19.45,1.81,1.81,0,0,0,1.1-.35Z"/><path d="M186.12,64.48h0v6.35h-1.69V55.5h1.69v1.85h0a4,4,0,0,1,3.63-2.1,3.82,3.82,0,0,1,3.16,1.41,5.84,5.84,0,0,1,1.14,3.78,6.46,6.46,0,0,1-1.28,4.22,4.25,4.25,0,0,1-3.51,1.59A3.49,3.49,0,0,1,186.12,64.48Zm0-4.23v1.46a3.12,3.12,0,0,0,.84,2.21,3,3,0,0,0,4.54-.26,5.34,5.34,0,0,0,.87-3.25,4.25,4.25,0,0,0-.81-2.75,2.68,2.68,0,0,0-2.19-1,3,3,0,0,0-2.36,1A3.72,3.72,0,0,0,186.08,60.25Z"/><path d="M197.6,52.83a1.08,1.08,0,0,1-.77-.3,1.12,1.12,0,0,1,0-1.57,1.1,1.1,0,1,1,.77,1.87ZM198.42,66h-1.68V55.5h1.68Z"/><path d="M201.19,65.62v-1.8a5,5,0,0,0,3,1c1.48,0,2.22-.49,2.22-1.48a1.26,1.26,0,0,0-.19-.71,2.09,2.09,0,0,0-.51-.52,4.16,4.16,0,0,0-.76-.4l-.94-.38a13.44,13.44,0,0,1-1.23-.55,3.77,3.77,0,0,1-.88-.64,2.48,2.48,0,0,1-.53-.8,2.91,2.91,0,0,1-.18-1.06,2.48,2.48,0,0,1,.34-1.31,2.82,2.82,0,0,1,.9-.95,4.21,4.21,0,0,1,1.29-.58,5.7,5.7,0,0,1,1.49-.2,5.94,5.94,0,0,1,2.44.48v1.7a4.72,4.72,0,0,0-2.67-.76,3.24,3.24,0,0,0-.85.11,2.05,2.05,0,0,0-.65.3,1.35,1.35,0,0,0-.42.47,1.21,1.21,0,0,0-.15.6,1.4,1.4,0,0,0,.15.68,1.46,1.46,0,0,0,.44.49,2.83,2.83,0,0,0,.69.39c.28.12.59.25.94.38s.88.36,1.25.55a4.19,4.19,0,0,1,.94.64,2.48,2.48,0,0,1,.6.81,2.67,2.67,0,0,1,.21,1.1,2.56,2.56,0,0,1-.34,1.35,2.91,2.91,0,0,1-.92,1,4.14,4.14,0,0,1-1.32.56,6.68,6.68,0,0,1-1.57.19A5.92,5.92,0,0,1,201.19,65.62Z"/><path d="M212.47,61.92a5,5,0,0,1-.17-.69,6.22,6.22,0,0,1-.07-.85,2.66,2.66,0,0,1,.26-1.18,4.74,4.74,0,0,1,.66-1,8.89,8.89,0,0,1,.85-.89c.3-.28.59-.57.85-.86a5.45,5.45,0,0,0,.65-.91,2.21,2.21,0,0,0,.26-1,1.93,1.93,0,0,0-.19-.88,1.87,1.87,0,0,0-.52-.63,2.38,2.38,0,0,0-.76-.39,3.33,3.33,0,0,0-.91-.13,4,4,0,0,0-3,1.37V52a6.07,6.07,0,0,1,3.25-1,5.26,5.26,0,0,1,1.46.2,3.56,3.56,0,0,1,1.21.62,2.69,2.69,0,0,1,.81,1,3.1,3.1,0,0,1,.3,1.4,3.19,3.19,0,0,1-.27,1.35,4.76,4.76,0,0,1-.67,1.1,8.44,8.44,0,0,1-.87.92c-.32.29-.61.58-.88.86a4.61,4.61,0,0,0-.67.89,1.93,1.93,0,0,0-.27,1,3.26,3.26,0,0,0,.11.86,6.76,6.76,0,0,0,.23.65Zm.92,4.26a1.12,1.12,0,0,1-.8-.32,1.1,1.1,0,0,1-.34-.8,1.13,1.13,0,0,1,1.94-.8,1,1,0,0,1,.34.8,1.07,1.07,0,0,1-.34.8A1.12,1.12,0,0,1,213.39,66.18Z"/><path d="M276.63,66h-2.4l-5.68-6.73a4.29,4.29,0,0,1-.39-.51h0V66h-1.73V51.3h1.73v6.91h0a3,3,0,0,1,.39-.5L274,51.3h2.15l-6.31,7.05Z"/><path d="M293.28,61.17h-7.43a3.91,3.91,0,0,0,.93,2.71,3.25,3.25,0,0,0,2.47.95,5.16,5.16,0,0,0,3.29-1.17v1.58a6,6,0,0,1-3.67,1,4.06,4.06,0,0,1-3.93-2.35h0a4.52,4.52,0,0,1-4,2.35,3.5,3.5,0,0,1-2.46-.83,2.86,2.86,0,0,1-.9-2.21q0-3.08,3.93-3.32l2.68-.17c0-2-.73-3-2.2-3a5.38,5.38,0,0,0-3.38,1.25V56.24a6.37,6.37,0,0,1,3.56-1,2.92,2.92,0,0,1,3.08,2h0a4,4,0,0,1,3.65-2,4,4,0,0,1,3.21,1.34,5.55,5.55,0,0,1,1.14,3.72Zm-9.1.63v-.65l-2.08.12a4.87,4.87,0,0,0-2.13.51,1.67,1.67,0,0,0-.15,2.6,2.22,2.22,0,0,0,1.46.45,2.74,2.74,0,0,0,2.06-.87A3,3,0,0,0,284.18,61.8Zm7.38-2a3.54,3.54,0,0,0-.7-2.28,2.39,2.39,0,0,0-1.91-.8,2.81,2.81,0,0,0-2,.84,3.76,3.76,0,0,0-1,2.24Z"/><path d="M301,51.93a2.3,2.3,0,0,0-1.12-.28c-1.17,0-1.76.75-1.76,2.23V55.5h2.46v1.44h-2.46V66h-1.67V56.94h-1.8V55.5h1.8V53.8a3.56,3.56,0,0,1,1-2.61,3.23,3.23,0,0,1,2.38-1,3.38,3.38,0,0,1,1.22.18Z"/><path d="M307.27,65.9a3.24,3.24,0,0,1-1.57.33c-1.84,0-2.76-1-2.76-3.08V56.94h-1.81V55.5h1.81V52.94l1.68-.55V55.5h2.65v1.44h-2.65v5.91a2.44,2.44,0,0,0,.36,1.51,1.44,1.44,0,0,0,1.19.45,1.81,1.81,0,0,0,1.1-.35Z"/></g><g class="cls-1"><path d="M42.14,88.17H34.73a3.91,3.91,0,0,0,.94,2.71,3.27,3.27,0,0,0,2.48,1,5.16,5.16,0,0,0,3.26-1.17v1.58a6.08,6.08,0,0,1-3.66,1,4.43,4.43,0,0,1-3.49-1.43,5.87,5.87,0,0,1-1.28-4,5.77,5.77,0,0,1,1.39-4,4.47,4.47,0,0,1,3.45-1.55A3.94,3.94,0,0,1,41,83.59a5.51,5.51,0,0,1,1.13,3.7Zm-1.72-1.42a3.44,3.44,0,0,0-.7-2.27,2.42,2.42,0,0,0-1.93-.81,2.72,2.72,0,0,0-2,.85,3.89,3.89,0,0,0-1,2.23Z"/><path d="M53.4,93H51.72V87c0-2.23-.82-3.34-2.44-3.34a2.66,2.66,0,0,0-2.09,1A3.51,3.51,0,0,0,46.37,87v6H44.68V82.5h1.69v1.74h0a3.79,3.79,0,0,1,3.44-2,3.23,3.23,0,0,1,2.64,1.12,4.93,4.93,0,0,1,.91,3.21Z"/><path d="M67.19,92.9a3.24,3.24,0,0,1-1.57.33c-1.84,0-2.76-1-2.76-3.08V83.94h-1.8V82.5h1.8V79.94l1.69-.55V82.5h2.64v1.44H64.55v5.91a2.52,2.52,0,0,0,.35,1.51,1.44,1.44,0,0,0,1.19.45,1.78,1.78,0,0,0,1.1-.35Z"/><path d="M77,93H75.27V91.36h0a3.84,3.84,0,0,1-5.69,1.06,2.89,2.89,0,0,1-.88-2.21q0-2.94,3.46-3.42l3.15-.44c0-1.79-.72-2.68-2.16-2.68A5.18,5.18,0,0,0,69.68,85V83.24a6.5,6.5,0,0,1,3.57-1q3.7,0,3.7,3.92Zm-1.68-5.31L72.74,88a4,4,0,0,0-1.76.58,1.65,1.65,0,0,0-.6,1.47,1.57,1.57,0,0,0,.55,1.25,2.08,2.08,0,0,0,1.46.49A2.71,2.71,0,0,0,74.46,91a3.13,3.13,0,0,0,.81-2.22Z"/><path d="M81.84,91.48h0V93H80.12V77.46H81.8v6.89h0a4,4,0,0,1,3.63-2.1,3.85,3.85,0,0,1,3.17,1.41,5.84,5.84,0,0,1,1.14,3.78,6.52,6.52,0,0,1-1.28,4.22A4.27,4.27,0,0,1,85,93.25,3.46,3.46,0,0,1,81.84,91.48Zm0-4.23v1.46a3.13,3.13,0,0,0,.85,2.21,3,3,0,0,0,4.54-.26,5.34,5.34,0,0,0,.87-3.25,4.25,4.25,0,0,0-.81-2.75,2.69,2.69,0,0,0-2.2-1,3,3,0,0,0-2.35,1A3.72,3.72,0,0,0,81.8,87.25Z"/><path d="M100.91,88.17H93.49a3.92,3.92,0,0,0,1,2.71,3.25,3.25,0,0,0,2.48,1,5.16,5.16,0,0,0,3.26-1.17v1.58a6.08,6.08,0,0,1-3.66,1A4.45,4.45,0,0,1,93,91.82a5.87,5.87,0,0,1-1.27-4,5.72,5.72,0,0,1,1.39-4,4.45,4.45,0,0,1,3.45-1.55,4,4,0,0,1,3.19,1.34,5.56,5.56,0,0,1,1.13,3.7Zm-1.73-1.42a3.39,3.39,0,0,0-.7-2.27,2.39,2.39,0,0,0-1.92-.81,2.7,2.7,0,0,0-2,.85,3.84,3.84,0,0,0-1,2.23Z"/><path d="M108.92,84.2a2.07,2.07,0,0,0-1.27-.34,2.16,2.16,0,0,0-1.8,1,4.72,4.72,0,0,0-.72,2.77V93h-1.68V82.5h1.68v2.16h0a3.69,3.69,0,0,1,1.1-1.72,2.46,2.46,0,0,1,1.65-.62,2.62,2.62,0,0,1,1,.14Z"/><path d="M125.46,93h-1.68V91.22h0a4.23,4.23,0,0,1-6.77.62A5.78,5.78,0,0,1,115.78,88a6.29,6.29,0,0,1,1.32-4.18,4.34,4.34,0,0,1,3.49-1.57A3.35,3.35,0,0,1,123.74,84h0v-6.5h1.68Zm-1.68-4.75V86.7a3,3,0,0,0-.84-2.15,2.81,2.81,0,0,0-2.13-.88,2.88,2.88,0,0,0-2.42,1.13,4.92,4.92,0,0,0-.88,3.11,4.48,4.48,0,0,0,.84,2.87,2.77,2.77,0,0,0,2.27,1,2.91,2.91,0,0,0,2.29-1A3.81,3.81,0,0,0,123.78,88.25Z"/><path d="M137.36,93h-1.68V91.34h0a3.46,3.46,0,0,1-3.24,1.91q-3.77,0-3.76-4.47V82.5h1.67v6c0,2.21.85,3.32,2.55,3.32a2.55,2.55,0,0,0,2-.91,3.45,3.45,0,0,0,.8-2.37v-6h1.68Z"/><path d="M154.94,88.17h-7.41a4,4,0,0,0,.94,2.71,3.29,3.29,0,0,0,2.49,1,5.16,5.16,0,0,0,3.26-1.17v1.58a6.12,6.12,0,0,1-3.66,1,4.45,4.45,0,0,1-3.5-1.43,5.87,5.87,0,0,1-1.27-4,5.72,5.72,0,0,1,1.39-4,4.44,4.44,0,0,1,3.45-1.55,4,4,0,0,1,3.19,1.34,5.56,5.56,0,0,1,1.12,3.7Zm-1.72-1.42a3.44,3.44,0,0,0-.7-2.27,2.39,2.39,0,0,0-1.92-.81,2.69,2.69,0,0,0-2,.85,3.84,3.84,0,0,0-1,2.23Z"/><path d="M163,84.2a2.07,2.07,0,0,0-1.27-.34,2.14,2.14,0,0,0-1.8,1,4.72,4.72,0,0,0-.72,2.77V93h-1.68V82.5h1.68v2.16h0a3.62,3.62,0,0,1,1.1-1.72,2.46,2.46,0,0,1,1.65-.62,2.62,2.62,0,0,1,1,.14Z"/><path d="M165.37,93.23a1.1,1.1,0,0,1-.8-.34,1.15,1.15,0,0,1,0-1.63,1.07,1.07,0,0,1,.8-.34,1.09,1.09,0,0,1,.82.34,1.15,1.15,0,0,1,0,1.63A1.13,1.13,0,0,1,165.37,93.23Z"/><path d="M169.93,93.23a1.11,1.11,0,0,1-.81-.34,1.17,1.17,0,0,1,0-1.63,1.07,1.07,0,0,1,.81-.34,1.11,1.11,0,0,1,.82.34,1.16,1.16,0,0,1-.82,2Z"/><path d="M174.48,93.23a1.11,1.11,0,0,1-.81-.34,1.17,1.17,0,0,1,0-1.63,1.07,1.07,0,0,1,.81-.34,1.11,1.11,0,0,1,.82.34,1.16,1.16,0,0,1-.82,2Z"/></g></g><use class="cls-1" transform="translate(222 42.94) scale(0.22)" xlink:href="#image"/><path class="cls-2" d="M250,123.5h32.7A32.48,32.48,0,0,0,315,91.2V35.8A32.48,32.48,0,0,0,282.7,3.5H37.3A32.48,32.48,0,0,0,5,35.8V91.2a32.48,32.48,0,0,0,32.3,32.3H250Z"/><g class="cls-1"><g class="cls-1"><path d="M22,38.38V36.27a4.12,4.12,0,0,0,.87.58,7.93,7.93,0,0,0,2.19.7,6.86,6.86,0,0,0,1,.1A4,4,0,0,0,28.61,37a2,2,0,0,0,.82-1.76,2.11,2.11,0,0,0-.27-1.08,3.24,3.24,0,0,0-.75-.84,7.48,7.48,0,0,0-1.14-.72l-1.41-.73c-.54-.27-1-.54-1.5-.82a6.34,6.34,0,0,1-1.2-.92A3.91,3.91,0,0,1,22.35,29a3.63,3.63,0,0,1-.29-1.49,3.47,3.47,0,0,1,.46-1.82,4,4,0,0,1,1.21-1.27,5.15,5.15,0,0,1,1.7-.75,7.88,7.88,0,0,1,1.94-.25,7.5,7.5,0,0,1,3.3.55v2a6.05,6.05,0,0,0-3.48-.93A5.81,5.81,0,0,0,26,25.2a3.23,3.23,0,0,0-1.05.4,2.28,2.28,0,0,0-.74.71,1.84,1.84,0,0,0-.29,1.07,2.12,2.12,0,0,0,.22,1,2.34,2.34,0,0,0,.64.78,6.94,6.94,0,0,0,1,.68l1.41.73c.55.27,1.07.55,1.56.85a7.32,7.32,0,0,1,1.29,1A4.46,4.46,0,0,1,31,33.63a3.32,3.32,0,0,1,.33,1.51,3.84,3.84,0,0,1-.45,1.92,3.62,3.62,0,0,1-1.19,1.27,5.25,5.25,0,0,1-1.73.71,10,10,0,0,1-2.07.22,8.41,8.41,0,0,1-.9-.06c-.35,0-.72-.1-1.09-.17s-.71-.17-1.05-.28A3.07,3.07,0,0,1,22,38.38Z"/><path d="M38.48,38.89a3.31,3.31,0,0,1-1.63.35Q34,39.24,34,36V29.58H32.11v-1.5H34V25.42l1.75-.57v3.23h2.75v1.5H35.73v6.15a2.59,2.59,0,0,0,.37,1.56,1.48,1.48,0,0,0,1.24.47,1.85,1.85,0,0,0,1.14-.36Z"/><path d="M45.38,39.26a5.05,5.05,0,0,1-3.86-1.53,5.66,5.66,0,0,1-1.45-4.06,5.92,5.92,0,0,1,1.5-4.3,5.43,5.43,0,0,1,4.07-1.54,4.9,4.9,0,0,1,3.81,1.5,6,6,0,0,1,1.37,4.17,5.82,5.82,0,0,1-1.48,4.18A5.16,5.16,0,0,1,45.38,39.26Zm.13-10a3.36,3.36,0,0,0-2.67,1.14,4.75,4.75,0,0,0-1,3.17,4.47,4.47,0,0,0,1,3.06,3.41,3.41,0,0,0,2.66,1.12,3.21,3.21,0,0,0,2.61-1.1A4.82,4.82,0,0,0,49,33.56a4.88,4.88,0,0,0-.91-3.15A3.19,3.19,0,0,0,45.51,29.3Z"/><path d="M55.4,37.42h0V44H53.61V28.08h1.75V30h0a4.13,4.13,0,0,1,3.78-2.17,4,4,0,0,1,3.29,1.46,6.08,6.08,0,0,1,1.19,3.93,6.77,6.77,0,0,1-1.34,4.39,4.41,4.41,0,0,1-3.64,1.65A3.65,3.65,0,0,1,55.4,37.42Zm0-4.4v1.52a3.23,3.23,0,0,0,.88,2.3A3.12,3.12,0,0,0,61,36.57a5.52,5.52,0,0,0,.91-3.38A4.41,4.41,0,0,0,61,30.33a2.78,2.78,0,0,0-2.28-1,3.1,3.1,0,0,0-2.45,1.06A3.89,3.89,0,0,0,55.36,33Z"/><path d="M81.75,39H80V37.15h0a4.4,4.4,0,0,1-7,.64,6,6,0,0,1-1.23-4,6.54,6.54,0,0,1,1.36-4.34,4.49,4.49,0,0,1,3.64-1.63A3.49,3.49,0,0,1,80,29.6h0V22.84h1.75ZM80,34.06V32.45a3.15,3.15,0,0,0-.87-2.24,2.93,2.93,0,0,0-2.22-.91,3,3,0,0,0-2.52,1.17,5.14,5.14,0,0,0-.91,3.24,4.6,4.6,0,0,0,.88,3,2.86,2.86,0,0,0,2.36,1.1,3,3,0,0,0,2.37-1.06A3.91,3.91,0,0,0,80,34.06Z"/><path d="M86.19,25.31a1.13,1.13,0,0,1-.8-.32,1.07,1.07,0,0,1-.33-.81,1.11,1.11,0,0,1,.33-.82,1.17,1.17,0,0,1,1.61,0,1.08,1.08,0,0,1,.34.82A1.07,1.07,0,0,1,87,25,1.1,1.1,0,0,1,86.19,25.31ZM87,39H85.29V28.08H87Z"/><path d="M99.9,38.13q0,6-5.76,6a7.76,7.76,0,0,1-3.54-.77V41.62a7.19,7.19,0,0,0,3.52,1q4,0,4-4.29V37.17h0a4.41,4.41,0,0,1-7,.63,5.81,5.81,0,0,1-1.25-3.91,6.8,6.8,0,0,1,1.34-4.42,4.46,4.46,0,0,1,3.67-1.64,3.55,3.55,0,0,1,3.27,1.77h0V28.08H99.9Zm-1.75-4.07V32.45a3.09,3.09,0,0,0-.88-2.22,2.87,2.87,0,0,0-2.19-.93,3,3,0,0,0-2.54,1.18,5.25,5.25,0,0,0-.91,3.3,4.49,4.49,0,0,0,.88,2.91,2.83,2.83,0,0,0,2.33,1.1,3,3,0,0,0,2.39-1A3.93,3.93,0,0,0,98.15,34.06Z"/><path d="M108.76,38.61V36.73a5.2,5.2,0,0,0,3.15,1.06c1.53,0,2.3-.52,2.3-1.54a1.34,1.34,0,0,0-.2-.74,2.08,2.08,0,0,0-.53-.54,3.67,3.67,0,0,0-.79-.42c-.3-.13-.63-.26-1-.39s-.9-.39-1.27-.58a4.18,4.18,0,0,1-.92-.66,2.55,2.55,0,0,1-.55-.84,2.85,2.85,0,0,1-.19-1.1,2.67,2.67,0,0,1,.35-1.36,3.28,3.28,0,0,1,.94-1,4.19,4.19,0,0,1,1.34-.6,5.73,5.73,0,0,1,1.55-.2,6.22,6.22,0,0,1,2.54.49v1.77a4.91,4.91,0,0,0-2.77-.79,3.1,3.1,0,0,0-.89.11,2.08,2.08,0,0,0-.67.31,1.46,1.46,0,0,0-.44.49,1.33,1.33,0,0,0-.16.62,1.42,1.42,0,0,0,.61,1.23,3.32,3.32,0,0,0,.73.4c.28.13.6.26,1,.4a12.32,12.32,0,0,1,1.3.57,4.93,4.93,0,0,1,1,.66,2.55,2.55,0,0,1,.62.85,3,3,0,0,1-.14,2.55,2.9,2.9,0,0,1-1,1,4.28,4.28,0,0,1-1.38.58,6.62,6.62,0,0,1-1.63.2A6.26,6.26,0,0,1,108.76,38.61Z"/><path d="M127.46,34h-7.71a4.07,4.07,0,0,0,1,2.81,3.34,3.34,0,0,0,2.58,1,5.37,5.37,0,0,0,3.39-1.22v1.64a6.32,6.32,0,0,1-3.81,1,4.65,4.65,0,0,1-3.64-1.49,6.1,6.1,0,0,1-1.32-4.19,6,6,0,0,1,1.45-4.15,4.63,4.63,0,0,1,3.59-1.6,4.11,4.11,0,0,1,3.31,1.38,5.81,5.81,0,0,1,1.17,3.85Zm-1.79-1.48a3.53,3.53,0,0,0-.73-2.36,2.48,2.48,0,0,0-2-.84,2.83,2.83,0,0,0-2.1.88,4,4,0,0,0-1.06,2.32Z"/><path d="M131.86,39h-1.75V22.84h1.75Z"/><path d="M144,28.08,139.63,39h-1.72l-4.13-10.92h1.92L138.47,36a7.46,7.46,0,0,1,.38,1.52h0a7.48,7.48,0,0,1,.35-1.48l2.9-8Z"/><path d="M147.19,39.19a1.14,1.14,0,0,1-.84-.34A1.12,1.12,0,0,1,146,38a1.18,1.18,0,0,1,2-.84,1.11,1.11,0,0,1,.35.84,1.09,1.09,0,0,1-.35.83A1.13,1.13,0,0,1,147.19,39.19Zm.9-15.48-.21,11h-1.44l-.19-11Z"/><path d="M169.77,39H168V32h-7.91v7h-1.79V23.71h1.79v6.71H168V23.71h1.79Z"/><path d="M182.13,28.08,177.78,39h-1.72l-4.13-10.92h1.92L176.62,36a6.85,6.85,0,0,1,.38,1.52h.05a6.85,6.85,0,0,1,.34-1.48l2.9-8Z"/><path d="M188.57,39.26a5.05,5.05,0,0,1-3.86-1.53,5.66,5.66,0,0,1-1.45-4.06,5.89,5.89,0,0,1,1.51-4.3,5.39,5.39,0,0,1,4.06-1.54,4.89,4.89,0,0,1,3.81,1.5A6,6,0,0,1,194,33.5a5.82,5.82,0,0,1-1.48,4.18A5.16,5.16,0,0,1,188.57,39.26Zm.13-10A3.32,3.32,0,0,0,186,30.44a4.7,4.7,0,0,0-1,3.17,4.42,4.42,0,0,0,1,3.06,3.38,3.38,0,0,0,2.65,1.12,3.21,3.21,0,0,0,2.61-1.1,4.77,4.77,0,0,0,.91-3.13,4.83,4.83,0,0,0-.91-3.15A3.19,3.19,0,0,0,188.7,29.3Z"/><path d="M202.5,29.85a2.18,2.18,0,0,0-1.32-.35,2.24,2.24,0,0,0-1.88,1.06,4.88,4.88,0,0,0-.75,2.88V39H196.8V28.08h1.75v2.25h0a3.66,3.66,0,0,1,1.14-1.79,2.59,2.59,0,0,1,1.71-.65,2.85,2.85,0,0,1,1.05.15Z"/><path d="M209.79,24.37a2.35,2.35,0,0,0-1.16-.29c-1.22,0-1.84.77-1.84,2.32v1.68h2.56v1.5h-2.56V39h-1.73V29.58h-1.87v-1.5h1.87V26.31a3.67,3.67,0,0,1,1-2.71,3.32,3.32,0,0,1,2.47-1,3.57,3.57,0,0,1,1.27.19Z"/><path d="M215.79,39.26a5.05,5.05,0,0,1-3.86-1.53,5.7,5.7,0,0,1-1.45-4.06,5.93,5.93,0,0,1,1.51-4.3,5.39,5.39,0,0,1,4.06-1.54,4.89,4.89,0,0,1,3.81,1.5,5.92,5.92,0,0,1,1.37,4.17,5.86,5.86,0,0,1-1.47,4.18A5.2,5.2,0,0,1,215.79,39.26Zm.13-10a3.32,3.32,0,0,0-2.66,1.14,4.7,4.7,0,0,0-1,3.17,4.47,4.47,0,0,0,1,3.06,3.38,3.38,0,0,0,2.65,1.12,3.21,3.21,0,0,0,2.61-1.1,4.77,4.77,0,0,0,.91-3.13,4.83,4.83,0,0,0-.91-3.15A3.19,3.19,0,0,0,215.92,29.3Z"/><path d="M229.72,29.85a2.16,2.16,0,0,0-1.32-.35,2.21,2.21,0,0,0-1.87,1.06,4.88,4.88,0,0,0-.75,2.88V39H224V28.08h1.75v2.25h0A3.8,3.8,0,0,1,227,28.54a2.6,2.6,0,0,1,1.72-.65,2.82,2.82,0,0,1,1,.15Z"/><path d="M236.94,38.61V36.73a5.19,5.19,0,0,0,3.14,1.06c1.54,0,2.31-.52,2.31-1.54a1.34,1.34,0,0,0-.2-.74,2.08,2.08,0,0,0-.53-.54,3.92,3.92,0,0,0-.79-.42c-.3-.13-.63-.26-1-.39a13,13,0,0,1-1.27-.58,4.18,4.18,0,0,1-.92-.66,2.55,2.55,0,0,1-.55-.84A2.85,2.85,0,0,1,237,31a2.67,2.67,0,0,1,.35-1.36,3.28,3.28,0,0,1,.94-1,4.19,4.19,0,0,1,1.34-.6,5.73,5.73,0,0,1,1.55-.2,6.22,6.22,0,0,1,2.54.49v1.77a4.91,4.91,0,0,0-2.77-.79,3.06,3.06,0,0,0-.89.11,2.24,2.24,0,0,0-.68.31,1.54,1.54,0,0,0-.43.49,1.22,1.22,0,0,0-.16.62,1.42,1.42,0,0,0,.16.72,1.54,1.54,0,0,0,.45.51,3.48,3.48,0,0,0,.72.4c.29.13.61.26,1,.4a11.67,11.67,0,0,1,1.31.57,4.93,4.93,0,0,1,1,.66,2.7,2.7,0,0,1,.62.85,3,3,0,0,1-.14,2.55,3,3,0,0,1-.95,1,4.28,4.28,0,0,1-1.38.58,6.68,6.68,0,0,1-1.63.2A6.23,6.23,0,0,1,236.94,38.61Z"/><path d="M255.64,34h-7.71a4.11,4.11,0,0,0,1,2.81,3.37,3.37,0,0,0,2.58,1,5.37,5.37,0,0,0,3.39-1.22v1.64a6.27,6.27,0,0,1-3.8,1,4.63,4.63,0,0,1-3.64-1.49,6.1,6.1,0,0,1-1.32-4.19,6,6,0,0,1,1.45-4.15,4.6,4.6,0,0,1,3.58-1.6,4.12,4.12,0,0,1,3.32,1.38,5.81,5.81,0,0,1,1.17,3.85Zm-1.79-1.48a3.58,3.58,0,0,0-.73-2.36,2.5,2.5,0,0,0-2-.84,2.83,2.83,0,0,0-2.1.88A4,4,0,0,0,248,32.5Z"/><path d="M267.35,39H265.6V32.77q0-3.47-2.54-3.47a2.79,2.79,0,0,0-2.17,1,3.67,3.67,0,0,0-.85,2.49V39h-1.75V28.08H260V29.9h0a3.94,3.94,0,0,1,3.58-2.07A3.34,3.34,0,0,1,266.4,29a5.18,5.18,0,0,1,1,3.35Z"/><path d="M280,39h-1.74V37.15h-.05a4.4,4.4,0,0,1-7,.64,6,6,0,0,1-1.23-4,6.54,6.54,0,0,1,1.36-4.34,4.51,4.51,0,0,1,3.64-1.63,3.49,3.49,0,0,1,3.27,1.77h.05V22.84H280Zm-1.74-4.94V32.45a3.16,3.16,0,0,0-.88-2.24,2.93,2.93,0,0,0-2.22-.91,3,3,0,0,0-2.51,1.17,5.14,5.14,0,0,0-.92,3.24,4.6,4.6,0,0,0,.88,3,2.88,2.88,0,0,0,2.36,1.1,3,3,0,0,0,2.37-1.06A3.92,3.92,0,0,0,278.22,34.06Z"/><path d="M292.28,34h-7.71a4.11,4.11,0,0,0,1,2.81,3.37,3.37,0,0,0,2.58,1,5.37,5.37,0,0,0,3.39-1.22v1.64a6.31,6.31,0,0,1-3.8,1,4.62,4.62,0,0,1-3.64-1.49,6.1,6.1,0,0,1-1.32-4.19,6,6,0,0,1,1.44-4.15,4.64,4.64,0,0,1,3.59-1.6,4.12,4.12,0,0,1,3.32,1.38,5.81,5.81,0,0,1,1.17,3.85Zm-1.79-1.48a3.58,3.58,0,0,0-.73-2.36,2.5,2.5,0,0,0-2-.84,2.8,2.8,0,0,0-2.1.88,4,4,0,0,0-1.07,2.32Z"/><path d="M300.62,29.85a2.18,2.18,0,0,0-1.32-.35,2.24,2.24,0,0,0-1.88,1.06,4.88,4.88,0,0,0-.75,2.88V39h-1.75V28.08h1.75v2.25h.05a3.66,3.66,0,0,1,1.14-1.79,2.59,2.59,0,0,1,1.71-.65,2.85,2.85,0,0,1,1.05.15Z"/></g><g class="cls-1"><path d="M31.84,67.08H30.09V65.22h0a4,4,0,0,1-3.76,2.11A4,4,0,0,1,23,65.87a6,6,0,0,1-1.24-4,6.56,6.56,0,0,1,1.37-4.34,4.52,4.52,0,0,1,3.63-1.63,3.51,3.51,0,0,1,3.28,1.77h0V50.91h1.75Zm-1.75-4.94V60.53a3.13,3.13,0,0,0-.87-2.24A3,3,0,0,0,27,57.38a3,3,0,0,0-2.52,1.17,5.14,5.14,0,0,0-.92,3.24,4.66,4.66,0,0,0,.88,3,2.89,2.89,0,0,0,2.37,1.09,3,3,0,0,0,2.37-1A4,4,0,0,0,30.09,62.14Z"/><path d="M44.21,67.08H42.46V65.35h0a3.6,3.6,0,0,1-3.37,2q-3.9,0-3.9-4.64V56.16h1.73v6.25q0,3.45,2.65,3.45a2.66,2.66,0,0,0,2.1-.94,3.62,3.62,0,0,0,.83-2.47V56.16h1.75Z"/><path d="M53.06,66.68V64.81a5.18,5.18,0,0,0,3.14,1q2.31,0,2.31-1.53a1.34,1.34,0,0,0-.2-.74,1.82,1.82,0,0,0-.53-.54,3.92,3.92,0,0,0-.79-.42c-.3-.13-.63-.26-1-.39a13,13,0,0,1-1.27-.58,4.18,4.18,0,0,1-.92-.66,2.55,2.55,0,0,1-.55-.84,2.85,2.85,0,0,1-.19-1.1,2.65,2.65,0,0,1,.35-1.36,3.28,3.28,0,0,1,.94-1,4.19,4.19,0,0,1,1.34-.6,5.74,5.74,0,0,1,1.55-.21,6.39,6.39,0,0,1,2.54.49v1.77A5,5,0,0,0,57,57.38a3.06,3.06,0,0,0-.89.11,2.24,2.24,0,0,0-.68.31,1.43,1.43,0,0,0-.43.49,1.19,1.19,0,0,0-.16.62,1.47,1.47,0,0,0,.16.72,1.54,1.54,0,0,0,.45.51,3.48,3.48,0,0,0,.72.4l1,.4a11.67,11.67,0,0,1,1.31.57,4.2,4.2,0,0,1,1,.66,2.59,2.59,0,0,1,.62.85,2.67,2.67,0,0,1,.22,1.14,2.63,2.63,0,0,1-.36,1.4,3.12,3.12,0,0,1-.95,1,4.52,4.52,0,0,1-1.38.58,6.68,6.68,0,0,1-1.63.19A6.11,6.11,0,0,1,53.06,66.68Z"/><path d="M70.8,67.08H69.05V65.37h0a3.66,3.66,0,0,1-3.36,2,3.55,3.55,0,0,1-2.55-.86,3,3,0,0,1-.93-2.29c0-2,1.21-3.23,3.61-3.56l3.27-.46c0-1.86-.75-2.78-2.25-2.78a5.36,5.36,0,0,0-3.56,1.34V56.93a6.7,6.7,0,0,1,3.71-1q3.85,0,3.85,4.08Zm-1.75-5.53-2.63.37a4.27,4.27,0,0,0-1.84.6A1.74,1.74,0,0,0,64,64.05a1.68,1.68,0,0,0,.57,1.31,2.23,2.23,0,0,0,1.52.5A2.82,2.82,0,0,0,68.21,65a3.28,3.28,0,0,0,.84-2.31Zm-2.32-7A2.21,2.21,0,0,1,65.19,54a1.89,1.89,0,0,1-.62-1.47A2,2,0,0,1,65.2,51a2.27,2.27,0,0,1,1.6-.58,2.15,2.15,0,0,1,1.56.58,2.05,2.05,0,0,1,0,3A2.28,2.28,0,0,1,66.73,54.54Zm0-3.27a1.13,1.13,0,0,0-.85.34,1.18,1.18,0,0,0-.35.86,1.05,1.05,0,0,0,1.2,1.19,1.2,1.2,0,0,0,.88-.34,1.22,1.22,0,0,0,0-1.71A1.2,1.2,0,0,0,66.73,51.27Z"/><path d="M83.42,67.08H81.67V65.22h0a4.41,4.41,0,0,1-7,.65,6,6,0,0,1-1.23-4,6.56,6.56,0,0,1,1.36-4.34,4.54,4.54,0,0,1,3.64-1.63,3.49,3.49,0,0,1,3.27,1.77h0V50.91h1.75Zm-1.75-4.94V60.53a3.1,3.1,0,0,0-.88-2.24,2.93,2.93,0,0,0-2.22-.91,3,3,0,0,0-2.51,1.17,5.14,5.14,0,0,0-.92,3.24,4.6,4.6,0,0,0,.88,3,2.87,2.87,0,0,0,2.36,1.09,3,3,0,0,0,2.38-1A4,4,0,0,0,81.67,62.14Z"/><path d="M94.77,67.08H93V65.37h0a3.66,3.66,0,0,1-3.36,2,3.55,3.55,0,0,1-2.55-.86,3,3,0,0,1-.92-2.29q0-3.06,3.6-3.56L93,60.16c0-1.86-.75-2.78-2.25-2.78a5.36,5.36,0,0,0-3.56,1.34V56.93a6.7,6.7,0,0,1,3.71-1q3.85,0,3.85,4.08ZM93,61.55l-2.63.37a4.17,4.17,0,0,0-1.83.6,1.72,1.72,0,0,0-.62,1.53,1.68,1.68,0,0,0,.57,1.31,2.23,2.23,0,0,0,1.52.5A2.82,2.82,0,0,0,92.18,65,3.28,3.28,0,0,0,93,62.64Z"/><path d="M107.13,67.08h-1.75V60.85c0-2.32-.84-3.47-2.54-3.47a2.76,2.76,0,0,0-2.17,1,3.68,3.68,0,0,0-.86,2.49v6.23H98.07V56.16h1.74V58h0a3.94,3.94,0,0,1,3.58-2.07,3.35,3.35,0,0,1,2.74,1.16,5.17,5.17,0,0,1,.95,3.34Z"/><path d="M125.47,67.08h-1.75V60.85c0-2.32-.84-3.47-2.54-3.47a2.76,2.76,0,0,0-2.17,1,3.68,3.68,0,0,0-.86,2.49v6.23h-1.74V56.16h1.74V58h0a3.94,3.94,0,0,1,3.58-2.07,3.35,3.35,0,0,1,2.74,1.16,5.17,5.17,0,0,1,1,3.34Z"/><path d="M133.33,67.33a5.08,5.08,0,0,1-3.87-1.53,5.67,5.67,0,0,1-1.44-4,5.91,5.91,0,0,1,1.5-4.3,5.41,5.41,0,0,1,4.06-1.55,4.9,4.9,0,0,1,3.82,1.51,6,6,0,0,1,1.37,4.17,5.88,5.88,0,0,1-1.48,4.18A5.17,5.17,0,0,1,133.33,67.33Zm.13-9.95a3.33,3.33,0,0,0-2.67,1.14,4.74,4.74,0,0,0-1,3.16,4.43,4.43,0,0,0,1,3.06,3.37,3.37,0,0,0,2.66,1.12,3.15,3.15,0,0,0,2.6-1.1,4.74,4.74,0,0,0,.92-3.12,4.86,4.86,0,0,0-.92-3.16A3.15,3.15,0,0,0,133.46,57.38Z"/><path d="M150.88,66.2q0,6-5.76,6a7.76,7.76,0,0,1-3.54-.77V69.7a7.28,7.28,0,0,0,3.52,1c2.69,0,4-1.42,4-4.28v-1.2h0a4.42,4.42,0,0,1-7,.64A5.81,5.81,0,0,1,140.81,62a6.8,6.8,0,0,1,1.34-4.42,4.45,4.45,0,0,1,3.66-1.65,3.56,3.56,0,0,1,3.28,1.77h0V56.16h1.75Zm-1.75-4.06V60.53a3.11,3.11,0,0,0-.88-2.23,2.89,2.89,0,0,0-2.19-.92,3,3,0,0,0-2.54,1.17,5.29,5.29,0,0,0-.92,3.3,4.56,4.56,0,0,0,.88,2.92,2.85,2.85,0,0,0,2.33,1.09,3.07,3.07,0,0,0,2.4-1A3.93,3.93,0,0,0,149.13,62.14Z"/><path d="M163.2,62.06h-7.71a4,4,0,0,0,1,2.81,3.37,3.37,0,0,0,2.58,1,5.36,5.36,0,0,0,3.39-1.21v1.64a6.32,6.32,0,0,1-3.81,1A4.6,4.6,0,0,1,155,65.85a6.07,6.07,0,0,1-1.33-4.19,5.93,5.93,0,0,1,1.45-4.15,4.63,4.63,0,0,1,3.59-1.61A4.12,4.12,0,0,1,162,57.29a5.79,5.79,0,0,1,1.18,3.85Zm-1.8-1.49a3.5,3.5,0,0,0-.73-2.35,2.48,2.48,0,0,0-2-.84,2.83,2.83,0,0,0-2.1.88,4,4,0,0,0-1.06,2.31Z"/><path d="M170.9,67a3.32,3.32,0,0,1-1.63.34c-1.91,0-2.87-1.06-2.87-3.2V57.65h-1.87V56.16h1.87V53.49l1.75-.56v3.23h2.75v1.49h-2.75V63.8a2.53,2.53,0,0,0,.38,1.57,1.46,1.46,0,0,0,1.23.47,1.85,1.85,0,0,0,1.14-.36Z"/><path d="M181,65.5h0v6.6h-1.75V56.16H181v1.92h0a4.14,4.14,0,0,1,3.78-2.18,4,4,0,0,1,3.29,1.47,6.08,6.08,0,0,1,1.19,3.93,6.77,6.77,0,0,1-1.34,4.39,4.45,4.45,0,0,1-3.64,1.64A3.66,3.66,0,0,1,181,65.5Zm0-4.4v1.52a3.24,3.24,0,0,0,.88,2.3,3.14,3.14,0,0,0,4.72-.27,5.59,5.59,0,0,0,.9-3.38,4.41,4.41,0,0,0-.84-2.86,2.78,2.78,0,0,0-2.28-1,3.08,3.08,0,0,0-2.45,1.06A3.87,3.87,0,0,0,181,61.1Z"/><path d="M193,53.39a1.11,1.11,0,0,1-.8-.32,1.14,1.14,0,0,1,.8-2,1.14,1.14,0,1,1,0,2.27Zm.85,13.69h-1.75V56.16h1.75Z"/><path d="M196.69,66.68V64.81a5.18,5.18,0,0,0,3.14,1q2.31,0,2.31-1.53a1.34,1.34,0,0,0-.2-.74,1.82,1.82,0,0,0-.53-.54,3.92,3.92,0,0,0-.79-.42l-1-.39a13,13,0,0,1-1.27-.58,4,4,0,0,1-.92-.66,2.58,2.58,0,0,1-.56-.84,3.06,3.06,0,0,1-.18-1.1,2.65,2.65,0,0,1,.35-1.36,3.16,3.16,0,0,1,.94-1,4.19,4.19,0,0,1,1.34-.6,5.74,5.74,0,0,1,1.55-.21,6.43,6.43,0,0,1,2.54.49v1.77a5,5,0,0,0-2.78-.78,3,3,0,0,0-.88.11,2.24,2.24,0,0,0-.68.31,1.57,1.57,0,0,0-.44.49,1.29,1.29,0,0,0-.15.62,1.59,1.59,0,0,0,.15.72,1.7,1.7,0,0,0,.46.51,3.48,3.48,0,0,0,.72.4l1,.4a10.73,10.73,0,0,1,1.3.57,4,4,0,0,1,1,.66,2.62,2.62,0,0,1,.63.85,2.83,2.83,0,0,1,.22,1.14,2.63,2.63,0,0,1-.36,1.4,3.24,3.24,0,0,1-.95,1,4.52,4.52,0,0,1-1.38.58,6.68,6.68,0,0,1-1.63.19A6.11,6.11,0,0,1,196.69,66.68Z"/><path d="M208.42,62.83a3.18,3.18,0,0,1-.17-.72,5.14,5.14,0,0,1-.08-.88,2.77,2.77,0,0,1,.27-1.23,5.24,5.24,0,0,1,.68-1,10.82,10.82,0,0,1,.88-.92,12.45,12.45,0,0,0,.89-.89,5.38,5.38,0,0,0,.68-.95,2.27,2.27,0,0,0,.27-1.1,2,2,0,0,0-.2-.9,1.83,1.83,0,0,0-.54-.66,2.27,2.27,0,0,0-.79-.4,3.19,3.19,0,0,0-.94-.14,4.15,4.15,0,0,0-3.13,1.42V52.56a6.24,6.24,0,0,1,3.38-1,5.1,5.1,0,0,1,1.53.22,3.77,3.77,0,0,1,1.25.63,3,3,0,0,1,.85,1,3.37,3.37,0,0,1,.31,1.46,3.48,3.48,0,0,1-.28,1.41,5.22,5.22,0,0,1-.7,1.13,8.36,8.36,0,0,1-.91,1c-.33.3-.63.59-.91.89a4.57,4.57,0,0,0-.7.92,2,2,0,0,0-.28,1.06,3.14,3.14,0,0,0,.12.89,6.4,6.4,0,0,0,.23.67Zm1,4.44a1.19,1.19,0,0,1-.84-.34,1.14,1.14,0,0,1-.35-.83,1.09,1.09,0,0,1,.35-.83,1.15,1.15,0,0,1,.84-.36,1.13,1.13,0,0,1,.83.36,1.09,1.09,0,0,1,.35.83,1.14,1.14,0,0,1-.35.83A1.16,1.16,0,0,1,209.38,67.27Z"/><path d="M275.13,67.08h-2.49l-5.91-7a4.1,4.1,0,0,1-.4-.53h-.05v7.53h-1.79V51.79h1.79V59h.05a4.59,4.59,0,0,1,.4-.52l5.72-6.66h2.22l-6.55,7.33Z"/><path d="M292.45,62.06h-7.73a4,4,0,0,0,1,2.81,3.37,3.37,0,0,0,2.57,1,5.36,5.36,0,0,0,3.42-1.21v1.64a6.24,6.24,0,0,1-3.81,1,4.2,4.2,0,0,1-4.09-2.44h0a4.7,4.7,0,0,1-4.13,2.44,3.63,3.63,0,0,1-2.56-.85,3,3,0,0,1-.93-2.3c0-2.13,1.36-3.29,4.08-3.46l2.79-.17c0-2.12-.76-3.17-2.29-3.17a5.58,5.58,0,0,0-3.52,1.3V56.93a6.61,6.61,0,0,1,3.71-1,3,3,0,0,1,3.2,2.14h0a4.09,4.09,0,0,1,3.8-2.14,4.17,4.17,0,0,1,3.34,1.39,5.79,5.79,0,0,1,1.18,3.87Zm-9.46.65V62l-2.16.13a4.85,4.85,0,0,0-2.21.53,1.73,1.73,0,0,0-.17,2.7,2.32,2.32,0,0,0,1.52.47,2.88,2.88,0,0,0,2.15-.9A3.11,3.11,0,0,0,283,62.71Zm7.67-2.14a3.65,3.65,0,0,0-.73-2.36,2.44,2.44,0,0,0-2-.83,2.92,2.92,0,0,0-2.12.87,4,4,0,0,0-1.09,2.32Z"/><path d="M300.49,52.45a2.35,2.35,0,0,0-1.16-.29c-1.23,0-1.84.77-1.84,2.31v1.69h2.56v1.49h-2.56v9.43h-1.74V57.65h-1.86V56.16h1.86V54.39a3.68,3.68,0,0,1,1-2.71,3.32,3.32,0,0,1,2.47-1,3.4,3.4,0,0,1,1.27.19Z"/><path d="M307,67a3.32,3.32,0,0,1-1.63.34c-1.91,0-2.87-1.06-2.87-3.2V57.65h-1.87V56.16h1.87V53.49l1.75-.56v3.23H307v1.49h-2.75V63.8a2.53,2.53,0,0,0,.38,1.57,1.46,1.46,0,0,0,1.23.47,1.85,1.85,0,0,0,1.14-.36Z"/></g><g class="cls-1"><path d="M31.3,90.13H23.59a4,4,0,0,0,1,2.82,3.37,3.37,0,0,0,2.58,1,5.37,5.37,0,0,0,3.39-1.22v1.65a6.39,6.39,0,0,1-3.81,1,4.61,4.61,0,0,1-3.63-1.49,7,7,0,0,1,.12-8.34A4.63,4.63,0,0,1,26.81,84a4.07,4.07,0,0,1,3.31,1.39,5.76,5.76,0,0,1,1.18,3.84Zm-1.8-1.48a3.54,3.54,0,0,0-.73-2.36,2.48,2.48,0,0,0-2-.84,2.84,2.84,0,0,0-2.1.89,4,4,0,0,0-1.06,2.31Z"/><path d="M43,95.15H41.25V88.93q0-3.48-2.53-3.48a2.74,2.74,0,0,0-2.17,1,3.59,3.59,0,0,0-.86,2.49v6.22H33.94V84.24h1.75v1.81h0A4,4,0,0,1,39.31,84a3.33,3.33,0,0,1,2.74,1.16,5.1,5.1,0,0,1,1,3.34Z"/><path d="M57.35,95.05a3.39,3.39,0,0,1-1.64.34q-2.87,0-2.86-3.2V85.73H51V84.24h1.88V81.57L54.59,81v3.24h2.76v1.49H54.59v6.15A2.55,2.55,0,0,0,55,93.45a1.49,1.49,0,0,0,1.23.47,1.8,1.8,0,0,0,1.15-.37Z"/><path d="M67.5,95.15H65.75v-1.7h0a4,4,0,0,1-5.91,1.1,3,3,0,0,1-.92-2.3c0-2,1.2-3.22,3.6-3.56l3.28-.46c0-1.85-.75-2.78-2.25-2.78a5.39,5.39,0,0,0-3.56,1.34V85a6.78,6.78,0,0,1,3.71-1c2.56,0,3.85,1.36,3.85,4.07Zm-1.75-5.52L63.11,90a4.3,4.3,0,0,0-1.83.61,1.72,1.72,0,0,0-.62,1.53,1.66,1.66,0,0,0,.57,1.3,2.2,2.2,0,0,0,1.52.51A2.84,2.84,0,0,0,64.9,93a3.29,3.29,0,0,0,.85-2.31Z"/><path d="M72.58,93.58h0v1.57H70.79V79h1.75v7.17h0A4.14,4.14,0,0,1,76.36,84a4,4,0,0,1,3.29,1.47,6,6,0,0,1,1.18,3.93,6.75,6.75,0,0,1-1.33,4.38,4.43,4.43,0,0,1-3.64,1.65A3.6,3.6,0,0,1,72.58,93.58Zm0-4.41V90.7a3.24,3.24,0,0,0,.88,2.3,3.13,3.13,0,0,0,4.72-.28,5.57,5.57,0,0,0,.9-3.38,4.38,4.38,0,0,0-.84-2.85,2.78,2.78,0,0,0-2.28-1,3.08,3.08,0,0,0-2.45,1.06A3.9,3.9,0,0,0,72.54,89.17Z"/><path d="M92.4,90.13H84.7a4,4,0,0,0,1,2.82,3.37,3.37,0,0,0,2.58,1,5.37,5.37,0,0,0,3.39-1.22v1.65a6.39,6.39,0,0,1-3.81,1,4.65,4.65,0,0,1-3.64-1.49,6.08,6.08,0,0,1-1.32-4.18,6,6,0,0,1,1.45-4.16A4.63,4.63,0,0,1,87.92,84a4.09,4.09,0,0,1,3.31,1.39,5.76,5.76,0,0,1,1.17,3.84Zm-1.79-1.48a3.54,3.54,0,0,0-.73-2.36,2.48,2.48,0,0,0-2-.84,2.84,2.84,0,0,0-2.1.89,4,4,0,0,0-1.06,2.31Z"/><path d="M100.74,86a2.08,2.08,0,0,0-1.32-.36,2.24,2.24,0,0,0-1.87,1.06,4.88,4.88,0,0,0-.75,2.88v5.56H95.05V84.24H96.8v2.25h0A3.83,3.83,0,0,1,98,84.69,2.6,2.6,0,0,1,99.7,84a2.82,2.82,0,0,1,1,.15Z"/><path d="M117.94,95.15h-1.75V93.3h0a4,4,0,0,1-3.75,2.11,4.08,4.08,0,0,1-3.29-1.47,6,6,0,0,1-1.23-4,6.56,6.56,0,0,1,1.36-4.34A4.49,4.49,0,0,1,112.88,84a3.49,3.49,0,0,1,3.27,1.77h0V79h1.75Zm-1.75-4.93V88.61a3.13,3.13,0,0,0-.87-2.24,2.93,2.93,0,0,0-2.22-.92,3,3,0,0,0-2.52,1.17,5.19,5.19,0,0,0-.91,3.25,4.62,4.62,0,0,0,.88,3,2.88,2.88,0,0,0,2.36,1.09,3,3,0,0,0,2.37-1.06A3.91,3.91,0,0,0,116.19,90.22Z"/><path d="M130.31,95.15h-1.75V93.43h0a3.6,3.6,0,0,1-3.37,2q-3.9,0-3.9-4.65V84.24H123v6.24q0,3.47,2.64,3.46a2.73,2.73,0,0,0,2.11-.94,3.63,3.63,0,0,0,.82-2.47V84.24h1.75Z"/><path d="M148.6,90.13h-7.71a4.07,4.07,0,0,0,1,2.82,3.38,3.38,0,0,0,2.58,1,5.37,5.37,0,0,0,3.39-1.22v1.65a6.39,6.39,0,0,1-3.81,1,4.61,4.61,0,0,1-3.63-1.49,6.08,6.08,0,0,1-1.32-4.18,6,6,0,0,1,1.44-4.16,4.63,4.63,0,0,1,3.59-1.6,4.07,4.07,0,0,1,3.31,1.39,5.71,5.71,0,0,1,1.18,3.84Zm-1.79-1.48a3.6,3.6,0,0,0-.73-2.36,2.5,2.5,0,0,0-2-.84,2.81,2.81,0,0,0-2.1.89,4,4,0,0,0-1.07,2.31Z"/><path d="M156.94,86a2.13,2.13,0,0,0-1.33-.36,2.25,2.25,0,0,0-1.87,1.06,4.88,4.88,0,0,0-.75,2.88v5.56h-1.75V84.24H153v2.25h0a3.83,3.83,0,0,1,1.14-1.8,2.64,2.64,0,0,1,1.72-.65,2.88,2.88,0,0,1,1.05.15Z"/><path d="M159.44,95.39a1.16,1.16,0,0,1-.84-.35,1.18,1.18,0,0,1-.34-.85,1.15,1.15,0,0,1,.34-.84,1.21,1.21,0,0,1,2.05.84,1.21,1.21,0,0,1-1.21,1.2Z"/><path d="M164.18,95.39a1.15,1.15,0,0,1-.84-.35,1.19,1.19,0,0,1-.35-.85,1.16,1.16,0,0,1,.35-.84,1.12,1.12,0,0,1,.84-.36,1.21,1.21,0,0,1,1.2,1.2,1.2,1.2,0,0,1-1.2,1.2Z"/><path d="M168.91,95.39a1.15,1.15,0,0,1-.84-.35,1.18,1.18,0,0,1-.34-.85,1.15,1.15,0,0,1,.34-.84,1.12,1.12,0,0,1,.84-.36,1.23,1.23,0,0,1,1.21,1.2,1.16,1.16,0,0,1-.36.85A1.17,1.17,0,0,1,168.91,95.39Z"/></g></g><use class="cls-1" transform="translate(218.33 43.1) scale(0.22)" xlink:href="#image"/></svg>
