<svg id="Layer_1" data-name="Layer 1" xmlns="http://www.w3.org/2000/svg" viewBox="0 0 920 500"><defs><style>.cls-1{fill:#fff;stroke:#fff;stroke-miterlimit:10;stroke-width:3px;}</style></defs><title>next</title><rect x="0.7266" y="187.8323" width="705.5415" height="115.8125"/><path class="cls-1" d="M286.644,221.0651H279.37a2.3151,2.3151,0,0,1-1.6787-.586,1.86,1.86,0,0,1-.6055-1.3838,1.9566,1.9566,0,0,1,.6289-1.4531,2.3467,2.3467,0,0,1,1.7022-.6094h13.3828a2.2349,2.2349,0,0,1,1.165.2578,1.9137,1.9137,0,0,1,.6992.8672l22.6612,44.6787V221.0651h-6.9473a2.3153,2.3153,0,0,1-1.6787-.586,1.86,1.86,0,0,1-.6055-1.3838,1.9529,1.9529,0,0,1,.6289-1.4531,2.4148,2.4148,0,0,1,1.7491-.6094H326.184a2.3483,2.3483,0,0,1,1.7022.6094,1.9539,1.9539,0,0,1,.63,1.4531,1.8966,1.8966,0,0,1-.583,1.3838,2.2327,2.2327,0,0,1-1.6553.586h-4.4766v48.663a3.27,3.27,0,0,1-.6523,2.2032,2.0754,2.0754,0,0,1-1.6318.75,2.67,2.67,0,0,1-1.4688-.4688,3.2386,3.2386,0,0,1-1.1426-1.3125l-25.7851-49.7881V267.899h6.4345a2.2625,2.2625,0,0,1,1.6787.61,1.9385,1.9385,0,0,1,.6055,1.4062,1.9147,1.9147,0,0,1-.6055,1.43,2.3824,2.3824,0,0,1-1.7255.586H280.8159a2.3812,2.3812,0,0,1-1.7256-.586,1.9124,1.9124,0,0,1-.6065-1.43,1.936,1.936,0,0,1,.6065-1.4062,2.26,2.26,0,0,1,1.6787-.61h5.875Z"/><path class="cls-1" d="M370.2006,235.4108V251.444a2.7008,2.7008,0,0,1-.5126,1.7812,1.584,1.584,0,0,1-1.2588.6094,1.7651,1.7651,0,0,1-1.2588-.5391,2.1011,2.1011,0,0,1-.6065-1.4765l-.6064-6.9385h-15.2v23.0654h28.6758l.7461-11.7666a1.7908,1.7908,0,0,1,.6533-1.3125,2.0923,2.0923,0,0,1,1.3984-.5166,1.8157,1.8157,0,0,1,1.376.6338,2.5724,2.5724,0,0,1,.582,1.8047v12.6582a2.3454,2.3454,0,0,1-.7226,1.8281,2.7014,2.7014,0,0,1-1.8877.6563H338.4008a2.4106,2.4106,0,0,1-1.749-.6094,1.9051,1.9051,0,0,1-.6289-1.4063,1.8319,1.8319,0,0,1,.6289-1.3828,2.3989,2.3989,0,0,1,1.7022-.5869h7.9267V221.0651h-6.2949a2.2327,2.2327,0,0,1-1.6553-.586,1.8966,1.8966,0,0,1-.583-1.3838,1.9539,1.9539,0,0,1,.63-1.4531,2.3467,2.3467,0,0,1,1.7022-.6094H381.019a2.6494,2.6494,0,0,1,1.8877.68,2.42,2.42,0,0,1,.7227,1.8516v12.6582a2.0191,2.0191,0,0,1-.56,1.5244,1.8213,1.8213,0,0,1-1.3047.5391,2.06,2.06,0,0,1-1.3291-.4688,1.7191,1.7191,0,0,1-.63-1.3135l-.6523-11.4384H350.7573v20.206h15.2l.6064-6.2353a2.5074,2.5074,0,0,1,.63-1.5479,1.6583,1.6583,0,0,1,1.2354-.5625,1.5655,1.5655,0,0,1,1.2588.6328A2.8911,2.8911,0,0,1,370.2006,235.4108Z"/><path class="cls-1" d="M426.5278,217.0328h13.4756q1.8647,0,1.8652,2.0625,0,1.97-1.8183,1.97h-3.4034L420.979,244.318l15.9,23.7685h3.4043a1.6335,1.6335,0,0,1,1.8183,1.876,1.7157,1.7157,0,0,1-1.9121,1.9688H424.7094a2.44,2.44,0,0,1-1.7246-.5625,1.7872,1.7872,0,0,1-.6064-1.3594,1.8112,1.8112,0,0,1,.6064-1.3359,2.3121,2.3121,0,0,1,1.6787-.587h7.2735l-13.4756-20.0644-13.5225,20.0644h6.9483q1.8179,0,1.8183,1.9229a1.6743,1.6743,0,0,1-1.8652,1.9219H395.6137a1.6743,1.6743,0,0,1-1.8652-1.9219q0-1.922,1.8184-1.9229h3.9638L415.7573,243.99l-15.3408-22.9248h-3.8233q-1.8194,0-1.8183-1.97,0-2.0625,1.8652-2.0625h15.667q1.8633,0,1.8642,2.0625,0,1.97-1.8183,1.97h-6.9l12.8223,19.1738,12.916-19.1738h-4.709q-1.8193,0-1.8184-1.97Q424.6635,217.0328,426.5278,217.0328Z"/><path class="cls-1" d="M457.1626,221.0651l-.56,12.705a2.23,2.23,0,0,1-.6065,1.57,1.8232,1.8232,0,0,1-1.3056.5391,2.2147,2.2147,0,0,1-1.585-.68,2.4608,2.4608,0,0,1-.6992-1.8525V219.5641a3.3032,3.3032,0,0,1,.4424-1.9219,1.7507,1.7507,0,0,1,1.5156-.6094h42.7109a1.6153,1.6153,0,0,1,1.4229.6328,3.324,3.324,0,0,1,.4424,1.8985v13.7832a2.4527,2.4527,0,0,1-.6289,1.8056,2.11,2.11,0,0,1-2.9151.0938,2.0137,2.0137,0,0,1-.6523-1.4766l-.4658-12.705H477.8657V267.899h11.2832a2.3153,2.3153,0,0,1,1.6787.587,1.86,1.86,0,0,1,.6064,1.3828,1.9524,1.9524,0,0,1-.63,1.4531,2.4069,2.4069,0,0,1-1.7481.6094H462.1987a2.4957,2.4957,0,0,1-1.7725-.6094,1.9193,1.9193,0,0,1-.6523-1.4531,1.8312,1.8312,0,0,1,.6289-1.3828,2.3984,2.3984,0,0,1,1.7021-.587h11.2842V221.0651Z"/><path d="M919.26,251.9787,531.1816,1.1847l-62.28,97.4238L705.65,251.2792h0Z"/><path d="M919.2734,251.76,527.167,496.138,466.48,397.703l239.201-148.7565h0Z"/></svg>
