<svg id="Layer_1" data-name="Layer 1" xmlns="http://www.w3.org/2000/svg" viewBox="0 0 200 280"><defs><style>.cls-1{fill:#fff08a;}</style></defs><title>nymappee</title><path d="M194.3482,180.8469c.0919-10.92.72-18.3451,1.384-26.2064.6177-7.306,1.2565-14.8605,1.43-25.4656A245.4576,245.4576,0,0,0,195.7874,98.22c-.5046-5.3994-1.0259-10.9828-1.4414-18.4924a415.2915,415.2915,0,0,1,2.8048-74.72l.2517-1.9953L185.07,5.6653,5.704,25.6549,6.02,28.4887l.0987-.011C7.473,42.9126,8.7326,57.4636,9.8585,71.78c2.5829,32.8438,3.9956,58.2084,5.1307,78.5893.8114,14.5709,1.5605,29.3089,2.2266,43.8274a124.0406,124.0406,0,0,0-11.983,3.5183c-.2359.0818-.4712.1654-.7059.2489l-.523.1866-.2587.4912a10.3151,10.3151,0,0,0-.7391,1.7845c-.77,2.5124-.31,4.5252.2217,6.856a35.1774,35.1774,0,0,1,.9357,5.75c.0289.4139.0543,1.0783.0752,1.9744.03,1.2777.0161,2.5269-.0084,4.7948-.0226,2.1047-.0546,5.076-.07,9.7449-.0218,6.4434.0116,9.06.0314,10.6238.0187,1.447.0262,2.0462-.0309,4.0418-.029,1.0153-.0607,1.9047-.09,2.71a52.41,52.41,0,0,0,.0958,7.6942,48.7678,48.7678,0,0,0,2.2167,10.5358l.4653,1.4158,36.6176-13.8551c-.3048,7.4257-.6164,14.8261-.9314,22.099l-.0941,2.1755,2.0317-.7831a580.8264,580.8264,0,0,1,65.2727-20.9167c3.7872-.9647,7.48-1.8614,11.051-2.728a388.8578,388.8578,0,0,0,39.6575-11.286,360.623,360.623,0,0,0,35.893-14.6722l.9435-.4473-.1414-1.0348A308.7753,308.7753,0,0,1,194.3482,180.8469Z"/><path class="cls-1" d="M8.6494,262.838a45.8449,45.8449,0,0,1-1.6447-8.4951,49.58,49.58,0,0,1-.0841-7.3189c.029-.8115.061-1.7076.09-2.7307.0587-2.054.0509-2.6706.032-4.16-.02-1.5545-.0532-4.1571-.0315-10.5771.0156-4.6594.0476-7.624.07-9.7243.0248-2.2991.0384-3.5656.0081-4.8916-.0223-.9541-.049-1.6442-.0819-2.1092a38.1192,38.1192,0,0,0-1-6.1838c-.4951-2.1688-.8223-3.6012-.2754-5.3857a7.3912,7.3912,0,0,1,.301-.8059c.046-.0162.0922-.0323.1384-.0479a121.0264,121.0264,0,0,1,12.8407-3.7037l1.16-.2662-.0546-1.1886c-.68-14.91-1.4475-30.0626-2.2818-45.0387-1.1356-20.3952-2.55-45.7778-5.1351-78.6539-1.1283-14.3474-2.39-28.93-3.7483-43.3951l148.435-16.5424-134.5,28.9291.0869,1.234c5.0131,71.2481,6.83,114.3484,5.4007,128.1031a129.1253,129.1253,0,0,0-.4695,13.11c-.0056,3.23-.0111,6.57-.21,9.8251q-.0743,1.2089-.1509,2.3782c-.587,9.1038-1.0109,15.6814,3.0281,17.4419,1.1908.5191,2.054.3448,8.4383-1.1729,2.2284-.53,4.2769-1.0254,6.1159-1.4754-.3977,10.8215-.8154,21.7188-1.2431,32.4189q-.144,3.6015-.2912,7.2049Z"/><path class="cls-1" d="M194.1834,223.3281A358.0232,358.0232,0,0,1,159.5178,237.44a386.409,386.409,0,0,1-39.3941,11.208c-3.5789.8689-7.2793,1.7672-11.0827,2.7357a582.4679,582.4679,0,0,0-63.5634,20.2407c.4289-9.9477.85-20.1092,1.2559-30.2395.4528-11.3256.8945-22.8711,1.3122-34.3164l.0691-1.8892-1.8357.4534c-2.27.56-4.9352,1.2091-7.9271,1.92-3.9042.929-6.3013,1.481-6.6394,1.3334-2.2044-.9608-1.7555-7.9171-1.3216-14.6439.05-.7819.1019-1.5789.1509-2.3882.2039-3.3389.21-6.7223.2156-9.9938a127.0458,127.0458,0,0,1,.4539-12.82c1.438-13.838-.347-56.69-5.3055-127.3638L185.5314,7.3422l8.4385-.94a417.049,417.049,0,0,0-2.471,72.3428c.4182,7.5634.9657,13.4269,1.4491,18.6a242.9976,242.9976,0,0,1,1.3623,30.6428c-.1715,10.5082-.8059,18.0139-1.42,25.272-.6394,7.5684-1.301,15.3947-1.3941,26.4222A311.7927,311.7927,0,0,0,194.1834,223.3281Z"/><path d="M76.515,154.7292l-5.7106-27.8556,1.9538-.4,7.3312,13.1828c1.6974,3.0543,3.1011,5.8235,4.3438,8.54l.0328-.0488c-.9272-3.6862-1.6632-7.0675-2.5527-11.4062l-2.3894-11.6551L81.21,124.74l5.7106,27.8556-1.81.3711-7.2984-13.2317c-1.6023-2.903-3.18-5.8952-4.4977-8.7686l-.053.0542c.8231,3.4922,1.55,6.8307,2.4992,11.4592l2.44,11.9034Z"/><path d="M92.9857,151.3526l-2.4233-11.82L82.8949,124.395l2.0357-.4173,3.53,7.2863c.9667,1.9987,1.7253,3.608,2.5557,5.4625l.041-.0084c.0179-1.8985.1182-3.8138.2206-6.0316l.419-8.0959,2.036-.4174L92.3635,139.12l2.4318,11.8617Z"/><path d="M114.5562,134.1828c-.8993-3.8639-1.98-8.5088-2.6712-11.9847l-.0615.0126c.1963,3.3621.3321,6.9518.4209,10.9386l.3236,14.0167-1.3575.2783-4.9611-12.8073c-1.4628-3.7905-2.7554-7.2731-3.8242-10.5l-.0411.0085c.6707,3.48,1.5253,8.1713,2.2574,12.37l2.0788,12.0208-1.7071.35-4.744-28.0538,2.2827-.4679,5.1271,12.9874c1.2791,3.3133,2.3791,6.2747,3.3216,9.0951l.0618-.0127c-.2265-2.8818-.36-6.04-.4633-9.6811l-.2942-13.9782,2.2827-.4679,6.5743,27.6785-1.7481.3583Z"/><path d="M122.155,136.2426l.3566,9.0569-1.851.38L119.66,116.8579l2.1589-.4425L132.26,143.3012l-1.9131.3922-3.2766-8.4583Zm3.9681-3.7417-3.0007-7.74c-.6813-1.7552-1.2257-3.3651-1.7618-4.9347l-.0407.0084c.133,1.6942.2541,3.4355.3336,5.1841l.2954,8.338Z"/><path d="M128.65,115.36a10.8493,10.8493,0,0,1,3.3239-1.2421,4.29,4.29,0,0,1,4.3613,1.5168,12.3068,12.3068,0,0,1,2.4082,5.5794,14.1291,14.1291,0,0,1,.15,6.17,4.7828,4.7828,0,0,1-3.609,3.9281,3.2716,3.2716,0,0,1-1.49.0469l2.2876,11.1586-1.789.3668Zm4.5425,13.0652a3.241,3.241,0,0,0,1.54-.0151c2.1588-.4426,3.0434-2.8207,2.2555-6.6642-.7541-3.6783-2.4145-5.1894-4.3884-4.7848a4.03,4.03,0,0,0-1.6275.6344Z"/><path d="M139.59,113.1175a10.8465,10.8465,0,0,1,3.324-1.2421,4.2878,4.2878,0,0,1,4.3607,1.5169,12.2982,12.2982,0,0,1,2.4087,5.5793,14.1386,14.1386,0,0,1,.15,6.17,4.7842,4.7842,0,0,1-3.609,3.9281,3.2709,3.2709,0,0,1-1.4906.0469l2.2876,11.1586-1.7889.3667Zm4.5426,13.0651a3.2379,3.2379,0,0,0,1.54-.015c2.1589-.4426,3.0429-2.8206,2.2549-6.6641-.7541-3.6783-2.4138-5.19-4.3883-4.7848a4.0241,4.0241,0,0,0-1.6269.6343Z"/><path d="M160.6706,123.8676l-5.3875,1.1045,2.059,10.0434,6.0044-1.231.6185,3.0168-7.794,1.5978L150.46,110.5436l7.4855-1.5346.6185,3.0168-5.696,1.1677,1.8047,8.8034,5.3875-1.1045Z"/></svg>
