<svg id="Layer_1" data-name="Layer 1" xmlns="http://www.w3.org/2000/svg" viewBox="0 0 290 380"><defs><style>.cls-1{fill:gray;opacity:0.7;}.cls-2{fill:#fff08a;}.cls-3{fill:#fff;}.cls-4{stroke:#000;stroke-miterlimit:10;}</style></defs><title>næstennæstenmappe</title><ellipse class="cls-1" cx="145" cy="348.5" rx="143.0536" ry="27.5"/><path d="M224.3586,177.5529c.09-10.6569.7022-17.9034,1.3507-25.5755.6028-7.13,1.2262-14.5027,1.3952-24.8525a239.5473,239.5473,0,0,0-1.3414-30.21c-.4925-5.2694-1.0012-10.7183-1.4067-18.0472a405.2913,405.2913,0,0,1,2.7373-72.9208L227.3394,4,215.3037,6.5887,40.2558,26.0971l.3082,2.7655.0963-.0107c1.3219,14.0874,2.5512,28.2881,3.65,42.26,2.5206,32.0531,3.8993,56.807,5.0071,76.6973.7919,14.22,1.523,28.6033,2.173,42.7723a121.0549,121.0549,0,0,0-11.6945,3.4335q-.3453.12-.6889.243l-.51.182-.2525.48a10.0553,10.0553,0,0,0-.7213,1.7415c-.7514,2.4519-.303,4.4162.2164,6.6909a34.3348,34.3348,0,0,1,.9131,5.6115c.0283.4039.053,1.0523.0734,1.9269.0288,1.2469.0157,2.466-.0082,4.6793-.022,2.0541-.0532,4.9539-.0687,9.51-.0212,6.2883.0114,8.8424.0307,10.3681.0182,1.4121.0255,1.9969-.03,3.9444-.0283.9909-.0592,1.859-.0875,2.6449a51.13,51.13,0,0,0,.0935,7.509,47.5941,47.5941,0,0,0,2.1633,10.2822l.4541,1.3816,35.7361-13.5215c-.2975,7.2469-.6016,14.4691-.909,21.567l-.0919,2.1231,1.9828-.7642a566.8381,566.8381,0,0,1,63.7013-20.4132c3.6961-.9414,7.3-1.8165,10.7849-2.6623A379.475,379.475,0,0,0,191.28,236.5248a351.9465,351.9465,0,0,0,35.029-14.319l.9208-.4365-.1381-1.01A301.3334,301.3334,0,0,1,224.3586,177.5529Z"/><path class="cls-2" d="M43.13,257.57a44.74,44.74,0,0,1-1.605-8.2907,48.373,48.373,0,0,1-.0821-7.1426c.0283-.792.0595-1.6665.0881-2.665.0573-2.0046.05-2.6063.0312-4.06-.02-1.517-.0519-4.057-.0307-10.3224.0152-4.5472.0465-7.44.0685-9.49.0242-2.2437.0375-3.48.0079-4.7739-.0218-.9311-.0479-1.6045-.08-2.0584a37.2031,37.2031,0,0,0-.976-6.0349c-.4832-2.1165-.8025-3.5145-.2687-5.256a7.18,7.18,0,0,1,.2937-.7865c.0449-.0158.09-.0316.1351-.0468a118.0972,118.0972,0,0,1,12.5316-3.6145l1.1322-.26-.0533-1.16c-.6636-14.55-1.4126-29.3389-2.2269-43.9544-1.1082-19.9042-2.4883-44.6757-5.0114-76.76-1.1011-14.0019-2.333-28.2334-3.6581-42.35L188.288,12.3994,57.0259,40.6322l.0848,1.2042c4.8924,69.5329,6.6655,111.5955,5.2707,125.0191a126.0517,126.0517,0,0,0-.4582,12.7944c-.0054,3.1525-.0108,6.4121-.2049,9.5886q-.0724,1.18-.1473,2.3209c-.5729,8.8847-.9865,15.3039,2.9553,17.022,1.162.5066,2.0045.3365,8.2351-1.1447,2.1747-.5174,4.1739-1.0006,5.9686-1.44-.388,10.561-.7957,21.1959-1.2131,31.6384q-.1406,3.5148-.2842,7.0315Z"/><path class="cls-2" d="M224.1977,219.0114a349.3792,349.3792,0,0,1-33.831,13.7717,377.1218,377.1218,0,0,1-38.4457,10.9382c-3.4928.8479-7.1041,1.7247-10.8159,2.67a568.4252,568.4252,0,0,0-62.0332,19.7533c.4186-9.7082.83-19.6251,1.2257-29.5115.4419-11.0529.8729-22.3205,1.2806-33.49l.0674-1.8437-1.7915.4424c-2.2155.5468-4.8163,1.18-7.7362,1.8741-3.81.9067-6.15,1.4453-6.48,1.3013-2.1513-.9376-1.7132-7.7264-1.29-14.2913.0489-.7631.0995-1.541.1473-2.3307.199-3.2585.2049-6.5605.21-9.7533a123.9524,123.9524,0,0,1,.443-12.5117c1.4034-13.5048-.3387-55.3251-5.1778-124.2976L215.7541,8.2253l8.2353-.9178a407.0156,407.0156,0,0,0-2.4116,70.6012c.4082,7.3813.9425,13.1036,1.4143,18.1523a237.172,237.172,0,0,1,1.3295,29.9051c-.1674,10.2552-.7865,17.58-1.3855,24.6636-.624,7.3862-1.27,15.024-1.36,25.7861A304.2894,304.2894,0,0,0,224.1977,219.0114Z"/><path d="M112.0411,139.4587a25.0263,25.0263,0,0,0,16.9509,2.7388c.948-.1749.5465-1.6208-.3987-1.4464a23.3329,23.3329,0,0,1-15.7951-2.5876c-.8455-.4674-1.603.8276-.7571,1.2952Z"/><path d="M189.0158,122.7314a23.1273,23.1273,0,0,1-17.7317,8.8741.75.75,0,0,0,0,1.5,24.58,24.58,0,0,0,18.7924-9.3134c.5963-.7472-.4584-1.8153-1.0607-1.0607Z"/><path d="M150.927,128.9605c.4172,3.72,2.8112,6.5992,3.9378,10.1356.8336,2.617,1.4575,5.1611.3755,7.7442-.7775,1.856-1.9833,2.89-3.1156,4.4883-.8385,1.1838,1.1117,2.309,1.9429,1.1356,2.3909-3.3753,4.4615-4.3721,4.05-8.91a24.9425,24.9425,0,0,0-1.5529-6.4134c-1.0084-2.6938-3.0653-5.308-3.3874-8.18-.16-1.4229-2.4114-1.4391-2.25,0Z"/><path d="M172.3423,64.7634a30.8423,30.8423,0,0,1,17.7106,9.1581c.6725.6949,1.7325-.3664,1.0606-1.0607a32.1665,32.1665,0,0,0-18.3724-9.5438c-.9444-.1471-1.3512,1.298-.3988,1.4464Z"/><path d="M120.6889,72.8029a31.92,31.92,0,0,0-15.0857,14.176c-.4534.8518.8409,1.61,1.2952.7571a30.6151,30.6151,0,0,1,14.5475-13.6379c.8779-.3982.1162-1.6913-.757-1.2952Z"/><path d="M101.3838,198.9466l-5.1872-23.5817,1.487-.3271,6.0059,11.1868c1.3909,2.5919,2.5478,4.9416,3.58,7.2455l.0234-.0415c-.8178-3.1216-1.48-5.9834-2.2884-9.6574l-2.17-9.8663,1.2841-.2825,5.1871,23.5817-1.3776.303-5.9826-11.2288c-1.3129-2.4625-2.61-5.0012-3.7042-7.4386l-.04.0456c.7324,2.9565,1.3873,5.7836,2.2493,9.7024l2.2165,10.0765Z"/><path d="M111.5107,196.8655l.2937-3.2923a24.3817,24.3817,0,0,1-3.31-8.4056c-1.6392-7.4521-.5958-12.78,2.16-13.3867a3.3111,3.3111,0,0,1,3.0377,1.2762l.3-3.0371,1.1071,1.0767-.3091,3.2225a24.5129,24.5129,0,0,1,3.271,8.3772c1.8086,8.2223.4542,12.8855-2.0663,13.44a3.3851,3.3851,0,0,1-3.0932-1.3009l-.3242,3.2264Zm2.0012-21.4211c-.7554-.8975-1.5513-1.3828-2.3342-1.2106-2.3013.5062-2.4132,5.5195-1.3281,10.4524a24.547,24.547,0,0,0,2.1754,6.1609l.008-.0386Zm-.4286,17.0036c.7552.9713,1.4965,1.4318,2.3419,1.2458,2.2073-.4855,2.436-5.2678,1.2663-10.5858a23.9594,23.9594,0,0,0-2.0829-5.961l-.0468.01Z"/><path d="M130.27,191.4922a5.5588,5.5588,0,0,1-2.9561,2.0075c-1.5967.3512-3.1119-.269-4.63-2.2463a22.7916,22.7916,0,0,1-3.4034-8.4582c-1.5316-7.0357-.5024-12.654,3.0363-13.4324a3.7845,3.7845,0,0,1,2.8683.506l.2179,2.5563a3.2212,3.2212,0,0,0-2.556-.5014c-2.5677.5648-3.4577,4.5022-2.1571,10.415,1.316,5.9826,3.7058,9.1617,6.1637,8.621a2.46,2.46,0,0,0,1.6779-1.0289l-1.547-7.0329-2.1452.4719-.5387-2.4489,3.4757-.7645Z"/><path d="M135.6135,179.826l-4.1019.9023,1.87,8.5024,4.5717-1.0056.5617,2.5539-5.9335,1.3052-5.1871-23.5817,5.6987-1.2535.5617,2.5539-4.3368.954,1.6394,7.4526,4.1019-.9022Z"/><path d="M140.2829,190.39l-5.1871-23.5817,1.487-.3271,6.0059,11.1868c1.3909,2.5919,2.5478,4.9416,3.58,7.2455l.0234-.0415c-.8178-3.1217-1.48-5.9834-2.2885-9.6574l-2.17-9.8664,1.2841-.2824,5.1871,23.5817-1.3776.303-5.9827-11.2288c-1.3128-2.4625-2.61-5.0012-3.7041-7.4386l-.04.0456c.7324,2.9565,1.3873,5.7835,2.2493,9.7024l2.2165,10.0765Z"/><path d="M145.4651,164.8576a6.3962,6.3962,0,0,1,2.3812-1.0372,3.0624,3.0624,0,0,1,3.2737,1.0772,8.4255,8.4255,0,0,1,1.7923,3.971c.5,2.2739.2658,4.4163-.6459,5.57l.0155.07c1.125.3392,2.7073,1.9355,3.4768,5.4341a11.4771,11.4771,0,0,1,.1468,4.9195,3.7935,3.7935,0,0,1-3.163,3.0069,7.5019,7.5019,0,0,1-2.1749.1848Zm3.486,9.3571,1.2368-.2721c1.44-.3168,1.9163-2.1819,1.416-4.4563-.608-2.7641-1.786-3.6418-3.1636-3.3388a2.8229,2.8229,0,0,0-1.1593.4748Zm2.4858,11.3012a3.4215,3.4215,0,0,0,1.1736-.1117c1.4091-.31,2.4546-1.75,1.7-5.1792-.708-3.2186-2.2373-4.2763-3.7247-3.9491l-1.1271.2479Z"/><path d="M155.2419,162.3771l5.1871,23.5817-1.3619.2995L153.88,162.6767Z"/><path d="M157.6211,161.8538l1.3619-.3,4.6253,21.0277,4.5087-.9917.5617,2.5539-5.87,1.2913Z"/><path d="M165.0092,160.2286l1.3619-.2995,4.6253,21.0277,4.5087-.9917.5618,2.5539-5.8706,1.2913Z"/><path d="M180.6163,169.927l-4.102.9023,1.87,8.5024,4.5716-1.0056.5618,2.5539-5.9336,1.3052-5.1871-23.5817,5.6987-1.2535.5618,2.5539-4.3368.954,1.6393,7.4526,4.1019-.9022Z"/><path d="M180.1678,157.2242a9.3009,9.3009,0,0,1,2.7884-1.1267,4.6421,4.6421,0,0,1,4.9208,1.9989c1.3622,1.7174,2.51,4.3263,3.3493,8.14a23.5245,23.5245,0,0,1,.498,9.501c-.5015,2.421-1.868,3.9691-3.9192,4.42a10.2644,10.2644,0,0,1-2.5348.264Zm5.9488,20.5532a4.0526,4.0526,0,0,0,1.4161-.128c2.9119-.6406,3.693-4.6273,2.2923-10.995-1.2079-5.5663-3.3943-8.79-6.2752-8.1565a3.7651,3.7651,0,0,0-1.5275.666Z"/><path d="M198.7426,165.94l-4.1019.9022,1.87,8.5024,4.5717-1.0056.5618,2.554-5.9336,1.3051-5.1871-23.5816,5.6987-1.2535.5618,2.5539-4.3368.9539,1.6393,7.4527,4.1019-.9023Z"/><path d="M198.2942,153.2371a6.8439,6.8439,0,0,1,2.5068-1.0648,3.1639,3.1639,0,0,1,3.476,1.253,10.6743,10.6743,0,0,1,1.8147,4.296c.6849,3.1135.2625,5.37-.6645,6.4551l.023.1046c.953.4508,1.8074,2.0238,2.5967,4.4175,1.0676,3.2133,1.8185,5.4326,2.2377,6.2938l-1.4087.31c-.3185-.6267-1-2.6047-1.9437-5.4783-1.0288-3.1848-1.862-4.2855-3.1218-4.118l-1.2836.2823,2.2472,10.2163-1.3619.2995Zm3.7245,10.4415,1.3934-.3065c1.456-.32,1.9872-2.3077,1.3946-5.0019-.6695-3.0436-1.9482-4.1564-3.3965-3.8742a2.7668,2.7668,0,0,0-1.2847.5757Z"/><path class="cls-3" d="M117.3793,131.8613a8.9673,8.9673,0,0,1-5.5771-1.6552c-5.7413-4.3936-2.961-16.1387-1.5-20.9844.0605-.1992,6.1152-19.9151,15.6572-19.9151q.2709,0,.5459.0215c8.0176.626,13.8125,10.4727,12.917,21.95-.7989,10.25-8.9053,17.6748-16.5,19.7129A21.4124,21.4124,0,0,1,117.3793,131.8613Z"/><path d="M125.96,88.307v2c.1547,0,.31.0061.4672.0183,7.4678.5825,12.85,9.9472,11.9976,20.8753-.7632,9.7867-8.5073,16.8781-15.7622,18.8249a20.5245,20.5245,0,0,1-5.2837.8356,7.9935,7.9935,0,0,1-4.9692-1.45c-3.6387-2.7842-4.0689-10.2237-1.15-19.9015,1.6113-5.3408,7.393-19.2021,14.7-19.2031l.001-2m-.0015,0c-10.22.0013-16.3237,19.6641-16.6138,20.6255-.749,2.4836-5.0615,16.7794,1.85,22.0675a9.9984,9.9984,0,0,0,6.1846,1.8611,22.4281,22.4281,0,0,0,5.8018-.9039c8.4472-2.2666,16.4423-10.3956,17.2382-20.6011.94-12.0469-5.2548-22.3554-13.8359-23.0247-.21-.0163-.4175-.0244-.6245-.0244Z"/><ellipse class="cls-4" cx="124.8586" cy="111.7263" rx="7.7922" ry="5.8441" transform="translate(3.7621 227.5195) rotate(-85.5404)"/><path class="cls-3" d="M172.62,122.9805a15.383,15.383,0,0,1-3.0361-.294c-9.0684-1.83-14.4307-12.47-14.1973-21.2783.2989-11.2969,6.9659-20.4883,14.86-20.4883l.2734.0039c7.6992.2041,11.9541,14.4834,13.9991,21.3457l.0673.2256c1.5967,5.3535,2.9756,9.9776.7334,14.02-2.1767,3.9278-7.1621,6.4659-12.6992,6.4659Z"/><path d="M170.2455,81.92c.082,0,.1651.0011.2471.0033,6.9756.185,11.2451,14.5141,13.0683,20.6329l.0669.2239c1.77,5.9374,2.7564,9.7538.8179,13.25-2.2788,4.11-7.582,5.95-11.8271,5.95a14.3883,14.3883,0,0,1-2.8379-.2735c-3.8711-.7814-7.3824-3.4432-9.8867-7.495a23.7558,23.7558,0,0,1-3.5079-12.7762c.2852-10.7606,6.5025-19.515,13.8594-19.515m0-2c-8.4722,0-15.5425,9.5229-15.8589,21.462-.2451,9.2408,5.395,20.3462,14.9986,22.2847a16.396,16.396,0,0,0,3.2334.313c5.2744,0,11.01-2.3518,13.5761-6.98,2.396-4.3213,1.0933-8.942-.65-14.7911-2.1074-7.07-6.4848-22.0589-14.9985-22.2847-.1-.0027-.2007-.004-.3-.004Z"/><ellipse class="cls-4" cx="168.9037" cy="104.4409" rx="7.7922" ry="5.8443" transform="translate(60.0296 270.5215) rotate(-88.4836)"/><path d="M146.6122,344.171c-.63-22.7043,1.0624-36.5212,5.1746-42.2393l.1064-.1466a12.0343,12.0343,0,0,0,2.6058-7.3,11.2844,11.2844,0,0,0-2.416-6.2586l-.089-.1212c-4.01-5.4769-5.3935-19.3657-4.2291-42.4589l3.1624.16c-1.3833,27.4373,1.2052,37.13,3.6212,40.4293l.0773.1052a14.3155,14.3155,0,0,1,3.038,8.04,15.0389,15.0389,0,0,1-3.2118,9.2694l-.0946.13c-3.641,5.0632-5.182,18.623-4.58,40.3032Z"/><path d="M170.2757,353.857c-.2763,1.0519-2.1864,1.2677-3.8549,1.4562-4.829.5456-7.5259-1.19-11.1576-2.2249-8.0254-2.2869-12.13,1.2667-13.2822-1.5271-1.0672-2.5876,1.41-8.1651,4.7662-10.02,1.529-.8453,3.2852-.9429,10.0954,2.5738C161.9234,346.7384,170.9248,351.3866,170.2757,353.857Z"/><path d="M164.623,357a20.2353,20.2353,0,0,1-7.2585-1.5466c-.8181-.2924-1.6635-.5942-2.5354-.8428a20.625,20.625,0,0,0-8.7562-.5052c-2.1272.2486-4.5364.5306-5.5554-1.94-1.4106-3.42,1.5-9.8179,5.4633-12.0094,2.1754-1.2028,4.4628-1.1261,11.5883,2.5526,10.3047,5.3211,15.0637,8.4062,14.2375,11.5513-.5522,2.1006-3.1339,2.3925-5.2086,2.6268A17.562,17.562,0,0,1,164.623,357Zm-15.1051-6.3087a22.2962,22.2962,0,0,1,6.1794.8744c.9709.2771,1.8663.5968,2.732.9059a15.6266,15.6266,0,0,0,7.8132,1.2683,14.3623,14.3623,0,0,0,2.3424-.3933c-1.2949-2.0561-9.63-6.3593-12.4683-7.8249-6.8726-3.5488-7.8744-2.9979-8.6041-2.5959-2.826,1.5632-4.7429,6.3952-4.0677,8.0321a.4848.4848,0,0,0,.0594.1137,8.46,8.46,0,0,0,2.2008-.1107A31.3758,31.3758,0,0,1,149.5179,350.6913Z"/><path d="M28.7312,176.2952l-.34-1.7037a16.5324,16.5324,0,0,0,7.0785-3.0994,13.8246,13.8246,0,0,0,2.0513-2.0241,25.7854,25.7854,0,0,0,4.0684-6.8007c.428-.9506.8322-1.8483,1.3347-2.7724a27.7512,27.7512,0,0,1,6.8114-7.7979,30.9343,30.9343,0,0,1,13.7756-5.7251l.3021,1.7112a29.2256,29.2256,0,0,0-13.012,5.3864,26.3487,26.3487,0,0,0-6.35,7.2552c-.4716.8671-.8627,1.7359-1.2769,2.656a27.61,27.61,0,0,1-4.3279,7.2117,15.4661,15.4661,0,0,1-2.3013,2.2651A18.2465,18.2465,0,0,1,28.7312,176.2952Z"/><path class="cls-3" d="M27.3964,173.6711a18.0837,18.0837,0,0,0-3.5141-2.4364c-2.12-1.1122-4.4759-2.348-5.5242-1.6014-.7335.5224-1.153,3.2192-.9064,2.4027h0a20.2823,20.2823,0,0,0,2.5105,1.2949,16.18,16.18,0,0,0,3.1138.7325,27.5086,27.5086,0,0,0-5.9617.71,4.3816,4.3816,0,0,0-2.3789,1.352c-.5272.66-.9089,1.7038-.4875,2.0988.3142.2947.8617.0282,2.6291-.287,1.1336-.2022.7033-.056,3.3325-.4234a17.4828,17.4828,0,0,1,3.0981-.378c.0688.2261-5.058.7757-6.7179,3.7521-.1529.2741-.77,1.3806-.2531,2.0534.4883.6355,1.7618.5888,2.5448.3974,1.0305-.252,1.3235-.782,2.7478-1.8689,1.4623-1.116,2.664-2.033,3.2668-1.7469.9285.4408-.6,3.2454.7663,4.3054a2.2929,2.2929,0,0,0,2.6792-.0741c.35-.3813.12-.7868-.0315-2.2208a9.6368,9.6368,0,0,1,.0872-3.8028c.3511-1.2364.8322-1.3775.7219-2.1442C29.0394,175.2321,28.707,174.7452,27.3964,173.6711Z"/><path d="M26.9791,185.286a3.0543,3.0543,0,0,1-1.8495-.5712c-1.14-.8848-.9706-2.3642-.8469-3.4445.0215-.1877.0494-.431.0606-.63a17.8234,17.8234,0,0,0-2.1862,1.52c-.4236.3234-.74.5922-1.0182.8295a4.55,4.55,0,0,1-2.0509,1.1936c-1.1243.2742-2.6989.2528-3.44-.712-.3948-.5142-.6837-1.453.1833-3.0064a5.842,5.842,0,0,1,1.51-1.7251c-.0884.0143-.19.0316-.3114.053-.5052.09-.9084.1765-1.2338.2457-.9566.2036-1.5884.3394-2.1421-.18-.9288-.8706-.2678-2.4355.4032-3.2748a5.2358,5.2358,0,0,1,2.8213-1.646c.5325-.15,1.0545-.2675,1.5556-.3591-.3689-.1894-.7061-.3764-.964-.524-.0244.002-.0484.003-.0718.0034l-.6379.0067-.2026-.6122a4.9431,4.9431,0,0,1,1.2968-3.5266c1.4837-1.0569,3.9991.263,6.4318,1.54a18.9734,18.9734,0,0,1,3.6591,2.5321l.0022.0017c1.415,1.16,1.9088,1.8073,2.032,2.6643a2.2624,2.2624,0,0,1-.3426,1.5432,4.278,4.278,0,0,0-.4037.9621,8.9062,8.9062,0,0,0-.0589,3.4737c.0421.3967.0913.7171.1308.9744a2.0558,2.0558,0,0,1-.3238,1.926A2.7455,2.7455,0,0,1,26.9791,185.286Zm-2.3423-6.49a1.4531,1.4531,0,0,1,.6318.1422c.9773.4639.8459,1.6094.7406,2.53-.0854.7446-.1821,1.5883.1858,1.8741a1.5816,1.5816,0,0,0,1.4612.0628c-.0061-.1168-.0392-.3309-.0689-.5244-.0422-.2752-.095-.618-.1413-1.0555a10.4648,10.4648,0,0,1,.1154-4.1314,5.9994,5.9994,0,0,1,.5448-1.3107c.17-.3163.1728-.3343.1529-.4724-.0322-.2244-.1707-.5492-1.4135-1.5677h0l-.0021-.0017a17.1681,17.1681,0,0,0-3.365-2.3374c-1.3992-.7337-4.0021-2.0984-4.6166-1.663a3.7443,3.7443,0,0,0-.49,1.2273,17.2773,17.2773,0,0,0,1.9145.9567,9.4785,9.4785,0,0,0,2.5059.5967c.3024.0359,1.2223.1449,1.15,1.0141-.0693.8315-.84.8389-1.5191.8457a19.14,19.14,0,0,0-5.0724.6286,3.5483,3.5483,0,0,0-1.9364,1.0582,2.5642,2.5642,0,0,0-.4169.7616c.1332-.0262.2857-.0587.4359-.0906.3406-.0727.7626-.1626,1.2916-.257a11.1483,11.1483,0,0,1,1.1177-.1537c.35-.0333.88-.0838,2.2471-.2746.5823-.0814,1.0819-.1557,1.4988-.2175,1.7753-.2627,2.3106-.3418,2.5507.4466l.1079.3543-.1829.3371c-.21.375-.5128.4541-1.2451.6451-1.3117.3421-4.3834,1.1434-5.47,3.0922-.4629.8292-.3246,1.0986-.3229,1.1007a2.2454,2.2454,0,0,0,1.6494.0828,2.9735,2.9735,0,0,0,1.3372-.8285c.2807-.2389.63-.5366,1.09-.8871C22.6091,179.6294,23.7011,178.7962,24.6368,178.7962Z"/><path d="M254.0759,153.3734a13.0447,13.0447,0,0,1-6.2139-3.2926,14.0443,14.0443,0,0,1-1.8444-2.2112,29.4043,29.4043,0,0,1-3.5007-7.0567c-.3381-.9-.6574-1.7507-1.0385-2.597a25.3652,25.3652,0,0,0-5.05-7.0243,20.2692,20.2692,0,0,0-10.1536-5.051l.2761-1.83a21.7689,21.7689,0,0,1,10.9012,5.445,26.9154,26.9154,0,0,1,5.4585,7.6047c.4078.905.7378,1.7847,1.0877,2.7159a27.3828,27.3828,0,0,0,3.2774,6.63,12.3882,12.3882,0,0,0,1.6188,1.947,11.5289,11.5289,0,0,0,5.4972,2.8978Z"/><path class="cls-3" d="M255.9383,150.4619a14.6866,14.6866,0,0,1,2.6962-2.468c1.6326-1.1357,3.4468-2.3977,4.2761-1.679.58.5027.9527,3.158.7468,2.3562h0a15.1363,15.1363,0,0,1-1.9337,1.323,10.43,10.43,0,0,1-2.4132.7785,17.0688,17.0688,0,0,1,4.6561.5957,3.302,3.302,0,0,1,1.8761,1.2928c.4218.6418.7368,1.666.4153,2.0636-.24.2965-.6708.0431-2.0529-.2368-.8865-.1795-.5488-.0428-2.6032-.359a10.8522,10.8522,0,0,0-2.42-.3182c-.05.2244,3.9532.6762,5.2967,3.5856.1237.2678.6232,1.35.2319,2.0229-.37.6361-1.3624.6126-1.9756.4375-.8069-.23-1.0442-.7487-2.1721-1.7966-1.1581-1.0759-2.11-1.96-2.5744-1.6668-.7158.4516.5221,3.1937-.524,4.2645a1.4908,1.4908,0,0,1-2.0883-.0256c-.2794-.37-.107-.7748-.0131-2.1934a12.0061,12.0061,0,0,0-.1324-3.7531c-.2944-1.2146-.6716-1.3454-.5987-2.1044C254.6849,152.0323,254.9356,151.5456,255.9383,150.4619Z"/><path d="M256.4114,162c-.06,0-.12-.0022-.18-.0065a1.9993,1.9993,0,0,1-1.464-.752,2.4383,2.4383,0,0,1-.294-1.9081c.0264-.2548.0592-.5687.0854-.9654a11.1056,11.1056,0,0,0-.105-3.4327,4.8421,4.8421,0,0,0-.3293-.9388,2.7122,2.7122,0,0,1-.2944-1.5173c.0822-.8557.46-1.51,1.556-2.6949l.5522.6775-.5509-.679a15.51,15.51,0,0,1,2.83-2.5839c1.9241-1.3384,3.9132-2.7225,5.1783-1.6261a5.58,5.58,0,0,1,1.0791,3.5484l-.1928.64-.5715-.0109c-.1686.1271-.3715.2759-.5922.429a10.9371,10.9371,0,0,1,1.0726.2969,4.0858,4.0858,0,0,1,2.2951,1.6243c.54.8216,1.0823,2.3672.3627,3.2575-.4812.5955-1.0741.45-1.8233.2645-.24-.0591-.5342-.1317-.8985-.2068a5.5884,5.5884,0,0,1,1.0643,1.5445,3.1323,3.1323,0,0,1,.19,2.9758,2.4217,2.4217,0,0,1-2.84.8227,3.6023,3.6023,0,0,1-1.6827-1.18c-.22-.2283-.4693-.487-.8018-.7959-.4693-.4362-1.0608-.9856-1.4756-1.29.0126.1437.0287.2921.0419.4158.115,1.067.2726,2.5284-.6218,3.4437A2.2074,2.2074,0,0,1,256.4114,162Zm-.38-1.94a.86.86,0,0,0,.8969-.0969c.261-.2668.1639-1.1682.093-1.8265-.1037-.9621-.2212-2.053.58-2.5585.94-.593,2,.3934,3.4679,1.7575.3675.3415.6461.63.87.8623.4892.5074.6455.658.9912.7567a1.3765,1.3765,0,0,0,1.1113-.0534c0-.0007.0924-.2762-.2742-1.0687-.861-1.8643-3.2261-2.5883-4.2362-2.8975-.5-.1535-1.3385-.41-1.13-1.3532.1967-.8812.7668-.7868,2.1413-.5615.3249.0538.7138.1176,1.1674.1877,1.0634.1633,1.474.2036,1.7454.23a7.0778,7.0778,0,0,1,.8907.1347c.417.0842.75.1662,1.0183.2326l.1318.0323a2.7218,2.7218,0,0,0-.2957-.6162,2.5383,2.5383,0,0,0-1.4567-.961,11.8141,11.8141,0,0,0-3.9088-.5226c-.4986.01-1.2528.0127-1.3262-.8775-.05-.6024.28-.97.982-1.0916a5.9818,5.9818,0,0,0,1.893-.6169,12.2524,12.2524,0,0,0,1.417-.9363,4.5339,4.5339,0,0,0-.3892-1.17c-.4331-.29-2.63,1.2368-3.3585,1.7434a13.8394,13.8394,0,0,0-2.56,2.3487l-.5534-.6761.5522.6772c-.9352,1.0107-1.0344,1.317-1.0562,1.5441-.0135.1394-.0113.1575.1258.4646a6.8544,6.8544,0,0,1,.4481,1.2879,12.834,12.834,0,0,1,.16,4.07c-.0286.4325-.0636.7722-.0923,1.048C256.0565,159.7384,256.0353,159.9416,256.0313,160.06Z"/></svg>
