<svg id="Layer_1" data-name="Layer 1" xmlns="http://www.w3.org/2000/svg" viewBox="0 0 200 270"><defs><style>.cls-1{fill:#fff08a;}.cls-2{fill:#fff;}.cls-3{stroke:#000;stroke-miterlimit:10;}</style></defs><title>næstenmappe</title><path d="M192.0768,174.8635c.09-10.6569.7023-17.9034,1.3507-25.5755.6028-7.13,1.2263-14.5027,1.3953-24.8525a239.5672,239.5672,0,0,0-1.3414-30.21c-.4925-5.2694-1.0012-10.7183-1.4067-18.0472a405.3,405.3,0,0,1,2.7372-72.9208l.2457-1.9472L183.022,3.8993,7.9741,23.4077l.3082,2.7655.0963-.0107c1.3219,14.0874,2.5512,28.2882,3.65,42.26,2.5207,32.0531,3.8994,56.807,5.0071,76.6973.792,14.22,1.523,28.6033,2.1731,42.7723a121.0466,121.0466,0,0,0-11.6945,3.4335q-.3453.12-.689.243l-.51.1821-.2524.4794a10.0553,10.0553,0,0,0-.7213,1.7415c-.7514,2.4519-.303,4.4162.2163,6.6909a34.3227,34.3227,0,0,1,.9132,5.6115c.0282.4039.053,1.0523.0734,1.9269.0288,1.2469.0157,2.466-.0082,4.6793-.022,2.0541-.0533,4.9539-.0688,9.51-.0212,6.2882.0115,8.8423.0308,10.368.0182,1.4121.0255,1.9969-.03,3.9444-.0283.9909-.0593,1.859-.0875,2.6449a51.13,51.13,0,0,0,.0935,7.509A47.5881,47.5881,0,0,0,8.637,257.1392l.4541,1.3816,35.736-13.5215c-.2974,7.2469-.6015,14.4691-.909,21.567l-.0918,2.1231,1.9828-.7642A566.8381,566.8381,0,0,1,109.51,247.512c3.6961-.9414,7.3-1.8165,10.7849-2.6623a379.475,379.475,0,0,0,38.7028-11.0143,351.9465,351.9465,0,0,0,35.029-14.319l.9207-.4365-.138-1.01A301.3492,301.3492,0,0,1,192.0768,174.8635Z"/><path class="cls-1" d="M10.8486,254.8808A44.7316,44.7316,0,0,1,9.2435,246.59a48.3873,48.3873,0,0,1-.082-7.1426c.0282-.792.0595-1.6665.088-2.665.0574-2.0046.05-2.6063.0313-4.06-.02-1.517-.0519-4.057-.0307-10.3224.0152-4.5472.0464-7.44.0685-9.49.0241-2.2437.0375-3.48.0078-4.7739-.0217-.9311-.0478-1.6045-.08-2.0584a37.1936,37.1936,0,0,0-.9759-6.0349c-.4832-2.1165-.8025-3.5145-.2688-5.256a7.2016,7.2016,0,0,1,.2938-.7865c.0449-.0158.09-.0316.1351-.0468a118.0972,118.0972,0,0,1,12.5316-3.6145l1.1322-.26-.0533-1.16c-.6637-14.5506-1.4127-29.339-2.2269-43.9545-1.1083-19.9042-2.4883-44.6757-5.0114-76.76-1.1012-14.0019-2.333-28.2333-3.6581-42.35L156.0063,9.71,24.7442,37.9428l.0848,1.2042C29.7214,108.68,31.4944,150.7426,30.1,164.1661a126.0227,126.0227,0,0,0-.4582,12.7944c-.0054,3.1525-.0109,6.4121-.2049,9.5886q-.0726,1.18-.1473,2.3209c-.5729,8.8847-.9865,15.3039,2.9552,17.022,1.1621.5066,2.0046.3365,8.2352-1.1447,2.1747-.5174,4.1739-1.0006,5.9686-1.44-.3881,10.561-.7957,21.1959-1.2132,31.6384q-.1406,3.5148-.2841,7.0315Z"/><path class="cls-1" d="M191.916,216.322a349.3707,349.3707,0,0,1-33.8311,13.7717,377.1207,377.1207,0,0,1-38.4456,10.9382c-3.4928.8479-7.1041,1.7247-10.8159,2.67A568.447,568.447,0,0,0,46.79,263.4551c.4185-9.7082.83-19.6251,1.2257-29.5115.4419-11.0529.8729-22.3205,1.2806-33.49l.0674-1.8437-1.7915.4424c-2.2155.5468-4.8163,1.18-7.7362,1.8742-3.81.9066-6.15,1.4452-6.48,1.3012-2.1513-.9376-1.7132-7.7264-1.29-14.2913.0489-.7631.0995-1.5409.1473-2.3307.1989-3.2585.2049-6.5605.21-9.7533a124.0111,124.0111,0,0,1,.443-12.5117c1.4034-13.5048-.3386-55.3251-5.1777-124.2976L183.4723,5.5359l8.2353-.9178a407.0154,407.0154,0,0,0-2.4115,70.6012c.4082,7.3813.9425,13.1036,1.4143,18.1523a237.1909,237.1909,0,0,1,1.3295,29.9051c-.1674,10.2552-.7865,17.58-1.3855,24.6636-.624,7.3862-1.27,15.024-1.3605,25.7861A304.2894,304.2894,0,0,0,191.916,216.322Z"/><path class="cls-2" d="M85.0976,132.1719a8.9676,8.9676,0,0,1-5.5772-1.6552c-5.7412-4.3936-2.9609-16.1387-1.5-20.9844.0606-.1992,6.1153-19.9151,15.6573-19.9151q.2709,0,.5459.0215c8.0175.626,13.8125,10.4727,12.9169,21.95-.7988,10.25-8.9052,17.6748-16.5,19.7129A21.4115,21.4115,0,0,1,85.0976,132.1719Z"/><path d="M93.6786,88.6176v2c.1548,0,.31.0061.4673.0183,7.4678.5825,12.85,9.9472,11.9976,20.8753-.7632,9.7867-8.5074,16.8781-15.7622,18.8249a20.5245,20.5245,0,0,1-5.2837.8356,7.9938,7.9938,0,0,1-4.9693-1.45c-3.6386-2.7842-4.0688-10.2237-1.15-19.9015,1.6114-5.3408,7.3931-19.2021,14.7-19.2031l.0009-2m-.0014,0c-10.22.0014-16.3238,19.6641-16.6138,20.6255-.749,2.4836-5.0615,16.7794,1.85,22.0675a9.9984,9.9984,0,0,0,6.1846,1.8611,22.4271,22.4271,0,0,0,5.8017-.9039c8.4473-2.2666,16.4424-10.3956,17.2383-20.6011.9395-12.0469-5.2549-22.3554-13.8359-23.0247-.21-.0163-.4175-.0244-.6245-.0244Z"/><ellipse class="cls-3" cx="92.5769" cy="112.0369" rx="7.7922" ry="5.8441" transform="translate(-26.3192 195.622) rotate(-85.5404)"/><ellipse class="cls-3" cx="136.622" cy="104.7515" rx="7.7922" ry="5.8443" transform="translate(28.2917 238.5535) rotate(-88.4836)"/><path d="M69.102,196.2572l-5.1871-23.5817,1.487-.3271,6.0059,11.1868c1.3909,2.5919,2.5478,4.9416,3.58,7.2455l.0234-.0415c-.8178-3.1216-1.48-5.9834-2.2885-9.6574l-2.17-9.8663,1.2841-.2825,5.1871,23.5817-1.3777.303-5.9826-11.2288c-1.3128-2.4625-2.61-5.0012-3.7041-7.4386l-.04.0456c.7324,2.9565,1.3873,5.7836,2.2493,9.7025l2.2165,10.0764Z"/><path d="M79.229,194.1761l.2937-3.2923a24.3836,24.3836,0,0,1-3.31-8.4056c-1.6392-7.4521-.5957-12.78,2.16-13.3867a3.3111,3.3111,0,0,1,3.0377,1.2762l.3-3.0371,1.1072,1.0767-.3091,3.2225A24.513,24.513,0,0,1,85.78,180.007c1.8087,8.2223.4542,12.8855-2.0662,13.44a3.3851,3.3851,0,0,1-3.0932-1.3009l-.3243,3.2264ZM81.23,172.755c-.7554-.8975-1.5513-1.3828-2.3342-1.2106-2.3013.5062-2.4132,5.5195-1.3281,10.4524a24.543,24.543,0,0,0,2.1754,6.1609l.008-.0386Zm-.4286,17.0036c.7551.9713,1.4965,1.4318,2.3419,1.2458,2.2073-.4855,2.436-5.2678,1.2662-10.5858a23.9554,23.9554,0,0,0-2.0829-5.961l-.0467.01Z"/><path d="M97.9877,188.8028a5.5581,5.5581,0,0,1-2.956,2.0075c-1.5968.3512-3.1119-.269-4.63-2.2463a22.795,22.795,0,0,1-3.4034-8.4582c-1.5316-7.0357-.5023-12.654,3.0363-13.4324a3.7843,3.7843,0,0,1,2.8683.506l.218,2.5563a3.2212,3.2212,0,0,0-2.556-.5014c-2.5677.5648-3.4577,4.5022-2.1571,10.415,1.3159,5.9826,3.7058,9.1617,6.1637,8.621a2.46,2.46,0,0,0,1.6779-1.0289l-1.547-7.0329-2.1452.4719-.5387-2.4489,3.4756-.7645Z"/><path d="M103.3318,177.1366l-4.1019.9023,1.87,8.5024,4.5716-1.0056.5618,2.5539L100.3,189.3948l-5.1871-23.5817,5.6987-1.2535.5618,2.5539-4.3368.954,1.6393,7.4526,4.102-.9022Z"/><path d="M108.0012,187.7008l-5.1871-23.5817,1.487-.3271,6.0059,11.1868c1.3909,2.5919,2.5478,4.9416,3.58,7.2455l.0235-.0415c-.8178-3.1217-1.48-5.9834-2.2885-9.6574l-2.17-9.8663,1.2841-.2825,5.1871,23.5817-1.3777.303-5.9826-11.2288c-1.3129-2.4625-2.61-5.0012-3.7041-7.4386l-.0395.0456c.7324,2.9565,1.3873,5.7835,2.2493,9.7024l2.2164,10.0765Z"/><path d="M113.1833,162.1682a6.3968,6.3968,0,0,1,2.3813-1.0372,3.0625,3.0625,0,0,1,3.2737,1.0772,8.428,8.428,0,0,1,1.7923,3.971c.5,2.2739.2658,4.4163-.6459,5.57l.0155.07c1.125.3392,2.7073,1.9355,3.4768,5.4341a11.48,11.48,0,0,1,.1468,4.9195,3.7936,3.7936,0,0,1-3.1631,3.0069,7.5019,7.5019,0,0,1-2.1748.1849Zm3.4861,9.3571,1.2368-.2721c1.44-.3167,1.9162-2.1819,1.416-4.4563-.608-2.7641-1.786-3.6418-3.1637-3.3388a2.8223,2.8223,0,0,0-1.1592.4748Zm2.4858,11.3012a3.4192,3.4192,0,0,0,1.1736-.1117c1.4091-.31,2.4546-1.75,1.7-5.1792-.708-3.2186-2.2373-4.2763-3.7248-3.9491l-1.127.2479Z"/><path d="M122.96,159.6877l5.1871,23.5817-1.3619.3-5.1872-23.5816Z"/><path d="M125.3393,159.1644l1.3619-.3,4.6254,21.0277,4.5086-.9917.5618,2.5539-5.8706,1.2913Z"/><path d="M132.7275,157.5392l1.3619-.2995,4.6253,21.0277,4.5087-.9917.5617,2.5539-5.87,1.2913Z"/><path d="M148.3346,167.2376l-4.102.9023,1.87,8.5024,4.5717-1.0056.5618,2.5539-5.9336,1.3052-5.1871-23.5817,5.6987-1.2535.5618,2.5539-4.3368.954,1.6393,7.4526,4.1019-.9022Z"/><path d="M147.8861,154.5348a9.2988,9.2988,0,0,1,2.7884-1.1267,4.6422,4.6422,0,0,1,4.9208,1.9989c1.3621,1.7174,2.51,4.3263,3.3493,8.14a23.5242,23.5242,0,0,1,.4979,9.501c-.5014,2.421-1.8679,3.9691-3.9191,4.42a10.2649,10.2649,0,0,1-2.5348.264Zm5.9487,20.5532a4.0532,4.0532,0,0,0,1.4162-.128c2.9119-.6406,3.6929-4.6273,2.2923-10.995-1.2079-5.5663-3.3944-8.79-6.2752-8.1565a3.7676,3.7676,0,0,0-1.5276.666Z"/><path d="M166.4609,163.2505l-4.1019.9022,1.87,8.5024,4.5717-1.0056.5617,2.554-5.9335,1.3051-5.1872-23.5816,5.6988-1.2535.5617,2.5539-4.3368.9539,1.6393,7.4527,4.102-.9023Z"/><path d="M166.0124,150.5477a6.8447,6.8447,0,0,1,2.5068-1.0648,3.164,3.164,0,0,1,3.4761,1.253,10.6743,10.6743,0,0,1,1.8147,4.296c.6849,3.1135.2625,5.37-.6645,6.4551l.023.1046c.9529.4508,1.8074,2.0238,2.5967,4.4175,1.0676,3.2133,1.8185,5.4326,2.2377,6.2938l-1.4087.31c-.3185-.6267-1-2.6047-1.9437-5.4783-1.0289-3.1848-1.862-4.2855-3.1218-4.118l-1.2837.2823,2.2472,10.2163-1.3619.3Zm3.7246,10.4415,1.3934-.3065c1.456-.32,1.9872-2.3077,1.3946-5.0019-.6695-3.0436-1.9483-4.1564-3.3965-3.8742a2.7657,2.7657,0,0,0-1.2847.5757Z"/><path d="M117.6454,115.2711c.3049,2.7214,1.6034,4.6467,2.7133,7.1344a42.6074,42.6074,0,0,1,2.1979,7.54c1.2723,5.2,2.982,10.2928,4.28,15.4891a12.3719,12.3719,0,0,1,.6878,3.08c-.0332.9756.0076.3183.3214.287-1.0927.109-2.8605-1.8585-3.5181-2.4394a90.1692,90.1692,0,0,1-7.1189-7.3463c-.9714-1.0779-2.5586.5174-1.591,1.591.7445.8261,12.79,15.3607,14.2,8.6113.567-2.715-1.5061-7.0393-2.2014-9.556-1.0656-3.8569-2.265-7.688-3.1646-11.5861a37.2319,37.2319,0,0,0-1.6049-5.6431c-.95-2.3619-2.6615-4.5786-2.9508-7.1611-.1594-1.423-2.4112-1.4392-2.25,0Z"/></svg>
