<svg id="Layer_1" data-name="Layer 1" xmlns="http://www.w3.org/2000/svg" viewBox="0 0 340 380"><defs><style>.cls-1{fill:gray;opacity:0.7;}.cls-2{fill:#fff08a;}.cls-3{fill:#fff;}.cls-4{stroke:#000;stroke-miterlimit:10;}</style></defs><title>nøgenmappee</title><ellipse class="cls-1" cx="187.5062" cy="351.9086" rx="145.1997" ry="28.0914"/><path d="M255.55,177.2852c.091-10.8861.7127-18.2884,1.3709-26.1255.6118-7.2834,1.2446-14.8146,1.4162-25.387a246.2458,246.2458,0,0,0-1.3616-30.8593c-.5-5.3827-1.0162-10.9489-1.4277-18.4353a416.6371,416.6371,0,0,1,2.7783-74.489L258.5755,0,246.3593,2.6444,68.6853,22.5723l.3128,2.825.0978-.011c1.3417,14.39,2.5894,28.8965,3.7048,43.169,2.5585,32.7424,3.9578,58.0286,5.0822,78.3467.8038,14.5259,1.5458,29.2184,2.2057,43.6921a122.2839,122.2839,0,0,0-11.87,3.5073q-.3505.1225-.6993.2482l-.518.186-.2563.49a10.3109,10.3109,0,0,0-.7321,1.779c-.7627,2.5046-.3076,4.5112.22,6.8349a35.2753,35.2753,0,0,1,.9268,5.7322c.0287.4125.0538,1.0749.0745,1.9682.0292,1.2737.016,2.5191-.0083,4.78-.0223,2.0982-.054,5.06-.07,9.7149-.0215,6.4234.0116,9.0324.0312,10.591.0185,1.4424.0259,2.04-.0306,4.0293-.0287,1.0121-.06,1.8988-.0888,2.7017a52.5628,52.5628,0,0,0,.0949,7.6705A48.8881,48.8881,0,0,0,69.3581,261.33l.4609,1.4113,36.2722-13.8122c-.3019,7.4027-.6106,14.78-.9226,22.0308l-.0933,2.1687,2.0126-.7807a572.7315,572.7315,0,0,1,64.6569-20.8522c3.7516-.9616,7.41-1.8555,10.9468-2.72a383.3034,383.3034,0,0,0,39.2833-11.2511,355.9553,355.9553,0,0,0,35.5545-14.627l.9346-.4458-.14-1.0317A309.7532,309.7532,0,0,1,255.55,177.2852Z"/><path class="cls-2" d="M71.6029,259.0233a45.954,45.954,0,0,1-1.6291-8.4689,49.7337,49.7337,0,0,1-.0833-7.2963c.0287-.809.06-1.7023.0894-2.7223.0582-2.0477.05-2.6623.0317-4.147-.02-1.55-.0527-4.1442-.0312-10.5443.0155-4.6451.0472-7.6006.0695-9.6943.0246-2.292.0381-3.5546.008-4.8766-.022-.9511-.0485-1.6391-.0811-2.1027a38.2177,38.2177,0,0,0-.99-6.1647c-.49-2.1621-.8146-3.59-.2729-5.3691a7.4005,7.4005,0,0,1,.2982-.8034c.0455-.0161.0913-.0322.1371-.0477a119.3132,119.3132,0,0,1,12.72-3.6923l1.1492-.2654-.0541-1.1849c-.6736-14.8634-1.4338-29.97-2.26-44.9-1.1249-20.3322-2.5256-45.6365-5.0866-78.4111-1.1176-14.3031-2.368-28.84-3.7129-43.2612L218.9383,8.58,85.707,37.42l.0861,1.23c4.9658,71.0282,6.7654,113.9954,5.35,127.7077a129.51,129.51,0,0,0-.4651,13.07c-.0055,3.22-.0111,6.55-.208,9.7948q-.0737,1.2051-.15,2.3708c-.5815,9.0758-1.0014,15.6331,2.9995,17.3881,1.18.5175,2.0347.3437,8.3588-1.1693,2.2073-.5286,4.2364-1.0222,6.0581-1.4708-.3939,10.7881-.8077,21.6517-1.2314,32.3188q-.1427,3.59-.2884,7.1827Z"/><path class="cls-2" d="M255.3867,219.6353a353.3445,353.3445,0,0,1-34.3386,14.0679,380.8974,380.8974,0,0,1-39.0224,11.1734c-3.5452.8662-7.2107,1.7617-10.9782,2.7273a574.3362,574.3362,0,0,0-62.9638,20.1781c.4248-9.9169.8425-20.0471,1.2441-30.1461.4485-11.2906.886-22.8,1.3-34.21l.0684-1.8833-1.8184.4519c-2.2487.5586-4.8885,1.2054-7.8522,1.9145-3.8674.9261-6.2419,1.4763-6.5768,1.3292-2.1836-.9578-1.7389-7.8926-1.3092-14.5987.05-.78.101-1.574.15-2.3808.202-3.3286.208-6.7016.2135-9.963a127.4664,127.4664,0,0,1,.45-12.7808C95.3766,151.7191,93.6084,109,88.6966,38.5437l158.12-34.2276,8.3588-.9375a418.4121,418.4121,0,0,0-2.4477,72.1195c.4143,7.54.9566,13.3855,1.4355,18.5427a243.8,243.8,0,0,1,1.3494,30.5482c-.17,10.4758-.7983,17.9583-1.4062,25.1941-.6334,7.545-1.2888,15.347-1.3809,26.3406A312.7852,312.7852,0,0,0,255.3867,219.6353Z"/><path d="M313.8745,167.356A27.35,27.35,0,0,1,301.5,161.6248a25.5732,25.5732,0,0,1-3.673-3.8487,48.8528,48.8528,0,0,1-6.9713-12.2829c-.6735-1.5666-1.3093-3.0472-2.0681-4.52A44.4931,44.4931,0,0,0,278.73,128.7462c-5.3533-4.4236-12.1564-7.3811-20.22-8.7916l.55-3.1862c8.6183,1.5072,15.9222,4.6959,21.7092,9.4777a47.2,47.2,0,0,1,10.87,13.2367c.8122,1.5754,1.4693,3.1066,2.166,4.7274a45.4923,45.4923,0,0,0,6.527,11.5407,22.5371,22.5371,0,0,0,3.2236,3.3889,24.1873,24.1873,0,0,0,10.9475,5.044Z"/><path class="cls-3" d="M317.5834,162.2882a28.2023,28.2023,0,0,1,5.3692-4.2957c3.2514-1.9769,6.8642-4.1735,8.5157-2.9226,1.1554.8751,1.8974,5.4969,1.4872,4.1013h0a30.545,30.545,0,0,1-3.8508,2.3029,23.03,23.03,0,0,1-4.8057,1.3549c.0239.2513,4.3431-.3979,9.2723,1.037a6.6677,6.6677,0,0,1,3.7361,2.25c.84,1.1172,1.4674,2.9.8271,3.5919-.4775.5161-1.3358.075-4.0883-.4122-1.7654-.3124-1.0929-.0744-5.184-.6248-3.1734-.4269-4.774-.731-4.8188-.5539-.0991.3906,7.8726,1.177,10.5482,6.2411.2463.4662,1.241,2.3489.4618,3.521-.736,1.1073-2.7131,1.0664-3.9343.7616-1.607-.4012-2.0795-1.3031-4.3257-3.1272-2.3062-1.8727-4.2014-3.4116-5.1267-2.9013-1.4256.7862,1.04,5.5591-1.0435,7.4229a3.2811,3.2811,0,0,1-4.1587-.0446c-.5566-.6446-.2131-1.3486-.0262-3.8178a18.3133,18.3133,0,0,0-.2636-6.5327c-.5864-2.114-1.3375-2.3418-1.1924-3.6628C315.0873,165.0217,315.5865,164.1745,317.5834,162.2882Z"/><path d="M318.5254,182.3715c-.1186,0-.2385-.0038-.3584-.0113a4.1862,4.1862,0,0,1-2.9154-1.3089c-.8618-.998-.74-2.0232-.5856-3.3213.0527-.4434.118-.99.17-1.68a16.9409,16.9409,0,0,0-.209-5.975,7.7532,7.7532,0,0,0-.6559-1.6341,4.23,4.23,0,0,1-.5863-2.641c.1639-1.4895.9164-2.629,3.0988-4.6908l1.1,1.1793-1.0971-1.1819a29.7938,29.7938,0,0,1,5.6357-4.4975c3.8318-2.33,7.7929-4.7388,10.3123-2.8305,1.47,1.1124,2.4823,5.2107,2.1491,6.1765l-.3842,1.1136-1.1379-.0189c-.3358.2211-.74.48-1.1794.7466.6917.1352,1.4072.3045,2.1359.5167a8.2281,8.2281,0,0,1,4.5706,2.8274c1.0758,1.43,2.1554,4.12.7224,5.67-.9584,1.0366-2.139.7827-3.6309.46-.4777-.103-1.0639-.2293-1.7895-.36a9.8151,9.8151,0,0,1,2.12,2.6885c1.4,2.646.9792,4.2776.3785,5.18-1.1963,1.8009-3.7948,1.8969-5.6564,1.432a7.25,7.25,0,0,1-3.351-2.0536c-.4381-.3973-.9346-.8477-1.5968-1.3853-.9346-.7592-2.1127-1.7156-2.9387-2.2462.0251.25.0572.5085.0835.7239.2291,1.8571.5429,4.4009-1.2383,5.994A4.74,4.74,0,0,1,318.5254,182.3715Zm-.7569-3.3763a1.9192,1.9192,0,0,0,1.7863-.1686c.52-.4643.3263-2.0334.1851-3.1792-.2065-1.6746-.4406-3.5734,1.1543-4.4533,1.8716-1.0322,3.9818.6847,6.906,3.0592.7319.5944,1.2867,1.0972,1.7317,1.5008.9741.8831,1.2855,1.1452,1.974,1.3171a3.095,3.095,0,0,0,2.2131-.0929c0-.0013.1839-.4807-.5461-1.86-1.7147-3.2449-6.4246-4.5051-8.4362-5.0433-.9968-.2672-2.6657-.7131-2.2508-2.3555.3917-1.5337,1.5271-1.3694,4.2643-.9772.6471.0935,1.4216.2047,2.3248.3266,2.1177.2843,2.9355.3544,3.4759.4a15.9628,15.9628,0,0,1,1.7738.2343c.83.1466,1.4932.2893,2.0279.4049.0866.0184.1745.0373.2624.0563a4.5,4.5,0,0,0-.5888-1.0726,5.1454,5.1454,0,0,0-2.901-1.6727,26.7217,26.7217,0,0,0-7.7841-.91c-.993.0177-2.4949.0221-2.6412-1.5274-.1-1.0486.558-1.6878,1.9558-1.9a13.173,13.173,0,0,0,3.77-1.0738,24.9538,24.9538,0,0,0,2.8219-1.63,7.2344,7.2344,0,0,0-.7752-2.0365c-.8624-.5041-5.2377,2.1527-6.6882,3.0345a26.5748,26.5748,0,0,0-5.0984,4.0882l-1.1022-1.1768,1.1,1.1787c-1.8623,1.7592-2.06,2.2924-2.1033,2.6878-.027.2425-.0226.2741.25.8085a10.9788,10.9788,0,0,1,.8925,2.2418,19.5816,19.5816,0,0,1,.3183,7.0849c-.0572.7529-.1268,1.3442-.1839,1.8243C317.8187,178.4349,317.7766,178.7887,317.7685,178.9952Z"/><path d="M28.7325,196.1963l-.63-3.171a30.478,30.478,0,0,0,13.0907-5.7684,25.655,25.655,0,0,0,3.7935-3.7673,48.064,48.064,0,0,0,7.524-12.6575c.7914-1.7693,1.539-3.44,2.4682-5.16A51.5787,51.5787,0,0,1,67.576,151.1586c6.7406-5.2662,15.3119-8.851,25.4761-10.6557l.5586,3.1849c-9.6445,1.7125-17.7406,5.085-24.0639,10.0253a48.97,48.97,0,0,0-11.744,13.5033c-.8721,1.6139-1.5955,3.231-2.3615,4.9435a51.461,51.461,0,0,1-8.0039,13.4224,28.6949,28.6949,0,0,1-4.2557,4.2158A33.6418,33.6418,0,0,1,28.7325,196.1963Z"/><path class="cls-3" d="M26.2639,191.3124a33.4352,33.4352,0,0,0-6.4989-4.5347c-3.9208-2.07-8.2774-4.37-10.2162-2.98-1.3563.9722-2.1323,5.9915-1.6762,4.4719h0a37.4467,37.4467,0,0,0,4.6428,2.41c3.1566,1.276,5.7745,1.17,5.7585,1.3632-.0227.2726-5.1849-.3372-11.0252,1.3224a8.0908,8.0908,0,0,0-4.3995,2.5163c-.975,1.2276-1.6808,3.171-.9016,3.9063.5811.5484,1.5936.0524,4.8622-.5342,2.0965-.3763,1.3007-.1042,6.163-.7881,3.7716-.5305,5.6718-.8941,5.73-.7035.1271.4208-9.354,1.4438-12.4239,6.9835-.2826.51-1.4239,2.57-.4679,3.8217.903,1.1828,3.2581,1.0959,4.7062.74,1.9057-.4689,2.4476-1.4554,5.0816-3.4784,2.7044-2.077,4.9267-3.7838,6.0414-3.2512,1.7172.82-1.1089,6.04,1.4172,8.0131,1.3734,1.0726,3.9889.92,4.9548-.1378.6481-.71.2224-1.4645-.0582-4.1335a18.0463,18.0463,0,0,1,.1612-7.0777c.6493-2.3011,1.539-2.5639,1.3352-3.9909C29.3024,194.2178,28.6877,193.3114,26.2639,191.3124Z"/><path d="M25.4922,212.93a5.6233,5.6233,0,0,1-3.42-1.0631c-2.1086-1.6468-1.7951-4.4-1.5663-6.4109.04-.3493.0913-.8022.1121-1.173a32.9787,32.9787,0,0,0-4.0431,2.8293c-.7833.602-1.3676,1.1023-1.8829,1.5438a8.4033,8.4033,0,0,1-3.7929,2.2216c-2.0791.51-4.9911.4706-6.3622-1.3252-.73-.957-1.2644-2.7042.3389-5.5954a10.853,10.853,0,0,1,2.7921-3.2108c-.1635.0265-.3511.0587-.5758.0985-.9343.1681-1.68.3285-2.2819.4574-1.769.379-2.9374.6316-3.9614-.3355-1.7176-1.62-.4952-4.5328.7457-6.095a9.67,9.67,0,0,1,5.2176-3.0636c.9848-.2792,1.95-.4978,2.8769-.6683-.6823-.3525-1.3059-.7005-1.7829-.9753-.0452.0038-.0894.0057-.1327.0063l-1.18.0126-.3747-1.1395c-.31-.9576.6785-5.3313,2.3983-6.5637,2.7437-1.967,7.3956.4895,11.8946,2.8653a35.09,35.09,0,0,1,6.767,4.7129l.0041.0031c2.6167,2.1585,3.53,3.3637,3.7578,4.9587a4.2315,4.2315,0,0,1-.6337,2.8722,8,8,0,0,0-.7466,1.7908c-.5743,2.0359-.3687,3.99-.1089,6.4652.0779.7384.1689,1.3347.242,1.8135.2059,1.3467.3835,2.51-.5988,3.5847A5.0594,5.0594,0,0,1,25.4922,212.93Zm-4.3317-12.0789a2.6758,2.6758,0,0,1,1.1684.2647c1.8073.8635,1.5644,2.9954,1.3695,4.7085-.1579,1.3859-.3367,2.9562.3436,3.4881a2.9091,2.9091,0,0,0,2.7024.1169c-.0113-.2173-.0725-.6159-.1274-.976-.0782-.5122-.1758-1.15-.2614-1.9645A19.6026,19.6026,0,0,1,26.569,198.8a11.1967,11.1967,0,0,1,1.0077-2.44c.3147-.5887.3194-.6222.2827-.8792-.06-.4176-.3157-1.0221-2.6142-2.9177h0l-.0038-.0032a31.7422,31.7422,0,0,0-6.2232-4.35c-2.5875-1.3657-7.4013-3.9057-8.5376-3.0952a6.9931,6.9931,0,0,0-.907,2.2841,31.8785,31.8785,0,0,0,3.5406,1.7807,17.4355,17.4355,0,0,0,4.6343,1.1105c.5592.0669,2.2605.27,2.1261,1.8874-.128,1.5476-1.5524,1.5615-2.8093,1.5741a35.18,35.18,0,0,0-9.3806,1.17,6.5511,6.5511,0,0,0-3.5811,1.97,4.7822,4.7822,0,0,0-.771,1.4174c.2463-.0486.5284-.1092.8062-.1686.63-.1352,1.41-.3026,2.3885-.4782a20.5293,20.5293,0,0,1,2.0672-.2862c.6477-.0619,1.6265-.156,4.1557-.511,1.0767-.1516,2.0006-.29,2.7717-.4049,3.2832-.4889,4.273-.6361,4.7171.8313l.2.66-.3383.6272c-.3879.698-.9484.8452-2.3026,1.2008-2.4258.6368-8.1064,2.1281-10.1161,5.7552-.8562,1.5432-.6,2.0447-.5972,2.0485.2338.307,1.6174.5066,3.05.1542a5.4932,5.4932,0,0,0,2.473-1.542c.5191-.4447,1.1652-.9986,2.0154-1.6512C17.4106,202.4019,19.43,200.8511,21.1605,200.8511Z"/><path d="M153.2922,355.6586c-.6395-23.1926,1.0783-37.3067,5.2522-43.1478l.108-.15a12.3383,12.3383,0,0,0,2.6449-7.4569,11.5671,11.5671,0,0,0-2.4522-6.3932l-.09-.1238c-4.07-5.5947-5.4744-19.7821-4.2925-43.3719l3.21.1629c-1.4041,28.0274,1.2233,37.9282,3.6755,41.2989l.0785.1073a14.6753,14.6753,0,0,1,3.0836,8.2124,15.4207,15.4207,0,0,1-3.26,9.4688l-.096.1333c-3.6956,5.1721-5.26,19.0235-4.649,41.17Z"/><path d="M178.3257,363.51c-.2805,1.0745-2.2192,1.295-3.9127,1.4875-4.9015.5574-7.6389-1.2156-11.325-2.2727-8.1459-2.3361-12.3118,1.294-13.4815-1.56-1.0832-2.6432,1.4313-8.3406,4.8377-10.2358,1.5519-.8635,3.3345-.9632,10.2468,2.6292C169.8481,356.2381,178.9845,360.9863,178.3257,363.51Z"/><path d="M172.5881,366.72a20.4275,20.4275,0,0,1-7.3673-1.58c-.83-.2988-1.6884-.607-2.5734-.861a20.8082,20.8082,0,0,0-8.8876-.516c-2.1591.2539-4.6044.5419-5.6388-1.9822-1.4317-3.4938,1.5227-10.0291,5.5453-12.2678,2.2081-1.2286,4.53-1.15,11.7622,2.6076,10.4592,5.4355,15.29,8.587,14.4511,11.8-.5605,2.1457-3.181,2.4439-5.2867,2.6833A17.7369,17.7369,0,0,1,172.5881,366.72Zm-15.3316-6.4443a22.4925,22.4925,0,0,1,6.2721.8932c.9854.283,1.8943.6095,2.773.9254,2.4911.8963,4.6415,1.6708,7.93,1.2955a14.4918,14.4918,0,0,0,2.3775-.4017c-1.3143-2.1-9.7744-6.4961-12.6553-7.9932-6.9758-3.6252-7.9926-3.0623-8.7332-2.6518-2.8684,1.5969-4.8141,6.5328-4.1287,8.2048a.5.5,0,0,0,.06.1163,8.5376,8.5376,0,0,0,2.2338-.1131A31.6255,31.6255,0,0,1,157.2565,360.2761Z"/><path d="M227.6146,348.0776c-.2523,1.0816-2.1846,1.3531-3.8725,1.59-4.8853.6867-7.668-1.0134-11.38-1.9727-8.204-2.12-12.2738,1.6188-13.5175-1.2032-1.1519-2.6137,1.2132-8.3756,4.569-10.36,1.5288-.9041,3.3082-1.0509,10.3118,2.3576C218.95,341.0324,228.2074,345.5376,227.6146,348.0776Z"/><path d="M221.53,351.4447a20.9929,20.9929,0,0,1-6.9725-1.39c-.838-.2767-1.7041-.5629-2.5954-.7928a20.779,20.779,0,0,0-8.8982-.2811c-2.1516.3108-4.5882.6633-5.6884-1.8325-1.5227-3.4552,1.26-10.0663,5.2239-12.4105,2.1742-1.2861,4.499-1.2684,11.825,2.2962,10.5979,5.1569,15.5086,8.18,14.7542,11.4137h0c-.504,2.1609-3.1163,2.5273-5.2152,2.8217A17.4175,17.4175,0,0,1,221.53,351.4447Zm-14.4592-6.0508a22.5533,22.5533,0,0,1,5.6909.7346c.993.2571,1.91.56,2.7975.8528a15.81,15.81,0,0,0,7.96,1.0852,14.5,14.5,0,0,0,2.3656-.4643c-1.3676-2.0649-9.94-6.2359-12.8593-7.6565-7.0711-3.4414-8.07-2.8514-8.7984-2.42-2.8264,1.6714-4.6434,6.6572-3.9147,8.311a.5055.5055,0,0,0,.0634.1143,8.405,8.405,0,0,0,2.23-.1718A29.7681,29.7681,0,0,1,207.0707,345.3939Z"/><path class="cls-3" d="M153.7457,132.8086c-.27,0-.541-.0107-.8135-.0322-8.1465-.64-14.0342-10.708-13.124-22.4453.875-11.3028,7.7314-20.1563,15.6084-20.1563.27,0,.541.0107.8135.0322,8.1464.64,14.0341,10.708,13.124,22.4453C168.4791,123.9551,161.6226,132.8086,153.7457,132.8086Z"/><path d="M155.4176,89.1747v2h0c.2431,0,.49.01.7339.0288,7.5976.5963,13.0732,10.1835,12.2058,21.3713-.8357,10.7852-7.2537,19.2335-14.6114,19.2335-.2439,0-.4909-.01-.7348-.0288-7.5974-.5963-13.0733-10.1834-12.2061-21.3713.8357-10.7843,7.2539-19.2327,14.6116-19.2335l.001-2m-.0013,0c-8.3459.0011-15.6845,9.1953-16.6054,21.0791-.9536,12.3059,5.334,22.8361,14.0437,23.52.2988.0235.5949.0349.8913.0349,8.346,0,15.6846-9.1951,16.6055-21.0789.9539-12.3061-5.3337-22.8362-14.0435-23.52-.2988-.0234-.5949-.035-.8916-.035Z"/><path d="M142.5682,136.3149a25.2532,25.2532,0,0,0,17.1965,2.796c.9479-.176.5464-1.6219-.3987-1.4464a23.5649,23.5649,0,0,1-16.0407-2.6448c-.8444-.47-1.6017.8253-.7571,1.2952Z"/><path d="M216.64,120.2747a23.4372,23.4372,0,0,1-18.0058,9.07.75.75,0,0,0,0,1.5,24.8857,24.8857,0,0,0,19.0664-9.5089c.5937-.7487-.4609-1.8171-1.0606-1.0607Z"/><ellipse class="cls-4" cx="154.5573" cy="113.1075" rx="7.9595" ry="5.932" transform="translate(30.0261 258.6178) rotate(-85.6396)"/><path d="M181.0336,127.6478c.4226,3.793,2.8546,6.7392,3.9963,10.3472.8479,2.68,1.4789,5.28.3792,7.9257-.789,1.8984-2.0111,2.9532-3.162,4.5884-.8352,1.1866,1.1148,2.312,1.9428,1.1357,2.4253-3.4459,4.5249-4.4673,4.1085-9.0861a25.5813,25.5813,0,0,0-1.576-6.5481c-1.0255-2.7557-3.1114-5.4247-3.4388-8.3628-.1585-1.4232-2.41-1.4393-2.25,0Z"/><path d="M202.7564,62.0546a31.2494,31.2494,0,0,1,17.9812,9.3592c.67.6971,1.73-.3644,1.0606-1.0607a32.5723,32.5723,0,0,0-18.6431-9.7449c-.9443-.1481-1.3511,1.2971-.3987,1.4464Z"/><path d="M150.3307,70.2965a32.4737,32.4737,0,0,0-15.308,14.475c-.4511.8528.8432,1.6117,1.2952.7571a31.1674,31.1674,0,0,1,14.77-13.9369c.8769-.4.1155-1.6936-.7571-1.2952Z"/><path class="cls-3" d="M199.7779,124.3047c-8.168-.2178-14.56-9.97-14.25-21.7373.3047-11.5518,7.0781-20.95,15.0986-20.95l.2774.0039c8.168.2178,14.5605,9.97,14.25,21.7383-.3037,11.5508-7.0772,20.9492-15.0967,20.9492Z"/><path d="M200.6253,82.6174c.0833,0,.1678.0011.2512.0033,7.6172.2034,13.5735,9.4948,13.2779,20.7119-.2905,11.0151-6.6148,19.9764-14.0977,19.9764-.0832,0-.1677-.0011-.2512-.0033-7.6172-.2035-13.5737-9.4949-13.2778-20.7121.29-11.015,6.6145-19.9762,14.0976-19.9762m0-2c-8.5993,0-15.7754,9.7276-16.0969,21.9235-.3254,12.339,6.49,22.5308,15.2236,22.764.1014.0027.2039.0041.3047.0041,8.5991,0,15.7752-9.7277,16.0969-21.9236.3252-12.339-6.4907-22.5308-15.2236-22.7639-.1013-.0027-.2038-.0041-.3047-.0041Z"/><ellipse class="cls-4" cx="199.2632" cy="105.6654" rx="7.9597" ry="5.9318" transform="translate(88.4662 302.1215) rotate(-88.5141)"/><path d="M202.4412,342.0131c-.639-23.1931,1.0789-37.3066,5.2528-43.1477l.1067-.1484a12.3394,12.3394,0,0,0,2.6462-7.4576,11.5693,11.5693,0,0,0-2.4517-6.3925l-.0916-.1244c-4.07-5.596-5.4737-19.7828-4.2919-43.3726l3.21.1629c-1.404,28.0268,1.2233,37.9282,3.6756,41.2995l.0791.108a14.6764,14.6764,0,0,1,3.083,8.2118,15.4223,15.4223,0,0,1-3.2619,9.4706l-.0948.1314c-3.695,5.1715-5.2591,19.0229-4.649,41.1694Z"/><path d="M130.73,199.139l-5.265-24.0888,1.5093-.3341,6.096,11.4273c1.4118,2.6476,2.5861,5.0479,3.6338,7.4014l.0238-.0424c-.83-3.1888-1.5025-6.1121-2.3228-9.8652l-2.2028-10.0785,1.3034-.2885,5.2649,24.0888-1.3983.31-6.0724-11.47c-1.3326-2.5155-2.6491-5.1088-3.76-7.5986l-.04.0466c.7434,3.02,1.4081,5.9079,2.283,9.9111l2.25,10.2932Z"/><path d="M141.0091,197.0132l.2982-3.3632a24.9973,24.9973,0,0,1-3.3594-8.5863c-1.6638-7.6124-.6047-13.0554,2.1924-13.6746a3.35,3.35,0,0,1,3.0833,1.3036l.3048-3.1024,1.1238,1.1-.3137,3.2918a25.1336,25.1336,0,0,1,3.32,8.5573c1.8357,8.3992.461,13.1626-2.0973,13.7289a3.425,3.425,0,0,1-3.14-1.3288l-.3291,3.2957Zm2.0313-21.8819c-.7668-.9167-1.5746-1.4125-2.3692-1.2366-2.3359.5171-2.4494,5.6382-1.3481,10.6772a25.1806,25.1806,0,0,0,2.2081,6.2935l.0081-.04Zm-.4351,17.3694c.7665.9922,1.519,1.4625,2.3771,1.2726,2.24-.496,2.4726-5.3812,1.2852-10.8136a24.579,24.579,0,0,0-2.1141-6.0892l-.0475.0106Z"/><path d="M160.0493,191.5243a5.6413,5.6413,0,0,1-3,2.0506c-1.6207.3588-3.1586-.2747-4.6993-2.2945a23.3674,23.3674,0,0,1-3.4545-8.64c-1.5545-7.1871-.51-12.9262,3.0819-13.7213a3.8213,3.8213,0,0,1,2.9113.5168l.2213,2.6113a3.2539,3.2539,0,0,0-2.5944-.5122c-2.6062.577-3.51,4.5991-2.1895,10.639,1.3358,6.1113,3.7614,9.3588,6.2562,8.8065a2.4956,2.4956,0,0,0,1.7031-1.0511l-1.57-7.1841-2.1774.482-.5468-2.5015,3.5278-.781Z"/><path d="M165.4736,179.6072l-4.1635.9217,1.8983,8.6852,4.64-1.0272.57,2.6088-6.0226,1.3333L157.1313,168.04l5.7842-1.28.57,2.6089-4.4019.9744,1.6639,7.613,4.1635-.9217Z"/><path d="M170.213,190.3985,164.9481,166.31l1.5093-.3342,6.096,11.4274c1.4117,2.6476,2.586,5.0479,3.6338,7.4013l.0237-.0424c-.83-3.1888-1.5025-6.112-2.3228-9.8651l-2.2028-10.0785,1.3034-.2885,5.2649,24.0888-1.3983.31-6.0724-11.47c-1.3325-2.5155-2.6491-5.1088-3.76-7.5986l-.04.0466c.7433,3.02,1.408,5.9079,2.283,9.9111l2.25,10.2931Z"/><path d="M175.4729,164.3169a6.4736,6.4736,0,0,1,2.417-1.06,3.0971,3.0971,0,0,1,3.3228,1.1,8.6334,8.6334,0,0,1,1.8192,4.0563c.5076,2.3228.27,4.5113-.6556,5.69l.0157.0719c1.1419.3464,2.7479,1.9771,3.529,5.5509a11.8,11.8,0,0,1,.149,5.0253,3.8614,3.8614,0,0,1-3.21,3.0716,7.5677,7.5677,0,0,1-2.2075.1888Zm3.5383,9.5583,1.2554-.2779c1.4618-.3236,1.945-2.2288,1.4372-4.5521-.6171-2.8236-1.8128-3.72-3.2111-3.4107a2.8569,2.8569,0,0,0-1.1766.485Zm2.5232,11.5442a3.448,3.448,0,0,0,1.1911-.114c1.43-.3166,2.4915-1.7877,1.7258-5.2907-.7185-3.2877-2.2708-4.3682-3.7806-4.034l-1.1439.2533Z"/><path d="M185.3964,161.7831l5.2649,24.0887-1.3823.3061-5.265-24.0888Z"/><path d="M187.8112,161.2485l1.3824-.306,4.6947,21.48,4.5763-1.0131.57,2.6089-5.9586,1.3191Z"/><path d="M195.31,159.5884l1.3823-.306,4.6948,21.48,4.5763-1.0131.57,2.6089-5.9587,1.3191Z"/><path d="M211.1514,169.4953l-4.1634.9217,1.8982,8.6852,4.64-1.0272.57,2.6089-6.0226,1.3332-5.2649-24.0888,5.7842-1.28.57,2.6088-4.4019.9745,1.6639,7.6129,4.1635-.9217Z"/><path d="M210.6962,156.5194a9.4068,9.4068,0,0,1,2.83-1.151,4.6982,4.6982,0,0,1,4.9946,2.0419c1.3826,1.7543,2.5482,4.4193,3.4,8.3146a24.1812,24.1812,0,0,1,.5054,9.7054c-.509,2.473-1.896,4.0544-3.978,4.5153a10.3545,10.3545,0,0,1-2.5728.27Zm6.0381,20.9952a4.0884,4.0884,0,0,0,1.4373-.1309c2.9556-.6542,3.7484-4.7267,2.3267-11.2314-1.226-5.686-3.4453-8.9791-6.3693-8.3318a3.8112,3.8112,0,0,0-1.55.68Z"/><path d="M229.55,165.4224l-4.1634.9217,1.8982,8.6853,4.64-1.0273.57,2.6089-6.0226,1.3332-5.2649-24.0888,5.7842-1.28.57,2.6088-4.4019.9745,1.6639,7.6129,4.1635-.9217Z"/><path d="M229.0945,152.4465a6.9224,6.9224,0,0,1,2.5444-1.0877,3.2008,3.2008,0,0,1,3.5282,1.28,10.9383,10.9383,0,0,1,1.842,4.3883c.6951,3.18.2664,5.486-.6745,6.594l.0234.1068c.9672.46,1.8345,2.0673,2.6356,4.5125,1.0836,3.2824,1.8458,5.5494,2.2712,6.4292l-1.43.3165c-.3233-.64-1.0148-2.6607-1.9728-5.5961-1.0443-3.2533-1.89-4.3777-3.1687-4.2066l-1.3029.2884,2.2809,10.436-1.3823.306Zm3.78,10.6661,1.4143-.3131c1.4778-.3272,2.017-2.3573,1.4154-5.1095-.6795-3.109-1.9774-4.2458-3.4474-3.9575a2.8008,2.8008,0,0,0-1.304.588Z"/></svg>
