<svg id="Layer_1" data-name="Layer 1" xmlns="http://www.w3.org/2000/svg" xmlns:xlink="http://www.w3.org/1999/xlink" width="100" height="140" viewBox="0 0 100 140"><defs><style>.cls-1,.cls-3{stroke:#000;stroke-miterlimit:10;}.cls-1{stroke-width:5px;}.cls-2{fill:#fff;}</style></defs><title>pic11</title><path class="cls-1" d="M43.61,132.78c0,.36-.75.52-1.37.67-1.78.42-2.9,0-4.33-.17-3.15-.35-4.49,1-5.09.17s.06-2.74,1.22-3.52c.53-.35,1.18-.47,4,.34C40.05,130.87,43.71,131.94,43.61,132.78Z"/><path class="cls-1" d="M66.27,129.17c-.17.32-.89.22-1.51.13-1.82-.25-2.71-1.05-4-1.71-2.82-1.46-4.56-.66-4.81-1.68s1-2.53,2.4-2.84c.62-.14,1.27,0,3.56,1.74C63.64,126.11,66.67,128.42,66.27,129.17Z"/><path d="M99.41,66.74A3,3,0,0,0,98,65.35a8.64,8.64,0,0,0-.91-.46,6.4,6.4,0,0,0,.7-.23h0l.38.09.21-.32a3.29,3.29,0,0,0-.24-2.34c-.72-.88-2.35-.36-3.93.14a10.92,10.92,0,0,0-2.44,1.13,4.46,4.46,0,0,0-1.2.87,9.11,9.11,0,0,1-3.44-2.75A8.14,8.14,0,0,1,86.28,60a16.76,16.76,0,0,1-1.38-4.78c-.11-.64-.22-1.26-.38-1.9a17.45,17.45,0,0,0-2.79-5.72,17.2,17.2,0,0,0-7.06-5.33l-.06.14A43,43,0,0,1,73,35.85a39.83,39.83,0,0,1-.62-10.74,36.16,36.16,0,0,1,3.56-12.56c1.74-4,3-5.26,2.31-6.65-.76-1.6-3.18-2.13-6.45-2.13A102.74,102.74,0,0,0,60,4.86C50.8,6.05,44.87,6.84,41.09,10c-1.74,1.08-3.47,2.21-5.16,3.38-2,1.35-3.32,2.38-4.53,3.28-1.4,1.05-2.6,2-4.32,3.07a66.89,66.89,0,0,1-7.35,4.15h0a1.19,1.19,0,0,0-.52.11,3.94,3.94,0,0,0-2.87,1.88c-.49,1-.1,2.28.6,4.63.88,2.94,1.33,4.41,1.49,4.9.38,1.11.64,1.82,1.91,5.31L21.16,43c.74,2,.77,2.11.85,2.37a62.76,62.76,0,0,1,1.69,6.52c.22,1,.4,2,.56,2.87a17,17,0,0,0-6.62,5.13,17.36,17.36,0,0,0-2.8,5.73c-.16.64-.26,1.25-.37,1.9a17.18,17.18,0,0,1-1.38,4.78,9.11,9.11,0,0,1-.89,1.52,8.92,8.92,0,0,1-3,2.53,6.21,6.21,0,0,0-1-.66,11.38,11.38,0,0,0-2.44-1.13c-1.58-.5-3.21-1-3.93-.14a3.29,3.29,0,0,0-.24,2.34l.21.33.38-.1h0c.18.07.43.15.7.23-.3.13-.6.28-.91.45A3,3,0,0,0,.59,79c-.26.59-.41,1.62.21,2,.4.27.77.09,1.29-.16l.67-.3.2-.09a3.76,3.76,0,0,0-.69,1.35,1.79,1.79,0,0,0,.3,1.84,1.28,1.28,0,0,0,.91.33,2.64,2.64,0,0,0,1.19-.32,2.67,2.67,0,0,0,1-1c.13-.19.27-.4.46-.65a11.09,11.09,0,0,1,1-1.18c0,.13,0,.29.05.41.08.68.19,1.61.94,2a1.78,1.78,0,0,0,1.33.09,1.48,1.48,0,0,0,.9-.7,1.3,1.3,0,0,0-.08-1.19c-.06-.16-.13-.35-.21-.6a6.6,6.6,0,0,1-.45-2.21,3,3,0,0,1,.1-.66,1.51,1.51,0,0,0,0-.8,9.91,9.91,0,0,0,3.29-2.8,9.19,9.19,0,0,0,1-1.7,18,18,0,0,0,1.46-5c.11-.63.21-1.22.36-1.83a16.82,16.82,0,0,1,2.61-5.34,15.82,15.82,0,0,1,6-4.68c.23,1.38.39,2.53.51,3.42a43,43,0,0,1,.63,7.55A15.4,15.4,0,0,1,25,71.52a14,14,0,0,1-1,2.3c-.27.52-.61,1.17-1.06,2.08l-1.91,4c-2.22,4.68-2.61,5.54-3.2,7a39.68,39.68,0,0,0-1.28,3.86A10.82,10.82,0,0,0,15.84,95a4,4,0,0,0,1,2.69,3.19,3.19,0,0,0,1.5.75,7.39,7.39,0,0,0,1.77.21,9.35,9.35,0,0,0,1.86-.2l0-.16h.21a18.56,18.56,0,0,0,6.22-1.41l12-3.41c.1.23.2.48.3.74l.24.56a53.24,53.24,0,0,1,2.1,5.49,22,22,0,0,1,.63,5.5,22.23,22.23,0,0,1-.21,2.9,30.6,30.6,0,0,1-1.66,6.52,107,107,0,0,1-7.24,14.48l.91.54a106.82,106.82,0,0,0,7.32-14.66,30.91,30.91,0,0,0,1.72-6.74,25.3,25.3,0,0,0,.22-3,23.15,23.15,0,0,0-.66-5.76,57.35,57.35,0,0,0-2.15-5.63l-.24-.57-.26-.63,22.29-6.36c.17.39.34.8.53,1.25l.23.56a56.76,56.76,0,0,1,2.11,5.5,22.59,22.59,0,0,1,.62,5.49,23.59,23.59,0,0,1-.2,2.9,30.77,30.77,0,0,1-1.67,6.52A105.75,105.75,0,0,1,58,123.56l.92.55a108.7,108.7,0,0,0,7.31-14.67A31.54,31.54,0,0,0,68,102.7a25.05,25.05,0,0,0,.21-3,23.18,23.18,0,0,0-.66-5.77,52.32,52.32,0,0,0-2.15-5.63l-.23-.56-.48-1.15L77.3,83A14.74,14.74,0,0,0,79,80.8c2.59-4.1,1.49-8.51,1.55-14.42.06-4.72-1.47-9.66-4.51-19.55-.39-1.25-.73-2.32-1-3.28a15.78,15.78,0,0,1,5.9,4.65,16.46,16.46,0,0,1,2.61,5.35c.15.6.26,1.2.36,1.82a17.63,17.63,0,0,0,1.47,5.05,9.65,9.65,0,0,0,1,1.71,10.07,10.07,0,0,0,3.9,3.09,1.55,1.55,0,0,0,.07.5,3,3,0,0,1,.1.67,6.69,6.69,0,0,1-.45,2.21c-.08.24-.15.44-.21.59a1.32,1.32,0,0,0-.08,1.2,1.5,1.5,0,0,0,.9.69A1.69,1.69,0,0,0,91.87,71c.75-.4.86-1.33.94-2,0-.13,0-.29,0-.42a12.2,12.2,0,0,1,1,1.18l.46.65a2.63,2.63,0,0,0,1,1,2.76,2.76,0,0,0,1.19.31,1.32,1.32,0,0,0,.91-.32,1.79,1.79,0,0,0,.3-1.84A3.76,3.76,0,0,0,97,68.22l.2.08.67.31c.52.25.89.42,1.29.16C99.82,68.36,99.67,67.33,99.41,66.74Z"/><path d="M9.14,82.37a.67.67,0,0,1-.51,0c-.26-.14-.33-.72-.38-1.19s-.15-1.28-.76-1.45-1.3.56-2.18,1.69c-.21.28-.37.51-.49.7-.28.4-.38.54-.64.67a1.11,1.11,0,0,1-.89.15s-.15-.16,0-.79c.35-1.36,2-2.24,2.67-2.62.36-.19.85-.46.59-1a.46.46,0,0,0-.43-.3A3.77,3.77,0,0,0,5,78.61l-.82.32c-.75.29-1,.39-1.24.46a5.93,5.93,0,0,0-.62.24c-.29.12-.52.23-.7.32l-.21.1a1.85,1.85,0,0,1,.14-.59,2,2,0,0,1,.94-.9,9.85,9.85,0,0,1,2.78-1c.36-.08.85-.2.78-.7s-.62-.48-.8-.46a5,5,0,0,1-1.49-.06A8.36,8.36,0,0,1,2.54,76a2.78,2.78,0,0,1,.11-.9c.26-.32,2,.22,2.79.48a10.25,10.25,0,0,1,2.23,1h0c.86.49,1,.67,1,.83s0,.14,0,.36a4,4,0,0,0-.13.87,7.44,7.44,0,0,0,.5,2.58l.23.64a2.44,2.44,0,0,1,.12.35A.52.52,0,0,1,9.14,82.37Z"/><path class="cls-2" d="M27.66,20.61c1.75-1.14,3-2.05,4.37-3.11,1.21-.9,2.57-1.92,4.5-3.26l2.11-1.42a13.92,13.92,0,0,0-2,6.28,16.21,16.21,0,0,1-2,6.58c-1.35,2.42-2.41,4.33-4.21,4.66a3.66,3.66,0,0,1-.57.05c-3.15,0-6.37-4.49-8.8-6A67.41,67.41,0,0,0,27.66,20.61Z"/><path class="cls-2" d="M24.73,51.64A60.32,60.32,0,0,0,23,45c-.09-.29-.11-.33-.87-2.41l-.83-2.28c-1.27-3.48-1.53-4.18-1.9-5.28-.16-.47-.61-1.94-1.48-4.86-.66-2.19-1-3.27-.67-3.85a2.46,2.46,0,0,1,1.36-1.1C19.75,31,21,36.18,22.17,40.62c2.54,9.56,4.12,13,4.62,19.07A44,44,0,0,1,26.55,69c.06-.68.08-1.38.1-2.14A43.16,43.16,0,0,0,26,59.1C25.78,57.44,25.44,54.94,24.73,51.64Z"/><path class="cls-2" d="M17.58,97c-.14-.14-.58-.55-.68-2a10.17,10.17,0,0,1,.61-3.84c.47-1.57.71-2.36,1.26-3.77s1-2.31,3.17-7c1.1-2.35,1.84-3.9,1.9-4,.44-.9.78-1.55,1.05-2.07A14.37,14.37,0,0,0,26,71.84c.12-.37.21-.72.29-1.06-.3,1.73-.67,3.36-1.09,4.87C21.92,81.32,15,94.34,19.39,97.59a6.53,6.53,0,0,1-.77-.14A2.35,2.35,0,0,1,17.58,97Z"/><path class="cls-2" d="M79.47,66.37c0,1.51,0,2.9.1,4.24.15,3.82.28,6.83-1.48,9.62A13.06,13.06,0,0,1,76.72,82l-29.06,8.3L41,92.24h0l0,0L28.1,95.91H28a17.72,17.72,0,0,1-5.85,1.35,3.81,3.81,0,0,1-2.08-.49c-2-1.37-.7-6.1.27-8.8a76.75,76.75,0,0,1,5.75-11.81l.06-.12,0-.13A46.58,46.58,0,0,0,27.84,59.6a54.58,54.58,0,0,0-2.58-11.92c-.6-2.06-1.29-4.39-2.07-7.33-1.34-5-2.52-10.16-3.51-15.28l.23-.11a12,12,0,0,1,3.14,2.43c2,1.91,4.34,4.06,6.85,4.06a3.84,3.84,0,0,0,.76-.07c2.28-.41,3.5-2.6,4.92-5.13l0-.06a17.2,17.2,0,0,0,2.12-7A12.6,12.6,0,0,1,40,12.73a10.47,10.47,0,0,1,1.75-1.89l1-.61-.05-.09a15.9,15.9,0,0,1,4.42-2A92.54,92.54,0,0,1,60.17,5.91l.21,0A96.7,96.7,0,0,1,71.8,4.83h0c3.94,0,5.16.83,5.49,1.52.23.47,0,1.07-.91,2.8C76,9.93,75.5,10.9,75,12.1A37.1,37.1,0,0,0,71.33,25,41,41,0,0,0,72,36a51.24,51.24,0,0,0,2.1,8.13c.28.87.6,1.86,1,3C78,56.91,79.52,61.81,79.47,66.37Z"/><path d="M36.39,50.18a9.53,9.53,0,0,0,6.56.56.34.34,0,0,0-.18-.66,8.83,8.83,0,0,1-6-.49c-.4-.19-.75.41-.35.59Z"/><image width="322" height="78" transform="matrix(0.12, -0.03, 0.05, 0.17, 32.57, 65.41)" xlink:href="pic111.png"/><ellipse class="cls-2" cx="40.22" cy="38.5" rx="5.41" ry="9.22"/><path d="M40.22,28.75c-3.28,0-5.94,4.37-5.94,9.75s2.66,9.75,5.94,9.75,5.93-4.36,5.93-9.75S43.5,28.75,40.22,28.75Zm0,18.44c-2.24,0-4.18-2.85-4.73-6.58a21,21,0,0,1,3.35-2.43,8.94,8.94,0,0,1,3-1.27,8,8,0,0,1,3.23.33c0,.41.05.83.05,1.26C45.09,43.21,42.86,47.19,40.22,47.19Z"/><ellipse class="cls-3" cx="41.28" cy="44.12" rx="2.23" ry="2.97"/><path d="M63.61,42a8.68,8.68,0,0,1-6.37,3.82c-.44,0-.44.73,0,.69a9.44,9.44,0,0,0,7-4.16c.25-.37-.35-.72-.59-.35Z"/><ellipse class="cls-2" cx="58.03" cy="34.47" rx="5.41" ry="9.22"/><path d="M58,24.72c-3.28,0-5.94,4.37-5.94,9.75s2.66,9.76,5.94,9.76S64,39.86,64,34.47,61.31,24.72,58,24.72Zm0,18.45c-2.24,0-4.18-2.86-4.73-6.59a20.49,20.49,0,0,1,3.35-2.42,8.85,8.85,0,0,1,3-1.28,8,8,0,0,1,3.23.33c0,.41,0,.83,0,1.26C62.9,39.19,60.67,43.17,58,43.17Z"/><ellipse class="cls-3" cx="59.09" cy="40.09" rx="2.23" ry="2.97"/><path d="M50.67,45.85c.22,1.45,1.42,2.6,1.91,4,.32.87.75,2.11.28,3-.28.53-.78.92-1.08,1.44s.38.74.6.35c.35-.63,1-1.1,1.24-1.79a3.68,3.68,0,0,0,0-2.08,10.22,10.22,0,0,0-.82-2.24c-.47-.94-1.27-1.76-1.42-2.83-.07-.44-.73-.25-.67.18Z"/></svg>
