<svg id="Layer_1" data-name="Layer 1" xmlns="http://www.w3.org/2000/svg" width="100" height="130" viewBox="0 0 100 130"><defs><style>.cls-1{fill:#fff;}.cls-2{fill:none;stroke:#000;stroke-miterlimit:10;}</style></defs><title>pic2</title><path d="M88.39,14.41a1.84,1.84,0,0,1-.35-.33,2.84,2.84,0,0,0-.46-.44,5.88,5.88,0,0,0-2-.86l-.57-.17c-.43-.11-.77-.2-1-.59a1.42,1.42,0,0,1,0-1.08,1.69,1.69,0,0,1,.8-1,2.24,2.24,0,0,1,2.07.37l.35.19a10.65,10.65,0,0,0-.37-1.41c-.09-.3-.17-.52-.25-.72A2.43,2.43,0,0,1,86.81,6a1.29,1.29,0,0,1,.76-.53,1.67,1.67,0,0,1,1.58.78,3.39,3.39,0,0,1,.67,1.27,1.93,1.93,0,0,0,.05-.2c.06-.28.1-.5.13-.68.09-.54.15-.93.58-1.09.66-.26,1.37.43,1.69,1a2.88,2.88,0,0,1,.32,1.84c0,.34-.09.65-.15,1L93,8.83h0l.14-.35.36,0A3.17,3.17,0,0,1,95.19,10c.28,1-1,2-2.27,3a11,11,0,0,1-2.21,1.27,4.5,4.5,0,0,1-1.34.45M91,6.75c0,.19-.07.43-.13.73s-.11.43-.16.61-.14.46-.33,1.2c-.08.32-.14.59-.2.82-.23.94-.31,1.29-.81,1.23s-.46-.6-.41-1c.09-.75.3-2.49-.56-3.51-.41-.47-.61-.44-.61-.44s-.32.34-.38.77a1.49,1.49,0,0,0,.18.86c.07.2.16.45.26.77.36,1.16.61,2,.27,2.45a.57.57,0,0,1-.15.16c-.47.39-1,.07-1.54-.21s-.88-.48-1.14-.35a.67.67,0,0,0-.29.39.66.66,0,0,0,0,.29l.35.1.62.18a6.72,6.72,0,0,1,2.26,1,3.92,3.92,0,0,1,.61.58c.14.16.16.18.27.21s.36,0,1.21-.34h0a10.09,10.09,0,0,0,2-1.16c.65-.5,2-1.52,1.91-1.89a2.52,2.52,0,0,0-.64-.59,8.79,8.79,0,0,0-1,.75,5.08,5.08,0,0,0-.87,1.12c-.08.15-.35.6-.79.38s-.25-.67-.12-1a9.64,9.64,0,0,0,.73-2.72A1.88,1.88,0,0,0,91.41,7,1.86,1.86,0,0,0,91,6.54,1.55,1.55,0,0,0,91,6.75Z"/><path d="M85.56,62.35c.07-4.48-1.74-9.18-5.35-18.56-1.72-4.5-2.73-6.41-3.57-10.43a30.49,30.49,0,0,1-.73-10.2,28.93,28.93,0,0,1,4.21-11.93c2.06-3.77,3.53-5,2.74-6.32-.9-1.51-3.77-2-7.65-2s-8.9.52-13.94,1c-11,1.13-18,1.88-22.46,4.87-2.05,1-4.1,2.1-6.1,3.21-2.32,1.28-3.94,2.25-5.38,3.12-1.65,1-3.07,1.84-5.11,2.91A86.94,86.94,0,0,1,13.51,22h0a1.79,1.79,0,0,0-.62.1,4.88,4.88,0,0,0-3.41,1.79c-.58.94-.12,2.17.72,4.4v0c1,2.77,1.56,4.16,1.75,4.62.45,1,.76,1.73,2.27,5l1,2.16c.88,1.92.91,2,1,2.25a50.16,50.16,0,0,1,2,6.19,70.09,70.09,0,0,1,1.49,7,31.76,31.76,0,0,1,.75,7.17,11.89,11.89,0,0,1-.72,4.49,11.53,11.53,0,0,1-1.22,2.18c-.33.5-.73,1.12-1.26,2l-2.06,3.48-.2.35c-2.63,4.44-3.1,5.26-3.79,6.67a32.77,32.77,0,0,0-1.52,3.67,8.35,8.35,0,0,0-.78,4,3.36,3.36,0,0,0,1.21,2.56,4,4,0,0,0,1.78.71A10.09,10.09,0,0,0,14,93a13.11,13.11,0,0,0,2.21-.19l0-.15h.25a26.61,26.61,0,0,0,7.37-1.34l58-13.26a14.75,14.75,0,0,0,2-2.06C86.79,72.15,85.48,68,85.56,62.35Z"/><path class="cls-1" d="M22.91,18.88c2.07-1.08,3.51-1.95,5.18-2.95,1.42-.85,3-1.82,5.33-3.09l2.5-1.36a11.44,11.44,0,0,0-2.33,6,13.29,13.29,0,0,1-2.36,6.25c-1.61,2.3-2.86,4.11-5,4.42a3.89,3.89,0,0,1-.68.05c-3.73,0-7.55-4.26-10.43-5.71C17.85,21.36,20.46,20.17,22.91,18.88Z"/><path class="cls-1" d="M19.43,48.35a48.78,48.78,0,0,0-2-6.29c-.11-.27-.13-.31-1-2.29l-1-2.16c-1.51-3.3-1.81-4-2.26-5-.18-.44-.7-1.82-1.74-4.58v0c-.78-2.08-1.14-3.1-.79-3.66a2.87,2.87,0,0,1,1.62-1c1.32,5.49,2.78,10.39,4.18,14.61,3,9.08,4.89,12.33,5.48,18.1a33.55,33.55,0,0,1-.28,8.81c.07-.65.09-1.31.12-2A33.5,33.5,0,0,0,21,55.44,70.34,70.34,0,0,0,19.43,48.35Z"/><path class="cls-1" d="M11,91.38c-.17-.13-.69-.52-.81-1.89a7.9,7.9,0,0,1,.73-3.65,32.28,32.28,0,0,1,1.49-3.58c.68-1.38,1.14-2.19,3.75-6.61l.21-.35,2.05-3.47c.53-.85.92-1.46,1.24-2a12.69,12.69,0,0,0,1.31-2.33,10,10,0,0,0,.34-1A38.16,38.16,0,0,1,20,71.15C16.1,76.54,7.86,88.9,13.11,92a8.49,8.49,0,0,1-.92-.13A3.15,3.15,0,0,1,11,91.38Z"/><path class="cls-1" d="M82.66,75.5A13,13,0,0,1,81,77.21L44.5,85.57,23.42,90.39h-.05l0,0a25.88,25.88,0,0,1-6.93,1.27,5.21,5.21,0,0,1-2.47-.47c-2.41-1.29-.83-5.79.33-8.35a69,69,0,0,1,6.8-11.22l.08-.11,0-.12a35.78,35.78,0,0,0,1.94-15.51c-.42-4.1-1.47-7-3.06-11.32-.71-2-1.53-4.17-2.45-7-1.59-4.77-3-9.65-4.16-14.51l.27-.11a14.3,14.3,0,0,1,3.72,2.32c2.41,1.8,5.14,3.85,8.12,3.85a5.29,5.29,0,0,0,.9-.07c2.7-.39,4.15-2.47,5.83-4.87l0,0a14,14,0,0,0,2.52-6.66A10.46,10.46,0,0,1,37.5,11.4a10.89,10.89,0,0,1,2.07-1.79L40.74,9l-.06-.09a21.76,21.76,0,0,1,5.24-1.87A133.46,133.46,0,0,1,61.43,4.93l.25,0c5-.51,9.75-1,13.53-1h0c4.67,0,6.12.79,6.52,1.45.26.44,0,1-1.08,2.65-.47.74-1.05,1.66-1.67,2.8a30,30,0,0,0-4.32,12.27,31.24,31.24,0,0,0,.74,10.45,40.49,40.49,0,0,0,2.5,7.73c.33.83.7,1.76,1.11,2.83,3.57,9.28,5.36,13.93,5.3,18.26,0,1.43,0,2.75.11,4C84.61,70,84.75,72.86,82.66,75.5Z"/><path d="M36.32,65.18l-.67-.93h0l.34,1L37.22,70l-.56.14-1.93-7.31.31-.09,3.66,4.18.64.89h0l-.34-1L37.8,62.13l.55-.15,1.93,7.32-.31.08Z"/><path d="M41.49,67.86a4.78,4.78,0,0,1-.67-1.07,10.45,10.45,0,0,1-.51-1.47,6.06,6.06,0,0,1-.2-2.91,1.72,1.72,0,0,1,1.25-1.36,1.69,1.69,0,0,1,.77,0,1.82,1.82,0,0,1,.67.3l.14-.69.47.26-.17.84a4.82,4.82,0,0,1,.66,1.06,8.74,8.74,0,0,1,.5,1.45,6,6,0,0,1,.2,2.9,1.72,1.72,0,0,1-1.27,1.36,1.61,1.61,0,0,1-1.4-.24l-.13.65-.47-.28Zm-.55-2.71a7.88,7.88,0,0,0,.32,1,4.4,4.4,0,0,0,.42.81l1-4.78a1.29,1.29,0,0,0-.5-.32.89.89,0,0,0-.56,0,1.18,1.18,0,0,0-.85,1A5.27,5.27,0,0,0,40.94,65.15Zm2.83-.75a8.62,8.62,0,0,0-.31-.94,4.49,4.49,0,0,0-.41-.79l-.95,4.77a1.33,1.33,0,0,0,.49.3,1,1,0,0,0,.54,0,1.19,1.19,0,0,0,.85-1A5.09,5.09,0,0,0,43.77,64.4Z"/><path d="M47.1,63.54l1.68-.45.83,3.17a1.37,1.37,0,0,1-.21.3,1.87,1.87,0,0,1-.3.26,2,2,0,0,1-.35.21,1.92,1.92,0,0,1-1.31.15,2,2,0,0,1-.87-.49,4.08,4.08,0,0,1-.77-1A8,8,0,0,1,45.2,64,6.42,6.42,0,0,1,45,62.26,3.73,3.73,0,0,1,45.17,61a2,2,0,0,1,.54-.84,1.82,1.82,0,0,1,.75-.42,2.82,2.82,0,0,1,.73-.12,1.7,1.7,0,0,1,.52,0l0,.8a1.71,1.71,0,0,0-1,0,1.4,1.4,0,0,0-.56.3,1.63,1.63,0,0,0-.4.64,3.35,3.35,0,0,0-.14,1,5.67,5.67,0,0,0,.22,1.44,6.06,6.06,0,0,0,.47,1.28,3.33,3.33,0,0,0,.58.84,1.52,1.52,0,0,0,.67.4,1.32,1.32,0,0,0,.71,0,1.28,1.28,0,0,0,.71-.47l-.53-2-1.22.1Z"/><path d="M48.83,59.21l2.72-.71.2.76-2.12.56.62,2.35,2-.51.2.76-1.95.52.67,2.56,2.17-.57.2.76-2.76.73Z"/><path d="M54.22,60.45l-.66-.93h0l.35,1,1.24,4.71-.56.14-1.93-7.31L53,58l3.66,4.17.63.89h0l-.34-1L55.7,57.4l.56-.15,1.93,7.32-.32.08Z"/><path d="M59,63.73a.75.75,0,0,1,0-.47.38.38,0,0,1,.25-.24.4.4,0,0,1,.35.08.74.74,0,0,1,.23.41.72.72,0,0,1,0,.46.4.4,0,0,1-.26.25.36.36,0,0,1-.34-.09A.75.75,0,0,1,59,63.73Z"/><path d="M59.19,56.48l.6-.16,1.48,5.62a2.57,2.57,0,0,1,.08,1.32.88.88,0,0,1-.66.64l-.14,0-.18,0h-.18l-.15,0L60,63.14a.84.84,0,0,0,.47,0,.41.41,0,0,0,.32-.41,2.74,2.74,0,0,0-.13-.85Z"/><path d="M61.1,56.05a2.84,2.84,0,0,1,.55-.28c.21-.07.41-.14.62-.19a2.61,2.61,0,0,1,.69-.09,1.66,1.66,0,0,1,.71.18,1.82,1.82,0,0,1,.63.56,3.21,3.21,0,0,1,.47,1.05,3.58,3.58,0,0,1,.13,1.16,2,2,0,0,1-.25.85,1.57,1.57,0,0,1-.51.57,2.15,2.15,0,0,1-.69.31l-.12,0-.17,0-.18,0h-.13L63.58,63l-.6.16Zm1.38.27-.36.1a1.29,1.29,0,0,0-.26.12l.79,3h.12l.17,0,.17,0,.11,0a2.11,2.11,0,0,0,.47-.19,1.13,1.13,0,0,0,.36-.36,1.21,1.21,0,0,0,.18-.58,2.41,2.41,0,0,0-.09-.84,2.27,2.27,0,0,0-.3-.68,1.29,1.29,0,0,0-.41-.37,1,1,0,0,0-.48-.13A1.24,1.24,0,0,0,62.48,56.32Z"/><path d="M67.6,58.12l1.68-.44.83,3.17a1.37,1.37,0,0,1-.21.3,2.55,2.55,0,0,1-.3.26,2.5,2.5,0,0,1-.35.21,3.44,3.44,0,0,1-.37.14,2,2,0,0,1-.94,0,1.94,1.94,0,0,1-.87-.5,3.85,3.85,0,0,1-.77-1,7.89,7.89,0,0,1-.6-1.62,6.3,6.3,0,0,1-.25-1.76,4,4,0,0,1,.21-1.29,2.2,2.2,0,0,1,.55-.85,1.88,1.88,0,0,1,.75-.42,3.24,3.24,0,0,1,.72-.11,1.64,1.64,0,0,1,.52,0l0,.8a1.75,1.75,0,0,0-1,0,1.48,1.48,0,0,0-.56.31,1.5,1.5,0,0,0-.4.64,3.26,3.26,0,0,0-.14,1,5.67,5.67,0,0,0,.22,1.44,6.27,6.27,0,0,0,.47,1.28,3.09,3.09,0,0,0,.58.83,1.54,1.54,0,0,0,.67.41,1.32,1.32,0,0,0,.71,0,1.22,1.22,0,0,0,.71-.46l-.53-2-1.22.11Z"/><path d="M40,27.22c-3.11,0-5.63,4.14-5.63,9.26s2.52,9.26,5.63,9.26,5.64-4.15,5.64-9.26S43.16,27.22,40,27.22Z"/><path d="M57,22.79c-3.11,0-5.63,4.15-5.63,9.26s2.52,9.26,5.63,9.26,5.64-4.15,5.64-9.26S60.07,22.79,57,22.79Z"/><path d="M59.4,19.62a8.25,8.25,0,0,0-7.06.48c-.34.19-.69-.3-.35-.49a8.89,8.89,0,0,1,7.66-.54c.36.14.11.69-.25.55Z"/><path d="M50,42.77c.18,1.36,1.27,2.4,1.76,3.67a5.69,5.69,0,0,1,.53,2.38c-.09.84-.83,1.34-1.22,2-.19.34.33.65.52.31.33-.6.94-1,1.18-1.69a3.43,3.43,0,0,0,0-1.93,9.86,9.86,0,0,0-.82-2.24,8.56,8.56,0,0,1-1.3-2.53c-.05-.38-.66-.39-.61,0Z"/><path class="cls-1" d="M57,23.8c2.51,0,4.63,3.78,4.63,8.25S59.46,40.3,57,40.3s-4.63-3.78-4.63-8.25S54.44,23.8,57,23.8"/><ellipse cx="57.96" cy="34.57" rx="2.21" ry="2.92"/><path class="cls-1" d="M40,28.23c2.51,0,4.63,3.78,4.63,8.25S42.55,44.73,40,44.73,35.41,41,35.41,36.48s2.12-8.25,4.63-8.25"/><ellipse cx="41.25" cy="39.6" rx="2.21" ry="2.92"/><path d="M42.3,22.77a8.24,8.24,0,0,0-6.74,2.16c-.28.26-.74-.14-.45-.4a8.9,8.9,0,0,1,7.31-2.36c.38,0,.27.65-.12.6Z"/><path class="cls-2" d="M78.77,39.78c2-1.61,11.69-9.81,11-21a19,19,0,0,0-1-5"/><path d="M11.61,33.41a1.84,1.84,0,0,0,.35-.33,2.84,2.84,0,0,1,.46-.44,5.88,5.88,0,0,1,2-.86l.57-.17c.43-.11.77-.2,1-.59A1.42,1.42,0,0,0,16,29.94a1.69,1.69,0,0,0-.8-1,2.24,2.24,0,0,0-2.07.37l-.35.19a10.65,10.65,0,0,1,.37-1.41c.09-.3.17-.52.25-.72A2.43,2.43,0,0,0,13.19,25a1.29,1.29,0,0,0-.76-.53,1.67,1.67,0,0,0-1.58.78,3.39,3.39,0,0,0-.67,1.27,1.93,1.93,0,0,1,0-.2c-.06-.28-.1-.5-.13-.68-.09-.54-.15-.93-.58-1.09-.66-.26-1.37.43-1.69.95a2.88,2.88,0,0,0-.32,1.84c0,.34.09.65.15.95L7,27.83H7l-.14-.35-.36,0A3.17,3.17,0,0,0,4.81,29c-.28,1,1,2,2.27,3A11,11,0,0,0,9.29,33.2a4.5,4.5,0,0,0,1.34.45M9,25.75c0,.19.07.43.13.73s.11.43.16.61.14.46.33,1.2c.08.32.14.59.2.82.23.94.31,1.29.81,1.23s.46-.6.41-1c-.09-.75-.3-2.49.56-3.51.41-.47.61-.44.61-.44s.32.34.38.77a1.49,1.49,0,0,1-.18.86c-.07.2-.16.45-.26.77-.36,1.16-.61,2-.27,2.45a.57.57,0,0,0,.15.16c.47.39,1,.07,1.54-.21s.88-.48,1.14-.35a.67.67,0,0,1,.29.39.66.66,0,0,1,0,.29,2.26,2.26,0,0,1-.35.1l-.62.18a6.72,6.72,0,0,0-2.26,1,3.92,3.92,0,0,0-.61.58c-.14.16-.16.18-.27.21s-.36,0-1.21-.34h0a10.09,10.09,0,0,1-2-1.16c-.65-.5-2-1.52-1.91-1.89a2.52,2.52,0,0,1,.64-.59,8.79,8.79,0,0,1,1,.75,5.08,5.08,0,0,1,.87,1.12c.08.15.35.6.79.38s.25-.67.12-1a9.64,9.64,0,0,1-.73-2.72A1.88,1.88,0,0,1,8.59,26,1.86,1.86,0,0,1,9,25.54,1.55,1.55,0,0,1,9,25.75Z"/><path class="cls-2" d="M21.23,58.78c-2-1.61-11.69-9.81-11-21a19,19,0,0,1,1-5"/><path d="M32.48,120.13a9.48,9.48,0,0,0-2.86,1.73c-3.7,2.83-4.7,3.94-4.26,4.78a1.08,1.08,0,0,0,1,.47,7.14,7.14,0,0,0,.92-.08,7.68,7.68,0,0,0,3.09-1.21c.27-.16.55-.32.85-.47a8.58,8.58,0,0,1,3.09-.91c.79-.11,1.53-.21,1.73-1a2.15,2.15,0,0,0-.37-1.59,3.91,3.91,0,0,0-2.19-1.7"/><path d="M32.27,120.8c-.05-2-.05-4,0-6a115.94,115.94,0,0,1,4-27.12l1,.26a114,114,0,0,0-4,26.89c-.05,2-.05,4,0,6Z"/><path d="M75.56,112.13a9.48,9.48,0,0,1,2.86,1.73c3.7,2.83,4.7,3.94,4.26,4.78a1.07,1.07,0,0,1-1,.47,7.14,7.14,0,0,1-.92-.08,7.68,7.68,0,0,1-3.09-1.21c-.27-.16-.55-.32-.85-.47a8.58,8.58,0,0,0-3.09-.91c-.79-.11-1.53-.21-1.73-1a2.15,2.15,0,0,1,.37-1.59,3.91,3.91,0,0,1,2.19-1.7"/><path d="M75.77,112.8l-1,0c0-2,0-4,0-6a114,114,0,0,0-4-26.89l1-.26a115.94,115.94,0,0,1,4,27.12C75.82,108.77,75.82,110.79,75.77,112.8Z"/></svg>
