<svg id="Layer_1" data-name="Layer 1" xmlns="http://www.w3.org/2000/svg" width="80" height="130" viewBox="0 0 80 130"><defs><style>.cls-1{fill:#fff;}.cls-2{fill:none;stroke:#000;stroke-miterlimit:10;}</style></defs><title>pic3</title><path d="M70.83,61.35c0-4.48-1.4-9.18-4.29-18.56-1.39-4.5-2.19-6.41-2.87-10.43a37.75,37.75,0,0,1-.58-10.2,34.18,34.18,0,0,1,3.37-11.93c1.66-3.77,2.83-5,2.2-6.32-.72-1.51-3-2-6.13-2a96.09,96.09,0,0,0-11.17,1C42.59,4.06,37,4.81,33.37,7.8c-1.65,1-3.29,2.1-4.9,3.21-1.85,1.28-3.16,2.25-4.3,3.12-1.33,1-2.47,1.84-4.1,2.91a63.79,63.79,0,0,1-7,3.94h0a1.24,1.24,0,0,0-.5.1,3.77,3.77,0,0,0-2.72,1.79c-.47.94-.1,2.17.57,4.4v0c.83,2.77,1.25,4.16,1.4,4.62.36,1,.61,1.73,1.82,5l.79,2.16c.7,1.92.73,2,.81,2.25a57.58,57.58,0,0,1,1.6,6.19c.67,3.1,1,5.45,1.2,7a40.18,40.18,0,0,1,.6,7.17,14.5,14.5,0,0,1-.58,4.49,12.67,12.67,0,0,1-1,2.18c-.26.5-.58,1.12-1,2-.06.11-.56,1.17-1.65,3.48l-.17.35c-2.1,4.44-2.48,5.26-3,6.67S10.47,83,10,84.56a10.4,10.4,0,0,0-.63,4,3.76,3.76,0,0,0,1,2.56,3,3,0,0,0,1.43.71,6.53,6.53,0,0,0,1.67.2,8.4,8.4,0,0,0,1.77-.19l0-.15h.21a17.58,17.58,0,0,0,5.9-1.34L67.75,77.1A13.15,13.15,0,0,0,69.35,75C71.81,71.15,70.76,67,70.83,61.35Z"/><path class="cls-1" d="M20.62,17.88c1.66-1.08,2.81-1.95,4.15-2.95,1.14-.85,2.43-1.82,4.27-3.09.67-.46,1.33-.91,2-1.36a13.21,13.21,0,0,0-1.87,6,15.47,15.47,0,0,1-1.9,6.25C26,25,25,26.81,23.29,27.12a2.47,2.47,0,0,1-.54.05c-3,0-6.05-4.26-8.36-5.71A65.14,65.14,0,0,0,20.62,17.88Z"/><path class="cls-1" d="M17.84,47.35a57.79,57.79,0,0,0-1.63-6.29c-.09-.27-.1-.31-.82-2.29l-.8-2.16c-1.2-3.3-1.45-4-1.8-5-.15-.44-.57-1.82-1.4-4.58v0c-.62-2.08-.91-3.1-.63-3.66a2.36,2.36,0,0,1,1.29-1c1.07,5.49,2.23,10.39,3.36,14.61C17.82,46,19.32,49.22,19.79,55a42.4,42.4,0,0,1-.22,8.81c.05-.65.07-1.31.09-2a42.2,42.2,0,0,0-.61-7.33C18.83,52.86,18.51,50.48,17.84,47.35Z"/><path class="cls-1" d="M11,90.38c-.13-.13-.54-.52-.64-1.89A9.51,9.51,0,0,1,11,84.84c.45-1.49.67-2.23,1.19-3.58s.92-2.19,3-6.61l.17-.35c1-2.16,1.58-3.36,1.64-3.47.42-.85.74-1.46,1-2a14.43,14.43,0,0,0,1-2.33c.11-.35.2-.69.28-1-.29,1.64-.64,3.19-1,4.62C15.17,75.54,8.56,87.9,12.77,91a5.71,5.71,0,0,1-.74-.13A2.29,2.29,0,0,1,11,90.38Z"/><path class="cls-1" d="M68.5,74.5a12.44,12.44,0,0,1-1.3,1.71L37.92,84.57,21,89.39h0l0,0a17,17,0,0,1-5.54,1.27,3.47,3.47,0,0,1-2-.47c-1.94-1.29-.67-5.79.26-8.35a73.58,73.58,0,0,1,5.45-11.22l.06-.11,0-.12a44.26,44.26,0,0,0,1.55-15.51,51.76,51.76,0,0,0-2.45-11.32c-.58-2-1.23-4.17-2-7C15.1,31.86,14,27,13,22.12l.22-.11a11.46,11.46,0,0,1,3,2.32c1.93,1.8,4.12,3.85,6.51,3.85a3.51,3.51,0,0,0,.72-.07c2.16-.39,3.32-2.47,4.66-4.87l0,0a16.25,16.25,0,0,0,2-6.66,12,12,0,0,1,2.13-6.13A9.72,9.72,0,0,1,34,8.61L34.91,8l0-.09a15.3,15.3,0,0,1,4.2-1.87A86.76,86.76,0,0,1,51.49,3.93l.2,0a94.35,94.35,0,0,1,10.84-1h0c3.74,0,4.9.79,5.22,1.45.21.44,0,1-.86,2.65-.38.74-.84,1.66-1.34,2.8a35,35,0,0,0-3.46,12.27,38.75,38.75,0,0,0,.59,10.45,47.58,47.58,0,0,0,2,7.73c.27.83.57,1.76.9,2.83,2.85,9.28,4.29,13.93,4.24,18.26,0,1.43,0,2.75.09,4C70.06,69,70.18,71.86,68.5,74.5Z"/><path d="M32.54,26.22c-3.11,0-5.63,4.14-5.63,9.26s2.52,9.26,5.63,9.26,5.64-4.15,5.64-9.26-2.52-9.26-5.64-9.26Z"/><path d="M49.45,21.79c-3.11,0-5.63,4.15-5.63,9.26s2.52,9.26,5.63,9.26,5.64-4.15,5.64-9.26-2.52-9.26-5.64-9.26Z"/><path d="M28.92,45.94a9,9,0,0,0,6.21.53.3.3,0,0,0-.16-.58,8.36,8.36,0,0,1-5.74-.47c-.35-.16-.66.36-.31.52Z"/><path d="M54.78,38.23a8.29,8.29,0,0,1-6.07,3.64c-.39,0-.39.64,0,.6a8.9,8.9,0,0,0,6.59-3.94c.21-.32-.31-.62-.52-.3Z"/><path d="M42.48,41.77c.18,1.36,1.27,2.4,1.76,3.67a5.69,5.69,0,0,1,.53,2.38c-.09.84-.83,1.34-1.22,2-.19.34.33.65.52.31.33-.6.94-1,1.18-1.69a3.43,3.43,0,0,0,0-1.93,9.86,9.86,0,0,0-.82-2.24,8.56,8.56,0,0,1-1.3-2.53c-.05-.38-.66-.39-.61,0Z"/><path class="cls-1" d="M49.45,22.8c2.51,0,4.63,3.78,4.63,8.25S52,39.3,49.45,39.3s-4.63-3.78-4.63-8.25,2.12-8.25,4.63-8.25"/><ellipse cx="50.46" cy="33.57" rx="2.21" ry="2.92"/><path class="cls-1" d="M32.54,27.23c2.51,0,4.63,3.78,4.63,8.25s-2.12,8.25-4.63,8.25S27.91,40,27.91,35.48s2.12-8.25,4.63-8.25"/><ellipse cx="33.75" cy="38.6" rx="2.21" ry="2.92"/><path d="M28.82,65.18l-.67-.93h0l.34,1L29.72,70l-.56.14-1.93-7.31.31-.09,3.66,4.18.64.89h0l-.34-1L30.3,62.13l.55-.15,1.93,7.32-.31.08Z"/><path d="M34,67.86a4.78,4.78,0,0,1-.67-1.07,10.45,10.45,0,0,1-.51-1.47,6.06,6.06,0,0,1-.2-2.91,1.72,1.72,0,0,1,1.25-1.36,1.69,1.69,0,0,1,.77,0,1.82,1.82,0,0,1,.67.3l.14-.69.47.26-.17.84a4.82,4.82,0,0,1,.66,1.06,8.74,8.74,0,0,1,.5,1.45,6,6,0,0,1,.2,2.9,1.72,1.72,0,0,1-1.27,1.36,1.61,1.61,0,0,1-1.4-.24l-.13.65-.47-.28Zm-.55-2.71a7.88,7.88,0,0,0,.32,1,4.4,4.4,0,0,0,.42.81l1-4.78a1.29,1.29,0,0,0-.5-.32.89.89,0,0,0-.56,0,1.18,1.18,0,0,0-.85,1A5.27,5.27,0,0,0,33.44,65.15Zm2.83-.75a8.62,8.62,0,0,0-.31-.94,4.49,4.49,0,0,0-.41-.79l-.95,4.77a1.33,1.33,0,0,0,.49.3,1,1,0,0,0,.54,0,1.19,1.19,0,0,0,.85-1A5.09,5.09,0,0,0,36.27,64.4Z"/><path d="M39.6,63.54l1.68-.45.83,3.17a1.37,1.37,0,0,1-.21.3,1.87,1.87,0,0,1-.3.26,2,2,0,0,1-.35.21,1.92,1.92,0,0,1-1.31.15,2,2,0,0,1-.87-.49,4.08,4.08,0,0,1-.77-1A8,8,0,0,1,37.7,64a6.42,6.42,0,0,1-.25-1.77A3.73,3.73,0,0,1,37.67,61a2,2,0,0,1,.54-.84,1.82,1.82,0,0,1,.75-.42,2.82,2.82,0,0,1,.73-.12,1.7,1.7,0,0,1,.52,0l0,.8a1.71,1.71,0,0,0-1,0,1.4,1.4,0,0,0-.56.3,1.63,1.63,0,0,0-.4.64,3.35,3.35,0,0,0-.14,1,5.67,5.67,0,0,0,.22,1.44,6.06,6.06,0,0,0,.47,1.28,3.33,3.33,0,0,0,.58.84,1.52,1.52,0,0,0,.67.4,1.32,1.32,0,0,0,.71,0,1.28,1.28,0,0,0,.71-.47l-.53-2-1.22.1Z"/><path d="M41.33,59.21l2.72-.71.2.76-2.12.56.62,2.35,2-.51.2.76L43,62.94l.67,2.56,2.17-.57.2.76-2.76.73Z"/><path d="M46.72,60.45l-.66-.93h0l.35,1,1.24,4.71-.56.14-1.93-7.31.32-.08,3.66,4.17.63.89h0l-.34-1L48.2,57.4l.56-.15,1.93,7.32-.32.08Z"/><path d="M51.49,63.73a.75.75,0,0,1,0-.47.38.38,0,0,1,.25-.24.4.4,0,0,1,.35.08.74.74,0,0,1,.23.41.72.72,0,0,1,0,.46.4.4,0,0,1-.26.25.36.36,0,0,1-.34-.09A.75.75,0,0,1,51.49,63.73Z"/><path d="M51.69,56.48l.6-.16,1.48,5.62a2.57,2.57,0,0,1,.08,1.32.88.88,0,0,1-.66.64l-.14,0-.18,0h-.18l-.15,0-.08-.75a.84.84,0,0,0,.47,0,.41.41,0,0,0,.32-.41,2.74,2.74,0,0,0-.13-.85Z"/><path d="M53.6,56.05a2.84,2.84,0,0,1,.55-.28c.21-.07.41-.14.62-.19a2.61,2.61,0,0,1,.69-.09,1.66,1.66,0,0,1,.71.18,1.82,1.82,0,0,1,.63.56,3.21,3.21,0,0,1,.47,1.05,3.58,3.58,0,0,1,.13,1.16,2,2,0,0,1-.25.85,1.57,1.57,0,0,1-.51.57,2.15,2.15,0,0,1-.69.31l-.12,0-.17,0-.18,0h-.13L56.08,63l-.6.16Zm1.38.27-.36.1a1.29,1.29,0,0,0-.26.12l.79,3h.12l.17,0,.17,0,.11,0a2.11,2.11,0,0,0,.47-.19,1.13,1.13,0,0,0,.36-.36,1.21,1.21,0,0,0,.18-.58,2.41,2.41,0,0,0-.09-.84,2.27,2.27,0,0,0-.3-.68,1.29,1.29,0,0,0-.41-.37,1,1,0,0,0-.48-.13A1.24,1.24,0,0,0,55,56.32Z"/><path d="M60.1,58.12l1.68-.44.83,3.17a1.37,1.37,0,0,1-.21.3,2.55,2.55,0,0,1-.3.26,2.5,2.5,0,0,1-.35.21,3.44,3.44,0,0,1-.37.14,2,2,0,0,1-.94,0,1.94,1.94,0,0,1-.87-.5,3.85,3.85,0,0,1-.77-1,7.89,7.89,0,0,1-.6-1.62A6.3,6.3,0,0,1,58,56.85a4,4,0,0,1,.21-1.29,2.2,2.2,0,0,1,.55-.85,1.88,1.88,0,0,1,.75-.42,3.24,3.24,0,0,1,.72-.11,1.64,1.64,0,0,1,.52,0l0,.8a1.75,1.75,0,0,0-1,0,1.48,1.48,0,0,0-.56.31,1.5,1.5,0,0,0-.4.64,3.26,3.26,0,0,0-.14,1,5.67,5.67,0,0,0,.22,1.44,6.27,6.27,0,0,0,.47,1.28,3.09,3.09,0,0,0,.58.83,1.54,1.54,0,0,0,.67.41,1.32,1.32,0,0,0,.71,0,1.22,1.22,0,0,0,.71-.46l-.53-2-1.22.11Z"/><path d="M21,121.13a9.48,9.48,0,0,0-2.86,1.73c-3.7,2.83-4.7,3.94-4.26,4.78a1.08,1.08,0,0,0,1,.47,7.14,7.14,0,0,0,.92-.08,7.68,7.68,0,0,0,3.09-1.21c.27-.16.55-.32.85-.47a8.58,8.58,0,0,1,3.09-.91c.79-.11,1.53-.21,1.73-1a2.15,2.15,0,0,0-.37-1.59,3.91,3.91,0,0,0-2.19-1.7"/><path d="M20.77,121.8c-.05-2-.05-4,0-6a115.94,115.94,0,0,1,4-27.12l1,.26a114,114,0,0,0-4,26.89c-.05,2-.05,4,0,6Z"/><path d="M64.06,111.13a9.48,9.48,0,0,1,2.86,1.73c3.7,2.83,4.7,3.94,4.26,4.78a1.07,1.07,0,0,1-1,.47,7.14,7.14,0,0,1-.92-.08,7.68,7.68,0,0,1-3.09-1.21c-.27-.16-.55-.32-.85-.47a8.58,8.58,0,0,0-3.09-.91c-.79-.11-1.53-.21-1.73-1a2.15,2.15,0,0,1,.37-1.59,3.91,3.91,0,0,1,2.19-1.7"/><path d="M64.27,111.8l-1,0c0-2,0-4,0-6a114,114,0,0,0-4-26.89l1-.26a115.94,115.94,0,0,1,4,27.12C64.32,107.77,64.32,109.79,64.27,111.8Z"/><path d="M72.89,56.77a1.84,1.84,0,0,0-.35.33,2.84,2.84,0,0,1-.46.44,5.88,5.88,0,0,1-2,.86l-.57.17c-.43.11-.77.2-1,.59a1.42,1.42,0,0,0,0,1.08,1.69,1.69,0,0,0,.8,1,2.24,2.24,0,0,0,2.07-.37l.35-.19a10.65,10.65,0,0,1-.37,1.41c-.09.29-.17.52-.25.72a2.54,2.54,0,0,0-.23,1.34,2.6,2.6,0,0,0,.41,1.1,1.29,1.29,0,0,0,.76.53A1.67,1.67,0,0,0,73.65,65a3.39,3.39,0,0,0,.67-1.27,1.93,1.93,0,0,1,.05.2c.06.28.1.5.13.68.09.54.15.93.58,1.09.66.26,1.37-.43,1.69-1a2.89,2.89,0,0,0,.32-1.84c0-.34-.09-.65-.15-1l.56.41h0l.14.35.36,0a3.17,3.17,0,0,0,1.69-1.47c.28-1-1-2-2.27-3A11,11,0,0,0,75.21,57a4.22,4.22,0,0,0-1.34-.45m1.62,7.9c0-.2-.07-.43-.13-.73s-.11-.43-.16-.61-.14-.46-.33-1.2c-.08-.32-.14-.59-.2-.82-.23-.94-.31-1.29-.81-1.23s-.46.6-.41,1c.09.74.3,2.49-.56,3.51-.41.47-.61.44-.61.44S72,64.43,71.9,64a1.49,1.49,0,0,1,.18-.86c.07-.2.16-.45.26-.77.36-1.16.61-2,.27-2.45a.57.57,0,0,0-.15-.16c-.47-.39-1-.07-1.54.21s-.88.48-1.14.35a.67.67,0,0,1-.29-.39.66.66,0,0,1,0-.29l.35-.1.62-.18a6.72,6.72,0,0,0,2.26-1,3.92,3.92,0,0,0,.61-.58c.14-.16.16-.18.27-.21s.36,0,1.21.34h0a10.09,10.09,0,0,1,2,1.16c.65.5,2,1.52,1.91,1.89a2.52,2.52,0,0,1-.64.59,10.25,10.25,0,0,1-1-.75,5.08,5.08,0,0,1-.87-1.12c-.08-.15-.35-.6-.79-.38s-.25.67-.12,1A9.64,9.64,0,0,1,76.08,63a1.88,1.88,0,0,1-.17,1.22,1.86,1.86,0,0,1-.38.43A1.55,1.55,0,0,1,75.49,64.43Z"/><path class="cls-2" d="M63.27,31.4c2,1.61,11.69,9.81,11,21a19,19,0,0,1-1,5"/><path d="M7.11,68.77a1.84,1.84,0,0,1,.35.33,2.84,2.84,0,0,0,.46.44,5.88,5.88,0,0,0,2,.86l.57.17c.43.11.77.2,1,.59a1.42,1.42,0,0,1,.05,1.08,1.69,1.69,0,0,1-.8,1,2.24,2.24,0,0,1-2.07-.37l-.35-.19a10.65,10.65,0,0,0,.37,1.41c.09.29.17.52.25.72a2.54,2.54,0,0,1,.23,1.34,2.6,2.6,0,0,1-.41,1.1,1.29,1.29,0,0,1-.76.53A1.67,1.67,0,0,1,6.35,77a3.39,3.39,0,0,1-.67-1.27,1.93,1.93,0,0,0,0,.2c-.06.28-.1.5-.13.68-.09.54-.15.93-.58,1.09-.66.26-1.37-.43-1.69-1a2.89,2.89,0,0,1-.32-1.84c0-.34.09-.65.15-1l-.56.41h0l-.14.35-.36,0A3.17,3.17,0,0,1,.31,73.22c-.28-1,1-2,2.27-3A11,11,0,0,1,4.79,69a4.22,4.22,0,0,1,1.34-.45m-1.62,7.9c0-.2.07-.43.13-.73s.11-.43.16-.61.14-.46.33-1.2c.08-.32.14-.59.2-.82.23-.94.31-1.29.81-1.23s.46.6.41,1c-.09.74-.3,2.49.56,3.51.41.47.61.44.61.44S8,76.43,8.1,76a1.49,1.49,0,0,0-.18-.86c-.07-.2-.16-.45-.26-.77-.36-1.16-.61-2-.27-2.45a.57.57,0,0,1,.15-.16c.47-.39,1-.07,1.54.21s.88.48,1.14.35a.67.67,0,0,0,.29-.39.66.66,0,0,0,0-.29,2.26,2.26,0,0,0-.35-.1l-.62-.18a6.72,6.72,0,0,1-2.26-1,3.92,3.92,0,0,1-.61-.58c-.14-.16-.16-.18-.27-.21s-.36,0-1.21.34h0a10.09,10.09,0,0,0-2,1.16c-.65.5-2,1.52-1.91,1.89a2.52,2.52,0,0,0,.64.59,10.25,10.25,0,0,0,1-.75,5.08,5.08,0,0,0,.87-1.12c.08-.15.35-.6.79-.38s.25.67.12,1A9.64,9.64,0,0,0,3.92,75a1.88,1.88,0,0,0,.17,1.22,1.86,1.86,0,0,0,.38.43A1.55,1.55,0,0,0,4.51,76.43Z"/><path class="cls-2" d="M16.73,43.4c-2,1.61-11.69,9.81-11,21a19,19,0,0,0,1,5"/></svg>
