<svg id="Layer_1" data-name="Layer 1" xmlns="http://www.w3.org/2000/svg" width="80" height="130" viewBox="0 0 80 130"><defs><style>.cls-1{fill:#fff;}.cls-2{fill:none;stroke:#000;stroke-linecap:round;stroke-miterlimit:10;}</style></defs><title>pic4</title><path d="M76.41,61.35c.07-4.48-1.74-9.18-5.34-18.56-1.73-4.5-2.74-6.41-3.58-10.43a30.49,30.49,0,0,1-.73-10.2A28.93,28.93,0,0,1,71,10.23c2.06-3.77,3.53-5,2.74-6.32-.9-1.51-3.76-2-7.65-2s-8.9.52-13.94,1c-10.95,1.13-18,1.88-22.45,4.87-2.06,1-4.1,2.1-6.11,3.21-2.32,1.28-3.94,2.25-5.37,3.12-1.65,1-3.08,1.84-5.12,2.91A86.94,86.94,0,0,1,4.36,21h0a1.79,1.79,0,0,0-.62.1,4.83,4.83,0,0,0-3.4,1.79c-.59.94-.13,2.17.71,4.4v0c1,2.77,1.56,4.16,1.76,4.62.44,1,.75,1.73,2.26,5l1,2.16c.88,1.92.91,2,1,2.25a48.51,48.51,0,0,1,2,6.19c.83,3.1,1.23,5.45,1.5,7a32.24,32.24,0,0,1,.74,7.17,11.7,11.7,0,0,1-.72,4.49,11.53,11.53,0,0,1-1.22,2.18c-.32.5-.72,1.12-1.26,2l-2,3.48-.21.35c-2.63,4.44-3.1,5.26-3.79,6.67A34.77,34.77,0,0,0,.53,84.56a8.48,8.48,0,0,0-.78,4A3.39,3.39,0,0,0,1,91.12a4,4,0,0,0,1.78.71,10.15,10.15,0,0,0,2.09.2A13.11,13.11,0,0,0,7,91.84l0-.15h.25a26.61,26.61,0,0,0,7.37-1.34l58-13.26a14.75,14.75,0,0,0,2-2.06C77.65,71.15,76.34,67,76.41,61.35Z"/><path class="cls-1" d="M13.76,17.88c2.07-1.08,3.51-1.95,5.18-2.95,1.42-.85,3-1.82,5.33-3.09l2.5-1.36a11.44,11.44,0,0,0-2.33,6,13.29,13.29,0,0,1-2.36,6.25c-1.61,2.3-2.86,4.11-5,4.42a3.82,3.82,0,0,1-.68.05c-3.73,0-7.54-4.26-10.43-5.71C8.7,20.36,11.31,19.17,13.76,17.88Z"/><path class="cls-1" d="M10.29,47.35a50.58,50.58,0,0,0-2-6.29c-.11-.27-.13-.31-1-2.29l-1-2.16c-1.51-3.3-1.81-4-2.25-5-.19-.44-.71-1.82-1.74-4.58l0,0c-.78-2.08-1.14-3.1-.79-3.66a2.91,2.91,0,0,1,1.62-1c1.32,5.49,2.78,10.39,4.18,14.61,3,9.08,4.89,12.33,5.48,18.1a33.55,33.55,0,0,1-.28,8.81c.07-.65.1-1.31.12-2a33.5,33.5,0,0,0-.76-7.33C11.53,52.86,11.13,50.48,10.29,47.35Z"/><path class="cls-1" d="M1.81,90.38c-.17-.13-.68-.52-.81-1.89a7.9,7.9,0,0,1,.73-3.65,34.32,34.32,0,0,1,1.49-3.58C3.9,79.88,4.37,79.07,7,74.65l.21-.35,2.05-3.47c.53-.85.92-1.46,1.24-2a12.69,12.69,0,0,0,1.31-2.33,10,10,0,0,0,.34-1,40.1,40.1,0,0,1-1.29,4.62C7,75.54-1.29,87.9,4,91A8.86,8.86,0,0,1,3,90.86,3.15,3.15,0,0,1,1.81,90.38Z"/><path class="cls-1" d="M73.52,74.5a14.43,14.43,0,0,1-1.62,1.71L35.35,84.57,14.27,89.39h0l0,0a25.88,25.88,0,0,1-6.93,1.27,5.14,5.14,0,0,1-2.46-.47c-2.42-1.29-.84-5.79.32-8.35a69,69,0,0,1,6.8-11.22l.08-.11,0-.12A35.92,35.92,0,0,0,14,54.91c-.41-4.1-1.47-7-3.06-11.32-.71-2-1.52-4.17-2.45-7C6.87,31.86,5.47,27,4.3,22.12L4.57,22a14.3,14.3,0,0,1,3.72,2.32c2.41,1.8,5.14,3.85,8.12,3.85a5.49,5.49,0,0,0,.91-.07c2.69-.39,4.14-2.47,5.82-4.87l0,0a14,14,0,0,0,2.52-6.66,10.53,10.53,0,0,1,2.66-6.13,10.89,10.89,0,0,1,2.07-1.79L31.59,8l-.06-.09a21.76,21.76,0,0,1,5.24-1.87A133.46,133.46,0,0,1,52.28,3.93l.26,0c5-.51,9.74-1,13.53-1h0c4.66,0,6.11.79,6.51,1.45.26.44,0,1-1.08,2.65-.47.74-1,1.66-1.67,2.8a30,30,0,0,0-4.32,12.27,31.24,31.24,0,0,0,.74,10.45,40.49,40.49,0,0,0,2.5,7.73c.33.83.71,1.76,1.12,2.83,3.56,9.28,5.35,13.93,5.29,18.26,0,1.43,0,2.75.11,4C75.46,69,75.6,71.86,73.52,74.5Z"/><path d="M40.83,40.77c.19,1.36,1.27,2.4,1.76,3.67a5.54,5.54,0,0,1,.53,2.38c-.09.84-.83,1.34-1.22,2-.19.34.33.65.52.31.34-.6.94-1,1.18-1.69a3.34,3.34,0,0,0,0-1.93,9.86,9.86,0,0,0-.82-2.24,8.56,8.56,0,0,1-1.3-2.53c0-.38-.66-.39-.61,0Z"/><path d="M54.83,35.05a6.26,6.26,0,0,0-5.35-.79c-.28.09-.46-.34-.18-.43a6.83,6.83,0,0,1,5.81.85c.25.16,0,.53-.28.37Z"/><path d="M27.17,64.18l-.66-.93h0l.34,1L28.07,69l-.56.14-1.93-7.31.31-.09,3.67,4.18.63.89h0l-.33-1-1.24-4.69L29.2,61l1.94,7.32-.32.08Z"/><path d="M32.34,66.86a4.78,4.78,0,0,1-.67-1.07,10.45,10.45,0,0,1-.51-1.47,6.19,6.19,0,0,1-.2-2.91,1.73,1.73,0,0,1,1.26-1.36A1.64,1.64,0,0,1,33,60a1.87,1.87,0,0,1,.68.3l.13-.69.47.26-.17.84a4.82,4.82,0,0,1,.66,1.06,8.74,8.74,0,0,1,.5,1.45,6,6,0,0,1,.2,2.9,1.72,1.72,0,0,1-1.27,1.36,1.62,1.62,0,0,1-1.4-.24l-.13.65-.47-.28Zm-.55-2.71a7.88,7.88,0,0,0,.32,1,5.12,5.12,0,0,0,.42.81l.95-4.78a1.29,1.29,0,0,0-.5-.32.89.89,0,0,0-.56,0,1.16,1.16,0,0,0-.84,1A5.23,5.23,0,0,0,31.79,64.15Zm2.83-.75a8.62,8.62,0,0,0-.31-.94,4.49,4.49,0,0,0-.41-.79L33,66.44a1.41,1.41,0,0,0,.49.3,1,1,0,0,0,.54,0,1.18,1.18,0,0,0,.85-1A5.09,5.09,0,0,0,34.62,63.4Z"/><path d="M38,62.54l1.68-.45.83,3.17a1.37,1.37,0,0,1-.21.3,1.87,1.87,0,0,1-.3.26,2,2,0,0,1-.35.21,1.92,1.92,0,0,1-1.31.15,2.07,2.07,0,0,1-.87-.49,4.08,4.08,0,0,1-.77-1,8,8,0,0,1-.6-1.61,6.82,6.82,0,0,1-.25-1.77A3.73,3.73,0,0,1,36,60a2,2,0,0,1,.55-.84,1.79,1.79,0,0,1,.74-.42,2.82,2.82,0,0,1,.73-.12,1.67,1.67,0,0,1,.52,0l0,.8a1.71,1.71,0,0,0-1,0,1.3,1.3,0,0,0-.55.3,1.43,1.43,0,0,0-.4.64,3,3,0,0,0-.15,1,5.67,5.67,0,0,0,.22,1.44,6.06,6.06,0,0,0,.47,1.28,3.33,3.33,0,0,0,.58.84,1.52,1.52,0,0,0,.67.4,1.35,1.35,0,0,0,.72,0,1.32,1.32,0,0,0,.71-.47l-.53-2-1.22.1Z"/><path d="M39.68,58.21l2.73-.71.2.76-2.13.56.62,2.35,1.95-.51.2.76-2,.52L42,64.5l2.16-.57.2.76-2.76.73Z"/><path d="M45.07,59.45l-.66-.93h0l.35,1L46,64.26l-.56.14-1.93-7.31L43.8,57l3.66,4.17.63.89h0l-.34-1L46.55,56.4l.56-.15L49,63.57l-.31.08Z"/><path d="M49.84,62.73a.75.75,0,0,1,0-.47.38.38,0,0,1,.25-.24.4.4,0,0,1,.35.08.74.74,0,0,1,.23.41.72.72,0,0,1,0,.46.38.38,0,0,1-.26.25.36.36,0,0,1-.34-.09A.75.75,0,0,1,49.84,62.73Z"/><path d="M50.05,55.48l.59-.16,1.48,5.62a2.57,2.57,0,0,1,.08,1.32.88.88,0,0,1-.65.64l-.15,0-.18,0H51l-.15,0-.08-.75a.84.84,0,0,0,.47,0,.4.4,0,0,0,.32-.41,3,3,0,0,0-.12-.85Z"/><path d="M52,55.05a2.93,2.93,0,0,1,.56-.28,6.17,6.17,0,0,1,.61-.19,2.61,2.61,0,0,1,.69-.09,1.66,1.66,0,0,1,.71.18,1.82,1.82,0,0,1,.63.56,3,3,0,0,1,.47,1.05,3.58,3.58,0,0,1,.13,1.16,2.17,2.17,0,0,1-.24.85,1.69,1.69,0,0,1-.52.57,2.15,2.15,0,0,1-.69.31l-.12,0-.17,0-.18,0h-.12L54.43,62l-.6.16Zm1.38.27-.36.1a1.17,1.17,0,0,0-.25.12l.78,3h.13l.16,0,.17,0,.11,0a2.11,2.11,0,0,0,.47-.19,1.27,1.27,0,0,0,.37-.36,1.47,1.47,0,0,0,.18-.58,2.44,2.44,0,0,0-.1-.84,1.86,1.86,0,0,0-.3-.68,1.29,1.29,0,0,0-.41-.37,1,1,0,0,0-.47-.13A1.27,1.27,0,0,0,53.33,55.32Z"/><path d="M58.45,57.12l1.68-.44L61,59.85a1.37,1.37,0,0,1-.21.3,2.55,2.55,0,0,1-.3.26,2,2,0,0,1-.35.21,2.79,2.79,0,0,1-.37.14,2,2,0,0,1-.94,0,1.94,1.94,0,0,1-.87-.5,3.85,3.85,0,0,1-.77-1,7.89,7.89,0,0,1-.6-1.62,6.3,6.3,0,0,1-.25-1.76,3.69,3.69,0,0,1,.22-1.29,2.08,2.08,0,0,1,.54-.85,1.94,1.94,0,0,1,.75-.42,3.23,3.23,0,0,1,.73-.11,1.7,1.7,0,0,1,.52,0l0,.8a1.78,1.78,0,0,0-1,0,1.56,1.56,0,0,0-.56.31,1.5,1.5,0,0,0-.4.64A3.26,3.26,0,0,0,57,56a5.67,5.67,0,0,0,.22,1.44,6.27,6.27,0,0,0,.47,1.28,3.09,3.09,0,0,0,.58.83,1.54,1.54,0,0,0,.67.41,1.32,1.32,0,0,0,.71,0,1.19,1.19,0,0,0,.71-.46l-.53-2-1.22.11Z"/><path class="cls-2" d="M54.91,23.21c-5.85,2.95-7.07,10.14-7.07,10.14s5.84-3,9.94-1"/><path d="M27.44,41.36a6.67,6.67,0,0,1,5.05-2.64c.31,0,.35-.5,0-.49A7.19,7.19,0,0,0,27,41.1c-.18.25.22.51.41.26Z"/><path class="cls-2" d="M23.14,30.36c6.49.85,10,7.23,10,7.23s-6.49-.85-9.72,2.32"/><path d="M69.67,12.6a1.78,1.78,0,0,0-.07-.47,2.76,2.76,0,0,1-.09-.63,6,6,0,0,1,.43-2.1c.07-.23.14-.41.2-.56a1.28,1.28,0,0,0,.07-1.14A1.38,1.38,0,0,0,69.35,7a1.61,1.61,0,0,0-1.26.09c-.71.38-.81,1.26-.89,1.9,0,.12,0,.27,0,.4a11,11,0,0,1-.93-1.13c-.19-.24-.32-.44-.44-.61a2.46,2.46,0,0,0-2.1-1.26,1.21,1.21,0,0,0-.87.31,1.68,1.68,0,0,0-.28,1.74,3.52,3.52,0,0,0,.65,1.28L63,9.68l-.63-.29c-.49-.23-.85-.4-1.23-.15-.59.39-.44,1.37-.2,1.93a2.85,2.85,0,0,0,1.32,1.32,7.66,7.66,0,0,0,.86.43c-.25.07-.48.15-.66.22h0l-.36-.1-.2.31a3.14,3.14,0,0,0,.23,2.23c.69.83,2.23.34,3.73-.14a10.28,10.28,0,0,0,2.32-1.07,4.12,4.12,0,0,0,1.14-.83M61.92,10.3l.67.31a4.76,4.76,0,0,0,.59.22l1.17.43.78.31c.9.36,1.24.49,1.47,0s-.22-.72-.56-.9c-.66-.36-2.2-1.2-2.53-2.49-.16-.6,0-.75,0-.75a1.06,1.06,0,0,1,.86.14c.23.12.33.25.6.64.12.18.27.39.47.66.74,1,1.25,1.63,1.85,1.63a.76.76,0,0,0,.21,0c.58-.15.66-.8.72-1.37s.12-1,.37-1.14a.73.73,0,0,1,.49,0,.53.53,0,0,1,.25.15c0,.07-.07.21-.12.34s-.13.35-.21.61a6.88,6.88,0,0,0-.48,2.44,3.78,3.78,0,0,0,.13.83c.05.21.05.24,0,.34s-.17.32-1,.79h0a9.43,9.43,0,0,1-2.12,1c-.78.25-2.4.76-2.64.47a2.31,2.31,0,0,1-.12-.86A8.23,8.23,0,0,1,64,13.74a4.68,4.68,0,0,1,1.41-.05c.18,0,.69.06.77-.43s-.4-.59-.74-.67a9.83,9.83,0,0,1-2.64-1,1.89,1.89,0,0,1-.89-.85,1.81,1.81,0,0,1-.14-.57Z"/><path d="M69.78,40.26l-.31-.95c5.1-1.67,8.89-5.83,9.66-10.61,1.07-6.58-3.61-13.36-10.65-15.44l.29-1c7.51,2.22,12.49,9.49,11.35,16.56C79.29,34,75.23,38.48,69.78,40.26Z"/><path d="M10.33,26.6a1.78,1.78,0,0,1,.07-.47,2.76,2.76,0,0,0,.09-.63,6,6,0,0,0-.43-2.1c-.07-.23-.14-.41-.2-.56a1.28,1.28,0,0,1-.07-1.14,1.38,1.38,0,0,1,.86-.66,1.61,1.61,0,0,1,1.26.09c.71.38.81,1.26.89,1.9,0,.12,0,.27,0,.4a11,11,0,0,0,.93-1.13c.19-.24.32-.44.44-.61a2.46,2.46,0,0,1,2.1-1.26,1.21,1.21,0,0,1,.87.31,1.68,1.68,0,0,1,.28,1.74,3.52,3.52,0,0,1-.65,1.28l.19-.08.63-.29c.49-.23.85-.4,1.23-.15.59.39.44,1.37.2,1.93a2.85,2.85,0,0,1-1.32,1.32,7.66,7.66,0,0,1-.86.43c.25.07.48.15.66.22h0l.36-.1.2.31a3.14,3.14,0,0,1-.23,2.23c-.69.83-2.23.34-3.73-.14a10.28,10.28,0,0,1-2.32-1.07,4.12,4.12,0,0,1-1.14-.83"/><path class="cls-1" d="M18.08,24.3l-.67.31a4.76,4.76,0,0,1-.59.22l-1.17.43-.78.31c-.9.36-1.24.49-1.47.05s.22-.72.56-.9c.66-.36,2.2-1.2,2.53-2.49.16-.6,0-.75,0-.75a1.06,1.06,0,0,0-.86.14c-.23.12-.33.25-.6.64-.12.18-.27.39-.47.66-.74,1-1.25,1.63-1.85,1.63a.76.76,0,0,1-.21,0c-.58-.15-.66-.8-.72-1.37s-.12-1-.37-1.14a.73.73,0,0,0-.49,0,.53.53,0,0,0-.25.15c0,.07.07.21.12.34s.13.35.21.61a6.88,6.88,0,0,1,.48,2.44,3.78,3.78,0,0,1-.13.83c0,.21,0,.24,0,.34s.17.32,1,.79h0a9.43,9.43,0,0,0,2.12,1c.78.25,2.4.76,2.64.47a2.31,2.31,0,0,0,.12-.86,8.23,8.23,0,0,0-1.17-.35,4.68,4.68,0,0,0-1.41,0c-.18,0-.69.06-.77-.43s.4-.59.74-.67a9.83,9.83,0,0,0,2.64-1,1.89,1.89,0,0,0,.89-.85,1.81,1.81,0,0,0,.14-.57Z"/><path d="M10.22,54.26l.31-.95C5.43,51.64,1.64,47.48.87,42.7-.2,36.12,4.48,29.34,11.52,27.26l-.29-1C3.72,28.52-1.26,35.79-.12,42.86.71,48,4.77,52.48,10.22,54.26Z"/><path d="M51.84,117.13A9.48,9.48,0,0,0,49,118.86c-3.7,2.83-4.7,3.94-4.26,4.78a1.08,1.08,0,0,0,1,.47,7.14,7.14,0,0,0,.92-.08,7.68,7.68,0,0,0,3.09-1.21c.27-.16.55-.32.85-.47a8.58,8.58,0,0,1,3.09-.91c.79-.11,1.53-.21,1.73-1a2.15,2.15,0,0,0-.37-1.59,3.91,3.91,0,0,0-2.19-1.7"/><path d="M51.5,118c-.25-.72-.6-1.76-1-3-2.38-7.45-4.25-13.33-4-18.17.15-3.19,1.54-9.56,9.17-16.35l.66.75C49,87.71,47.61,93.77,47.47,96.81c-.22,4.66,1.64,10.47,4,17.82.4,1.25.75,2.28,1,3Z"/><path d="M33.84,121.13A9.48,9.48,0,0,0,31,122.86c-3.7,2.83-4.7,3.94-4.26,4.78a1.08,1.08,0,0,0,1,.47,7.14,7.14,0,0,0,.92-.08,7.68,7.68,0,0,0,3.09-1.21c.27-.16.55-.32.85-.47a8.58,8.58,0,0,1,3.09-.91c.79-.11,1.53-.21,1.73-1a2.15,2.15,0,0,0-.37-1.59,3.91,3.91,0,0,0-2.19-1.7"/><path d="M33.5,122c-.25-.72-.6-1.76-1-3-2.38-7.45-4.25-13.33-4-18.17.15-3.19,1.54-9.56,9.17-16.35l.66.75c-7.35,6.55-8.69,12.61-8.83,15.65-.22,4.66,1.64,10.47,4,17.82.4,1.25.75,2.28,1,3Z"/></svg>
