<svg id="Layer_1" data-name="Layer 1" xmlns="http://www.w3.org/2000/svg" width="100" height="130" viewBox="0 0 100 130"><defs><style>.cls-1{fill:#fff;}</style></defs><title>pic6</title><path d="M79.49,62c.05-4.49-1.39-9.18-4.28-18.57C73.82,38.94,73,37,72.34,33a37.75,37.75,0,0,1-.58-10.2,34.18,34.18,0,0,1,3.37-11.93c1.66-3.77,2.83-5,2.2-6.32-.73-1.51-3-2-6.13-2A95.89,95.89,0,0,0,60,3.58c-8.77,1.13-14.4,1.88-18,4.87-1.64,1-3.28,2.1-4.89,3.21-1.85,1.28-3.16,2.25-4.31,3.12-1.32,1-2.46,1.84-4.09,2.91a63.79,63.79,0,0,1-7,3.94h0a1.21,1.21,0,0,0-.5.1,3.72,3.72,0,0,0-2.72,1.79c-.47.94-.1,2.17.57,4.4v0c.83,2.77,1.25,4.16,1.4,4.62.36,1,.61,1.73,1.82,5l.79,2.16c.7,1.92.73,2,.81,2.25a57,57,0,0,1,1.6,6.19c.67,3.1,1,5.45,1.2,7a40.18,40.18,0,0,1,.6,7.17,14.8,14.8,0,0,1-.58,4.49,12.67,12.67,0,0,1-1,2.18c-.26.5-.58,1.12-1,2-.06.11-.56,1.17-1.65,3.48l-.17.35c-2.1,4.44-2.48,5.26-3,6.67s-.77,2.15-1.23,3.67a10.57,10.57,0,0,0-.62,4,3.76,3.76,0,0,0,1,2.56,3,3,0,0,0,1.43.71,6.53,6.53,0,0,0,1.67.2,8.4,8.4,0,0,0,1.77-.19l0-.15h.2A17.49,17.49,0,0,0,30,91L76.42,77.75A13.15,13.15,0,0,0,78,75.69C80.48,71.8,79.43,67.61,79.49,62Z"/><path class="cls-1" d="M29.29,18.53c1.66-1.08,2.81-2,4.15-3,1.14-.85,2.43-1.82,4.27-3.09.66-.46,1.33-.91,2-1.36a13.31,13.31,0,0,0-1.86,6A15.39,15.39,0,0,1,36,23.34c-1.28,2.31-2.29,4.12-4,4.43a2.5,2.5,0,0,1-.55.05c-3,0-6-4.26-8.35-5.71A67.34,67.34,0,0,0,29.29,18.53Z"/><path class="cls-1" d="M26.5,48a55.36,55.36,0,0,0-1.62-6.29c-.09-.27-.1-.31-.83-2.29l-.79-2.16c-1.21-3.3-1.45-4-1.8-5-.15-.44-.57-1.82-1.4-4.58v0c-.62-2.08-.91-3.1-.63-3.66a2.36,2.36,0,0,1,1.29-1c1.07,5.49,2.23,10.39,3.36,14.61,2.42,9.07,3.92,12.32,4.39,18.1a41.69,41.69,0,0,1-.23,8.81c.06-.65.08-1.31.1-2a42.17,42.17,0,0,0-.61-7.32C27.5,53.51,27.18,51.13,26.5,48Z"/><path class="cls-1" d="M19.71,91c-.13-.12-.55-.51-.65-1.88a9.74,9.74,0,0,1,.59-3.65c.44-1.49.67-2.23,1.19-3.58s.92-2.19,3-6.61L24,75c1-2.17,1.58-3.36,1.64-3.47.42-.85.74-1.46,1-2a13.72,13.72,0,0,0,1.05-2.33c.11-.35.2-.69.27-1a45.86,45.86,0,0,1-1,4.62c-3.11,5.39-9.71,17.75-5.5,20.84a5.42,5.42,0,0,1-.74-.13A2.19,2.19,0,0,1,19.71,91Z"/><path class="cls-1" d="M77.17,75.15a12.44,12.44,0,0,1-1.3,1.71L46.59,85.22,29.7,90h-.08a16.84,16.84,0,0,1-5.55,1.28,3.46,3.46,0,0,1-2-.47c-1.94-1.3-.67-5.79.25-8.35A73.76,73.76,0,0,1,27.81,71.3l.06-.11,0-.12a44.5,44.5,0,0,0,1.55-15.51A51.76,51.76,0,0,0,27,44.24c-.58-2-1.23-4.17-2-7-1.27-4.77-2.39-9.65-3.33-14.51l.21-.11a11.32,11.32,0,0,1,3,2.32c1.93,1.8,4.12,3.85,6.5,3.85a3.54,3.54,0,0,0,.73-.07c2.16-.39,3.32-2.47,4.66-4.87l0-.05a16.41,16.41,0,0,0,2-6.66A11.86,11.86,0,0,1,41,11.05a9.72,9.72,0,0,1,1.66-1.79l.94-.58,0-.09a15.3,15.3,0,0,1,4.2-1.87A86.76,86.76,0,0,1,60.16,4.58l.2,0a92.15,92.15,0,0,1,10.84-1h0c3.74,0,4.9.78,5.22,1.45.21.44,0,1-.87,2.65-.37.74-.83,1.66-1.33,2.8a35.26,35.26,0,0,0-3.47,12.27,39.09,39.09,0,0,0,.6,10.45,47.58,47.58,0,0,0,2,7.73c.27.83.57,1.76.9,2.83C77.1,53,78.54,57.66,78.49,62c0,1.43,0,2.75.09,4C78.73,69.64,78.84,72.5,77.17,75.15Z"/><path d="M36.51,109.48c-1.33-1.62-3-3.64-3-6.87,0-1,.14-2.38,2-7.68.89-2.47,1.86-5,2.9-7.38l.92.39c-1,2.42-2,4.88-2.87,7.33-1.86,5.15-2,6.48-2,7.33,0,2.88,1.56,4.75,2.79,6.25l.32.39a38.74,38.74,0,0,1,6.81,13.37,2.06,2.06,0,0,1,.86.32,3.92,3.92,0,0,1,1.51,2.43,2.08,2.08,0,0,1-.23,1.62,1.08,1.08,0,0,1-1,.48,4.34,4.34,0,0,1-1-.17,8.8,8.8,0,0,0-3.21-.26l-1,.14a7.66,7.66,0,0,1-3.32,0c-.75-.18-1.6-.38-1.68-1.07h0c-.11-.93,1.22-1.62,5.7-2.92a16.6,16.6,0,0,1,2.27-.54,37.35,37.35,0,0,0-6.56-12.78C36.72,109.75,36.61,109.62,36.51,109.48Z"/><path d="M66.57,120.49a4,4,0,0,0-2.2-1.7,43.48,43.48,0,0,0-6.11-14.28l-.3-.44c-1.16-1.69-2.6-3.79-2.51-6.85,0-.9.22-2.3,2.3-7.58,1-2.51,2-5,3.18-7.49L60,81.73c-1.13,2.48-2.21,5-3.2,7.54-2.13,5.43-2.34,6.89-2.37,7.92-.1,3.39,1.45,5.64,2.69,7.45l.3.44a42.39,42.39,0,0,1,5.9,13.7,9.6,9.6,0,0,0-2.86,1.72c-3.7,2.84-4.7,4-4.26,4.79a1.08,1.08,0,0,0,1,.47,5.72,5.72,0,0,0,.91-.09,7.54,7.54,0,0,0,3.09-1.2l.85-.48a9,9,0,0,1,3.09-.91c.79-.1,1.54-.2,1.73-1A2.19,2.19,0,0,0,66.57,120.49Z"/><path d="M25.47,46.75a16.39,16.39,0,0,0-6.7,5.06,16.6,16.6,0,0,0-2.66,5.44c-.15.61-.25,1.19-.35,1.8a16.54,16.54,0,0,1-1.31,4.54A8.68,8.68,0,0,1,13.6,65a8.57,8.57,0,0,1-2.86,2.4,6,6,0,0,0-.94-.63,10.66,10.66,0,0,0-2.31-1.07c-1.5-.47-3-1-3.73-.13a3.06,3.06,0,0,0-.23,2.22l.2.31.36-.09h0l.67.21c-.28.13-.57.27-.86.43A2.88,2.88,0,0,0,2.58,70c-.25.56-.39,1.53.19,1.92.39.26.74.09,1.23-.15.17-.08.37-.18.64-.29l.19-.08a3.45,3.45,0,0,0-.65,1.28,1.68,1.68,0,0,0,.28,1.75,1.26,1.26,0,0,0,.87.31,2.57,2.57,0,0,0,1.13-.3,2.49,2.49,0,0,0,1-1l.44-.61a11,11,0,0,1,.94-1.12c0,.12,0,.27,0,.39a2.26,2.26,0,0,0,.89,1.91,1.65,1.65,0,0,0,1.26.08,1.41,1.41,0,0,0,.86-.66,1.26,1.26,0,0,0-.08-1.13l-.2-.57a5.94,5.94,0,0,1-.42-2.1,2.76,2.76,0,0,1,.09-.63,1.46,1.46,0,0,0,0-.76,9.35,9.35,0,0,0,3.13-2.65A9.63,9.63,0,0,0,15.36,64a17.39,17.39,0,0,0,1.39-4.8c.1-.59.2-1.16.34-1.73a15.72,15.72,0,0,1,2.48-5.07,15.28,15.28,0,0,1,6.3-4.74ZM10.7,73.18a.68.68,0,0,1-.49,0C10,73,9.9,72.48,9.85,72s-.14-1.22-.72-1.38-1.24.53-2.07,1.61c-.2.26-.35.48-.47.65-.26.39-.36.52-.6.64a1.06,1.06,0,0,1-.85.15s-.14-.15,0-.76c.33-1.29,1.88-2.12,2.54-2.48.34-.19.81-.44.56-.91a.45.45,0,0,0-.41-.28,3.48,3.48,0,0,0-1.06.33L6,69.92c-.72.28-1,.37-1.18.43s-.29.1-.59.23l-.66.3-.2.1a1.65,1.65,0,0,1,.13-.56,1.91,1.91,0,0,1,.9-.85A9.38,9.38,0,0,1,7,68.6c.34-.08.8-.19.73-.67s-.59-.45-.76-.43a5.13,5.13,0,0,1-1.41-.06,9.36,9.36,0,0,1-1.17-.34,2.78,2.78,0,0,1,.1-.85c.26-.31,1.88.2,2.66.45a9.47,9.47,0,0,1,2.12,1h0c.81.46.92.63,1,.78s0,.14,0,.34a4,4,0,0,0-.12.84,6.71,6.71,0,0,0,.48,2.44c.08.25.15.45.21.61s.1.27.12.34A.59.59,0,0,1,10.7,73.18Z"/><path d="M97.42,62.34A2.85,2.85,0,0,0,96.1,61a7.66,7.66,0,0,0-.86-.43l.67-.22h0l.36.09.2-.31a3.07,3.07,0,0,0-.23-2.22c-.68-.83-2.23-.34-3.73.13a10.68,10.68,0,0,0-2.31,1.08,4.63,4.63,0,0,0-1.15.82,8.67,8.67,0,0,1-3.26-2.6A7.71,7.71,0,0,1,85,55.91a16.23,16.23,0,0,1-1.31-4.53c-.11-.62-.21-1.2-.36-1.81a15.45,15.45,0,0,0-9.36-10.49l-.4.92a15.38,15.38,0,0,1,6.31,4.74,16.07,16.07,0,0,1,2.48,5.07c.14.58.24,1.14.34,1.74A16.9,16.9,0,0,0,84,56.34,9,9,0,0,0,85,58a9.81,9.81,0,0,0,3.7,2.94,1.66,1.66,0,0,0,.07.47,2.85,2.85,0,0,1,.09.63,5.94,5.94,0,0,1-.42,2.1c-.08.24-.15.42-.2.57a1.28,1.28,0,0,0-.08,1.14,1.48,1.48,0,0,0,.86.66,1.7,1.7,0,0,0,1.26-.09c.72-.38.82-1.26.89-1.91,0-.11,0-.26,0-.39a9.82,9.82,0,0,1,.94,1.12c.18.24.32.44.44.62a2.53,2.53,0,0,0,1,1,2.57,2.57,0,0,0,1.13.3,1.26,1.26,0,0,0,.87-.31A1.68,1.68,0,0,0,95.82,65a3.45,3.45,0,0,0-.65-1.28l.19.08.64.3c.49.23.84.4,1.23.15C97.81,63.88,97.67,62.9,97.42,62.34Zm-1,.87c-.17-.09-.39-.19-.66-.31s-.42-.17-.59-.23-.46-.15-1.18-.43l-.78-.3c-.9-.36-1.23-.49-1.47-.06s.22.73.56.91c.66.36,2.21,1.2,2.54,2.49.15.6,0,.75,0,.75a1,1,0,0,1-.85-.14c-.24-.13-.34-.25-.6-.64-.12-.18-.27-.4-.47-.66-.75-1-1.26-1.64-1.85-1.64a.83.83,0,0,0-.22,0c-.58.16-.65.81-.72,1.38s-.11,1-.36,1.13a.63.63,0,0,1-.49,0,.59.59,0,0,1-.26-.14c0-.07.07-.21.12-.34s.13-.35.21-.61A6.67,6.67,0,0,0,89.85,62a3.81,3.81,0,0,0-.12-.83c0-.21-.06-.24,0-.34s.17-.33,1-.79h0a9.94,9.94,0,0,1,2.12-1c.78-.24,2.4-.76,2.65-.46a2.55,2.55,0,0,1,.11.86,9.36,9.36,0,0,1-1.17.34,4.76,4.76,0,0,1-1.41.06c-.17,0-.69-.06-.76.43s.39.59.73.67a9.71,9.71,0,0,1,2.64,1,2,2,0,0,1,.9.85,1.71,1.71,0,0,1,.13.56Z"/><path d="M52.15,39.42c.18,1.35,1.27,2.4,1.76,3.67a5.65,5.65,0,0,1,.53,2.38c-.09.83-.84,1.34-1.22,2-.2.34.33.65.52.31.33-.6.94-1,1.18-1.69a3.43,3.43,0,0,0,0-1.93A9.86,9.86,0,0,0,54.06,42a8.56,8.56,0,0,1-1.3-2.53c0-.38-.66-.39-.61,0Z"/><path d="M37.48,65.83l-.66-.93h0l.34,1,1.25,4.71-.56.15L35.9,63.47l.31-.09,3.66,4.18.64.89h0l-.34-1L39,62.78l.56-.15L41.45,70l-.31.08Z"/><path d="M42.66,68.51A4.45,4.45,0,0,1,42,67.44,10.45,10.45,0,0,1,41.48,66a6.06,6.06,0,0,1-.2-2.91,1.72,1.72,0,0,1,1.25-1.36,1.69,1.69,0,0,1,.77,0A1.67,1.67,0,0,1,44,62l.14-.69.47.26-.17.84a4.46,4.46,0,0,1,.65,1.06,7.9,7.9,0,0,1,.51,1.45,6,6,0,0,1,.2,2.9,1.72,1.72,0,0,1-1.27,1.36,1.61,1.61,0,0,1-1.4-.24l-.13.65-.47-.28Zm-.55-2.71a7.88,7.88,0,0,0,.32,1,4.4,4.4,0,0,0,.42.81l.95-4.78a1.37,1.37,0,0,0-.5-.32.92.92,0,0,0-.57,0,1.18,1.18,0,0,0-.84,1A5.27,5.27,0,0,0,42.11,65.8Zm2.83-.75a8.62,8.62,0,0,0-.31-.94,5.28,5.28,0,0,0-.41-.79l-1,4.77a1.45,1.45,0,0,0,.5.3,1,1,0,0,0,.54,0,1.19,1.19,0,0,0,.85-1A5.09,5.09,0,0,0,44.94,65.05Z"/><path d="M48.27,64.18,50,63.74l.83,3.17a1.37,1.37,0,0,1-.21.3,1.87,1.87,0,0,1-.3.26,2.5,2.5,0,0,1-.35.21,2.13,2.13,0,0,1-.37.14,1.87,1.87,0,0,1-.94,0,1.94,1.94,0,0,1-.87-.5,3.85,3.85,0,0,1-.77-1,7.89,7.89,0,0,1-.6-1.62,6.3,6.3,0,0,1-.25-1.76,4,4,0,0,1,.21-1.29,2.2,2.2,0,0,1,.55-.85,1.85,1.85,0,0,1,.75-.41,2.82,2.82,0,0,1,.72-.12,1.64,1.64,0,0,1,.52,0l.06.8a1.72,1.72,0,0,0-1,0,1.33,1.33,0,0,0-.56.3,1.56,1.56,0,0,0-.4.64,3.35,3.35,0,0,0-.14,1A5.67,5.67,0,0,0,47,64.51a6.06,6.06,0,0,0,.47,1.28,3.09,3.09,0,0,0,.58.83,1.46,1.46,0,0,0,.67.41,1.37,1.37,0,0,0,1.42-.46l-.53-2-1.22.1Z"/><path d="M50,59.86l2.72-.71.2.76-2.13.56.63,2.35,1.95-.51.2.76-2,.52.67,2.56,2.17-.57.2.76-2.76.73Z"/><path d="M55.39,61.1l-.66-.93h0l.35,1,1.24,4.72-.56.14L53.8,58.74l.31-.08,3.67,4.17.63.89h0l-.34-1-1.24-4.69.56-.15,1.93,7.32L59,65.3Z"/><path d="M60.16,64.38a.75.75,0,0,1,0-.47.38.38,0,0,1,.25-.24.4.4,0,0,1,.35.08.81.81,0,0,1,.23.41.72.72,0,0,1,0,.46.4.4,0,0,1-.26.25.36.36,0,0,1-.34-.09A.75.75,0,0,1,60.16,64.38Z"/><path d="M60.36,57.13,61,57l1.48,5.62a2.69,2.69,0,0,1,.08,1.32.87.87,0,0,1-.66.63l-.14,0-.18,0h-.18l-.15,0-.08-.75a.83.83,0,0,0,.47,0,.39.39,0,0,0,.31-.41,2.68,2.68,0,0,0-.12-.85Z"/><path d="M62.27,56.7a2.84,2.84,0,0,1,.55-.28c.21-.07.41-.14.62-.19a2.61,2.61,0,0,1,.69-.09,1.66,1.66,0,0,1,.71.18,1.82,1.82,0,0,1,.63.56,3.21,3.21,0,0,1,.47,1,3.55,3.55,0,0,1,.12,1.16,2.17,2.17,0,0,1-.24.85,1.57,1.57,0,0,1-.51.57,2.15,2.15,0,0,1-.69.31l-.12,0-.17,0-.18,0H64l.73,2.73-.6.16Zm1.38.26-.36.11a1.29,1.29,0,0,0-.26.12l.79,3h.12l.17,0,.17,0,.11,0a1.86,1.86,0,0,0,.46-.19,1.06,1.06,0,0,0,.37-.36,1.21,1.21,0,0,0,.18-.58,2.41,2.41,0,0,0-.09-.84,2.27,2.27,0,0,0-.3-.68,1.29,1.29,0,0,0-.41-.37,1,1,0,0,0-.48-.13A1.47,1.47,0,0,0,63.65,57Z"/><path d="M68.76,58.77l1.68-.44.84,3.17a1.82,1.82,0,0,1-.21.3,2.55,2.55,0,0,1-.3.26,2.5,2.5,0,0,1-.35.21,3.44,3.44,0,0,1-.37.14,2,2,0,0,1-.94,0,2,2,0,0,1-.87-.5,3.65,3.65,0,0,1-.77-1,7.89,7.89,0,0,1-.6-1.62,6.3,6.3,0,0,1-.25-1.76,4,4,0,0,1,.21-1.29,2.2,2.2,0,0,1,.55-.85,1.88,1.88,0,0,1,.75-.42,4,4,0,0,1,.72-.12,2,2,0,0,1,.52.06l0,.8a1.75,1.75,0,0,0-1,0,1.48,1.48,0,0,0-.56.31,1.5,1.5,0,0,0-.4.64,3.26,3.26,0,0,0-.14,1,5.54,5.54,0,0,0,.22,1.43A6.16,6.16,0,0,0,68,60.38a2.89,2.89,0,0,0,.58.83,1.57,1.57,0,0,0,.66.41,1.35,1.35,0,0,0,.72,0,1.22,1.22,0,0,0,.71-.46l-.53-2-1.22.1Z"/><path d="M62.15,34.7a6.26,6.26,0,0,0-5.35-.79c-.28.09-.46-.34-.18-.43a6.83,6.83,0,0,1,5.81.85c.25.16,0,.53-.28.37Z"/><path d="M54.5,33.89l.16-1c.05-.31,1.34-7.48,7.34-10.51a.5.5,0,0,1,.45.9c-4.3,2.16-6,6.81-6.57,8.82,1.87-.77,6.13-2.16,9.43-.61a.5.5,0,0,1-.43.91c-3.83-1.8-9.44,1-9.5,1Z"/><path d="M38.76,40a6.67,6.67,0,0,1,5.05-2.64c.31,0,.34-.5,0-.49a7.2,7.2,0,0,0-5.49,2.86c-.19.26.22.52.41.27Z"/><path d="M34.76,39.06a.47.47,0,0,1-.35-.15.49.49,0,0,1,0-.7c2.61-2.56,7.08-2.65,9.11-2.55-1.19-1.71-4.35-5.53-9.12-6.15a.51.51,0,0,1-.44-.57.51.51,0,0,1,.57-.43c6.66.88,10.24,7.22,10.39,7.49l.48.87-1-.13c-.06,0-6.29-.78-9.31,2.18A.46.46,0,0,1,34.76,39.06Z"/></svg>
