<svg id="Layer_1" data-name="Layer 1" xmlns="http://www.w3.org/2000/svg" width="100" height="130" viewBox="0 0 100 130"><defs><style>.cls-1{fill:#fff;}</style></defs><title>pic7</title><path d="M79,60.85c.05-4.48-1.39-9.18-4.28-18.56-1.39-4.5-2.2-6.41-2.87-10.43a37.75,37.75,0,0,1-.58-10.2A34.18,34.18,0,0,1,74.63,9.73c1.66-3.77,2.83-5,2.2-6.32-.73-1.51-3-2-6.13-2a95.89,95.89,0,0,0-11.17,1c-8.77,1.13-14.4,1.88-18,4.87-1.64,1-3.28,2.1-4.89,3.21-1.85,1.28-3.16,2.25-4.31,3.12-1.32,1-2.46,1.84-4.09,2.91a63.79,63.79,0,0,1-7,3.94h0a1.21,1.21,0,0,0-.5.1A3.75,3.75,0,0,0,18,22.37c-.47.94-.1,2.17.57,4.4v0c.83,2.77,1.25,4.16,1.4,4.62.36,1,.61,1.73,1.82,5l.79,2.16c.7,1.92.73,2,.81,2.25A57.58,57.58,0,0,1,25,47.06c.67,3.1,1,5.45,1.2,7a40.18,40.18,0,0,1,.6,7.17,14.8,14.8,0,0,1-.58,4.49,12.67,12.67,0,0,1-1,2.18c-.26.5-.58,1.12-1,2-.06.11-.56,1.17-1.65,3.48l-.17.35c-2.1,4.44-2.48,5.26-3,6.67s-.77,2.15-1.23,3.67a10.57,10.57,0,0,0-.62,4,3.76,3.76,0,0,0,1,2.56,3,3,0,0,0,1.43.71,6.53,6.53,0,0,0,1.67.2,8.4,8.4,0,0,0,1.77-.19l0-.15h.2a17.49,17.49,0,0,0,5.9-1.34L75.92,76.6a13.15,13.15,0,0,0,1.6-2.06C80,70.65,78.93,66.46,79,60.85Z"/><path class="cls-1" d="M28.79,17.38c1.66-1.08,2.81-1.95,4.15-2.95,1.14-.85,2.43-1.82,4.27-3.09.66-.46,1.33-.91,2-1.36a13.31,13.31,0,0,0-1.86,6,15.47,15.47,0,0,1-1.9,6.25c-1.28,2.3-2.29,4.11-4,4.42a2.5,2.5,0,0,1-.55.05c-3,0-6-4.26-8.35-5.71A65.14,65.14,0,0,0,28.79,17.38Z"/><path class="cls-1" d="M26,46.85a55.36,55.36,0,0,0-1.62-6.29c-.09-.27-.1-.31-.83-2.29l-.79-2.16c-1.21-3.3-1.45-4-1.8-5-.15-.44-.57-1.82-1.4-4.58v0c-.62-2.08-.91-3.1-.63-3.66a2.36,2.36,0,0,1,1.29-1c1.07,5.49,2.23,10.39,3.36,14.61C26,45.47,27.49,48.72,28,54.49a41.69,41.69,0,0,1-.23,8.81c.06-.65.08-1.31.1-2a42.2,42.2,0,0,0-.61-7.33C27,52.36,26.68,50,26,46.85Z"/><path class="cls-1" d="M19.21,89.88c-.13-.13-.55-.52-.65-1.89a9.74,9.74,0,0,1,.59-3.65c.44-1.49.67-2.23,1.19-3.58s.92-2.19,3-6.61l.17-.35c1-2.16,1.58-3.36,1.64-3.47.42-.85.74-1.46,1-2A13.72,13.72,0,0,0,27.2,66c.11-.35.2-.69.27-1a45.86,45.86,0,0,1-1,4.62C23.33,75,16.73,87.4,20.94,90.49a5.42,5.42,0,0,1-.74-.13A2.29,2.29,0,0,1,19.21,89.88Z"/><path class="cls-1" d="M76.67,74a12.44,12.44,0,0,1-1.3,1.71L46.09,84.07,29.2,88.89h0l0,0a17,17,0,0,1-5.55,1.27,3.46,3.46,0,0,1-2-.47c-1.94-1.29-.67-5.79.25-8.35a73.76,73.76,0,0,1,5.46-11.22l.06-.11,0-.12A44.5,44.5,0,0,0,29,54.41a51.76,51.76,0,0,0-2.45-11.32c-.58-2-1.23-4.17-2-7-1.27-4.77-2.39-9.65-3.33-14.51l.21-.11a11.32,11.32,0,0,1,3,2.32c1.93,1.8,4.12,3.85,6.5,3.85a3.54,3.54,0,0,0,.73-.07c2.16-.39,3.32-2.47,4.66-4.87l0,0a16.41,16.41,0,0,0,2-6.66A11.86,11.86,0,0,1,40.48,9.9a9.72,9.72,0,0,1,1.66-1.79l.94-.58,0-.09a15.3,15.3,0,0,1,4.2-1.87A86.76,86.76,0,0,1,59.66,3.43l.2,0a94.35,94.35,0,0,1,10.84-1h0c3.74,0,4.9.79,5.22,1.45.21.44,0,1-.87,2.65-.37.74-.83,1.66-1.33,2.8a35.26,35.26,0,0,0-3.47,12.27A39.09,39.09,0,0,0,70.85,32a47.58,47.58,0,0,0,2,7.73c.27.83.57,1.76.9,2.83C76.6,51.86,78,56.51,78,60.84c0,1.43,0,2.75.09,4C78.23,68.49,78.34,71.36,76.67,74Z"/><path d="M26,49.6a16.39,16.39,0,0,0-6.7,5.06,16.6,16.6,0,0,0-2.66,5.44c-.15.61-.25,1.19-.35,1.8A16.54,16.54,0,0,1,15,66.44a8.68,8.68,0,0,1-.85,1.45,8.57,8.57,0,0,1-2.86,2.4,6,6,0,0,0-.94-.63A10.66,10.66,0,0,0,8,68.59c-1.5-.47-3-1-3.73-.13A3.06,3.06,0,0,0,4,70.68l.2.31.36-.09h0l.67.21c-.28.13-.57.27-.86.43a2.88,2.88,0,0,0-1.32,1.33c-.25.56-.39,1.53.19,1.92.39.26.74.09,1.23-.15.17-.08.37-.18.64-.29l.19-.08a3.45,3.45,0,0,0-.65,1.28A1.68,1.68,0,0,0,5,77.3a1.26,1.26,0,0,0,.87.31A2.57,2.57,0,0,0,7,77.31a2.49,2.49,0,0,0,1-1l.44-.61a11,11,0,0,1,.94-1.12c0,.12,0,.27,0,.39.07.64.17,1.53.89,1.91A1.65,1.65,0,0,0,11.5,77a1.41,1.41,0,0,0,.86-.66,1.26,1.26,0,0,0-.08-1.13l-.2-.57a5.94,5.94,0,0,1-.42-2.1,2.76,2.76,0,0,1,.09-.63,1.46,1.46,0,0,0,0-.76,9.35,9.35,0,0,0,3.13-2.65,9.63,9.63,0,0,0,.95-1.62,17.39,17.39,0,0,0,1.39-4.8c.1-.59.2-1.16.34-1.73a15.72,15.72,0,0,1,2.48-5.07,15.28,15.28,0,0,1,6.3-4.74ZM11.2,76a.68.68,0,0,1-.49,0c-.25-.13-.31-.69-.36-1.13s-.14-1.22-.72-1.38S8.39,74,7.56,75.12c-.2.26-.35.48-.47.65-.26.39-.36.52-.6.64a1.06,1.06,0,0,1-.85.15s-.14-.15,0-.76c.33-1.29,1.88-2.12,2.54-2.48.34-.19.81-.44.56-.91a.45.45,0,0,0-.41-.28,3.48,3.48,0,0,0-1.06.33l-.78.31c-.72.28-1,.37-1.18.43s-.29.1-.59.23-.49.22-.66.31l-.2.09A1.65,1.65,0,0,1,4,73.27a1.91,1.91,0,0,1,.9-.85,9.38,9.38,0,0,1,2.64-1c.34-.08.8-.19.73-.67s-.59-.45-.76-.43a4.76,4.76,0,0,1-1.41-.06A9.36,9.36,0,0,1,4.93,70,2.78,2.78,0,0,1,5,69.1c.26-.31,1.88.2,2.66.45a9.94,9.94,0,0,1,2.12,1h0c.81.46.92.63,1,.78s0,.14,0,.34a4,4,0,0,0-.12.84,6.71,6.71,0,0,0,.48,2.44c.08.25.15.45.21.61s.1.27.12.34A.59.59,0,0,1,11.2,76Z"/><path d="M96.92,17.67A2.85,2.85,0,0,1,95.6,19a7.66,7.66,0,0,1-.86.43c.25.07.49.15.67.22h0l.36-.1.2.31a3.09,3.09,0,0,1-.23,2.23c-.68.83-2.23.34-3.73-.14a10.2,10.2,0,0,1-2.31-1.07A4.37,4.37,0,0,1,88.55,20a8.69,8.69,0,0,0-3.26,2.61,7.4,7.4,0,0,0-.84,1.45,16.23,16.23,0,0,0-1.31,4.53c-.11.62-.21,1.2-.36,1.8a16.23,16.23,0,0,1-2.65,5.44,16.34,16.34,0,0,1-6.71,5.06L73,40a15.47,15.47,0,0,0,6.31-4.74,16,16,0,0,0,2.48-5.08c.14-.57.24-1.13.34-1.73a16.9,16.9,0,0,1,1.39-4.79,8.66,8.66,0,0,1,.94-1.62,9.74,9.74,0,0,1,3.7-2.95,1.78,1.78,0,0,1,.07-.47,2.76,2.76,0,0,0,.09-.63,6,6,0,0,0-.42-2.1c-.08-.23-.15-.41-.2-.56a1.28,1.28,0,0,1-.08-1.14,1.41,1.41,0,0,1,.86-.66,1.61,1.61,0,0,1,1.26.09c.72.38.82,1.26.89,1.9,0,.12,0,.27,0,.4a11,11,0,0,0,.94-1.13l.44-.61a2.4,2.4,0,0,1,1-1,2.57,2.57,0,0,1,1.13-.3,1.21,1.21,0,0,1,.87.31A1.66,1.66,0,0,1,95.32,15a3.37,3.37,0,0,1-.65,1.28,1,1,0,0,0,.19-.08c.27-.11.47-.21.64-.29.49-.23.84-.4,1.23-.15C97.31,16.13,97.17,17.11,96.92,17.67Zm-1-.87-.66.31c-.3.13-.42.16-.59.22l-1.18.43-.78.31c-.9.36-1.23.49-1.47.05s.22-.72.56-.9c.66-.36,2.21-1.2,2.54-2.49.15-.6,0-.75,0-.75a1,1,0,0,0-.85.14c-.24.12-.34.25-.6.64-.12.18-.27.39-.47.66-.75,1-1.26,1.63-1.85,1.63a.83.83,0,0,1-.22,0c-.58-.15-.65-.8-.72-1.37s-.11-1-.36-1.14a.74.74,0,0,0-.49,0,.58.58,0,0,0-.26.15c0,.07.07.21.12.34s.13.35.21.61A6.67,6.67,0,0,1,89.35,18a3.91,3.91,0,0,1-.12.83c0,.21-.06.24,0,.34s.17.32,1,.79h0a9.43,9.43,0,0,0,2.12,1c.78.25,2.4.76,2.65.47a2.59,2.59,0,0,0,.11-.86,7.85,7.85,0,0,0-1.17-.35,4.68,4.68,0,0,0-1.41,0c-.17,0-.69.06-.76-.43s.39-.59.73-.67a9.71,9.71,0,0,0,2.64-1,2,2,0,0,0,.9-.85,1.76,1.76,0,0,0,.13-.57Z"/><path d="M40.71,25.72c-3.11,0-5.64,4.14-5.64,9.26s2.53,9.26,5.64,9.26,5.64-4.15,5.64-9.26-2.53-9.26-5.64-9.26Z"/><path d="M57.62,21.29c-3.11,0-5.63,4.15-5.63,9.26s2.52,9.26,5.63,9.26,5.64-4.15,5.64-9.26-2.52-9.26-5.64-9.26Z"/><path d="M37.09,45.44A9,9,0,0,0,43.3,46a.3.3,0,0,0-.16-.58,8.36,8.36,0,0,1-5.74-.47c-.35-.16-.66.36-.31.52Z"/><path d="M62.94,37.73a8.25,8.25,0,0,1-6.06,3.64c-.39,0-.39.64,0,.6A8.9,8.9,0,0,0,63.47,38c.21-.32-.31-.62-.53-.3Z"/><path d="M50.65,41.27c.18,1.36,1.27,2.4,1.76,3.67a5.69,5.69,0,0,1,.53,2.38c-.09.84-.84,1.34-1.22,2-.2.34.33.65.52.31.33-.6.94-1,1.18-1.69a3.43,3.43,0,0,0,0-1.93,9.86,9.86,0,0,0-.82-2.24,8.56,8.56,0,0,1-1.3-2.53c0-.38-.66-.39-.61,0Z"/><path class="cls-1" d="M57.62,22.3c2.51,0,4.63,3.78,4.63,8.25s-2.12,8.25-4.63,8.25S53,35,53,30.55s2.12-8.25,4.63-8.25"/><ellipse cx="58.63" cy="33.07" rx="2.21" ry="2.92"/><path class="cls-1" d="M40.71,26.73c2.51,0,4.63,3.78,4.63,8.25s-2.12,8.25-4.63,8.25S36.08,39.45,36.08,35s2.12-8.25,4.63-8.25"/><ellipse cx="41.92" cy="38.1" rx="2.21" ry="2.92"/><path d="M37,64.68l-.66-.93h0l.34,1,1.25,4.72-.56.14L35.4,62.32l.31-.09,3.66,4.18.64.89h0l-.34-1-1.24-4.69.56-.15L41,68.8l-.31.08Z"/><path d="M42.16,67.36a4.45,4.45,0,0,1-.67-1.07A10.45,10.45,0,0,1,41,64.82a6.06,6.06,0,0,1-.2-2.91A1.72,1.72,0,0,1,42,60.55a1.69,1.69,0,0,1,.77,0,1.82,1.82,0,0,1,.67.3l.14-.69.47.26-.17.84a4.46,4.46,0,0,1,.65,1.06,7.9,7.9,0,0,1,.51,1.45,6,6,0,0,1,.2,2.9A1.72,1.72,0,0,1,44,68a1.61,1.61,0,0,1-1.4-.24l-.13.65L42,68.13Zm-.55-2.71a7.88,7.88,0,0,0,.32,1,4.4,4.4,0,0,0,.42.81l.95-4.78a1.37,1.37,0,0,0-.5-.32.92.92,0,0,0-.57,0,1.18,1.18,0,0,0-.84,1A5.27,5.27,0,0,0,41.61,64.65Zm2.83-.75a8.62,8.62,0,0,0-.31-.94,5.28,5.28,0,0,0-.41-.79l-1,4.77a1.45,1.45,0,0,0,.5.3,1,1,0,0,0,.54,0,1.19,1.19,0,0,0,.85-1A5.09,5.09,0,0,0,44.44,63.9Z"/><path d="M47.77,63l1.68-.45.83,3.17a1.37,1.37,0,0,1-.21.3,1.87,1.87,0,0,1-.3.26,2.5,2.5,0,0,1-.35.21,2.13,2.13,0,0,1-.37.14,1.87,1.87,0,0,1-.94,0,2,2,0,0,1-.87-.49,4.08,4.08,0,0,1-.77-1,8,8,0,0,1-.6-1.61,6.42,6.42,0,0,1-.25-1.77,4,4,0,0,1,.21-1.29,2.08,2.08,0,0,1,.55-.84,1.76,1.76,0,0,1,.75-.42,2.82,2.82,0,0,1,.72-.12,1.64,1.64,0,0,1,.52,0l.06.8a1.72,1.72,0,0,0-1,0,1.33,1.33,0,0,0-.56.3,1.63,1.63,0,0,0-.4.64,3.35,3.35,0,0,0-.14,1,5.67,5.67,0,0,0,.22,1.44A6.06,6.06,0,0,0,47,64.64a3.33,3.33,0,0,0,.58.84,1.52,1.52,0,0,0,.67.4,1.32,1.32,0,0,0,.71,0,1.28,1.28,0,0,0,.71-.47l-.53-2-1.22.1Z"/><path d="M49.5,58.71,52.22,58l.2.76-2.13.56.63,2.35,1.95-.51.2.76-2,.52L51.79,65,54,64.43l.2.76-2.76.73Z"/><path d="M54.89,60,54.23,59h0l.35,1,1.24,4.71-.56.14L53.3,57.59l.31-.08,3.67,4.17.63.89h0l-.34-1L56.37,56.9l.56-.15,1.93,7.32-.32.08Z"/><path d="M59.66,63.23a.75.75,0,0,1,0-.47.38.38,0,0,1,.25-.24.4.4,0,0,1,.35.08.81.81,0,0,1,.23.41.72.72,0,0,1,0,.46.4.4,0,0,1-.26.25.36.36,0,0,1-.34-.09A.75.75,0,0,1,59.66,63.23Z"/><path d="M59.86,56l.6-.16,1.48,5.62A2.69,2.69,0,0,1,62,62.76a.89.89,0,0,1-.66.64l-.14,0-.18,0h-.18l-.15,0-.08-.75a.83.83,0,0,0,.47,0,.39.39,0,0,0,.31-.41,2.68,2.68,0,0,0-.12-.85Z"/><path d="M61.77,55.55a2.84,2.84,0,0,1,.55-.28c.21-.07.41-.14.62-.19a2.61,2.61,0,0,1,.69-.09,1.66,1.66,0,0,1,.71.18,1.82,1.82,0,0,1,.63.56,3.21,3.21,0,0,1,.47,1.05,3.55,3.55,0,0,1,.12,1.16,2.17,2.17,0,0,1-.24.85,1.57,1.57,0,0,1-.51.57,2.15,2.15,0,0,1-.69.31l-.12,0-.17,0-.18,0h-.13l.73,2.73-.6.16Zm1.38.27-.36.1a1.29,1.29,0,0,0-.26.12l.79,3h.12l.17,0,.17,0,.11,0a1.86,1.86,0,0,0,.46-.19,1.06,1.06,0,0,0,.37-.36,1.21,1.21,0,0,0,.18-.58,2.41,2.41,0,0,0-.09-.84,2.27,2.27,0,0,0-.3-.68,1.29,1.29,0,0,0-.41-.37,1,1,0,0,0-.48-.13A1.24,1.24,0,0,0,63.15,55.82Z"/><path d="M68.26,57.62l1.68-.44.84,3.17a1.82,1.82,0,0,1-.21.3,2.55,2.55,0,0,1-.3.26,2.5,2.5,0,0,1-.35.21,3.44,3.44,0,0,1-.37.14,2,2,0,0,1-.94,0,1.94,1.94,0,0,1-.87-.5,3.65,3.65,0,0,1-.77-1,7.89,7.89,0,0,1-.6-1.62,6.3,6.3,0,0,1-.25-1.76,4,4,0,0,1,.21-1.29,2.2,2.2,0,0,1,.55-.85,1.88,1.88,0,0,1,.75-.42,3.16,3.16,0,0,1,.72-.11,1.67,1.67,0,0,1,.52,0l0,.8a1.75,1.75,0,0,0-1,0,1.48,1.48,0,0,0-.56.31,1.5,1.5,0,0,0-.4.64,3.26,3.26,0,0,0-.14,1A5.67,5.67,0,0,0,67,58a6.27,6.27,0,0,0,.47,1.28,2.89,2.89,0,0,0,.58.83,1.57,1.57,0,0,0,.66.41,1.35,1.35,0,0,0,.72,0,1.22,1.22,0,0,0,.71-.46l-.53-2-1.22.11Z"/><path d="M65.58,116.63a9.48,9.48,0,0,1,2.85,1.73c3.71,2.83,4.7,3.94,4.26,4.78a1.07,1.07,0,0,1-1,.47,7.14,7.14,0,0,1-.91-.08,7.73,7.73,0,0,1-3.1-1.21c-.27-.16-.55-.32-.84-.47a8.63,8.63,0,0,0-3.09-.91c-.79-.11-1.54-.21-1.74-1a2.15,2.15,0,0,1,.37-1.59,3.93,3.93,0,0,1,2.2-1.7"/><path d="M65.92,117.45l-1-.33c.25-.71.6-1.74,1-3,2.34-7.35,4.19-13.16,4-17.82-.14-3-1.47-9.1-8.83-15.65l.67-.75c7.63,6.79,9,13.16,9.16,16.35.23,4.84-1.65,10.72-4,18.17C66.52,115.69,66.16,116.73,65.92,117.45Z"/><path d="M46.58,121.63a9.48,9.48,0,0,1,2.85,1.73c3.71,2.83,4.7,3.94,4.26,4.78a1.07,1.07,0,0,1-1,.47,7.14,7.14,0,0,1-.91-.08,7.73,7.73,0,0,1-3.1-1.21c-.27-.16-.55-.32-.84-.47a8.63,8.63,0,0,0-3.09-.91c-.79-.11-1.54-.21-1.74-1a2.15,2.15,0,0,1,.37-1.59,3.93,3.93,0,0,1,2.2-1.7"/><path d="M46.92,122.45l-1-.33c.25-.71.6-1.74,1-3,2.34-7.35,4.19-13.16,4-17.82-.14-3-1.47-9.1-8.83-15.65l.67-.75c7.63,6.79,9,13.16,9.16,16.35.23,4.84-1.65,10.72-4,18.17C47.52,120.69,47.16,121.73,46.92,122.45Z"/></svg>
