<svg id="Layer_1" data-name="Layer 1" xmlns="http://www.w3.org/2000/svg" viewBox="0 0 190 260"><defs><style>.cls-1{fill:gray;}.cls-2{fill:#fff;}</style></defs><title>lillemand</title><ellipse class="cls-1" cx="86" cy="239.8913" rx="69" ry="11.1087"/><path d="M152.9129,129.8424c1.6069-8.6644.3873-18.2383-2.052-37.3861-1.1689-9.1762-2.0921-13.1486-2.04-21.1529a74.2446,74.2446,0,0,1,2.2985-19.9516A67.1244,67.1244,0,0,1,161.6624,29.39c4.474-6.7294,7.1617-8.7144,6.3834-11.4874-.8926-3.1795-5.1631-4.9336-11.1836-5.98-6.099-1.06-13.994-1.3929-21.9857-1.744C117.5132,9.4162,106.37,8.966,98.4,13.548c-3.5281,1.4291-7.0689,2.9573-10.5569,4.5682-4.0217,1.8574-6.8709,3.309-9.3845,4.59-2.8955,1.4751-5.396,2.7491-8.9149,4.2629A124.9694,124.9694,0,0,1,54.696,32.2441c-.01-.0019-.0206-.0061-.0308-.0079a2.3684,2.3684,0,0,0-.995.034c-2.7121.1292-4.736,1.0022-5.8812,2.5538-1.2206,1.654-.9191,4.1585-.3715,8.705.6833,5.6758,1.0263,8.5247,1.1754,9.4749.34,2.1654.5861,3.5532,1.8185,10.3774l.8038,4.4488c.7159,3.9592.7438,4.1137.8187,4.634A112.3961,112.3961,0,0,1,53.043,84.9889c.2489,6.2148.08,10.8844-.0323,13.9744-.2414,6.6571-.3847,9.7813-1.25,14.0765a28.7148,28.7148,0,0,1-2.6337,8.4983,24.7042,24.7042,0,0,1-2.6339,3.8954c-.6657.8765-1.4941,1.9674-2.6089,3.4883-.16.2184-1.5891,2.2459-4.8059,6.8113-5.5679,7.9017-6.5743,9.3559-8.12,11.9046-1.515,2.498-2.2108,3.8956-3.5978,6.6821-1.5269,3.0669-2.2987,4.9783-2.5555,7.5455-.2321,2.3206.0973,4.0383,1.0212,5.27a5.7931,5.7931,0,0,0,2.5139,1.8687,13.657,13.657,0,0,0,3.1759.95,16.576,16.576,0,0,0,3.4994.2175l-.0115-.2883c.13.0263.2529.0558.3891.0795,2.6272.4565,6.4013.4113,11.8761-.6131L141.6629,159.3a26.7025,26.7025,0,0,0,3.7926-3.446C151.5245,149.1561,150.9009,140.6917,152.9129,129.8424Z"/><path class="cls-2" d="M70.3257,28.7859c3.5778-1.5391,6.105-2.8266,9.031-4.3174,2.4977-1.2725,5.3288-2.7149,9.316-4.5563q2.1534-.9945,4.331-1.9422A26.06,26.06,0,0,0,87.379,28.901a30.2435,30.2435,0,0,1-5.7655,11.447c-3.27,4.03-5.8186,7.2046-9.2285,7.2311a5.9487,5.9487,0,0,1-1.0664-.0887C65.5235,46.4832,61.0413,37.1983,57.059,33.61A126.0837,126.0837,0,0,0,70.3257,28.7859Z"/><path class="cls-2" d="M55.02,84.91a113.9586,113.9586,0,0,0-1.0277-12.727c-.08-.5557-.0939-.6334-.83-4.7044L52.3581,63.03c-1.2289-6.8051-1.4745-8.1878-1.8108-10.3324-.1437-.9152-.4852-3.7525-1.1659-9.4047-.51-4.2356-.723-6.3151-.0008-7.2939a4.5536,4.5536,0,0,1,2.863-1.5746c.2094,10.9855.82,20.8542,1.578,29.4113,1.6281,18.3835,3.4389,25.18,2.4056,36.5287a82.16,82.16,0,0,1-3.3932,16.9811c.3254-1.24.5833-2.5147.8655-3.9143.934-4.6347,1.06-8.1019,1.2882-14.3962C55.1007,95.9147,55.2716,91.2,55.02,84.91Z"/><path class="cls-2" d="M27.3942,165.9292c-.22-.2931-.8893-1.1856-.621-3.8669.226-2.2608.94-4.0136,2.3588-6.8628,1.3617-2.7356,2.0452-4.1087,3.5175-6.536,1.5127-2.4945,2.5115-3.937,8.0453-11.7909,2.7873-3.9554,4.6287-6.5688,4.7847-6.7813,1.1047-1.5073,1.9275-2.5907,2.5886-3.4613a26.8247,26.8247,0,0,0,2.81-4.1726c.3352-.6383.6216-1.2556.8742-1.8635a90.6487,90.6487,0,0,1-3.5664,8.605c-7.82,9.3838-24.7677,31.096-17.6629,38.493a11.0317,11.0317,0,0,1-1.3858-.4986A4.2271,4.2271,0,0,1,27.3942,165.9292Z"/><path class="cls-2" d="M143.99,154.5257a24.6987,24.6987,0,0,1-3.0875,2.8659l-50.5772,5.3843-43.2656,4.6059-.0776.0083-.0768.0144c-4.6889.8774-8.4483,1.0821-11.1736.6085a6.9659,6.9659,0,0,1-3.671-1.5742c-3.3076-3.1659.6544-11.4376,3.31-16.0865a144.5438,144.5438,0,0,1,14.3351-19.887l.1595-.1914.107-.225a86.9126,86.9126,0,0,0,8.225-29.5054c.7328-8.0475.0675-13.8952-.9394-22.7468-.4526-3.9779-.9655-8.4865-1.4658-14.1358-.8558-9.6633-1.3827-19.4877-1.57-29.2233.1524-.0424.3035-.0876.4556-.1305,1.3186.6125,3.3422,3.2892,4.9977,5.482,3.13,4.1466,6.6788,8.8464,11.3044,9.65a7.9625,7.9625,0,0,0,1.4205.1179c4.3167-.0336,7.2627-3.665,10.6739-7.87l.0755-.0931A32.0519,32.0519,0,0,0,89.2959,29.39a23.4132,23.4132,0,0,1,6.1833-11.1612,19.1629,19.1629,0,0,1,3.82-2.91c.6709-.2711,1.3422-.5451,2.0114-.8084l-.07-.1788a30.019,30.019,0,0,1,8.7683-2.2171c6.5031-.7617,14.9732-.39,24.7808.0413l.403.0177c7.95.3491,15.4594.6788,21.3318,1.6992h.0007c7.2418,1.2585,9.2263,3.1772,9.6159,4.5651.2608.9291-.4142,1.9463-2.57,4.8511-.969,1.3057-2.1738,2.9291-3.5348,4.9741a69.1864,69.1864,0,0,0-10.8281,22.5764,76.8,76.8,0,0,0-2.366,20.4516,94.91,94.91,0,0,0,1.2745,15.634c.2364,1.6893.5043,3.6039.7818,5.7818,2.41,18.9188,3.62,28.4149,2.0692,36.7752-.5145,2.7747-.8532,5.346-1.1808,7.8325C148.8557,144.3834,148.12,149.967,143.99,154.5257Z"/><path d="M19.1346,138.9894l-.47-1.9214a17.1238,17.1238,0,0,0,7.5669-3.87,15.8512,15.8512,0,0,0,2.1719-2.4742,31.71,31.71,0,0,0,4.2367-8.2526c.4375-1.1459.8508-2.2284,1.37-3.3437a32.624,32.624,0,0,1,7.1744-9.4882,32.1448,32.1448,0,0,1,14.8428-7.2157l.4226,1.9325a30.2016,30.2016,0,0,0-13.9451,6.7562,31.0477,31.0477,0,0,0-6.7009,8.849c-.4893,1.0523-.8905,2.1032-1.3154,3.2157a33.3711,33.3711,0,0,1-4.49,8.7177,17.72,17.72,0,0,1-2.4361,2.7673A19.0762,19.0762,0,0,1,19.1346,138.9894Z"/><path class="cls-2" d="M17.5844,135.9392a19.7314,19.7314,0,0,0-3.8862-2.8238c-2.3345-1.2759-4.9284-2.6936-6.0464-1.7738-.782.6434-1.162,3.8791-.917,2.8964h0a21.4086,21.4086,0,0,0,2.7637,1.4843,16.2066,16.2066,0,0,0,3.4033.7964,27.2728,27.2728,0,0,0-6.4565,1.002,4.6745,4.6745,0,0,0-2.5464,1.6776c-.5542.8022-.9394,2.0606-.4706,2.5223.35.3443.937.0117,2.8482-.41,1.2258-.2708.7624-.0849,3.6084-.5915a17.33,17.33,0,0,1,3.355-.5312c.0811.2686-5.473,1.0569-7.1926,4.6587-.1583.3316-.7976,1.6707-.2171,2.462.5483.7475,1.9305.6592,2.7757.41,1.1124-.3276,1.4158-.969,2.9326-2.3052,1.5572-1.3718,2.8369-2.4992,3.5-2.1724,1.0211.5033-.56,3.8963.9536,5.129a2.3094,2.3094,0,0,0,2.9085-.157c.37-.465.1085-.9441-.0966-2.6551a12.6625,12.6625,0,0,1-.0123-4.55c.3467-1.4875.8653-1.6686.724-2.5826C19.4132,137.764,19.0384,137.19,17.5844,135.9392Z"/><path d="M4.9082,147.9844c-.4493-.6128-.7954-1.74.1075-3.63a6.8249,6.8249,0,0,1,1.362-1.8952c-.4752.1076-.8612.2081-1.1786.2906-1.0411.2711-1.8643.4843-2.5729-.2143-1.0577-1.0419-.3806-2.9552.3321-3.9869a5.7893,5.7893,0,0,1,3.1223-2.1113c.4882-.1642.9691-.3006,1.4354-.4136-.3021-.1652-.5781-.3244-.8031-.4582l-.8035.0478-.3069-.7746c-.2633-.665.3246-3.5583,1.3228-4.3793,1.7159-1.4112,4.5646.1473,7.3212,1.6531a20.8543,20.8543,0,0,1,4.08,2.9574l-.7421.87.7456-.8669v0c1.5924,1.37,2.1551,2.1416,2.3157,3.1778a2.9417,2.9417,0,0,1-.332,1.8636,5.37,5.37,0,0,0-.4089,1.1531,11.7016,11.7016,0,0,0,.0342,4.1542c.057.4776.1191.8552.17,1.1618a2.6774,2.6774,0,0,1-.3137,2.3418,2.9606,2.9606,0,0,1-2.013,1.0044,3.4114,3.4114,0,0,1-2.512-.6734c-1.3013-1.06-1.158-2.8431-1.0535-4.1455.0115-.14.0249-.3055.0348-.4678-.5592.3969-1.3375,1.0826-1.9569,1.6284-.4465.393-.78.7213-1.0749,1.01a5.0943,5.0943,0,0,1-2.29,1.5334,5.1594,5.1594,0,0,1-2.3642.152A2.6053,2.6053,0,0,1,4.9082,147.9844Zm10.6355-5.7691c1.1536.5688,1.0466,1.9021.9517,3.0785-.0638.7971-.1515,1.888.2185,2.1894a1.3449,1.3449,0,0,0,1.2256.0672c-.0133-.1436-.0522-.3815-.0873-.5973-.0546-.332-.1214-.7414-.1838-1.2615a13.5512,13.5512,0,0,1,.01-4.9433,7.6188,7.6188,0,0,1,.5577-1.5895c.1727-.3753.175-.3962.15-.5586-.0421-.27-.1961-.6318-1.5469-1.7944l.7454-.8664-.7489.8635a18.58,18.58,0,0,0-3.6857-2.6845c-1.0379-.567-4.1659-2.2771-4.75-1.9092a5.0091,5.0091,0,0,0-.473,1.4172,17.45,17.45,0,0,0,2.0093,1.04,9.3,9.3,0,0,0,2.6654.631c.9915.1029,1.4786.536,1.442,1.2824-.0588,1.0966-1.1185,1.1333-1.82,1.1569a18.7484,18.7484,0,0,0-5.4137.8673,3.5951,3.5951,0,0,0-1.97,1.244,3.0856,3.0856,0,0,0-.3669.7276c.0507-.0128.1011-.0261.151-.0391.3706-.0962.83-.2155,1.4064-.3428a11.3742,11.3742,0,0,1,1.2334-.2166c.3767-.0482.9462-.1213,2.4211-.3838.63-.1123,1.17-.2136,1.62-.2978,1.8592-.3492,2.7083-.5091,3.0291.5613.3472,1.1474-.8187,1.5119-1.5153,1.73-1.3889.4341-4.6413,1.4518-5.74,3.7522-.4568.9563-.3272,1.2911-.3288,1.29h0a2.1784,2.1784,0,0,0,1.5328-.0077c.4727-.139.6817-.33,1.3343-.9708.2993-.2945.6724-.661,1.1657-1.0954,1.7683-1.5575,3.0983-2.7294,4.3232-2.4894A1.7337,1.7337,0,0,1,15.5437,142.2153Z"/><path d="M171.0165,139.4486l1.3481-1.8463a16.966,16.966,0,0,1-5.4737-6.4022,15.6954,15.6954,0,0,1-1.0559-3.0861,31.5946,31.5946,0,0,1-.7693-9.2031c.0308-1.1752.0623-2.39.0075-3.624a32.7919,32.7919,0,0,0-3.035-11.5659,32.2948,32.2948,0,0,0-11.0267-12.3849l-1.3028,1.8791a30.0509,30.0509,0,0,1,10.27,11.4987,30.861,30.861,0,0,1,2.81,10.6743c.0518,1.1539.0225,2.2756-.0085,3.463a33.9505,33.9505,0,0,0,.8356,9.8121,17.84,17.84,0,0,0,1.2088,3.5155A19.2175,19.2175,0,0,0,171.0165,139.4486Z"/><path class="cls-2" d="M174.8661,137.3269a19.7294,19.7294,0,0,1,4.6688-1.1307c2.6445-.2905,5.5829-.6133,6.2662.6629.4781.8928-.4031,4.0293-.2553,3.0274h0a21.4212,21.4212,0,0,1-3.1207.32,16.2092,16.2092,0,0,1-3.45-.56,27.2672,27.2672,0,0,1,5.5882,3.3857,4.6748,4.6748,0,0,1,1.7154,2.521c.2069.9528.0837,2.2631-.5256,2.5114-.4545.1852-.8708-.346-2.4771-1.4643-1.03-.7172-.6727-.3689-3.1112-1.9213a17.3377,17.3377,0,0,0-2.9-1.7691c-.1773.2175,4.6578,3.0619,4.8759,7.0472.02.3669.1011,1.8485-.737,2.3591-.7917.4823-2.036-.1259-2.7228-.678-.9037-.7266-.94-1.4352-1.8334-3.2484-.9173-1.8616-1.6711-3.3914-2.4085-3.3417-1.1359.0765-.9662,3.816-2.8353,4.3791a2.3094,2.3094,0,0,1-2.63-1.253c-.165-.5708.2593-.9142,1.1007-2.4181a12.6631,12.6631,0,0,0,1.7443-4.2021c.2461-1.5074-.1645-1.8725.3143-2.6638C172.48,138.3176,173.0452,137.93,174.8661,137.3269Z"/><path d="M177.9649,152.529a5.0938,5.0938,0,0,1-1.5337-2.29c-.1624-.3794-.3459-.81-.609-1.344-.3649-.74-.8237-1.6711-1.1891-2.251-.0527.1543-.1035.3127-.1467.4466-.3988,1.2437-.9455,2.9469-2.5529,3.4313a3.41,3.41,0,0,1-2.5807-.3354,2.9576,2.9576,0,0,1-1.4766-1.6946,2.6773,2.6773,0,0,1,.6024-2.2851c.163-.2639.3642-.5893.6-1.01a11.7033,11.7033,0,0,0,1.6127-3.8264,5.3678,5.3678,0,0,0,.0611-1.222,2.9417,2.9417,0,0,1,.4029-1.8495c.5426-.8966,1.3571-1.3964,3.3516-2.0566h0A20.8472,20.8472,0,0,1,179.41,135.06c3.1217-.3438,6.3506-.7,7.3989,1.2592.6107,1.1408.0513,4.04-.4453,4.5535l-.5857.602-.7178-.3529c-.259.0379-.5743.08-.9166.1178.3881.282.7808.5914,1.17.9292a5.79,5.79,0,0,1,2.0826,3.1414c.2659,1.2258.1628,3.2527-1.2116,3.8128-.9217.3759-1.601-.1351-2.4605-.7819-.262-.1972-.5807-.4371-.9787-.7175a6.8249,6.8249,0,0,1,.5371,2.271c.1142,2.0922-.6351,3.0022-1.2834,3.3977a2.6057,2.6057,0,0,1-1.9058.2777A5.1624,5.1624,0,0,1,177.9649,152.529Zm1.4291-9.7069c.3841.2493.8448.5486,1.3846.8924,1.2626.8034,1.7612,1.0884,2.0916,1.2765a11.465,11.465,0,0,1,1.0591.6707c.4839.3371.8631.6224,1.1692.8525.0411.031.0829.0626.1249.0938a3.0936,3.0936,0,0,0-.0619-.8125,3.593,3.593,0,0,0-1.3481-1.9007,18.7463,18.7463,0,0,0-4.6753-2.864c-.6395-.289-1.6054-.7266-1.2419-1.7638.2475-.7029.8581-.9165,1.8212-.6361a9.2854,9.2854,0,0,0,2.7053.4323,17.4622,17.4622,0,0,0,2.2539-.1962,5.025,5.025,0,0,0,.1026-1.491c-.4-.5631-3.944-.1725-5.1193-.0431a18.5575,18.5575,0,0,0-4.4346,1.0793v0c-1.6921.5594-1.9717.8351-2.1132,1.0691-.0855.1409-.0914.1612-.0746.5739a7.6251,7.6251,0,0,1-.09,1.6821,13.5632,13.5632,0,0,1-1.8746,4.5766c-.2548.4545-.4724.8073-.6489,1.0935-.1151.186-.2412.3908-.3082.5186a1.3477,1.3477,0,0,0,1.1581.4059c.4569-.1373.7914-1.18,1.0354-1.9408.3609-1.1242.77-2.3982,2.0527-2.4843,1.5019-.1,2.3443,1.6093,3.511,3.977.2907.59.4961,1.0705.6607,1.4568.3593.841.48,1.0973.8639,1.4059a2.2129,2.2129,0,0,0,1.4081.5947c.0026-.0017.2519-.26.1937-1.3225-.1394-2.5449-2.7592-4.7243-3.8779-5.6551-.5611-.4669-1.5-1.248-.7433-2.1756a.9869.9869,0,0,1,1.0394-.4294A7.0266,7.0266,0,0,1,179.394,142.8221Z"/><path d="M72.7333,135.44,71.01,120.0817l1.2329-.1384,3.6748,7.4557c.8507,1.7274,1.5385,3.2884,2.13,4.8141l.0234-.0255c-.334-2.0394-.5695-3.9047-.838-6.2976l-.721-6.4257,1.0641-.1194L79.3,134.7031l-1.1421.1282L74.5062,127.35c-.8017-1.6407-1.5824-3.3295-2.21-4.9437l-.0362.0273c.2822,1.9294.5152,3.7726.8016,6.3245l.7363,6.5626Z"/><path d="M81.1124,134.5919l.58-2.0954A12.6333,12.6333,0,0,1,79.9,126.9521c-.5446-4.8534.852-8.2175,3.1359-8.4738a2.7892,2.7892,0,0,1,2.3157.9633l.5585-1.9316.78.743-.5847,2.05a12.6859,12.6859,0,0,1,1.7631,5.5244c.6009,5.355-.9765,8.2779-3.0658,8.5124a2.8473,2.8473,0,0,1-2.3571-.9819l-.5976,2.0517Zm3.8451-13.6293a2.04,2.04,0,0,0-1.7553-.8876c-1.9075.214-2.52,3.4209-2.16,6.6336a12.5489,12.5489,0,0,0,1.1117,4.0518l.01-.0244ZM82.84,131.8369a1.89,1.89,0,0,0,1.7579.91c1.83-.2053,2.5121-3.2585,2.1234-6.722a12.2386,12.2386,0,0,0-1.0573-3.9193l-.0388.0044Z"/><path d="M96.7912,132.0483A5.2352,5.2352,0,0,1,94.2,133.1928a3.65,3.65,0,0,1-3.4979-1.6611A11.8577,11.8577,0,0,1,88.84,125.949c-.5008-4.5814.9142-8.1319,3.8469-8.461a3.53,3.53,0,0,1,2.26.4616l-.0911,1.6484a2.9853,2.9853,0,0,0-2.0076-.4438c-2.1282.2388-3.256,2.719-2.8239,6.57.4371,3.8963,2.032,6.0478,4.0693,5.8192a2.3413,2.3413,0,0,0,1.4594-.5788l-.514-4.58-1.7777.2-.179-1.5949,2.8809-.3232Z"/><path d="M102.3135,124.83l-3.4.3815.6213,5.5374,3.7892-.4251.1867,1.6633-4.9183.5518L96.8693,117.18l4.7236-.53.1866,1.6633-3.5945.4033.5446,4.8538,3.4-.3815Z"/><path d="M104.9762,131.8222l-1.7233-15.3583,1.233-.1383,3.6748,7.4556c.8507,1.7274,1.5385,3.2884,2.13,4.8141l.0234-.0255c-.334-2.0393-.57-3.9047-.838-6.2975l-.721-6.4258,1.0642-.1194,1.7232,15.3583-1.1421.1281-3.6514-7.4814c-.8018-1.6408-1.5824-3.33-2.21-4.9437l-.0362.0272c.2822,1.9295.5153,3.7726.8016,6.3246l.7364,6.5626Z"/><path d="M113.0694,129.7142c-.0946-.8431.1634-1.4718.6174-1.5228s.8323.5064.9269,1.35c.0921.8206-.1374,1.4693-.6176,1.5232C113.5419,131.115,113.1615,130.5347,113.0694,129.7142Z"/><path d="M118.1906,114.7879l1.3769-.1545,1.1531,10.2769c.4577,4.0787-.7946,5.4884-2.63,5.6944a3.2916,3.2916,0,0,1-1.513-.2l.0243-1.6409a2.4354,2.4354,0,0,0,1.1885.1667c1.2346-.1385,1.8731-1.0178,1.5355-4.0259Z"/><path d="M121.6721,114.5819a7.2859,7.2859,0,0,1,2.077-.5331,2.6517,2.6517,0,0,1,2.5316,1.008,6.1188,6.1188,0,0,1,1.1061,3.1294,7.0021,7.0021,0,0,1-.289,3.3548,2.9,2.9,0,0,1-2.414,1.9784,2.183,2.183,0,0,1-.9-.0373l.69,6.1523-1.0994.1234Zm1.93,7.2824a2.1442,2.1442,0,0,0,.9278.0573c1.3267-.1488,2.0051-1.402,1.7673-3.5211-.2276-2.028-1.1337-2.9183-2.3468-2.7822a2.6687,2.6687,0,0,0-1.0182.2757Z"/><path d="M135.7122,127.6812a5.2262,5.2262,0,0,1-2.5891,1.1442,3.6459,3.6459,0,0,1-3.4949-1.6614,11.8664,11.8664,0,0,1-1.86-5.5828c-.5008-4.5815.9125-8.1318,3.8426-8.46a3.5249,3.5249,0,0,1,2.2574.4618l-.0908,1.6484a2.9807,2.9807,0,0,0-2.0059-.444c-2.1261.2386-3.2527,2.7186-2.8206,6.5695.4372,3.8963,2.0308,6.048,4.0662,5.82a2.3368,2.3368,0,0,0,1.458-.5787l-.5139-4.58-1.7762.1993-.1789-1.5948,2.8783-.323Z"/><ellipse class="cls-2" cx="87.4926" cy="66.8702" rx="17.2108" ry="10.0891" transform="translate(6.6296 141.6214) rotate(-80.1414)"/><path d="M90.27,50.888c4.86.8446,7.6937,8.877,6.1882,17.54S89.575,83.6969,84.7152,82.8523s-7.6937-8.877-6.1882-17.54S85.41,50.0434,90.27,50.888m.3387-1.9491c-6.028-1.0475-12.31,6.1313-14.0308,16.0345s1.77,18.78,7.7985,19.828S96.6862,78.67,98.4072,68.767s-1.77-18.78-7.7985-19.8281Z"/><ellipse class="cls-2" cx="121.7269" cy="63.9847" rx="17.2108" ry="10.0891" transform="translate(37.8452 172.9588) rotate(-80.1414)"/><path d="M124.5043,48.0026c4.86.8445,7.6937,8.877,6.1882,17.54s-6.8832,15.2687-11.743,14.4241-7.6937-8.877-6.1882-17.54,6.8832-15.2687,11.743-14.4241m.3387-1.9491c-6.028-1.0476-12.31,6.1313-14.0308,16.0344s1.77,18.78,7.7985,19.8281,12.31-6.1313,14.0308-16.0345-1.77-18.78-7.7985-19.828Z"/><path d="M76.9615,85.9141a17.7674,17.7674,0,0,0,11.8494,3.1172A.594.594,0,0,0,88.696,87.85,16.4407,16.4407,0,0,1,77.7272,85.007c-.6252-.43-1.3952.4747-.7657.9071Z"/><path d="M129.6157,79.6722a16.2248,16.2248,0,0,1-12.9772,5.0123c-.7548-.0556-.9657,1.1132-.2032,1.1694a17.4908,17.4908,0,0,0,14.0876-5.416c.5286-.5543-.3821-1.3164-.9072-.7657Z"/><ellipse cx="83.1985" cy="66.8159" rx="5.5391" ry="4.1543" transform="translate(3.1242 137.3458) rotate(-80.1414)"/><path d="M78.88,66.0656c.5446-3.1335,2.9248-5.3461,5.306-4.9323s3.8754,3.3,3.3308,6.4333-2.9247,5.3457-5.3059,4.9319S78.3355,69.1987,78.88,66.0656Zm.4505.0783c-.5013,2.885.8261,5.5334,2.9587,5.904s4.2757-1.6747,4.7771-4.56-.826-5.5339-2.9586-5.9045S79.8319,63.259,79.3305,66.1439Z"/><ellipse cx="117.6981" cy="64.6281" rx="5.5391" ry="4.1543" transform="translate(33.8724 169.5227) rotate(-80.1414)"/><path d="M113.38,63.8775c.5445-3.1332,2.9247-5.3457,5.3055-4.932s3.8754,3.3,3.3309,6.4328-2.9248,5.3462-5.306,4.9324S112.8355,67.011,113.38,63.8775Zm.4505.0783c-.5013,2.8849.8256,5.5337,2.9582,5.9043s4.2758-1.6751,4.7772-4.56-.8261-5.5334-2.9587-5.904S114.332,61.0708,113.8306,63.9558Z"/><path d="M104.6249,82.387c-.1084,2.6936,1.645,5.0862,2.1667,7.698a11.0867,11.0867,0,0,1,.2263,4.7954c-.4595,1.5854-2.07,2.3161-3.057,3.527-.4832.5927.424,1.3584.9072.7657.8537-1.0473,2.166-1.692,2.8581-2.8791a6.6517,6.6517,0,0,0,.5732-3.7466,19.36,19.36,0,0,0-.8365-4.6175c-.5345-1.7382-1.7439-3.4678-1.6686-5.34.03-.7522-1.1387-.9653-1.1694-.2032Z"/><path d="M62.5424,234.5488a73.2591,73.2591,0,0,1,13.37-26.5138q.3028-.372.6221-.7576c2.62-3.1742,5.88-7.1253,5.96-13.4573.0242-1.9186-.2683-4.657-4.0392-15.0025-1.7457-4.79-3.6611-9.6194-5.6925-14.355l-2.1043.8839c2.0149,4.6977,3.9142,9.4886,5.6461,14.2392,3.6409,9.9884,3.924,12.57,3.9035,14.2061-.07,5.5418-2.9251,9.0019-5.4442,12.0545-.2157.2617-.4274.518-.6319.77a75.4854,75.4854,0,0,0-13.79,27.3226Z"/><path d="M77.1821,241.3755c-.1721.5734-1.5178.6406-2.6933.6993-3.4021.17-5.3472-.8623-7.9377-1.5328-5.7246-1.4817-8.5479.3693-9.4244-1.2053-.8117-1.4582.8166-4.4713,3.1483-5.4047,1.0623-.4252,2.3019-.4313,7.1944,1.6966C71.12,237.2161,77.5864,240.0287,77.1821,241.3755Z"/><path d="M56.11,239.7636a3.4969,3.4969,0,0,1-.0149-2.9558,6.9129,6.9129,0,0,1,3.683-3.8089c1.4881-.595,3.0882-.49,8.1643,1.7178,7.603,3.3075,10.9005,5.0968,10.3419,6.9565h0c-.3768,1.2539-2.1371,1.3419-3.69,1.4193a16.99,16.99,0,0,1-6.5042-1.0354c-.5866-.1845-1.1932-.375-1.8187-.5367a18.941,18.941,0,0,0-6.2509-.523,10.0848,10.0848,0,0,1-2.0479-.026A2.3952,2.3952,0,0,1,56.11,239.7636Zm10.7213-.2c.6888.1785,1.3273.3788,1.9446.5726a14.4551,14.4551,0,0,0,5.609.9207c.3614-.0181.9237-.046,1.348-.1024-1.49-1.2627-6.8384-3.5891-8.7311-4.4127-4.6113-2.0049-5.5776-1.9375-6.2294-1.6775a4.8606,4.8606,0,0,0-2.5167,2.6651,1.8206,1.8206,0,0,0-.1114,1.38l.0186.031a6.3205,6.3205,0,0,0,1.64.0216,22.6409,22.6409,0,0,1,5.0351.1858C65.4627,239.2466,66.1272,239.3816,66.8309,239.5637Z"/><path d="M97.2328,241.94c.2237.6368,1.7345.7026,3.0542.76,3.82.1662,5.9425-.9951,8.8077-1.7584,6.3316-1.6868,9.5937.3536,10.49-1.404.83-1.6278-1.156-4.9692-3.8181-5.992-1.2127-.466-2.6014-.4644-7.9662,1.9357C103.7983,237.2719,96.7072,240.4443,97.2328,241.94Z"/><path d="M96.0147,242.2785h-.0005c-.7254-2.0658,2.8726-4.0792,11.2125-7.81,5.5642-2.4894,7.3516-2.6166,9.0469-1.9639a8.1963,8.1963,0,0,1,4.3309,4.2129,3.8731,3.8731,0,0,1,.1429,3.2885c-.797,1.5624-2.5844,1.4791-4.3131,1.3988a21.1364,21.1364,0,0,0-6.9733.6235c-.6924.1844-1.3617.4-2.0091.6095a18.7394,18.7394,0,0,1-7.2267,1.1951,17.1672,17.1672,0,0,1-2.0344-.1679A2.4766,2.4766,0,0,1,96.0147,242.2785Zm12.36-5.7841c-2.0729.9275-7.94,3.5528-9.5414,4.9682.4791.0593,1.11.0868,1.5167.1043a15.9427,15.9427,0,0,0,6.23-1.0615c.6812-.22,1.3853-.4473,2.1477-.65a23.9763,23.9763,0,0,1,7.84-.7162,7.4227,7.4227,0,0,0,1.8288-.0283.2113.2113,0,0,0,.0256-.0417,2.0235,2.0235,0,0,0-.1993-1.5342,5.76,5.76,0,0,0-2.9626-2.948,2.0486,2.0486,0,0,0-.4058-.1129C114.0585,234.3406,112.6082,234.6008,108.3745,236.4944Z"/><path d="M112.5118,235.3012l2.5393-.2316a78.6708,78.6708,0,0,0-10.0746-31.1358c-.1773-.3019-.3619-.61-.55-.9239-2.1-3.5078-4.7133-7.874-3.7692-13.727.2775-1.7227,1.06-4.3779,6.8748-14.1351,2.7689-4.6466,5.7216-9.2912,8.7772-13.805l-2.1873-1.17c-3.0791,4.5494-6.0555,9.23-8.8461,13.9132-6.0067,10.08-6.8238,12.8756-7.1457,14.8752-1.062,6.5859,1.7684,11.3145,4.0427,15.114q.2781.4641.5419.91A76.6136,76.6136,0,0,1,112.5118,235.3012Z"/></svg>
