<svg id="Layer_1" data-name="Layer 1" xmlns="http://www.w3.org/2000/svg" xmlns:xlink="http://www.w3.org/1999/xlink" viewBox="0 0 1100 1020"><defs><style>.cls-1,.cls-134{fill:none;}.cls-2,.cls-53{fill:gray;}.cls-2{opacity:0.7;}.cls-134,.cls-135,.cls-136,.cls-3,.cls-4,.cls-5{stroke:#000;stroke-miterlimit:10;}.cls-3,.cls-4,.cls-5{stroke-width:7px;}.cls-3{fill:url(#linear-gradient);}.cls-4{fill:url(#White_Black);}.cls-6{clip-path:url(#clip-path);}.cls-7{fill:#afafaf;}.cls-8{fill:#aeaeae;}.cls-9{fill:#adadad;}.cls-10{fill:#acacac;}.cls-11{fill:#ababab;}.cls-12{fill:#aaa;}.cls-13{fill:#a9a9a9;}.cls-14{fill:#a8a8a8;}.cls-15{fill:#a7a7a7;}.cls-16{fill:#a6a6a6;}.cls-17{fill:#a5a5a5;}.cls-18{fill:#a4a4a4;}.cls-19{fill:#a3a3a3;}.cls-20{fill:#a2a2a2;}.cls-21{fill:#a1a1a1;}.cls-22{fill:#a0a0a0;}.cls-23{fill:#9f9f9f;}.cls-24{fill:#9e9e9e;}.cls-25{fill:#9d9d9d;}.cls-26{fill:#9c9c9c;}.cls-27{fill:#9b9b9b;}.cls-28{fill:#9a9a9a;}.cls-29{fill:#999;}.cls-30{fill:#989898;}.cls-31{fill:#979797;}.cls-32{fill:#969696;}.cls-33{fill:#959595;}.cls-34{fill:#949494;}.cls-35{fill:#939393;}.cls-36{fill:#929292;}.cls-37{fill:#919191;}.cls-38{fill:#909090;}.cls-39{fill:#8f8f8f;}.cls-40{fill:#8e8e8e;}.cls-41{fill:#8d8d8d;}.cls-42{fill:#8c8c8c;}.cls-43{fill:#8a8a8a;}.cls-44{fill:#898989;}.cls-45{fill:#888;}.cls-46{fill:#878787;}.cls-47{fill:#868686;}.cls-48{fill:#858585;}.cls-49{fill:#848484;}.cls-50{fill:#838383;}.cls-51{fill:#828282;}.cls-52{fill:#818181;}.cls-54{fill:#7f7f7f;}.cls-55{fill:#7e7e7e;}.cls-56{fill:#7d7d7d;}.cls-57{fill:#7c7c7c;}.cls-58{fill:#7b7b7b;}.cls-59{fill:#7a7a7a;}.cls-60{fill:#797979;}.cls-61{fill:#787878;}.cls-62{fill:#777;}.cls-63{fill:#767676;}.cls-64{fill:#757575;}.cls-65{fill:#747474;}.cls-66{fill:#737373;}.cls-67{fill:#727272;}.cls-68{fill:#717171;}.cls-69{fill:#707070;}.cls-70{fill:#6f6f6f;}.cls-71{fill:#6e6e6e;}.cls-72{fill:#6d6d6d;}.cls-73{fill:#6c6c6c;}.cls-74{fill:#6b6b6b;}.cls-75{fill:#6a6a6a;}.cls-76{fill:#696969;}.cls-77{fill:#686868;}.cls-78{clip-path:url(#clip-path-2);}.cls-79{clip-path:url(#clip-path-3);}.cls-80{clip-path:url(#clip-path-4);}.cls-81{fill:#676767;}.cls-82{fill:#666;}.cls-83{fill:#656565;}.cls-84{fill:#646464;}.cls-85{fill:#636363;}.cls-86{fill:#626262;}.cls-87{fill:#616161;}.cls-88{fill:#606060;}.cls-89{fill:#5f5f5f;}.cls-90{fill:#5e5e5e;}.cls-91{fill:#5d5d5d;}.cls-92{fill:#5c5c5c;}.cls-93{fill:#5b5b5b;}.cls-94{fill:#5a5a5a;}.cls-95{fill:#585858;}.cls-96{fill:#575757;}.cls-97{fill:#565656;}.cls-98{fill:#555;}.cls-99{fill:#545454;}.cls-100{fill:#535353;}.cls-101{fill:#525252;}.cls-102{fill:#515151;}.cls-103{fill:#505050;}.cls-104{fill:#4f4f4f;}.cls-105{fill:#4e4e4e;}.cls-106{fill:#4d4d4d;}.cls-107{fill:#4c4c4c;}.cls-108{fill:#4b4b4b;}.cls-109{fill:#4a4a4a;}.cls-110{fill:#494949;}.cls-111{fill:#484848;}.cls-112{fill:#474747;}.cls-113{fill:#464646;}.cls-114{fill:#454545;}.cls-115{fill:#444;}.cls-116{fill:#434343;}.cls-117{fill:#424242;}.cls-118{fill:#414141;}.cls-119{fill:#404040;}.cls-120{fill:#3f3f3f;}.cls-121{fill:#3e3e3e;}.cls-122{fill:#3d3d3d;}.cls-123{fill:#3c3c3c;}.cls-124{fill:#3b3b3b;}.cls-125{fill:#3a3a3a;}.cls-126{fill:#393939;}.cls-127{fill:#383838;}.cls-128{fill:#373737;}.cls-129{fill:#363636;}.cls-130{fill:#353535;}.cls-131{fill:#343434;}.cls-132{fill:#333;}.cls-133{fill:#fff08a;}.cls-134,.cls-135,.cls-136{stroke-width:5px;}.cls-135{fill:#fff;}</style><linearGradient id="linear-gradient" x1="467.285" y1="696.4817" x2="1081.2722" y2="696.4817" gradientUnits="userSpaceOnUse"><stop offset="0" stop-color="#b3b3b3"/><stop offset="1" stop-color="#666"/></linearGradient><linearGradient id="White_Black" x1="465.4569" y1="415.41" x2="1080.6137" y2="415.41" gradientUnits="userSpaceOnUse"><stop offset="0" stop-color="#fff"/><stop offset="1"/></linearGradient><clipPath id="clip-path"><ellipse class="cls-1" cx="777.8042" cy="322.7356" rx="29.9751" ry="313.5971" transform="translate(262.2473 988.5724) rotate(-74.7845)"/></clipPath><clipPath id="clip-path-2"><path class="cls-1" d="M1075.6181,422.941a23.6676,23.6676,0,0,1-3.8747.99c-4.5493.8624-11.05,1.1385-19.3213.82-16.0135-.6168-38.54-3.3841-66.9539-8.2249C927.187,406.5966,850.5239,389.0431,769.6,367.0983s-156.4485-45.6589-212.6608-66.7768c-27.4056-10.2951-48.7552-19.4267-63.4559-27.1392-7.594-3.984-13.3768-7.59-17.1871-10.72-3.5462-2.9118-10.1469-8.332-7.3453-23.478,2.8028-15.1475,10.6851-16.6393,14.9135-17.4432,4.55-.8628,11.05-1.1385,19.3214-.82,16.0145.6164,38.5413,3.3837,66.9549,8.2246,58.28,9.9295,134.9443,27.4826,215.8685,49.4274s156.4484,45.66,212.66,66.7772c27.4057,10.2951,48.7552,19.4267,63.4559,27.1392,7.594,3.984,13.3768,7.59,17.1871,10.72,3.5463,2.9118,10.147,8.332,7.3453,23.478C1084.5821,417.7075,1079.7191,421.4362,1075.6181,422.941ZM515.8854,251.71c44.5192,20.21,131.0141,51.0573,259.184,85.8127,128.1572,34.7526,217.2637,51.5236,264.6517,56.2383-44.5192-20.21-131.0131-51.0576-259.1819-85.8134S563.2707,256.423,515.8854,251.71Z"/></clipPath><clipPath id="clip-path-3"><ellipse class="cls-1" cx="778.1197" cy="321.2347" rx="21.3925" ry="305.2258" transform="translate(264.0586 987.8704) rotate(-74.7957)"/></clipPath><clipPath id="clip-path-4"><ellipse class="cls-1" cx="780.794" cy="303.0673" rx="23.5104" ry="313.8161" transform="translate(283.5412 977.0322) rotate(-74.7939)"/></clipPath></defs><title>skrald3</title><ellipse class="cls-2" cx="569.763" cy="972.4199" rx="529.6622" ry="47"/><path class="cls-3" d="M1067.5439,403.5152s9.8148,5.48,13.07,11.8827c.3086.6071,1.3132,39.1975,0,70.3813-1.3355,31.713-10.0747,123.5528-11.8827,136.1944-17.99,125.7851-42.1376,207.2014-65.7408,328.7608a20.5291,20.5291,0,0,1-15.81,16.1645,1007.305,1007.305,0,0,1-204.6743,22.5235A1011.8473,1011.8473,0,0,1,564.114,967.0476h0a20.5305,20.5305,0,0,1-16.0155-17.1l-.3769-2.572c-3.9983-27.27-7.0747-47.7789-7.3124-49.3588-5.4957-36.5245-26.1028-139.6666-29.25-155.3887l-31.8306-180.98q-.1611-.9162-.2389-1.8442L467.285,418.9817"/><ellipse class="cls-4" cx="773.0353" cy="415.41" rx="307.5784" ry="41.1202"/><ellipse class="cls-5" cx="772.5783" cy="429.1568" rx="277.8717" ry="24.7475"/><g class="cls-6"><polygon class="cls-7" points="475.293 238.002 471.265 302.21 462.177 300.358 475.293 238.002"/><polygon class="cls-7" points="479.021 220.277 479.698 220.029 485.023 221.114 479.827 303.955 471.265 302.21 475.293 238.002 479.021 220.277"/><polygon class="cls-8" points="493.585 222.859 488.388 305.7 479.827 303.955 485.023 221.114 493.585 222.859"/><polygon class="cls-9" points="502.146 224.604 496.95 307.445 488.388 305.7 493.585 222.859 502.146 224.604"/><polygon class="cls-10" points="510.708 226.349 505.512 309.19 496.95 307.445 502.146 224.604 510.708 226.349"/><polygon class="cls-11" points="519.27 228.094 514.074 310.935 505.512 309.19 510.708 226.349 519.27 228.094"/><polygon class="cls-12" points="527.832 229.839 522.635 312.68 514.074 310.935 519.27 228.094 527.832 229.839"/><polygon class="cls-13" points="536.393 231.584 531.197 314.425 522.635 312.68 527.832 229.839 536.393 231.584"/><polygon class="cls-14" points="544.955 233.329 539.759 316.17 531.197 314.425 536.393 231.584 544.955 233.329"/><polygon class="cls-15" points="553.517 235.074 548.321 317.915 539.759 316.17 544.955 233.329 553.517 235.074"/><polygon class="cls-16" points="562.078 236.819 556.882 319.66 548.321 317.915 553.517 235.074 562.078 236.819"/><polygon class="cls-17" points="570.64 238.564 565.444 321.405 556.882 319.66 562.078 236.819 570.64 238.564"/><polygon class="cls-18" points="579.202 240.309 574.006 323.15 565.444 321.405 570.64 238.564 579.202 240.309"/><polygon class="cls-19" points="587.764 242.054 582.567 324.895 574.006 323.15 579.202 240.309 587.764 242.054"/><polygon class="cls-20" points="596.325 243.799 591.129 326.64 582.567 324.895 587.764 242.054 596.325 243.799"/><polygon class="cls-21" points="604.887 245.544 599.691 328.385 591.129 326.64 596.325 243.799 604.887 245.544"/><polygon class="cls-22" points="613.449 247.288 608.253 330.13 599.691 328.385 604.887 245.544 613.449 247.288"/><polygon class="cls-23" points="622.01 249.033 616.814 331.874 608.253 330.13 613.449 247.288 622.01 249.033"/><polygon class="cls-24" points="630.572 250.778 625.376 333.619 616.814 331.874 622.01 249.033 630.572 250.778"/><polygon class="cls-25" points="639.134 252.523 633.938 335.364 625.376 333.619 630.572 250.778 639.134 252.523"/><polygon class="cls-26" points="647.696 254.268 642.499 337.109 633.938 335.364 639.134 252.523 647.696 254.268"/><polygon class="cls-27" points="656.257 256.013 651.061 338.854 642.499 337.109 647.696 254.268 656.257 256.013"/><polygon class="cls-28" points="664.819 257.758 659.623 340.599 651.061 338.854 656.257 256.013 664.819 257.758"/><polygon class="cls-29" points="673.381 259.503 668.185 342.344 659.623 340.599 664.819 257.758 673.381 259.503"/><polygon class="cls-30" points="681.943 261.248 676.746 344.089 668.185 342.344 673.381 259.503 681.943 261.248"/><polygon class="cls-31" points="690.504 262.993 685.308 345.834 676.746 344.089 681.943 261.248 690.504 262.993"/><polygon class="cls-32" points="699.066 264.738 693.87 347.579 685.308 345.834 690.504 262.993 699.066 264.738"/><polygon class="cls-33" points="707.628 266.483 702.431 349.324 693.87 347.579 699.066 264.738 707.628 266.483"/><polygon class="cls-34" points="716.189 268.228 710.993 351.069 702.431 349.324 707.628 266.483 716.189 268.228"/><polygon class="cls-35" points="724.751 269.973 719.555 352.814 710.993 351.069 716.189 268.228 724.751 269.973"/><polygon class="cls-36" points="733.313 271.718 728.117 354.559 719.555 352.814 724.751 269.973 733.313 271.718"/><polygon class="cls-37" points="741.875 273.463 736.678 356.304 728.117 354.559 733.313 271.718 741.875 273.463"/><polygon class="cls-38" points="750.436 275.208 745.24 358.049 736.678 356.304 741.875 273.463 750.436 275.208"/><polygon class="cls-39" points="758.998 276.953 753.802 359.794 745.24 358.049 750.436 275.208 758.998 276.953"/><polygon class="cls-40" points="767.56 278.698 762.364 361.539 753.802 359.794 758.998 276.953 767.56 278.698"/><polygon class="cls-41" points="776.121 280.443 770.925 363.284 762.364 361.539 767.56 278.698 776.121 280.443"/><polygon class="cls-42" points="784.683 282.188 779.487 365.029 770.925 363.284 776.121 280.443 784.683 282.188"/><polygon class="cls-43" points="793.245 283.932 788.049 366.774 779.487 365.029 784.683 282.188 793.245 283.932"/><polygon class="cls-44" points="801.807 285.677 796.61 368.518 788.049 366.774 793.245 283.932 801.807 285.677"/><polygon class="cls-45" points="810.368 287.422 805.172 370.263 796.61 368.518 801.807 285.677 810.368 287.422"/><polygon class="cls-46" points="818.93 289.167 813.734 372.008 805.172 370.263 810.368 287.422 818.93 289.167"/><polygon class="cls-47" points="827.492 290.912 822.296 373.753 813.734 372.008 818.93 289.167 827.492 290.912"/><polygon class="cls-48" points="836.053 292.657 830.857 375.498 822.296 373.753 827.492 290.912 836.053 292.657"/><polygon class="cls-49" points="844.615 294.402 839.419 377.243 830.857 375.498 836.053 292.657 844.615 294.402"/><polygon class="cls-50" points="853.177 296.147 847.981 378.988 839.419 377.243 844.615 294.402 853.177 296.147"/><polygon class="cls-51" points="861.739 297.892 856.542 380.733 847.981 378.988 853.177 296.147 861.739 297.892"/><polygon class="cls-52" points="870.3 299.637 865.104 382.478 856.542 380.733 861.739 297.892 870.3 299.637"/><polygon class="cls-53" points="878.862 301.382 873.666 384.223 865.104 382.478 870.3 299.637 878.862 301.382"/><polygon class="cls-54" points="887.424 303.127 882.228 385.968 873.666 384.223 878.862 301.382 887.424 303.127"/><polygon class="cls-55" points="895.986 304.872 890.789 387.713 882.228 385.968 887.424 303.127 895.986 304.872"/><polygon class="cls-56" points="904.547 306.617 899.351 389.458 890.789 387.713 895.986 304.872 904.547 306.617"/><polygon class="cls-57" points="913.109 308.362 907.913 391.203 899.351 389.458 904.547 306.617 913.109 308.362"/><polygon class="cls-58" points="921.671 310.107 916.474 392.948 907.913 391.203 913.109 308.362 921.671 310.107"/><polygon class="cls-59" points="930.232 311.852 925.036 394.693 916.474 392.948 921.671 310.107 930.232 311.852"/><polygon class="cls-60" points="938.794 313.597 933.598 396.438 925.036 394.693 930.232 311.852 938.794 313.597"/><polygon class="cls-61" points="947.356 315.342 942.16 398.183 933.598 396.438 938.794 313.597 947.356 315.342"/><polygon class="cls-62" points="955.918 317.087 950.721 399.928 942.16 398.183 947.356 315.342 955.918 317.087"/><polygon class="cls-63" points="964.479 318.831 959.283 401.673 950.721 399.928 955.918 317.087 964.479 318.831"/><polygon class="cls-64" points="973.041 320.576 967.845 403.417 959.283 401.673 964.479 318.831 973.041 320.576"/><polygon class="cls-65" points="981.603 322.321 976.406 405.162 967.845 403.417 973.041 320.576 981.603 322.321"/><polygon class="cls-66" points="990.164 324.066 984.968 406.907 976.406 405.162 981.603 322.321 990.164 324.066"/><polygon class="cls-67" points="998.726 325.811 993.53 408.652 984.968 406.907 990.164 324.066 998.726 325.811"/><polygon class="cls-68" points="1007.288 327.556 1002.092 410.397 993.53 408.652 998.726 325.811 1007.288 327.556"/><polygon class="cls-69" points="1015.85 329.301 1010.653 412.142 1002.092 410.397 1007.288 327.556 1015.85 329.301"/><polygon class="cls-70" points="1024.411 331.046 1019.215 413.887 1010.653 412.142 1015.85 329.301 1024.411 331.046"/><polygon class="cls-71" points="1032.973 332.791 1027.777 415.632 1019.215 413.887 1024.411 331.046 1032.973 332.791"/><polygon class="cls-72" points="1041.535 334.536 1036.339 417.377 1027.777 415.632 1032.973 332.791 1041.535 334.536"/><polygon class="cls-73" points="1050.096 336.281 1044.9 419.122 1036.339 417.377 1041.535 334.536 1050.096 336.281"/><polygon class="cls-74" points="1058.658 338.026 1053.462 420.867 1044.9 419.122 1050.096 336.281 1058.658 338.026"/><polygon class="cls-75" points="1067.22 339.771 1062.024 422.612 1053.462 420.867 1058.658 338.026 1067.22 339.771"/><polygon class="cls-76" points="1075.782 341.516 1070.585 424.357 1062.024 422.612 1067.22 339.771 1075.782 341.516"/><polygon class="cls-77" points="1084.343 343.261 1080.316 407.469 1076.588 425.194 1075.911 425.442 1070.585 424.357 1075.782 341.516 1084.343 343.261"/><polygon class="cls-77" points="1080.316 407.469 1084.343 343.261 1093.431 345.113 1080.316 407.469"/></g><path d="M939.5791,396.6062C889.7631,386.4533,831.6466,372.5,771.46,356.178c-80.8706-21.9289-156.3355-45.6256-212.4936-66.7235-88.6418-33.2994-86.7554-43.5-85.7411-48.9792a9.8253,9.8253,0,0,1,1.7411-4.1136c2.1234-2.7926,8.5855-11.2939,98.3425,4.3787,57.5886,10.0591,132.4648,27.3,210.84,48.552C865.02,311.2233,940.4844,334.92,996.6429,356.016c88.6414,33.3013,86.7544,43.5,85.7411,48.9793a9.8212,9.8212,0,0,1-1.7411,4.1136c-2.1238,2.7945-8.5869,11.2956-98.3434-4.3789C968.9356,402.3976,954.6322,399.6742,939.5791,396.6062ZM478.0373,241.33c3.3753,4.4054,18.642,16.602,87.1189,42.0406,55.626,20.6673,129.5137,43.7757,208.0516,65.073,78.1318,21.1889,152.8183,38.4008,210.2978,48.45,70.6622,12.362,89.2253,9.4061,94.0664,7.2484-3.3753-4.4053-18.6424-16.6-87.12-42.0407-55.6254-20.6652-129.5136-43.7758-208.0515-65.0731-78.1326-21.185-152.8164-38.3964-210.2973-48.4474C501.4411,236.2178,482.878,239.1737,478.0373,241.33Z"/><g class="cls-78"><polygon class="cls-11" points="510.531 277.167 509.598 292.051 507.491 291.621 510.531 277.167"/><polygon class="cls-12" points="516.738 247.658 520.432 246.303 521.313 246.482 518.342 293.833 509.598 292.051 510.531 277.167 516.738 247.658"/><polygon class="cls-13" points="530.058 248.264 527.087 295.615 518.342 293.833 521.313 246.482 530.058 248.264"/><polygon class="cls-14" points="538.803 250.047 535.832 297.398 527.087 295.615 530.058 248.264 538.803 250.047"/><polygon class="cls-15" points="547.547 251.829 544.577 299.18 535.832 297.398 538.803 250.047 547.547 251.829"/><polygon class="cls-16" points="556.292 253.611 553.322 300.962 544.577 299.18 547.547 251.829 556.292 253.611"/><polygon class="cls-17" points="565.037 255.394 562.067 302.745 553.322 300.962 556.292 253.611 565.037 255.394"/><polygon class="cls-18" points="573.782 257.176 570.812 304.527 562.067 302.745 565.037 255.394 573.782 257.176"/><polygon class="cls-19" points="582.527 258.958 579.557 306.309 570.812 304.527 573.782 257.176 582.527 258.958"/><polygon class="cls-20" points="591.272 260.74 588.302 308.091 579.557 306.309 582.527 258.958 591.272 260.74"/><polygon class="cls-21" points="600.017 262.523 597.047 309.874 588.302 308.091 591.272 260.74 600.017 262.523"/><polygon class="cls-22" points="608.762 264.305 605.792 311.656 597.047 309.874 600.017 262.523 608.762 264.305"/><polygon class="cls-23" points="617.507 266.087 614.537 313.438 605.792 311.656 608.762 264.305 617.507 266.087"/><polygon class="cls-24" points="626.252 267.87 623.282 315.221 614.537 313.438 617.507 266.087 626.252 267.87"/><polygon class="cls-25" points="634.997 269.652 632.027 317.003 623.282 315.221 626.252 267.87 634.997 269.652"/><polygon class="cls-26" points="643.742 271.434 640.772 318.785 632.027 317.003 634.997 269.652 643.742 271.434"/><polygon class="cls-27" points="652.487 273.217 649.517 320.567 640.772 318.785 643.742 271.434 652.487 273.217"/><polygon class="cls-28" points="661.232 274.999 658.262 322.35 649.517 320.567 652.487 273.217 661.232 274.999"/><polygon class="cls-29" points="669.977 276.781 667.007 324.132 658.262 322.35 661.232 274.999 669.977 276.781"/><polygon class="cls-30" points="678.722 278.563 675.752 325.914 667.007 324.132 669.977 276.781 678.722 278.563"/><polygon class="cls-31" points="687.467 280.346 684.497 327.697 675.752 325.914 678.722 278.563 687.467 280.346"/><polygon class="cls-32" points="696.212 282.128 693.242 329.479 684.497 327.697 687.467 280.346 696.212 282.128"/><polygon class="cls-33" points="704.957 283.91 701.987 331.261 693.242 329.479 696.212 282.128 704.957 283.91"/><polygon class="cls-34" points="713.702 285.693 710.732 333.044 701.987 331.261 704.957 283.91 713.702 285.693"/><polygon class="cls-35" points="722.447 287.475 719.477 334.826 710.732 333.044 713.702 285.693 722.447 287.475"/><polygon class="cls-36" points="731.192 289.257 728.221 336.608 719.477 334.826 722.447 287.475 731.192 289.257"/><polygon class="cls-37" points="739.937 291.039 736.966 338.39 728.221 336.608 731.192 289.257 739.937 291.039"/><polygon class="cls-38" points="748.681 292.822 745.711 340.173 736.966 338.39 739.937 291.039 748.681 292.822"/><polygon class="cls-39" points="757.426 294.604 754.456 341.955 745.711 340.173 748.681 292.822 757.426 294.604"/><polygon class="cls-40" points="766.171 296.386 763.201 343.737 754.456 341.955 757.426 294.604 766.171 296.386"/><polygon class="cls-41" points="774.916 298.169 771.946 345.52 763.201 343.737 766.171 296.386 774.916 298.169"/><polygon class="cls-42" points="783.661 299.951 780.691 347.302 771.946 345.52 774.916 298.169 783.661 299.951"/><polygon class="cls-43" points="792.406 301.733 789.436 349.084 780.691 347.302 783.661 299.951 792.406 301.733"/><polygon class="cls-44" points="801.151 303.516 798.181 350.867 789.436 349.084 792.406 301.733 801.151 303.516"/><polygon class="cls-45" points="809.896 305.298 806.926 352.649 798.181 350.867 801.151 303.516 809.896 305.298"/><polygon class="cls-46" points="818.641 307.08 815.671 354.431 806.926 352.649 809.896 305.298 818.641 307.08"/><polygon class="cls-47" points="827.386 308.862 824.416 356.213 815.671 354.431 818.641 307.08 827.386 308.862"/><polygon class="cls-48" points="836.131 310.645 833.161 357.996 824.416 356.213 827.386 308.862 836.131 310.645"/><polygon class="cls-49" points="844.876 312.427 841.906 359.778 833.161 357.996 836.131 310.645 844.876 312.427"/><polygon class="cls-50" points="853.621 314.209 850.651 361.56 841.906 359.778 844.876 312.427 853.621 314.209"/><polygon class="cls-51" points="862.366 315.992 859.396 363.343 850.651 361.56 853.621 314.209 862.366 315.992"/><polygon class="cls-52" points="871.111 317.774 868.141 365.125 859.396 363.343 862.366 315.992 871.111 317.774"/><polygon class="cls-53" points="879.856 319.556 876.886 366.907 868.141 365.125 871.111 317.774 879.856 319.556"/><polygon class="cls-54" points="888.601 321.339 885.631 368.689 876.886 366.907 879.856 319.556 888.601 321.339"/><polygon class="cls-55" points="897.346 323.121 894.376 370.472 885.631 368.689 888.601 321.339 897.346 323.121"/><polygon class="cls-56" points="906.091 324.903 903.121 372.254 894.376 370.472 897.346 323.121 906.091 324.903"/><polygon class="cls-57" points="914.836 326.685 911.866 374.036 903.121 372.254 906.091 324.903 914.836 326.685"/><polygon class="cls-58" points="923.581 328.468 920.611 375.819 911.866 374.036 914.836 326.685 923.581 328.468"/><polygon class="cls-59" points="932.326 330.25 929.356 377.601 920.611 375.819 923.581 328.468 932.326 330.25"/><polygon class="cls-60" points="941.071 332.032 938.1 379.383 929.356 377.601 932.326 330.25 941.071 332.032"/><polygon class="cls-61" points="949.816 333.815 946.845 381.166 938.1 379.383 941.071 332.032 949.816 333.815"/><polygon class="cls-62" points="958.56 335.597 955.59 382.948 946.845 381.166 949.816 333.815 958.56 335.597"/><polygon class="cls-63" points="967.305 337.379 964.335 384.73 955.59 382.948 958.56 335.597 967.305 337.379"/><polygon class="cls-64" points="976.05 339.161 973.08 386.512 964.335 384.73 967.305 337.379 976.05 339.161"/><polygon class="cls-65" points="984.795 340.944 981.825 388.295 973.08 386.512 976.05 339.161 984.795 340.944"/><polygon class="cls-66" points="993.54 342.726 990.57 390.077 981.825 388.295 984.795 340.944 993.54 342.726"/><polygon class="cls-67" points="1002.285 344.508 999.315 391.859 990.57 390.077 993.54 342.726 1002.285 344.508"/><polygon class="cls-68" points="1011.03 346.291 1008.06 393.642 999.315 391.859 1002.285 344.508 1011.03 346.291"/><polygon class="cls-69" points="1019.775 348.073 1016.805 395.424 1008.06 393.642 1011.03 346.291 1019.775 348.073"/><polygon class="cls-70" points="1028.52 349.855 1025.55 397.206 1016.805 395.424 1019.775 348.073 1028.52 349.855"/><polygon class="cls-71" points="1037.265 351.638 1034.295 398.989 1025.55 397.206 1028.52 349.855 1037.265 351.638"/><polygon class="cls-72" points="1046.01 353.42 1045.077 368.298 1038.869 397.814 1035.177 399.168 1034.295 398.989 1037.265 351.638 1046.01 353.42"/><polygon class="cls-73" points="1045.077 368.298 1046.01 353.42 1048.116 353.849 1045.077 368.298"/><polygon class="cls-7" points="468.674 238.476 464.05 312.205 453.614 310.078 468.674 238.476"/><polygon class="cls-7" points="472.606 219.784 478.847 217.494 472.795 313.988 464.05 312.205 468.674 238.476 472.606 219.784"/><polygon class="cls-8" points="478.847 217.494 487.912 214.168 481.539 315.77 472.795 313.988 478.847 217.494"/><polygon class="cls-9" points="487.912 214.168 494.798 211.641 496.901 212.07 490.284 317.552 481.539 315.77 487.912 214.168"/><polygon class="cls-10" points="505.646 213.852 499.029 319.334 490.284 317.552 496.901 212.07 505.646 213.852"/><polygon class="cls-11" points="514.391 215.635 507.774 321.117 499.029 319.334 505.646 213.852 514.391 215.635"/><polygon class="cls-12" points="523.136 217.417 516.519 322.899 507.774 321.117 514.391 215.635 523.136 217.417"/><polygon class="cls-13" points="531.881 219.199 525.264 324.681 516.519 322.899 523.136 217.417 531.881 219.199"/><polygon class="cls-14" points="540.626 220.982 534.009 326.464 525.264 324.681 531.881 219.199 540.626 220.982"/><polygon class="cls-15" points="549.371 222.764 542.754 328.246 534.009 326.464 540.626 220.982 549.371 222.764"/><polygon class="cls-16" points="558.116 224.546 551.499 330.028 542.754 328.246 549.371 222.764 558.116 224.546"/><polygon class="cls-17" points="566.86 226.328 560.244 331.811 551.499 330.028 558.116 224.546 566.86 226.328"/><polygon class="cls-18" points="575.605 228.111 568.989 333.593 560.244 331.811 566.86 226.328 575.605 228.111"/><polygon class="cls-19" points="584.35 229.893 577.734 335.375 568.989 333.593 575.605 228.111 584.35 229.893"/><polygon class="cls-20" points="593.095 231.675 586.479 337.157 577.734 335.375 584.35 229.893 593.095 231.675"/><polygon class="cls-21" points="601.84 233.458 595.224 338.94 586.479 337.157 593.095 231.675 601.84 233.458"/><polygon class="cls-22" points="610.585 235.24 603.969 340.722 595.224 338.94 601.84 233.458 610.585 235.24"/><polygon class="cls-23" points="619.33 237.022 612.714 342.504 603.969 340.722 610.585 235.24 619.33 237.022"/><polygon class="cls-24" points="628.075 238.804 621.459 344.287 612.714 342.504 619.33 237.022 628.075 238.804"/><polygon class="cls-25" points="636.82 240.587 630.204 346.069 621.459 344.287 628.075 238.804 636.82 240.587"/><polygon class="cls-26" points="645.565 242.369 638.949 347.851 630.204 346.069 636.82 240.587 645.565 242.369"/><polygon class="cls-27" points="654.31 244.151 647.694 349.634 638.949 347.851 645.565 242.369 654.31 244.151"/><polygon class="cls-28" points="663.055 245.934 656.439 351.416 647.694 349.634 654.31 244.151 663.055 245.934"/><polygon class="cls-29" points="671.8 247.716 665.184 353.198 656.439 351.416 663.055 245.934 671.8 247.716"/><polygon class="cls-30" points="680.545 249.498 673.929 354.98 665.184 353.198 671.8 247.716 680.545 249.498"/><polygon class="cls-31" points="689.29 251.281 682.674 356.763 673.929 354.98 680.545 249.498 689.29 251.281"/><polygon class="cls-32" points="698.035 253.063 691.418 358.545 682.674 356.763 689.29 251.281 698.035 253.063"/><polygon class="cls-33" points="706.78 254.845 700.163 360.327 691.418 358.545 698.035 253.063 706.78 254.845"/><polygon class="cls-34" points="715.525 256.627 708.908 362.11 700.163 360.327 706.78 254.845 715.525 256.627"/><polygon class="cls-35" points="724.27 258.41 717.653 363.892 708.908 362.11 715.525 256.627 724.27 258.41"/><polygon class="cls-36" points="733.015 260.192 726.398 365.674 717.653 363.892 724.27 258.41 733.015 260.192"/><polygon class="cls-37" points="741.76 261.974 735.143 367.456 726.398 365.674 733.015 260.192 741.76 261.974"/><polygon class="cls-38" points="750.505 263.757 743.888 369.239 735.143 367.456 741.76 261.974 750.505 263.757"/><polygon class="cls-39" points="759.25 265.539 752.633 371.021 743.888 369.239 750.505 263.757 759.25 265.539"/><polygon class="cls-40" points="767.995 267.321 761.378 372.803 752.633 371.021 759.25 265.539 767.995 267.321"/><polygon class="cls-41" points="776.739 269.104 770.123 374.586 761.378 372.803 767.995 267.321 776.739 269.104"/><polygon class="cls-42" points="785.484 270.886 778.868 376.368 770.123 374.586 776.739 269.104 785.484 270.886"/><polygon class="cls-43" points="794.229 272.668 787.613 378.15 778.868 376.368 785.484 270.886 794.229 272.668"/><polygon class="cls-44" points="802.974 274.45 796.358 379.933 787.613 378.15 794.229 272.668 802.974 274.45"/><polygon class="cls-45" points="811.719 276.233 805.103 381.715 796.358 379.933 802.974 274.45 811.719 276.233"/><polygon class="cls-46" points="820.464 278.015 813.848 383.497 805.103 381.715 811.719 276.233 820.464 278.015"/><polygon class="cls-47" points="829.209 279.797 822.593 385.279 813.848 383.497 820.464 278.015 829.209 279.797"/><polygon class="cls-48" points="837.954 281.58 831.338 387.062 822.593 385.279 829.209 279.797 837.954 281.58"/><polygon class="cls-49" points="846.699 283.362 840.083 388.844 831.338 387.062 837.954 281.58 846.699 283.362"/><polygon class="cls-50" points="855.444 285.144 848.828 390.626 840.083 388.844 846.699 283.362 855.444 285.144"/><polygon class="cls-51" points="864.189 286.926 857.573 392.409 848.828 390.626 855.444 285.144 864.189 286.926"/><polygon class="cls-52" points="872.934 288.709 866.318 394.191 857.573 392.409 864.189 286.926 872.934 288.709"/><polygon class="cls-53" points="881.679 290.491 875.063 395.973 866.318 394.191 872.934 288.709 881.679 290.491"/><polygon class="cls-54" points="890.424 292.273 883.808 397.756 875.063 395.973 881.679 290.491 890.424 292.273"/><polygon class="cls-55" points="899.169 294.056 892.553 399.538 883.808 397.756 890.424 292.273 899.169 294.056"/><polygon class="cls-56" points="907.914 295.838 901.297 401.32 892.553 399.538 899.169 294.056 907.914 295.838"/><polygon class="cls-57" points="916.659 297.62 910.042 403.102 901.297 401.32 907.914 295.838 916.659 297.62"/><polygon class="cls-58" points="925.404 299.403 918.787 404.885 910.042 403.102 916.659 297.62 925.404 299.403"/><polygon class="cls-59" points="934.149 301.185 927.532 406.667 918.787 404.885 925.404 299.403 934.149 301.185"/><polygon class="cls-60" points="942.894 302.967 936.277 408.449 927.532 406.667 934.149 301.185 942.894 302.967"/><polygon class="cls-61" points="951.639 304.749 945.022 410.232 936.277 408.449 942.894 302.967 951.639 304.749"/><polygon class="cls-62" points="960.384 306.532 953.767 412.014 945.022 410.232 951.639 304.749 960.384 306.532"/><polygon class="cls-63" points="969.129 308.314 962.512 413.796 953.767 412.014 960.384 306.532 969.129 308.314"/><polygon class="cls-64" points="977.874 310.096 971.257 415.578 962.512 413.796 969.129 308.314 977.874 310.096"/><polygon class="cls-65" points="986.618 311.879 980.002 417.361 971.257 415.578 977.874 310.096 986.618 311.879"/><polygon class="cls-66" points="995.363 313.661 988.747 419.143 980.002 417.361 986.618 311.879 995.363 313.661"/><polygon class="cls-67" points="1004.108 315.443 997.492 420.925 988.747 419.143 995.363 313.661 1004.108 315.443"/><polygon class="cls-68" points="1012.853 317.226 1006.237 422.708 997.492 420.925 1004.108 315.443 1012.853 317.226"/><polygon class="cls-69" points="1021.598 319.008 1014.982 424.49 1006.237 422.708 1012.853 317.226 1021.598 319.008"/><polygon class="cls-70" points="1030.343 320.79 1023.727 426.272 1014.982 424.49 1021.598 319.008 1030.343 320.79"/><polygon class="cls-71" points="1039.088 322.572 1032.472 428.055 1023.727 426.272 1030.343 320.79 1039.088 322.572"/><polygon class="cls-72" points="1047.833 324.355 1041.217 429.837 1032.472 428.055 1039.088 322.572 1047.833 324.355"/><polygon class="cls-73" points="1056.578 326.137 1049.962 431.619 1041.217 429.837 1047.833 324.355 1056.578 326.137"/><polygon class="cls-74" points="1065.323 327.919 1058.74 432.873 1057.803 433.217 1049.962 431.619 1056.578 326.137 1065.323 327.919"/><polygon class="cls-75" points="1074.068 329.702 1067.805 429.547 1058.74 432.873 1065.323 327.919 1074.068 329.702"/><polygon class="cls-76" points="1082.813 331.484 1076.871 426.221 1067.805 429.547 1074.068 329.702 1082.813 331.484"/><polygon class="cls-77" points="1091.558 333.266 1086.975 406.331 1083.287 423.867 1076.871 426.221 1082.813 331.484 1091.558 333.266"/><polygon class="cls-77" points="1086.975 406.331 1091.558 333.266 1101.899 335.374 1086.975 406.331"/></g><path d="M936.8721,411.4105c-49.7783-10.1452-107.7779-24.0748-168.1461-40.4456-80.95-21.951-156.5044-45.6758-212.7466-66.8027-27.4385-10.3077-48.8256-19.4552-63.5666-27.1908-7.6636-4.0185-13.5089-7.6683-17.3747-10.8456-3.6809-3.021-11.3431-9.308-8.01-27.3306,3.4234-18.5022,13.1214-20.3479,17.2625-21.1344,4.6287-.8788,11.207-1.1606,19.5591-.84,16.0566.6183,38.6246,3.39,67.0771,8.2379,58.3293,9.9355,135.0222,27.497,215.9557,49.4466,80.9388,21.9467,156.4928,45.6715,212.7452,66.8043,27.4349,10.307,48.822,19.4545,63.5671,27.189,7.665,4.0207,13.51,7.6706,17.3746,10.8456,3.6829,3.0253,11.343,9.3178,8.01,27.3306-2.0071,10.8559-6.4492,17.6167-13.2011,20.0925h0a24.3089,24.3089,0,0,1-4.0687,1.0443c-4.6255.8775-11.2038,1.1593-19.5513.8395-16.0572-.62-38.6242-3.3916-67.0771-8.238C969.8566,417.888,953.8406,414.8688,936.8721,411.4105ZM617.129,241.8293c-16.9583-3.4563-32.96-6.4724-47.7761-8.9961-28.3717-4.8357-50.8571-7.5982-66.8313-8.2116-8.2015-.3158-14.6244-.0477-19.09.801-5.2544.9983-10.5473,2.8821-12.5585,13.7491-2.0952,11.33,2.35,16.07,6.6808,19.6247,3.7453,3.08,9.4646,6.6445,16.9994,10.5952,14.6685,7.6972,35.981,16.8117,63.3451,27.09C614.0856,317.59,689.58,341.2944,770.4737,363.23c80.89,21.9367,157.5214,39.4857,215.7814,49.4089,28.372,4.8339,50.8574,7.5964,66.8322,8.2118,8.1956.3166,14.6188.0466,19.0889-.8032a22.5791,22.5791,0,0,0,3.6818-.9335l0-.0019c4.8265-1.7693,7.564-5.7213,8.8764-12.8137,2.0949-11.3242-2.3494-16.066-6.6794-19.6225-3.7457-3.0777-9.465-6.6425-17.0009-10.5974-14.6726-7.6961-35.9851-16.8106-63.3454-27.0885-56.1974-21.1118-131.6913-44.8164-212.5745-66.75C724.8209,265.8845,666.8659,251.9661,617.129,241.8293ZM940.6264,381.5645c-41.6184-8.4822-96.3808-21.1769-166.4314-40.1733-157.3007-42.6562-233.7583-74.259-259.33-85.864l1.7407-7.7106c27.2106,2.7019,107.4858,13.6,264.8068,56.2644,157.2849,42.6491,233.7513,74.2556,259.3276,85.8637l-1.7416,7.71C1023.9042,396.1537,992.4664,392.13,940.6264,381.5645ZM543.5494,259.1934c39.0275,15.66,111.9954,41.814,232.3933,74.463C896.0391,366.22,971.17,380.2558,1012.0549,386.2781c-39.0317-15.6626-112.0042-41.8178-232.39-74.4622C659.56,279.2462,584.4293,265.2068,543.5494,259.1934Z"/><g class="cls-79"><polygon class="cls-7" points="483.571 240.504 481.194 293.587 472.767 291.87 483.571 240.504"/><polygon class="cls-7" points="492.434 230.141 489.517 295.284 481.194 293.587 483.571 240.504 486.025 228.835 492.434 230.141"/><polygon class="cls-8" points="500.757 231.837 497.84 296.98 489.517 295.284 492.434 230.141 500.757 231.837"/><polygon class="cls-9" points="509.08 233.533 506.163 298.676 497.84 296.98 500.757 231.837 509.08 233.533"/><polygon class="cls-10" points="517.403 235.23 514.486 300.373 506.163 298.676 509.08 233.533 517.403 235.23"/><polygon class="cls-11" points="525.726 236.926 522.809 302.069 514.486 300.373 517.403 235.23 525.726 236.926"/><polygon class="cls-12" points="534.049 238.622 531.132 303.765 522.809 302.069 525.726 236.926 534.049 238.622"/><polygon class="cls-13" points="542.372 240.319 539.455 305.461 531.132 303.765 534.049 238.622 542.372 240.319"/><polygon class="cls-14" points="550.695 242.015 547.778 307.158 539.455 305.461 542.372 240.319 550.695 242.015"/><polygon class="cls-15" points="559.018 243.711 556.101 308.854 547.778 307.158 550.695 242.015 559.018 243.711"/><polygon class="cls-16" points="567.341 245.408 564.424 310.55 556.101 308.854 559.018 243.711 567.341 245.408"/><polygon class="cls-17" points="575.664 247.104 572.747 312.247 564.424 310.55 567.341 245.408 575.664 247.104"/><polygon class="cls-18" points="583.987 248.8 581.07 313.943 572.747 312.247 575.664 247.104 583.987 248.8"/><polygon class="cls-19" points="592.31 250.496 589.393 315.639 581.07 313.943 583.987 248.8 592.31 250.496"/><polygon class="cls-20" points="600.633 252.193 597.716 317.336 589.393 315.639 592.31 250.496 600.633 252.193"/><polygon class="cls-21" points="608.956 253.889 606.039 319.032 597.716 317.336 600.633 252.193 608.956 253.889"/><polygon class="cls-22" points="617.279 255.585 614.362 320.728 606.039 319.032 608.956 253.889 617.279 255.585"/><polygon class="cls-23" points="625.602 257.282 622.685 322.424 614.362 320.728 617.279 255.585 625.602 257.282"/><polygon class="cls-24" points="633.925 258.978 631.008 324.121 622.685 322.424 625.602 257.282 633.925 258.978"/><polygon class="cls-25" points="642.248 260.674 639.331 325.817 631.008 324.121 633.925 258.978 642.248 260.674"/><polygon class="cls-26" points="650.571 262.371 647.654 327.513 639.331 325.817 642.248 260.674 650.571 262.371"/><polygon class="cls-27" points="658.894 264.067 655.977 329.21 647.654 327.513 650.571 262.371 658.894 264.067"/><polygon class="cls-28" points="667.218 265.763 664.3 330.906 655.977 329.21 658.894 264.067 667.218 265.763"/><polygon class="cls-29" points="675.541 267.46 672.623 332.602 664.3 330.906 667.218 265.763 675.541 267.46"/><polygon class="cls-30" points="683.864 269.156 680.946 334.299 672.623 332.602 675.541 267.46 683.864 269.156"/><polygon class="cls-31" points="692.187 270.852 689.269 335.995 680.946 334.299 683.864 269.156 692.187 270.852"/><polygon class="cls-32" points="700.51 272.548 697.592 337.691 689.269 335.995 692.187 270.852 700.51 272.548"/><polygon class="cls-33" points="708.833 274.245 705.915 339.387 697.592 337.691 700.51 272.548 708.833 274.245"/><polygon class="cls-34" points="717.156 275.941 714.238 341.084 705.915 339.387 708.833 274.245 717.156 275.941"/><polygon class="cls-35" points="725.479 277.637 722.561 342.78 714.238 341.084 717.156 275.941 725.479 277.637"/><polygon class="cls-36" points="733.802 279.334 730.884 344.476 722.561 342.78 725.479 277.637 733.802 279.334"/><polygon class="cls-37" points="742.125 281.03 739.207 346.173 730.884 344.476 733.802 279.334 742.125 281.03"/><polygon class="cls-38" points="750.448 282.726 747.53 347.869 739.207 346.173 742.125 281.03 750.448 282.726"/><polygon class="cls-39" points="758.771 284.423 755.853 349.565 747.53 347.869 750.448 282.726 758.771 284.423"/><polygon class="cls-40" points="767.094 286.119 764.176 351.262 755.853 349.565 758.771 284.423 767.094 286.119"/><polygon class="cls-41" points="775.417 287.815 772.499 352.958 764.176 351.262 767.094 286.119 775.417 287.815"/><polygon class="cls-42" points="783.74 289.511 780.823 354.654 772.499 352.958 775.417 287.815 783.74 289.511"/><polygon class="cls-43" points="792.063 291.208 789.146 356.351 780.823 354.654 783.74 289.511 792.063 291.208"/><polygon class="cls-44" points="800.386 292.904 797.469 358.047 789.146 356.351 792.063 291.208 800.386 292.904"/><polygon class="cls-45" points="808.709 294.6 805.792 359.743 797.469 358.047 800.386 292.904 808.709 294.6"/><polygon class="cls-46" points="817.032 296.297 814.115 361.439 805.792 359.743 808.709 294.6 817.032 296.297"/><polygon class="cls-47" points="825.355 297.993 822.438 363.136 814.115 361.439 817.032 296.297 825.355 297.993"/><polygon class="cls-48" points="833.678 299.689 830.761 364.832 822.438 363.136 825.355 297.993 833.678 299.689"/><polygon class="cls-49" points="842.001 301.386 839.084 366.528 830.761 364.832 833.678 299.689 842.001 301.386"/><polygon class="cls-50" points="850.324 303.082 847.407 368.225 839.084 366.528 842.001 301.386 850.324 303.082"/><polygon class="cls-51" points="858.647 304.778 855.73 369.921 847.407 368.225 850.324 303.082 858.647 304.778"/><polygon class="cls-52" points="866.97 306.474 864.053 371.617 855.73 369.921 858.647 304.778 866.97 306.474"/><polygon class="cls-53" points="875.293 308.171 872.376 373.314 864.053 371.617 866.97 306.474 875.293 308.171"/><polygon class="cls-54" points="883.616 309.867 880.699 375.01 872.376 373.314 875.293 308.171 883.616 309.867"/><polygon class="cls-55" points="891.939 311.563 889.022 376.706 880.699 375.01 883.616 309.867 891.939 311.563"/><polygon class="cls-56" points="900.262 313.26 897.345 378.402 889.022 376.706 891.939 311.563 900.262 313.26"/><polygon class="cls-57" points="908.585 314.956 905.668 380.099 897.345 378.402 900.262 313.26 908.585 314.956"/><polygon class="cls-58" points="916.908 316.652 913.991 381.795 905.668 380.099 908.585 314.956 916.908 316.652"/><polygon class="cls-59" points="925.231 318.349 922.314 383.491 913.991 381.795 916.908 316.652 925.231 318.349"/><polygon class="cls-60" points="933.554 320.045 930.637 385.188 922.314 383.491 925.231 318.349 933.554 320.045"/><polygon class="cls-61" points="941.877 321.741 938.96 386.884 930.637 385.188 933.554 320.045 941.877 321.741"/><polygon class="cls-62" points="950.2 323.438 947.283 388.58 938.96 386.884 941.877 321.741 950.2 323.438"/><polygon class="cls-63" points="958.523 325.134 955.606 390.277 947.283 388.58 950.2 323.438 958.523 325.134"/><polygon class="cls-64" points="966.846 326.83 963.929 391.973 955.606 390.277 958.523 325.134 966.846 326.83"/><polygon class="cls-65" points="975.169 328.526 972.252 393.669 963.929 391.973 966.846 326.83 975.169 328.526"/><polygon class="cls-66" points="983.492 330.223 980.575 395.365 972.252 393.669 975.169 328.526 983.492 330.223"/><polygon class="cls-67" points="991.815 331.919 988.898 397.062 980.575 395.365 983.492 330.223 991.815 331.919"/><polygon class="cls-68" points="1000.138 333.615 997.221 398.758 988.898 397.062 991.815 331.919 1000.138 333.615"/><polygon class="cls-69" points="1008.461 335.312 1005.544 400.454 997.221 398.758 1000.138 333.615 1008.461 335.312"/><polygon class="cls-70" points="1016.785 337.008 1013.867 402.151 1005.544 400.454 1008.461 335.312 1016.785 337.008"/><polygon class="cls-71" points="1025.108 338.704 1022.19 403.847 1013.867 402.151 1016.785 337.008 1025.108 338.704"/><polygon class="cls-72" points="1033.431 340.401 1030.513 405.543 1022.19 403.847 1025.108 338.704 1033.431 340.401"/><polygon class="cls-73" points="1041.754 342.097 1038.836 407.24 1030.513 405.543 1033.431 340.401 1041.754 342.097"/><polygon class="cls-74" points="1050.077 343.793 1047.159 408.936 1038.836 407.24 1041.754 342.097 1050.077 343.793"/><polygon class="cls-75" points="1058.4 345.489 1055.482 410.632 1047.159 408.936 1050.077 343.793 1058.4 345.489"/><polygon class="cls-76" points="1066.723 347.186 1063.805 412.329 1055.482 410.632 1058.4 345.489 1066.723 347.186"/><polygon class="cls-77" points="1075.046 348.882 1072.668 401.965 1070.214 413.635 1063.805 412.329 1066.723 347.186 1075.046 348.882"/><polygon class="cls-77" points="1072.668 401.965 1075.046 348.882 1083.472 350.599 1072.668 401.965"/></g><g class="cls-80"><polygon class="cls-53" points="669.635 245.07 665.214 314.853 466.526 274.359 480.781 206.58 669.635 245.07"/><polygon class="cls-53" points="675.058 246.175 670.636 315.958 665.214 314.853 669.635 245.07 675.058 246.175"/><polygon class="cls-54" points="680.48 247.28 676.059 317.063 670.636 315.958 675.058 246.175 680.48 247.28"/><polygon class="cls-55" points="685.902 248.386 681.481 318.169 676.059 317.063 680.48 247.28 685.902 248.386"/><polygon class="cls-56" points="691.325 249.491 686.903 319.274 681.481 318.169 685.902 248.386 691.325 249.491"/><polygon class="cls-57" points="696.747 250.596 692.326 320.379 686.903 319.274 691.325 249.491 696.747 250.596"/><polygon class="cls-58" points="702.17 251.701 697.748 321.484 692.326 320.379 696.747 250.596 702.17 251.701"/><polygon class="cls-59" points="707.592 252.806 703.17 322.589 697.748 321.484 702.17 251.701 707.592 252.806"/><polygon class="cls-60" points="713.014 253.911 708.593 323.694 703.17 322.589 707.592 252.806 713.014 253.911"/><polygon class="cls-61" points="718.437 255.016 714.015 324.799 708.593 323.694 713.014 253.911 718.437 255.016"/><polygon class="cls-62" points="723.859 256.121 719.438 325.904 714.015 324.799 718.437 255.016 723.859 256.121"/><polygon class="cls-63" points="729.281 257.227 724.86 327.01 719.438 325.904 723.859 256.121 729.281 257.227"/><polygon class="cls-64" points="734.704 258.332 730.282 328.115 724.86 327.01 729.281 257.227 734.704 258.332"/><polygon class="cls-65" points="740.126 259.437 735.705 329.22 730.282 328.115 734.704 258.332 740.126 259.437"/><polygon class="cls-66" points="745.549 260.542 741.127 330.325 735.705 329.22 740.126 259.437 745.549 260.542"/><polygon class="cls-67" points="750.971 261.647 746.549 331.43 741.127 330.325 745.549 260.542 750.971 261.647"/><polygon class="cls-68" points="756.393 262.752 751.972 332.535 746.549 331.43 750.971 261.647 756.393 262.752"/><polygon class="cls-69" points="761.816 263.857 757.394 333.64 751.972 332.535 756.393 262.752 761.816 263.857"/><polygon class="cls-70" points="767.238 264.962 762.817 334.745 757.394 333.64 761.816 263.857 767.238 264.962"/><polygon class="cls-71" points="772.66 266.068 768.239 335.851 762.817 334.745 767.238 264.962 772.66 266.068"/><polygon class="cls-72" points="778.083 267.173 773.661 336.956 768.239 335.851 772.66 266.068 778.083 267.173"/><polygon class="cls-73" points="783.505 268.278 779.084 338.061 773.661 336.956 778.083 267.173 783.505 268.278"/><polygon class="cls-74" points="788.928 269.383 784.506 339.166 779.084 338.061 783.505 268.278 788.928 269.383"/><polygon class="cls-75" points="794.35 270.488 789.928 340.271 784.506 339.166 788.928 269.383 794.35 270.488"/><polygon class="cls-76" points="799.772 271.593 795.351 341.376 789.928 340.271 794.35 270.488 799.772 271.593"/><polygon class="cls-77" points="805.195 272.698 800.773 342.481 795.351 341.376 799.772 271.593 805.195 272.698"/><polygon class="cls-81" points="810.617 273.803 806.196 343.586 800.773 342.481 805.195 272.698 810.617 273.803"/><polygon class="cls-82" points="816.039 274.909 811.618 344.692 806.196 343.586 810.617 273.803 816.039 274.909"/><polygon class="cls-83" points="821.462 276.014 817.04 345.797 811.618 344.692 816.039 274.909 821.462 276.014"/><polygon class="cls-84" points="826.884 277.119 822.463 346.902 817.04 345.797 821.462 276.014 826.884 277.119"/><polygon class="cls-85" points="832.307 278.224 827.885 348.007 822.463 346.902 826.884 277.119 832.307 278.224"/><polygon class="cls-86" points="837.729 279.329 833.307 349.112 827.885 348.007 832.307 278.224 837.729 279.329"/><polygon class="cls-87" points="843.151 280.434 838.73 350.217 833.307 349.112 837.729 279.329 843.151 280.434"/><polygon class="cls-88" points="848.574 281.539 844.152 351.322 838.73 350.217 843.151 280.434 848.574 281.539"/><polygon class="cls-89" points="853.996 282.644 849.575 352.427 844.152 351.322 848.574 281.539 853.996 282.644"/><polygon class="cls-90" points="859.418 283.75 854.997 353.533 849.575 352.427 853.996 282.644 859.418 283.75"/><polygon class="cls-91" points="864.841 284.855 860.419 354.638 854.997 353.533 859.418 283.75 864.841 284.855"/><polygon class="cls-92" points="870.263 285.96 865.842 355.743 860.419 354.638 864.841 284.855 870.263 285.96"/><polygon class="cls-93" points="875.685 287.065 871.264 356.848 865.842 355.743 870.263 285.96 875.685 287.065"/><polygon class="cls-94" points="881.108 288.17 876.686 357.953 871.264 356.848 875.685 287.065 881.108 288.17"/><polygon class="cls-95" points="886.53 289.275 882.109 359.058 876.686 357.953 881.108 288.17 886.53 289.275"/><polygon class="cls-96" points="891.953 290.38 887.531 360.163 882.109 359.058 886.53 289.275 891.953 290.38"/><polygon class="cls-97" points="897.375 291.485 892.954 361.268 887.531 360.163 891.953 290.38 897.375 291.485"/><polygon class="cls-98" points="902.797 292.591 898.376 362.374 892.954 361.268 897.375 291.485 902.797 292.591"/><polygon class="cls-99" points="908.22 293.696 903.798 363.479 898.376 362.374 902.797 292.591 908.22 293.696"/><polygon class="cls-100" points="913.642 294.801 909.221 364.584 903.798 363.479 908.22 293.696 913.642 294.801"/><polygon class="cls-101" points="919.064 295.906 914.643 365.689 909.221 364.584 913.642 294.801 919.064 295.906"/><polygon class="cls-102" points="924.487 297.011 920.065 366.794 914.643 365.689 919.064 295.906 924.487 297.011"/><polygon class="cls-103" points="929.909 298.116 925.488 367.899 920.065 366.794 924.487 297.011 929.909 298.116"/><polygon class="cls-104" points="935.332 299.221 930.91 369.004 925.488 367.899 929.909 298.116 935.332 299.221"/><polygon class="cls-105" points="940.754 300.326 936.333 370.109 930.91 369.004 935.332 299.221 940.754 300.326"/><polygon class="cls-106" points="946.176 301.432 941.755 371.215 936.333 370.109 940.754 300.326 946.176 301.432"/><polygon class="cls-107" points="951.599 302.537 947.177 372.32 941.755 371.215 946.176 301.432 951.599 302.537"/><polygon class="cls-108" points="957.021 303.642 952.6 373.425 947.177 372.32 951.599 302.537 957.021 303.642"/><polygon class="cls-109" points="962.443 304.747 958.022 374.53 952.6 373.425 957.021 303.642 962.443 304.747"/><polygon class="cls-110" points="967.866 305.852 963.444 375.635 958.022 374.53 962.443 304.747 967.866 305.852"/><polygon class="cls-111" points="973.288 306.957 968.867 376.74 963.444 375.635 967.866 305.852 973.288 306.957"/><polygon class="cls-112" points="978.711 308.062 974.289 377.845 968.867 376.74 973.288 306.957 978.711 308.062"/><polygon class="cls-113" points="984.133 309.167 979.712 378.95 974.289 377.845 978.711 308.062 984.133 309.167"/><polygon class="cls-114" points="989.555 310.273 985.134 380.056 979.712 378.95 984.133 309.167 989.555 310.273"/><polygon class="cls-115" points="994.978 311.378 990.556 381.161 985.134 380.056 989.555 310.273 994.978 311.378"/><polygon class="cls-116" points="1000.4 312.483 995.979 382.266 990.556 381.161 994.978 311.378 1000.4 312.483"/><polygon class="cls-117" points="1005.822 313.588 1001.401 383.371 995.979 382.266 1000.4 312.483 1005.822 313.588"/><polygon class="cls-118" points="1011.245 314.693 1006.823 384.476 1001.401 383.371 1005.822 313.588 1011.245 314.693"/><polygon class="cls-119" points="1016.667 315.798 1012.246 385.581 1006.823 384.476 1011.245 314.693 1016.667 315.798"/><polygon class="cls-120" points="1022.09 316.903 1017.668 386.686 1012.246 385.581 1016.667 315.798 1022.09 316.903"/><polygon class="cls-121" points="1027.512 318.008 1023.09 387.791 1017.668 386.686 1022.09 316.903 1027.512 318.008"/><polygon class="cls-122" points="1032.934 319.114 1028.513 388.897 1023.09 387.791 1027.512 318.008 1032.934 319.114"/><polygon class="cls-123" points="1038.357 320.219 1033.935 390.002 1028.513 388.897 1032.934 319.114 1038.357 320.219"/><polygon class="cls-124" points="1043.779 321.324 1039.358 391.107 1033.935 390.002 1038.357 320.219 1043.779 321.324"/><polygon class="cls-125" points="1049.201 322.429 1044.78 392.212 1039.358 391.107 1043.779 321.324 1049.201 322.429"/><polygon class="cls-126" points="1054.624 323.534 1050.202 393.317 1044.78 392.212 1049.201 322.429 1054.624 323.534"/><polygon class="cls-127" points="1060.046 324.639 1055.625 394.422 1050.202 393.317 1054.624 323.534 1060.046 324.639"/><polygon class="cls-128" points="1065.469 325.744 1061.047 395.527 1055.625 394.422 1060.046 324.639 1065.469 325.744"/><polygon class="cls-129" points="1070.891 326.849 1066.469 396.632 1061.047 395.527 1065.469 325.744 1070.891 326.849"/><polygon class="cls-130" points="1076.313 327.955 1071.892 397.738 1066.469 396.632 1070.891 326.849 1076.313 327.955"/><polygon class="cls-131" points="1081.736 329.06 1077.314 398.843 1071.892 397.738 1076.313 327.955 1081.736 329.06"/><polygon class="cls-132" points="1087.158 330.165 1083.604 386.253 1080.807 399.554 1077.314 398.843 1081.736 329.06 1087.158 330.165"/><polygon class="cls-132" points="1083.604 386.253 1087.158 330.165 1095.062 331.776 1083.604 386.253"/></g><path d="M972.7261,376.8041c-55.5823-11.3282-125.0793-28.1445-197.7134-47.867-80.9084-21.9682-156.4451-45.0135-212.6949-64.8909-88.513-31.2751-86.7957-38.9747-85.77-43.574a6.7677,6.7677,0,0,1,1.2655-2.746c4.6889-5.7995,37.2734-2.8483,96.85,8.7721,57.6827,11.2582,132.9545,29.2594,211.9122,50.6995C867.4835,299.166,943.02,322.2114,999.27,342.0887c88.5131,31.2752,86.7958,38.9747,85.769,43.5738a6.7517,6.7517,0,0,1-1.2646,2.7463c-4.6889,5.7994-37.2733,2.8482-96.85-8.7722Q979.9954,378.2836,972.7261,376.8041ZM480.3016,221.4685c11.4643,13.59,123.8488,54.9179,296.0231,101.6687,172.0982,46.7294,289.0387,67.6775,304.9615,61.5293-11.4643-13.59-123.8488-54.9179-296.0231-101.6688C613.1635,236.266,496.2239,215.3182,480.3016,221.4685Z"/><path d="M645.2588,261.2578c26.02-44.5812,78.8807-50.5669,122.497-45.9169,45.2269,4.8218,93.704,18.7116,121.9243,58.4074,13.6155,19.152,21.3091,42.7672,19.0385,67.3627-.2366,2.5634,3.5252,2.47,3.7612-.0859,4.3575-47.2012-25.9413-87.4413-63.3312-107.3264-22.9839-12.2236-48.5631-18.2773-74.2058-21.5216-24.4235-3.09-49.7738-4.0346-74.0515,2.9616-23.63,6.81-45.6695,21.5877-58.8352,44.1452a1.8817,1.8817,0,1,0,3.2027,1.9739Z"/><path d="M654.87,263.9342c24.2864-41.5414,73.4845-47.2091,114.1838-42.9074,42.3482,4.4761,87.7063,17.4324,114.169,54.5509,12.7572,17.8942,19.93,39.98,17.8217,62.9779-.235,2.5635,3.5267,2.4707,3.7612-.086,4.0693-44.3812-24.4689-82.0736-59.65-100.6825-21.3578-11.2972-45.1243-16.9038-68.9239-19.9265-22.9072-2.91-46.692-3.8121-69.465,2.7527-22.1415,6.3826-42.7514,20.2258-55.1,41.347a1.8817,1.8817,0,1,0,3.2027,1.9739Z"/><path d="M642.2042,262.4926c1.044.7986,1.556,2.0848,2.7351,2.8112a13.2,13.2,0,0,0,3.6579,1.4085,5.9333,5.9333,0,0,0,3.42.15c1.3283-.4614,1.7641-1.6192,2.7493-2.5332a1.9066,1.9066,0,0,0-2.5878-2.8007c-.55.51-.9244,1.4079-1.6958,1.5109a7.1054,7.1054,0,0,1-2.6863-.7776c-1.6135-.6734-2.2739-2.2155-3.62-3.2449-1.9323-1.4781-3.8874,2.0111-1.9727,3.4757Z"/><path d="M900.8586,339.9549a11.9712,11.9712,0,0,0,10.6071,3.0524c2.3937-.43,1.4637-4.2664-.9155-3.8394a8.1262,8.1262,0,0,1-6.9622-2.0643c-1.79-1.6454-4.5286,1.1973-2.7294,2.8513Z"/><path d="M645.8118,261.1313c5.5759,1.7372,10.8516-8.213,13.711-12.7a1.8881,1.8881,0,0,0-2.8953-2.3873c-3.379,3.5469-7.9889,7.1191-10.3715,11.4935a2.152,2.152,0,0,0,.2367,2.4126c3.3125,4.3674,6.8917-2.827,9.389-4.5017l-2.1992-3.1162-4.1708,5.2805L652.4069,260c2.5273-4.575,7.1291-8.4467,10.8-11.983l-2.8952-2.3873c-.4363.6531-8.1572,13.0207-7.9528,13.0968l1.0762,2.9241c4.364-8.7587,11.5719-16.1387,17.909-23.3574,1.4009-1.5957-.3679-4.5509-2.1991-3.1162a217.9661,217.9661,0,0,0-16.4767,14.6686l2.5877,2.8007,15.3718-15.7593a1.9066,1.9066,0,0,0-2.5878-2.8007c-4.5262,3.7466-8.081,8.3552-11.6068,13.12-1.3486,1.8227,1.4134,4.0168,2.8953,2.3873a189.4554,189.4554,0,0,1,13.9853-14.0451c4.9874-4.4463,11.2139-10.487,17.7022-11.9408l-1.3631-3.6355a70.4045,70.4045,0,0,0-25.4534,21.8918c-1.4443,1.9823,1.3516,3.6592,2.8952,2.3873,2.9545-2.4345,5.8657-4.922,8.6963-7.52,2.8678-2.6325,5.785-6.5466,9.4624-7.8233l-1.3631-3.6356a57.8468,57.8468,0,0,0-11.2264,7.0742c-1.9526,1.5618-.4437,4.5632,1.8106,3.4317l18.1451-9.1073c2.2231-1.1158.3934-4.5251-1.8106-3.4317a124.3881,124.3881,0,0,0-15.9759,9.4746l2.5067,2.7028c4.59-6.861,15.0755-10.9479,22.4551-12.1429l-.9155-3.8394a41.5771,41.5771,0,0,0-11.42,5.9936c-2.0432,1.5077-.4118,4.511,1.8106,3.4317a111.561,111.561,0,0,0,10.4137-5.7627c2.1206-1.3247.3114-4.7573-1.8106-3.4317a111.59,111.59,0,0,1-10.4137,5.7627L689.27,228.86a38.5011,38.5011,0,0,1,10.5248-5.5859,1.9789,1.9789,0,0,0-.9155-3.8394c-8.5773,1.3889-19.4807,6.1432-24.7423,14.0084-1.1051,1.6519.9509,3.7886,2.5066,2.7028a124.4112,124.4112,0,0,1,15.9759-9.4746l-1.8106-3.4317-18.1451,9.1073,1.8106,3.4317a57.8587,57.8587,0,0,1,11.2264-7.0742c1.9747-.9492.6672-4.3405-1.3631-3.6356-3.2361,1.1236-5.2566,3.2968-7.7741,5.7033-3.8951,3.7235-7.9183,7.2691-12.0567,10.6792l2.8952,2.3873a66.3075,66.3075,0,0,1,24.0613-20.434c2.0619-1.0369.6193-4.08-1.363-3.6356-5.982,1.34-11.1111,5.9975-15.8624,9.9512a176.3948,176.3948,0,0,0-17.4974,17.0734l2.8952,2.3873a67.3456,67.3456,0,0,1,10.9919-12.2933l-2.5878-2.8007-15.3717,15.7593c-1.7829,1.8278.7691,4.5493,2.5877,2.8007a208.1921,208.1921,0,0,1,15.7-14.0376l-2.1992-3.1162c-6.5642,7.4773-13.9938,15.092-18.524,24.1842a2.0179,2.0179,0,0,0,1.0762,2.9241c1.4736.5489,2.4335.0828,3.53-.9786,1.3651-1.321,2.366-4.0661,3.308-5.6749,1.6738-2.8588,3.5329-5.5974,5.3674-8.3437a1.8888,1.8888,0,0,0-2.8952-2.3873c-4.0079,3.8611-8.6557,7.8153-11.4148,12.81-1.0547,1.9093,1.4585,4.2064,2.8953,2.3873l4.1708-5.28c1.3062-1.6538-.2315-4.4358-2.1992-3.1162-.7623.5112-5.6352,4.0457-4.849,5.0822l.2366,2.4125c2.1507-3.9486,6.7221-7.4815,9.7566-10.6667l-2.8952-2.3873a83.5761,83.5761,0,0,1-6.4154,8.8887c-1.0068,1.1994-2.677,2.4474-3.3507,3.8217-.7046,1.4372-.832,2.1175-.0027,3.5329,1.9958,3.4065,6.3882,2.1055,6.5482-1.7882a1.93,1.93,0,0,0-.8942-1.6948,25.7223,25.7223,0,0,0-5.3432-1.9609c-2.3006-.7168-3.3479,3.1585-1.05,3.8743Z"/><path d="M700.6778,223.5461c6.03-3.62,15.1343-2.6946,21.929-4.2742,1.9392-.4509,1.719-3.32.0674-3.8569a22.1182,22.1182,0,0,0-15.4437.4971c-1.9916.7772-1.7695,3.8795.4313,3.9178,9.3225.1621,17.6426-4.2326,27.0753-2.1436l.5516-3.9352c-4.2986-.3045-9.8987-1.3723-13.8051,1.1487-1.6019,1.0339-1.0333,3.7812.8788,3.714,5.0622-.178,9.7388-2.5273,14.7528-2.8752,4.44-.3081,8.2584,2.2526,12.6613,1.2151,1.768-.4166,1.9095-3.574.0674-3.8568a47.1679,47.1679,0,0,0-15.8271.2288c-2.3935.4328-1.4638,4.27.9156,3.8394a41.1579,41.1579,0,0,1,13.8611-.1939l.0674-3.8569c-4.1725.9832-9.0794-1.7761-13.5535-1.1387-4.3731.6231-8.4465,2.4858-12.8921,2.6421l.8789,3.7139c2.9652-1.9137,8.7358-.8115,11.9416-.5844,2.1094.1494,2.598-3.482.5516-3.9352-9.92-2.1969-18.25,2.1925-28.0727,2.0218l.4313,3.9177a18.9441,18.9441,0,0,1,13.4779-.4622l.0674-3.8569c-7.391,1.7183-16.0616.6224-22.8241,4.682-2.1425,1.2861-.33,4.7167,1.8106,3.4317Z"/><path d="M749.6737,216.9159c13.0158,1.097,26.1287,1.9844,39.057,3.7669,2.3582.3252,3.4369-3.5452,1.05-3.8742-13.2623-1.8286-26.7025-2.7635-40.0545-3.8888-2.3993-.2022-2.4423,3.7948-.0529,3.9961Z"/><path d="M788.78,220.4964c6.8571,1.7849,13.8176,3.2052,20.6137,5.2191,6.7593,2.0029,13.0045,4.7974,20.032,5.8462,2.3579.3519,3.4345-3.5184,1.05-3.8742-7.0381-1.05-13.2646-3.841-20.0321-5.8463-6.7963-2.0139-13.7563-3.4341-20.6136-5.2191-2.3287-.6061-3.3848,3.2667-1.05,3.8743Z"/><path d="M827.667,232.3335c9.48,1.6542,17.2373,7.7643,25.5992,12.1938a126.0346,126.0346,0,0,1,20.1088,12.75c1.9031,1.5147,3.8555-1.9771,1.9727-3.4756-6.9522-5.5333-14.2634-9.3829-21.8687-13.73-7.8966-4.5138-15.6892-10.0291-24.7617-11.6123-2.3553-.411-3.4271,3.4595-1.05,3.8743Z"/><path d="M888.9259,272.2966c-3.2526-4.3088-6.7155-8.4846-10.3591-12.4234a37.9718,37.9718,0,0,0-3.8088-3.5637c-1.6773-1.3778-5.9392-3.5126-6.7589-5.4988l-1.19,2.9434.1832-.042-2.2818-1.3646.0354.1433c.6075,2.4625,4.2581,1.3628,3.648-1.11l-.0354-.1433a1.8438,1.8438,0,0,0-2.2818-1.3647l-.1832.042c-1.2915.2956-1.6344,1.8669-1.19,2.9433,1.5065,3.65,7.4941,6.1719,10.1254,8.8037a128.6684,128.6684,0,0,1,11.368,13.4862c1.49,1.9737,4.205-.8966,2.7294-2.8513Z"/><path d="M886.7189,275.5642c2.0449,1.7182,4.7428,3.29,5.7016,5.9815.7883,2.2127,1.2772,3.9833,3.134,5.4287,1.9339,1.5055,3.8255-1.9695,1.9728-3.4756-2.4158-1.9639-4.7253-4.0582-6.9548-6.2534-1.7419-1.7151-4.4754,1.1321-2.7294,2.8512,2.4655,2.4276,5.0407,4.7067,7.7114,6.8778l1.9728-3.4756c-1.5666-1.22-1.5848-4.2229-2.738-5.8878-1.3742-1.984-3.5405-3.3852-5.3409-4.8981-1.8458-1.5509-4.5915,1.2867-2.73,2.8513Z"/><path d="M893.2867,286.781a36.4751,36.4751,0,0,1,6.3017,10.8074l3.296-2.0473c-1.3553-2.5947-2.593-5.3433-4.7658-7.2729-1.4939-1.3268-4.2356.4332-3.0127,2.4493a99.6686,99.6686,0,0,1,5.4748,10.3563c1.0423,2.2859,4.3336.2283,3.296-2.0473a99.6712,99.6712,0,0,0-5.4748-10.3564l-3.0127,2.4493c1.9359,1.7193,2.9914,4.1568,4.1992,6.469,1.1916,2.2813,4.1616.2377,3.296-2.0473a39.3926,39.3926,0,0,0-6.8683-11.6114c-1.5974-1.88-4.319.98-2.7294,2.8513Z"/><path d="M906.7189,310.4385c-2.0112-4.2169-4.5541-8.4431-5.191-13.2275l-3.1887,1.9807c2.93,2.8113,3.8393,7.7465,5.068,11.6538.62,1.9733,3.89,1.7993,3.7046-.598a21.3855,21.3855,0,0,0-.8788-4.8153l-3.472,1.5787a18.4,18.4,0,0,1,1.4122,11.5348l3.4535-.5342a10.5954,10.5954,0,0,1-1.8676-5.6017c-.1245-2.5458-3.8869-2.4855-3.7611.086a14.5058,14.5058,0,0,0,2.3327,7.563c.8186,1.2555,3.097,1.3331,3.4534-.5342a23.0573,23.0573,0,0,0-1.7271-14.561c-.925-1.9757-4.14-.569-3.472,1.5788a16.3491,16.3491,0,0,1,.7657,3.791l3.7045-.598c-1.43-4.5471-2.5475-10.0951-5.9866-13.3949-1.4406-1.3823-3.4482.0313-3.1887,1.9807.6819,5.1223,3.393,9.6568,5.5431,14.1646,1.08,2.2652,4.3731.211,3.2959-2.0473Z"/><path d="M910.4674,321.8276a12.162,12.162,0,0,0-2.181-4.92,1.8432,1.8432,0,0,0-2.966.4387c-1.5378,3.1424-.1821,8.1561.0729,11.4918l3.5286-1.0666c-.8278-2.1994-.51-4.6382-.1692-6.9508.3639-2.47-2.9323-3.555-3.6109-.979-.8734,3.3156-.5125,6.9463-.5355,10.332l3.7046-.5981c-.9081-4.0279.2982-8.2021-1.9791-11.8146-1.0876-1.7252-4.2077-.6836-3.472,1.5787,1.7951,5.52,3.602,10.3362,1.4336,16.2526-.888,2.423,2.7285,3.3865,3.6109.9789,2.407-6.5672.6187-12.1448-1.3965-18.3416l-3.472,1.5787c1.9484,3.0908.8307,7.345,1.6271,10.8774.491,2.1779,3.6891,1.6775,3.7046-.598.02-2.9415-.3732-6.3879.3852-9.267l-3.6109-.979c-.5214,3.54-.7654,6.6573.4841,9.9771.6822,1.8128,3.6755.8553,3.5285-1.0666l-.3931-5.1424c-.0761-.9956-.6859-3.3749-.2383-4.29l-2.966.4387a7.8257,7.8257,0,0,1,1.2624,3.1793c.4914,2.4989,4.1394,1.3889,3.648-1.11Z"/><path d="M904.4676,334.4222a18.8787,18.8787,0,0,0,3.4142,2.7248c1.3394.8305,2.6711-.33,2.8669-1.7808a13.8431,13.8431,0,0,0-.5052-5.96,1.9066,1.9066,0,0,0-3.648,1.11,11.0789,11.0789,0,0,1,.3921,4.9356l2.8669-1.7808a14.4442,14.4442,0,0,1-2.6575-2.1005c-1.7283-1.733-4.4606,1.1154-2.7294,2.8513Z"/><path d="M909.1744,335.5834a13.92,13.92,0,0,1-3.87-.13,1.9911,1.9911,0,0,0-2.3306,1.4477,1.9579,1.9579,0,0,0,1.28,2.4266,17.4927,17.4927,0,0,0,4.8677.2513,2.08,2.08,0,0,0,1.907-2.041,1.8754,1.8754,0,0,0-1.8541-1.9551Z"/><path d="M642.5232,260.3954c-.8914,2.3582.705,3.7577,2.5534,4.5273l-1.1229-.9135.2556.3776,1.6745-3.0218a1.716,1.716,0,0,1-1.2022-.385l-3.472,1.5788a11.19,11.19,0,0,0,7.1531,5.1793c3.6828.8888,5.1049-2.1655,6.9222-5.0536a1.8816,1.8816,0,1,0-3.2027-1.9739c-.433.6881-1.1632,2.4755-1.8185,2.89-.74.4678-1.1652.2014-1.9021-.0847a7.1,7.1,0,0,1-3.856-3.0046,1.9268,1.9268,0,0,0-3.472,1.5788c.73,2.41,2.5693,3.039,4.7973,3.271,1.3445.14,2.4441-1.8848,1.6744-3.0218-.3305-.4882-1.1012-1.6791-1.3712-.965.9118-2.4122-2.7057-3.3735-3.6109-.979Z"/><path d="M471.1573,591.4293c-2.3341-16.6527-3.0976-28.11-3.9062-40.24-.7512-11.2731-1.5277-22.9295-3.6722-39.1221a393.3916,393.3916,0,0,0-8.9991-46.82c-1.9556-8.1041-3.9772-16.4845-6.28-27.8236A667.7233,667.7233,0,0,1,435.5,322.963l-.0842-3.0983-17.3708,6.9532L161.1984,399.6332l1.1006,4.2412.1414-.04c5.2361,21.6645,10.36,43.5284,15.2367,65.0667,11.1867,49.4113,18.9779,87.708,25.2382,118.48,4.4757,22,8.8982,44.269,13.15,66.2235a179.4361,179.4361,0,0,0-16.6659,8.189q-.4878.2707-.9724.546l-.72.4077-.2659.8092a16.4808,16.4808,0,0,0-.6737,2.8924c-.5541,4.0083.57,6.9652,1.8726,10.3894a55.9506,55.9506,0,0,1,2.663,8.5362c.1357.6234.3228,1.6293.5558,2.9892.3317,1.9389.5946,3.8447,1.0715,7.3045.4428,3.2108,1.0677,7.7437,2.1,14.8582,1.4246,9.8184,2.0648,13.7964,2.4469,16.1727.3542,2.1993.5006,3.11.8685,6.163.1872,1.5531.342,2.9153.4818,4.1487a84.1093,84.1093,0,0,0,1.8786,11.6957,77.3022,77.3022,0,0,0,5.6112,15.5225l.9981,2.0463,50.226-29.7514c1.2342,11.3813,2.4527,22.7258,3.6375,33.877l.3545,3.3355,2.7836-1.6726a842.3172,842.3172,0,0,1,90.3849-47.2755c5.3005-2.3638,10.4793-4.6019,15.4864-6.7652,17.1795-7.4245,33.4064-14.4366,55.2363-26.5569A527.6909,527.6909,0,0,0,484.41,660.6416l1.2737-.904-.44-1.5426A494.4467,494.4467,0,0,1,471.1573,591.4293Z"/><path class="cls-133" d="M219.0965,760.17a72.7584,72.7584,0,0,1-4.3165-12.55,79.58,79.58,0,0,1-1.7767-11.1268c-.1412-1.2427-.2971-2.6151-.4857-4.18-.3786-3.1422-.5293-4.0794-.8935-6.3431-.3805-2.3627-1.0171-6.3187-2.4364-16.1014-1.03-7.1-1.6537-11.6228-2.0955-14.8268-.4835-3.5074-.75-5.44-1.0938-7.452-.2481-1.4478-.4431-2.4924-.596-3.1929a60.6419,60.6419,0,0,0-2.8548-9.1818c-1.2116-3.1861-2.0122-5.29-1.6186-8.1374a11.8279,11.8279,0,0,1,.2566-1.2985c.0633-.0355.127-.071.1908-.1056a174.9571,174.9571,0,0,1,17.8738-8.6741l1.63-.6795-.3481-1.7973c-4.3607-22.5467-8.9038-45.4438-13.5043-68.0554-6.2643-30.7937-14.0616-69.1177-25.2593-118.5776-4.8867-21.5846-10.0218-43.4957-15.27-65.2057L379.053,342.4252,189.604,418.2571l.4055,1.8587c23.4078,107.3274,35.7962,172.54,36.8225,193.8264.3262,6.7738,1.319,13.5368,2.2789,20.0776.7219,4.9211,1.4687,10.0093,1.9146,15.0134q.1649,1.8587.3176,3.6576c1.2022,14.0039,2.0712,24.1218,8.3545,25.8489,1.8524.5093,3.071.04,12.0308-3.78,3.1273-1.3339,6-2.5719,8.5783-3.6917,1.8664,16.5752,3.7206,33.27,5.5157,49.6678q.604,5.5193,1.2041,11.042Z"/><path class="cls-133" d="M480.5184,656.1675a523.7173,523.7173,0,0,1-47.3238,29.6807c-21.6518,12.0211-37.7872,18.994-54.87,26.3759-5.0187,2.1686-10.2077,4.411-15.5309,6.7845a844.5366,844.5366,0,0,0-88.0471,45.842c-1.6234-15.2517-3.3056-30.8274-5.0044-46.3517-1.9-17.3559-3.8658-35.0442-5.8439-52.5741l-.3263-2.8936L261,664.1553c-3.1812,1.39-6.9179,3.0074-11.1169,4.7973-5.479,2.3372-8.8472,3.744-9.3732,3.5991-3.4293-.9425-4.3474-11.643-5.2355-21.99q-.1556-1.8042-.32-3.6729c-.4576-5.1333-1.2134-10.2878-1.9447-15.2717-.9445-6.432-1.92-13.0824-2.2361-19.6328-1.0321-21.415-13.3182-86.2571-36.5167-192.7229l224.8393-89.998,12.0836-3.4257A670.4953,670.4953,0,0,0,443.9291,436.6c2.3189,11.42,4.4419,20.2211,6.3155,27.9858a389.48,389.48,0,0,1,8.9107,46.3474c2.125,16.0446,2.897,27.6257,3.6431,38.8249.7789,11.6778,1.5836,23.7535,3.94,40.5706A499.3035,499.3035,0,0,0,480.5184,656.1675Z"/><path class="cls-134" d="M453.68,467.1573c-1.4363-32.2975,7.1528-51.1469,13.209-60.9074,11.7767-18.98,29.6428-28.8414,30.4324-29.2658,13.0824-7.0319,27.29-9.8728,42.5483-24.0036a47.0682,47.0682,0,0,0,8.3463-9.7254c7.3321-11.5807,8.4114-24.8647,8.241-33.8352"/><path class="cls-135" d="M550.2455,305.41a43.1576,43.1576,0,0,1-6.6637-8.0658c-3.0708-4.8749-6.483-10.2917-4.56-12.7341,1.3452-1.7087,8.4788-2.745,6.3259-2.1547h0a46.0958,46.0958,0,0,1,3.5775,5.7731c1.9155,3.93,1.8444,7.2046,2.1189,7.182.388-.032-.6384-6.4783,1.5507-13.8024a9.71,9.71,0,0,1,3.4546-5.5338c1.7208-1.2352,4.4706-2.1432,5.5428-1.1787.8.7193.1232,1.9918-.6141,6.0863-.4729,2.6262-.1091,1.6276-.9366,7.716-.6419,4.7227-1.1027,7.1033-.8291,7.1728.6039.1535,1.7746-11.7143,9.5809-15.6256.7187-.36,3.6208-1.8141,5.4353-.6354,1.7141,1.1135,1.6618,4.0593,1.1977,5.8745-.6108,2.3888-2.0011,3.0794-4.8058,6.3994-2.88,3.4086-5.2459,6.21-4.4527,7.5964,1.222,2.1362,8.58-1.466,11.47,1.6664,1.5711,1.703,1.4329,4.9752-.046,6.1968-.9925.82-2.0816.2973-5.896-.0183-3.6691-.3037-6.7745-.5606-10.0876.2948-3.2617.8421-3.6093,1.958-5.65,1.7219C554.4807,309.1711,553.17,308.4145,550.2455,305.41Z"/><path class="cls-134" d="M223.3286,568.3822c-16.0835,11.5594-23.3423,23.344-26.7379,30.3059a78.6529,78.6529,0,0,0-7.4112,27.4342c-.4783,9.6756,1.3423,18.3531-2.1089,31.9009a41.7736,41.7736,0,0,1-2.8616,8.1725A48.2847,48.2847,0,0,1,169.56,683.5139"/><path class="cls-135" d="M164.5423,680.252a48.9044,48.9044,0,0,0-11.6641-2.2313c-6.61-.4107-13.9546-.8671-15.6752,2.32-1.2038,2.23.97,9.7761.61,7.3506h0a54.2231,54.2231,0,0,0,7.8007.4285c5.0711-.218,8.53-2.034,8.6325-1.7529.1443.3974-7.2016,2.829-14.0054,8.8809-1.923,1.7105-3.704,3.6224-4.3131,6.338-.5261,2.3457-.23,5.5257,1.291,6.0624,1.1347.4,2.1806-.9415,6.2078-3.8478,2.5831-1.8642,1.6855-.9749,7.7975-5.0331,4.741-3.1478,7.0677-4.8692,7.2677-4.638.4412.51-11.6759,7.9869-12.2584,17.7256-.0536.8966-.27,4.5171,1.8209,5.6674,1.9752,1.0865,5.0924-.5357,6.8147-1.9588,2.2666-1.8727,2.3639-3.6039,4.615-8.1241,2.3112-4.6407,4.21-8.4543,6.0537-8.4162,2.84.0587,2.3805,9.1928,7.0492,10.3554,2.5382.632,5.9639-1.2485,6.5867-3.35.418-1.41-.64-2.1993-2.73-5.77-2.01-3.435-3.7118-6.3424-4.3225-10.0465-.6013-3.6467.4288-4.5826-.7611-6.4576C170.5,682.3984,169.09,681.5166,164.5423,680.252Z"/><path class="cls-134" d="M357.2486,723.0488c-3.4015,32.8866-7.26,59.4322-10.3523,78.514-2.3581,14.5526-4.9663,29.0609-11.4535,30.1466-6.0844,1.0182-12.0719-10.3586-15.9072-15.6386-10.6692-14.6877-37.4629-27.32-108.7411-17.389"/><path class="cls-136" d="M201.3434,837.115c-1.7109-.1416-2.5548-2.93-3.292-5.3664-2.1335-7.0506-.1487-11.5117.4965-17.1849,1.4257-12.5368-5.1976-17.7368-1.1549-20.1694,3.7442-2.253,13.0852.0051,16.8659,4.5264,1.7223,2.06,2.3413,4.65-1.3221,15.6926C210.2037,822.8519,205.3615,837.4478,201.3434,837.115Z"/><path d="M301.47,539.4188c12.9367,2.69,25.4669-.5909,34.4141-10.5575,1.2865-1.4331-.8283-3.5616-2.1213-2.1213-8.2163,9.1524-19.5722,12.2654-31.4953,9.7859-1.884-.3918-2.69,2.4994-.7975,2.8929Z"/><path d="M405.3963,500.3592c-8.5637,8.0755-19.9859,12.9124-31.8372,10.6983-1.887-.3525-2.6959,2.5382-.7975,2.8929,12.9489,2.4191,25.3542-2.6041,34.756-11.47,1.4076-1.3273-.7167-3.4459-2.1213-2.1213Z"/><path d="M350.4966,533.4977c1.14,5.301,5.4914,9.2006,7.879,13.9724a31.5913,31.5913,0,0,1,3.3075,9.4c.6543,4.9228-2.3238,7.0017-4.1646,11.0128-.8,1.7425,1.7853,3.2686,2.59,1.5141,1.2447-2.7123,3.6055-4.8887,4.4335-7.7937.8265-2.9.0361-6.0007-.8167-8.7857a44.02,44.02,0,0,0-4.4472-9.9176c-2.0584-3.3873-5.0331-6.22-5.889-10.1994-.4058-1.8865-3.2985-1.0882-2.8929.7975Z"/><path d="M355.147,471.2909c8.27-11.4677,20.7571-18.3531,34.4309-21.227,1.8882-.3968,1.0892-3.2893-.7975-2.8928-14.4981,3.047-27.4867,10.49-36.2238,22.6056-1.1309,1.5684,1.47,3.0675,2.59,1.5142Z"/><path d="M326.6347,486.6652c-15.3251-5.7746-31.8882-5.5646-47.373-.4888-1.8265.5987-1.0445,3.4966.7975,2.8929,15.0274-4.9259,30.9112-5.1132,45.778.4887,1.8086.6816,2.59-2.2173.7975-2.8928Z"/><path d="M292.4982,654.5823l-13.2061-35.5455,2.1445-.87,11.5581,16.0041c2.677,3.7082,4.9486,7.0951,7.0234,10.4407l.0253-.0705c-1.944-4.6736-3.5959-8.9792-5.6534-14.5172l-5.5253-14.8719,1.8519-.7516,13.2061,35.5455-1.9868.8063-11.5331-16.0752c-2.5306-3.5252-5.0552-7.1731-7.2533-10.712l-.0484.0808c1.7782,4.4365,3.4107,8.69,5.6053,14.5969l5.643,15.1886Z"/><path d="M307.1368,648.8834l-.3239-5.2091c-2.44-2.6513-4.9289-7.0421-6.8884-12.3164-4.1733-11.2329-3.8493-19.8008.125-21.4138,1.3995-.5681,3.0617-.15,4.8311,1.2562l-.2549-4.8124,1.9024,1.4124.2848,5.1038c2.46,2.7036,4.8844,7.061,6.8239,12.2815,4.6047,12.3938,3.6623,19.9988.0274,21.4741-1.445.5865-3.15.1246-4.92-1.2814l.263,5.1135ZM305.1639,614.97c-1.3357-1.2176-2.6365-1.7824-3.7655-1.3242-3.3189,1.347-2.3249,9.1978.4376,16.6333a39.3424,39.3424,0,0,0,4.675,9.0881l.003-.0623Zm3.2979,26.6393c1.3525,1.3331,2.566,1.8722,3.7852,1.3773,3.1833-1.2919,2.4173-8.81-.5609-16.8265a38.4329,38.4329,0,0,0-4.49-8.7985l-.0675.0274Z"/><path d="M333.9011,635.9573a8.5734,8.5734,0,0,1-3.9488,3.8483c-2.3028.9346-4.7087.3335-7.433-2.3848-2.4073-2.4215-4.9829-6.8379-7.04-12.3759-3.9162-10.6091-3.6806-19.626,1.4227-21.6972a5.4914,5.4914,0,0,1,4.4.0952l.9175,3.9366a4.6769,4.6769,0,0,0-3.9325-.1638c-3.703,1.503-4.12,7.8631-.8088,16.7756,3.35,9.0178,7.6548,13.4006,11.2,11.9619a3.7766,3.7766,0,0,0,2.267-2.0119L327.0056,623.34l-3.0938,1.2556-1.3714-3.6912,5.0125-2.0344Z"/><path d="M339.1786,616.4576l-5.9157,2.401,4.7615,12.816,6.5931-2.6759,1.43,3.85-8.5572,3.4731-13.206-35.5455,8.2184-3.3356,1.43,3.85-6.2543,2.5385,4.1736,11.2336,5.9156-2.4009Z"/><path d="M348.597,631.8136l-13.2061-35.5455,2.1445-.87,11.5581,16.004c2.677,3.7082,4.9486,7.0951,7.0234,10.4407l.0253-.07c-1.944-4.6737-3.5959-8.9793-5.6534-14.5173l-5.5253-14.8719,1.8519-.7516,13.2061,35.5455-1.9869.8064-11.533-16.0753c-2.5306-3.5252-5.0552-7.173-7.2533-10.7119l-.0484.0807c1.7782,4.4366,3.4107,8.69,5.6053,14.597l5.643,15.1886Z"/><path d="M350.4214,590.7137a9.6268,9.6268,0,0,1,3.3153-2.195,4.4767,4.4767,0,0,1,5.1374.8887,13.3581,13.3581,0,0,1,3.5957,5.7631c1.2734,3.4275,1.42,6.8277.3256,8.8493l.0394.1061c1.7584.257,4.4905,2.3652,6.45,7.6387a18.8565,18.8565,0,0,1,1.3584,7.6418,5.9554,5.9554,0,0,1-4.0264,5.4582,10.9276,10.9276,0,0,1-3.2045.8148Zm7.372,13.7587,1.7837-.724c2.077-.843,2.3559-3.8688,1.0821-7.2971-1.5479-4.1664-3.51-5.2511-5.4968-4.4448a4.2439,4.2439,0,0,0-1.6209,1.0215Zm6.3288,17.0346a4.9847,4.9847,0,0,0,1.7264-.4582c2.0322-.8248,3.26-3.3253,1.3393-8.4943-1.8025-4.8514-4.3309-6.1319-6.476-5.2612l-1.6254.66Z"/><path d="M364.4447,584.4762l13.2061,35.5454-1.9641.7972-13.2061-35.5455Z"/><path d="M367.8759,583.0836l1.9641-.7972,11.7758,31.6959,6.5022-2.6391,1.43,3.85-8.4663,3.4361Z"/><path d="M378.5307,578.7591l1.9641-.7971,11.7759,31.6958,6.5022-2.639,1.43,3.85-8.4663,3.4362Z"/><path d="M404.08,590.1164l-5.9157,2.401,4.7615,12.816,6.5931-2.676,1.43,3.85-8.5571,3.473-13.2061-35.5454,8.2184-3.3356,1.43,3.85-6.2544,2.5384,4.1736,11.2337,5.9157-2.401Z"/><path d="M400.4683,570.4013a13.9434,13.9434,0,0,1,3.9024-2.4333c2.8226-1.1456,5.4-.4319,7.81,1.9283,2.4316,2.3505,4.7505,6.1439,6.886,11.8918,2.1555,5.8017,3.1512,10.8594,2.9437,14.7066-.188,3.8994-1.87,6.6462-4.8279,7.8468a14.9727,14.9727,0,0,1-3.7236,1.0256Zm13.6419,30.635a5.9064,5.9064,0,0,0,2.0848-.5427c4.1994-1.7044,4.4424-8.1151.8763-17.7134-3.0925-8.3943-7.1037-12.8961-11.2584-11.21a5.672,5.672,0,0,0-2.1265,1.409Z"/><path d="M430.2208,579.5066l-5.9157,2.401,4.7615,12.8159,6.5931-2.6759,1.43,3.85-8.5572,3.473-13.206-35.5454,8.2184-3.3356,1.43,3.85-6.2543,2.5384,4.1736,11.2337,5.9156-2.401Z"/><path d="M426.6094,559.7915a10.2812,10.2812,0,0,1,3.4963-2.2684,4.6331,4.6331,0,0,1,5.48,1.114,16.9782,16.9782,0,0,1,3.7045,6.2649c1.7436,4.6931,1.6356,8.3176.5028,10.2346l.0585.1576c1.5272.4729,3.1673,2.7209,4.9,6.2654,2.3382,4.7561,3.9733,8.0377,4.7986,9.28l-2.0316.8246c-.6207-.901-2.096-3.8228-4.1708-8.0788-2.2737-4.7212-3.7726-6.2372-5.6149-5.6709l-1.8512.7513,5.7213,15.3993-1.9641.7972Zm7.9792,15.3933,2.01-.8156c2.1-.8522,2.4327-4.0823.9239-8.1434-1.7045-4.5877-3.8715-6.0148-5.9686-5.2239a4.1772,4.1772,0,0,0-1.7848,1.2093Z"/><path class="cls-134" d="M414.2521,698.8485c-7.491,63.7456-5.2107,87.208-.7454,95.31a32.7652,32.7652,0,0,1,4.45,14.761,33.8409,33.8409,0,0,1-4.06,17.0608c-4.2381,8.4457-7.3079,32.0039-3.6155,95.33"/><path class="cls-136" d="M423.7615,956.0531c-1.4675.8909-3.7892-.87-5.8173-2.4073-5.87-4.4506-6.8857-9.2265-9.6978-14.1957-6.2142-10.9813-14.629-11.296-12.7878-15.64,1.7053-4.0233,10.59-7.686,16.306-6.25,2.6041.6544,4.6271,2.3862,8.1529,13.4736C422.5479,939.3059,427.2081,953.9608,423.7615,956.0531Z"/><path d="M281.193,508.3176a140.8323,140.8323,0,0,0,54.2228-7.2027l-1.694-2.2035c-1.9882,4.4515-8,6.6237-11.9932,8.97q-6.0495,3.554-11.9883,7.2922-12.2754,7.7242-24.0432,16.2072c-1.5545,1.1159-.0583,3.7193,1.5142,2.59q13.3014-9.549,27.2184-18.1873,6.765-4.1805,13.67-8.1258c3.3284-1.9093,6.5882-3.5954,8.2126-7.2322.4841-1.084-.3317-2.6654-1.694-2.2035a138.6289,138.6289,0,0,1-53.4252,7.0955c-1.9279-.1212-1.9207,2.8793,0,3Z"/><path d="M390.3905,461.3073a108.3445,108.3445,0,0,1-31.8028,27.976,1.5114,1.5114,0,0,0,.7571,2.7952l54.859-3.3455c1.9182-.117,1.9315-3.1178,0-3l-54.859,3.3455.7571,2.7952a112.0289,112.0289,0,0,0,32.879-29.0522c1.1714-1.5339-1.433-3.03-2.59-1.5142Z"/></svg>
