<svg id="Layer_1" data-name="Layer 1" xmlns="http://www.w3.org/2000/svg" xmlns:xlink="http://www.w3.org/1999/xlink" viewBox="0 0 1100 1020"><defs><style>.cls-1,.cls-135{fill:none;}.cls-2,.cls-54{fill:gray;}.cls-2{opacity:0.7;}.cls-135,.cls-136,.cls-137,.cls-139,.cls-3,.cls-4,.cls-5,.cls-6{stroke:#000;stroke-miterlimit:10;}.cls-3,.cls-4,.cls-5,.cls-6{stroke-width:7px;}.cls-3{fill:url(#White_Black);}.cls-5{fill:url(#linear-gradient);}.cls-6{fill:url(#White_Black-2);}.cls-7{clip-path:url(#clip-path);}.cls-8{fill:#afafaf;}.cls-9{fill:#aeaeae;}.cls-10{fill:#adadad;}.cls-11{fill:#acacac;}.cls-12{fill:#ababab;}.cls-13{fill:#aaa;}.cls-14{fill:#a9a9a9;}.cls-15{fill:#a8a8a8;}.cls-16{fill:#a7a7a7;}.cls-17{fill:#a6a6a6;}.cls-18{fill:#a5a5a5;}.cls-19{fill:#a4a4a4;}.cls-20{fill:#a3a3a3;}.cls-21{fill:#a2a2a2;}.cls-22{fill:#a1a1a1;}.cls-23{fill:#a0a0a0;}.cls-24{fill:#9f9f9f;}.cls-25{fill:#9e9e9e;}.cls-26{fill:#9d9d9d;}.cls-27{fill:#9c9c9c;}.cls-28{fill:#9b9b9b;}.cls-29{fill:#9a9a9a;}.cls-30{fill:#999;}.cls-31{fill:#989898;}.cls-32{fill:#979797;}.cls-33{fill:#969696;}.cls-34{fill:#959595;}.cls-35{fill:#949494;}.cls-36{fill:#939393;}.cls-37{fill:#929292;}.cls-38{fill:#919191;}.cls-39{fill:#909090;}.cls-40{fill:#8f8f8f;}.cls-41{fill:#8e8e8e;}.cls-42{fill:#8d8d8d;}.cls-43{fill:#8c8c8c;}.cls-44{fill:#8a8a8a;}.cls-45{fill:#898989;}.cls-46{fill:#888;}.cls-47{fill:#878787;}.cls-48{fill:#868686;}.cls-49{fill:#858585;}.cls-50{fill:#848484;}.cls-51{fill:#838383;}.cls-52{fill:#828282;}.cls-53{fill:#818181;}.cls-55{fill:#7f7f7f;}.cls-56{fill:#7e7e7e;}.cls-57{fill:#7d7d7d;}.cls-58{fill:#7c7c7c;}.cls-59{fill:#7b7b7b;}.cls-60{fill:#7a7a7a;}.cls-61{fill:#797979;}.cls-62{fill:#787878;}.cls-63{fill:#777;}.cls-64{fill:#767676;}.cls-65{fill:#757575;}.cls-66{fill:#747474;}.cls-67{fill:#737373;}.cls-68{fill:#727272;}.cls-69{fill:#717171;}.cls-70{fill:#707070;}.cls-71{fill:#6f6f6f;}.cls-72{fill:#6e6e6e;}.cls-73{fill:#6d6d6d;}.cls-74{fill:#6c6c6c;}.cls-75{fill:#6b6b6b;}.cls-76{fill:#6a6a6a;}.cls-77{fill:#696969;}.cls-78{fill:#686868;}.cls-79{clip-path:url(#clip-path-2);}.cls-80{clip-path:url(#clip-path-3);}.cls-81{clip-path:url(#clip-path-4);}.cls-82{fill:#676767;}.cls-83{fill:#666;}.cls-84{fill:#656565;}.cls-85{fill:#646464;}.cls-86{fill:#636363;}.cls-87{fill:#626262;}.cls-88{fill:#616161;}.cls-89{fill:#606060;}.cls-90{fill:#5f5f5f;}.cls-91{fill:#5e5e5e;}.cls-92{fill:#5d5d5d;}.cls-93{fill:#5c5c5c;}.cls-94{fill:#5b5b5b;}.cls-95{fill:#5a5a5a;}.cls-96{fill:#585858;}.cls-97{fill:#575757;}.cls-98{fill:#565656;}.cls-99{fill:#555;}.cls-100{fill:#545454;}.cls-101{fill:#535353;}.cls-102{fill:#525252;}.cls-103{fill:#515151;}.cls-104{fill:#505050;}.cls-105{fill:#4f4f4f;}.cls-106{fill:#4e4e4e;}.cls-107{fill:#4d4d4d;}.cls-108{fill:#4c4c4c;}.cls-109{fill:#4b4b4b;}.cls-110{fill:#4a4a4a;}.cls-111{fill:#494949;}.cls-112{fill:#484848;}.cls-113{fill:#474747;}.cls-114{fill:#464646;}.cls-115{fill:#454545;}.cls-116{fill:#444;}.cls-117{fill:#434343;}.cls-118{fill:#424242;}.cls-119{fill:#414141;}.cls-120{fill:#404040;}.cls-121{fill:#3f3f3f;}.cls-122{fill:#3e3e3e;}.cls-123{fill:#3d3d3d;}.cls-124{fill:#3c3c3c;}.cls-125{fill:#3b3b3b;}.cls-126{fill:#3a3a3a;}.cls-127{fill:#393939;}.cls-128{fill:#383838;}.cls-129{fill:#373737;}.cls-130{fill:#363636;}.cls-131{fill:#353535;}.cls-132{fill:#343434;}.cls-133{fill:#333;}.cls-134{fill:#fff08a;}.cls-135,.cls-136,.cls-137{stroke-width:5px;}.cls-136,.cls-138{fill:#fff;}</style><linearGradient id="White_Black" x1="467.1166" y1="424.2541" x2="1082.2734" y2="424.2541" gradientUnits="userSpaceOnUse"><stop offset="0" stop-color="#fff"/><stop offset="1"/></linearGradient><linearGradient id="linear-gradient" x1="466.9447" y1="696.3258" x2="1080.9319" y2="696.3258" gradientUnits="userSpaceOnUse"><stop offset="0" stop-color="#b3b3b3"/><stop offset="1" stop-color="#666"/></linearGradient><linearGradient id="White_Black-2" x1="465.1166" y1="415.2541" x2="1080.2734" y2="415.2541" xlink:href="#White_Black"/><clipPath id="clip-path"><ellipse class="cls-1" cx="824.2946" cy="219.2236" rx="29.9751" ry="313.5971" transform="translate(165.8663 761.4346) rotate(-54.3644)"/></clipPath><clipPath id="clip-path-2"><path class="cls-1" d="M1068.4321,417.04a23.6638,23.6638,0,0,1-3.9765-.4244c-4.5643-.779-10.7531-2.7884-18.3933-5.9728-14.792-6.165-34.9377-16.6181-59.8768-31.0682-51.1545-29.64-116.8757-72.8378-185.058-121.6381S670.4407,160.5614,625.1288,121.1581c-22.0915-19.21-38.9134-35.2167-49.9994-47.5736-5.7268-6.3832-9.8881-11.78-12.3667-16.0432-2.3075-3.9661-6.6023-11.3487,1.3077-24.5654C571.982,19.7581,579.89,21.11,584.1327,21.8321c4.5654.7791,10.7531,2.7885,18.3933,5.9728,14.7931,6.1651,34.9388,16.6181,59.8779,31.0683,51.1534,29.64,116.8757,72.8377,185.058,121.6381S978.1482,277.8869,1023.46,317.2892c22.0915,19.21,38.9134,35.2166,49.9994,47.5736,5.7268,6.3831,9.8882,11.78,12.3668,16.0431,2.3074,3.9662,6.6023,11.3488-1.3078,24.5655C1078.6588,415.2624,1072.8005,417.06,1068.4321,417.04ZM603.6156,61.2781c34.67,34.4725,104.9672,93.56,212.9567,170.85,107.9786,77.2829,185.6342,124.0892,228.3994,145.0414-34.6705-34.4725-104.9662-93.56-212.9546-170.85S646.3789,82.2273,603.6156,61.2781Z"/></clipPath><clipPath id="clip-path-3"><ellipse class="cls-1" cx="825.1139" cy="217.9271" rx="21.3925" ry="305.2258" transform="translate(167.3683 761.688) rotate(-54.3757)"/></clipPath><clipPath id="clip-path-4"><ellipse class="cls-1" cx="833.9588" cy="201.8344" rx="23.5104" ry="313.8161" transform="translate(184.1242 762.1374) rotate(-54.3738)"/></clipPath></defs><title>skrald4</title><ellipse class="cls-2" cx="570.0483" cy="972.264" rx="529.6622" ry="47"/><ellipse class="cls-3" cx="774.695" cy="424.2541" rx="307.5784" ry="41.1202"/><ellipse class="cls-4" cx="774.238" cy="438.0009" rx="277.8717" ry="24.7475"/><path class="cls-5" d="M1067.2036,403.3594s9.8148,5.48,13.07,11.8826c.3086.6071,1.3132,39.1975,0,70.3813-1.3355,31.7131-10.0747,123.5529-11.8827,136.1944-17.99,125.7851-42.1376,207.2014-65.7408,328.7608a20.5294,20.5294,0,0,1-15.8105,16.1646,1007.3128,1007.3128,0,0,1-204.6743,22.5234,1011.8473,1011.8473,0,0,1-218.3914-22.3748h0a20.5306,20.5306,0,0,1-16.0155-17.1q-.1837-1.255-.3769-2.572c-3.9983-27.27-7.0747-47.7789-7.3124-49.3588-5.4957-36.5246-26.1028-139.6667-29.25-155.3888l-31.8306-180.98q-.1611-.9162-.2389-1.8441l-11.805-140.823"/><ellipse class="cls-6" cx="772.695" cy="415.2541" rx="307.5784" ry="41.1202"/><ellipse class="cls-4" cx="772.238" cy="429.0009" rx="277.8717" ry="24.7475"/><g class="cls-7"><polygon class="cls-8" points="570.356 34.269 544.18 93.037 536.309 88.13 570.356 34.269"/><polygon class="cls-8" points="580.034 18.958 580.756 18.962 585.368 21.837 551.595 97.659 544.18 93.037 570.356 34.269 580.034 18.958"/><polygon class="cls-9" points="592.782 26.459 559.009 102.282 551.595 97.659 585.368 21.837 592.782 26.459"/><polygon class="cls-10" points="600.197 31.082 566.424 106.904 559.009 102.282 592.782 26.459 600.197 31.082"/><polygon class="cls-11" points="607.612 35.704 573.839 111.526 566.424 106.904 600.197 31.082 607.612 35.704"/><polygon class="cls-12" points="615.027 40.327 581.254 116.149 573.839 111.526 607.612 35.704 615.027 40.327"/><polygon class="cls-13" points="622.442 44.949 588.669 120.771 581.254 116.149 615.027 40.327 622.442 44.949"/><polygon class="cls-14" points="629.857 49.572 596.084 125.394 588.669 120.771 622.442 44.949 629.857 49.572"/><polygon class="cls-15" points="637.272 54.194 603.499 130.016 596.084 125.394 629.857 49.572 637.272 54.194"/><polygon class="cls-16" points="644.687 58.817 610.914 134.639 603.499 130.016 637.272 54.194 644.687 58.817"/><polygon class="cls-17" points="652.102 63.439 618.329 139.261 610.914 134.639 644.687 58.817 652.102 63.439"/><polygon class="cls-18" points="659.516 68.062 625.743 143.884 618.329 139.261 652.102 63.439 659.516 68.062"/><polygon class="cls-19" points="666.931 72.684 633.158 148.506 625.743 143.884 659.516 68.062 666.931 72.684"/><polygon class="cls-20" points="674.346 77.307 640.573 153.129 633.158 148.506 666.931 72.684 674.346 77.307"/><polygon class="cls-21" points="681.761 81.929 647.988 157.751 640.573 153.129 674.346 77.307 681.761 81.929"/><polygon class="cls-22" points="689.176 86.551 655.403 162.374 647.988 157.751 681.761 81.929 689.176 86.551"/><polygon class="cls-23" points="696.591 91.174 662.818 166.996 655.403 162.374 689.176 86.551 696.591 91.174"/><polygon class="cls-24" points="704.006 95.796 670.233 171.619 662.818 166.996 696.591 91.174 704.006 95.796"/><polygon class="cls-25" points="711.421 100.419 677.648 176.241 670.233 171.619 704.006 95.796 711.421 100.419"/><polygon class="cls-26" points="718.835 105.041 685.063 180.864 677.648 176.241 711.421 100.419 718.835 105.041"/><polygon class="cls-27" points="726.25 109.664 692.477 185.486 685.063 180.864 718.835 105.041 726.25 109.664"/><polygon class="cls-28" points="733.665 114.286 699.892 190.109 692.477 185.486 726.25 109.664 733.665 114.286"/><polygon class="cls-29" points="741.08 118.909 707.307 194.731 699.892 190.109 733.665 114.286 741.08 118.909"/><polygon class="cls-30" points="748.495 123.531 714.722 199.354 707.307 194.731 741.08 118.909 748.495 123.531"/><polygon class="cls-31" points="755.91 128.154 722.137 203.976 714.722 199.354 748.495 123.531 755.91 128.154"/><polygon class="cls-32" points="763.325 132.776 729.552 208.599 722.137 203.976 755.91 128.154 763.325 132.776"/><polygon class="cls-33" points="770.74 137.399 736.967 213.221 729.552 208.599 763.325 132.776 770.74 137.399"/><polygon class="cls-34" points="778.155 142.021 744.382 217.844 736.967 213.221 770.74 137.399 778.155 142.021"/><polygon class="cls-35" points="785.569 146.644 751.797 222.466 744.382 217.844 778.155 142.021 785.569 146.644"/><polygon class="cls-36" points="792.984 151.266 759.211 227.089 751.797 222.466 785.569 146.644 792.984 151.266"/><polygon class="cls-37" points="800.399 155.889 766.626 231.711 759.211 227.089 792.984 151.266 800.399 155.889"/><polygon class="cls-38" points="807.814 160.511 774.041 236.334 766.626 231.711 800.399 155.889 807.814 160.511"/><polygon class="cls-39" points="815.229 165.134 781.456 240.956 774.041 236.334 807.814 160.511 815.229 165.134"/><polygon class="cls-40" points="822.644 169.756 788.871 245.579 781.456 240.956 815.229 165.134 822.644 169.756"/><polygon class="cls-41" points="830.059 174.379 796.286 250.201 788.871 245.579 822.644 169.756 830.059 174.379"/><polygon class="cls-42" points="837.474 179.001 803.701 254.824 796.286 250.201 830.059 174.379 837.474 179.001"/><polygon class="cls-43" points="844.889 183.624 811.116 259.446 803.701 254.824 837.474 179.001 844.889 183.624"/><polygon class="cls-44" points="852.303 188.246 818.53 264.068 811.116 259.446 844.889 183.624 852.303 188.246"/><polygon class="cls-45" points="859.718 192.869 825.945 268.691 818.53 264.068 852.303 188.246 859.718 192.869"/><polygon class="cls-46" points="867.133 197.491 833.36 273.313 825.945 268.691 859.718 192.869 867.133 197.491"/><polygon class="cls-47" points="874.548 202.114 840.775 277.936 833.36 273.313 867.133 197.491 874.548 202.114"/><polygon class="cls-48" points="881.963 206.736 848.19 282.558 840.775 277.936 874.548 202.114 881.963 206.736"/><polygon class="cls-49" points="889.378 211.359 855.605 287.181 848.19 282.558 881.963 206.736 889.378 211.359"/><polygon class="cls-50" points="896.793 215.981 863.02 291.803 855.605 287.181 889.378 211.359 896.793 215.981"/><polygon class="cls-51" points="904.208 220.604 870.435 296.426 863.02 291.803 896.793 215.981 904.208 220.604"/><polygon class="cls-52" points="911.622 225.226 877.85 301.048 870.435 296.426 904.208 220.604 911.622 225.226"/><polygon class="cls-53" points="919.037 229.849 885.264 305.671 877.85 301.048 911.622 225.226 919.037 229.849"/><polygon class="cls-54" points="926.452 234.471 892.679 310.293 885.264 305.671 919.037 229.849 926.452 234.471"/><polygon class="cls-55" points="933.867 239.093 900.094 314.916 892.679 310.293 926.452 234.471 933.867 239.093"/><polygon class="cls-56" points="941.282 243.716 907.509 319.538 900.094 314.916 933.867 239.093 941.282 243.716"/><polygon class="cls-57" points="948.697 248.338 914.924 324.161 907.509 319.538 941.282 243.716 948.697 248.338"/><polygon class="cls-58" points="956.112 252.961 922.339 328.783 914.924 324.161 948.697 248.338 956.112 252.961"/><polygon class="cls-59" points="963.527 257.583 929.754 333.406 922.339 328.783 956.112 252.961 963.527 257.583"/><polygon class="cls-60" points="970.942 262.206 937.169 338.028 929.754 333.406 963.527 257.583 970.942 262.206"/><polygon class="cls-61" points="978.356 266.828 944.584 342.651 937.169 338.028 970.942 262.206 978.356 266.828"/><polygon class="cls-62" points="985.771 271.451 951.998 347.273 944.584 342.651 978.356 266.828 985.771 271.451"/><polygon class="cls-63" points="993.186 276.073 959.413 351.896 951.998 347.273 985.771 271.451 993.186 276.073"/><polygon class="cls-64" points="1000.601 280.696 966.828 356.518 959.413 351.896 993.186 276.073 1000.601 280.696"/><polygon class="cls-65" points="1008.016 285.318 974.243 361.141 966.828 356.518 1000.601 280.696 1008.016 285.318"/><polygon class="cls-66" points="1015.431 289.941 981.658 365.763 974.243 361.141 1008.016 285.318 1015.431 289.941"/><polygon class="cls-67" points="1022.846 294.563 989.073 370.386 981.658 365.763 1015.431 289.941 1022.846 294.563"/><polygon class="cls-68" points="1030.261 299.186 996.488 375.008 989.073 370.386 1022.846 294.563 1030.261 299.186"/><polygon class="cls-69" points="1037.676 303.808 1003.903 379.631 996.488 375.008 1030.261 299.186 1037.676 303.808"/><polygon class="cls-70" points="1045.09 308.431 1011.317 384.253 1003.903 379.631 1037.676 303.808 1045.09 308.431"/><polygon class="cls-71" points="1052.505 313.053 1018.732 388.876 1011.317 384.253 1045.09 308.431 1052.505 313.053"/><polygon class="cls-72" points="1059.92 317.676 1026.147 393.498 1018.732 388.876 1052.505 313.053 1059.92 317.676"/><polygon class="cls-73" points="1067.335 322.298 1033.562 398.121 1026.147 393.498 1059.92 317.676 1067.335 322.298"/><polygon class="cls-74" points="1074.75 326.921 1040.977 402.743 1033.562 398.121 1067.335 322.298 1074.75 326.921"/><polygon class="cls-75" points="1082.165 331.543 1048.392 407.366 1040.977 402.743 1074.75 326.921 1082.165 331.543"/><polygon class="cls-76" points="1089.58 336.166 1055.807 411.988 1048.392 407.366 1082.165 331.543 1089.58 336.166"/><polygon class="cls-77" points="1096.995 340.788 1063.222 416.611 1055.807 411.988 1089.58 336.166 1096.995 340.788"/><polygon class="cls-78" points="1104.41 345.411 1078.233 404.179 1068.555 419.489 1067.834 419.486 1063.222 416.611 1096.995 340.788 1104.41 345.411"/><polygon class="cls-78" points="1078.233 404.179 1104.41 345.411 1112.28 350.317 1078.233 404.179"/></g><path d="M950.13,344.8955C906.9868,318,857.3907,284.6464,806.681,248.351c-68.1377-48.7666-130.5926-97.304-175.8606-136.67C559.367,49.5473,564.694,40.6458,567.5562,35.8649a9.8233,9.8233,0,0,1,3.0669-3.2477c2.9643-1.8763,11.9865-7.5887,90.6349,38.4153,50.46,29.52,114.6158,71.8013,180.65,119.063,68.1375,48.7688,130.5924,97.3061,175.8615,136.67,71.4523,62.1357,66.1256,71.0351,63.2642,75.8165a9.82,9.82,0,0,1-3.0669,3.2476c-2.9653,1.878-11.9883,7.59-90.6357-38.4158C975.6212,360.5655,963.1668,353.0227,950.13,344.8955ZM571.7677,38.3443c1.6262,5.3062,11.6782,22.063,66.9764,69.7946,44.92,38.7765,106.1017,86.2122,172.2735,133.5731C876.8469,288.83,940.8349,331.018,991.1963,360.49c61.9086,36.2393,80.3366,39.9458,85.6262,39.6128-1.6261-5.3062-11.6791-22.0614-66.9771-69.7951-44.92-38.7744-106.1017-86.2123-172.2736-133.5731C771.7406,149.62,707.755,107.4332,657.393,77.9587,595.4843,41.7194,577.0564,38.0129,571.7677,38.3443Z"/><g class="cls-79"><polygon class="cls-12" points="589.716 83.267 583.648 96.89 581.824 95.752 589.716 83.267"/><polygon class="cls-13" points="605.828 57.778 609.763 57.796 610.526 58.272 591.222 101.611 583.648 96.89 589.716 83.267 605.828 57.778"/><polygon class="cls-14" points="618.099 62.993 598.795 106.332 591.222 101.611 610.526 58.272 618.099 62.993"/><polygon class="cls-15" points="625.673 67.715 606.369 111.054 598.795 106.332 618.099 62.993 625.673 67.715"/><polygon class="cls-16" points="633.247 72.436 613.942 115.775 606.369 111.054 625.673 67.715 633.247 72.436"/><polygon class="cls-17" points="640.82 77.158 621.516 120.497 613.942 115.775 633.247 72.436 640.82 77.158"/><polygon class="cls-18" points="648.394 81.879 629.09 125.218 621.516 120.497 640.82 77.158 648.394 81.879"/><polygon class="cls-19" points="655.967 86.6 636.663 129.94 629.09 125.218 648.394 81.879 655.967 86.6"/><polygon class="cls-20" points="663.541 91.322 644.237 134.661 636.663 129.94 655.967 86.6 663.541 91.322"/><polygon class="cls-21" points="671.115 96.043 651.81 139.382 644.237 134.661 663.541 91.322 671.115 96.043"/><polygon class="cls-22" points="678.688 100.765 659.384 144.104 651.81 139.382 671.115 96.043 678.688 100.765"/><polygon class="cls-23" points="686.262 105.486 666.957 148.825 659.384 144.104 678.688 100.765 686.262 105.486"/><polygon class="cls-24" points="693.835 110.207 674.531 153.547 666.957 148.825 686.262 105.486 693.835 110.207"/><polygon class="cls-25" points="701.409 114.929 682.105 158.268 674.531 153.547 693.835 110.207 701.409 114.929"/><polygon class="cls-26" points="708.982 119.65 689.678 162.989 682.105 158.268 701.409 114.929 708.982 119.65"/><polygon class="cls-27" points="716.556 124.372 697.252 167.711 689.678 162.989 708.982 119.65 716.556 124.372"/><polygon class="cls-28" points="724.13 129.093 704.825 172.432 697.252 167.711 716.556 124.372 724.13 129.093"/><polygon class="cls-29" points="731.703 133.815 712.399 177.154 704.825 172.432 724.13 129.093 731.703 133.815"/><polygon class="cls-30" points="739.277 138.536 719.972 181.875 712.399 177.154 731.703 133.815 739.277 138.536"/><polygon class="cls-31" points="746.85 143.257 727.546 186.597 719.972 181.875 739.277 138.536 746.85 143.257"/><polygon class="cls-32" points="754.424 147.979 735.12 191.318 727.546 186.597 746.85 143.257 754.424 147.979"/><polygon class="cls-33" points="761.997 152.7 742.693 196.039 735.12 191.318 754.424 147.979 761.997 152.7"/><polygon class="cls-34" points="769.571 157.422 750.267 200.761 742.693 196.039 761.997 152.7 769.571 157.422"/><polygon class="cls-35" points="777.145 162.143 757.84 205.482 750.267 200.761 769.571 157.422 777.145 162.143"/><polygon class="cls-36" points="784.718 166.864 765.414 210.204 757.84 205.482 777.145 162.143 784.718 166.864"/><polygon class="cls-37" points="792.292 171.586 772.988 214.925 765.414 210.204 784.718 166.864 792.292 171.586"/><polygon class="cls-38" points="799.865 176.307 780.561 219.646 772.988 214.925 792.292 171.586 799.865 176.307"/><polygon class="cls-39" points="807.439 181.029 788.135 224.368 780.561 219.646 799.865 176.307 807.439 181.029"/><polygon class="cls-40" points="815.013 185.75 795.708 229.089 788.135 224.368 807.439 181.029 815.013 185.75"/><polygon class="cls-41" points="822.586 190.472 803.282 233.811 795.708 229.089 815.013 185.75 822.586 190.472"/><polygon class="cls-42" points="830.16 195.193 810.855 238.532 803.282 233.811 822.586 190.472 830.16 195.193"/><polygon class="cls-43" points="837.733 199.914 818.429 243.253 810.855 238.532 830.16 195.193 837.733 199.914"/><polygon class="cls-44" points="845.307 204.636 826.003 247.975 818.429 243.253 837.733 199.914 845.307 204.636"/><polygon class="cls-45" points="852.88 209.357 833.576 252.696 826.003 247.975 845.307 204.636 852.88 209.357"/><polygon class="cls-46" points="860.454 214.079 841.15 257.418 833.576 252.696 852.88 209.357 860.454 214.079"/><polygon class="cls-47" points="868.028 218.8 848.723 262.139 841.15 257.418 860.454 214.079 868.028 218.8"/><polygon class="cls-48" points="875.601 223.521 856.297 266.861 848.723 262.139 868.028 218.8 875.601 223.521"/><polygon class="cls-49" points="883.175 228.243 863.87 271.582 856.297 266.861 875.601 223.521 883.175 228.243"/><polygon class="cls-50" points="890.748 232.964 871.444 276.303 863.87 271.582 883.175 228.243 890.748 232.964"/><polygon class="cls-51" points="898.322 237.686 879.018 281.025 871.444 276.303 890.748 232.964 898.322 237.686"/><polygon class="cls-52" points="905.895 242.407 886.591 285.746 879.018 281.025 898.322 237.686 905.895 242.407"/><polygon class="cls-53" points="913.469 247.129 894.165 290.468 886.591 285.746 905.895 242.407 913.469 247.129"/><polygon class="cls-54" points="921.043 251.85 901.738 295.189 894.165 290.468 913.469 247.129 921.043 251.85"/><polygon class="cls-55" points="928.616 256.571 909.312 299.91 901.738 295.189 921.043 251.85 928.616 256.571"/><polygon class="cls-56" points="936.19 261.293 916.886 304.632 909.312 299.91 928.616 256.571 936.19 261.293"/><polygon class="cls-57" points="943.763 266.014 924.459 309.353 916.886 304.632 936.19 261.293 943.763 266.014"/><polygon class="cls-58" points="951.337 270.736 932.033 314.075 924.459 309.353 943.763 266.014 951.337 270.736"/><polygon class="cls-59" points="958.911 275.457 939.606 318.796 932.033 314.075 951.337 270.736 958.911 275.457"/><polygon class="cls-60" points="966.484 280.178 947.18 323.518 939.606 318.796 958.911 275.457 966.484 280.178"/><polygon class="cls-61" points="974.058 284.9 954.753 328.239 947.18 323.518 966.484 280.178 974.058 284.9"/><polygon class="cls-62" points="981.631 289.621 962.327 332.96 954.753 328.239 974.058 284.9 981.631 289.621"/><polygon class="cls-63" points="989.205 294.343 969.901 337.682 962.327 332.96 981.631 289.621 989.205 294.343"/><polygon class="cls-64" points="996.778 299.064 977.474 342.403 969.901 337.682 989.205 294.343 996.778 299.064"/><polygon class="cls-65" points="1004.352 303.785 985.048 347.125 977.474 342.403 996.778 299.064 1004.352 303.785"/><polygon class="cls-66" points="1011.926 308.507 992.621 351.846 985.048 347.125 1004.352 303.785 1011.926 308.507"/><polygon class="cls-67" points="1019.499 313.228 1000.195 356.567 992.621 351.846 1011.926 308.507 1019.499 313.228"/><polygon class="cls-68" points="1027.073 317.95 1007.769 361.289 1000.195 356.567 1019.499 313.228 1027.073 317.95"/><polygon class="cls-69" points="1034.646 322.671 1015.342 366.01 1007.769 361.289 1027.073 317.95 1034.646 322.671"/><polygon class="cls-70" points="1042.22 327.393 1022.916 370.732 1015.342 366.01 1034.646 322.671 1042.22 327.393"/><polygon class="cls-71" points="1049.793 332.114 1030.489 375.453 1022.916 370.732 1042.22 327.393 1049.793 332.114"/><polygon class="cls-72" points="1057.367 336.835 1038.063 380.175 1030.489 375.453 1049.793 332.114 1057.367 336.835"/><polygon class="cls-73" points="1064.941 341.557 1058.875 355.174 1042.759 380.669 1038.827 380.651 1038.063 380.175 1057.367 336.835 1064.941 341.557"/><polygon class="cls-74" points="1058.875 355.174 1064.941 341.557 1066.764 342.694 1058.875 355.174"/><polygon class="cls-8" points="563.989 32.404 533.93 99.886 524.893 94.252 563.989 32.404"/><polygon class="cls-8" points="574.195 16.258 580.843 16.289 541.504 104.607 533.93 99.886 563.989 32.404 574.195 16.258"/><polygon class="cls-9" points="580.843 16.289 590.499 16.335 549.078 109.329 541.504 104.607 580.843 16.289"/><polygon class="cls-10" points="590.499 16.335 597.833 16.37 599.655 17.505 556.651 114.05 549.078 109.329 590.499 16.335"/><polygon class="cls-11" points="607.228 22.226 564.225 118.772 556.651 114.05 599.655 17.505 607.228 22.226"/><polygon class="cls-12" points="614.802 26.948 571.798 123.493 564.225 118.772 607.228 22.226 614.802 26.948"/><polygon class="cls-13" points="622.375 31.669 579.372 128.214 571.798 123.493 614.802 26.948 622.375 31.669"/><polygon class="cls-14" points="629.949 36.391 586.945 132.936 579.372 128.214 622.375 31.669 629.949 36.391"/><polygon class="cls-15" points="637.522 41.112 594.519 137.657 586.945 132.936 629.949 36.391 637.522 41.112"/><polygon class="cls-16" points="645.096 45.834 602.093 142.379 594.519 137.657 637.522 41.112 645.096 45.834"/><polygon class="cls-17" points="652.67 50.555 609.666 147.1 602.093 142.379 645.096 45.834 652.67 50.555"/><polygon class="cls-18" points="660.243 55.276 617.24 151.822 609.666 147.1 652.67 50.555 660.243 55.276"/><polygon class="cls-19" points="667.817 59.998 624.813 156.543 617.24 151.822 660.243 55.276 667.817 59.998"/><polygon class="cls-20" points="675.39 64.719 632.387 161.264 624.813 156.543 667.817 59.998 675.39 64.719"/><polygon class="cls-21" points="682.964 69.441 639.961 165.986 632.387 161.264 675.39 64.719 682.964 69.441"/><polygon class="cls-22" points="690.537 74.162 647.534 170.707 639.961 165.986 682.964 69.441 690.537 74.162"/><polygon class="cls-23" points="698.111 78.883 655.108 175.429 647.534 170.707 690.537 74.162 698.111 78.883"/><polygon class="cls-24" points="705.685 83.605 662.681 180.15 655.108 175.429 698.111 78.883 705.685 83.605"/><polygon class="cls-25" points="713.258 88.326 670.255 184.871 662.681 180.15 705.685 83.605 713.258 88.326"/><polygon class="cls-26" points="720.832 93.048 677.828 189.593 670.255 184.871 713.258 88.326 720.832 93.048"/><polygon class="cls-27" points="728.405 97.769 685.402 194.314 677.828 189.593 720.832 93.048 728.405 97.769"/><polygon class="cls-28" points="735.979 102.491 692.976 199.036 685.402 194.314 728.405 97.769 735.979 102.491"/><polygon class="cls-29" points="743.553 107.212 700.549 203.757 692.976 199.036 735.979 102.491 743.553 107.212"/><polygon class="cls-30" points="751.126 111.933 708.123 208.478 700.549 203.757 743.553 107.212 751.126 111.933"/><polygon class="cls-31" points="758.7 116.655 715.696 213.2 708.123 208.478 751.126 111.933 758.7 116.655"/><polygon class="cls-32" points="766.273 121.376 723.27 217.921 715.696 213.2 758.7 116.655 766.273 121.376"/><polygon class="cls-33" points="773.847 126.098 730.843 222.643 723.27 217.921 766.273 121.376 773.847 126.098"/><polygon class="cls-34" points="781.42 130.819 738.417 227.364 730.843 222.643 773.847 126.098 781.42 130.819"/><polygon class="cls-35" points="788.994 135.54 745.991 232.086 738.417 227.364 781.42 130.819 788.994 135.54"/><polygon class="cls-36" points="796.568 140.262 753.564 236.807 745.991 232.086 788.994 135.54 796.568 140.262"/><polygon class="cls-37" points="804.141 144.983 761.138 241.528 753.564 236.807 796.568 140.262 804.141 144.983"/><polygon class="cls-38" points="811.715 149.705 768.711 246.25 761.138 241.528 804.141 144.983 811.715 149.705"/><polygon class="cls-39" points="819.288 154.426 776.285 250.971 768.711 246.25 811.715 149.705 819.288 154.426"/><polygon class="cls-40" points="826.862 159.148 783.859 255.693 776.285 250.971 819.288 154.426 826.862 159.148"/><polygon class="cls-41" points="834.435 163.869 791.432 260.414 783.859 255.693 826.862 159.148 834.435 163.869"/><polygon class="cls-42" points="842.009 168.59 799.006 265.135 791.432 260.414 834.435 163.869 842.009 168.59"/><polygon class="cls-43" points="849.583 173.312 806.579 269.857 799.006 265.135 842.009 168.59 849.583 173.312"/><polygon class="cls-44" points="857.156 178.033 814.153 274.578 806.579 269.857 849.583 173.312 857.156 178.033"/><polygon class="cls-45" points="864.73 182.755 821.726 279.3 814.153 274.578 857.156 178.033 864.73 182.755"/><polygon class="cls-46" points="872.303 187.476 829.3 284.021 821.726 279.3 864.73 182.755 872.303 187.476"/><polygon class="cls-47" points="879.877 192.197 836.874 288.743 829.3 284.021 872.303 187.476 879.877 192.197"/><polygon class="cls-48" points="887.451 196.919 844.447 293.464 836.874 288.743 879.877 192.197 887.451 196.919"/><polygon class="cls-49" points="895.024 201.64 852.021 298.185 844.447 293.464 887.451 196.919 895.024 201.64"/><polygon class="cls-50" points="902.598 206.362 859.594 302.907 852.021 298.185 895.024 201.64 902.598 206.362"/><polygon class="cls-51" points="910.171 211.083 867.168 307.628 859.594 302.907 902.598 206.362 910.171 211.083"/><polygon class="cls-52" points="917.745 215.804 874.741 312.35 867.168 307.628 910.171 211.083 917.745 215.804"/><polygon class="cls-53" points="925.318 220.526 882.315 317.071 874.741 312.35 917.745 215.804 925.318 220.526"/><polygon class="cls-54" points="932.892 225.247 889.889 321.792 882.315 317.071 925.318 220.526 932.892 225.247"/><polygon class="cls-55" points="940.466 229.969 897.462 326.514 889.889 321.792 932.892 225.247 940.466 229.969"/><polygon class="cls-56" points="948.039 234.69 905.036 331.235 897.462 326.514 940.466 229.969 948.039 234.69"/><polygon class="cls-57" points="955.613 239.412 912.609 335.957 905.036 331.235 948.039 234.69 955.613 239.412"/><polygon class="cls-58" points="963.186 244.133 920.183 340.678 912.609 335.957 955.613 239.412 963.186 244.133"/><polygon class="cls-59" points="970.76 248.854 927.757 345.4 920.183 340.678 963.186 244.133 970.76 248.854"/><polygon class="cls-60" points="978.333 253.576 935.33 350.121 927.757 345.4 970.76 248.854 978.333 253.576"/><polygon class="cls-61" points="985.907 258.297 942.904 354.842 935.33 350.121 978.333 253.576 985.907 258.297"/><polygon class="cls-62" points="993.481 263.019 950.477 359.564 942.904 354.842 985.907 258.297 993.481 263.019"/><polygon class="cls-63" points="1001.054 267.74 958.051 364.285 950.477 359.564 993.481 263.019 1001.054 267.74"/><polygon class="cls-64" points="1008.628 272.461 965.624 369.007 958.051 364.285 1001.054 267.74 1008.628 272.461"/><polygon class="cls-65" points="1016.201 277.183 973.198 373.728 965.624 369.007 1008.628 272.461 1016.201 277.183"/><polygon class="cls-66" points="1023.775 281.904 980.772 378.449 973.198 373.728 1016.201 277.183 1023.775 281.904"/><polygon class="cls-67" points="1031.349 286.626 988.345 383.171 980.772 378.449 1023.775 281.904 1031.349 286.626"/><polygon class="cls-68" points="1038.922 291.347 995.919 387.892 988.345 383.171 1031.349 286.626 1038.922 291.347"/><polygon class="cls-69" points="1046.496 296.069 1003.492 392.614 995.919 387.892 1038.922 291.347 1046.496 296.069"/><polygon class="cls-70" points="1054.069 300.79 1011.066 397.335 1003.492 392.614 1046.496 296.069 1054.069 300.79"/><polygon class="cls-71" points="1061.643 305.511 1018.639 402.057 1011.066 397.335 1054.069 300.79 1061.643 305.511"/><polygon class="cls-72" points="1069.216 310.233 1026.213 406.778 1018.639 402.057 1061.643 305.511 1069.216 310.233"/><polygon class="cls-73" points="1076.79 314.954 1033.787 411.499 1026.213 406.778 1069.216 310.233 1076.79 314.954"/><polygon class="cls-74" points="1084.364 319.676 1041.36 416.221 1033.787 411.499 1076.79 314.954 1084.364 319.676"/><polygon class="cls-75" points="1091.937 324.397 1049.149 420.459 1048.151 420.454 1041.36 416.221 1084.364 319.676 1091.937 324.397"/><polygon class="cls-76" points="1099.511 329.118 1058.805 420.505 1049.149 420.459 1091.937 324.397 1099.511 329.118"/><polygon class="cls-77" points="1107.084 333.84 1068.462 420.55 1058.805 420.505 1099.511 329.118 1107.084 333.84"/><polygon class="cls-78" points="1114.658 338.561 1084.871 405.435 1075.296 420.583 1068.462 420.55 1107.084 333.84 1114.658 338.561"/><polygon class="cls-78" points="1084.871 405.435 1114.658 338.561 1123.614 344.145 1084.871 405.435"/></g><path d="M942.428,357.8251c-43.1106-26.8754-92.6055-60.1658-143.4683-96.57-68.2048-48.8153-130.7334-97.41-176.07-136.8321-22.1179-19.2333-38.9695-35.2679-50.0852-47.6606-5.78-6.44-9.9845-11.9-12.4988-16.2261-2.3956-4.1154-7.3828-12.6807,2.0289-28.4079,9.6637-16.1451,19.3962-14.4911,23.5515-13.7834,4.6444.7914,10.9077,2.8224,18.623,6.0371,14.8319,6.1816,35.0147,16.6529,59.9877,31.1235C715.6942,85.1675,781.4405,128.3837,849.63,177.1917c68.1954,48.8071,130.724,97.4019,176.0682,136.8332,22.1148,19.2313,38.9664,35.266,50.0863,47.659,5.7805,6.4424,9.9851,11.9023,12.4988,16.2261,2.3959,4.12,7.3792,12.69-2.0289,28.4079-5.6685,9.4735-12.19,14.26-19.3818,14.224h0a24.3148,24.3148,0,0,1-4.1774-.4409c-4.641-.7915-10.9042-2.8225-18.6155-6.0347-14.8317-6.1837-35.0137-16.6545-59.9878-31.1235C971.08,375.4038,957.1235,366.9863,942.428,357.8251ZM701.9445,87.3418c-14.6868-9.1558-28.63-17.5653-41.6351-25.1-24.9016-14.4308-45.01-24.8648-59.7665-31.0131-7.576-3.1574-13.6888-5.1471-18.17-5.91-5.2726-.8977-10.89-.979-16.5665,8.5033-5.9166,9.8871-3.4042,15.88-.5861,20.7225,2.4355,4.1928,6.5516,9.5291,12.2345,15.86,11.0612,12.3313,27.8544,28.309,49.9126,47.4891,45.2923,39.3853,107.7717,87.94,175.9291,136.7214,68.1531,48.7808,133.8461,91.9637,184.9827,121.59,24.9027,14.4291,45.0112,24.8632,59.7674,31.0136,7.57,3.1561,13.684,5.1442,18.17,5.9073a22.5741,22.5741,0,0,0,3.7761.41l.0011-.0016c5.1405.0258,9.0849-2.7228,12.7893-8.9116,5.9143-9.8816,3.4037-15.8761.5867-20.72-2.4365-4.1911-6.5527-9.5275-12.2352-15.8631-11.0654-12.3317-27.8585-28.3094-49.9136-47.4875-45.3-39.3924-107.7793-87.9473-175.9272-136.7225C794.4761,147.4592,745.0192,114.1949,701.9445,87.3418ZM956.36,331.1644c-36.0436-22.47-82.9356-53.4734-141.9564-95.7167C681.87,140.59,621.2433,84.2968,601.328,64.4992l4.3216-6.6187C630.2077,69.9064,701.6359,108.1277,834.1852,203,966.706,297.8462,1027.34,354.1457,1047.2588,373.9479l-4.3223,6.6182C1029.314,373.8926,1001.2557,359.1529,956.36,331.1644ZM626.93,77.9428c31.1113,28.2925,90.3686,78.2617,191.8095,150.8659,101.188,72.4191,166.7008,111.786,202.9152,131.6946-31.1143-28.2966-90.3756-78.2683-191.8064-150.8639C728.6539,137.2116,663.1432,97.8414,626.93,77.9428Z"/><g class="cls-80"><polygon class="cls-8" points="577.242 39.502 556.493 88.419 549.195 83.87 577.242 39.502"/><polygon class="cls-8" points="589.163 32.882 563.701 92.913 556.493 88.419 577.242 39.502 583.613 29.422 589.163 32.882"/><polygon class="cls-9" points="596.372 37.375 570.909 97.407 563.701 92.913 589.163 32.882 596.372 37.375"/><polygon class="cls-10" points="603.58 41.869 578.117 101.9 570.909 97.407 596.372 37.375 603.58 41.869"/><polygon class="cls-11" points="610.788 46.363 585.326 106.394 578.117 101.9 603.58 41.869 610.788 46.363"/><polygon class="cls-12" points="617.996 50.856 592.534 110.888 585.326 106.394 610.788 46.363 617.996 50.856"/><polygon class="cls-13" points="625.204 55.35 599.742 115.381 592.534 110.888 617.996 50.856 625.204 55.35"/><polygon class="cls-14" points="632.412 59.843 606.95 119.875 599.742 115.381 625.204 55.35 632.412 59.843"/><polygon class="cls-15" points="639.621 64.337 614.158 124.368 606.95 119.875 632.412 59.843 639.621 64.337"/><polygon class="cls-16" points="646.829 68.831 621.366 128.862 614.158 124.368 639.621 64.337 646.829 68.831"/><polygon class="cls-17" points="654.037 73.324 628.575 133.356 621.366 128.862 646.829 68.831 654.037 73.324"/><polygon class="cls-18" points="661.245 77.818 635.783 137.849 628.575 133.356 654.037 73.324 661.245 77.818"/><polygon class="cls-19" points="668.453 82.312 642.991 142.343 635.783 137.849 661.245 77.818 668.453 82.312"/><polygon class="cls-20" points="675.661 86.805 650.199 146.836 642.991 142.343 668.453 82.312 675.661 86.805"/><polygon class="cls-21" points="682.87 91.299 657.407 151.33 650.199 146.836 675.661 86.805 682.87 91.299"/><polygon class="cls-22" points="690.078 95.792 664.615 155.824 657.407 151.33 682.87 91.299 690.078 95.792"/><polygon class="cls-23" points="697.286 100.286 671.824 160.317 664.615 155.824 690.078 95.792 697.286 100.286"/><polygon class="cls-24" points="704.494 104.78 679.032 164.811 671.824 160.317 697.286 100.286 704.494 104.78"/><polygon class="cls-25" points="711.702 109.273 686.24 169.305 679.032 164.811 704.494 104.78 711.702 109.273"/><polygon class="cls-26" points="718.91 113.767 693.448 173.798 686.24 169.305 711.702 109.273 718.91 113.767"/><polygon class="cls-27" points="726.119 118.26 700.656 178.292 693.448 173.798 718.91 113.767 726.119 118.26"/><polygon class="cls-28" points="733.327 122.754 707.864 182.785 700.656 178.292 726.119 118.26 733.327 122.754"/><polygon class="cls-29" points="740.535 127.248 715.073 187.279 707.864 182.785 733.327 122.754 740.535 127.248"/><polygon class="cls-30" points="747.743 131.741 722.281 191.773 715.073 187.279 740.535 127.248 747.743 131.741"/><polygon class="cls-31" points="754.951 136.235 729.489 196.266 722.281 191.773 747.743 131.741 754.951 136.235"/><polygon class="cls-32" points="762.159 140.729 736.697 200.76 729.489 196.266 754.951 136.235 762.159 140.729"/><polygon class="cls-33" points="769.368 145.222 743.905 205.253 736.697 200.76 762.159 140.729 769.368 145.222"/><polygon class="cls-34" points="776.576 149.716 751.113 209.747 743.905 205.253 769.368 145.222 776.576 149.716"/><polygon class="cls-35" points="783.784 154.209 758.322 214.241 751.113 209.747 776.576 149.716 783.784 154.209"/><polygon class="cls-36" points="790.992 158.703 765.53 218.734 758.322 214.241 783.784 154.209 790.992 158.703"/><polygon class="cls-37" points="798.2 163.197 772.738 223.228 765.53 218.734 790.992 158.703 798.2 163.197"/><polygon class="cls-38" points="805.408 167.69 779.946 227.722 772.738 223.228 798.2 163.197 805.408 167.69"/><polygon class="cls-39" points="812.617 172.184 787.154 232.215 779.946 227.722 805.408 167.69 812.617 172.184"/><polygon class="cls-40" points="819.825 176.677 794.362 236.709 787.154 232.215 812.617 172.184 819.825 176.677"/><polygon class="cls-41" points="827.033 181.171 801.571 241.202 794.362 236.709 819.825 176.677 827.033 181.171"/><polygon class="cls-42" points="834.241 185.665 808.779 245.696 801.571 241.202 827.033 181.171 834.241 185.665"/><polygon class="cls-43" points="841.449 190.158 815.987 250.19 808.779 245.696 834.241 185.665 841.449 190.158"/><polygon class="cls-44" points="848.657 194.652 823.195 254.683 815.987 250.19 841.449 190.158 848.657 194.652"/><polygon class="cls-45" points="855.865 199.145 830.403 259.177 823.195 254.683 848.657 194.652 855.865 199.145"/><polygon class="cls-46" points="863.074 203.639 837.611 263.67 830.403 259.177 855.865 199.145 863.074 203.639"/><polygon class="cls-47" points="870.282 208.133 844.819 268.164 837.611 263.67 863.074 203.639 870.282 208.133"/><polygon class="cls-48" points="877.49 212.626 852.028 272.658 844.819 268.164 870.282 208.133 877.49 212.626"/><polygon class="cls-49" points="884.698 217.12 859.236 277.151 852.028 272.658 877.49 212.626 884.698 217.12"/><polygon class="cls-50" points="891.906 221.614 866.444 281.645 859.236 277.151 884.698 217.12 891.906 221.614"/><polygon class="cls-51" points="899.114 226.107 873.652 286.138 866.444 281.645 891.906 221.614 899.114 226.107"/><polygon class="cls-52" points="906.323 230.601 880.86 290.632 873.652 286.138 899.114 226.107 906.323 230.601"/><polygon class="cls-53" points="913.531 235.094 888.068 295.126 880.86 290.632 906.323 230.601 913.531 235.094"/><polygon class="cls-54" points="920.739 239.588 895.277 299.619 888.068 295.126 913.531 235.094 920.739 239.588"/><polygon class="cls-55" points="927.947 244.082 902.485 304.113 895.277 299.619 920.739 239.588 927.947 244.082"/><polygon class="cls-56" points="935.155 248.575 909.693 308.607 902.485 304.113 927.947 244.082 935.155 248.575"/><polygon class="cls-57" points="942.363 253.069 916.901 313.1 909.693 308.607 935.155 248.575 942.363 253.069"/><polygon class="cls-58" points="949.572 257.562 924.109 317.594 916.901 313.1 942.363 253.069 949.572 257.562"/><polygon class="cls-59" points="956.78 262.056 931.317 322.087 924.109 317.594 949.572 257.562 956.78 262.056"/><polygon class="cls-60" points="963.988 266.55 938.526 326.581 931.317 322.087 956.78 262.056 963.988 266.55"/><polygon class="cls-61" points="971.196 271.043 945.734 331.075 938.526 326.581 963.988 266.55 971.196 271.043"/><polygon class="cls-62" points="978.404 275.537 952.942 335.568 945.734 331.075 971.196 271.043 978.404 275.537"/><polygon class="cls-63" points="985.612 280.031 960.15 340.062 952.942 335.568 978.404 275.537 985.612 280.031"/><polygon class="cls-64" points="992.821 284.524 967.358 344.555 960.15 340.062 985.612 280.031 992.821 284.524"/><polygon class="cls-65" points="1000.029 289.018 974.566 349.049 967.358 344.555 992.821 284.524 1000.029 289.018"/><polygon class="cls-66" points="1007.237 293.511 981.775 353.543 974.566 349.049 1000.029 289.018 1007.237 293.511"/><polygon class="cls-67" points="1014.445 298.005 988.983 358.036 981.775 353.543 1007.237 293.511 1014.445 298.005"/><polygon class="cls-68" points="1021.653 302.499 996.191 362.53 988.983 358.036 1014.445 298.005 1021.653 302.499"/><polygon class="cls-69" points="1028.861 306.992 1003.399 367.024 996.191 362.53 1021.653 302.499 1028.861 306.992"/><polygon class="cls-70" points="1036.07 311.486 1010.607 371.517 1003.399 367.024 1028.861 306.992 1036.07 311.486"/><polygon class="cls-71" points="1043.278 315.979 1017.815 376.011 1010.607 371.517 1036.07 311.486 1043.278 315.979"/><polygon class="cls-72" points="1050.486 320.473 1025.024 380.504 1017.815 376.011 1043.278 315.979 1050.486 320.473"/><polygon class="cls-73" points="1057.694 324.967 1032.232 384.998 1025.024 380.504 1050.486 320.473 1057.694 324.967"/><polygon class="cls-74" points="1064.902 329.46 1039.44 389.492 1032.232 384.998 1057.694 324.967 1064.902 329.46"/><polygon class="cls-75" points="1072.11 333.954 1046.648 393.985 1039.44 389.492 1064.902 329.46 1072.11 333.954"/><polygon class="cls-76" points="1079.319 338.447 1053.856 398.479 1046.648 393.985 1072.11 333.954 1079.319 338.447"/><polygon class="cls-77" points="1086.527 342.941 1061.064 402.972 1053.856 398.479 1079.319 338.447 1086.527 342.941"/><polygon class="cls-78" points="1093.735 347.435 1072.986 396.353 1066.615 406.432 1061.064 402.972 1086.527 342.941 1093.735 347.435"/><polygon class="cls-78" points="1072.986 396.353 1093.735 347.435 1101.033 351.984 1072.986 396.353"/></g><g class="cls-81"><polygon class="cls-54" points="750.021 108.699 721.53 172.554 549.456 65.282 586.463 6.736 750.021 108.699"/><polygon class="cls-54" points="754.717 111.626 726.226 175.481 721.53 172.554 750.021 108.699 754.717 111.626"/><polygon class="cls-55" points="759.413 114.554 730.922 178.409 726.226 175.481 754.717 111.626 759.413 114.554"/><polygon class="cls-56" points="764.109 117.481 735.618 181.336 730.922 178.409 759.413 114.554 764.109 117.481"/><polygon class="cls-57" points="768.805 120.409 740.314 184.264 735.618 181.336 764.109 117.481 768.805 120.409"/><polygon class="cls-58" points="773.501 123.336 745.01 187.191 740.314 184.264 768.805 120.409 773.501 123.336"/><polygon class="cls-59" points="778.197 126.264 749.706 190.119 745.01 187.191 773.501 123.336 778.197 126.264"/><polygon class="cls-60" points="782.893 129.191 754.402 193.047 749.706 190.119 778.197 126.264 782.893 129.191"/><polygon class="cls-61" points="787.589 132.119 759.098 195.974 754.402 193.047 782.893 129.191 787.589 132.119"/><polygon class="cls-62" points="792.285 135.046 763.794 198.902 759.098 195.974 787.589 132.119 792.285 135.046"/><polygon class="cls-63" points="796.981 137.974 768.49 201.829 763.794 198.902 792.285 135.046 796.981 137.974"/><polygon class="cls-64" points="801.677 140.902 773.186 204.757 768.49 201.829 796.981 137.974 801.677 140.902"/><polygon class="cls-65" points="806.373 143.829 777.882 207.684 773.186 204.757 801.677 140.902 806.373 143.829"/><polygon class="cls-66" points="811.069 146.757 782.578 210.612 777.882 207.684 806.373 143.829 811.069 146.757"/><polygon class="cls-67" points="815.765 149.684 787.274 213.539 782.578 210.612 811.069 146.757 815.765 149.684"/><polygon class="cls-68" points="820.461 152.612 791.97 216.467 787.274 213.539 815.765 149.684 820.461 152.612"/><polygon class="cls-69" points="825.157 155.539 796.666 219.394 791.97 216.467 820.461 152.612 825.157 155.539"/><polygon class="cls-70" points="829.853 158.467 801.363 222.322 796.666 219.394 825.157 155.539 829.853 158.467"/><polygon class="cls-71" points="834.55 161.394 806.059 225.25 801.363 222.322 829.853 158.467 834.55 161.394"/><polygon class="cls-72" points="839.246 164.322 810.755 228.177 806.059 225.25 834.55 161.394 839.246 164.322"/><polygon class="cls-73" points="843.942 167.249 815.451 231.105 810.755 228.177 839.246 164.322 843.942 167.249"/><polygon class="cls-74" points="848.638 170.177 820.147 234.032 815.451 231.105 843.942 167.249 848.638 170.177"/><polygon class="cls-75" points="853.334 173.105 824.843 236.96 820.147 234.032 848.638 170.177 853.334 173.105"/><polygon class="cls-76" points="858.03 176.032 829.539 239.887 824.843 236.96 853.334 173.105 858.03 176.032"/><polygon class="cls-77" points="862.726 178.96 834.235 242.815 829.539 239.887 858.03 176.032 862.726 178.96"/><polygon class="cls-78" points="867.422 181.887 838.931 245.742 834.235 242.815 862.726 178.96 867.422 181.887"/><polygon class="cls-82" points="872.118 184.815 843.627 248.67 838.931 245.742 867.422 181.887 872.118 184.815"/><polygon class="cls-83" points="876.814 187.742 848.323 251.597 843.627 248.67 872.118 184.815 876.814 187.742"/><polygon class="cls-84" points="881.51 190.67 853.019 254.525 848.323 251.597 876.814 187.742 881.51 190.67"/><polygon class="cls-85" points="886.206 193.597 857.715 257.453 853.019 254.525 881.51 190.67 886.206 193.597"/><polygon class="cls-86" points="890.902 196.525 862.411 260.38 857.715 257.453 886.206 193.597 890.902 196.525"/><polygon class="cls-87" points="895.598 199.453 867.107 263.308 862.411 260.38 890.902 196.525 895.598 199.453"/><polygon class="cls-88" points="900.294 202.38 871.803 266.235 867.107 263.308 895.598 199.453 900.294 202.38"/><polygon class="cls-89" points="904.99 205.308 876.499 269.163 871.803 266.235 900.294 202.38 904.99 205.308"/><polygon class="cls-90" points="909.686 208.235 881.195 272.09 876.499 269.163 904.99 205.308 909.686 208.235"/><polygon class="cls-91" points="914.382 211.163 885.891 275.018 881.195 272.09 909.686 208.235 914.382 211.163"/><polygon class="cls-92" points="919.078 214.09 890.587 277.945 885.891 275.018 914.382 211.163 919.078 214.09"/><polygon class="cls-93" points="923.774 217.018 895.284 280.873 890.587 277.945 919.078 214.09 923.774 217.018"/><polygon class="cls-94" points="928.471 219.945 899.98 283.801 895.284 280.873 923.774 217.018 928.471 219.945"/><polygon class="cls-95" points="933.167 222.873 904.676 286.728 899.98 283.801 928.471 219.945 933.167 222.873"/><polygon class="cls-96" points="937.863 225.8 909.372 289.656 904.676 286.728 933.167 222.873 937.863 225.8"/><polygon class="cls-97" points="942.559 228.728 914.068 292.583 909.372 289.656 937.863 225.8 942.559 228.728"/><polygon class="cls-98" points="947.255 231.656 918.764 295.511 914.068 292.583 942.559 228.728 947.255 231.656"/><polygon class="cls-99" points="951.951 234.583 923.46 298.438 918.764 295.511 947.255 231.656 951.951 234.583"/><polygon class="cls-100" points="956.647 237.511 928.156 301.366 923.46 298.438 951.951 234.583 956.647 237.511"/><polygon class="cls-101" points="961.343 240.438 932.852 304.293 928.156 301.366 956.647 237.511 961.343 240.438"/><polygon class="cls-102" points="966.039 243.366 937.548 307.221 932.852 304.293 961.343 240.438 966.039 243.366"/><polygon class="cls-103" points="970.735 246.293 942.244 310.148 937.548 307.221 966.039 243.366 970.735 246.293"/><polygon class="cls-104" points="975.431 249.221 946.94 313.076 942.244 310.148 970.735 246.293 975.431 249.221"/><polygon class="cls-105" points="980.127 252.148 951.636 316.004 946.94 313.076 975.431 249.221 980.127 252.148"/><polygon class="cls-106" points="984.823 255.076 956.332 318.931 951.636 316.004 980.127 252.148 984.823 255.076"/><polygon class="cls-107" points="989.519 258.003 961.028 321.859 956.332 318.931 984.823 255.076 989.519 258.003"/><polygon class="cls-108" points="994.215 260.931 965.724 324.786 961.028 321.859 989.519 258.003 994.215 260.931"/><polygon class="cls-109" points="998.911 263.859 970.42 327.714 965.724 324.786 994.215 260.931 998.911 263.859"/><polygon class="cls-110" points="1003.607 266.786 975.116 330.641 970.42 327.714 998.911 263.859 1003.607 266.786"/><polygon class="cls-111" points="1008.303 269.714 979.812 333.569 975.116 330.641 1003.607 266.786 1008.303 269.714"/><polygon class="cls-112" points="1012.999 272.641 984.509 336.496 979.812 333.569 1008.303 269.714 1012.999 272.641"/><polygon class="cls-113" points="1017.696 275.569 989.205 339.424 984.509 336.496 1012.999 272.641 1017.696 275.569"/><polygon class="cls-114" points="1022.392 278.496 993.901 342.351 989.205 339.424 1017.696 275.569 1022.392 278.496"/><polygon class="cls-115" points="1027.088 281.424 998.597 345.279 993.901 342.351 1022.392 278.496 1027.088 281.424"/><polygon class="cls-116" points="1031.784 284.351 1003.293 348.207 998.597 345.279 1027.088 281.424 1031.784 284.351"/><polygon class="cls-117" points="1036.48 287.279 1007.989 351.134 1003.293 348.207 1031.784 284.351 1036.48 287.279"/><polygon class="cls-118" points="1041.176 290.206 1012.685 354.062 1007.989 351.134 1036.48 287.279 1041.176 290.206"/><polygon class="cls-119" points="1045.872 293.134 1017.381 356.989 1012.685 354.062 1041.176 290.206 1045.872 293.134"/><polygon class="cls-120" points="1050.568 296.062 1022.077 359.917 1017.381 356.989 1045.872 293.134 1050.568 296.062"/><polygon class="cls-121" points="1055.264 298.989 1026.773 362.844 1022.077 359.917 1050.568 296.062 1055.264 298.989"/><polygon class="cls-122" points="1059.96 301.917 1031.469 365.772 1026.773 362.844 1055.264 298.989 1059.96 301.917"/><polygon class="cls-123" points="1064.656 304.844 1036.165 368.699 1031.469 365.772 1059.96 301.917 1064.656 304.844"/><polygon class="cls-124" points="1069.352 307.772 1040.861 371.627 1036.165 368.699 1064.656 304.844 1069.352 307.772"/><polygon class="cls-125" points="1074.048 310.699 1045.557 374.555 1040.861 371.627 1069.352 307.772 1074.048 310.699"/><polygon class="cls-126" points="1078.744 313.627 1050.253 377.482 1045.557 374.555 1074.048 310.699 1078.744 313.627"/><polygon class="cls-127" points="1083.44 316.554 1054.949 380.41 1050.253 377.482 1078.744 313.627 1083.44 316.554"/><polygon class="cls-128" points="1088.136 319.482 1059.645 383.337 1054.949 380.41 1083.44 316.554 1088.136 319.482"/><polygon class="cls-129" points="1092.832 322.41 1064.341 386.265 1059.645 383.337 1088.136 319.482 1092.832 322.41"/><polygon class="cls-130" points="1097.528 325.337 1069.037 389.192 1064.341 386.265 1092.832 322.41 1097.528 325.337"/><polygon class="cls-131" points="1102.224 328.265 1073.734 392.12 1069.037 389.192 1097.528 325.337 1102.224 328.265"/><polygon class="cls-132" points="1106.921 331.192 1078.43 395.047 1073.734 392.12 1102.224 328.265 1106.921 331.192"/><polygon class="cls-133" points="1111.617 334.12 1088.717 385.443 1081.454 396.933 1078.43 395.047 1106.921 331.192 1111.617 334.12"/><polygon class="cls-133" points="1088.717 385.443 1111.617 334.12 1118.462 338.387 1088.717 385.443"/></g><path d="M988.103,337.9027c-48.1371-30.0089-107.4-70.016-168.5882-113.8412C751.3554,175.2448,688.606,127.2929,642.8262,89.039,570.7872,28.847,575.083,22.23,577.6491,18.2781a6.7661,6.7661,0,0,1,2.144-2.132c6.4177-3.799,35.9249,10.3354,87.7029,42.0117,50.13,30.6763,114.391,73.8086,180.9065,121.45,68.1594,48.8167,130.9088,96.7687,176.6886,135.0225,72.039,60.1921,67.7433,66.8086,65.1764,70.76a6.7535,6.7535,0,0,1-2.1433,2.1325c-6.4177,3.799-35.9248-10.3355-87.7029-42.0118Q994.3994,341.8257,988.103,337.9027ZM580.8193,20.5214c6.0024,16.7356,96.9052,94.6777,241.9486,198.5624,144.98,103.8381,247.2629,164.27,264.33,164.0639-6.0025-16.7356-96.9053-94.6777-241.9487-198.5624C700.1692,80.7446,597.8868,20.3128,580.8193,20.5214Z"/><path d="M721.528,115.364c39.9391-32.7014,91.5667-19.8678,130.82-.2922,40.7025,20.2984,81.2871,50.2291,93.8842,97.2764,6.0777,22.699,5.0486,47.5145-5.6608,69.7722-1.1161,2.32,2.4417,3.5451,3.5548,1.2317,20.5522-42.7146,6.1972-90.9973-21.9051-122.6782-17.2748-19.4745-39.1345-34.0724-62.0339-46.06-21.8106-11.4172-45.2383-21.1472-70.4313-23.0611-24.521-1.8628-50.3317,4.297-70.54,20.8435a1.8817,1.8817,0,1,0,2.3127,2.9673Z"/><path d="M729.6015,121.2256c37.254-30.4575,85.338-18.6038,121.9788-.3724,38.1253,18.97,76.1127,46.9377,87.9618,90.9565,5.7123,21.2207,4.7288,44.4217-5.2712,65.2384-1.1147,2.32,2.443,3.5459,3.5548,1.2317,19.2982-40.1726,5.7043-85.4533-20.7734-115.1675-16.0741-18.039-36.391-31.5855-57.64-42.722-20.4526-10.7189-42.4279-19.8633-66.06-21.6566-22.9771-1.7436-47.1217,4.0389-66.0631,19.5246a1.8817,1.8817,0,1,0,2.3128,2.9673Z"/><path d="M718.2345,115.4554c.7,1.1127.7309,2.4967,1.5824,3.5888a13.1965,13.1965,0,0,0,2.9367,2.5962,5.9331,5.9331,0,0,0,3.1525,1.334c1.4059.031,2.2183-.902,3.46-1.4148a1.9066,1.9066,0,0,0-1.448-3.5276c-.693.2861-1.3575.9969-2.1164.8242a7.1035,7.1035,0,0,1-2.2461-1.6659c-1.2772-1.194-1.358-2.87-2.26-4.3038-1.2952-2.0595-4.3448.5283-3.0615,2.5689Z"/><path d="M933.6085,278.2946a11.9706,11.9706,0,0,0,8.8755,6.5614c2.3932.4326,2.86-3.4876.4816-3.9176a8.1259,8.1259,0,0,1-5.8044-4.3636c-1.1034-2.1666-4.6618-.458-3.5527,1.72Z"/><path d="M722.09,115.4383c4.6194,3.5735,13.0352-3.9107,17.28-7.1179a1.8881,1.8881,0,0,0-1.88-3.2475c-4.4043,2.1451-9.9708,3.8844-13.73,7.1527a2.152,2.152,0,0,0-.62,2.3435c1.5806,5.2487,7.4451-.2448,10.37-.943l-.9738-3.6877-5.751,3.4935,1.88,3.2475c3.9648-3.4058,9.6281-5.4286,14.3021-7.4619l-1.88-3.2474c-.6366.46-12.1875,9.3563-12.0224,9.499l-.0117,3.1159c7.1457-6.6858,16.4755-11.0872,24.9331-15.6412,1.87-1.0067,1.2429-4.3933-.9738-3.6877a217.99,217.99,0,0,0-20.5592,7.9981l1.448,3.5276,19.9042-9.4058a1.9067,1.9067,0,0,0-1.448-3.5276c-5.5489,1.932-10.4883,5.0107-15.455,8.2461-1.9,1.2376-.0769,4.2575,1.88,3.2474a189.4509,189.4509,0,0,1,18.0068-8.283c6.2254-2.4268,14.1682-5.9154,20.756-5.0141l-.009-3.8827a70.406,70.406,0,0,0-31.492,11.6354c-2.0452,1.3539-.01,3.9009,1.88,3.2474,3.6182-1.2506,7.2143-2.5661,10.7737-4.0136,3.606-1.4665,7.7055-4.1168,11.5972-4.03l-.0089-3.8827a57.8524,57.8524,0,0,0-12.9891,2.7127c-2.3748.7825-2.008,4.1217.4994,3.8478L777.98,99.4747c2.4726-.27,1.9475-4.1035-.5-3.8478a124.3946,124.3946,0,0,0-18.2777,3.3052l1.4061,3.4076c6.6953-4.8285,17.948-5,25.2807-3.5452l.4816-3.9176a41.5789,41.5789,0,0,0-12.7934,1.6325c-2.4409.7-1.96,4.0839.5,3.8478a111.5492,111.5492,0,0,0,11.77-1.7672c2.4495-.5016,1.9517-4.35-.5-3.8478a111.5505,111.5505,0,0,1-11.77,1.7672l.5,3.8478A38.4987,38.4987,0,0,1,785.89,98.7945a1.979,1.979,0,0,0,.4816-3.9176c-8.5228-1.691-20.4-1.04-28.075,4.4955-1.612,1.1625-.4307,3.8822,1.4061,3.4075A124.3922,124.3922,0,0,1,777.98,99.4747l-.5-3.8478L757.2981,97.831l.4994,3.8478a57.8537,57.8537,0,0,1,12.9891-2.7127c2.1819-.2006,2.14-3.8349-.0089-3.8827-3.4248-.0761-6.0765,1.2555-9.2755,2.6325-4.9494,2.13-9.9569,4.05-15.025,5.8015l1.88,3.2474A66.3064,66.3064,0,0,1,778.0363,96.01c2.294-.2524,2.0038-3.6073-.009-3.8827-6.0737-.831-12.5053,1.744-18.3375,3.7915a176.3931,176.3931,0,0,0-22.3548,9.8956l1.88,3.2475a67.3476,67.3476,0,0,1,14.59-7.6858l-1.448-3.5276-19.9042,9.4058c-2.3086,1.091-.8664,4.5318,1.448,3.5276a208.2039,208.2039,0,0,1,19.6107-7.6779l-.9737-3.6877c-8.7606,4.7172-18.38,9.2612-25.7978,16.2015a2.0179,2.0179,0,0,0-.0117,3.1158c1.19,1.0286,2.2516.9267,3.65.3146,1.74-.7617,3.636-2.9851,5.08-4.1641,2.566-2.0951,5.2638-4.013,7.9413-5.9466a1.8888,1.8888,0,0,0-1.88-3.2475c-5.1032,2.22-10.8385,4.3042-15.1668,8.0222-1.6546,1.4213-.1008,4.4509,1.88,3.2474l5.751-3.4935c1.8012-1.0941,1.3307-4.2378-.9737-3.6877-.8928.2132-6.6926,1.8254-6.3175,3.071l-.62,2.3436c3.3931-2.95,8.91-4.666,12.8651-6.5924l-1.88-3.2474a83.58,83.58,0,0,1-9.1135,6.0918c-1.362.7727-3.3627,1.36-4.4735,2.4125-1.1618,1.1011-1.5186,1.6941-1.2352,3.31.6819,3.8888,5.2522,4.2021,6.7607.6089a1.93,1.93,0,0,0-.2467-1.9,25.7227,25.7227,0,0,0-4.3233-3.7019c-1.906-1.4744-4.24,1.7919-2.3361,3.2643Z"/><path d="M786.6221,99.3578c6.9137-1.2884,15.1234,2.7551,22.0423,3.6454,1.9746.2541,2.7694-2.5118,1.4088-3.591A22.118,22.118,0,0,0,795.4265,94.49c-2.1376.0334-3.0118,3.0183-.9627,3.822,8.68,3.4046,18.0107,2.189,26.1218,7.4377l1.89-3.4955c-3.9222-1.7851-8.7979-4.74-13.3384-3.74-1.8619.41-2.2875,3.1831-.4721,3.7872,4.8061,1.5994,10.0085,1.0294,14.8288,2.4527,4.2687,1.26,6.9535,4.9925,11.4417,5.5563,1.8023.2265,3.0365-2.6832,1.4088-3.5909a47.1691,47.1691,0,0,0-14.9123-5.3077c-2.3941-.43-2.8615,3.4906-.4816,3.9176a41.1593,41.1593,0,0,1,13.0578,4.6544l1.4088-3.591c-4.2534-.5343-7.8892-4.8323-12.3045-5.7959-4.3157-.9418-8.783-.6175-13.0037-2.0221l-.4722,3.7872c3.4466-.7588,8.47,2.2875,11.3951,3.6188,1.9247.876,3.65-2.3568,1.89-3.4955-8.53-5.52-17.8682-4.3127-27.0141-7.9l-.9627,3.822a18.9448,18.9448,0,0,1,12.7923,4.2693l1.4088-3.591c-7.5261-.9684-15.2695-5.0206-23.0234-3.5756-2.4566.4578-1.955,4.3052.5,3.8478Z"/><path d="M834.8523,110.239c11.8152,5.5692,23.7944,10.976,35.2885,17.1572,2.0965,1.1274,4.4578-2.1234,2.336-3.2644-11.7908-6.3408-24.06-11.9063-36.1807-17.6194-2.1779-1.0266-3.6127,2.7042-1.4438,3.7266Z"/><path d="M870.2524,127.2388c5.8034,4.0651,11.8309,7.8247,17.4974,12.0832,5.6357,4.2353,10.5134,9.0332,16.7334,12.4681,2.0869,1.1524,4.4462-2.0991,2.3361-3.2644-6.2293-3.44-11.0909-8.2276-16.7335-12.4681-5.6666-4.2586-11.6937-8.0178-17.4973-12.0832-1.9709-1.38-4.3118,1.88-2.3361,3.2644Z"/><path d="M902.5654,151.9c8.3067,4.8577,13.4451,13.2905,19.736,20.3591a126.0316,126.0316,0,0,1,14.3967,18.9647c1.2551,2.0836,4.3031-.5077,3.0614-2.5689-4.5848-7.6112-10.0934-13.77-15.704-20.4974-5.8255-6.9853-11.2041-14.8728-19.1541-19.5219-2.0639-1.2069-4.4187,2.0464-2.336,3.2644Z"/><path d="M946.0316,210.7247c-1.5449-5.173-3.3333-10.2946-5.3736-15.2571a37.98,37.98,0,0,0-2.3261-4.6686c-1.0912-1.8764-4.34-5.3641-4.4156-7.5114l-2.1424,2.3431.1863.0246-1.6623-2.075-.0168.1467c-.29,2.52,3.5151,2.7627,3.8061.2324l.0169-.1467a1.8438,1.8438,0,0,0-1.6623-2.075l-.1863-.0246c-1.3136-.1735-2.1832,1.1794-2.1424,2.3432.1383,3.9463,4.87,8.3987,6.4175,11.7832a128.6825,128.6825,0,0,1,5.9483,16.6049c.7076,2.3695,4.2535.627,3.5527-1.72Z"/><path d="M942.8233,213.0169c1.3168,2.3237,3.2967,4.7384,3.2563,7.5949-.0333,2.3487-.1928,4.1786,1.043,6.181,1.2871,2.0856,4.2722-.511,3.0614-2.5689-1.5788-2.6833-3.0124-5.4518-4.3359-8.287-1.034-2.215-4.5892-.5005-3.5527,1.72,1.4636,3.1353,3.0818,6.17,4.8272,9.1361l3.0614-2.5689c-1.0426-1.6894-.0118-4.51-.5116-6.4731-.5956-2.3388-2.137-4.4078-3.2964-6.4537-1.1887-2.0975-4.7519-.3962-3.5527,1.72Z"/><path d="M945.0647,225.82a36.4715,36.4715,0,0,1,2.135,12.3269l3.8032-.7687c-.3649-2.9044-.5658-5.9121-1.9288-8.4786-.9371-1.7646-4.1206-1.0718-3.6779,1.2442a99.6634,99.6634,0,0,1,1.5174,11.6157c.1793,2.5059,3.9817,1.726,3.8032-.7687a99.6645,99.6645,0,0,0-1.5174-11.6156l-3.678,1.2442c1.2145,2.2867,1.3532,4.9393,1.6783,7.5275.3208,2.5538,3.8172,1.6748,3.8032-.7687a39.3924,39.3924,0,0,0-2.3854-13.278c-.841-2.32-4.39-.5884-3.5528,1.72Z"/><path d="M949.3988,252.6777c-.4136-4.6536-1.3221-9.5015-.25-14.2074l-3.6794.7437c1.765,3.6569.8953,8.5992.6836,12.69-.107,2.0657,3.0181,3.0436,3.68.732a21.3855,21.3855,0,0,0,.8565-4.8192l-3.8047.2681a18.4,18.4,0,0,1-2.701,11.3026l3.4229.7043a10.5952,10.5952,0,0,1,.2042-5.9012c.7715-2.4293-2.7755-3.6855-3.5548-1.2317a14.5062,14.5062,0,0,0-.4526,7.9016c.3291,1.4622,2.4373,2.33,3.4228.7043a23.0575,23.0575,0,0,0,3.4617-14.2486c-.1775-2.1743-3.6817-1.9778-3.8047.2681a16.3463,16.3463,0,0,1-.6051,3.82l3.68.7321c.2464-4.76,1.1347-10.35-.937-14.6419-.8678-1.798-3.2424-1.1738-3.6794.7437-1.1481,5.0384-.1894,10.2338.2527,15.2085.2222,2.5,4.0247,1.7235,3.8032-.7687Z"/><path d="M948.938,264.659a12.16,12.16,0,0,0-.3272-5.3722,1.8431,1.8431,0,0,0-2.9327-.6237c-2.5375,2.4084-3.0163,7.58-3.9412,10.7951l3.679.2315c-.0084-2.35,1.1405-4.5246,2.2667-6.573,1.2029-2.1882-1.5078-4.3547-3.0425-2.1773-1.9753,2.8025-2.9039,6.331-4.1066,9.4958l3.68.7321c.5543-4.0917,3.1412-7.5826,2.2674-11.7627-.4173-1.9962-3.7048-2.1087-3.8047.2681-.2436,5.8-.2306,10.9435-4.3269,15.7315-1.6777,1.9609,1.3754,4.1257,3.0424,2.1772,4.547-5.3148,4.8171-11.1658,5.0907-17.6762l-3.8047.2681c.7476,3.5764-1.7842,7.1733-2.27,10.7616-.3,2.2123,2.8721,2.8591,3.6805.732,1.0449-2.75,1.879-6.1167,3.5943-8.55l-3.0425-2.1773c-1.7236,3.1352-3.04,5.9719-3.0274,9.519.0069,1.9369,3.1461,2.0839,3.679.2315l1.4258-4.9564c.276-.9595.5347-3.4021,1.2733-4.1031l-2.9327-.6238a7.8232,7.8232,0,0,1,.0738,3.42c-.4113,2.5133,3.3948,2.7458,3.8061.2324Z"/><path d="M938.921,274.3687a18.8818,18.8818,0,0,0,2.2489,3.7449c.9656,1.2456,2.6184.6228,3.3081-.6686a13.8443,13.8443,0,0,0,1.606-5.7616,1.9066,1.9066,0,0,0-3.8061-.2324,11.08,11.08,0,0,1-1.3547,4.7623l3.3081-.6687a14.4458,14.4458,0,0,1-1.7576-2.8956c-1.0151-2.2272-4.5694-.511-3.5527,1.72Z"/><path d="M942.9269,277.0992a13.92,13.92,0,0,1-3.5819-1.4717,1.9912,1.9912,0,0,0-2.6892.5435,1.9581,1.9581,0,0,0,.3532,2.7209,17.4919,17.4919,0,0,0,4.4741,1.9338,2.08,2.08,0,0,0,2.4993-1.2474,1.8755,1.8755,0,0,0-1.0555-2.4791Z"/><path d="M719.2652,113.6013c-1.6581,1.899-.65,3.7676.8133,5.1337l-.7335-1.2478.1078.4429,2.6235-2.2476a1.7163,1.7163,0,0,1-.9923-.78l-3.8046.2681a11.189,11.189,0,0,0,4.8965,7.35c3.1413,2.118,5.54-.2482,8.25-2.3208a1.8815,1.8815,0,1,0-2.3127-2.9673c-.6459.4938-1.9538,1.9141-2.7126,2.074-.8564.18-1.1623-.2177-1.753-.743a7.1,7.1,0,0,1-2.5655-4.1611,1.9267,1.9267,0,0,0-3.8046.2681c-.1567,2.513,1.3476,3.7446,3.3546,4.7393,1.2112.6,2.9481-.9136,2.6235-2.2477-.1394-.5728-.4462-1.9578-.9483-1.3828,1.6961-1.9424-1.3587-4.1055-3.0425-2.1773Z"/><path d="M470.8171,595.2734c-2.3341-16.6527-3.0977-28.11-3.9063-40.24-.7512-11.2731-1.5277-22.9295-3.6722-39.1221a393.3916,393.3916,0,0,0-8.9991-46.82c-1.9556-8.104-3.9772-16.4845-6.28-27.8235a667.7256,667.7256,0,0,1-12.8-114.4613l-.0842-3.0982-17.3708,6.9531L160.8581,403.4773l1.1006,4.2413.1414-.04c5.2361,21.6645,10.36,43.5284,15.2367,65.0667,11.1867,49.4113,18.9779,87.708,25.2382,118.48,4.4757,22,8.8982,44.269,13.15,66.2234a179.4118,179.4118,0,0,0-16.6659,8.1891q-.4878.2706-.9724.5459l-.72.4077-.2659.8092a16.4716,16.4716,0,0,0-.6736,2.8924c-.5542,4.0083.57,6.9653,1.8725,10.3894a55.9506,55.9506,0,0,1,2.663,8.5362c.1357.6234.3228,1.6294.5558,2.9892.3317,1.9389.5946,3.8447,1.0715,7.3045.4428,3.2108,1.0677,7.7437,2.1,14.8582,1.4246,9.8184,2.0648,13.7964,2.4469,16.1727.3542,2.1993.5006,3.11.8685,6.163.1872,1.5532.342,2.9153.4818,4.1487a84.1107,84.1107,0,0,0,1.8786,11.6958,77.3035,77.3035,0,0,0,5.6112,15.5224l.9981,2.0463,50.2261-29.7514c1.2341,11.3813,2.4526,22.7258,3.6374,33.877l.3545,3.3355,2.7836-1.6726a842.3172,842.3172,0,0,1,90.3849-47.2755c5.3006-2.3638,10.4793-4.6019,15.4864-6.7652,17.1795-7.4245,33.4064-14.4365,55.2363-26.5568A527.7128,527.7128,0,0,0,484.07,664.4857l1.2737-.904-.44-1.5426A494.416,494.416,0,0,1,470.8171,595.2734Z"/><path class="cls-134" d="M218.7562,764.0136a72.764,72.764,0,0,1-4.3165-12.55,79.58,79.58,0,0,1-1.7767-11.1268c-.1412-1.2427-.2971-2.6151-.4857-4.18-.3786-3.1422-.5293-4.0794-.8935-6.3431-.3805-2.3627-1.017-6.3186-2.4364-16.1014-1.03-7.1-1.6537-11.6228-2.0955-14.8268-.4835-3.5074-.75-5.4395-1.0938-7.452-.2481-1.4478-.443-2.4924-.596-3.1929a60.6456,60.6456,0,0,0-2.8548-9.1818c-1.2116-3.186-2.0122-5.29-1.6185-8.1374a11.8039,11.8039,0,0,1,.2565-1.2985c.0633-.0354.127-.071.1908-.1056a174.9571,174.9571,0,0,1,17.8738-8.6741l1.63-.6795-.3481-1.7973c-4.3607-22.5466-8.9038-45.4438-13.5043-68.0554-6.2643-30.7937-14.0616-69.1177-25.2592-118.5775-4.8868-21.5847-10.0219-43.4957-15.27-65.2058l212.5538-60.2585-189.449,75.8319.4055,1.8587c23.4078,107.3274,35.7963,172.54,36.8225,193.8265.3262,6.7737,1.319,13.5368,2.2789,20.0775.7219,4.9211,1.4687,10.0093,1.9146,15.0134q.1648,1.8587.3176,3.6576c1.2022,14.004,2.0712,24.1218,8.3545,25.8489,1.8524.5093,3.071.04,12.0309-3.78,3.1272-1.3339,6-2.5719,8.5782-3.6917,1.8664,16.5752,3.7206,33.27,5.5157,49.6678q.6042,5.5192,1.2041,11.042Z"/><path class="cls-134" d="M480.1781,660.0116a523.7033,523.7033,0,0,1-47.3238,29.6807c-21.6518,12.0211-37.7872,18.994-54.87,26.3759-5.0187,2.1687-10.2077,4.411-15.5309,6.7845a844.5366,844.5366,0,0,0-88.0471,45.842c-1.6234-15.2516-3.3056-30.8273-5.0044-46.3517-1.9-17.3559-3.8658-35.0442-5.8439-52.5741l-.3263-2.8935L260.6593,668c-3.1813,1.3895-6.918,3.0073-11.1169,4.7973-5.4791,2.3371-8.8473,3.744-9.3733,3.599-3.4293-.9424-4.3474-11.643-5.2355-21.99q-.1556-1.8041-.32-3.6729c-.4576-5.1333-1.2134-10.2878-1.9447-15.2716-.9445-6.4321-1.92-13.0824-2.2361-19.6328-1.0321-21.4151-13.3182-86.2572-36.5167-192.7229L418.7556,333.107l12.0836-3.4256a670.4929,670.4929,0,0,0,12.75,110.7624c2.3189,11.42,4.4419,20.2212,6.3155,27.9858a389.46,389.46,0,0,1,8.9107,46.3474c2.125,16.0446,2.8971,27.6257,3.6431,38.825.7789,11.6777,1.5836,23.7534,3.94,40.5705A499.32,499.32,0,0,0,480.1781,660.0116Z"/><path class="cls-135" d="M460.3879,501.2185c2.9052-16.335,9.6431-26.0466,13.9924-31.1057a69.006,69.006,0,0,1,19.606-15.4015c7.7972-3.81,15.72-5.5175,25.488-12.9647a35.5856,35.5856,0,0,0,5.57-5.0847,37.625,37.625,0,0,0,8.2561-17.2969"/><path class="cls-136" d="M527.9052,414.2544a43.1576,43.1576,0,0,1-6.6637-8.0658c-3.0708-4.8749-6.483-10.2917-4.56-12.7341,1.3452-1.7087,8.4789-2.745,6.3259-2.1547h0a46.0958,46.0958,0,0,1,3.5775,5.7731c1.9155,3.93,1.8444,7.2046,2.1189,7.182.388-.0319-.6384-6.4783,1.5507-13.8023a9.71,9.71,0,0,1,3.4546-5.5339c1.7208-1.2352,4.4706-2.1432,5.5428-1.1787.8.7194.1232,1.9918-.6141,6.0863-.4729,2.6262-.109,1.6276-.9366,7.716-.6419,4.7227-1.1027,7.1033-.8291,7.1728.6039.1535,1.7746-11.7143,9.5809-15.6256.7187-.36,3.6208-1.8141,5.4353-.6354,1.7141,1.1135,1.6618,4.0593,1.1977,5.8745-.6108,2.3888-2.0011,3.0794-4.8058,6.3994-2.88,3.4086-5.2459,6.21-4.4527,7.5964,1.222,2.1362,8.58-1.466,11.4695,1.6664,1.5711,1.703,1.4329,4.9752-.046,6.1968-.9925.82-2.0816.2973-5.896-.0183-3.6691-.3036-6.7745-.5606-10.0876.2948-3.2617.8422-3.6093,1.958-5.65,1.7219C532.14,418.0152,530.8293,417.2586,527.9052,414.2544Z"/><path class="cls-135" d="M225.8861,599.6908c-6.1164-18.8385-15.1329-29.3394-20.7312-34.6927a78.6512,78.6512,0,0,0-23.8774-15.4087c-9.0711-3.4-17.8911-4.3068-29.746-11.7173a41.78,41.78,0,0,1-6.9139-5.2131,48.2849,48.2849,0,0,1-12.0384-19.2251"/><path class="cls-136" d="M137.2133,509.6475a48.9088,48.9088,0,0,0,5.6752-10.4318c2.4029-6.1715,5.0728-13.0289,2.56-15.6379-1.7579-1.8253-9.6077-2.0509-7.1876-1.6559h0a54.2237,54.2237,0,0,0-2.7821,7.3c-1.3358,4.8969-.6586,8.7448-.9575,8.7565-.4225.0165-.5031-7.721-4.1974-16.0438-1.0441-2.3523-2.3233-4.6308-4.7246-6.0374-2.0744-1.215-5.1935-1.9011-6.1678-.6152-.7267.959.2332,2.3637,1.7761,7.0844.99,3.0279.4157,1.9022,2.4213,8.9594,1.5557,5.474,2.4873,8.2143,2.2062,8.3344-.62.265-4.0547-13.5528-13.1542-17.0714-.8377-.324-4.2206-1.6321-5.9527.01-1.6361,1.5509-1.04,5.0139-.2081,7.0876,1.0941,2.729,2.7136,3.3486,6.3342,6.8685,3.7173,3.6139,6.772,6.5836,6.1747,8.3279-.92,2.6871-9.4812-.53-12.0094,3.5633-1.3746,2.2255-.6258,6.0611,1.1863,7.2938,1.216.8272,2.29.06,6.3274-.8441,3.8839-.87,7.1711-1.6056,10.8855-1.06,3.6567.5371,4.2346,1.8032,6.3828,1.24C133.3557,514.6688,134.6247,513.5945,137.2133,509.6475Z"/><path class="cls-135" d="M356.9083,726.8929c-3.4015,32.8866-7.26,59.4322-10.3522,78.5141-2.3581,14.5525-4.9664,29.0608-11.4536,30.1465-6.0844,1.0183-12.0719-10.3586-15.9072-15.6386-10.6692-14.6877-37.4629-27.3205-108.741-17.389"/><path class="cls-137" d="M201.0031,840.9592c-1.7109-.1417-2.5548-2.9305-3.292-5.3665-2.1335-7.0506-.1487-11.5117.4965-17.1849,1.4258-12.5368-5.1976-17.7367-1.1549-20.1694,3.7442-2.2529,13.0852.0051,16.8659,4.5264,1.7223,2.06,2.3413,4.65-1.3221,15.6927C209.8634,826.696,205.0212,841.2919,201.0031,840.9592Z"/><path class="cls-138" d="M308.5873,551.3412c-11.4707,0-21.44-13.52-22.6992-30.7793-1.3056-17.9053,7.2774-33.2393,19.1319-34.1827.38-.0312.7607-.0459,1.1386-.0459,11.47,0,21.4405,13.52,22.6983,30.7793,1.3056,17.9053-7.2774,33.2393-19.1319,34.1827C309.3452,551.3265,308.9643,551.3412,308.5873,551.3412Z"/><path d="M306.1581,484.3333v4c10.254,0,19.5416,12.9756,20.7046,28.9251,1.2041,16.5271-6.7163,31.2014-17.2959,32.0439-.3252.0259-.6543.0389-.9795.0389-10.2534,0-19.5415-12.9756-20.7045-28.9249-1.2046-16.5271,6.7158-31.2014,17.2959-32.0441.3247-.0259.6543-.0389.9794-.0389v-4m0,0q-.6459,0-1.2968.0516c-12.9673,1.0327-22.355,17.2946-20.9678,36.3222,1.3408,18.3911,12.2563,32.6341,24.6938,32.6341q.646,0,1.2969-.0516c12.9673-1.0324,22.3545-17.2944,20.9678-36.322-1.3408-18.3911-12.2564-32.6348-24.6939-32.6343Z"/><ellipse class="cls-139" cx="316.6633" cy="513.11" rx="11.0519" ry="14.9613" transform="translate(-32.9763 21.8772) rotate(-3.7611)"/><path d="M350.1563,537.3419c1.14,5.3009,5.4914,9.2005,7.879,13.9724a31.5907,31.5907,0,0,1,3.3075,9.3995c.6543,4.9229-2.3238,7.0017-4.1646,11.0128-.8,1.7425,1.7853,3.2686,2.5905,1.5142,1.2446-2.7124,3.6055-4.8888,4.4334-7.7938.8265-2.9.0361-6.0006-.8167-8.7856a44.0209,44.0209,0,0,0-4.4472-9.9177c-2.0584-3.3873-5.0331-6.22-5.889-10.1994-.4058-1.8865-3.2985-1.0881-2.8929.7976Z"/><path d="M352.7422,432.937a44.55,44.55,0,0,1,29.5831,2.4341c1.75.7718,3.2788-1.8123,1.5142-2.59a47.9855,47.9855,0,0,0-31.8949-2.7365,1.5013,1.5013,0,0,0,.7976,2.8928Z"/><path d="M280.9025,457.6531a50.9223,50.9223,0,0,0-19.942,25.92c-.64,1.8256,2.2573,2.6106,2.8928.7975a47.5413,47.5413,0,0,1,18.5634-24.1269c1.5991-1.0654.0987-3.6649-1.5142-2.59Z"/><path class="cls-138" d="M374.7856,527.3128c-11.0947-.0009-21.375-12.9746-23.4033-29.5341-2.1836-17.8155,5.64-33.5938,17.4375-35.1729a14.3975,14.3975,0,0,1,1.9-.127c11.0947,0,21.375,12.9727,23.4043,29.5342,2.1826,17.8155-5.6407,33.5938-17.4385,35.1729a14.38,14.38,0,0,1-1.8985.1269Z"/><path d="M370.7206,464.4788c10.1026,0,19.5108,12.2015,21.419,27.7774,2.0151,16.45-5.1831,31.5376-15.7183,32.9475a12.3905,12.3905,0,0,1-1.6352.1091c-10.1026,0-19.5113-12.2014-21.4195-27.7776-2.0151-16.4492,5.1832-31.5373,15.7188-32.9472a12.3907,12.3907,0,0,1,1.6352-.1092m0-4a16.3253,16.3253,0,0,0-2.166.1446c-12.8994,1.7263-21.477,18.47-19.1582,37.3982,2.1885,17.8642,13.3028,31.2912,25.39,31.2912a16.3251,16.3251,0,0,0,2.166-.1445c12.8994-1.7263,21.4766-18.47,19.1577-37.3984-2.1885-17.8643-13.3027-31.2911-25.3892-31.2911Z"/><path d="M292.1579,658.4264l-13.2061-35.5455,2.1445-.87,11.5581,16.0041c2.677,3.7082,4.9486,7.0951,7.0234,10.4407l.0253-.07c-1.9439-4.6737-3.5959-8.9793-5.6534-14.5173l-5.5253-14.8719,1.8519-.7516L303.5824,653.79l-1.9868.8064-11.5331-16.0753c-2.5306-3.5252-5.0552-7.1731-7.2533-10.7119l-.0484.0807c1.7782,4.4365,3.4107,8.69,5.6053,14.5969l5.643,15.1887Z"/><path d="M306.7965,652.7275l-.3239-5.2091c-2.44-2.6513-4.9289-7.042-6.8884-12.3164-4.1733-11.2329-3.8493-19.8008.125-21.4138,1.3995-.5681,3.0617-.15,4.8311,1.2562l-.2549-4.8123,1.9024,1.4124.2848,5.1037c2.46,2.7036,4.8844,7.061,6.8239,12.2815,4.6047,12.3939,3.6623,19.9989.0274,21.4742-1.445.5864-3.15.1245-4.92-1.2814l.263,5.1134Zm-1.9729-33.9138c-1.3357-1.2177-2.6365-1.7825-3.7655-1.3243-3.3189,1.3471-2.3249,9.1978.4376,16.6333a39.3424,39.3424,0,0,0,4.675,9.0881l.003-.0623Zm3.2979,26.6393c1.3525,1.333,2.566,1.8721,3.7853,1.3773,3.1832-1.292,2.4172-8.8106-.561-16.8266a38.4329,38.4329,0,0,0-4.49-8.7985l-.0675.0274Z"/><path d="M333.5608,639.8014a8.5729,8.5729,0,0,1-3.9488,3.8483c-2.3027.9346-4.7087.3335-7.433-2.3848-2.4072-2.4214-4.9829-6.8378-7.04-12.3759-3.9162-10.609-3.6806-19.626,1.4227-21.6972a5.4909,5.4909,0,0,1,4.4.0953l.9175,3.9365a4.6776,4.6776,0,0,0-3.9325-.1638c-3.703,1.503-4.12,7.8631-.8088,16.7756,3.35,9.0178,7.6548,13.4006,11.2,11.9619a3.7766,3.7766,0,0,0,2.267-2.0119l-3.9385-10.6009-3.0938,1.2556L322.2,624.7489l5.0125-2.0344Z"/><path d="M338.8383,620.3018l-5.9157,2.4009,4.7615,12.816,6.5931-2.6759,1.43,3.85-8.5571,3.4731L323.9442,604.62l8.2184-3.3356,1.43,3.85-6.2543,2.5385,4.1736,11.2337,5.9156-2.401Z"/><path d="M348.2567,635.6577l-13.2061-35.5454,2.1445-.87,11.5581,16.0041c2.677,3.7081,4.9486,7.0951,7.0234,10.4406l.0253-.07c-1.944-4.6737-3.5959-8.9792-5.6534-14.5173l-5.5253-14.8718,1.8519-.7516,13.2061,35.5454-1.9868.8064L346.1613,615.752c-2.5306-3.5251-5.0552-7.173-7.2533-10.7119l-.0484.0807c1.7782,4.4366,3.4107,8.69,5.6053,14.597l5.643,15.1886Z"/><path d="M350.0811,594.5578a9.6282,9.6282,0,0,1,3.3153-2.195,4.4769,4.4769,0,0,1,5.1374.8887,13.3581,13.3581,0,0,1,3.5957,5.7631c1.2734,3.4275,1.42,6.8277.3256,8.8493l.0394.1061c1.7584.257,4.49,2.3652,6.45,7.6387a18.8565,18.8565,0,0,1,1.3584,7.6418,5.9554,5.9554,0,0,1-4.0264,5.4582,10.9317,10.9317,0,0,1-3.2045.8149Zm7.372,13.7587,1.7837-.724c2.077-.8429,2.3559-3.8688,1.0821-7.2971-1.5479-4.1664-3.51-5.2511-5.4968-4.4447a4.2414,4.2414,0,0,0-1.6209,1.0215Zm6.3288,17.0346a4.9824,4.9824,0,0,0,1.7264-.4582c2.0322-.8248,3.26-3.3253,1.3393-8.4943-1.8025-4.8514-4.3309-6.1318-6.476-5.2612l-1.6254.66Z"/><path d="M364.1044,588.32l13.2061,35.5455-1.9641.7971L362.14,589.1174Z"/><path d="M367.5356,586.9277l1.9641-.7972,11.7758,31.6959,6.5022-2.6391,1.43,3.85-8.4663,3.4362Z"/><path d="M378.19,582.6032l1.9641-.7971L391.93,613.5019l6.5022-2.639,1.43,3.85-8.4663,3.4362Z"/><path d="M403.7394,593.9605l-5.9157,2.401,4.7615,12.816,6.5931-2.6759,1.43,3.85-8.5571,3.4731-13.2061-35.5455,8.2184-3.3356,1.43,3.85-6.2544,2.5385,4.1736,11.2336,5.9157-2.4009Z"/><path d="M400.128,574.2454a13.9434,13.9434,0,0,1,3.9024-2.4333c2.8226-1.1455,5.4-.4319,7.81,1.9283,2.4316,2.3505,4.75,6.1439,6.886,11.8918,2.1555,5.8017,3.1512,10.8594,2.9437,14.7066-.188,3.8994-1.87,6.6462-4.8279,7.8469a14.9764,14.9764,0,0,1-3.7236,1.0255ZM413.77,604.88a5.9064,5.9064,0,0,0,2.0848-.5427c4.1994-1.7044,4.4424-8.115.8763-17.7134-3.0925-8.3943-7.1037-12.896-11.2584-11.21a5.672,5.672,0,0,0-2.1265,1.409Z"/><path d="M429.8805,583.3507l-5.9157,2.401,4.7615,12.816,6.5931-2.6759,1.43,3.85-8.5571,3.4731L414.9864,567.669l8.2184-3.3356,1.43,3.85-6.2543,2.5384,4.1736,11.2337,5.9157-2.4009Z"/><path d="M426.2691,563.6356a10.2826,10.2826,0,0,1,3.4963-2.2684,4.6331,4.6331,0,0,1,5.48,1.114,16.9782,16.9782,0,0,1,3.7045,6.2649c1.7436,4.6931,1.6356,8.3176.5028,10.2347l.0585.1576c1.5272.4728,3.1673,2.7208,4.9,6.2653,2.3382,4.7561,3.9733,8.0377,4.7986,9.28l-2.0316.8246c-.6207-.901-2.096-3.8228-4.1708-8.0788-2.2737-4.7212-3.7726-6.2372-5.6149-5.6709l-1.8511.7514L441.263,597.91l-1.9641.7971Zm7.9792,15.3933,2.01-.8156c2.1-.8522,2.4327-4.0823.9239-8.1434-1.7045-4.5877-3.8715-6.0148-5.9686-5.2238a4.1763,4.1763,0,0,0-1.7848,1.2092Z"/><path class="cls-135" d="M413.9118,702.6927c-7.491,63.7455-5.2107,87.208-.7453,95.31a32.7669,32.7669,0,0,1,4.45,14.761,33.8409,33.8409,0,0,1-4.06,17.0608c-4.2381,8.4457-7.3079,32.004-3.6155,95.33"/><path class="cls-137" d="M423.4212,959.8972c-1.4675.8909-3.7892-.87-5.8173-2.4073-5.87-4.4506-6.8857-9.2265-9.6978-14.1957-6.2142-10.9813-14.629-11.296-12.7878-15.64,1.7053-4.0233,10.59-7.686,16.306-6.25,2.6041.6544,4.6271,2.3862,8.1529,13.4737C422.2076,943.15,426.8678,957.8049,423.4212,959.8972Z"/><ellipse class="cls-139" cx="381.6633" cy="487.11" rx="11.0519" ry="14.9613" transform="translate(-31.1308 26.085) rotate(-3.7611)"/></svg>
