<svg id="Layer_1" data-name="Layer 1" xmlns="http://www.w3.org/2000/svg" xmlns:xlink="http://www.w3.org/1999/xlink" viewBox="0 0 1100 1020"><defs><style>.cls-1,.cls-134{fill:none;}.cls-2,.cls-53{fill:gray;}.cls-2{opacity:0.7;}.cls-134,.cls-135,.cls-136,.cls-138,.cls-3,.cls-4,.cls-5{stroke:#000;stroke-miterlimit:10;}.cls-3,.cls-4,.cls-5{stroke-width:7px;}.cls-3{fill:url(#linear-gradient);}.cls-4{fill:url(#White_Black);}.cls-6{clip-path:url(#clip-path);}.cls-7{fill:#afafaf;}.cls-8{fill:#aeaeae;}.cls-9{fill:#adadad;}.cls-10{fill:#acacac;}.cls-11{fill:#ababab;}.cls-12{fill:#aaa;}.cls-13{fill:#a9a9a9;}.cls-14{fill:#a8a8a8;}.cls-15{fill:#a7a7a7;}.cls-16{fill:#a6a6a6;}.cls-17{fill:#a5a5a5;}.cls-18{fill:#a4a4a4;}.cls-19{fill:#a3a3a3;}.cls-20{fill:#a2a2a2;}.cls-21{fill:#a1a1a1;}.cls-22{fill:#a0a0a0;}.cls-23{fill:#9f9f9f;}.cls-24{fill:#9e9e9e;}.cls-25{fill:#9d9d9d;}.cls-26{fill:#9c9c9c;}.cls-27{fill:#9b9b9b;}.cls-28{fill:#9a9a9a;}.cls-29{fill:#999;}.cls-30{fill:#989898;}.cls-31{fill:#979797;}.cls-32{fill:#969696;}.cls-33{fill:#959595;}.cls-34{fill:#949494;}.cls-35{fill:#939393;}.cls-36{fill:#929292;}.cls-37{fill:#919191;}.cls-38{fill:#909090;}.cls-39{fill:#8f8f8f;}.cls-40{fill:#8e8e8e;}.cls-41{fill:#8d8d8d;}.cls-42{fill:#8c8c8c;}.cls-43{fill:#8a8a8a;}.cls-44{fill:#898989;}.cls-45{fill:#888;}.cls-46{fill:#878787;}.cls-47{fill:#868686;}.cls-48{fill:#858585;}.cls-49{fill:#848484;}.cls-50{fill:#838383;}.cls-51{fill:#828282;}.cls-52{fill:#818181;}.cls-54{fill:#7f7f7f;}.cls-55{fill:#7e7e7e;}.cls-56{fill:#7d7d7d;}.cls-57{fill:#7c7c7c;}.cls-58{fill:#7b7b7b;}.cls-59{fill:#7a7a7a;}.cls-60{fill:#797979;}.cls-61{fill:#787878;}.cls-62{fill:#777;}.cls-63{fill:#767676;}.cls-64{fill:#757575;}.cls-65{fill:#747474;}.cls-66{fill:#737373;}.cls-67{fill:#727272;}.cls-68{fill:#717171;}.cls-69{fill:#707070;}.cls-70{fill:#6f6f6f;}.cls-71{fill:#6e6e6e;}.cls-72{fill:#6d6d6d;}.cls-73{fill:#6c6c6c;}.cls-74{fill:#6b6b6b;}.cls-75{fill:#6a6a6a;}.cls-76{fill:#696969;}.cls-77{fill:#686868;}.cls-78{clip-path:url(#clip-path-2);}.cls-79{clip-path:url(#clip-path-3);}.cls-80{clip-path:url(#clip-path-4);}.cls-81{fill:#676767;}.cls-82{fill:#666;}.cls-83{fill:#656565;}.cls-84{fill:#646464;}.cls-85{fill:#636363;}.cls-86{fill:#626262;}.cls-87{fill:#616161;}.cls-88{fill:#606060;}.cls-89{fill:#5f5f5f;}.cls-90{fill:#5e5e5e;}.cls-91{fill:#5d5d5d;}.cls-92{fill:#5c5c5c;}.cls-93{fill:#5b5b5b;}.cls-94{fill:#5a5a5a;}.cls-95{fill:#585858;}.cls-96{fill:#575757;}.cls-97{fill:#565656;}.cls-98{fill:#555;}.cls-99{fill:#545454;}.cls-100{fill:#535353;}.cls-101{fill:#525252;}.cls-102{fill:#515151;}.cls-103{fill:#505050;}.cls-104{fill:#4f4f4f;}.cls-105{fill:#4e4e4e;}.cls-106{fill:#4d4d4d;}.cls-107{fill:#4c4c4c;}.cls-108{fill:#4b4b4b;}.cls-109{fill:#4a4a4a;}.cls-110{fill:#494949;}.cls-111{fill:#484848;}.cls-112{fill:#474747;}.cls-113{fill:#464646;}.cls-114{fill:#454545;}.cls-115{fill:#444;}.cls-116{fill:#434343;}.cls-117{fill:#424242;}.cls-118{fill:#414141;}.cls-119{fill:#404040;}.cls-120{fill:#3f3f3f;}.cls-121{fill:#3e3e3e;}.cls-122{fill:#3d3d3d;}.cls-123{fill:#3c3c3c;}.cls-124{fill:#3b3b3b;}.cls-125{fill:#3a3a3a;}.cls-126{fill:#393939;}.cls-127{fill:#383838;}.cls-128{fill:#373737;}.cls-129{fill:#363636;}.cls-130{fill:#353535;}.cls-131{fill:#343434;}.cls-132{fill:#333;}.cls-133{fill:#fff08a;}.cls-134,.cls-135,.cls-136{stroke-width:5px;}.cls-135,.cls-137{fill:#fff;}</style><linearGradient id="linear-gradient" x1="467.522" y1="696.7684" x2="1081.5092" y2="696.7684" gradientUnits="userSpaceOnUse"><stop offset="0" stop-color="#b3b3b3"/><stop offset="1" stop-color="#666"/></linearGradient><linearGradient id="White_Black" x1="465.6939" y1="415.6967" x2="1080.8507" y2="415.6967" gradientUnits="userSpaceOnUse"><stop offset="0" stop-color="#fff"/><stop offset="1"/></linearGradient><clipPath id="clip-path"><ellipse class="cls-1" cx="775.5781" cy="390.9397" rx="29.9751" ry="313.5971" transform="translate(341.591 1143.2763) rotate(-86.7724)"/></clipPath><clipPath id="clip-path-2"><path class="cls-1" d="M1087.71,427.1026a23.662,23.662,0,0,1-3.5846,1.7729c-4.2709,1.7885-10.5728,3.4089-18.73,4.8153-15.7923,2.7227-38.4026,4.6947-67.2021,5.861-59.0724,2.3926-137.71,1.1452-221.427-3.5128s-162.52-12.1682-221.8928-21.15c-28.9463-4.3783-51.7269-8.8764-67.709-13.3673-8.2558-2.32-14.6614-4.6458-19.0389-6.9166-4.0737-2.1118-11.6562-6.0428-12.0616-21.44-.4045-15.3993,6.996-18.4958,10.9653-20.16,4.2718-1.789,10.5728-3.4089,18.73-4.8152,15.7932-2.7234,38.4036-4.6953,67.203-5.8616,59.0715-2.3921,137.71-1.1452,221.427,3.5128s162.52,12.1692,221.8919,21.15c28.9463,4.3784,51.7269,8.8764,67.709,13.3674,8.2558,2.32,14.6614,4.6457,19.0389,6.9166,4.0737,2.1117,11.6562,6.0427,12.0616,21.44C1095.3918,420.1214,1091.4093,424.7789,1087.71,427.1026ZM504.6191,375.8651c47.7459,10.5221,138.7617,22.7316,271.3553,30.1077,132.5806,7.3758,223.2271,5.2733,270.561.0426-47.7459-10.5222-138.7608-22.7322-271.3535-30.1089S551.95,370.6327,504.6191,375.8651Z"/></clipPath><clipPath id="clip-path-3"><ellipse class="cls-1" cx="775.5749" cy="389.406" rx="21.3925" ry="305.2258" transform="translate(343.2664 1141.9104) rotate(-86.7836)"/></clipPath><clipPath id="clip-path-4"><ellipse class="cls-1" cx="774.4175" cy="371.0793" rx="23.5104" ry="313.8161" transform="translate(360.4474 1123.443) rotate(-86.7817)"/></clipPath></defs><title>skrald2</title><ellipse class="cls-2" cx="570" cy="972.7066" rx="529.6622" ry="47"/><path class="cls-3" d="M1067.7809,403.802s9.8148,5.48,13.07,11.8827c.3086.607,1.3132,39.1975,0,70.3813-1.3355,31.713-10.0747,123.5528-11.8827,136.1943-17.9905,125.7852-42.1376,207.2015-65.7408,328.7609a20.5292,20.5292,0,0,1-15.8105,16.1645,1007.305,1007.305,0,0,1-204.6743,22.5235A1011.8488,1011.8488,0,0,1,564.351,967.3343h0a20.53,20.53,0,0,1-16.0155-17.1l-.3769-2.572c-3.9983-27.27-7.0747-47.7789-7.3124-49.3588-5.4957-36.5246-26.1028-139.6667-29.25-155.3888l-31.8306-180.98q-.1611-.9162-.2389-1.8441L467.522,419.2685"/><ellipse class="cls-4" cx="773.2723" cy="415.6967" rx="307.5784" ry="41.1202"/><ellipse class="cls-5" cx="772.8153" cy="429.4436" rx="277.8717" ry="24.7475"/><g class="cls-6"><polygon class="cls-7" points="462.064 370.887 471.461 434.531 462.187 434.607 462.064 370.887"/><polygon class="cls-7" points="462.029 352.775 462.64 352.391 468.075 352.346 480.198 434.46 471.461 434.531 462.064 370.887 462.029 352.775"/><polygon class="cls-8" points="476.812 352.275 488.936 434.389 480.198 434.46 468.075 352.346 476.812 352.275"/><polygon class="cls-9" points="485.55 352.204 497.673 434.317 488.936 434.389 476.812 352.275 485.55 352.204"/><polygon class="cls-10" points="494.287 352.132 506.411 434.246 497.673 434.317 485.55 352.204 494.287 352.132"/><polygon class="cls-11" points="503.025 352.061 515.148 434.174 506.411 434.246 494.287 352.132 503.025 352.061"/><polygon class="cls-12" points="511.762 351.989 523.885 434.103 515.148 434.174 503.025 352.061 511.762 351.989"/><polygon class="cls-13" points="520.499 351.918 532.623 434.032 523.885 434.103 511.762 351.989 520.499 351.918"/><polygon class="cls-14" points="529.237 351.847 541.36 433.96 532.623 434.032 520.499 351.918 529.237 351.847"/><polygon class="cls-15" points="537.974 351.775 550.098 433.889 541.36 433.96 529.237 351.847 537.974 351.775"/><polygon class="cls-16" points="546.712 351.704 558.835 433.817 550.098 433.889 537.974 351.775 546.712 351.704"/><polygon class="cls-17" points="555.449 351.632 567.573 433.746 558.835 433.817 546.712 351.704 555.449 351.632"/><polygon class="cls-18" points="564.187 351.561 576.31 433.675 567.573 433.746 555.449 351.632 564.187 351.561"/><polygon class="cls-19" points="572.924 351.489 585.048 433.603 576.31 433.675 564.187 351.561 572.924 351.489"/><polygon class="cls-20" points="581.661 351.418 593.785 433.532 585.048 433.603 572.924 351.489 581.661 351.418"/><polygon class="cls-21" points="590.399 351.347 602.522 433.46 593.785 433.532 581.661 351.418 590.399 351.347"/><polygon class="cls-22" points="599.136 351.275 611.26 433.389 602.522 433.46 590.399 351.347 599.136 351.275"/><polygon class="cls-23" points="607.874 351.204 619.997 433.318 611.26 433.389 599.136 351.275 607.874 351.204"/><polygon class="cls-24" points="616.611 351.132 628.735 433.246 619.997 433.318 607.874 351.204 616.611 351.132"/><polygon class="cls-25" points="625.349 351.061 637.472 433.175 628.735 433.246 616.611 351.132 625.349 351.061"/><polygon class="cls-26" points="634.086 350.99 646.21 433.103 637.472 433.175 625.349 351.061 634.086 350.99"/><polygon class="cls-27" points="642.823 350.918 654.947 433.032 646.21 433.103 634.086 350.99 642.823 350.918"/><polygon class="cls-28" points="651.561 350.847 663.684 432.96 654.947 433.032 642.823 350.918 651.561 350.847"/><polygon class="cls-29" points="660.298 350.775 672.422 432.889 663.684 432.96 651.561 350.847 660.298 350.775"/><polygon class="cls-30" points="669.036 350.704 681.159 432.818 672.422 432.889 660.298 350.775 669.036 350.704"/><polygon class="cls-31" points="677.773 350.633 689.897 432.746 681.159 432.818 669.036 350.704 677.773 350.633"/><polygon class="cls-32" points="686.511 350.561 698.634 432.675 689.897 432.746 677.773 350.633 686.511 350.561"/><polygon class="cls-33" points="695.248 350.49 707.372 432.603 698.634 432.675 686.511 350.561 695.248 350.49"/><polygon class="cls-34" points="703.986 350.418 716.109 432.532 707.372 432.603 695.248 350.49 703.986 350.418"/><polygon class="cls-35" points="712.723 350.347 724.846 432.461 716.109 432.532 703.986 350.418 712.723 350.347"/><polygon class="cls-36" points="721.46 350.276 733.584 432.389 724.846 432.461 712.723 350.347 721.46 350.276"/><polygon class="cls-37" points="730.198 350.204 742.321 432.318 733.584 432.389 721.46 350.276 730.198 350.204"/><polygon class="cls-38" points="738.935 350.133 751.059 432.246 742.321 432.318 730.198 350.204 738.935 350.133"/><polygon class="cls-39" points="747.673 350.061 759.796 432.175 751.059 432.246 738.935 350.133 747.673 350.061"/><polygon class="cls-40" points="756.41 349.99 768.534 432.104 759.796 432.175 747.673 350.061 756.41 349.99"/><polygon class="cls-41" points="765.148 349.919 777.271 432.032 768.534 432.104 756.41 349.99 765.148 349.919"/><polygon class="cls-42" points="773.885 349.847 786.009 431.961 777.271 432.032 765.148 349.919 773.885 349.847"/><polygon class="cls-43" points="782.622 349.776 794.746 431.889 786.009 431.961 773.885 349.847 782.622 349.776"/><polygon class="cls-44" points="791.36 349.704 803.483 431.818 794.746 431.889 782.622 349.776 791.36 349.704"/><polygon class="cls-45" points="800.097 349.633 812.221 431.747 803.483 431.818 791.36 349.704 800.097 349.633"/><polygon class="cls-46" points="808.835 349.561 820.958 431.675 812.221 431.747 800.097 349.633 808.835 349.561"/><polygon class="cls-47" points="817.572 349.49 829.696 431.604 820.958 431.675 808.835 349.561 817.572 349.49"/><polygon class="cls-48" points="826.31 349.419 838.433 431.532 829.696 431.604 817.572 349.49 826.31 349.419"/><polygon class="cls-49" points="835.047 349.347 847.171 431.461 838.433 431.532 826.31 349.419 835.047 349.347"/><polygon class="cls-50" points="843.785 349.276 855.908 431.39 847.171 431.461 835.047 349.347 843.785 349.276"/><polygon class="cls-51" points="852.522 349.204 864.645 431.318 855.908 431.39 843.785 349.276 852.522 349.204"/><polygon class="cls-52" points="861.259 349.133 873.383 431.247 864.645 431.318 852.522 349.204 861.259 349.133"/><polygon class="cls-53" points="869.997 349.062 882.12 431.175 873.383 431.247 861.259 349.133 869.997 349.062"/><polygon class="cls-54" points="878.734 348.99 890.858 431.104 882.12 431.175 869.997 349.062 878.734 348.99"/><polygon class="cls-55" points="887.472 348.919 899.595 431.033 890.858 431.104 878.734 348.99 887.472 348.919"/><polygon class="cls-56" points="896.209 348.847 908.333 430.961 899.595 431.033 887.472 348.919 896.209 348.847"/><polygon class="cls-57" points="904.947 348.776 917.07 430.89 908.333 430.961 896.209 348.847 904.947 348.776"/><polygon class="cls-58" points="913.684 348.705 925.808 430.818 917.07 430.89 904.947 348.776 913.684 348.705"/><polygon class="cls-59" points="922.421 348.633 934.545 430.747 925.808 430.818 913.684 348.705 922.421 348.633"/><polygon class="cls-60" points="931.159 348.562 943.282 430.675 934.545 430.747 922.421 348.633 931.159 348.562"/><polygon class="cls-61" points="939.896 348.49 952.02 430.604 943.282 430.675 931.159 348.562 939.896 348.49"/><polygon class="cls-62" points="948.634 348.419 960.757 430.533 952.02 430.604 939.896 348.49 948.634 348.419"/><polygon class="cls-63" points="957.371 348.348 969.495 430.461 960.757 430.533 948.634 348.419 957.371 348.348"/><polygon class="cls-64" points="966.109 348.276 978.232 430.39 969.495 430.461 957.371 348.348 966.109 348.276"/><polygon class="cls-65" points="974.846 348.205 986.97 430.318 978.232 430.39 966.109 348.276 974.846 348.205"/><polygon class="cls-66" points="983.583 348.133 995.707 430.247 986.97 430.318 974.846 348.205 983.583 348.133"/><polygon class="cls-67" points="992.321 348.062 1004.444 430.176 995.707 430.247 983.583 348.133 992.321 348.062"/><polygon class="cls-68" points="1001.058 347.991 1013.182 430.104 1004.444 430.176 992.321 348.062 1001.058 347.991"/><polygon class="cls-69" points="1009.796 347.919 1021.919 430.033 1013.182 430.104 1001.058 347.991 1009.796 347.919"/><polygon class="cls-70" points="1018.533 347.848 1030.657 429.961 1021.919 430.033 1009.796 347.919 1018.533 347.848"/><polygon class="cls-71" points="1027.271 347.776 1039.394 429.89 1030.657 429.961 1018.533 347.848 1027.271 347.776"/><polygon class="cls-72" points="1036.008 347.705 1048.132 429.819 1039.394 429.89 1027.271 347.776 1036.008 347.705"/><polygon class="cls-73" points="1044.746 347.633 1056.869 429.747 1048.132 429.819 1036.008 347.705 1044.746 347.633"/><polygon class="cls-74" points="1053.483 347.562 1065.607 429.676 1056.869 429.747 1044.746 347.633 1053.483 347.562"/><polygon class="cls-75" points="1062.22 347.491 1074.344 429.604 1065.607 429.676 1053.483 347.562 1062.22 347.491"/><polygon class="cls-76" points="1070.958 347.419 1083.081 429.533 1074.344 429.604 1062.22 347.491 1070.958 347.419"/><polygon class="cls-77" points="1079.695 347.348 1089.092 410.992 1089.127 429.105 1088.516 429.489 1083.081 429.533 1070.958 347.419 1079.695 347.348"/><polygon class="cls-77" points="1089.092 410.992 1079.695 347.348 1088.97 347.272 1089.092 410.992"/></g><path d="M949.1682,429.598c-50.8385.4155-110.5857-1.1625-172.85-4.6275C692.6567,420.317,613.9156,412.8114,554.6,403.8379c-93.6251-14.1619-93.8985-24.532-94.0444-30.1023a9.8267,9.8267,0,0,1,.8488-4.3856c1.497-3.1727,6.0524-12.8308,97.1073-16.1428,58.4219-2.1217,135.2462-.8091,216.3258,3.7009,83.6626,4.6554,162.4037,12.161,221.7192,21.1325,93.6251,14.1639,93.8976,24.5321,94.0444,30.1024a9.819,9.819,0,0,1-.8488,4.3855c-1.4969,3.1747-6.0534,12.8328-97.1082,16.1429C979.0873,429.1656,964.53,429.4725,949.1682,429.598ZM465.44,373.5717c4.2167,3.6083,21.6838,12.3679,93.951,23.0288,58.7056,8.6628,135.7816,15.9206,217.03,20.4408,80.829,4.4984,157.4617,5.8223,215.7748,3.7132,71.6888-2.5844,89.2332-9.3315,93.52-12.4477-4.2167-3.6082-21.6838-12.3659-93.952-23.0288-58.7046-8.6608-135.7816-15.9205-217.03-20.4407-80.8289-4.4946-157.4588-5.8185-215.7738-3.7113C487.2719,363.71,469.7276,370.4575,465.44,373.5717Z"/><g class="cls-78"><polygon class="cls-11" points="504.669 401.879 506.847 416.632 504.697 416.649 504.669 401.879"/><polygon class="cls-12" points="504.611 371.724 507.943 369.631 508.842 369.623 515.772 416.559 506.847 416.632 504.669 401.879 504.611 371.724"/><polygon class="cls-13" points="517.766 369.551 524.696 416.486 515.772 416.559 508.842 369.623 517.766 369.551"/><polygon class="cls-14" points="526.691 369.478 533.62 416.413 524.696 416.486 517.766 369.551 526.691 369.478"/><polygon class="cls-15" points="535.615 369.405 542.545 416.34 533.62 416.413 526.691 369.478 535.615 369.405"/><polygon class="cls-16" points="544.54 369.332 551.469 416.267 542.545 416.34 535.615 369.405 544.54 369.332"/><polygon class="cls-17" points="553.464 369.259 560.394 416.194 551.469 416.267 544.54 369.332 553.464 369.259"/><polygon class="cls-18" points="562.389 369.186 569.318 416.121 560.394 416.194 553.464 369.259 562.389 369.186"/><polygon class="cls-19" points="571.313 369.113 578.243 416.048 569.318 416.121 562.389 369.186 571.313 369.113"/><polygon class="cls-20" points="580.237 369.04 587.167 415.975 578.243 416.048 571.313 369.113 580.237 369.04"/><polygon class="cls-21" points="589.162 368.967 596.092 415.902 587.167 415.975 580.237 369.04 589.162 368.967"/><polygon class="cls-22" points="598.086 368.894 605.016 415.829 596.092 415.902 589.162 368.967 598.086 368.894"/><polygon class="cls-23" points="607.011 368.821 613.94 415.756 605.016 415.829 598.086 368.894 607.011 368.821"/><polygon class="cls-24" points="615.935 368.748 622.865 415.683 613.94 415.756 607.011 368.821 615.935 368.748"/><polygon class="cls-25" points="624.86 368.675 631.789 415.611 622.865 415.683 615.935 368.748 624.86 368.675"/><polygon class="cls-26" points="633.784 368.602 640.714 415.538 631.789 415.611 624.86 368.675 633.784 368.602"/><polygon class="cls-27" points="642.708 368.529 649.638 415.465 640.714 415.538 633.784 368.602 642.708 368.529"/><polygon class="cls-28" points="651.633 368.456 658.563 415.392 649.638 415.465 642.708 368.529 651.633 368.456"/><polygon class="cls-29" points="660.557 368.384 667.487 415.319 658.563 415.392 651.633 368.456 660.557 368.384"/><polygon class="cls-30" points="669.482 368.311 676.411 415.246 667.487 415.319 660.557 368.384 669.482 368.311"/><polygon class="cls-31" points="678.406 368.238 685.336 415.173 676.411 415.246 669.482 368.311 678.406 368.238"/><polygon class="cls-32" points="687.331 368.165 694.26 415.1 685.336 415.173 678.406 368.238 687.331 368.165"/><polygon class="cls-33" points="696.255 368.092 703.185 415.027 694.26 415.1 687.331 368.165 696.255 368.092"/><polygon class="cls-34" points="705.18 368.019 712.109 414.954 703.185 415.027 696.255 368.092 705.18 368.019"/><polygon class="cls-35" points="714.104 367.946 721.034 414.881 712.109 414.954 705.18 368.019 714.104 367.946"/><polygon class="cls-36" points="723.028 367.873 729.958 414.808 721.034 414.881 714.104 367.946 723.028 367.873"/><polygon class="cls-37" points="731.953 367.8 738.883 414.735 729.958 414.808 723.028 367.873 731.953 367.8"/><polygon class="cls-38" points="740.877 367.727 747.807 414.662 738.883 414.735 731.953 367.8 740.877 367.727"/><polygon class="cls-39" points="749.802 367.654 756.731 414.589 747.807 414.662 740.877 367.727 749.802 367.654"/><polygon class="cls-40" points="758.726 367.581 765.656 414.516 756.731 414.589 749.802 367.654 758.726 367.581"/><polygon class="cls-41" points="767.651 367.508 774.58 414.444 765.656 414.516 758.726 367.581 767.651 367.508"/><polygon class="cls-42" points="776.575 367.435 783.505 414.371 774.58 414.444 767.651 367.508 776.575 367.435"/><polygon class="cls-43" points="785.499 367.362 792.429 414.298 783.505 414.371 776.575 367.435 785.499 367.362"/><polygon class="cls-44" points="794.424 367.29 801.354 414.225 792.429 414.298 785.499 367.362 794.424 367.29"/><polygon class="cls-45" points="803.348 367.217 810.278 414.152 801.354 414.225 794.424 367.29 803.348 367.217"/><polygon class="cls-46" points="812.273 367.144 819.202 414.079 810.278 414.152 803.348 367.217 812.273 367.144"/><polygon class="cls-47" points="821.197 367.071 828.127 414.006 819.202 414.079 812.273 367.144 821.197 367.071"/><polygon class="cls-48" points="830.122 366.998 837.051 413.933 828.127 414.006 821.197 367.071 830.122 366.998"/><polygon class="cls-49" points="839.046 366.925 845.976 413.86 837.051 413.933 830.122 366.998 839.046 366.925"/><polygon class="cls-50" points="847.971 366.852 854.9 413.787 845.976 413.86 839.046 366.925 847.971 366.852"/><polygon class="cls-51" points="856.895 366.779 863.825 413.714 854.9 413.787 847.971 366.852 856.895 366.779"/><polygon class="cls-52" points="865.819 366.706 872.749 413.641 863.825 413.714 856.895 366.779 865.819 366.706"/><polygon class="cls-53" points="874.744 366.633 881.673 413.568 872.749 413.641 865.819 366.706 874.744 366.633"/><polygon class="cls-54" points="883.668 366.56 890.598 413.495 881.673 413.568 874.744 366.633 883.668 366.56"/><polygon class="cls-55" points="892.593 366.487 899.522 413.422 890.598 413.495 883.668 366.56 892.593 366.487"/><polygon class="cls-56" points="901.517 366.414 908.447 413.35 899.522 413.422 892.593 366.487 901.517 366.414"/><polygon class="cls-57" points="910.442 366.341 917.371 413.277 908.447 413.35 901.517 366.414 910.442 366.341"/><polygon class="cls-58" points="919.366 366.268 926.296 413.204 917.371 413.277 910.442 366.341 919.366 366.268"/><polygon class="cls-59" points="928.29 366.195 935.22 413.131 926.296 413.204 919.366 366.268 928.29 366.195"/><polygon class="cls-60" points="937.215 366.123 944.145 413.058 935.22 413.131 928.29 366.195 937.215 366.123"/><polygon class="cls-61" points="946.139 366.05 953.069 412.985 944.145 413.058 937.215 366.123 946.139 366.05"/><polygon class="cls-62" points="955.064 365.977 961.993 412.912 953.069 412.985 946.139 366.05 955.064 365.977"/><polygon class="cls-63" points="963.988 365.904 970.918 412.839 961.993 412.912 955.064 365.977 963.988 365.904"/><polygon class="cls-64" points="972.913 365.831 979.842 412.766 970.918 412.839 963.988 365.904 972.913 365.831"/><polygon class="cls-65" points="981.837 365.758 988.767 412.693 979.842 412.766 972.913 365.831 981.837 365.758"/><polygon class="cls-66" points="990.761 365.685 997.691 412.62 988.767 412.693 981.837 365.758 990.761 365.685"/><polygon class="cls-67" points="999.686 365.612 1006.616 412.547 997.691 412.62 990.761 365.685 999.686 365.612"/><polygon class="cls-68" points="1008.61 365.539 1015.54 412.474 1006.616 412.547 999.686 365.612 1008.61 365.539"/><polygon class="cls-69" points="1017.535 365.466 1024.464 412.401 1015.54 412.474 1008.61 365.539 1017.535 365.466"/><polygon class="cls-70" points="1026.459 365.393 1033.389 412.328 1024.464 412.401 1017.535 365.466 1026.459 365.393"/><polygon class="cls-71" points="1035.384 365.32 1042.313 412.256 1033.389 412.328 1026.459 365.393 1035.384 365.32"/><polygon class="cls-72" points="1044.308 365.247 1046.485 379.995 1046.543 410.156 1043.213 412.248 1042.313 412.256 1035.384 365.32 1044.308 365.247"/><polygon class="cls-73" points="1046.485 379.995 1044.308 365.247 1046.457 365.23 1046.485 379.995"/><polygon class="cls-7" points="455.689 372.725 466.479 445.807 455.829 445.894 455.689 372.725"/><polygon class="cls-7" points="455.652 353.624 461.282 350.088 475.403 445.734 466.479 445.807 455.689 372.725 455.652 353.624"/><polygon class="cls-8" points="461.282 350.088 469.458 344.951 484.328 445.661 475.403 445.734 461.282 350.088"/><polygon class="cls-9" points="469.458 344.951 475.669 341.05 477.815 341.032 493.252 445.588 484.328 445.661 469.458 344.951"/><polygon class="cls-10" points="486.739 340.959 502.176 445.515 493.252 445.588 477.815 341.032 486.739 340.959"/><polygon class="cls-11" points="495.664 340.886 511.101 445.442 502.176 445.515 486.739 340.959 495.664 340.886"/><polygon class="cls-12" points="504.588 340.814 520.025 445.37 511.101 445.442 495.664 340.886 504.588 340.814"/><polygon class="cls-13" points="513.513 340.741 528.95 445.297 520.025 445.37 504.588 340.814 513.513 340.741"/><polygon class="cls-14" points="522.437 340.668 537.874 445.224 528.95 445.297 513.513 340.741 522.437 340.668"/><polygon class="cls-15" points="531.362 340.595 546.799 445.151 537.874 445.224 522.437 340.668 531.362 340.595"/><polygon class="cls-16" points="540.286 340.522 555.723 445.078 546.799 445.151 531.362 340.595 540.286 340.522"/><polygon class="cls-17" points="549.211 340.449 564.648 445.005 555.723 445.078 540.286 340.522 549.211 340.449"/><polygon class="cls-18" points="558.135 340.376 573.572 444.932 564.648 445.005 549.211 340.449 558.135 340.376"/><polygon class="cls-19" points="567.059 340.303 582.496 444.859 573.572 444.932 558.135 340.376 567.059 340.303"/><polygon class="cls-20" points="575.984 340.23 591.421 444.786 582.496 444.859 567.059 340.303 575.984 340.23"/><polygon class="cls-21" points="584.908 340.157 600.345 444.713 591.421 444.786 575.984 340.23 584.908 340.157"/><polygon class="cls-22" points="593.833 340.084 609.27 444.64 600.345 444.713 584.908 340.157 593.833 340.084"/><polygon class="cls-23" points="602.757 340.011 618.194 444.567 609.27 444.64 593.833 340.084 602.757 340.011"/><polygon class="cls-24" points="611.682 339.938 627.119 444.494 618.194 444.567 602.757 340.011 611.682 339.938"/><polygon class="cls-25" points="620.606 339.865 636.043 444.421 627.119 444.494 611.682 339.938 620.606 339.865"/><polygon class="cls-26" points="629.53 339.792 644.967 444.348 636.043 444.421 620.606 339.865 629.53 339.792"/><polygon class="cls-27" points="638.455 339.719 653.892 444.275 644.967 444.348 629.53 339.792 638.455 339.719"/><polygon class="cls-28" points="647.379 339.647 662.816 444.203 653.892 444.275 638.455 339.719 647.379 339.647"/><polygon class="cls-29" points="656.304 339.574 671.741 444.13 662.816 444.203 647.379 339.647 656.304 339.574"/><polygon class="cls-30" points="665.228 339.501 680.665 444.057 671.741 444.13 656.304 339.574 665.228 339.501"/><polygon class="cls-31" points="674.153 339.428 689.59 443.984 680.665 444.057 665.228 339.501 674.153 339.428"/><polygon class="cls-32" points="683.077 339.355 698.514 443.911 689.59 443.984 674.153 339.428 683.077 339.355"/><polygon class="cls-33" points="692.002 339.282 707.438 443.838 698.514 443.911 683.077 339.355 692.002 339.282"/><polygon class="cls-34" points="700.926 339.209 716.363 443.765 707.438 443.838 692.002 339.282 700.926 339.209"/><polygon class="cls-35" points="709.85 339.136 725.287 443.692 716.363 443.765 700.926 339.209 709.85 339.136"/><polygon class="cls-36" points="718.775 339.063 734.212 443.619 725.287 443.692 709.85 339.136 718.775 339.063"/><polygon class="cls-37" points="727.699 338.99 743.136 443.546 734.212 443.619 718.775 339.063 727.699 338.99"/><polygon class="cls-38" points="736.624 338.917 752.061 443.473 743.136 443.546 727.699 338.99 736.624 338.917"/><polygon class="cls-39" points="745.548 338.844 760.985 443.4 752.061 443.473 736.624 338.917 745.548 338.844"/><polygon class="cls-40" points="754.473 338.771 769.91 443.327 760.985 443.4 745.548 338.844 754.473 338.771"/><polygon class="cls-41" points="763.397 338.698 778.834 443.254 769.91 443.327 754.473 338.771 763.397 338.698"/><polygon class="cls-42" points="772.321 338.625 787.758 443.181 778.834 443.254 763.397 338.698 772.321 338.625"/><polygon class="cls-43" points="781.246 338.553 796.683 443.109 787.758 443.181 772.321 338.625 781.246 338.553"/><polygon class="cls-44" points="790.17 338.48 805.607 443.036 796.683 443.109 781.246 338.553 790.17 338.48"/><polygon class="cls-45" points="799.095 338.407 814.532 442.963 805.607 443.036 790.17 338.48 799.095 338.407"/><polygon class="cls-46" points="808.019 338.334 823.456 442.89 814.532 442.963 799.095 338.407 808.019 338.334"/><polygon class="cls-47" points="816.944 338.261 832.381 442.817 823.456 442.89 808.019 338.334 816.944 338.261"/><polygon class="cls-48" points="825.868 338.188 841.305 442.744 832.381 442.817 816.944 338.261 825.868 338.188"/><polygon class="cls-49" points="834.792 338.115 850.229 442.671 841.305 442.744 825.868 338.188 834.792 338.115"/><polygon class="cls-50" points="843.717 338.042 859.154 442.598 850.229 442.671 834.792 338.115 843.717 338.042"/><polygon class="cls-51" points="852.641 337.969 868.078 442.525 859.154 442.598 843.717 338.042 852.641 337.969"/><polygon class="cls-52" points="861.566 337.896 877.003 442.452 868.078 442.525 852.641 337.969 861.566 337.896"/><polygon class="cls-53" points="870.49 337.823 885.927 442.379 877.003 442.452 861.566 337.896 870.49 337.823"/><polygon class="cls-54" points="879.415 337.75 894.852 442.306 885.927 442.379 870.49 337.823 879.415 337.75"/><polygon class="cls-55" points="888.339 337.677 903.776 442.233 894.852 442.306 879.415 337.75 888.339 337.677"/><polygon class="cls-56" points="897.264 337.604 912.701 442.16 903.776 442.233 888.339 337.677 897.264 337.604"/><polygon class="cls-57" points="906.188 337.531 921.625 442.087 912.701 442.16 897.264 337.604 906.188 337.531"/><polygon class="cls-58" points="915.112 337.458 930.549 442.014 921.625 442.087 906.188 337.531 915.112 337.458"/><polygon class="cls-59" points="924.037 337.386 939.474 441.942 930.549 442.014 915.112 337.458 924.037 337.386"/><polygon class="cls-60" points="932.961 337.313 948.398 441.869 939.474 441.942 924.037 337.386 932.961 337.313"/><polygon class="cls-61" points="941.886 337.24 957.323 441.796 948.398 441.869 932.961 337.313 941.886 337.24"/><polygon class="cls-62" points="950.81 337.167 966.247 441.723 957.323 441.796 941.886 337.24 950.81 337.167"/><polygon class="cls-63" points="959.735 337.094 975.172 441.65 966.247 441.723 950.81 337.167 959.735 337.094"/><polygon class="cls-64" points="968.659 337.021 984.096 441.577 975.172 441.65 959.735 337.094 968.659 337.021"/><polygon class="cls-65" points="977.583 336.948 993.02 441.504 984.096 441.577 968.659 337.021 977.583 336.948"/><polygon class="cls-66" points="986.508 336.875 1001.945 441.431 993.02 441.504 977.583 336.948 986.508 336.875"/><polygon class="cls-67" points="995.432 336.802 1010.869 441.358 1001.945 441.431 986.508 336.875 995.432 336.802"/><polygon class="cls-68" points="1004.357 336.729 1019.794 441.285 1010.869 441.358 995.432 336.802 1004.357 336.729"/><polygon class="cls-69" points="1013.281 336.656 1028.718 441.212 1019.794 441.285 1004.357 336.729 1013.281 336.656"/><polygon class="cls-70" points="1022.206 336.583 1037.643 441.139 1028.718 441.212 1013.281 336.656 1022.206 336.583"/><polygon class="cls-71" points="1031.13 336.51 1046.567 441.066 1037.643 441.139 1022.206 336.583 1031.13 336.51"/><polygon class="cls-72" points="1040.054 336.437 1055.491 440.993 1046.567 441.066 1031.13 336.51 1040.054 336.437"/><polygon class="cls-73" points="1048.979 336.364 1064.416 440.92 1055.491 440.993 1040.054 336.437 1048.979 336.364"/><polygon class="cls-74" points="1057.903 336.292 1073.263 440.324 1072.418 440.855 1064.416 440.92 1048.979 336.364 1057.903 336.292"/><polygon class="cls-75" points="1066.828 336.219 1081.44 435.188 1073.263 440.324 1057.903 336.292 1066.828 336.219"/><polygon class="cls-76" points="1075.752 336.146 1089.617 430.051 1081.44 435.188 1066.828 336.219 1075.752 336.146"/><polygon class="cls-77" points="1084.677 336.073 1095.369 408.496 1095.404 426.415 1089.617 430.051 1075.752 336.146 1084.677 336.073"/><polygon class="cls-77" points="1095.369 408.496 1084.677 336.073 1095.23 335.986 1095.369 408.496"/></g><path d="M949.5952,444.6417c-50.8.4152-110.428-1.1638-172.88-4.6389-83.7443-4.6586-162.5784-12.1731-221.9821-21.1575-28.9811-4.3838-51.8018-8.89-67.828-13.3948-8.3311-2.3391-14.8071-4.6953-19.2485-7-4.228-2.1906-13.0291-6.749-13.5121-25.0708-.4943-18.81,8.6089-22.6295,12.4964-24.259,4.3452-1.821,10.7215-3.4631,18.958-4.884,15.8349-2.73,38.4863-4.7067,67.3254-5.8739,59.1208-2.3965,137.7889-1.1474,221.5163,3.5133,83.7321,4.6568,162.5661,12.1713,221.9812,21.1594,28.9773,4.3839,51.798,8.89,67.828,13.3929,8.3329,2.341,14.8089,4.6972,19.2484,7,4.2309,2.1944,13.031,6.7586,13.5121,25.0708.2916,11.0361-2.6494,18.5721-8.74,22.3963h0a24.32,24.32,0,0,1-3.7631,1.8666c-4.3424,1.8191-10.7187,3.4611-18.95,4.882-15.8359,2.7283-38.4864,4.7048-67.3254,5.8739C983.2057,444.1269,966.9118,444.5,949.5952,444.6417Zm-347.9929-99.471c-17.3063.1414-33.5851.5146-48.6026,1.1234-28.7574,1.1626-51.3262,3.1307-67.0794,5.8486-8.0883,1.3946-14.3154,2.9909-18.5077,4.7487-4.9325,2.0679-9.7187,5.01-9.4289,16.0576.3037,11.5182,5.6369,15.2316,10.6112,17.8092,4.3032,2.2345,10.6383,4.5337,18.8294,6.8333,15.9473,4.4826,38.6881,8.9716,67.59,13.3425,59.3464,8.9771,138.1175,16.4844,221.8036,21.14,83.6824,4.6572,162.2875,5.9068,221.338,3.5128,28.7573-1.1646,51.3261-3.1326,67.08-5.8486,8.0827-1.3926,14.31-2.9908,18.5058-4.7506a22.583,22.583,0,0,0,3.4076-1.6778v-.002c4.3538-2.7332,6.2108-7.1676,6.0214-14.3779-.3029-11.5124-5.6351-15.2277-10.6094-17.8072-4.3032-2.2326-10.6382-4.5318-18.8313-6.8352-15.951-4.4806-38.6919-8.97-67.59-13.3406-59.3568-8.979-138.1279-16.4862-221.8028-21.1415C711.942,346.3333,652.36,344.7558,601.6023,345.1707Zm345.4661,69.4961c-42.4725.3471-98.6774-.6964-171.146-4.7287-162.73-9.054-244.0843-24.087-271.5082-30.1277l.1012-7.9039c27.1784-3.0089,107.9665-9.0218,270.7182.0359,162.7131,9.05,244.0768,24.0851,271.5063,30.1277l-.1021,7.904C1031.56,411.6407,999.9723,414.2344,947.0684,414.6668ZM533.234,377.4389c41.429,7.2121,118.2379,17.64,242.7915,24.57,124.2409,6.9091,200.6488,5.0336,241.8928,2.4327-41.4338-7.2141-118.2474-17.6422-242.7878-24.57C650.8792,372.9587,574.4714,374.83,533.234,377.4389Z"/><g class="cls-79"><polygon class="cls-7" points="470.682 371.615 479.382 424.034 470.783 424.105 470.682 371.615"/><polygon class="cls-7" points="477.199 359.637 487.876 423.965 479.382 424.034 470.682 371.615 470.659 359.69 477.199 359.637"/><polygon class="cls-8" points="485.693 359.567 496.37 423.895 487.876 423.965 477.199 359.637 485.693 359.567"/><polygon class="cls-9" points="494.187 359.498 504.863 423.826 496.37 423.895 485.693 359.567 494.187 359.498"/><polygon class="cls-10" points="502.681 359.429 513.357 423.757 504.863 423.826 494.187 359.498 502.681 359.429"/><polygon class="cls-11" points="511.174 359.359 521.851 423.687 513.357 423.757 502.681 359.429 511.174 359.359"/><polygon class="cls-12" points="519.668 359.29 530.345 423.618 521.851 423.687 511.174 359.359 519.668 359.29"/><polygon class="cls-13" points="528.162 359.22 538.839 423.548 530.345 423.618 519.668 359.29 528.162 359.22"/><polygon class="cls-14" points="536.656 359.151 547.333 423.479 538.839 423.548 528.162 359.22 536.656 359.151"/><polygon class="cls-15" points="545.15 359.081 555.826 423.41 547.333 423.479 536.656 359.151 545.15 359.081"/><polygon class="cls-16" points="553.644 359.012 564.32 423.34 555.826 423.41 545.15 359.081 553.644 359.012"/><polygon class="cls-17" points="562.137 358.943 572.814 423.271 564.32 423.34 553.644 359.012 562.137 358.943"/><polygon class="cls-18" points="570.631 358.873 581.308 423.201 572.814 423.271 562.137 358.943 570.631 358.873"/><polygon class="cls-19" points="579.125 358.804 589.802 423.132 581.308 423.201 570.631 358.873 579.125 358.804"/><polygon class="cls-20" points="587.619 358.734 598.296 423.062 589.802 423.132 579.125 358.804 587.619 358.734"/><polygon class="cls-21" points="596.113 358.665 606.79 422.993 598.296 423.062 587.619 358.734 596.113 358.665"/><polygon class="cls-22" points="604.607 358.596 615.283 422.924 606.79 422.993 596.113 358.665 604.607 358.596"/><polygon class="cls-23" points="613.1 358.526 623.777 422.854 615.283 422.924 604.607 358.596 613.1 358.526"/><polygon class="cls-24" points="621.594 358.457 632.271 422.785 623.777 422.854 613.1 358.526 621.594 358.457"/><polygon class="cls-25" points="630.088 358.387 640.765 422.715 632.271 422.785 621.594 358.457 630.088 358.387"/><polygon class="cls-26" points="638.582 358.318 649.259 422.646 640.765 422.715 630.088 358.387 638.582 358.318"/><polygon class="cls-27" points="647.076 358.249 657.753 422.577 649.259 422.646 638.582 358.318 647.076 358.249"/><polygon class="cls-28" points="655.57 358.179 666.246 422.507 657.753 422.577 647.076 358.249 655.57 358.179"/><polygon class="cls-29" points="664.064 358.11 674.74 422.438 666.246 422.507 655.57 358.179 664.064 358.11"/><polygon class="cls-30" points="672.557 358.04 683.234 422.368 674.74 422.438 664.064 358.11 672.557 358.04"/><polygon class="cls-31" points="681.051 357.971 691.728 422.299 683.234 422.368 672.557 358.04 681.051 357.971"/><polygon class="cls-32" points="689.545 357.901 700.222 422.229 691.728 422.299 681.051 357.971 689.545 357.901"/><polygon class="cls-33" points="698.039 357.832 708.716 422.16 700.222 422.229 689.545 357.901 698.039 357.832"/><polygon class="cls-34" points="706.533 357.763 717.209 422.091 708.716 422.16 698.039 357.832 706.533 357.763"/><polygon class="cls-35" points="715.027 357.693 725.703 422.021 717.209 422.091 706.533 357.763 715.027 357.693"/><polygon class="cls-36" points="723.52 357.624 734.197 421.952 725.703 422.021 715.027 357.693 723.52 357.624"/><polygon class="cls-37" points="732.014 357.554 742.691 421.882 734.197 421.952 723.52 357.624 732.014 357.554"/><polygon class="cls-38" points="740.508 357.485 751.185 421.813 742.691 421.882 732.014 357.554 740.508 357.485"/><polygon class="cls-39" points="749.002 357.416 759.679 421.744 751.185 421.813 740.508 357.485 749.002 357.416"/><polygon class="cls-40" points="757.496 357.346 768.173 421.674 759.679 421.744 749.002 357.416 757.496 357.346"/><polygon class="cls-41" points="765.99 357.277 776.666 421.605 768.173 421.674 757.496 357.346 765.99 357.277"/><polygon class="cls-42" points="774.483 357.207 785.16 421.535 776.666 421.605 765.99 357.277 774.483 357.207"/><polygon class="cls-43" points="782.977 357.138 793.654 421.466 785.16 421.535 774.483 357.207 782.977 357.138"/><polygon class="cls-44" points="791.471 357.068 802.148 421.396 793.654 421.466 782.977 357.138 791.471 357.068"/><polygon class="cls-45" points="799.965 356.999 810.642 421.327 802.148 421.396 791.471 357.068 799.965 356.999"/><polygon class="cls-46" points="808.459 356.93 819.136 421.258 810.642 421.327 799.965 356.999 808.459 356.93"/><polygon class="cls-47" points="816.953 356.86 827.629 421.188 819.136 421.258 808.459 356.93 816.953 356.86"/><polygon class="cls-48" points="825.447 356.791 836.123 421.119 827.629 421.188 816.953 356.86 825.447 356.791"/><polygon class="cls-49" points="833.94 356.721 844.617 421.049 836.123 421.119 825.447 356.791 833.94 356.721"/><polygon class="cls-50" points="842.434 356.652 853.111 420.98 844.617 421.049 833.94 356.721 842.434 356.652"/><polygon class="cls-51" points="850.928 356.583 861.605 420.911 853.111 420.98 842.434 356.652 850.928 356.583"/><polygon class="cls-52" points="859.422 356.513 870.099 420.841 861.605 420.911 850.928 356.583 859.422 356.513"/><polygon class="cls-53" points="867.916 356.444 878.592 420.772 870.099 420.841 859.422 356.513 867.916 356.444"/><polygon class="cls-54" points="876.41 356.374 887.086 420.702 878.592 420.772 867.916 356.444 876.41 356.374"/><polygon class="cls-55" points="884.903 356.305 895.58 420.633 887.086 420.702 876.41 356.374 884.903 356.305"/><polygon class="cls-56" points="893.397 356.235 904.074 420.563 895.58 420.633 884.903 356.305 893.397 356.235"/><polygon class="cls-57" points="901.891 356.166 912.568 420.494 904.074 420.563 893.397 356.235 901.891 356.166"/><polygon class="cls-58" points="910.385 356.097 921.062 420.425 912.568 420.494 901.891 356.166 910.385 356.097"/><polygon class="cls-59" points="918.879 356.027 929.556 420.355 921.062 420.425 910.385 356.097 918.879 356.027"/><polygon class="cls-60" points="927.373 355.958 938.049 420.286 929.556 420.355 918.879 356.027 927.373 355.958"/><polygon class="cls-61" points="935.866 355.888 946.543 420.216 938.049 420.286 927.373 355.958 935.866 355.888"/><polygon class="cls-62" points="944.36 355.819 955.037 420.147 946.543 420.216 935.866 355.888 944.36 355.819"/><polygon class="cls-63" points="952.854 355.75 963.531 420.078 955.037 420.147 944.36 355.819 952.854 355.75"/><polygon class="cls-64" points="961.348 355.68 972.025 420.008 963.531 420.078 952.854 355.75 961.348 355.68"/><polygon class="cls-65" points="969.842 355.611 980.519 419.939 972.025 420.008 961.348 355.68 969.842 355.611"/><polygon class="cls-66" points="978.336 355.541 989.012 419.869 980.519 419.939 969.842 355.611 978.336 355.541"/><polygon class="cls-67" points="986.83 355.472 997.506 419.8 989.012 419.869 978.336 355.541 986.83 355.472"/><polygon class="cls-68" points="995.323 355.402 1006 419.73 997.506 419.8 986.83 355.472 995.323 355.402"/><polygon class="cls-69" points="1003.817 355.333 1014.494 419.661 1006 419.73 995.323 355.402 1003.817 355.333"/><polygon class="cls-70" points="1012.311 355.264 1022.988 419.592 1014.494 419.661 1003.817 355.333 1012.311 355.264"/><polygon class="cls-71" points="1020.805 355.194 1031.482 419.522 1022.988 419.592 1012.311 355.264 1020.805 355.194"/><polygon class="cls-72" points="1029.299 355.125 1039.975 419.453 1031.482 419.522 1020.805 355.194 1029.299 355.125"/><polygon class="cls-73" points="1037.793 355.055 1048.469 419.383 1039.975 419.453 1029.299 355.125 1037.793 355.055"/><polygon class="cls-74" points="1046.286 354.986 1056.963 419.314 1048.469 419.383 1037.793 355.055 1046.286 354.986"/><polygon class="cls-75" points="1054.78 354.917 1065.457 419.245 1056.963 419.314 1046.286 354.986 1054.78 354.917"/><polygon class="cls-76" points="1063.274 354.847 1073.951 419.175 1065.457 419.245 1054.78 354.917 1063.274 354.847"/><polygon class="cls-77" points="1071.768 354.778 1080.468 407.197 1080.491 419.122 1073.951 419.175 1063.274 354.847 1071.768 354.778"/><polygon class="cls-77" points="1080.468 407.197 1071.768 354.778 1080.367 354.707 1080.468 407.197"/></g><g class="cls-80"><polygon class="cls-53" points="653.637 337.435 663.806 406.615 461.04 408.272 460.907 339.01 653.637 337.435"/><polygon class="cls-53" points="659.17 337.39 669.34 406.569 663.806 406.615 653.637 337.435 659.17 337.39"/><polygon class="cls-54" points="664.704 337.345 674.873 406.524 669.34 406.569 659.17 337.39 664.704 337.345"/><polygon class="cls-55" points="670.238 337.299 680.407 406.479 674.873 406.524 664.704 337.345 670.238 337.299"/><polygon class="cls-56" points="675.771 337.254 685.941 406.434 680.407 406.479 670.238 337.299 675.771 337.254"/><polygon class="cls-57" points="681.305 337.209 691.474 406.389 685.941 406.434 675.771 337.254 681.305 337.209"/><polygon class="cls-58" points="686.839 337.164 697.008 406.343 691.474 406.389 681.305 337.209 686.839 337.164"/><polygon class="cls-59" points="692.372 337.119 702.542 406.298 697.008 406.343 686.839 337.164 692.372 337.119"/><polygon class="cls-60" points="697.906 337.073 708.075 406.253 702.542 406.298 692.372 337.119 697.906 337.073"/><polygon class="cls-61" points="703.44 337.028 713.609 406.208 708.075 406.253 697.906 337.073 703.44 337.028"/><polygon class="cls-62" points="708.973 336.983 719.142 406.162 713.609 406.208 703.44 337.028 708.973 336.983"/><polygon class="cls-63" points="714.507 336.938 724.676 406.117 719.142 406.162 708.973 336.983 714.507 336.938"/><polygon class="cls-64" points="720.041 336.892 730.21 406.072 724.676 406.117 714.507 336.938 720.041 336.892"/><polygon class="cls-65" points="725.574 336.847 735.743 406.027 730.21 406.072 720.041 336.892 725.574 336.847"/><polygon class="cls-66" points="731.108 336.802 741.277 405.981 735.743 406.027 725.574 336.847 731.108 336.802"/><polygon class="cls-67" points="736.642 336.757 746.811 405.936 741.277 405.981 731.108 336.802 736.642 336.757"/><polygon class="cls-68" points="742.175 336.712 752.344 405.891 746.811 405.936 736.642 336.757 742.175 336.712"/><polygon class="cls-69" points="747.709 336.666 757.878 405.846 752.344 405.891 742.175 336.712 747.709 336.666"/><polygon class="cls-70" points="753.243 336.621 763.412 405.801 757.878 405.846 747.709 336.666 753.243 336.621"/><polygon class="cls-71" points="758.776 336.576 768.945 405.755 763.412 405.801 753.243 336.621 758.776 336.576"/><polygon class="cls-72" points="764.31 336.531 774.479 405.71 768.945 405.755 758.776 336.576 764.31 336.531"/><polygon class="cls-73" points="769.844 336.485 780.013 405.665 774.479 405.71 764.31 336.531 769.844 336.485"/><polygon class="cls-74" points="775.377 336.44 785.546 405.62 780.013 405.665 769.844 336.485 775.377 336.44"/><polygon class="cls-75" points="780.911 336.395 791.08 405.574 785.546 405.62 775.377 336.44 780.911 336.395"/><polygon class="cls-76" points="786.445 336.35 796.614 405.529 791.08 405.574 780.911 336.395 786.445 336.35"/><polygon class="cls-77" points="791.978 336.305 802.147 405.484 796.614 405.529 786.445 336.35 791.978 336.305"/><polygon class="cls-81" points="797.512 336.259 807.681 405.439 802.147 405.484 791.978 336.305 797.512 336.259"/><polygon class="cls-82" points="803.046 336.214 813.215 405.394 807.681 405.439 797.512 336.259 803.046 336.214"/><polygon class="cls-83" points="808.579 336.169 818.748 405.348 813.215 405.394 803.046 336.214 808.579 336.169"/><polygon class="cls-84" points="814.113 336.124 824.282 405.303 818.748 405.348 808.579 336.169 814.113 336.124"/><polygon class="cls-85" points="819.647 336.078 829.816 405.258 824.282 405.303 814.113 336.124 819.647 336.078"/><polygon class="cls-86" points="825.18 336.033 835.349 405.213 829.816 405.258 819.647 336.078 825.18 336.033"/><polygon class="cls-87" points="830.714 335.988 840.883 405.167 835.349 405.213 825.18 336.033 830.714 335.988"/><polygon class="cls-88" points="836.248 335.943 846.417 405.122 840.883 405.167 830.714 335.988 836.248 335.943"/><polygon class="cls-89" points="841.781 335.897 851.95 405.077 846.417 405.122 836.248 335.943 841.781 335.897"/><polygon class="cls-90" points="847.315 335.852 857.484 405.032 851.95 405.077 841.781 335.897 847.315 335.852"/><polygon class="cls-91" points="852.848 335.807 863.018 404.987 857.484 405.032 847.315 335.852 852.848 335.807"/><polygon class="cls-92" points="858.382 335.762 868.551 404.941 863.018 404.987 852.848 335.807 858.382 335.762"/><polygon class="cls-93" points="863.916 335.717 874.085 404.896 868.551 404.941 858.382 335.762 863.916 335.717"/><polygon class="cls-94" points="869.449 335.671 879.619 404.851 874.085 404.896 863.916 335.717 869.449 335.671"/><polygon class="cls-95" points="874.983 335.626 885.152 404.806 879.619 404.851 869.449 335.671 874.983 335.626"/><polygon class="cls-96" points="880.517 335.581 890.686 404.76 885.152 404.806 874.983 335.626 880.517 335.581"/><polygon class="cls-97" points="886.05 335.536 896.22 404.715 890.686 404.76 880.517 335.581 886.05 335.536"/><polygon class="cls-98" points="891.584 335.49 901.753 404.67 896.22 404.715 886.05 335.536 891.584 335.49"/><polygon class="cls-99" points="897.118 335.445 907.287 404.625 901.753 404.67 891.584 335.49 897.118 335.445"/><polygon class="cls-100" points="902.651 335.4 912.821 404.58 907.287 404.625 897.118 335.445 902.651 335.4"/><polygon class="cls-101" points="908.185 335.355 918.354 404.534 912.821 404.58 902.651 335.4 908.185 335.355"/><polygon class="cls-102" points="913.719 335.31 923.888 404.489 918.354 404.534 908.185 335.355 913.719 335.31"/><polygon class="cls-103" points="919.252 335.264 929.422 404.444 923.888 404.489 913.719 335.31 919.252 335.264"/><polygon class="cls-104" points="924.786 335.219 934.955 404.399 929.422 404.444 919.252 335.264 924.786 335.219"/><polygon class="cls-105" points="930.32 335.174 940.489 404.353 934.955 404.399 924.786 335.219 930.32 335.174"/><polygon class="cls-106" points="935.853 335.129 946.023 404.308 940.489 404.353 930.32 335.174 935.853 335.129"/><polygon class="cls-107" points="941.387 335.083 951.556 404.263 946.023 404.308 935.853 335.129 941.387 335.083"/><polygon class="cls-108" points="946.921 335.038 957.09 404.218 951.556 404.263 941.387 335.083 946.921 335.038"/><polygon class="cls-109" points="952.454 334.993 962.624 404.173 957.09 404.218 946.921 335.038 952.454 334.993"/><polygon class="cls-110" points="957.988 334.948 968.157 404.127 962.624 404.173 952.454 334.993 957.988 334.948"/><polygon class="cls-111" points="963.522 334.903 973.691 404.082 968.157 404.127 957.988 334.948 963.522 334.903"/><polygon class="cls-112" points="969.055 334.857 979.225 404.037 973.691 404.082 963.522 334.903 969.055 334.857"/><polygon class="cls-113" points="974.589 334.812 984.758 403.992 979.225 404.037 969.055 334.857 974.589 334.812"/><polygon class="cls-114" points="980.123 334.767 990.292 403.946 984.758 403.992 974.589 334.812 980.123 334.767"/><polygon class="cls-115" points="985.656 334.722 995.826 403.901 990.292 403.946 980.123 334.767 985.656 334.722"/><polygon class="cls-116" points="991.19 334.676 1001.359 403.856 995.826 403.901 985.656 334.722 991.19 334.676"/><polygon class="cls-117" points="996.724 334.631 1006.893 403.811 1001.359 403.856 991.19 334.676 996.724 334.631"/><polygon class="cls-118" points="1002.257 334.586 1012.426 403.766 1006.893 403.811 996.724 334.631 1002.257 334.586"/><polygon class="cls-119" points="1007.791 334.541 1017.96 403.72 1012.426 403.766 1002.257 334.586 1007.791 334.541"/><polygon class="cls-120" points="1013.325 334.496 1023.494 403.675 1017.96 403.72 1007.791 334.541 1013.325 334.496"/><polygon class="cls-121" points="1018.858 334.45 1029.027 403.63 1023.494 403.675 1013.325 334.496 1018.858 334.45"/><polygon class="cls-122" points="1024.392 334.405 1034.561 403.585 1029.027 403.63 1018.858 334.45 1024.392 334.405"/><polygon class="cls-123" points="1029.926 334.36 1040.095 403.539 1034.561 403.585 1024.392 334.405 1029.926 334.36"/><polygon class="cls-124" points="1035.459 334.315 1045.628 403.494 1040.095 403.539 1029.926 334.36 1035.459 334.315"/><polygon class="cls-125" points="1040.993 334.269 1051.162 403.449 1045.628 403.494 1035.459 334.315 1040.993 334.269"/><polygon class="cls-126" points="1046.527 334.224 1056.696 403.404 1051.162 403.449 1040.993 334.269 1046.527 334.224"/><polygon class="cls-127" points="1052.06 334.179 1062.229 403.358 1056.696 403.404 1046.527 334.224 1052.06 334.179"/><polygon class="cls-128" points="1057.594 334.134 1067.763 403.313 1062.229 403.358 1052.06 334.179 1057.594 334.134"/><polygon class="cls-129" points="1063.128 334.089 1073.297 403.268 1067.763 403.313 1057.594 334.134 1063.128 334.089"/><polygon class="cls-130" points="1068.661 334.043 1078.83 403.223 1073.297 403.268 1063.128 334.089 1068.661 334.043"/><polygon class="cls-131" points="1074.195 333.998 1084.364 403.178 1078.83 403.223 1068.661 334.043 1074.195 333.998"/><polygon class="cls-132" points="1079.729 333.953 1087.902 389.556 1087.928 403.148 1084.364 403.178 1074.195 333.998 1079.729 333.953"/><polygon class="cls-132" points="1087.902 389.556 1079.729 333.953 1087.795 333.887 1087.902 389.556"/></g><path d="M977.4793,403.343c-56.7231.4635-128.1973-1.5512-203.3438-5.7572-83.7068-4.6841-162.3827-11.5376-221.5344-19.2982-93.0787-12.2085-92.9981-20.0969-92.95-24.8089a6.7662,6.7662,0,0,1,.6675-2.9491c3.3821-6.6468,35.8689-10.5279,96.5594-11.5352,58.7631-.9682,136.1322,1.0061,217.8213,5.5789,83.7068,4.684,162.3828,11.5375,221.5344,19.2981,93.0787,12.2086,92.9981,20.0969,92.949,24.809a6.7508,6.7508,0,0,1-.6666,2.949c-3.3821,6.6469-35.8689,10.528-96.5594,11.5352Q984.8974,403.28,977.4793,403.343ZM463.53,353.6735c14.037,10.9122,132.5546,27.9963,310.6844,37.9663,178.0509,9.9649,296.7922,6.1671,311.0907-3.1543-14.037-10.9121-132.5545-27.9963-310.6843-37.9663C596.5678,340.5524,477.8275,344.35,463.53,353.6735Z"/><path d="M633.1541,358.3329c16.1927-49.0135,66.6575-65.8481,110.2884-70.3587,45.2421-4.6772,95.5469-1.1591,131.3968,31.8094,17.2965,15.9064,29.7273,37.4085,32.6148,61.9393.301,2.5566,3.9614,1.6844,3.6613-.8653-5.5414-47.0768-43.5374-80.1462-84.2421-91.8316-25.0216-7.1832-51.3-7.792-77.0577-5.6394-24.5327,2.05-49.5263,6.3916-71.8214,18.2778-21.7,11.5692-40.19,30.6027-48.3829,55.4028a1.8817,1.8817,0,1,0,3.5428,1.2657Z"/><path d="M643.1116,358.9546c15.1284-45.68,62.0764-61.4426,102.7816-65.6881,42.3543-4.4174,89.4143-1.1647,123.01,29.6478,16.1957,14.8542,27.8,34.9689,30.5138,57.9028.3025,2.5565,3.963,1.6844,3.6613-.8653-5.2376-44.2585-40.9822-75.2014-79.2613-86.0972-23.2385-6.6147-47.6512-7.1626-71.56-5.1762-23.0119,1.9119-46.4655,5.9692-67.3783,17.1208-20.333,10.8424-37.6181,28.6644-45.31,51.89a1.8816,1.8816,0,1,0,3.5428,1.2656Z"/><path d="M630.4226,360.1751c1.1871.5644,1.9551,1.7162,3.2593,2.1819a13.1982,13.1982,0,0,0,3.8707.6179,5.9326,5.9326,0,0,0,3.3765-.5634c1.2036-.7272,1.3893-1.95,2.1632-3.049a1.9066,1.9066,0,0,0-3.1131-2.2021c-.4317.6129-.6118,1.5691-1.345,1.83a7.1042,7.1042,0,0,1-2.7892-.2026c-1.7182-.3236-2.6845-1.6949-4.2146-2.4223-2.1973-1.0446-3.3849,2.7745-1.2078,3.81Z"/><path d="M899.5254,382.2245a11.9709,11.9709,0,0,0,11.01.7827c2.2523-.9174.5456-4.4773-1.6931-3.5655a8.1263,8.1263,0,0,1-7.239-.5731c-2.0927-1.2378-4.1812,2.1117-2.0777,3.3559Z"/><path d="M633.6687,358.0942c5.8152.5412,8.9092-10.2878,10.7742-15.2706a1.8881,1.8881,0,0,0-3.328-1.7339c-2.5686,4.1714-6.336,8.6231-7.758,13.3971a2.1519,2.1519,0,0,0,.7326,2.3108c4.1474,3.5841,6.1543-4.1969,8.2492-6.3537l-2.7985-2.5915-2.983,6.0317,3.3279,1.7339c1.522-5,5.2192-9.7432,8.0754-13.9648l-3.3279-1.7339c-.2911.7293-5.2749,14.4309-5.059,14.4629l1.66,2.6368c2.45-9.4741,7.9675-18.19,12.6671-26.5678,1.0388-1.8518-1.3052-4.3752-2.7985-2.5914a217.963,217.963,0,0,0-13.0707,17.7709l3.1131,2.2022,11.7632-18.6084a1.9066,1.9066,0,0,0-3.113-2.2022c-3.6493,4.6051-6.1694,9.8515-8.6286,15.2448-.9406,2.063,2.2169,3.6357,3.328,1.7339a189.4214,189.4214,0,0,1,10.7631-16.6436c3.9552-5.3853,8.7912-12.5874,14.836-15.3572l-2.0885-3.2732a70.4062,70.4062,0,0,0-20.3513,26.7012c-1.0011,2.2391,2.0822,3.2987,3.328,1.7339,2.3843-2.9951,4.7154-6.033,6.9446-9.1626,2.2585-3.1708,4.299-7.6054,7.631-9.6181l-2.0885-3.2732a57.8621,57.8621,0,0,0-9.5122,9.2517c-1.5856,1.9333.5138,4.5558,2.4839,2.9808l15.8578-12.6775c1.9428-1.5532-.555-4.5081-2.4839-2.9808a124.3894,124.3894,0,0,0-13.6595,12.5862l3.0133,2.1232c3.0647-7.6647,12.4729-13.84,19.4433-16.542l-1.693-3.5655a41.5759,41.5759,0,0,0-9.9259,8.2347c-1.6856,1.8993.5341,4.4983,2.4839,2.9809a111.5524,111.5524,0,0,0,8.99-7.8c1.7992-1.7363-.6835-4.7182-2.4839-2.9808a111.5555,111.5555,0,0,1-8.99,7.8l2.4839,2.9809a38.4986,38.4986,0,0,1,9.135-7.65,1.9789,1.9789,0,0,0-1.693-3.5655c-8.1017,3.14-17.78,10.0554-21.2931,18.8419-.7379,1.8454,1.717,3.5085,3.0134,2.1232a124.3894,124.3894,0,0,1,13.6595-12.5862l-2.4839-2.9808L653.9564,324.36l2.4839,2.9808a57.8558,57.8558,0,0,1,9.5122-9.2517c1.7346-1.3387-.2488-4.3844-2.0884-3.2731-2.9322,1.7712-4.4573,4.3166-6.42,7.1936-3.0368,4.4513-6.2358,8.7552-9.5757,12.95l3.328,1.7339a66.3065,66.3065,0,0,1,19.2923-24.9859c1.8015-1.4426-.2416-4.1194-2.0884-3.2732-5.5732,2.5536-9.6231,8.1745-13.45,13.0288a176.3984,176.3984,0,0,0-13.57,20.3354l3.328,1.7339a67.3477,67.3477,0,0,1,8.1987-14.3083l-3.113-2.2022-11.7633,18.6084c-1.3643,2.1584,1.6973,4.29,3.1131,2.2022a208.2008,208.2008,0,0,1,12.4415-16.9923l-2.7985-2.5915c-4.868,8.6776-10.554,17.6694-13.0968,27.5043a2.0179,2.0179,0,0,0,1.66,2.6368c1.5555.2309,2.3976-.4244,3.25-1.69,1.061-1.5758,1.47-4.4689,2.0571-6.2383,1.0436-3.144,2.2933-6.209,3.5174-9.2765a1.8888,1.8888,0,0,0-3.3279-1.7339c-3.1186,4.6094-6.8437,9.4426-8.5052,14.9013-.6352,2.0867,2.3,3.8118,3.3279,1.7339l2.9831-6.0316c.9342-1.8891-1.1478-4.291-2.7985-2.5915-.6395.6584-4.6719,5.1279-3.6877,5.9785l.7326,2.3108c1.2836-4.3092,5.0216-8.7145,7.3283-12.4606l-3.328-1.7339a83.5534,83.5534,0,0,1-4.4292,10.0274c-.7357,1.3823-2.11,2.95-2.4838,4.4342-.3907,1.5523-.3741,2.2442.7311,3.4565,2.66,2.9176,6.6863.7327,6.0341-3.1093a1.93,1.93,0,0,0-1.2268-1.4721,25.7221,25.7221,0,0,0-5.634-.8083c-2.3993-.2233-2.6188,3.7849-.2227,4.0079Z"/><path d="M679.5316,309.9328c5.1464-4.7931,14.2446-5.7793,20.5631-8.7358,1.8031-.8437.9918-3.6048-.7352-3.7867a22.1178,22.1178,0,0,0-15.0037,3.694c-1.7868,1.1739-.9251,4.1624,1.2356,3.7427,9.1529-1.7778,16.3788-7.8047,26.04-7.72l-.2777-3.9639c-4.2681.5949-9.9679.7136-13.2655,3.9911-1.3523,1.344-.2254,3.9133,1.6311,3.45,4.9148-1.2255,9.0014-4.495,13.8338-5.8767,4.2794-1.2237,8.5462.4882,12.6376-1.4412,1.6429-.7748,1.1255-3.8927-.7352-3.7867a47.1681,47.1681,0,0,0-15.4344,3.5111c-2.2514.9205-.545,4.4806,1.6931,3.5656a41.1567,41.1567,0,0,1,13.5186-3.0688l-.7352-3.7867c-3.8773,1.8284-9.25.1484-13.4944,1.7013-4.1483,1.5178-7.746,4.1859-12.0622,5.2621l1.6311,3.45c2.5031-2.4879,8.3768-2.6083,11.56-3.052,2.0944-.2919,1.8181-3.9457-.2777-3.9639-10.16-.0886-17.3967,5.9353-27.0406,7.8085l1.2356,3.7427a18.9448,18.9448,0,0,1,13.088-3.2516l-.7352-3.7867c-6.8729,3.216-15.5821,3.9449-21.3539,9.32-1.8286,1.7031.6569,4.6824,2.4839,2.9808Z"/><path d="M726.0819,293.2706c12.96-1.63,25.971-3.4859,38.9877-4.4276,2.3742-.1717,2.6256-4.1817.2227-4.0079-13.3528.966-26.6941,2.8431-39.9887,4.5155-2.3889.3006-1.6008,4.2193.7783,3.92Z"/><path d="M765.08,288.65c7.0782.3218,14.1819.2654,21.2481.8237,7.0279.5553,13.7173,1.9918,20.8094,1.5581,2.38-.1455,2.6288-4.1551.2228-4.008-7.1027.4344-13.7731-1.002-20.8095-1.558-7.0664-.5583-14.17-.502-21.2481-.8237-2.4038-.1093-2.6324,3.8984-.2227,4.0079Z"/><path d="M805.5766,292.1524c9.6164-.3508,18.4741,4.0147,27.5736,6.6108a126.0336,126.0336,0,0,1,22.3185,8.2953c2.1762,1.0864,3.3608-2.7348,1.2078-3.81-7.95-3.9686-15.9012-6.2156-24.2437-8.8885-8.6619-2.7752-17.43-6.5517-26.6335-6.216-2.3893.0872-2.6338,4.0959-.2227,4.008Z"/><path d="M873.8,318.52c-4.0766-3.5393-8.3314-6.9048-12.7135-10.0009a37.9885,37.9885,0,0,0-4.466-2.6949c-1.9269-.9993-6.5392-2.2024-7.7536-3.975l-.5529,3.1264.1705-.0791-2.5155-.8609.0644.1328c1.1057,2.2826,4.4483.4486,3.3379-1.8436l-.0644-.1329a1.8438,1.8438,0,0,0-2.5155-.8609l-.17.0791c-1.202.5575-1.211,2.1657-.5529,3.1264,2.2318,3.2576,8.6126,4.4807,11.7332,6.5086a128.6761,128.6761,0,0,1,13.9212,10.8308c1.8673,1.6213,3.927-1.75,2.0776-3.3559Z"/><path d="M872.32,322.175c2.3571,1.256,5.3228,2.2335,6.82,4.6668,1.2307,2.0007,2.0767,3.6311,4.1932,4.6594,2.2045,1.0709,3.333-2.7212,1.2078-3.81-2.7709-1.4193-5.4651-2.9883-8.1019-4.6725-2.06-1.3159-4.1427,2.037-2.0777,3.356,2.916,1.8626,5.9084,3.557,8.9718,5.1261l1.2078-3.81c-1.7856-.8675-2.4273-3.8017-3.9011-5.1907-1.7563-1.6553-4.1664-2.576-6.2418-3.6819-2.1277-1.1337-4.2241,2.2122-2.0777,3.356Z"/><path d="M881.0742,331.783a36.4735,36.4735,0,0,1,8.409,9.2628l2.7988-2.6872c-1.8646-2.2566-3.6462-4.6882-6.1724-6.1244-1.7369-.9876-4.0533,1.3035-2.4383,3.0216a99.67,99.67,0,0,1,7.5065,8.9933c1.4944,2.0195,4.2865-.6768,2.7989-2.6873a99.6784,99.6784,0,0,0-7.5065-8.9933l-2.4383,3.0216c2.2509,1.28,3.79,3.4449,5.4513,5.4557,1.6395,1.9841,4.12-.6318,2.7988-2.6872a39.3916,39.3916,0,0,0-9.13-9.9316c-1.9532-1.5076-4.0213,1.8558-2.0777,3.356Z"/><path d="M899.1273,352.1347c-2.8433-3.7072-6.2085-7.3131-7.8252-11.8608l-2.7078,2.6c3.45,2.1414,5.3645,6.78,7.378,10.347,1.0168,1.8013,4.1793.952,3.5-1.3545a21.3861,21.3861,0,0,0-1.86-4.5277l-3.0684,2.2654a18.4,18.4,0,0,1,3.7773,10.99l3.2672-1.24a10.5957,10.5957,0,0,1-2.99-5.0917c-.6506-2.4644-4.3184-1.6239-3.6612.8653a14.5055,14.5055,0,0,0,3.8527,6.9136c1.0615,1.0581,3.3063.6608,3.2672-1.24a23.0581,23.0581,0,0,0-4.7139-13.8847c-1.3152-1.7406-4.1683.3033-3.0684,2.2654a16.349,16.349,0,0,1,1.5364,3.5494l3.5-1.3545c-2.3431-4.1509-4.5888-9.3457-8.6382-11.8593-1.6963-1.0529-3.3666.7468-2.7078,2.6,1.7309,4.869,5.3248,8.7415,8.3642,12.7044,1.5273,1.9914,4.3215-.7019,2.7989-2.6872Z"/><path d="M905.16,362.4968a12.1609,12.1609,0,0,0-3.1555-4.36,1.8431,1.8431,0,0,0-2.81,1.0451c-.8515,3.3933,1.5159,8.0161,2.4582,11.2261l3.23-1.7763c-1.2665-1.98-1.4621-4.4311-1.6092-6.7641-.1571-2.492-3.6068-2.8684-3.7355-.2076-.1656,3.4247.9415,6.9013,1.6222,10.2178l3.5-1.3544c-1.725-3.7515-1.4119-8.0852-4.39-11.1459-1.4222-1.4617-4.2579.2052-3.0684,2.2654,2.9026,5.0271,5.67,9.3627,4.7781,15.6-.3654,2.5546,3.3724,2.746,3.7355.2076.99-6.924-1.9174-12.0085-5.1757-17.6516l-3.0684,2.2655c2.5479,2.6187,2.3382,7.0123,3.8509,10.3022.9326,2.0284,3.9571.8746,3.5-1.3545-.5915-2.8815-1.6918-6.1711-1.548-9.1449l-3.7355-.2076c.2252,3.5707.6341,6.6711,2.5458,9.659,1.0439,1.6315,3.773.0732,3.23-1.7763l-1.4527-4.9486c-.2812-.958-1.3718-3.1588-1.124-4.1465l-2.81,1.0451a7.8252,7.8252,0,0,1,1.8953,2.8478c1,2.3423,4.3376.4988,3.3379-1.8437Z"/><path d="M901.9065,376.0629a18.8768,18.8768,0,0,0,3.9057,1.9563c1.4827.5341,2.5444-.8774,2.4345-2.3374a13.843,13.843,0,0,0-1.732-5.725,1.9067,1.9067,0,0,0-3.3379,1.8437,11.08,11.08,0,0,1,1.4087,4.7466L907.02,374.21a14.4448,14.4448,0,0,1-3.0358-1.5027c-2.0506-1.3362-4.1316,2.0176-2.0777,3.356Z"/><path d="M906.7519,376.2212a13.9212,13.9212,0,0,1-3.8128.6772,1.9912,1.9912,0,0,0-1.9791,1.9,1.958,1.958,0,0,0,1.7564,2.1078,17.4887,17.4887,0,0,0,4.8137-.7652,2.08,2.08,0,0,0,1.4415-2.3926,1.8755,1.8755,0,0,0-2.22-1.5273Z"/><path d="M630.2991,358.0575c-.3822,2.4919,1.47,3.5293,3.4379,3.8982l-1.288-.66.3284.3162,1.01-3.3036a1.7162,1.7162,0,0,1-1.2559-.1269l-3.0684,2.2655a11.19,11.19,0,0,0,8.0728,3.5806c3.7872.1045,4.5439-3.1786,5.7217-6.3812a1.8816,1.8816,0,1,0-3.5429-1.2656c-.2806.7631-.6236,2.6631-1.1786,3.2048-.6263.6112-1.0979.439-1.8781.3122a7.1,7.1,0,0,1-4.396-2.1381,1.9267,1.9267,0,0,0-3.0684,2.2654c1.2145,2.2056,3.1445,2.4391,5.3721,2.2033,1.3443-.1423,1.9993-2.3514,1.01-3.3036-.4247-.4089-1.426-1.4138-1.5418-.6593.3909-2.5489-3.3474-2.7379-3.7354-.2075Z"/><path d="M471.3943,595.716c-2.3341-16.6527-3.0976-28.11-3.9062-40.24-.7512-11.273-1.5277-22.9294-3.6722-39.1221a393.3916,393.3916,0,0,0-8.9991-46.82c-1.9556-8.104-3.9772-16.4844-6.28-27.8235a667.7256,667.7256,0,0,1-12.8-114.4612l-.0842-3.0983-17.3708,6.9531L161.4354,403.92l1.1006,4.2412.1414-.04c5.2361,21.6646,10.36,43.5284,15.2367,65.0668,11.1867,49.4112,18.9779,87.7079,25.2382,118.48,4.4757,22,8.8982,44.269,13.15,66.2235a179.4361,179.4361,0,0,0-16.6659,8.189q-.4878.2706-.9724.5459l-.72.4077-.2659.8093a16.48,16.48,0,0,0-.6737,2.8923c-.5541,4.0083.57,6.9653,1.8726,10.3895a55.9525,55.9525,0,0,1,2.663,8.5361c.1357.6234.3228,1.6294.5558,2.9893.3317,1.9389.5946,3.8446,1.0715,7.3044.4428,3.2108,1.0677,7.7437,2.1,14.8583,1.4246,9.8184,2.0648,13.7963,2.4469,16.1727.3542,2.1993.5006,3.11.8685,6.1629.1872,1.5532.342,2.9153.4818,4.1487a84.1107,84.1107,0,0,0,1.8786,11.6958,77.3066,77.3066,0,0,0,5.6112,15.5225l.9981,2.0463,50.226-29.7515c1.2342,11.3814,2.4527,22.7258,3.6375,33.8771l.3545,3.3354,2.7836-1.6726a842.3352,842.3352,0,0,1,90.3849-47.2755c5.3005-2.3638,10.4793-4.6018,15.4864-6.7652,17.18-7.4245,33.4064-14.4365,55.2363-26.5568a527.7119,527.7119,0,0,0,48.9857-30.8248l1.2737-.9041-.44-1.5426A494.44,494.44,0,0,1,471.3943,595.716Z"/><path class="cls-133" d="M219.3335,764.4562a72.7545,72.7545,0,0,1-4.3165-12.55A79.5813,79.5813,0,0,1,213.24,740.78c-.1412-1.2427-.2971-2.6151-.4857-4.18-.3786-3.1422-.5293-4.0793-.8935-6.343-.38-2.3627-1.0171-6.3187-2.4364-16.1015-1.03-7.1-1.6537-11.6227-2.0955-14.8268-.4835-3.5074-.75-5.44-1.0938-7.452-.2481-1.4477-.4431-2.4924-.596-3.1929a60.64,60.64,0,0,0-2.8548-9.1817c-1.2116-3.1861-2.0122-5.2905-1.6186-8.1374a11.8233,11.8233,0,0,1,.2566-1.2985c.0633-.0355.127-.071.1908-.1057a174.978,174.978,0,0,1,17.8738-8.6741l1.63-.6795-.3481-1.7972c-4.3607-22.5467-8.9038-45.4438-13.5043-68.0554-6.2643-30.7938-14.0616-69.1177-25.2593-118.5776-4.8867-21.5846-10.0218-43.4957-15.27-65.2058L379.29,346.712,189.841,422.5438l.4055,1.8588c23.4078,107.3274,35.7962,172.54,36.8225,193.8264.3262,6.7738,1.319,13.5368,2.2789,20.0776.7219,4.9211,1.4687,10.0092,1.9146,15.0133q.1649,1.8587.3176,3.6576c1.2022,14.004,2.0712,24.1218,8.3545,25.849,1.8524.5092,3.071.04,12.0308-3.78,3.1273-1.3339,6-2.5719,8.5783-3.6917,1.8664,16.5752,3.7206,33.27,5.5157,49.6679q.6041,5.5192,1.2041,11.0419Z"/><path class="cls-133" d="M480.7554,660.4543a523.7618,523.7618,0,0,1-47.3238,29.6807c-21.6518,12.021-37.7872,18.9939-54.87,26.3758-5.0187,2.1687-10.2077,4.411-15.5309,6.7846a844.5174,844.5174,0,0,0-88.0471,45.842c-1.6234-15.2517-3.3056-30.8274-5.0044-46.3518-1.9-17.3558-3.8658-35.0441-5.8439-52.5741l-.3263-2.8935-2.5725,1.1241c-3.1812,1.39-6.9179,3.0073-11.1169,4.7973-5.479,2.3371-8.8472,3.744-9.3732,3.5991-3.4293-.9425-4.3474-11.643-5.2355-21.99q-.1556-1.8042-.32-3.6729c-.4576-5.1334-1.2134-10.2879-1.9447-15.2717-.9445-6.4321-1.92-13.0824-2.2361-19.6328-1.0321-21.415-13.3182-86.2572-36.5167-192.7229L419.3329,333.55l12.0836-3.4256a670.4929,670.4929,0,0,0,12.75,110.7624c2.3189,11.42,4.4419,20.2212,6.3155,27.9858a389.4838,389.4838,0,0,1,8.9107,46.3474c2.125,16.0446,2.897,27.6258,3.6431,38.825.7789,11.6777,1.5836,23.7535,3.94,40.5705A499.3016,499.3016,0,0,0,480.7554,660.4543Z"/><path class="cls-134" d="M460.9652,501.6611c2.9052-16.3349,9.6431-26.0465,13.9924-31.1057a69.0045,69.0045,0,0,1,19.606-15.4015c7.7972-3.81,15.72-5.5175,25.488-12.9646a35.5954,35.5954,0,0,0,5.57-5.0847,37.6259,37.6259,0,0,0,8.2561-17.2969"/><path class="cls-135" d="M528.4825,414.6971a43.1609,43.1609,0,0,1-6.6637-8.0658c-3.0708-4.875-6.483-10.2918-4.56-12.7342,1.3452-1.7086,8.4788-2.7449,6.3259-2.1547h0a46.1006,46.1006,0,0,1,3.5775,5.7732c1.9155,3.93,1.8444,7.2045,2.1189,7.1819.388-.0319-.6384-6.4782,1.5507-13.8023a9.71,9.71,0,0,1,3.4546-5.5339c1.7208-1.2351,4.4706-2.1432,5.5428-1.1787.8.7194.1232,1.9919-.6141,6.0863-.4729,2.6262-.1091,1.6276-.9366,7.7161-.6419,4.7226-1.1027,7.1032-.8291,7.1728.6039.1534,1.7746-11.7144,9.5809-15.6256.7187-.36,3.6208-1.8142,5.4353-.6354,1.7141,1.1134,1.6618,4.0592,1.1977,5.8744-.6108,2.3889-2.0011,3.0794-4.8058,6.3995-2.88,3.4086-5.2459,6.21-4.4527,7.5964,1.222,2.1362,8.58-1.466,11.47,1.6664,1.5711,1.703,1.4329,4.9752-.046,6.1967-.9925.82-2.0816.2974-5.896-.0183-3.6691-.3036-6.7745-.5606-10.0876.2948-3.2617.8422-3.6093,1.9581-5.65,1.722C532.7177,418.4579,531.4066,417.7012,528.4825,414.6971Z"/><path class="cls-134" d="M223.5656,572.669c-16.0835,11.5593-23.3423,23.3439-26.7379,30.3058a78.6534,78.6534,0,0,0-7.4112,27.4342c-.4783,9.6756,1.3423,18.3532-2.1089,31.901a41.776,41.776,0,0,1-2.8616,8.1725,48.2864,48.2864,0,0,1-14.6495,17.3182"/><path class="cls-135" d="M164.7793,684.5387a48.9094,48.9094,0,0,0-11.6641-2.2313c-6.61-.4107-13.9546-.8671-15.6752,2.32-1.2038,2.23.97,9.7761.61,7.3506h0a54.23,54.23,0,0,0,7.8007.4284c5.0711-.2179,8.53-2.034,8.6325-1.7528.1443.3974-7.2016,2.829-14.0054,8.8809-1.923,1.7105-3.704,3.6224-4.3131,6.3379-.5261,2.3457-.23,5.5257,1.291,6.0625,1.1347.4,2.1806-.9415,6.2078-3.8479,2.5831-1.8641,1.6855-.9748,7.7975-5.033,4.741-3.1479,7.0677-4.8692,7.2677-4.638.4412.51-11.6759,7.9869-12.2584,17.7255-.0536.8967-.27,4.5172,1.8209,5.6674,1.9752,1.0866,5.0924-.5357,6.8147-1.9587,2.2666-1.8727,2.3639-3.604,4.615-8.1241,2.3112-4.6407,4.21-8.4544,6.0537-8.4163,2.84.0588,2.3805,9.1928,7.0492,10.3554,2.5382.6321,5.9639-1.2485,6.5867-3.35.418-1.41-.64-2.1992-2.73-5.77-2.01-3.4351-3.7118-6.3424-4.3225-10.0466-.6013-3.6466.4288-4.5825-.7611-6.4575C170.7365,686.6851,169.3269,685.8033,164.7793,684.5387Z"/><path class="cls-134" d="M357.4856,727.3355c-3.4015,32.8866-7.26,59.4322-10.3523,78.5141-2.3581,14.5525-4.9663,29.0609-11.4535,30.1466-6.0844,1.0182-12.0719-10.3586-15.9072-15.6387-10.6692-14.6877-37.4629-27.32-108.7411-17.3889"/><path class="cls-136" d="M201.58,841.4018c-1.7109-.1416-2.5548-2.93-3.292-5.3665-2.1335-7.0506-.1487-11.5117.4965-17.1849,1.4257-12.5368-5.1976-17.7367-1.1549-20.1693,3.7442-2.253,13.0852.005,16.8659,4.5264,1.7223,2.06,2.3413,4.65-1.3221,15.6926C210.4407,827.1387,205.5985,841.7345,201.58,841.4018Z"/><path class="cls-137" d="M309.1646,551.7838c-11.4707,0-21.44-13.5195-22.6992-30.7793-1.3056-17.9053,7.2774-33.2393,19.1319-34.1826.38-.0313.7607-.0459,1.1386-.0459,11.47,0,21.44,13.5195,22.6983,30.7793,1.3056,17.9052-7.2774,33.2392-19.1319,34.1826C309.9225,551.7691,309.5416,551.7838,309.1646,551.7838Z"/><path d="M306.7354,488.7759c10.2537,0,19.5418,12.9757,20.7044,28.925,1.2048,16.5271-6.7158,31.2015-17.2959,32.0441-.3247.0258-.6541.039-.979.039-10.2539,0-19.542-12.9757-20.7046-28.9251-1.2051-16.527,6.7156-31.2015,17.2959-32.044.3247-.0259.654-.039.979-.039h0m0-4q-.6456,0-1.2966.0516c-12.9673,1.0327-22.355,17.2947-20.9678,36.3223,1.3406,18.3909,12.2563,32.6342,24.6941,32.6342q.6456,0,1.2966-.0516c12.9671-1.0327,22.3548-17.2947,20.9678-36.3223-1.3408-18.3911-12.2566-32.6344-24.6941-32.6342Z"/><path d="M295.9175,560.4348a36.4815,36.4815,0,0,0,25.8608.193c1.8-.6546,1.0229-3.5548-.7975-2.8929a33.9226,33.9226,0,0,1-24.2658-.1929c-1.8058-.688-2.5868,2.2111-.7975,2.8928Z"/><path d="M400.8367,517.8254a34.6121,34.6121,0,0,1-24.2647,17.9225c-1.8953.3547-1.0926,3.2465.7975,2.8928A37.4807,37.4807,0,0,0,403.4272,519.34c.9214-1.6971-1.6679-3.2132-2.5905-1.5141Z"/><ellipse class="cls-138" cx="319.2811" cy="510.7545" rx="8.8322" ry="12.303" transform="translate(-32.8161 22.0438) rotate(-3.7611)"/><path d="M350.7336,537.7845c1.14,5.301,5.4914,9.2006,7.879,13.9724a31.5907,31.5907,0,0,1,3.3075,9.3995c.6543,4.9229-2.3238,7.0017-4.1646,11.0128-.8,1.7425,1.7853,3.2687,2.59,1.5142,1.2447-2.7123,3.6055-4.8888,4.4335-7.7938.8265-2.9.0361-6.0006-.8167-8.7856a44.0209,44.0209,0,0,0-4.4472-9.9177c-2.0584-3.3873-5.0331-6.22-5.889-10.1993-.4058-1.8865-3.2985-1.0882-2.8929.7975Z"/><path d="M380.4351,444.3454A44.3668,44.3668,0,0,1,402.4514,464.31c.9283,1.6934,3.52.1814,2.59-1.5141a47.5719,47.5719,0,0,0-23.8092-21.3431c-1.7826-.7368-2.56,2.1645-.7975,2.8928Z"/><path d="M276.7852,471.949a50.978,50.978,0,0,0-10.91,30.8466c-.039,1.9312,2.961,1.9311,3,0A47.6576,47.6576,0,0,1,278.9065,474.07c1.1773-1.5029-.9313-3.64-2.1213-2.1213Z"/><path class="cls-137" d="M375.3629,527.7555c-11.0947-.001-21.375-12.9746-23.4033-29.5342-2.1836-17.8154,5.64-33.5938,17.4375-35.1729a14.3974,14.3974,0,0,1,1.9-.1269c11.0947,0,21.375,12.9726,23.4043,29.5342,2.1826,17.8154-5.6407,33.5937-17.4385,35.1728a14.3815,14.3815,0,0,1-1.8985.127Z"/><path d="M371.2977,464.9215c10.1025,0,19.511,12.2013,21.4192,27.7774,2.0151,16.4493-5.1831,31.5374-15.7183,32.9473a12.3576,12.3576,0,0,1-1.6355.1091c-10.1023,0-19.5107-12.2013-21.4189-27.7774-2.0152-16.4492,5.1828-31.5374,15.718-32.9473a12.3576,12.3576,0,0,1,1.6355-.1091m0-4a16.2912,16.2912,0,0,0-2.166.1444c-12.8994,1.7264-21.4766,18.47-19.1577,37.3984,2.1884,17.8642,13.3027,31.291,25.3891,31.291a16.29,16.29,0,0,0,2.166-.1444c12.8995-1.7264,21.4769-18.47,19.158-37.3984-2.1885-17.8641-13.3027-31.291-25.3894-31.291Z"/><ellipse class="cls-138" cx="382.3577" cy="484.7237" rx="8.8357" ry="12.2981" transform="translate(-50.9069 44.9098) rotate(-6.3033)"/><path d="M292.7352,658.869l-13.2061-35.5455,2.1445-.87,11.5581,16.004c2.677,3.7082,4.9486,7.0951,7.0234,10.4407l.0253-.07c-1.944-4.6737-3.5959-8.9793-5.6534-14.5173l-5.5253-14.8719,1.8519-.7516L304.16,654.2322l-1.9868.8064L290.64,638.9633c-2.5306-3.5252-5.0552-7.173-7.2533-10.7119l-.0484.0807c1.7782,4.4366,3.4107,8.69,5.6053,14.597l5.643,15.1886Z"/><path d="M307.3738,653.17l-.3239-5.2091c-2.44-2.6513-4.9289-7.042-6.8884-12.3163-4.1733-11.2329-3.8493-19.8009.125-21.4139,1.3995-.568,3.0617-.15,4.8311,1.2563l-.2549-4.8124,1.9024,1.4124.2848,5.1038c2.46,2.7035,4.8844,7.0609,6.8239,12.2814,4.6047,12.3939,3.6623,19.9989.0274,21.4742-1.445.5865-3.15.1245-4.92-1.2814l.263,5.1135Zm-1.9729-33.9138c-1.3357-1.2177-2.6365-1.7825-3.7655-1.3242-3.3189,1.347-2.3249,9.1977.4376,16.6333a39.3465,39.3465,0,0,0,4.675,9.0881l.003-.0623Zm3.2979,26.6393c1.3525,1.333,2.566,1.8721,3.7852,1.3773,3.1833-1.292,2.4173-8.8106-.5609-16.8266a38.43,38.43,0,0,0-4.49-8.7984l-.0675.0274Z"/><path d="M334.1381,640.2441a8.5732,8.5732,0,0,1-3.9488,3.8482c-2.3028.9347-4.7087.3336-7.433-2.3848-2.4073-2.4214-4.9829-6.8378-7.04-12.3758-3.9162-10.6091-3.6806-19.626,1.4227-21.6973a5.4913,5.4913,0,0,1,4.4.0953l.9175,3.9365a4.6773,4.6773,0,0,0-3.9325-.1637c-3.703,1.5029-4.12,7.863-.8088,16.7755,3.35,9.0179,7.6548,13.4006,11.2,11.9619a3.7766,3.7766,0,0,0,2.267-2.0119l-3.9385-10.6009-3.0938,1.2557-1.3714-3.6913,5.0125-2.0344Z"/><path d="M339.4156,620.7444l-5.9157,2.401,4.7615,12.8159,6.5931-2.6759,1.43,3.85-8.5572,3.473-13.206-35.5455,8.2184-3.3356,1.43,3.85-6.2543,2.5384,4.1736,11.2337,5.9156-2.401Z"/><path d="M348.834,636.1l-13.2061-35.5455,2.1445-.87,11.5581,16.0041c2.677,3.7082,4.9486,7.0951,7.0234,10.4407l.0253-.07c-1.944-4.6736-3.5959-8.9792-5.6534-14.5172L345.2005,596.67l1.8519-.7516,13.2061,35.5455-1.9869.8063-11.533-16.0752c-2.5306-3.5252-5.0552-7.1731-7.2533-10.7119l-.0484.0807c1.7782,4.4365,3.4107,8.69,5.6053,14.5969l5.643,15.1886Z"/><path d="M350.6584,595a9.6281,9.6281,0,0,1,3.3153-2.1949,4.4767,4.4767,0,0,1,5.1374.8886,13.3579,13.3579,0,0,1,3.5957,5.7632c1.2734,3.4275,1.42,6.8277.3256,8.8493l.0394.1061c1.7584.2569,4.49,2.3651,6.45,7.6386a18.8568,18.8568,0,0,1,1.3584,7.6418,5.9553,5.9553,0,0,1-4.0264,5.4582,10.9317,10.9317,0,0,1-3.2045.8149Zm7.372,13.7587,1.7837-.7239c2.077-.843,2.3559-3.8689,1.0821-7.2972-1.5479-4.1664-3.51-5.2511-5.4968-4.4447a4.2439,4.2439,0,0,0-1.6209,1.0215Zm6.3288,17.0347a4.9852,4.9852,0,0,0,1.7264-.4583c2.0322-.8248,3.26-3.3252,1.3393-8.4942-1.8025-4.8515-4.3309-6.1319-6.476-5.2613l-1.6254.66Z"/><path d="M364.6817,588.7629l13.2061,35.5455-1.9641.7971L362.7176,589.56Z"/><path d="M368.1129,587.37l1.9641-.7971,11.7758,31.6958,6.5022-2.639,1.43,3.85-8.4663,3.4362Z"/><path d="M378.7677,583.0459l1.9641-.7972,11.7759,31.6959,6.5022-2.6391,1.43,3.85-8.4663,3.4361Z"/><path d="M404.3167,594.4032l-5.9157,2.4009,4.7615,12.816,6.5931-2.6759,1.43,3.85-8.5571,3.4731-13.2061-35.5455,8.2184-3.3356,1.43,3.85-6.2544,2.5385,4.1736,11.2337,5.9157-2.401Z"/><path d="M400.7053,574.688a13.9433,13.9433,0,0,1,3.9024-2.4332c2.8226-1.1456,5.4-.432,7.81,1.9283,2.4316,2.35,4.75,6.1438,6.886,11.8917,2.1555,5.8018,3.1512,10.8594,2.9437,14.7066-.188,3.8995-1.87,6.6463-4.8279,7.8469a14.9764,14.9764,0,0,1-3.7236,1.0255Zm13.6419,30.635a5.9081,5.9081,0,0,0,2.0848-.5426c4.1994-1.7044,4.4424-8.1151.8763-17.7134-3.0925-8.3943-7.1037-12.8961-11.2584-11.21a5.672,5.672,0,0,0-2.1265,1.409Z"/><path d="M430.4578,583.7934l-5.9157,2.4009,4.7615,12.816,6.5931-2.6759,1.43,3.85-8.5572,3.4731-13.206-35.5455,8.2184-3.3356,1.43,3.85-6.2543,2.5385,4.1736,11.2337,5.9156-2.401Z"/><path d="M426.8464,564.0782a10.2841,10.2841,0,0,1,3.4963-2.2684,4.633,4.633,0,0,1,5.48,1.1141,16.9773,16.9773,0,0,1,3.7045,6.2649c1.7436,4.693,1.6356,8.3175.5028,10.2346l.0585.1576c1.5272.4729,3.1673,2.7208,4.9,6.2654,2.3382,4.7561,3.9733,8.0377,4.7986,9.28l-2.0316.8245c-.6207-.9009-2.096-3.8227-4.1708-8.0788-2.2737-4.7212-3.7726-6.2372-5.6149-5.6708l-1.8512.7513,5.7213,15.3993-1.9641.7971Zm7.9792,15.3933,2.01-.8156c2.1-.8522,2.4327-4.0823.9239-8.1433-1.7045-4.5878-3.8715-6.0149-5.9686-5.2239a4.1763,4.1763,0,0,0-1.7848,1.2092Z"/><path class="cls-134" d="M414.4891,703.1353c-7.491,63.7455-5.2107,87.208-.7454,95.31a32.7646,32.7646,0,0,1,4.45,14.7609,33.8409,33.8409,0,0,1-4.0595,17.0608c-4.2381,8.4458-7.3079,32.004-3.6155,95.33"/><path class="cls-136" d="M423.9985,960.34c-1.4675.8909-3.7892-.87-5.8173-2.4072-5.87-4.4507-6.8857-9.2265-9.6978-14.1958-6.2142-10.9812-14.629-11.2959-12.7878-15.64,1.7053-4.0232,10.59-7.686,16.306-6.25,2.6041.6543,4.6271,2.3862,8.1529,13.4736C422.7849,943.5926,427.4451,958.2476,423.9985,960.34Z"/></svg>
