<svg id="Layer_1" data-name="Layer 1" xmlns="http://www.w3.org/2000/svg" xmlns:xlink="http://www.w3.org/1999/xlink" viewBox="0 0 1100 1020"><defs><style>.cls-1,.cls-134{fill:none;}.cls-2,.cls-53{fill:gray;}.cls-2{opacity:0.7;}.cls-134,.cls-135,.cls-136,.cls-138,.cls-3,.cls-4,.cls-5{stroke:#000;stroke-miterlimit:10;}.cls-3,.cls-4,.cls-5{stroke-width:7px;}.cls-3{fill:url(#linear-gradient);}.cls-4{fill:url(#White_Black);}.cls-6{clip-path:url(#clip-path);}.cls-7{fill:#afafaf;}.cls-8{fill:#aeaeae;}.cls-9{fill:#adadad;}.cls-10{fill:#acacac;}.cls-11{fill:#ababab;}.cls-12{fill:#aaa;}.cls-13{fill:#a9a9a9;}.cls-14{fill:#a8a8a8;}.cls-15{fill:#a7a7a7;}.cls-16{fill:#a6a6a6;}.cls-17{fill:#a5a5a5;}.cls-18{fill:#a4a4a4;}.cls-19{fill:#a3a3a3;}.cls-20{fill:#a2a2a2;}.cls-21{fill:#a1a1a1;}.cls-22{fill:#a0a0a0;}.cls-23{fill:#9f9f9f;}.cls-24{fill:#9e9e9e;}.cls-25{fill:#9d9d9d;}.cls-26{fill:#9c9c9c;}.cls-27{fill:#9b9b9b;}.cls-28{fill:#9a9a9a;}.cls-29{fill:#999;}.cls-30{fill:#989898;}.cls-31{fill:#979797;}.cls-32{fill:#969696;}.cls-33{fill:#959595;}.cls-34{fill:#949494;}.cls-35{fill:#939393;}.cls-36{fill:#929292;}.cls-37{fill:#919191;}.cls-38{fill:#909090;}.cls-39{fill:#8f8f8f;}.cls-40{fill:#8e8e8e;}.cls-41{fill:#8d8d8d;}.cls-42{fill:#8c8c8c;}.cls-43{fill:#8a8a8a;}.cls-44{fill:#898989;}.cls-45{fill:#888;}.cls-46{fill:#878787;}.cls-47{fill:#868686;}.cls-48{fill:#858585;}.cls-49{fill:#848484;}.cls-50{fill:#838383;}.cls-51{fill:#828282;}.cls-52{fill:#818181;}.cls-54{fill:#7f7f7f;}.cls-55{fill:#7e7e7e;}.cls-56{fill:#7d7d7d;}.cls-57{fill:#7c7c7c;}.cls-58{fill:#7b7b7b;}.cls-59{fill:#7a7a7a;}.cls-60{fill:#797979;}.cls-61{fill:#787878;}.cls-62{fill:#777;}.cls-63{fill:#767676;}.cls-64{fill:#757575;}.cls-65{fill:#747474;}.cls-66{fill:#737373;}.cls-67{fill:#727272;}.cls-68{fill:#717171;}.cls-69{fill:#707070;}.cls-70{fill:#6f6f6f;}.cls-71{fill:#6e6e6e;}.cls-72{fill:#6d6d6d;}.cls-73{fill:#6c6c6c;}.cls-74{fill:#6b6b6b;}.cls-75{fill:#6a6a6a;}.cls-76{fill:#696969;}.cls-77{fill:#686868;}.cls-78{clip-path:url(#clip-path-2);}.cls-79{clip-path:url(#clip-path-3);}.cls-80{clip-path:url(#clip-path-4);}.cls-81{fill:#676767;}.cls-82{fill:#666;}.cls-83{fill:#656565;}.cls-84{fill:#646464;}.cls-85{fill:#636363;}.cls-86{fill:#626262;}.cls-87{fill:#616161;}.cls-88{fill:#606060;}.cls-89{fill:#5f5f5f;}.cls-90{fill:#5e5e5e;}.cls-91{fill:#5d5d5d;}.cls-92{fill:#5c5c5c;}.cls-93{fill:#5b5b5b;}.cls-94{fill:#5a5a5a;}.cls-95{fill:#585858;}.cls-96{fill:#575757;}.cls-97{fill:#565656;}.cls-98{fill:#555;}.cls-99{fill:#545454;}.cls-100{fill:#535353;}.cls-101{fill:#525252;}.cls-102{fill:#515151;}.cls-103{fill:#505050;}.cls-104{fill:#4f4f4f;}.cls-105{fill:#4e4e4e;}.cls-106{fill:#4d4d4d;}.cls-107{fill:#4c4c4c;}.cls-108{fill:#4b4b4b;}.cls-109{fill:#4a4a4a;}.cls-110{fill:#494949;}.cls-111{fill:#484848;}.cls-112{fill:#474747;}.cls-113{fill:#464646;}.cls-114{fill:#454545;}.cls-115{fill:#444;}.cls-116{fill:#434343;}.cls-117{fill:#424242;}.cls-118{fill:#414141;}.cls-119{fill:#404040;}.cls-120{fill:#3f3f3f;}.cls-121{fill:#3e3e3e;}.cls-122{fill:#3d3d3d;}.cls-123{fill:#3c3c3c;}.cls-124{fill:#3b3b3b;}.cls-125{fill:#3a3a3a;}.cls-126{fill:#393939;}.cls-127{fill:#383838;}.cls-128{fill:#373737;}.cls-129{fill:#363636;}.cls-130{fill:#353535;}.cls-131{fill:#343434;}.cls-132{fill:#333;}.cls-133{fill:#fff08a;}.cls-134,.cls-135,.cls-136{stroke-width:5px;}.cls-135,.cls-137{fill:#fff;}</style><linearGradient id="linear-gradient" x1="468.7812" y1="705.8384" x2="1082.7683" y2="705.8384" gradientUnits="userSpaceOnUse"><stop offset="0" stop-color="#b3b3b3"/><stop offset="1" stop-color="#666"/></linearGradient><linearGradient id="White_Black" x1="466.9531" y1="424.7667" x2="1082.1098" y2="424.7667" gradientUnits="userSpaceOnUse"><stop offset="0" stop-color="#fff"/><stop offset="1"/></linearGradient><clipPath id="clip-path"><ellipse class="cls-1" cx="775.2353" cy="418.9865" rx="29.9751" ry="313.5971" transform="translate(351.4332 1191.5998) rotate(-89.6435)"/></clipPath><clipPath id="clip-path-2"><path class="cls-1" d="M1088.7871,439.4694a23.6673,23.6673,0,0,1-3.4913,1.95c-4.176,2-10.3888,3.9342-18.465,5.7473-15.6362,3.51-38.1193,6.6124-66.8242,9.22-58.8785,5.3485-137.4794,8.0416-221.325,7.5828s-162.9256-4.0123-222.6737-10.0089c-29.1293-2.9229-52.1066-6.2742-68.2935-9.959-8.3617-1.9033-14.8758-3.9055-19.3615-5.9543-4.1743-1.905-11.9443-5.4513-13.12-20.8093-1.1754-15.36,6.0608-18.8229,9.9417-20.6843,4.1768-2.0008,10.3888-3.9342,18.4649-5.7473,15.6371-3.5111,38.12-6.613,66.8251-9.2205,58.8776-5.3479,137.4794-8.0416,221.3251-7.5828s162.9258,4.0133,222.6727,10.01c29.1293,2.9229,52.1066,6.2742,68.2935,9.959,8.3617,1.9033,14.8758,3.9055,19.3615,5.9543,4.1744,1.905,11.9443,5.4513,13.12,20.8093C1096.1093,432.1122,1092.3651,436.9633,1088.7871,439.4694ZM503.8614,417.5031c48.213,8.1173,139.7261,15.7525,272.5227,16.4778,132.7837.7257,223.2111-5.9147,270.2236-13.51-48.2131-8.1173-139.7253-15.7531-272.521-16.479S550.8706,409.9066,503.8614,417.5031Z"/></clipPath><clipPath id="clip-path-3"><ellipse class="cls-1" cx="775.1554" cy="417.4549" rx="21.3925" ry="305.2258" transform="translate(353.0365 1190.0804) rotate(-89.6547)"/></clipPath><clipPath id="clip-path-4"><ellipse class="cls-1" cx="773.0814" cy="399.2093" rx="23.5104" ry="313.8161" transform="translate(369.1954 1169.8577) rotate(-89.6528)"/></clipPath></defs><title>skrald1</title><ellipse class="cls-2" cx="569.8847" cy="972.7766" rx="529.6622" ry="47"/><path class="cls-3" d="M1069.04,412.872s9.8148,5.48,13.07,11.8826c.3086.6071,1.3133,39.1975,0,70.3813-1.3355,31.7131-10.0747,123.5529-11.8827,136.1944-17.99,125.7851-42.1376,207.2014-65.7407,328.7608a20.5294,20.5294,0,0,1-15.8105,16.1646,1007.3139,1007.3139,0,0,1-204.6744,22.5234A1011.84,1011.84,0,0,1,565.61,976.4043h0a20.53,20.53,0,0,1-16.0156-17.1q-.1838-1.2551-.3769-2.572c-3.9983-27.27-7.0747-47.7789-7.3124-49.3588-5.4956-36.5246-26.1028-139.6667-29.25-155.3888l-31.8306-180.98q-.1612-.9162-.239-1.8441-5.9025-70.4115-11.8049-140.8229"/><ellipse class="cls-4" cx="774.5314" cy="424.7667" rx="307.5784" ry="41.1202"/><ellipse class="cls-5" cx="774.0744" cy="438.5135" rx="277.8717" ry="24.7475"/><g class="cls-6"><polygon class="cls-7" points="461.111 414.663 473.683 477.757 464.425 478.297 461.111 414.663"/><polygon class="cls-7" points="460.169 396.575 460.76 396.161 466.185 395.844 482.406 477.248 473.683 477.757 461.111 414.663 460.169 396.575"/><polygon class="cls-8" points="474.908 395.335 491.129 476.739 482.406 477.248 466.185 395.844 474.908 395.335"/><polygon class="cls-9" points="483.631 394.826 499.852 476.23 491.129 476.739 474.908 395.335 483.631 394.826"/><polygon class="cls-10" points="492.354 394.318 508.575 475.721 499.852 476.23 483.631 394.826 492.354 394.318"/><polygon class="cls-11" points="501.076 393.809 517.298 475.212 508.575 475.721 492.354 394.318 501.076 393.809"/><polygon class="cls-12" points="509.799 393.3 526.021 474.703 517.298 475.212 501.076 393.809 509.799 393.3"/><polygon class="cls-13" points="518.522 392.791 534.744 474.194 526.021 474.703 509.799 393.3 518.522 392.791"/><polygon class="cls-14" points="527.245 392.282 543.466 473.685 534.744 474.194 518.522 392.791 527.245 392.282"/><polygon class="cls-15" points="535.968 391.773 552.189 473.176 543.466 473.685 527.245 392.282 535.968 391.773"/><polygon class="cls-16" points="544.691 391.264 560.912 472.667 552.189 473.176 535.968 391.773 544.691 391.264"/><polygon class="cls-17" points="553.414 390.755 569.635 472.158 560.912 472.667 544.691 391.264 553.414 390.755"/><polygon class="cls-18" points="562.137 390.246 578.358 471.649 569.635 472.158 553.414 390.755 562.137 390.246"/><polygon class="cls-19" points="570.86 389.737 587.081 471.14 578.358 471.649 562.137 390.246 570.86 389.737"/><polygon class="cls-20" points="579.582 389.228 595.804 470.631 587.081 471.14 570.86 389.737 579.582 389.228"/><polygon class="cls-21" points="588.305 388.719 604.527 470.122 595.804 470.631 579.582 389.228 588.305 388.719"/><polygon class="cls-22" points="597.028 388.21 613.25 469.613 604.527 470.122 588.305 388.719 597.028 388.21"/><polygon class="cls-23" points="605.751 387.701 621.973 469.104 613.25 469.613 597.028 388.21 605.751 387.701"/><polygon class="cls-24" points="614.474 387.192 630.695 468.595 621.973 469.104 605.751 387.701 614.474 387.192"/><polygon class="cls-25" points="623.197 386.683 639.418 468.086 630.695 468.595 614.474 387.192 623.197 386.683"/><polygon class="cls-26" points="631.92 386.174 648.141 467.577 639.418 468.086 623.197 386.683 631.92 386.174"/><polygon class="cls-27" points="640.643 385.665 656.864 467.068 648.141 467.577 631.92 386.174 640.643 385.665"/><polygon class="cls-28" points="649.366 385.156 665.587 466.559 656.864 467.068 640.643 385.665 649.366 385.156"/><polygon class="cls-29" points="658.088 384.647 674.31 466.05 665.587 466.559 649.366 385.156 658.088 384.647"/><polygon class="cls-30" points="666.811 384.138 683.033 465.541 674.31 466.05 658.088 384.647 666.811 384.138"/><polygon class="cls-31" points="675.534 383.629 691.756 465.032 683.033 465.541 666.811 384.138 675.534 383.629"/><polygon class="cls-32" points="684.257 383.12 700.479 464.523 691.756 465.032 675.534 383.629 684.257 383.12"/><polygon class="cls-33" points="692.98 382.611 709.201 464.014 700.479 464.523 684.257 383.12 692.98 382.611"/><polygon class="cls-34" points="701.703 382.102 717.924 463.505 709.201 464.014 692.98 382.611 701.703 382.102"/><polygon class="cls-35" points="710.426 381.593 726.647 462.997 717.924 463.505 701.703 382.102 710.426 381.593"/><polygon class="cls-36" points="719.149 381.084 735.37 462.488 726.647 462.997 710.426 381.593 719.149 381.084"/><polygon class="cls-37" points="727.872 380.575 744.093 461.979 735.37 462.488 719.149 381.084 727.872 380.575"/><polygon class="cls-38" points="736.595 380.066 752.816 461.47 744.093 461.979 727.872 380.575 736.595 380.066"/><polygon class="cls-39" points="745.317 379.557 761.539 460.961 752.816 461.47 736.595 380.066 745.317 379.557"/><polygon class="cls-40" points="754.04 379.048 770.262 460.452 761.539 460.961 745.317 379.557 754.04 379.048"/><polygon class="cls-41" points="762.763 378.539 778.985 459.943 770.262 460.452 754.04 379.048 762.763 378.539"/><polygon class="cls-42" points="771.486 378.03 787.707 459.434 778.985 459.943 762.763 378.539 771.486 378.03"/><polygon class="cls-43" points="780.209 377.521 796.43 458.925 787.707 459.434 771.486 378.03 780.209 377.521"/><polygon class="cls-44" points="788.932 377.012 805.153 458.416 796.43 458.925 780.209 377.521 788.932 377.012"/><polygon class="cls-45" points="797.655 376.503 813.876 457.907 805.153 458.416 788.932 377.012 797.655 376.503"/><polygon class="cls-46" points="806.378 375.994 822.599 457.398 813.876 457.907 797.655 376.503 806.378 375.994"/><polygon class="cls-47" points="815.101 375.485 831.322 456.889 822.599 457.398 806.378 375.994 815.101 375.485"/><polygon class="cls-48" points="823.823 374.977 840.045 456.38 831.322 456.889 815.101 375.485 823.823 374.977"/><polygon class="cls-49" points="832.546 374.468 848.768 455.871 840.045 456.38 823.823 374.977 832.546 374.468"/><polygon class="cls-50" points="841.269 373.959 857.491 455.362 848.768 455.871 832.546 374.468 841.269 373.959"/><polygon class="cls-51" points="849.992 373.45 866.213 454.853 857.491 455.362 841.269 373.959 849.992 373.45"/><polygon class="cls-52" points="858.715 372.941 874.936 454.344 866.213 454.853 849.992 373.45 858.715 372.941"/><polygon class="cls-53" points="867.438 372.432 883.659 453.835 874.936 454.344 858.715 372.941 867.438 372.432"/><polygon class="cls-54" points="876.161 371.923 892.382 453.326 883.659 453.835 867.438 372.432 876.161 371.923"/><polygon class="cls-55" points="884.884 371.414 901.105 452.817 892.382 453.326 876.161 371.923 884.884 371.414"/><polygon class="cls-56" points="893.607 370.905 909.828 452.308 901.105 452.817 884.884 371.414 893.607 370.905"/><polygon class="cls-57" points="902.329 370.396 918.551 451.799 909.828 452.308 893.607 370.905 902.329 370.396"/><polygon class="cls-58" points="911.052 369.887 927.274 451.29 918.551 451.799 902.329 370.396 911.052 369.887"/><polygon class="cls-59" points="919.775 369.378 935.997 450.781 927.274 451.29 911.052 369.887 919.775 369.378"/><polygon class="cls-60" points="928.498 368.869 944.719 450.272 935.997 450.781 919.775 369.378 928.498 368.869"/><polygon class="cls-61" points="937.221 368.36 953.442 449.763 944.719 450.272 928.498 368.869 937.221 368.36"/><polygon class="cls-62" points="945.944 367.851 962.165 449.254 953.442 449.763 937.221 368.36 945.944 367.851"/><polygon class="cls-63" points="954.667 367.342 970.888 448.745 962.165 449.254 945.944 367.851 954.667 367.342"/><polygon class="cls-64" points="963.39 366.833 979.611 448.236 970.888 448.745 954.667 367.342 963.39 366.833"/><polygon class="cls-65" points="972.113 366.324 988.334 447.727 979.611 448.236 963.39 366.833 972.113 366.324"/><polygon class="cls-66" points="980.835 365.815 997.057 447.218 988.334 447.727 972.113 366.324 980.835 365.815"/><polygon class="cls-67" points="989.558 365.306 1005.78 446.709 997.057 447.218 980.835 365.815 989.558 365.306"/><polygon class="cls-68" points="998.281 364.797 1014.503 446.2 1005.78 446.709 989.558 365.306 998.281 364.797"/><polygon class="cls-69" points="1007.004 364.288 1023.226 445.691 1014.503 446.2 998.281 364.797 1007.004 364.288"/><polygon class="cls-70" points="1015.727 363.779 1031.948 445.182 1023.226 445.691 1007.004 364.288 1015.727 363.779"/><polygon class="cls-71" points="1024.45 363.27 1040.671 444.673 1031.948 445.182 1015.727 363.779 1024.45 363.27"/><polygon class="cls-72" points="1033.173 362.761 1049.394 444.164 1040.671 444.673 1024.45 363.27 1033.173 362.761"/><polygon class="cls-73" points="1041.896 362.252 1058.117 443.656 1049.394 444.164 1033.173 362.761 1041.896 362.252"/><polygon class="cls-74" points="1050.619 361.743 1066.84 443.147 1058.117 443.656 1041.896 362.252 1050.619 361.743"/><polygon class="cls-75" points="1059.341 361.234 1075.563 442.638 1066.84 443.147 1050.619 361.743 1059.341 361.234"/><polygon class="cls-76" points="1068.064 360.725 1084.286 442.129 1075.563 442.638 1059.341 361.234 1068.064 360.725"/><polygon class="cls-77" points="1076.787 360.216 1089.36 423.31 1090.302 441.398 1089.711 441.812 1084.286 442.129 1068.064 360.725 1076.787 360.216"/><polygon class="cls-77" points="1089.36 423.31 1076.787 360.216 1086.046 359.676 1089.36 423.31"/></g><path d="M950.5439,448.9012c-50.7538,2.9615-110.5051,4.3782-172.8646,4.0363-83.79-.457-162.8079-4.0091-222.4984-10-94.217-9.4545-95.0095-19.7978-95.4342-25.3539a9.8249,9.8249,0,0,1,.628-4.4225c1.3362-3.2437,5.4022-13.1179,96.1768-20.9867,58.2423-5.0453,135.0359-7.5825,216.24-7.1394,83.7908.4589,162.809,4.0109,222.4994,10,94.2171,9.4564,95.0085,19.7979,95.4342,25.3539a9.82,9.82,0,0,1-.628,4.4225c-1.3361,3.2457-5.403,13.12-96.1777,20.9868C980.4039,446.9708,965.88,448.0064,950.5439,448.9012ZM464.6168,417.1751c4.3922,3.3925,22.2761,11.2663,94.9866,18.2939,59.0658,5.7114,136.4086,9.0993,217.7817,9.5441,80.9527.4441,157.5556-2.0722,215.69-7.1,71.4693-6.172,88.6537-13.7894,92.78-17.1164-4.3922-3.3925-22.276-11.2643-94.9876-18.2939-59.0647-5.7094-136.4086-9.0992-217.7816-9.544-80.9526-.44-157.5527,2.0759-215.6889,7.1014C485.9271,406.2327,468.7428,413.85,464.6168,417.1751Z"/><g class="cls-78"><polygon class="cls-11" points="505.214 443.482 508.129 458.107 505.982 458.232 505.214 443.482"/><polygon class="cls-12" points="503.646 413.368 506.869 411.11 507.766 411.058 517.038 457.587 508.129 458.107 505.214 443.482 503.646 413.368"/><polygon class="cls-13" points="516.676 410.538 525.948 457.067 517.038 457.587 507.766 411.058 516.676 410.538"/><polygon class="cls-14" points="525.585 410.018 534.857 456.547 525.948 457.067 516.676 410.538 525.585 410.018"/><polygon class="cls-15" points="534.495 409.498 543.767 456.027 534.857 456.547 525.585 410.018 534.495 409.498"/><polygon class="cls-16" points="543.405 408.978 552.677 455.508 543.767 456.027 534.495 409.498 543.405 408.978"/><polygon class="cls-17" points="552.314 408.458 561.586 454.988 552.677 455.508 543.405 408.978 552.314 408.458"/><polygon class="cls-18" points="561.224 407.939 570.496 454.468 561.586 454.988 552.314 408.458 561.224 407.939"/><polygon class="cls-19" points="570.133 407.419 579.405 453.948 570.496 454.468 561.224 407.939 570.133 407.419"/><polygon class="cls-20" points="579.043 406.899 588.315 453.428 579.405 453.948 570.133 407.419 579.043 406.899"/><polygon class="cls-21" points="587.953 406.379 597.224 452.908 588.315 453.428 579.043 406.899 587.953 406.379"/><polygon class="cls-22" points="596.862 405.859 606.134 452.388 597.224 452.908 587.953 406.379 596.862 405.859"/><polygon class="cls-23" points="605.772 405.339 615.044 451.868 606.134 452.388 596.862 405.859 605.772 405.339"/><polygon class="cls-24" points="614.681 404.819 623.953 451.349 615.044 451.868 605.772 405.339 614.681 404.819"/><polygon class="cls-25" points="623.591 404.3 632.863 450.829 623.953 451.349 614.681 404.819 623.591 404.3"/><polygon class="cls-26" points="632.5 403.78 641.772 450.309 632.863 450.829 623.591 404.3 632.5 403.78"/><polygon class="cls-27" points="641.41 403.26 650.682 449.789 641.772 450.309 632.5 403.78 641.41 403.26"/><polygon class="cls-28" points="650.32 402.74 659.592 449.269 650.682 449.789 641.41 403.26 650.32 402.74"/><polygon class="cls-29" points="659.229 402.22 668.501 448.749 659.592 449.269 650.32 402.74 659.229 402.22"/><polygon class="cls-30" points="668.139 401.7 677.411 448.229 668.501 448.749 659.229 402.22 668.139 401.7"/><polygon class="cls-31" points="677.048 401.18 686.32 447.71 677.411 448.229 668.139 401.7 677.048 401.18"/><polygon class="cls-32" points="685.958 400.66 695.23 447.19 686.32 447.71 677.048 401.18 685.958 400.66"/><polygon class="cls-33" points="694.867 400.141 704.139 446.67 695.23 447.19 685.958 400.66 694.867 400.141"/><polygon class="cls-34" points="703.777 399.621 713.049 446.15 704.139 446.67 694.867 400.141 703.777 399.621"/><polygon class="cls-35" points="712.687 399.101 721.959 445.63 713.049 446.15 703.777 399.621 712.687 399.101"/><polygon class="cls-36" points="721.596 398.581 730.868 445.11 721.959 445.63 712.687 399.101 721.596 398.581"/><polygon class="cls-37" points="730.506 398.061 739.778 444.59 730.868 445.11 721.596 398.581 730.506 398.061"/><polygon class="cls-38" points="739.415 397.541 748.687 444.07 739.778 444.59 730.506 398.061 739.415 397.541"/><polygon class="cls-39" points="748.325 397.021 757.597 443.551 748.687 444.07 739.415 397.541 748.325 397.021"/><polygon class="cls-40" points="757.235 396.502 766.506 443.031 757.597 443.551 748.325 397.021 757.235 396.502"/><polygon class="cls-41" points="766.144 395.982 775.416 442.511 766.506 443.031 757.235 396.502 766.144 395.982"/><polygon class="cls-42" points="775.054 395.462 784.326 441.991 775.416 442.511 766.144 395.982 775.054 395.462"/><polygon class="cls-43" points="783.963 394.942 793.235 441.471 784.326 441.991 775.054 395.462 783.963 394.942"/><polygon class="cls-44" points="792.873 394.422 802.145 440.951 793.235 441.471 783.963 394.942 792.873 394.422"/><polygon class="cls-45" points="801.782 393.902 811.054 440.431 802.145 440.951 792.873 394.422 801.782 393.902"/><polygon class="cls-46" points="810.692 393.382 819.964 439.912 811.054 440.431 801.782 393.902 810.692 393.382"/><polygon class="cls-47" points="819.602 392.862 828.874 439.392 819.964 439.912 810.692 393.382 819.602 392.862"/><polygon class="cls-48" points="828.511 392.343 837.783 438.872 828.874 439.392 819.602 392.862 828.511 392.343"/><polygon class="cls-49" points="837.421 391.823 846.693 438.352 837.783 438.872 828.511 392.343 837.421 391.823"/><polygon class="cls-50" points="846.33 391.303 855.602 437.832 846.693 438.352 837.421 391.823 846.33 391.303"/><polygon class="cls-51" points="855.24 390.783 864.512 437.312 855.602 437.832 846.33 391.303 855.24 390.783"/><polygon class="cls-52" points="864.149 390.263 873.421 436.792 864.512 437.312 855.24 390.783 864.149 390.263"/><polygon class="cls-53" points="873.059 389.743 882.331 436.272 873.421 436.792 864.149 390.263 873.059 389.743"/><polygon class="cls-54" points="881.969 389.223 891.241 435.753 882.331 436.272 873.059 389.743 881.969 389.223"/><polygon class="cls-55" points="890.878 388.704 900.15 435.233 891.241 435.753 881.969 389.223 890.878 388.704"/><polygon class="cls-56" points="899.788 388.184 909.06 434.713 900.15 435.233 890.878 388.704 899.788 388.184"/><polygon class="cls-57" points="908.697 387.664 917.969 434.193 909.06 434.713 899.788 388.184 908.697 387.664"/><polygon class="cls-58" points="917.607 387.144 926.879 433.673 917.969 434.193 908.697 387.664 917.607 387.144"/><polygon class="cls-59" points="926.517 386.624 935.788 433.153 926.879 433.673 917.607 387.144 926.517 386.624"/><polygon class="cls-60" points="935.426 386.104 944.698 432.633 935.788 433.153 926.517 386.624 935.426 386.104"/><polygon class="cls-61" points="944.336 385.584 953.608 432.114 944.698 432.633 935.426 386.104 944.336 385.584"/><polygon class="cls-62" points="953.245 385.064 962.517 431.594 953.608 432.114 944.336 385.584 953.245 385.064"/><polygon class="cls-63" points="962.155 384.545 971.427 431.074 962.517 431.594 953.245 385.064 962.155 384.545"/><polygon class="cls-64" points="971.064 384.025 980.336 430.554 971.427 431.074 962.155 384.545 971.064 384.025"/><polygon class="cls-65" points="979.974 383.505 989.246 430.034 980.336 430.554 971.064 384.025 979.974 383.505"/><polygon class="cls-66" points="988.884 382.985 998.156 429.514 989.246 430.034 979.974 383.505 988.884 382.985"/><polygon class="cls-67" points="997.793 382.465 1007.065 428.994 998.156 429.514 988.884 382.985 997.793 382.465"/><polygon class="cls-68" points="1006.703 381.945 1015.975 428.474 1007.065 428.994 997.793 382.465 1006.703 381.945"/><polygon class="cls-69" points="1015.612 381.425 1024.884 427.955 1015.975 428.474 1006.703 381.945 1015.612 381.425"/><polygon class="cls-70" points="1024.522 380.906 1033.794 427.435 1024.884 427.955 1015.612 381.425 1024.522 380.906"/><polygon class="cls-71" points="1033.432 380.386 1042.703 426.915 1033.794 427.435 1024.522 380.906 1033.432 380.386"/><polygon class="cls-72" points="1042.341 379.866 1045.254 394.485 1046.823 424.606 1043.602 426.862 1042.703 426.915 1033.432 380.386 1042.341 379.866"/><polygon class="cls-73" points="1045.254 394.485 1042.341 379.866 1044.486 379.741 1045.254 394.485"/><polygon class="cls-7" points="454.835 416.818 469.272 489.268 458.641 489.888 454.835 416.818"/><polygon class="cls-7" points="453.842 397.743 459.287 393.929 478.182 488.748 469.272 489.268 454.835 416.818 453.842 397.743"/><polygon class="cls-8" points="459.287 393.929 467.196 388.389 487.091 488.228 478.182 488.748 459.287 393.929"/><polygon class="cls-9" points="467.196 388.389 473.204 384.182 475.346 384.057 496.001 487.708 487.091 488.228 467.196 388.389"/><polygon class="cls-10" points="484.256 383.537 504.911 487.188 496.001 487.708 475.346 384.057 484.256 383.537"/><polygon class="cls-11" points="493.165 383.017 513.82 486.668 504.911 487.188 484.256 383.537 493.165 383.017"/><polygon class="cls-12" points="502.075 382.497 522.73 486.149 513.82 486.668 493.165 383.017 502.075 382.497"/><polygon class="cls-13" points="510.985 381.977 531.639 485.629 522.73 486.149 502.075 382.497 510.985 381.977"/><polygon class="cls-14" points="519.894 381.457 540.549 485.109 531.639 485.629 510.985 381.977 519.894 381.457"/><polygon class="cls-15" points="528.804 380.938 549.459 484.589 540.549 485.109 519.894 381.457 528.804 380.938"/><polygon class="cls-16" points="537.713 380.418 558.368 484.069 549.459 484.589 528.804 380.938 537.713 380.418"/><polygon class="cls-17" points="546.623 379.898 567.278 483.549 558.368 484.069 537.713 380.418 546.623 379.898"/><polygon class="cls-18" points="555.532 379.378 576.187 483.029 567.278 483.549 546.623 379.898 555.532 379.378"/><polygon class="cls-19" points="564.442 378.858 585.097 482.51 576.187 483.029 555.532 379.378 564.442 378.858"/><polygon class="cls-20" points="573.352 378.338 594.006 481.99 585.097 482.51 564.442 378.858 573.352 378.338"/><polygon class="cls-21" points="582.261 377.818 602.916 481.47 594.006 481.99 573.352 378.338 582.261 377.818"/><polygon class="cls-22" points="591.171 377.298 611.826 480.95 602.916 481.47 582.261 377.818 591.171 377.298"/><polygon class="cls-23" points="600.08 376.779 620.735 480.43 611.826 480.95 591.171 377.298 600.08 376.779"/><polygon class="cls-24" points="608.99 376.259 629.645 479.91 620.735 480.43 600.08 376.779 608.99 376.259"/><polygon class="cls-25" points="617.9 375.739 638.554 479.39 629.645 479.91 608.99 376.259 617.9 375.739"/><polygon class="cls-26" points="626.809 375.219 647.464 478.87 638.554 479.39 617.9 375.739 626.809 375.219"/><polygon class="cls-27" points="635.719 374.699 656.373 478.351 647.464 478.87 626.809 375.219 635.719 374.699"/><polygon class="cls-28" points="644.628 374.179 665.283 477.831 656.373 478.351 635.719 374.699 644.628 374.179"/><polygon class="cls-29" points="653.538 373.659 674.193 477.311 665.283 477.831 644.628 374.179 653.538 373.659"/><polygon class="cls-30" points="662.447 373.14 683.102 476.791 674.193 477.311 653.538 373.659 662.447 373.14"/><polygon class="cls-31" points="671.357 372.62 692.012 476.271 683.102 476.791 662.447 373.14 671.357 372.62"/><polygon class="cls-32" points="680.267 372.1 700.921 475.751 692.012 476.271 671.357 372.62 680.267 372.1"/><polygon class="cls-33" points="689.176 371.58 709.831 475.231 700.921 475.751 680.267 372.1 689.176 371.58"/><polygon class="cls-34" points="698.086 371.06 718.741 474.712 709.831 475.231 689.176 371.58 698.086 371.06"/><polygon class="cls-35" points="706.995 370.54 727.65 474.192 718.741 474.712 698.086 371.06 706.995 370.54"/><polygon class="cls-36" points="715.905 370.02 736.56 473.672 727.65 474.192 706.995 370.54 715.905 370.02"/><polygon class="cls-37" points="724.814 369.5 745.469 473.152 736.56 473.672 715.905 370.02 724.814 369.5"/><polygon class="cls-38" points="733.724 368.981 754.379 472.632 745.469 473.152 724.814 369.5 733.724 368.981"/><polygon class="cls-39" points="742.634 368.461 763.288 472.112 754.379 472.632 733.724 368.981 742.634 368.461"/><polygon class="cls-40" points="751.543 367.941 772.198 471.592 763.288 472.112 742.634 368.461 751.543 367.941"/><polygon class="cls-41" points="760.453 367.421 781.108 471.072 772.198 471.592 751.543 367.941 760.453 367.421"/><polygon class="cls-42" points="769.362 366.901 790.017 470.553 781.108 471.072 760.453 367.421 769.362 366.901"/><polygon class="cls-43" points="778.272 366.381 798.927 470.033 790.017 470.553 769.362 366.901 778.272 366.381"/><polygon class="cls-44" points="787.182 365.861 807.836 469.513 798.927 470.033 778.272 366.381 787.182 365.861"/><polygon class="cls-45" points="796.091 365.341 816.746 468.993 807.836 469.513 787.182 365.861 796.091 365.341"/><polygon class="cls-46" points="805.001 364.822 825.655 468.473 816.746 468.993 796.091 365.341 805.001 364.822"/><polygon class="cls-47" points="813.91 364.302 834.565 467.953 825.655 468.473 805.001 364.822 813.91 364.302"/><polygon class="cls-48" points="822.82 363.782 843.475 467.433 834.565 467.953 813.91 364.302 822.82 363.782"/><polygon class="cls-49" points="831.729 363.262 852.384 466.914 843.475 467.433 822.82 363.782 831.729 363.262"/><polygon class="cls-50" points="840.639 362.742 861.294 466.394 852.384 466.914 831.729 363.262 840.639 362.742"/><polygon class="cls-51" points="849.549 362.222 870.203 465.874 861.294 466.394 840.639 362.742 849.549 362.222"/><polygon class="cls-52" points="858.458 361.702 879.113 465.354 870.203 465.874 849.549 362.222 858.458 361.702"/><polygon class="cls-53" points="867.368 361.183 888.023 464.834 879.113 465.354 858.458 361.702 867.368 361.183"/><polygon class="cls-54" points="876.277 360.663 896.932 464.314 888.023 464.834 867.368 361.183 876.277 360.663"/><polygon class="cls-55" points="885.187 360.143 905.842 463.794 896.932 464.314 876.277 360.663 885.187 360.143"/><polygon class="cls-56" points="894.096 359.623 914.751 463.274 905.842 463.794 885.187 360.143 894.096 359.623"/><polygon class="cls-57" points="903.006 359.103 923.661 462.755 914.751 463.274 894.096 359.623 903.006 359.103"/><polygon class="cls-58" points="911.916 358.583 932.57 462.235 923.661 462.755 903.006 359.103 911.916 358.583"/><polygon class="cls-59" points="920.825 358.063 941.48 461.715 932.57 462.235 911.916 358.583 920.825 358.063"/><polygon class="cls-60" points="929.735 357.543 950.39 461.195 941.48 461.715 920.825 358.063 929.735 357.543"/><polygon class="cls-61" points="938.644 357.024 959.299 460.675 950.39 461.195 929.735 357.543 938.644 357.024"/><polygon class="cls-62" points="947.554 356.504 968.209 460.155 959.299 460.675 938.644 357.024 947.554 356.504"/><polygon class="cls-63" points="956.464 355.984 977.118 459.635 968.209 460.155 947.554 356.504 956.464 355.984"/><polygon class="cls-64" points="965.373 355.464 986.028 459.116 977.118 459.635 956.464 355.984 965.373 355.464"/><polygon class="cls-65" points="974.283 354.944 994.937 458.596 986.028 459.116 965.373 355.464 974.283 354.944"/><polygon class="cls-66" points="983.192 354.424 1003.847 458.076 994.937 458.596 974.283 354.944 983.192 354.424"/><polygon class="cls-67" points="992.102 353.904 1012.757 457.556 1003.847 458.076 983.192 354.424 992.102 353.904"/><polygon class="cls-68" points="1001.011 353.385 1021.666 457.036 1012.757 457.556 992.102 353.904 1001.011 353.385"/><polygon class="cls-69" points="1009.921 352.865 1030.576 456.516 1021.666 457.036 1001.011 353.385 1009.921 352.865"/><polygon class="cls-70" points="1018.831 352.345 1039.485 455.996 1030.576 456.516 1009.921 352.865 1018.831 352.345"/><polygon class="cls-71" points="1027.74 351.825 1048.395 455.476 1039.485 455.996 1018.831 352.345 1027.74 351.825"/><polygon class="cls-72" points="1036.65 351.305 1057.305 454.957 1048.395 455.476 1027.74 351.825 1036.65 351.305"/><polygon class="cls-73" points="1045.559 350.785 1066.214 454.437 1057.305 454.957 1036.65 351.305 1045.559 350.785"/><polygon class="cls-74" points="1054.469 350.265 1075.02 453.398 1074.203 453.971 1066.214 454.437 1045.559 350.785 1054.469 350.265"/><polygon class="cls-75" points="1063.378 349.745 1082.93 447.858 1075.02 453.398 1054.469 350.265 1063.378 349.745"/><polygon class="cls-76" points="1072.288 349.226 1090.839 442.318 1082.93 447.858 1063.378 349.745 1072.288 349.226"/><polygon class="cls-77" points="1081.198 348.706 1095.505 420.502 1096.437 438.398 1090.839 442.318 1072.288 349.226 1081.198 348.706"/><polygon class="cls-77" points="1095.505 420.502 1081.198 348.706 1091.734 348.091 1095.505 420.502"/></g><path d="M951.7239,463.9047c-50.7154,2.9592-110.3476,4.3689-172.8952,4.0264-83.8726-.458-162.9841-4.0143-222.7633-10.0119-29.1643-2.9267-52.182-6.2837-68.4138-9.9805-8.4378-1.9189-15.0236-3.9477-19.5749-6.0274-4.3325-1.976-13.3508-6.0878-14.7509-24.3625-1.4359-18.7614,7.4646-23.0323,11.2655-24.8544,4.2486-2.0364,10.5346-3.9958,18.69-5.8276,15.6783-3.52,38.2023-6.6285,66.9466-9.2388,58.9267-5.3548,137.5585-8.0477,221.4143-7.5868,83.86.4568,162.9717,4.0131,222.7624,10.0139,29.1605,2.9269,52.1782,6.2839,68.4137,9.9786,8.44,1.9206,15.0256,3.95,19.5749,6.0273,4.3355,1.98,13.3532,6.0974,14.7509,24.3625.844,11.0077-1.7158,18.6815-7.607,22.806h0a24.3079,24.3079,0,0,1-3.6649,2.0527c-4.2458,2.0343-10.5318,3.9937-18.6822,5.8252-15.6793,3.5181-38.2023,6.6266-66.9466,9.2388C985.2664,461.7069,969.0118,462.8959,951.7239,463.9047ZM599.1854,381.9894c-17.2775,1.0081-33.5172,2.1962-48.4854,3.5565-28.663,2.6016-51.1049,5.6976-66.7022,9.2013-8.0083,1.7979-14.1476,3.7041-18.2466,5.67-4.8227,2.3124-9.4555,5.49-8.6128,16.51.88,11.4885,6.3929,14.93,11.49,17.2553,4.41,2.0162,10.852,3.9952,19.148,5.8816,16.1519,3.6781,39.089,7.0224,68.1739,9.94,59.7216,5.9931,138.77,9.5453,222.5841,10.0029,83.8106.46,162.38-2.23,221.2361-7.5784,28.6629-2.6035,51.1048-5.7,66.7032-9.2013,8.0027-1.7957,14.1419-3.7038,18.2446-5.6716a22.5758,22.5758,0,0,0,3.3193-1.8464v-.0019c4.2114-2.9479,5.8439-7.47,5.2936-14.6615-.8791-11.4828-6.3908-14.9263-11.488-17.2535-4.41-2.0142-10.8519-3.9932-19.15-5.8833-16.1555-3.676-39.0927-7.02-68.1738-9.9383-59.732-5.9945-138.78-9.5467-222.5833-10.0049C709.4449,377.6237,649.8587,379.0326,599.1854,381.9894Zm348.5135,52.1045c-42.4019,2.4741-98.5885,4.2473-171.168,3.85-162.9794-.8915-244.9845-11.8306-272.6766-16.49l-.2948-7.8991c26.9936-4.3665,107.3791-14.4185,270.38-13.5244,162.9622.8887,244.9768,11.8291,272.6746,16.49l.2939,7.8992C1031.9332,426.84,1000.5147,431.0121,947.6989,434.0939Zm-415.18-16.4523c41.7382,5.1279,118.9731,11.6957,243.7174,12.3779,124.4311.6772,200.6491-5.0232,241.711-9.6867-41.743-5.13-118.9826-11.697-243.7137-12.3781C649.7923,407.2742,573.5741,412.9707,532.5192,417.6416Z"/><g class="cls-79"><polygon class="cls-7" points="469.754 414.958 481.069 466.876 472.484 467.377 469.754 414.958"/><polygon class="cls-7" points="475.663 402.669 489.548 466.381 481.069 466.876 469.754 414.958 469.134 403.05 475.663 402.669"/><polygon class="cls-8" points="484.143 402.174 498.028 465.886 489.548 466.381 475.663 402.669 484.143 402.174"/><polygon class="cls-9" points="492.622 401.679 506.508 465.392 498.028 465.886 484.143 402.174 492.622 401.679"/><polygon class="cls-10" points="501.102 401.184 514.987 464.897 506.508 465.392 492.622 401.679 501.102 401.184"/><polygon class="cls-11" points="509.582 400.69 523.467 464.402 514.987 464.897 501.102 401.184 509.582 400.69"/><polygon class="cls-12" points="518.061 400.195 531.947 463.907 523.467 464.402 509.582 400.69 518.061 400.195"/><polygon class="cls-13" points="526.541 399.7 540.427 463.413 531.947 463.907 518.061 400.195 526.541 399.7"/><polygon class="cls-14" points="535.021 399.205 548.906 462.918 540.427 463.413 526.541 399.7 535.021 399.205"/><polygon class="cls-15" points="543.5 398.71 557.386 462.423 548.906 462.918 535.021 399.205 543.5 398.71"/><polygon class="cls-16" points="551.98 398.216 565.866 461.928 557.386 462.423 543.5 398.71 551.98 398.216"/><polygon class="cls-17" points="560.46 397.721 574.345 461.433 565.866 461.928 551.98 398.216 560.46 397.721"/><polygon class="cls-18" points="568.94 397.226 582.825 460.939 574.345 461.433 560.46 397.721 568.94 397.226"/><polygon class="cls-19" points="577.419 396.731 591.305 460.444 582.825 460.939 568.94 397.226 577.419 396.731"/><polygon class="cls-20" points="585.899 396.237 599.784 459.949 591.305 460.444 577.419 396.731 585.899 396.237"/><polygon class="cls-21" points="594.379 395.742 608.264 459.454 599.784 459.949 585.899 396.237 594.379 395.742"/><polygon class="cls-22" points="602.858 395.247 616.744 458.959 608.264 459.454 594.379 395.742 602.858 395.247"/><polygon class="cls-23" points="611.338 394.752 625.224 458.465 616.744 458.959 602.858 395.247 611.338 394.752"/><polygon class="cls-24" points="619.818 394.257 633.703 457.97 625.224 458.465 611.338 394.752 619.818 394.257"/><polygon class="cls-25" points="628.298 393.763 642.183 457.475 633.703 457.97 619.818 394.257 628.298 393.763"/><polygon class="cls-26" points="636.777 393.268 650.663 456.98 642.183 457.475 628.298 393.763 636.777 393.268"/><polygon class="cls-27" points="645.257 392.773 659.142 456.486 650.663 456.98 636.777 393.268 645.257 392.773"/><polygon class="cls-28" points="653.737 392.278 667.622 455.991 659.142 456.486 645.257 392.773 653.737 392.278"/><polygon class="cls-29" points="662.216 391.783 676.102 455.496 667.622 455.991 653.737 392.278 662.216 391.783"/><polygon class="cls-30" points="670.696 391.289 684.582 455.001 676.102 455.496 662.216 391.783 670.696 391.289"/><polygon class="cls-31" points="679.176 390.794 693.061 454.506 684.582 455.001 670.696 391.289 679.176 390.794"/><polygon class="cls-32" points="687.655 390.299 701.541 454.012 693.061 454.506 679.176 390.794 687.655 390.299"/><polygon class="cls-33" points="696.135 389.804 710.021 453.517 701.541 454.012 687.655 390.299 696.135 389.804"/><polygon class="cls-34" points="704.615 389.31 718.5 453.022 710.021 453.517 696.135 389.804 704.615 389.31"/><polygon class="cls-35" points="713.095 388.815 726.98 452.527 718.5 453.022 704.615 389.31 713.095 388.815"/><polygon class="cls-36" points="721.574 388.32 735.46 452.032 726.98 452.527 713.095 388.815 721.574 388.32"/><polygon class="cls-37" points="730.054 387.825 743.939 451.538 735.46 452.032 721.574 388.32 730.054 387.825"/><polygon class="cls-38" points="738.534 387.33 752.419 451.043 743.939 451.538 730.054 387.825 738.534 387.33"/><polygon class="cls-39" points="747.013 386.836 760.899 450.548 752.419 451.043 738.534 387.33 747.013 386.836"/><polygon class="cls-40" points="755.493 386.341 769.379 450.053 760.899 450.548 747.013 386.836 755.493 386.341"/><polygon class="cls-41" points="763.973 385.846 777.858 449.559 769.379 450.053 755.493 386.341 763.973 385.846"/><polygon class="cls-42" points="772.452 385.351 786.338 449.064 777.858 449.559 763.973 385.846 772.452 385.351"/><polygon class="cls-43" points="780.932 384.856 794.818 448.569 786.338 449.064 772.452 385.351 780.932 384.856"/><polygon class="cls-44" points="789.412 384.362 803.297 448.074 794.818 448.569 780.932 384.856 789.412 384.362"/><polygon class="cls-45" points="797.892 383.867 811.777 447.579 803.297 448.074 789.412 384.362 797.892 383.867"/><polygon class="cls-46" points="806.371 383.372 820.257 447.085 811.777 447.579 797.892 383.867 806.371 383.372"/><polygon class="cls-47" points="814.851 382.877 828.736 446.59 820.257 447.085 806.371 383.372 814.851 382.877"/><polygon class="cls-48" points="823.331 382.383 837.216 446.095 828.736 446.59 814.851 382.877 823.331 382.383"/><polygon class="cls-49" points="831.81 381.888 845.696 445.6 837.216 446.095 823.331 382.383 831.81 381.888"/><polygon class="cls-50" points="840.29 381.393 854.176 445.106 845.696 445.6 831.81 381.888 840.29 381.393"/><polygon class="cls-51" points="848.77 380.898 862.655 444.611 854.176 445.106 840.29 381.393 848.77 380.898"/><polygon class="cls-52" points="857.249 380.403 871.135 444.116 862.655 444.611 848.77 380.898 857.249 380.403"/><polygon class="cls-53" points="865.729 379.909 879.615 443.621 871.135 444.116 857.249 380.403 865.729 379.909"/><polygon class="cls-54" points="874.209 379.414 888.094 443.126 879.615 443.621 865.729 379.909 874.209 379.414"/><polygon class="cls-55" points="882.689 378.919 896.574 442.632 888.094 443.126 874.209 379.414 882.689 378.919"/><polygon class="cls-56" points="891.168 378.424 905.054 442.137 896.574 442.632 882.689 378.919 891.168 378.424"/><polygon class="cls-57" points="899.648 377.93 913.533 441.642 905.054 442.137 891.168 378.424 899.648 377.93"/><polygon class="cls-58" points="908.128 377.435 922.013 441.147 913.533 441.642 899.648 377.93 908.128 377.435"/><polygon class="cls-59" points="916.607 376.94 930.493 440.652 922.013 441.147 908.128 377.435 916.607 376.94"/><polygon class="cls-60" points="925.087 376.445 938.973 440.158 930.493 440.652 916.607 376.94 925.087 376.445"/><polygon class="cls-61" points="933.567 375.95 947.452 439.663 938.973 440.158 925.087 376.445 933.567 375.95"/><polygon class="cls-62" points="942.047 375.456 955.932 439.168 947.452 439.663 933.567 375.95 942.047 375.456"/><polygon class="cls-63" points="950.526 374.961 964.412 438.673 955.932 439.168 942.047 375.456 950.526 374.961"/><polygon class="cls-64" points="959.006 374.466 972.891 438.179 964.412 438.673 950.526 374.961 959.006 374.466"/><polygon class="cls-65" points="967.486 373.971 981.371 437.684 972.891 438.179 959.006 374.466 967.486 373.971"/><polygon class="cls-66" points="975.965 373.476 989.851 437.189 981.371 437.684 967.486 373.971 975.965 373.476"/><polygon class="cls-67" points="984.445 372.982 998.331 436.694 989.851 437.189 975.965 373.476 984.445 372.982"/><polygon class="cls-68" points="992.925 372.487 1006.81 436.199 998.331 436.694 984.445 372.982 992.925 372.487"/><polygon class="cls-69" points="1001.404 371.992 1015.29 435.705 1006.81 436.199 992.925 372.487 1001.404 371.992"/><polygon class="cls-70" points="1009.884 371.497 1023.77 435.21 1015.29 435.705 1001.404 371.992 1009.884 371.497"/><polygon class="cls-71" points="1018.364 371.003 1032.249 434.715 1023.77 435.21 1009.884 371.497 1018.364 371.003"/><polygon class="cls-72" points="1026.844 370.508 1040.729 434.22 1032.249 434.715 1018.364 371.003 1026.844 370.508"/><polygon class="cls-73" points="1035.323 370.013 1049.209 433.725 1040.729 434.22 1026.844 370.508 1035.323 370.013"/><polygon class="cls-74" points="1043.803 369.518 1057.688 433.231 1049.209 433.725 1035.323 370.013 1043.803 369.518"/><polygon class="cls-75" points="1052.283 369.023 1066.168 432.736 1057.688 433.231 1043.803 369.518 1052.283 369.023"/><polygon class="cls-76" points="1060.762 368.529 1074.648 432.241 1066.168 432.736 1052.283 369.023 1060.762 368.529"/><polygon class="cls-77" points="1069.242 368.034 1080.557 419.952 1081.177 431.86 1074.648 432.241 1060.762 368.529 1069.242 368.034"/><polygon class="cls-77" points="1080.557 419.952 1069.242 368.034 1077.827 367.533 1080.557 419.952"/></g><g class="cls-80"><polygon class="cls-53" points="650.767 371.657 664.389 440.24 461.96 452.052 458.358 382.884 650.767 371.657"/><polygon class="cls-53" points="656.291 371.335 669.913 439.918 664.389 440.24 650.767 371.657 656.291 371.335"/><polygon class="cls-54" points="661.816 371.012 675.438 439.596 669.913 439.918 656.291 371.335 661.816 371.012"/><polygon class="cls-55" points="667.34 370.69 680.962 439.273 675.438 439.596 661.816 371.012 667.34 370.69"/><polygon class="cls-56" points="672.865 370.368 686.486 438.951 680.962 439.273 667.34 370.69 672.865 370.368"/><polygon class="cls-57" points="678.389 370.045 692.011 438.629 686.486 438.951 672.865 370.368 678.389 370.045"/><polygon class="cls-58" points="683.914 369.723 697.535 438.306 692.011 438.629 678.389 370.045 683.914 369.723"/><polygon class="cls-59" points="689.438 369.401 703.06 437.984 697.535 438.306 683.914 369.723 689.438 369.401"/><polygon class="cls-60" points="694.963 369.078 708.584 437.662 703.06 437.984 689.438 369.401 694.963 369.078"/><polygon class="cls-61" points="700.487 368.756 714.109 437.339 708.584 437.662 694.963 369.078 700.487 368.756"/><polygon class="cls-62" points="706.012 368.434 719.633 437.017 714.109 437.339 700.487 368.756 706.012 368.434"/><polygon class="cls-63" points="711.536 368.111 725.158 436.695 719.633 437.017 706.012 368.434 711.536 368.111"/><polygon class="cls-64" points="717.06 367.789 730.682 436.372 725.158 436.695 711.536 368.111 717.06 367.789"/><polygon class="cls-65" points="722.585 367.467 736.206 436.05 730.682 436.372 717.06 367.789 722.585 367.467"/><polygon class="cls-66" points="728.109 367.144 741.731 435.728 736.206 436.05 722.585 367.467 728.109 367.144"/><polygon class="cls-67" points="733.634 366.822 747.255 435.405 741.731 435.728 728.109 367.144 733.634 366.822"/><polygon class="cls-68" points="739.158 366.5 752.78 435.083 747.255 435.405 733.634 366.822 739.158 366.5"/><polygon class="cls-69" points="744.683 366.177 758.304 434.761 752.78 435.083 739.158 366.5 744.683 366.177"/><polygon class="cls-70" points="750.207 365.855 763.829 434.438 758.304 434.761 744.683 366.177 750.207 365.855"/><polygon class="cls-71" points="755.732 365.533 769.353 434.116 763.829 434.438 750.207 365.855 755.732 365.533"/><polygon class="cls-72" points="761.256 365.21 774.878 433.794 769.353 434.116 755.732 365.533 761.256 365.21"/><polygon class="cls-73" points="766.78 364.888 780.402 433.471 774.878 433.794 761.256 365.21 766.78 364.888"/><polygon class="cls-74" points="772.305 364.566 785.926 433.149 780.402 433.471 766.78 364.888 772.305 364.566"/><polygon class="cls-75" points="777.829 364.243 791.451 432.826 785.926 433.149 772.305 364.566 777.829 364.243"/><polygon class="cls-76" points="783.354 363.921 796.975 432.504 791.451 432.826 777.829 364.243 783.354 363.921"/><polygon class="cls-77" points="788.878 363.598 802.5 432.182 796.975 432.504 783.354 363.921 788.878 363.598"/><polygon class="cls-81" points="794.403 363.276 808.024 431.859 802.5 432.182 788.878 363.598 794.403 363.276"/><polygon class="cls-82" points="799.927 362.954 813.549 431.537 808.024 431.859 794.403 363.276 799.927 362.954"/><polygon class="cls-83" points="805.452 362.631 819.073 431.215 813.549 431.537 799.927 362.954 805.452 362.631"/><polygon class="cls-84" points="810.976 362.309 824.598 430.892 819.073 431.215 805.452 362.631 810.976 362.309"/><polygon class="cls-85" points="816.5 361.987 830.122 430.57 824.598 430.892 810.976 362.309 816.5 361.987"/><polygon class="cls-86" points="822.025 361.664 835.647 430.248 830.122 430.57 816.5 361.987 822.025 361.664"/><polygon class="cls-87" points="827.549 361.342 841.171 429.925 835.647 430.248 822.025 361.664 827.549 361.342"/><polygon class="cls-88" points="833.074 361.02 846.695 429.603 841.171 429.925 827.549 361.342 833.074 361.02"/><polygon class="cls-89" points="838.598 360.697 852.22 429.281 846.695 429.603 833.074 361.02 838.598 360.697"/><polygon class="cls-90" points="844.123 360.375 857.744 428.958 852.22 429.281 838.598 360.697 844.123 360.375"/><polygon class="cls-91" points="849.647 360.053 863.269 428.636 857.744 428.958 844.123 360.375 849.647 360.053"/><polygon class="cls-92" points="855.172 359.73 868.793 428.314 863.269 428.636 849.647 360.053 855.172 359.73"/><polygon class="cls-93" points="860.696 359.408 874.318 427.991 868.793 428.314 855.172 359.73 860.696 359.408"/><polygon class="cls-94" points="866.221 359.086 879.842 427.669 874.318 427.991 860.696 359.408 866.221 359.086"/><polygon class="cls-95" points="871.745 358.763 885.367 427.347 879.842 427.669 866.221 359.086 871.745 358.763"/><polygon class="cls-96" points="877.269 358.441 890.891 427.024 885.367 427.347 871.745 358.763 877.269 358.441"/><polygon class="cls-97" points="882.794 358.119 896.415 426.702 890.891 427.024 877.269 358.441 882.794 358.119"/><polygon class="cls-98" points="888.318 357.796 901.94 426.38 896.415 426.702 882.794 358.119 888.318 357.796"/><polygon class="cls-99" points="893.843 357.474 907.464 426.057 901.94 426.38 888.318 357.796 893.843 357.474"/><polygon class="cls-100" points="899.367 357.152 912.989 425.735 907.464 426.057 893.843 357.474 899.367 357.152"/><polygon class="cls-101" points="904.892 356.829 918.513 425.412 912.989 425.735 899.367 357.152 904.892 356.829"/><polygon class="cls-102" points="910.416 356.507 924.038 425.09 918.513 425.412 904.892 356.829 910.416 356.507"/><polygon class="cls-103" points="915.941 356.184 929.562 424.768 924.038 425.09 910.416 356.507 915.941 356.184"/><polygon class="cls-104" points="921.465 355.862 935.087 424.445 929.562 424.768 915.941 356.184 921.465 355.862"/><polygon class="cls-105" points="926.989 355.54 940.611 424.123 935.087 424.445 921.465 355.862 926.989 355.54"/><polygon class="cls-106" points="932.514 355.217 946.135 423.801 940.611 424.123 926.989 355.54 932.514 355.217"/><polygon class="cls-107" points="938.038 354.895 951.66 423.478 946.135 423.801 932.514 355.217 938.038 354.895"/><polygon class="cls-108" points="943.563 354.573 957.184 423.156 951.66 423.478 938.038 354.895 943.563 354.573"/><polygon class="cls-109" points="949.087 354.25 962.709 422.834 957.184 423.156 943.563 354.573 949.087 354.25"/><polygon class="cls-110" points="954.612 353.928 968.233 422.511 962.709 422.834 949.087 354.25 954.612 353.928"/><polygon class="cls-111" points="960.136 353.606 973.758 422.189 968.233 422.511 954.612 353.928 960.136 353.606"/><polygon class="cls-112" points="965.661 353.283 979.282 421.867 973.758 422.189 960.136 353.606 965.661 353.283"/><polygon class="cls-113" points="971.185 352.961 984.807 421.544 979.282 421.867 965.661 353.283 971.185 352.961"/><polygon class="cls-114" points="976.709 352.639 990.331 421.222 984.807 421.544 971.185 352.961 976.709 352.639"/><polygon class="cls-115" points="982.234 352.316 995.856 420.9 990.331 421.222 976.709 352.639 982.234 352.316"/><polygon class="cls-116" points="987.758 351.994 1001.38 420.577 995.856 420.9 982.234 352.316 987.758 351.994"/><polygon class="cls-117" points="993.283 351.672 1006.904 420.255 1001.38 420.577 987.758 351.994 993.283 351.672"/><polygon class="cls-118" points="998.807 351.349 1012.429 419.933 1006.904 420.255 993.283 351.672 998.807 351.349"/><polygon class="cls-119" points="1004.332 351.027 1017.953 419.61 1012.429 419.933 998.807 351.349 1004.332 351.027"/><polygon class="cls-120" points="1009.856 350.705 1023.478 419.288 1017.953 419.61 1004.332 351.027 1009.856 350.705"/><polygon class="cls-121" points="1015.381 350.382 1029.002 418.966 1023.478 419.288 1009.856 350.705 1015.381 350.382"/><polygon class="cls-122" points="1020.905 350.06 1034.527 418.643 1029.002 418.966 1015.381 350.382 1020.905 350.06"/><polygon class="cls-123" points="1026.43 349.738 1040.051 418.321 1034.527 418.643 1020.905 350.06 1026.43 349.738"/><polygon class="cls-124" points="1031.954 349.415 1045.576 417.998 1040.051 418.321 1026.43 349.738 1031.954 349.415"/><polygon class="cls-125" points="1037.478 349.093 1051.1 417.676 1045.576 417.998 1031.954 349.415 1037.478 349.093"/><polygon class="cls-126" points="1043.003 348.77 1056.624 417.354 1051.1 417.676 1037.478 349.093 1043.003 348.77"/><polygon class="cls-127" points="1048.527 348.448 1062.149 417.031 1056.624 417.354 1043.003 348.77 1048.527 348.448"/><polygon class="cls-128" points="1054.052 348.126 1067.673 416.709 1062.149 417.031 1048.527 348.448 1054.052 348.126"/><polygon class="cls-129" points="1059.576 347.803 1073.198 416.387 1067.673 416.709 1054.052 348.126 1059.576 347.803"/><polygon class="cls-130" points="1065.101 347.481 1078.722 416.064 1073.198 416.387 1059.576 347.803 1065.101 347.481"/><polygon class="cls-131" points="1070.625 347.159 1084.247 415.742 1078.722 416.064 1065.101 347.481 1070.625 347.159"/><polygon class="cls-132" points="1076.15 346.836 1087.098 401.96 1087.805 415.534 1084.247 415.742 1070.625 347.159 1076.15 346.836"/><polygon class="cls-132" points="1087.098 401.96 1076.15 346.836 1084.203 346.367 1087.098 401.96"/></g><path d="M977.5044,421.261c-56.6287,3.3043-128.1141,4.8722-203.3769,4.4355-83.8364-.4853-162.7569-3.3893-222.223-8.1773-93.5734-7.5309-93.888-15.4134-94.0759-20.1219a6.7657,6.7657,0,0,1,.519-2.9788c3.0449-6.8079,35.2965-12.3114,95.86-16.3574,58.6409-3.91,136.0118-5.814,217.8273-5.3388,83.8364.4854,162.7569,3.3894,222.223,8.1773,93.5734,7.531,93.8881,15.4134,94.075,20.1221a6.7516,6.7516,0,0,1-.518,2.9787c-3.0449,6.8079-35.2966,12.3114-95.86,16.3573Q984.91,420.8271,977.5044,421.261ZM461.7122,397.3976c14.566,10.1953,133.7905,21.3215,312.1961,22.3565,178.3266,1.0338,296.7285-8.7069,310.5422-18.7328-14.5659-10.1954-133.79-21.3216-312.196-22.3566C593.9259,377.6291,475.5249,387.37,461.7122,397.3976Z"/><path d="M631.3569,393.5546c13.7172-49.7629,63.2755-69.1042,106.6257-75.7946,44.951-6.9375,95.3689-5.9436,132.8252,25.1878,18.0715,15.02,31.5638,35.8725,35.6764,60.2279.4286,2.5383,4.0408,1.4838,3.6133-1.0476-7.8925-46.74-47.4973-77.8649-88.7362-87.4967-25.35-5.9208-51.6262-5.2126-77.2434-1.7725-24.3992,3.2765-49.144,8.8643-70.8157,21.8524-21.0936,12.6416-38.6064,32.5773-45.5471,57.7567a1.8817,1.8817,0,1,0,3.6018,1.0866Z"/><path d="M641.333,393.6768c12.8213-46.38,58.9208-64.4749,99.3623-70.7539,42.08-6.5335,89.2437-5.6421,124.34,23.4491,16.92,14.0243,29.5165,33.5324,33.3759,56.3016.43,2.5381,4.0424,1.4838,3.6133-1.0476-7.4479-43.9406-44.6976-73.0542-83.4743-82.019-23.5407-5.4424-47.95-4.7668-71.7291-1.5853-22.8873,3.0623-46.1082,8.2892-66.4362,20.4743-19.7643,11.8473-36.135,30.5127-42.6539,54.0942a1.8817,1.8817,0,1,0,3.6018,1.0866Z"/><path d="M628.721,395.5314c1.214.5042,2.0387,1.6161,3.3646,2.0159a13.2032,13.2032,0,0,0,3.8968.4233,5.9328,5.9328,0,0,0,3.344-.7319c1.1656-.7866,1.29-2.0175,2.0077-3.1535a1.9066,1.9066,0,0,0-3.2194-2.0435c-.4.6338-.5325,1.5979-1.2517,1.8953a7.1052,7.1052,0,0,1-2.7958-.0627c-1.7323-.2371-2.766-1.5583-4.3307-2.2082-2.2468-.9332-3.2417,2.9407-1.0155,3.8653Z"/><path d="M898.5905,404.0738a11.971,11.971,0,0,0,11.0352.23c2.2035-1.0291.3207-4.4991-1.87-3.4763a8.1259,8.1259,0,0,1-7.2587-.21c-2.152-1.1314-4.07,2.3186-1.907,3.4558Z"/><path d="M631.8589,393.2905c5.835.2492,8.3826-10.7211,9.9957-15.7912a1.8881,1.8881,0,0,0-3.4106-1.565c-2.3565,4.2949-5.8961,8.93-7.0773,13.7689a2.1523,2.1523,0,0,0,.8474,2.2712c4.3218,3.3719,5.9364-4.5,7.9207-6.7589l-2.9248-2.448-2.6772,6.1735,3.4106,1.565c1.27-5.07,4.7246-9.9924,7.3658-14.3518l-3.4106-1.565c-.2542.743-4.5454,14.6771-4.3282,14.6982l1.79,2.55c1.972-9.585,7.0463-18.5666,11.32-27.169.9448-1.9015-1.5227-4.3043-2.9248-2.448a217.9673,217.9673,0,0,0-12.1641,18.4034l3.22,2.0434,10.8164-19.1743a1.9067,1.9067,0,0,0-3.2195-2.0434c-3.414,4.782-5.6682,10.1481-7.8541,15.6578-.8361,2.1076,2.3962,3.52,3.4106,1.5651a189.4313,189.4313,0,0,1,9.916-17.1619c3.68-5.5766,8.15-13.012,14.0481-16.081l-2.25-3.1645a70.4065,70.4065,0,0,0-18.9883,27.687c-.8877,2.2865,2.2448,3.19,3.4106,1.5651,2.2314-3.1108,4.4074-6.2616,6.477-9.499,2.0968-3.28,3.9127-7.8112,7.14-9.9883l-2.25-3.1644a57.8544,57.8544,0,0,0-9.0368,9.7165c-1.4868,2.01.7413,4.5244,2.63,2.8527l15.2028-13.4559c1.8626-1.6486-.78-4.4747-2.63-2.8527a124.3954,124.3954,0,0,0-13.012,13.2546l3.1159,1.97c2.6769-7.8087,11.764-14.4478,18.59-17.4952l-1.87-3.4763a41.5806,41.5806,0,0,0-9.501,8.7217c-1.5883,1.9812.7588,4.4658,2.63,2.8526a111.5664,111.5664,0,0,0,8.5877-8.24c1.71-1.8243-.919-4.6781-2.63-2.8527a111.5713,111.5713,0,0,1-8.5877,8.24l2.63,2.8526a38.5019,38.5019,0,0,1,8.74-8.098,1.979,1.979,0,0,0-1.87-3.4763c-7.9342,3.542-17.2539,10.9335-20.3226,19.8849-.6445,1.88,1.8907,3.418,3.116,1.97a124.3851,124.3851,0,0,1,13.0119-13.2546l-2.63-2.8527-15.2029,13.4559,2.63,2.8527a57.8487,57.8487,0,0,1,9.0368-9.7165c1.6653-1.424-.4681-4.3665-2.25-3.1645-2.84,1.9159-4.2354,4.5345-6.0516,7.5062-2.81,4.5978-5.7894,9.0565-8.9149,13.4138l3.4106,1.565a66.3058,66.3058,0,0,1,18.0166-25.9209c1.727-1.531-.4476-4.1022-2.25-3.1645-5.4382,2.83-9.2015,8.6463-12.78,13.6862a176.3778,176.3778,0,0,0-12.534,20.99l3.4106,1.565a67.3443,67.3443,0,0,1,7.4718-14.701l-3.2195-2.0434-10.8164,19.1743c-1.2545,2.2239,1.91,4.2,3.22,2.0434a208.1916,208.1916,0,0,1,11.5747-17.5942l-2.9248-2.448c-4.4272,8.9106-9.6556,18.1759-11.7027,28.1258a2.018,2.018,0,0,0,1.79,2.55c1.5651.1527,2.3733-.544,3.1613-1.8512.9807-1.6269,1.2441-4.5369,1.742-6.3334.8848-3.1924,1.98-6.3162,3.0484-9.4411a1.8888,1.8888,0,0,0-3.4106-1.565c-2.8838,4.76-6.3621,9.7735-7.7481,15.3086-.53,2.1159,2.4883,3.6917,3.4106,1.565l2.6772-6.1735c.8384-1.9335-1.3613-4.2281-2.9248-2.448-.6057.6895-4.4092,5.3554-3.3836,6.1557l.8474,2.2712c1.0662-4.3681,4.5788-8.9551,6.695-12.812l-3.4107-1.565a83.5607,83.5607,0,0,1-3.9214,10.2366c-.6656,1.4174-1.96,3.0521-2.2586,4.5531-.3124,1.57-.2612,2.26.9034,3.4155,2.8026,2.7807,6.7145.3969,5.8707-3.4076a1.93,1.93,0,0,0-1.2989-1.4089,25.7293,25.7293,0,0,0-5.6674-.5251c-2.4075-.1028-2.426,3.9114-.0217,4.0141Z"/><path d="M675.2518,342.8923c4.9-5.0449,13.9372-6.4855,20.1-9.7548,1.7586-.933.81-3.65-.9239-3.7452a22.1184,22.1184,0,0,0-14.8,4.4409c-1.7257,1.2619-.7154,4.2036,1.4216,3.6762,9.0523-2.2341,15.9672-8.6153,25.62-9.0152l-.476-3.945c-4.2329.808-9.92,1.212-13.0489,4.6505-1.2832,1.41-.0291,3.92,1.8019,3.3644,4.8472-1.47,8.765-4.94,13.5221-6.5623,4.2127-1.4364,8.56.06,12.5495-2.0723,1.6021-.8561.9291-3.9443-.9239-3.7452a47.1686,47.1686,0,0,0-15.2392,4.28c-2.2025,1.0321-.32,4.5022,1.87,3.4762a41.1587,41.1587,0,0,1,13.3479-3.742l-.9239-3.7452c-3.7809,2.02-9.2314.6116-13.3923,2.3751-4.0671,1.7237-7.5267,4.5687-11.7835,5.86l1.8019,3.3644c2.3754-2.61,8.2356-3.0246,11.3924-3.6272,2.0772-.3965,1.6182-4.0318-.4759-3.945-10.1517.42-17.0776,6.7992-26.6156,9.1531l1.4216,3.6762a18.9441,18.9441,0,0,1,12.9087-3.9031l-.924-3.7452c-6.7031,3.5562-15.3649,4.7205-20.86,10.3784-1.741,1.7926.8906,4.6437,2.63,2.8527Z"/><path d="M720.909,323.9193c12.8619-2.2775,25.7639-4.7824,38.717-6.3749,2.3627-.2905,2.4128-4.308.0217-4.0141-13.2877,1.6337-26.5182,4.1766-39.7123,6.513-2.3709.42-1.3875,4.2941.9736,3.876Z"/><path d="M759.6262,317.3515c7.0855-.0333,14.1775-.4454,21.2628-.2417,7.0468.2026,13.8,1.3021,20.8613.5138,2.3693-.2645,2.4173-4.2816.0217-4.0141-7.072.79-13.8059-.3109-20.8614-.5138-7.0855-.2036-14.1769.2085-21.2627.2417-2.4062.0113-2.4338,4.0254-.0217,4.0141Z"/><path d="M800.248,318.8206c9.5868-.832,18.6519,3.0843,27.87,5.2214a126.0359,126.0359,0,0,1,22.7059,7.1669c2.228.9761,3.22-2.9,1.0155-3.8653-8.1387-3.5654-16.1925-5.4113-24.6584-7.663-8.79-2.3378-17.7364-5.67-26.9115-4.874-2.3819.2067-2.4253,4.2226-.0216,4.014Z"/><path d="M869.7065,341.7381c-4.2488-3.3307-8.6668-6.4788-13.1985-9.3515a37.9852,37.9852,0,0,0-4.5953-2.4678c-1.9746-.9015-6.6414-1.8721-7.943-3.5816l-.3957,3.15.1664-.0875-2.5555-.7338.0709.1294c1.2187,2.2243,4.4652.2252,3.2414-2.0085l-.0709-.13a1.8438,1.8438,0,0,0-2.5555-.7338l-.1663.0875c-1.1726.617-1.101,2.2237-.3956,3.15,2.3921,3.1417,8.8262,4.0436,12.0444,5.9127a128.6732,128.6732,0,0,1,14.4462,10.12c1.9463,1.5257,3.8345-1.9448,1.907-3.4558Z"/><path d="M868.4113,345.4623c2.4171,1.1364,5.428,1.9642,7.0448,4.3194,1.3294,1.9366,2.256,3.5226,4.4214,4.4435,2.2553.9592,3.1924-2.8846,1.0154-3.8653-2.8385-1.2786-5.6079-2.7107-8.3258-4.2608-2.1234-1.211-4.0354,2.242-1.907,3.4558,3.0057,1.7142,6.0792,3.2567,9.2174,4.67l1.0154-3.8653c-1.8269-.777-2.6147-3.6753-4.1562-4.9888-1.837-1.5652-4.29-2.364-6.4184-3.3646-2.1818-1.0257-4.108,2.4211-1.907,3.4558Z"/><path d="M877.6358,354.62a36.4737,36.4737,0,0,1,8.8625,8.83l2.6607-2.8241c-1.9753-2.16-3.8764-4.5-6.4714-5.8075-1.7843-.8993-3.9829,1.5049-2.2839,3.14a99.6558,99.6558,0,0,1,7.9475,8.606c1.5937,1.9422,4.2473-.8907,2.6608-2.8241a99.6534,99.6534,0,0,0-7.9475-8.606l-2.2839,3.14c2.3121,1.1654,3.9574,3.2507,5.7177,5.1758,1.7368,1.9,4.0834-.8374,2.6607-2.8241a39.3915,39.3915,0,0,0-9.6162-9.4617c-2.0261-1.4079-3.9232,2.0548-1.907,3.4558Z"/><path d="M896.6857,374.0417c-3.0254-3.56-6.567-6.993-8.4095-11.454L885.702,365.32c3.5529,1.9659,5.6975,6.5029,7.8871,9.9644,1.1057,1.7482,4.2217.7415,3.4273-1.528a21.3818,21.3818,0,0,0-2.0842-4.4289l-2.9511,2.4163a18.4006,18.4006,0,0,1,4.323,10.7869l3.201-1.4019a10.596,10.596,0,0,1-3.2416-4.9355c-.7732-2.4287-4.3944-1.4056-3.6133,1.0476a14.5068,14.5068,0,0,0,4.1941,6.7119c1.1133,1.0036,3.3354.4944,3.201-1.4019a23.0578,23.0578,0,0,0-5.4034-13.6312c-1.4007-1.6724-4.1479.5118-2.9511,2.4163a16.35,16.35,0,0,1,1.7123,3.468l3.4273-1.5281c-2.5481-4.0283-5.0511-9.1042-9.2214-11.4117-1.7469-.9667-3.3249.9145-2.5741,2.7321,1.9726,4.7762,5.7559,8.4638,8.99,12.27,1.6252,1.9123,4.281-.9176,2.6608-2.8241Z"/><path d="M903.23,384.0887a12.162,12.162,0,0,0-3.37-4.1966,1.8432,1.8432,0,0,0-2.7544,1.1846c-.68,3.4317,1.9156,7.93,3.0175,11.0889l3.137-1.9359c-1.3641-1.9135-1.6822-4.3523-1.9459-6.675-.2818-2.481-3.746-2.6841-3.7412-.02.0061,3.4287,1.2859,6.8455,2.1319,10.1237l3.4274-1.528c-1.9107-3.66-1.8151-8.0043-4.9427-10.912-1.4936-1.3886-4.2423.4183-2.9511,2.4163,3.1508,4.8754,6.1322,9.0669,5.5535,15.3414-.237,2.57,3.5057,2.5736,3.7412.02.6424-6.9648-2.5164-11.8973-6.0533-17.37l-2.9511,2.4163c2.6759,2.4878,2.6865,6.8864,4.3621,10.0964,1.0331,1.9791,3.996.6753,3.4273-1.5281-.735-2.8482-1.9988-6.0785-2.004-9.0559l-3.7412-.02c.4037,3.555.9674,6.6309,3.0264,9.5193,1.1243,1.5773,3.7719-.1158,3.137-1.9358l-1.6987-4.87c-.3289-.9428-1.5284-3.0862-1.33-4.0851l-2.7544,1.1847a7.824,7.824,0,0,1,2.0355,2.7492c1.1158,2.2894,4.3572.2809,3.2414-2.0085Z"/><path d="M900.66,397.8007a18.8889,18.8889,0,0,0,3.9988,1.7582c1.5076.4592,2.4972-1.0038,2.3144-2.4565a13.8426,13.8426,0,0,0-2.0166-5.631,1.9067,1.9067,0,0,0-3.2414,2.0086,11.08,11.08,0,0,1,1.6447,4.67l2.3144-2.4564a14.4467,14.4467,0,0,1-3.1073-1.3488c-2.115-1.2318-4.0254,2.222-1.907,3.4559Z"/><path d="M905.5072,397.716a13.9171,13.9171,0,0,1-3.774.8673,1.9912,1.9912,0,0,0-1.8814,1.997,1.9578,1.9578,0,0,0,1.86,2.0171,17.4908,17.4908,0,0,0,4.7693-1.0053,2.08,2.08,0,0,0,1.32-2.4619,1.8756,1.8756,0,0,0-2.2935-1.4142Z"/><path d="M628.4916,393.4226c-.2568,2.5079,1.6451,3.4512,3.6289,3.7211l-1.3195-.595.3438.2994.8436-3.35a1.7163,1.7163,0,0,1-1.2607-.0639l-2.951,2.4163a11.1891,11.1891,0,0,0,8.242,3.1718c3.7877-.0853,4.3789-3.4021,5.3948-6.66a1.8816,1.8816,0,1,0-3.6018-1.0866c-.242.7762-.4894,2.691-1.0165,3.26-.5949.6419-1.0746.4935-1.86.4059a7.1009,7.1009,0,0,1-4.4976-1.9152,1.9267,1.9267,0,0,0-2.951,2.4163c1.3234,2.1419,3.2627,2.2785,5.4756,1.9313,1.3356-.2094,1.8791-2.4485.8436-3.35-.4446-.3871-1.495-1.3406-1.5728-.5812.2627-2.5653-3.48-2.5668-3.7412-.02Z"/><path d="M400.0508,700.09c.1416-16.83,1.109-28.2738,2.133-40.39.952-11.26,1.9365-22.9033,2.2035-39.2481a378.322,378.322,0,0,0-2.1185-47.7084c-.7777-8.3215-1.5811-16.9268-2.2215-28.5008A640.0745,640.0745,0,0,1,404.37,429.0835l.388-3.0751-19.0071,4.0882L109.3085,460.905l.4867,4.3674.1521-.0169c2.0875,22.2473,4.0289,44.6738,5.7643,66.7388,3.9807,50.62,6.158,89.7118,7.9074,121.1234,1.2506,22.4569,2.4051,45.1714,3.4318,67.5476a191.17,191.17,0,0,0-18.4685,5.4224c-.3635.1262-.7262.255-1.088.3837l-.806.2876-.3987.7571a15.8757,15.8757,0,0,0-1.1391,2.75c-1.1867,3.8722-.4786,6.9743.3416,10.5667a54.2052,54.2052,0,0,1,1.4421,8.8619c.0446.6378.0837,1.6618.1159,3.0429.0455,1.9692.0249,3.8945-.0129,7.39-.0348,3.2439-.0841,7.8233-.1086,15.0191-.0335,9.9306.018,13.9641.0485,16.3736.0288,2.23.04,3.1537-.0476,6.2293-.0447,1.5648-.0936,2.9356-.1382,4.1768a80.7659,80.7659,0,0,0,.1476,11.8586,75.16,75.16,0,0,0,3.4164,16.2379l.7171,2.182,56.4358-21.3537c-.47,11.4446-.95,22.85-1.4355,34.06l-.1451,3.3528,3.1314-1.2069a895.2023,895.2023,0,0,1,100.6-32.2373c5.8369-1.4867,11.5289-2.8687,17.0319-4.2043,18.8818-4.5846,36.7164-8.9143,61.121-17.3942a555.8269,555.8269,0,0,0,55.3191-22.6132l1.4541-.6893-.218-1.5949A475.88,475.88,0,0,1,400.0508,700.09Z"/><path class="cls-133" d="M113.848,826.4564a70.6468,70.6468,0,0,1-2.5348-13.0929,76.4071,76.4071,0,0,1-.13-11.28c.0446-1.2506.094-2.6318.1391-4.2086.0905-3.1657.0785-4.1159.0493-6.4112-.0309-2.3958-.082-6.407-.0485-16.3015.0241-7.1812.0734-11.75.1082-14.9874.0382-3.5433.0592-5.4953.0124-7.5391-.0343-1.47-.0755-2.5339-.1262-3.2507a58.7345,58.7345,0,0,0-1.5412-9.5306c-.7631-3.3425-1.2674-5.55-.4244-8.3005a11.3535,11.3535,0,0,1,.4639-1.2421c.0708-.0249.1421-.05.2133-.0738a186.4956,186.4956,0,0,1,19.79-5.7082l1.788-.41-.0841-1.8318c-1.0481-22.9789-2.231-46.3332-3.5168-69.4146-1.75-31.4335-3.93-70.5537-7.9143-121.223-1.7389-22.1125-3.6843-44.5873-5.7769-66.8815l228.7709-25.4955L135.7925,483.8593l.1339,1.9018c7.7263,109.8091,10.5263,176.2361,8.3237,197.4351a199.0276,199.0276,0,0,0-.7236,20.2054c-.0086,4.9786-.0172,10.1263-.3236,15.1427q-.1146,1.8631-.2326,3.6653c-.9048,14.031-1.558,24.1685,4.667,26.8818,1.8352.8,3.1657.5314,13.0053-1.8077,3.4344-.8172,6.5915-1.58,9.4259-2.2739-.6129,16.6784-1.2567,33.4734-1.9159,49.9646q-.222,5.5509-.4488,11.1044Z"/><path class="cls-133" d="M399.7967,765.5629a551.7307,551.7307,0,0,1-53.4273,21.7488c-24.2055,8.41-41.94,12.716-60.7149,17.274-5.516,1.3391-11.2191,2.7236-17.0809,4.2164a897.7023,897.7023,0,0,0-97.9652,31.1952c.6609-15.3315,1.3107-30.9927,1.9356-46.6057.6979-17.4552,1.3786-35.2494,2.0224-52.8891l.1064-2.9116-2.8292.6987c-3.4988.8635-7.6061,1.8635-12.2173,2.96-6.0173,1.4318-9.7117,2.2824-10.2328,2.0549-3.3974-1.4807-2.7056-12.2018-2.0369-22.5693.0772-1.2052.1571-2.4335.2326-3.6808.3142-5.146.3236-10.3606.3322-15.4027a195.7742,195.7742,0,0,1,.7-19.7591c2.2163-21.3273-.5348-87.3715-8.1769-196.2956l246.0181-52.9156,13.0055-1.4494a642.7768,642.7768,0,0,0-3.8084,111.4962c.6446,11.6568,1.4884,20.6938,2.2335,28.6669a374.555,374.555,0,0,1,2.1,47.2272c-.2644,16.1955-1.2421,27.7634-2.188,38.95-.9854,11.6646-2.0052,23.7265-2.1485,40.7224A480.5452,480.5452,0,0,0,399.7967,765.5629Z"/><path class="cls-134" d="M405.0839,608.9945c17.0849,2.9684,27.2932,9.7493,32.62,14.122a70.7914,70.7914,0,0,1,16.28,19.6838c4.0568,7.82,5.92,15.757,13.795,25.5632a36.9877,36.9877,0,0,0,5.3655,5.595,40.6607,40.6607,0,0,0,18.1435,8.3287"/><path class="cls-135" d="M496.5685,676.9047a43.8318,43.8318,0,0,1,8.354-6.6412c5.0588-3.0562,10.68-6.4521,13.25-4.5182,1.7977,1.3529,2.952,8.4981,2.3139,6.3406h0a47.6118,47.6118,0,0,1-5.9915,3.56c-4.0838,1.9031-7.5036,1.82-7.4772,2.0948.0373.3885,6.7575-.6153,14.4268,1.6031a10.3866,10.3866,0,0,1,5.813,3.4788c1.3071,1.7272,2.2831,4.4833,1.2869,5.5531-.743.7979-2.0784.116-6.361-.6372-2.7468-.4831-1.7-.1151-8.0658-.966-4.9375-.66-7.4278-1.13-7.4976-.8564-.1541.604,12.249,1.82,16.412,9.6487.3832.7208,1.9309,3.6314.7186,5.4436-1.1452,1.7118-4.2215,1.6486-6.1215,1.1773-2.5-.62-3.2355-2.0146-6.73-4.8346-3.5882-2.8952-6.5368-5.2744-7.9766-4.4854-2.218,1.2154,1.6177,8.5943-1.6236,11.4757-1.7621,1.5666-5.18,1.4161-6.4705-.0689-.8659-.9965-.3316-2.0849-.0407-5.9022.28-3.6719.5166-6.78-.41-10.1-.9123-3.2682-2.081-3.62-1.8552-5.6627C492.6848,681.1307,493.4615,679.821,496.5685,676.9047Z"/><path class="cls-134" d="M147.6547,645.6872c-20.2895,3.5791-32.2945,11.1382-38.5388,15.9858A77.8893,77.8893,0,0,0,90.18,683.33c-4.65,8.5519-6.6838,17.1843-15.8368,27.9685a41.87,41.87,0,0,1-6.262,6.1718c-7.4114,5.8367-15.7855,8.2778-21.4248,9.4045"/><path class="cls-135" d="M43.3051,721.7758a52.0356,52.0356,0,0,0-10.1116-7.0106c-6.1-3.2-12.8788-6.7561-15.8954-4.6076-2.11,1.503-3.3176,9.2627-2.608,6.9135h0a58.39,58.39,0,0,0,7.2237,3.7258c4.9113,1.9728,8.9846,1.8095,8.96,2.1076-.0353.4214-8.0672-.5214-17.1542,2.0443-2.5682.7251-5.0891,1.6933-6.8452,3.89-1.5169,1.8977-2.615,4.9023-1.4027,6.0391.9042.8478,2.48.081,7.5651-.826,3.2619-.5817,2.0237-.161,9.5891-1.2183,5.8682-.82,8.8247-1.3823,8.9144-1.0876.1978.6506-14.5539,2.232-19.33,10.7965-.44.7885-2.2154,3.9724-.728,5.9082,1.405,1.8286,5.0693,1.6944,7.3224,1.1435,2.965-.7249,3.8081-2.25,7.9065-5.3776,4.2076-3.211,7.6654-5.85,9.4-5.0264,2.6718,1.2683-1.7252,9.3383,2.2051,12.3882,2.1368,1.6582,6.2063,1.4222,7.7091-.213,1.0084-1.0973.346-2.2641-.0906-6.39-.42-3.969-.7753-7.3283.2509-10.942,1.01-3.5576,2.3945-3.9638,2.0773-6.17C48.0327,726.2676,47.0762,724.8663,43.3051,721.7758Z"/><path class="cls-134" d="M245.2654,820.386c-2.1419,42.4929,1.5607,59.1153,6.1985,65.4506a20.48,20.48,0,0,1,4.4383,11.4687c.2264,6.8149-3.8023,11.9805-4.7529,13.3023-4.7029,6.54-8.8718,23.0265-7.7025,65.1772"/><path class="cls-136" d="M279.8977,987.9917c-.4364,1.6612-3.4528,2.002-6.0878,2.3-7.6261.8617-11.8852-1.88-17.6205-3.5138-12.6741-3.6115-19.1559,2-20.9758-2.4116-1.6854-4.0864,2.2269-12.8945,7.527-15.8246,2.4145-1.3348,5.1881-1.489,15.943,4.0648C266.7074,976.75,280.9228,984.09,279.8977,987.9917Z"/><path class="cls-136" d="M356.5863,964.1337c-.3927,1.672-3.3992,2.0919-6.0254,2.4587-7.6009,1.0617-11.93-1.5667-17.7067-3.05-12.7646-3.2776-19.0968,2.5027-21.0318-1.86-1.7922-4.0407,1.8876-12.9486,7.1088-16.0168,2.3787-1.3978,5.1473-1.6247,16.0443,3.6448C343.1053,953.2419,357.5085,960.2068,356.5863,964.1337Z"/><path class="cls-137" d="M241.6543,630.8752q-.6138,0-1.2315-.0478c-12.4307-.97-21.4082-16.3174-20.0117-34.2129,1.3437-17.2383,11.8164-30.7422,23.8418-30.7422q.6138,0,1.2324.0479c5.8906.4589,11.22,4.1806,15.0039,10.4785,3.9151,6.5146,5.6924,14.9424,5.0068,23.7334C264.1523,617.3713,253.68,630.8752,241.6543,630.8752Z"/><path d="M244.2553,563.8716v4h0c.3557,0,.7168.0142,1.0737.042,5.2285.4078,10.0037,3.787,13.4458,9.5151,3.7024,6.1608,5.3813,14.1683,4.7278,22.5473-1.2429,15.935-11.0442,28.8991-21.8489,28.8991-.3569,0-.719-.0141-1.0759-.0419-5.2285-.4078-10.0037-3.787-13.4458-9.5151-3.7022-6.1609-5.3811-14.1683-4.7278-22.5473,1.2429-15.9336,11.0444-28.8978,21.8494-28.8992l.0014-4m-.0019,0c-12.9856.0018-24.4036,14.2157-25.8367,32.5881-1.4836,19.0249,8.2991,35.3045,21.85,36.3613.4649.0363.9258.0541,1.387.0541,12.9858,0,24.4036-14.2157,25.8367-32.5881,1.4839-19.0249-8.2989-35.3044-21.85-36.3613-.4648-.0362-.9257-.0541-1.3869-.0541Z"/><path d="M224.0946,637.0441a39.8711,39.8711,0,0,0,27.0127,4.357c1.896-.35,1.0929-3.2417-.7975-2.8928a36.5035,36.5035,0,0,1-24.701-4.0546c-1.691-.9347-3.206,1.6552-1.5142,2.59Z"/><path d="M339.2753,611.7114a36.1269,36.1269,0,0,1-27.78,13.9218c-1.9274.0449-1.9345,3.045,0,3a38.9849,38.9849,0,0,0,29.9009-14.8c1.1867-1.4977-.9224-3.6345-2.1213-2.1213Z"/><ellipse class="cls-138" cx="242.9165" cy="600.8717" rx="12.3057" ry="9.2293" transform="translate(-375.0242 796.3315) rotate(-85.5404)"/><path d="M284.3614,623.3509c.389,5.7748,4.4984,10.5055,6.2145,15.9313,1.0706,3.3846,2.5627,8.2281,1.5757,11.7379-.8739,3.108-4.1515,5.1921-5.9365,7.795-1.0946,1.5962,1.5041,3.0983,2.59,1.5142,1.7127-2.4975,4.472-4.2,5.7138-7.02,1.1107-2.5219.8714-5.2918.5015-7.948a42.7885,42.7885,0,0,0-3.0926-11.0087c-1.5555-3.6213-4.2956-6.9745-4.5668-11.0018-.1291-1.9161-3.13-1.93-3,0Z"/><path d="M317.8208,522.2727a48.22,48.22,0,0,1,27.83,14.3816c1.3413,1.3938,3.461-.7292,2.1214-2.1213A50.8048,50.8048,0,0,0,318.6183,519.38c-1.8887-.2889-2.7029,2.6014-.7975,2.8928Z"/><path d="M236.1722,534.3922a50.686,50.686,0,0,0-23.9371,22.5c-.9069,1.7035,1.6819,3.2209,2.59,1.5141a48.0748,48.0748,0,0,1,22.8609-21.4242c1.7556-.7964.2323-3.3827-1.5142-2.59Z"/><path class="cls-137" d="M313.2871,617.73c-5.9063-.1572-11.419-3.6006-15.5215-9.6963-4.2432-6.3046-6.4522-14.6308-6.2178-23.4443.4678-17.6152,10.8057-31.9463,23.0459-31.9463.1387,0,.28.001.4209.0049,12.4629.3311,22.2158,15.1973,21.74,33.1406-.4677,17.6162-10.8047,31.9463-23.0439,31.9463C313.71,617.7346,313.4277,617.7336,313.2871,617.73Z"/><path d="M314.5932,554.6423c.1218,0,.2459.0016.3682.0049,5.2427.139,10.1848,3.2689,13.9162,8.8129,4.0132,5.9629,6.1006,13.8736,5.8777,22.2753-.4389,16.5419-9.88,30-21.0464,30-.1218,0-.2456-.0016-.3679-.0049-5.2427-.1391-10.1848-3.269-13.9162-8.813-4.0135-5.9629-6.1009-13.8737-5.878-22.2752.439-16.5419,9.88-30,21.0464-30m0-4c-13.3791,0-24.5447,15.0388-25.0449,33.8936-.5061,19.076,10.0986,34.8324,23.6865,35.1929.1575.0042.3172.0063.4741.0063,13.3794,0,24.5447-15.0389,25.045-33.8937.5063-19.076-10.0984-34.8324-23.6863-35.1928-.1575-.0043-.3174-.0063-.4744-.0063Z"/><ellipse class="cls-138" cx="312.4743" cy="589.3663" rx="12.3057" ry="9.2293" transform="translate(-284.9724 886.0989) rotate(-88.4802)"/><path class="cls-134" d="M321.7368,799.2905c-2.142,42.4928,1.5606,59.1153,6.1985,65.4506a20.4812,20.4812,0,0,1,4.4382,11.4687c.2264,6.8149-3.8023,11.9805-4.7528,13.3022-4.703,6.54-8.8718,23.0265-7.7026,65.1772"/><path d="M205.8441,733.8757l-8.1917-37.2411,2.3483-.5165,9.4848,17.6665c2.1965,4.0932,4.0236,7.8041,5.6537,11.4425l.037-.0655c-1.2915-4.93-2.3377-9.4493-3.614-15.2515l-3.4273-15.5813,2.0279-.446,8.1917,37.2411-2.1757.4785-9.448-17.7329c-2.0733-3.8889-4.1217-7.8981-5.85-11.7473l-.0624.072c1.1566,4.669,2.1908,9.1336,3.5521,15.3224l3.5,15.9132Z"/><path d="M221.8369,730.5892l.4639-5.1994c-2.1141-3.0109-4.0114-7.7484-5.2269-13.2743-2.5887-11.7688-.9408-20.1836,3.4113-21.1409,1.5326-.3371,3.1852.3423,4.7973,2.0154l.4742-4.7964,1.7485,1.7005-.4882,5.0891c2.1262,3.0657,3.9626,7.76,5.1657,13.23,2.8562,12.9851.7172,20.3493-3.2632,21.2248-1.5823.3481-3.2721-.3814-4.8849-2.0543l-.512,5.0952Zm3.16-33.8291c-1.193-1.4173-2.45-2.1838-3.6863-1.9119-3.6344.7995-3.811,8.7167-2.0974,16.5069a38.7652,38.7652,0,0,0,3.4355,9.73l.0127-.0611Zm-.6769,26.8528c1.1925,1.534,2.3633,2.2611,3.6984,1.9674,3.4859-.7667,3.8471-8.3192,2-16.7176a37.8388,37.8388,0,0,0-3.2893-9.4138l-.0739.0162Z"/><path d="M251.4615,722.1035a8.7775,8.7775,0,0,1-4.6683,3.17c-2.5216.5547-4.9145-.4247-7.3116-3.5474-2.1152-2.7784-4.0985-7.5553-5.3748-13.3575-2.4187-11.1111-.7933-19.9837,4.795-21.2129a5.9765,5.9765,0,0,1,4.53.799l.3442,4.037a5.0877,5.0877,0,0,0-4.0365-.7918c-4.0551.8919-5.4606,7.11-3.4067,16.4477,2.0783,9.448,5.8524,14.4686,9.734,13.6148a3.885,3.885,0,0,0,2.65-1.625l-2.443-11.1066-3.3879.7452-.8507-3.8673,5.4889-1.2074Z"/><path d="M259.9011,703.68l-6.478,1.4249,2.9536,13.4273,7.22-1.588.8872,4.0332-9.3705,2.0612-8.1917-37.2411,9-1.98.8872,4.0333-6.8489,1.5065,2.5889,11.7695,6.4779-1.4249Z"/><path d="M267.2752,720.3631l-8.1917-37.2411,2.3483-.5166,9.4848,17.6666c2.1965,4.0932,4.0236,7.804,5.6538,11.4425l.0369-.0656c-1.2914-4.93-2.3377-9.4492-3.614-15.2514l-3.4273-15.5813,2.0279-.446,8.1917,37.241-2.1757.4786-9.448-17.7329c-2.0733-3.8889-4.1217-7.8981-5.85-11.7473l-.0624.072c1.1566,4.669,2.1908,9.1335,3.5521,15.3224l3.5,15.9132Z"/><path d="M275.459,680.041a10.1049,10.1049,0,0,1,3.7606-1.6379,4.8361,4.8361,0,0,1,5.17,1.7012,13.3065,13.3065,0,0,1,2.8305,6.271c.79,3.5911.42,6.9745-1.02,8.7969l.0244.1112c1.7767.5356,4.2755,3.0566,5.4908,8.5817a18.1273,18.1273,0,0,1,.2318,7.7691,5.9911,5.9911,0,0,1-4.9952,4.7487,11.8518,11.8518,0,0,1-3.4347.2918Zm5.5053,14.7771,1.9533-.43c2.2744-.5,3.0262-3.4457,2.2361-7.0376-.96-4.3651-2.8205-5.7513-4.9961-5.2728a4.4567,4.4567,0,0,0-1.8307.75Zm3.9258,17.8473a5.3975,5.3975,0,0,0,1.8533-.1763c2.2254-.49,3.8764-2.7638,2.6852-8.1793-1.1181-5.0829-3.5333-6.7533-5.8823-6.2366l-1.78.3916Z"/><path d="M290.899,676.1237l8.1917,37.2411-2.1508.4731-8.1917-37.2411Z"/><path d="M294.6563,675.2973l2.1507-.4731,7.3046,33.2078,7.12-1.5662.8872,4.0333-9.271,2.0392Z"/><path d="M306.3239,672.7308l2.1508-.4731,7.3045,33.2078,7.12-1.5662.8872,4.0333-9.271,2.0393Z"/><path d="M330.9712,688.0468l-6.4779,1.425,2.9535,13.4273,7.22-1.5881.8872,4.0333-9.37,2.0611-8.1917-37.241,9-1.98.8872,4.0332-6.8489,1.5065,2.5889,11.77,6.478-1.4249Z"/><path d="M330.263,667.9861a14.6856,14.6856,0,0,1,4.4036-1.7793c3.0908-.68,5.6437.4383,7.771,3.1566,2.1512,2.7123,3.9648,6.8323,5.2894,12.8544,1.3371,6.0785,1.59,11.2359.7864,15.0044-.7919,3.8233-2.95,6.2682-6.1893,6.9808a16.2055,16.2055,0,0,1-4.003.4168Zm9.3945,32.4585a6.4008,6.4008,0,0,0,2.2364-.2023c4.5986-1.0115,5.8321-7.3075,3.62-17.3637-1.9075-8.7906-5.3605-13.8817-9.91-12.881a5.9493,5.9493,0,0,0-2.4124,1.0517Z"/><path d="M359.5971,681.75l-6.478,1.4249,2.9536,13.4273,7.22-1.5881.8872,4.0333-9.37,2.0612-8.1917-37.2411,9-1.98.8872,4.0333-6.8489,1.5065,2.5889,11.7695,6.4779-1.4249Z"/><path d="M358.8888,661.69a10.8055,10.8055,0,0,1,3.9588-1.6815,4.9961,4.9961,0,0,1,5.49,1.9788,16.8546,16.8546,0,0,1,2.866,6.7843c1.0815,4.9169.4145,8.4813-1.0494,10.1942l.0363.1652c1.5049.7119,2.8543,3.196,4.1007,6.9763,1.6861,5.0745,2.8719,8.5793,3.5339,9.9394l-2.2247.4893c-.503-.99-1.5789-4.1133-3.07-8.6514-1.6248-5.03-2.9406-6.768-4.93-6.5034l-2.0272.4459L369.122,697.96l-2.1508.4731Zm5.882,16.49,2.2-.484c2.2993-.5058,3.1382-3.6444,2.2023-7.8991-1.0572-4.8066-3.0766-6.564-5.3638-6.1183a4.3688,4.3688,0,0,0-2.0288.909Z"/></svg>
