<svg id="Layer_1" data-name="Layer 1" xmlns="http://www.w3.org/2000/svg" width="1920" height="1080" viewBox="0 0 1920 1080"><title>titel</title><path d="M421.87,583.5H297.81a11.76,11.76,0,0,1-8.5-3.15,10.38,10.38,0,0,1-3.34-7.61,10.18,10.18,0,0,1,3.41-7.62,11.77,11.77,0,0,1,8.29-3h17.78v-124H302.36a11.3,11.3,0,0,1-8.29-3.14,10.41,10.41,0,0,1-3.14-7.49,10.56,10.56,0,0,1,3.34-7.75,11.65,11.65,0,0,1,8.36-3.15H420.26a12.67,12.67,0,0,1,8.84,3.29,11.82,11.82,0,0,1,3.67,8.95V465a10.62,10.62,0,0,1-3.15,8,10.23,10.23,0,0,1-7.21,2.93,11,11,0,0,1-6.94-2.44,9.8,9.8,0,0,1-3.68-7.38l-1.61-28H338.31v47.74h34.14l1.3-13.3a12.06,12.06,0,0,1,3.18-7.4,9.75,9.75,0,0,1,7.16-3.15,9.56,9.56,0,0,1,7.49,3.65,13,13,0,0,1,2.6,8.46V520a12.46,12.46,0,0,1-2.66,8.32,9.48,9.48,0,0,1-7.43,3.51,10.09,10.09,0,0,1-7.08-2.93,11,11,0,0,1-3.27-7.48l-1.33-15.18h-34.1v55.92H411l1.84-29a10.08,10.08,0,0,1,3.64-7.25,11.07,11.07,0,0,1,7.25-2.66,10.19,10.19,0,0,1,7.62,3.42,12.15,12.15,0,0,1,3,8.55V571.4a11.57,11.57,0,0,1-3.73,8.93A12.66,12.66,0,0,1,421.87,583.5Z"/><path d="M579.84,583.5H459.92a12,12,0,0,1-8.42-3,10.44,10.44,0,0,1-.07-15.37,11.65,11.65,0,0,1,8.36-3.15h31V438.13H465.42a11.54,11.54,0,0,1-8.3-3.08,10.25,10.25,0,0,1-3.27-7.55,10.56,10.56,0,0,1,3.34-7.75,11.65,11.65,0,0,1,8.36-3.15h63.37a11.83,11.83,0,0,1,8.5,3.15,10.56,10.56,0,0,1,3.34,7.75,10.15,10.15,0,0,1-3.42,7.62,11.73,11.73,0,0,1-8.28,3H513.69V562h55.94a6.36,6.36,0,0,0,.77-.13c0-.09,0-.19,0-.3v-.13l4.56-37a11.4,11.4,0,0,1,4.15-7.61,11.84,11.84,0,0,1,7.51-2.54,12.15,12.15,0,0,1,8.09,3,10.94,10.94,0,0,1,3.74,8.6l0,1.27-4,43.23a15.7,15.7,0,0,1-4.44,9.21A14,14,0,0,1,579.84,583.5Z"/><path d="M754.14,583.5H630.08a11.78,11.78,0,0,1-8.5-3.15,10.39,10.39,0,0,1-3.33-7.61,10.17,10.17,0,0,1,3.4-7.62,11.77,11.77,0,0,1,8.29-3h17.78v-124H634.63a11.3,11.3,0,0,1-8.29-3.14,10.41,10.41,0,0,1-3.14-7.49,10.56,10.56,0,0,1,3.34-7.75,11.65,11.65,0,0,1,8.36-3.15H752.54a12.7,12.7,0,0,1,8.84,3.29,11.85,11.85,0,0,1,3.66,8.95V465a10.59,10.59,0,0,1-3.15,8,10.23,10.23,0,0,1-7.21,2.93,11,11,0,0,1-6.94-2.44,9.84,9.84,0,0,1-3.68-7.38l-1.6-28H670.58v47.74h34.15l1.3-13.3a12,12,0,0,1,3.17-7.4,9.75,9.75,0,0,1,7.16-3.15,9.43,9.43,0,0,1,7.49,3.65,13,13,0,0,1,2.6,8.46V520a12.5,12.5,0,0,1-2.65,8.32,9.51,9.51,0,0,1-7.44,3.51,10.07,10.07,0,0,1-7.07-2.93,10.91,10.91,0,0,1-3.28-7.48l-1.33-15.18h-34.1v55.92h72.71l1.85-29a10.09,10.09,0,0,1,3.63-7.25,11.07,11.07,0,0,1,7.25-2.66,10.2,10.2,0,0,1,7.62,3.41,12.15,12.15,0,0,1,3,8.56V571.4a11.57,11.57,0,0,1-3.73,8.93A12.64,12.64,0,0,1,754.14,583.5Z"/><path d="M896.83,583.5H819.66a12.06,12.06,0,0,1-8.5-3.08,10.49,10.49,0,0,1-3.47-7.82A10.2,10.2,0,0,1,811.1,565a11.87,11.87,0,0,1,8.29-3h27.43V438.13H810l-1.4,31.53a11.22,11.22,0,0,1-3.28,7.88,10.28,10.28,0,0,1-7.21,2.93,11.39,11.39,0,0,1-8-3.35,11.94,11.94,0,0,1-3.53-8.89V428.84c0-3.63.73-6.39,2.23-8.45,1.26-1.72,3.75-3.79,8.39-3.79H919.88a9.64,9.64,0,0,1,8.17,3.93,14.08,14.08,0,0,1,2.19,8.31v39.39a11.83,11.83,0,0,1-3.27,8.69,11.08,11.08,0,0,1-15.23.48,10.7,10.7,0,0,1-3.55-7.72L907,438.13H869.68V562H897.1a11.58,11.58,0,0,1,8.29,3.07,10.29,10.29,0,0,1,3.28,7.56,10.55,10.55,0,0,1-3.35,7.76A11.76,11.76,0,0,1,896.83,583.5Z"/><path d="M1086.42,583.5H962.35a11.75,11.75,0,0,1-8.49-3.15,10.35,10.35,0,0,1-3.34-7.61,10.18,10.18,0,0,1,3.41-7.62,11.74,11.74,0,0,1,8.29-3H980v-124H966.91a11.3,11.3,0,0,1-8.3-3.14,10.4,10.4,0,0,1-3.13-7.49,10.52,10.52,0,0,1,3.34-7.75,11.61,11.61,0,0,1,8.35-3.15h117.64a12.68,12.68,0,0,1,8.84,3.29,11.85,11.85,0,0,1,3.66,8.95V465a10.59,10.59,0,0,1-3.15,8,10.22,10.22,0,0,1-7.21,2.93,11,11,0,0,1-6.94-2.43,9.88,9.88,0,0,1-3.68-7.39l-1.6-28h-71.87v47.74H1037l1.3-13.3a11.94,11.94,0,0,1,3.18-7.4,9.73,9.73,0,0,1,7.15-3.15,9.57,9.57,0,0,1,7.5,3.65,13.07,13.07,0,0,1,2.6,8.46V520a12.51,12.51,0,0,1-2.66,8.32,9.51,9.51,0,0,1-7.44,3.51,10.08,10.08,0,0,1-7.07-2.93,10.87,10.87,0,0,1-3.27-7.48L1037,506.19h-34.09v55.92h72.7l1.85-29a10.09,10.09,0,0,1,3.63-7.25,11.09,11.09,0,0,1,7.25-2.66,10.17,10.17,0,0,1,7.62,3.42,12.11,12.11,0,0,1,3,8.55V571.4a11.57,11.57,0,0,1-3.73,8.93A12.63,12.63,0,0,1,1086.42,583.5Z"/><path d="M1407.17,583.5h-91.78a12,12,0,0,1-8.42-3,10.44,10.44,0,0,1-.07-15.37,11.65,11.65,0,0,1,8.36-3.15h35.86V438.13h-35.86a11.74,11.74,0,0,1-8.29-3,10.18,10.18,0,0,1-3.41-7.62,10.52,10.52,0,0,1,3.34-7.75,11.8,11.8,0,0,1,8.49-3.15h91.78a11.65,11.65,0,0,1,8.36,3.15,10.56,10.56,0,0,1,3.34,7.75,10.33,10.33,0,0,1-3.28,7.56,11.58,11.58,0,0,1-8.29,3.07H1374V562h33.32a11.46,11.46,0,0,1,8.36,3.21,10.57,10.57,0,0,1-.07,15.24A11.68,11.68,0,0,1,1407.17,583.5Z"/><path d="M1561.38,583.5h-77.17a12,12,0,0,1-8.5-3.09,10.4,10.4,0,0,1-3.47-7.81,10.21,10.21,0,0,1,3.41-7.62,11.87,11.87,0,0,1,8.29-3h27.42V438.13h-36.84l-1.4,31.53a11.17,11.17,0,0,1-3.28,7.88,10.24,10.24,0,0,1-7.2,2.93,11.43,11.43,0,0,1-8-3.35,12,12,0,0,1-3.53-8.89V428.84c0-3.62.73-6.39,2.24-8.44,1.26-1.73,3.74-3.8,8.39-3.8h122.72a9.66,9.66,0,0,1,8.18,3.93,14.08,14.08,0,0,1,2.18,8.31v39.39a11.88,11.88,0,0,1-3.27,8.7,11.09,11.09,0,0,1-15.23.47,10.75,10.75,0,0,1-3.55-7.72l-1.16-31.55h-37.35V562h27.43a11.57,11.57,0,0,1,8.28,3.07,10.29,10.29,0,0,1,3.28,7.56,10.54,10.54,0,0,1-3.34,7.76A11.79,11.79,0,0,1,1561.38,583.5Z"/><path d="M1752.35,584.7A18.49,18.49,0,0,1,1733.68,566a17.64,17.64,0,0,1,5.48-13.18,18.35,18.35,0,0,1,13.19-5.22,18.11,18.11,0,0,1,13.15,5.25,17.77,17.77,0,0,1,5.38,13.15,18.18,18.18,0,0,1-5.32,13.21A17.87,17.87,0,0,1,1752.35,584.7Z"/><path d="M1752.48,537.41c-4,0-7.45-1.12-9.66-3.15a8.19,8.19,0,0,1-2.57-6.38c0-7-.33-14-1-20.55-.67-6.75-1.74-16-3.18-27.41-1.32-9.57-2.36-18-3.09-25a203.08,203.08,0,0,1-1.12-21c0-5.39,1.75-9.25,5.36-11.8,2.55-1.81,7.27-4,15.24-4,7.63,0,12.28,2.16,14.84,4,3.6,2.56,5.35,6.42,5.35,11.8,0,6.62-.34,13.4-1,20.13s-1.68,15.32-3,25.76-2.33,19.49-3,26.59-1,14.3-1,21.49a8,8,0,0,1-2.69,6.55C1759.8,536.35,1756.42,537.41,1752.48,537.41Z"/><path d="M239.36,437.28C225,423.56,205,416.6,179.9,416.6h-48a11.65,11.65,0,0,0-8.36,3.15,10.52,10.52,0,0,0-3.34,7.75,10.37,10.37,0,0,0,3.14,7.49,11.3,11.3,0,0,0,8.29,3.14H148V562H131.13a11.67,11.67,0,0,0-8.36,3.15,10.44,10.44,0,0,0,.07,15.37,12,12,0,0,0,8.43,3h48.36c26.25,0,46.6-6.86,60.5-20.38s21-35,21-63.81C261.14,471.93,253.81,451.06,239.36,437.28ZM224.55,547c-9,10-23.76,15-44,15h-9.74V438.13h11.62c18.26,0,31.8,5.08,41.4,15.53s14.42,25.79,14.42,45.65C238.27,520.8,233.66,536.83,224.55,547Z"/></svg>
