<svg id="Layer_1" data-name="Layer 1" xmlns="http://www.w3.org/2000/svg" viewBox="0 0 399 420"><defs><style>.cls-1{fill:gray;}.cls-2{fill:none;}</style></defs><title>ui_settings</title><path d="M367.2,242.39l-20-12.12a148.82,148.82,0,0,0,.36-39.16l19.64-11.9a36.1689,36.1689,0,0,0,12.16-49.58L352.89,85.95a36.1543,36.1543,0,0,0-49.57-12.16l-18.7,11.33a152.2764,152.2764,0,0,0-26.84-15.34V46.6a36.1417,36.1417,0,0,0-36.1-36.1H170.61a36.1417,36.1417,0,0,0-36.1,36.1V69.78a152.2764,152.2764,0,0,0-26.84,15.34L88.97,73.79A36.149,36.149,0,0,0,39.39,85.95L12.93,129.63a36.138,36.138,0,0,0,12.16,49.58l19.64,11.9a148.82,148.82,0,0,0,.36,39.16l-20,12.12a36.138,36.138,0,0,0-12.16,49.58l26.46,43.68a36.1171,36.1171,0,0,0,49.58,12.16l21.04-12.75a152.6288,152.6288,0,0,0,24.5,13.68v23.18a36.1481,36.1481,0,0,0,36.1,36.1h51.07a36.1481,36.1481,0,0,0,36.1-36.1V348.74a152.6288,152.6288,0,0,0,24.5-13.68l21.04,12.75a35.7384,35.7384,0,0,0,18.59,5.22,36.48,36.48,0,0,0,8.71-1.06,35.8327,35.8327,0,0,0,22.27-16.32l26.47-43.68a36.1689,36.1689,0,0,0-12.16-49.58ZM234.64,201.5a38.5,38.5,0,1,1-38.5-38.5A38.5423,38.5423,0,0,1,234.64,201.5Z"/><path class="cls-1" d="M354.48,260.99l-34.3-20.82a128.1763,128.1763,0,0,0-.24-63.3l33.54-20.36a11.8271,11.8271,0,0,0,3.98-16.25L331.35,97.23a11.8367,11.8367,0,0,0-16.26-3.98l-33.74,20.47a127.897,127.897,0,0,0-48.71-27.29V44.84A11.83,11.83,0,0,0,220.81,33H170.48a11.8388,11.8388,0,0,0-11.84,11.84V86.73a127.7261,127.7261,0,0,0-47.36,26.7L77.2,92.75a11.8367,11.8367,0,0,0-16.26,3.98L34.83,139.76a11.8271,11.8271,0,0,0,3.98,16.25l33.66,20.43a128.0763,128.0763,0,0,0-.25,64.17L37.81,261.49a11.8271,11.8271,0,0,0-3.98,16.25l26.11,43.03a11.8367,11.8367,0,0,0,16.26,3.98l34.34-20.83a127.8164,127.8164,0,0,0,48.1,27.35v37.89A11.8388,11.8388,0,0,0,170.48,381h50.33a11.83,11.83,0,0,0,11.83-11.84V331.57a127.9839,127.9839,0,0,0,49.45-27.95l34,20.63a11.8367,11.8367,0,0,0,16.26-3.98l26.11-43.03A11.8271,11.8271,0,0,0,354.48,260.99ZM196.14,240a38.5,38.5,0,1,1,38.5-38.5A38.5487,38.5487,0,0,1,196.14,240Z"/><path d="M196.14,141a60.5,60.5,0,1,0,60.5,60.5A60.5683,60.5683,0,0,0,196.14,141Zm0,99a38.5,38.5,0,1,1,38.5-38.5A38.5487,38.5487,0,0,1,196.14,240Z"/><circle class="cls-2" cx="196.14" cy="201.5" r="38.5"/></svg>
