<svg id="Layer_1" data-name="Layer 1" xmlns="http://www.w3.org/2000/svg" xmlns:xlink="http://www.w3.org/1999/xlink" viewBox="0 0 741 75"><defs><style>.cls-1{fill:url(#linear-gradient);}</style><linearGradient id="linear-gradient" x1="1.5" y1="37.5" x2="734.3545" y2="37.5" gradientUnits="userSpaceOnUse"><stop offset="0" stop-color="#ed1c24"/><stop offset="1" stop-color="#fbb03b"/></linearGradient></defs><title>power6</title><rect class="cls-1" x="1.5" y="1.5" width="398.5" height="72" rx="12"/><path d="M727.5,75H13.5A13.5151,13.5151,0,0,1,0,61.5v-48A13.5151,13.5151,0,0,1,13.5,0h714A13.5148,13.5148,0,0,1,741,13.5v48A13.5148,13.5148,0,0,1,727.5,75ZM13.5,3A10.5118,10.5118,0,0,0,3,13.5v48A10.5118,10.5118,0,0,0,13.5,72h714A10.5115,10.5115,0,0,0,738,61.5v-48A10.5115,10.5115,0,0,0,727.5,3Z"/><path d="M266.25,20.2891a48.2836,48.2836,0,0,1,8.1519.5683,10.0086,10.0086,0,0,1,5.352,2.625q2.1291,2.0567,2.1294,6.2569t-2.0127,6.2275a9.1846,9.1846,0,0,1-5.06,2.5664,46.2217,46.2217,0,0,1-7.8022.5391H263.625V51.9355h9.5957a1.4189,1.4189,0,0,1,1.05.379,1.2024,1.2024,0,0,1,.3789.875,1.1854,1.1854,0,0,1-.3789.8886,1.4912,1.4912,0,0,1-1.08.3653H255.8086a1.5431,1.5431,0,0,1-1.0938-.3653,1.1634,1.1634,0,0,1-.394-.8886,1.18,1.18,0,0,1,.394-.875,1.4677,1.4677,0,0,1,1.0645-.379h5.0459V22.7979h-4.6377a1.4545,1.4545,0,0,1-1.05-.3643,1.1563,1.1563,0,0,1-.3794-.8613,1.2144,1.2144,0,0,1,.394-.9043,1.4719,1.4719,0,0,1,1.0645-.3789Zm1.8081,16.45a35.13,35.13,0,0,0,5.8189-.3936,6.6822,6.6822,0,0,0,3.7334-1.8965,6.3311,6.3311,0,0,0,1.4731-4.5937,6.0734,6.0734,0,0,0-1.7647-4.8125,7.9659,7.9659,0,0,0-4.2148-1.8955,45.83,45.83,0,0,0-6.27-.35H263.625V36.7393Z"/><path d="M322.9033,37.4687a21.5212,21.5212,0,0,1-1.7065,8.545,15.21,15.21,0,0,1-5.0894,6.4609,14.6647,14.6647,0,0,1-16.2749,0,15.2068,15.2068,0,0,1-5.0893-6.4609,21.5213,21.5213,0,0,1-1.7066-8.545,21.847,21.847,0,0,1,1.7066-8.59,15.4682,15.4682,0,0,1,5.0893-6.5478,14.4516,14.4516,0,0,1,16.2749,0,15.4715,15.4715,0,0,1,5.0894,6.5478A21.8469,21.8469,0,0,1,322.9033,37.4687Zm-2.8,0a19.5056,19.5056,0,0,0-1.4-7.3945,13.2788,13.2788,0,0,0-4.1416-5.6,11.2067,11.2067,0,0,0-13.1831,0,13.2755,13.2755,0,0,0-4.1416,5.6,20.1929,20.1929,0,0,0-.0293,14.7,12.877,12.877,0,0,0,4.1123,5.542,11.5156,11.5156,0,0,0,13.3,0,12.8834,12.8834,0,0,0,4.1123-5.542A19.4894,19.4894,0,0,0,320.103,37.4687Z"/><path d="M357.6226,22.7979H354.502a1.4643,1.4643,0,0,1-1.0645-.38,1.21,1.21,0,0,1-.394-.9043,1.1533,1.1533,0,0,1,.3794-.8594,1.4507,1.4507,0,0,1,1.05-.3652H362.61a1.5057,1.5057,0,0,1,1.0644.3652,1.1339,1.1339,0,0,1,.3936.8594,1.2094,1.2094,0,0,1-.3936.9043,1.5071,1.5071,0,0,1-1.0937.38H360.54l-4.7837,30.8583a1.5122,1.5122,0,0,1-.5249.962,1.5579,1.5579,0,0,1-.9917.3213,1.3539,1.3539,0,0,1-.9331-.4083,2.2042,2.2042,0,0,1-.6124-1.1093L347.7354,33.998l-5.4542,19.6582a1.7694,1.7694,0,0,1-.5834.962,1.42,1.42,0,0,1-1.896-.087,1.7606,1.7606,0,0,1-.5249-1.1093l-4.8414-30.624h-2.45a1.4651,1.4651,0,0,1-1.0645-.38,1.21,1.21,0,0,1-.394-.9043,1.1536,1.1536,0,0,1,.3793-.8594,1.4511,1.4511,0,0,1,1.05-.3652h8.8085a1.4527,1.4527,0,0,1,1.05.3652,1.1554,1.1554,0,0,1,.3793.8594,1.21,1.21,0,0,1-.394.9043,1.5063,1.5063,0,0,1-1.0937.38h-3.3248l4.0249,25.8408,5.1626-18.9864a1.2839,1.2839,0,0,1,.4957-.7734,1.3575,1.3575,0,0,1,.8168-.2773,1.2365,1.2365,0,0,1,.7872.2773,1.3451,1.3451,0,0,1,.4668.7734l4.9292,19.0743Z"/><path d="M392.6055,31.7227v9.9746a1.6852,1.6852,0,0,1-.32,1.1093.9992.9992,0,0,1-.7881.3789,1.1136,1.1136,0,0,1-.7881-.3359,1.309,1.309,0,0,1-.3789-.918l-.3789-4.3173h-9.5078v14.35h17.9375l.4658-7.3212a1.1135,1.1135,0,0,1,.4092-.8174,1.3148,1.3148,0,0,1,.875-.32,1.1336,1.1336,0,0,1,.8593.3935,1.5944,1.5944,0,0,1,.3653,1.1231v7.875a1.4524,1.4524,0,0,1-.4522,1.1377,1.6967,1.6967,0,0,1-1.1816.4082H372.7139a1.5147,1.5147,0,0,1-1.0938-.3789,1.182,1.182,0,0,1-.394-.875,1.14,1.14,0,0,1,.394-.8614,1.5069,1.5069,0,0,1,1.0645-.3633h4.958V22.7979h-3.9375a1.4019,1.4019,0,0,1-1.0352-.3643,1.1781,1.1781,0,0,1-.3647-.8613,1.2144,1.2144,0,0,1,.394-.9043,1.4717,1.4717,0,0,1,1.0645-.3789h25.6084a1.6574,1.6574,0,0,1,1.1806.4238,1.4988,1.4988,0,0,1,.4532,1.1514v7.875a1.2519,1.2519,0,0,1-.3506.9482,1.144,1.144,0,0,1-.8174.335,1.2861,1.2861,0,0,1-.83-.292,1.0638,1.0638,0,0,1-.3945-.8164l-.4082-7.1162H380.4434V35.3691h9.5078l.3789-3.88a1.55,1.55,0,0,1,.3945-.962,1.0358,1.0358,0,0,1,.7725-.3505.9856.9856,0,0,1,.7881.3935A1.7952,1.7952,0,0,1,392.6055,31.7227Z"/><path d="M425.1084,52.0518a1.483,1.483,0,0,1,1.05.35,1.1067,1.1067,0,0,1,.3789.8457,1.1211,1.1211,0,0,1-.3789.83,1.4875,1.4875,0,0,1-1.0781.3653H413.4414a1.545,1.545,0,0,1-1.0937-.3653,1.1028,1.1028,0,0,1-.0137-1.6758,1.5264,1.5264,0,0,1,1.0781-.35h3.6465V22.7979H414.23a1.5074,1.5074,0,0,1-1.0645-.3643,1.1363,1.1363,0,0,1-.3935-.8613,1.2139,1.2139,0,0,1,.3935-.9043,1.5151,1.5151,0,0,1,1.0938-.3789h9.333a34.9662,34.9662,0,0,1,7.7578.7148,8.703,8.703,0,0,1,4.7988,2.7422,8.7027,8.7027,0,0,1,1.7344,5.8184,7.4967,7.4967,0,0,1-1.7051,5.09,10.3408,10.3408,0,0,1-4.3027,2.9307l5.9512,14.4668h2.4492a2.376,2.376,0,0,1,1.4434.3349,1.0292,1.0292,0,0,1,.4238.832,1.0809,1.0809,0,0,1-.4375.875,2.2545,2.2545,0,0,1-1.4.35h-6.8535a1.5421,1.5421,0,0,1-1.0938-.3653,1.13,1.13,0,0,1-.3945-.8594,1.0811,1.0811,0,0,1,.3789-.8164,1.4856,1.4856,0,0,1,1.0508-.35h1.4863l-5.25-13.8252a11.9817,11.9817,0,0,1-1.9824.2627q-1.6641.1464-2.6836.1455h-5.1045v13.417Zm-5.25-29.2539V36.3887H422.98a37.138,37.138,0,0,0,6.6357-.48,7.5115,7.5115,0,0,0,4.01-1.9258,5.6709,5.6709,0,0,0,1.459-4.2138,7.2226,7.2226,0,0,0-1.1387-4.4336,5.837,5.837,0,0,0-3.5566-2.0127,34.1379,34.1379,0,0,0-6.8262-.5244Z"/></svg>
