<svg id="Layer_1" data-name="Layer 1" xmlns="http://www.w3.org/2000/svg" viewBox="0 0 756 90"><defs><style>.cls-1{fill:#fff;stroke:#000;stroke-linecap:square;stroke-miterlimit:10;stroke-width:3px;}</style></defs><title>power1</title><rect class="cls-1" x="13" y="8" width="738" height="72" rx="12"/><path d="M277.75,26.79a48.2836,48.2836,0,0,1,8.1519.5683,10.0015,10.0015,0,0,1,5.352,2.625q2.1291,2.0566,2.1294,6.2564t-2.0127,6.227a9.1885,9.1885,0,0,1-5.06,2.5669,46.1622,46.1622,0,0,1-7.8022.54H275.125V58.4351h9.5957a1.4208,1.4208,0,0,1,1.05.3789,1.204,1.204,0,0,1,.3789.875,1.1876,1.1876,0,0,1-.3789.89,1.4932,1.4932,0,0,1-1.08.3648H267.3086a1.5452,1.5452,0,0,1-1.0938-.3648,1.1654,1.1654,0,0,1-.394-.89,1.1817,1.1817,0,0,1,.394-.875,1.47,1.47,0,0,1,1.0645-.3789h5.0459V29.2979h-4.6377a1.45,1.45,0,0,1-1.05-.3648,1.1541,1.1541,0,0,1-.3794-.86,1.212,1.212,0,0,1,.394-.9043,1.47,1.47,0,0,1,1.0645-.3789Zm1.8081,16.45a35.0752,35.0752,0,0,0,5.8189-.3936A6.6847,6.6847,0,0,0,289.11,40.95a6.3327,6.3327,0,0,0,1.4731-4.5937,6.072,6.072,0,0,0-1.7647-4.8125,7.9589,7.9589,0,0,0-4.2148-1.896,45.9108,45.9108,0,0,0-6.27-.35H275.125V43.2393Z"/><path d="M334.4033,43.9683a21.5259,21.5259,0,0,1-1.7065,8.5459,15.2116,15.2116,0,0,1-5.0894,6.46,14.6671,14.6671,0,0,1-16.2749,0,15.2084,15.2084,0,0,1-5.0893-6.46,21.526,21.526,0,0,1-1.7066-8.5459,21.845,21.845,0,0,1,1.7066-8.5894,15.4682,15.4682,0,0,1,5.0893-6.5478,14.4539,14.4539,0,0,1,16.2749,0,15.4715,15.4715,0,0,1,5.0894,6.5478A21.8449,21.8449,0,0,1,334.4033,43.9683Zm-2.8,0a19.4991,19.4991,0,0,0-1.4-7.3936,13.2742,13.2742,0,0,0-4.1416-5.6,11.2067,11.2067,0,0,0-13.1831,0,13.2709,13.2709,0,0,0-4.1416,5.6,20.1916,20.1916,0,0,0-.0293,14.7,12.8741,12.8741,0,0,0,4.1123,5.542,11.5156,11.5156,0,0,0,13.3,0,12.88,12.88,0,0,0,4.1123-5.542A19.49,19.49,0,0,0,331.603,43.9683Z"/><path d="M369.1226,29.2979H366.002a1.4682,1.4682,0,0,1-1.0645-.3794,1.2114,1.2114,0,0,1-.394-.9043,1.1562,1.1562,0,0,1,.3794-.86,1.4524,1.4524,0,0,1,1.05-.3642H374.11a1.5075,1.5075,0,0,1,1.0644.3642,1.1367,1.1367,0,0,1,.3936.86,1.211,1.211,0,0,1-.3936.9043,1.5112,1.5112,0,0,1-1.0937.3794H372.04l-4.7837,30.8579a1.5109,1.5109,0,0,1-.5249.9624,1.5576,1.5576,0,0,1-.9917.3208,1.352,1.352,0,0,1-.9331-.4082,2.2,2.2,0,0,1-.6124-1.1084l-4.9584-19.4248-5.4542,19.6582a1.7672,1.7672,0,0,1-.5834.9624,1.4209,1.4209,0,0,1-1.896-.0874,1.7572,1.7572,0,0,1-.5249-1.1084l-4.8414-30.6245h-2.45a1.469,1.469,0,0,1-1.0645-.3794,1.2114,1.2114,0,0,1-.394-.9043,1.1565,1.1565,0,0,1,.3793-.86,1.4528,1.4528,0,0,1,1.05-.3642h8.8085a1.4544,1.4544,0,0,1,1.05.3642,1.1583,1.1583,0,0,1,.3793.86,1.2114,1.2114,0,0,1-.394.9043,1.51,1.51,0,0,1-1.0937.3794h-3.3248l4.0249,25.8413,5.1626-18.9873a1.2827,1.2827,0,0,1,.4957-.773,1.3569,1.3569,0,0,1,.8168-.2768,1.236,1.236,0,0,1,.7872.2768,1.3437,1.3437,0,0,1,.4668.773l4.9292,19.0747Z"/><path d="M404.1055,38.2227v9.9751a1.6809,1.6809,0,0,1-.32,1.1084.9965.9965,0,0,1-.7881.3789,1.1131,1.1131,0,0,1-.7881-.3355,1.31,1.31,0,0,1-.3789-.9184l-.3789-4.3169h-9.5078v14.35h17.9375l.4658-7.3208a1.1125,1.1125,0,0,1,.4092-.8169,1.31,1.31,0,0,1,.875-.3208,1.1353,1.1353,0,0,1,.8593.3935,1.5936,1.5936,0,0,1,.3653,1.1231v7.875a1.4531,1.4531,0,0,1-.4522,1.1377,1.6967,1.6967,0,0,1-1.1816.4082H384.2139a1.5106,1.5106,0,0,1-1.0938-.3794,1.18,1.18,0,0,1-.394-.875,1.1371,1.1371,0,0,1,.394-.86,1.5051,1.5051,0,0,1,1.0645-.3642h4.958V29.2979h-3.9375a1.3981,1.3981,0,0,1-1.0352-.3648,1.1759,1.1759,0,0,1-.3647-.86,1.212,1.212,0,0,1,.394-.9043,1.47,1.47,0,0,1,1.0645-.3789h25.6084a1.659,1.659,0,0,1,1.1806.4228,1.5,1.5,0,0,1,.4532,1.1519v7.875a1.25,1.25,0,0,1-.3506.9477,1.1425,1.1425,0,0,1-.8174.3355,1.2884,1.2884,0,0,1-.83-.2915,1.0656,1.0656,0,0,1-.3945-.8169l-.4082-7.1162H391.9434V41.8687h9.5078l.3789-3.8794a1.5534,1.5534,0,0,1,.3945-.9624,1.0386,1.0386,0,0,1,.7725-.35.9842.9842,0,0,1,.7881.3935A1.7962,1.7962,0,0,1,404.1055,38.2227Z"/><path d="M436.6084,58.5518a1.4869,1.4869,0,0,1,1.05.35,1.1087,1.1087,0,0,1,.3789.8457,1.1231,1.1231,0,0,1-.3789.831,1.49,1.49,0,0,1-1.0781.3648H424.9414a1.5471,1.5471,0,0,1-1.0937-.3648,1.1038,1.1038,0,0,1-.0137-1.6767,1.53,1.53,0,0,1,1.0781-.35h3.6465V29.2979H425.73a1.5031,1.5031,0,0,1-1.0645-.3648,1.1343,1.1343,0,0,1-.3935-.86,1.2115,1.2115,0,0,1,.3935-.9043,1.5129,1.5129,0,0,1,1.0938-.3789h9.333a35,35,0,0,1,7.7578.7143,8.7054,8.7054,0,0,1,4.7988,2.7417,8.7032,8.7032,0,0,1,1.7344,5.8189,7.4944,7.4944,0,0,1-1.7051,5.0893,10.3418,10.3418,0,0,1-4.3027,2.9312l5.9512,14.4668h2.4492a2.3685,2.3685,0,0,1,1.4434.3354,1.0261,1.0261,0,0,1,.4238.8311,1.0792,1.0792,0,0,1-.4375.875,2.2484,2.2484,0,0,1-1.4.35h-6.8535a1.5442,1.5442,0,0,1-1.0938-.3648,1.1315,1.1315,0,0,1-.3945-.86,1.0824,1.0824,0,0,1,.3789-.8164,1.49,1.49,0,0,1,1.0508-.35h1.4863l-5.25-13.8252a12.0415,12.0415,0,0,1-1.9824.2627q-1.6641.1464-2.6836.146h-5.1045V58.5518Zm-5.25-29.2539V42.8892H434.48a37.0846,37.0846,0,0,0,6.6357-.481,7.5183,7.5183,0,0,0,4.01-1.9253,5.673,5.673,0,0,0,1.459-4.2143,7.2236,7.2236,0,0,0-1.1387-4.4336,5.8323,5.8323,0,0,0-3.5566-2.0122,34.0937,34.0937,0,0,0-6.8262-.5249Z"/></svg>
