<svg id="Layer_1" data-name="Layer 1" xmlns="http://www.w3.org/2000/svg" viewBox="0 0 750 80"><defs><style>.cls-1{fill:#39b54a;}</style></defs><title>time2</title><rect class="cls-1" x="6" y="4" width="49.5" height="72" rx="12"/><path d="M732,77.5H18A13.5155,13.5155,0,0,1,4.5,64V16A13.5155,13.5155,0,0,1,18,2.5H732A13.5151,13.5151,0,0,1,745.5,16V64A13.5151,13.5151,0,0,1,732,77.5ZM18,5.5A10.512,10.512,0,0,0,7.5,16V64A10.512,10.512,0,0,0,18,74.5H732A10.5118,10.5118,0,0,0,742.5,64V16A10.5118,10.5118,0,0,0,732,5.5Z"/><path d="M224.1807,38.3145a11.248,11.248,0,0,1-1.1924,5.268,8.7369,8.7369,0,0,1-3.3545,3.5674,9.5559,9.5559,0,0,1-4.95,1.2759,10.014,10.014,0,0,1-4.9961-1.2168,8.4117,8.4117,0,0,1-3.3662-3.5083,11.52,11.52,0,0,1-1.2051-5.4336V22.3911H201.69a1.1772,1.1772,0,0,1-.8506-.2949.9343.9343,0,0,1-.3066-.6973.9847.9847,0,0,1,.3184-.7324,1.1937,1.1937,0,0,1,.8623-.3066h9.4736a1.1937,1.1937,0,0,1,.8623.3066.9823.9823,0,0,1,.3193.7324.9349.9349,0,0,1-.3076.6973,1.1772,1.1772,0,0,1-.8506.2949h-3.8271v15.876a8.7279,8.7279,0,0,0,1.8906,6.0005,6.8565,6.8565,0,0,0,5.4092,2.1264,6.9784,6.9784,0,0,0,3.8037-1.0278,6.8693,6.8693,0,0,0,2.5283-2.8584,9.4043,9.4043,0,0,0,.8975-4.1933V22.3911h-2.8584a1.22,1.22,0,0,1-.8623-.2949.92.92,0,0,1-.3194-.6973.9824.9824,0,0,1,.3194-.7324,1.227,1.227,0,0,1,.8857-.3066h7.8672a2.0974,2.0974,0,0,1,1.2168.3066.8863.8863,0,0,1,.4365.7324.8446.8446,0,0,1-.4248.6973,2.0963,2.0963,0,0,1-1.205.2949h-2.7881Z"/><path d="M237.8838,30.0928l.07,1.63a10.02,10.02,0,0,1,3.0479-2.0908,9.3133,9.3133,0,0,1,3.8974-.8149,8.6907,8.6907,0,0,1,4.7139,1.2519,8.1585,8.1585,0,0,1,3.0586,3.4727,11.6229,11.6229,0,0,1,1.0635,5.08,11.3728,11.3728,0,0,1-1.087,5.0434,8.3221,8.3221,0,0,1-3.1064,3.4966,8.742,8.742,0,0,1-4.7363,1.2642,9.8576,9.8576,0,0,1-3.7207-.6382,10.7312,10.7312,0,0,1-2.9893-1.8662v8.9062h5.1035a.9674.9674,0,0,1,.7324.272.9072.9072,0,0,1,.26.6494,1.0138,1.0138,0,0,1-.2842.709,1.0382,1.0382,0,0,1-.8027.3071H233.749a.9233.9233,0,0,1-.7324-.2954,1.0186,1.0186,0,0,1-.26-.6968.9742.9742,0,0,1,.2481-.6616.8767.8767,0,0,1,.6972-.2837h2.126v-23.53l-2.5517.496c-.0625.0157-.1338.0318-.2119.0474a1.3508,1.3508,0,0,1-.2608.0234.8944.8944,0,0,1-.6611-.26.8654.8654,0,0,1-.26-.6382,1.0307,1.0307,0,0,1,.1885-.6021.95.95,0,0,1,.5908-.3662l3.875-.78a4.0782,4.0782,0,0,1,.4248-.0474A.8415.8415,0,0,1,237.8838,30.0928Zm6.78,16.3955a6.3587,6.3587,0,0,0,3.7089-1.063,6.584,6.584,0,0,0,2.3145-2.8584,9.7875,9.7875,0,0,0,.78-3.9453,10.0456,10.0456,0,0,0-.7559-3.9575,6.57,6.57,0,0,0-2.2451-2.8467,6.0552,6.0552,0,0,0-3.6143-1.063,7.8865,7.8865,0,0,0-6.7568,3.4258v9.2607A7.9638,7.9638,0,0,0,244.6641,46.4883Z"/><path d="M273.958,20.1a.916.916,0,0,1,.6143.2012.69.69,0,0,1,.2363.5552V46.0869h8.0322a.8327.8327,0,0,1,.6729.2949,1.0174,1.0174,0,0,1,.249.6734,1.0015,1.0015,0,0,1-.249.685.8759.8759,0,0,1-.6963.2837H263.918a1.061,1.061,0,0,1-.8037-.2954.9737.9737,0,0,1-.2832-.6968.93.93,0,0,1,.9921-.9448h8.7178V22.2734l-8.34.6612-.1651.0239a.8936.8936,0,0,1-.709-.2954,1.0178,1.0178,0,0,1-.26-.6968,1.0714,1.0714,0,0,1,.1885-.6265.7717.7717,0,0,1,.5673-.3188l9.875-.8975Z"/><path d="M291.7471,38.6216a10.4062,10.4062,0,0,1,1.2519-5.1978,8.5076,8.5076,0,0,1,3.52-3.4135,12.1256,12.1256,0,0,1,10.4893,0,8.5076,8.5076,0,0,1,3.52,3.4135,10.4157,10.4157,0,0,1,1.2519,5.1978,10.3614,10.3614,0,0,1-1.2519,5.1733,8.5782,8.5782,0,0,1-3.52,3.4258,12.015,12.015,0,0,1-10.4893,0,8.5782,8.5782,0,0,1-3.52-3.4258A10.352,10.352,0,0,1,291.7471,38.6216Zm2.5517,0a9.093,9.093,0,0,0,.8858,4.0986,6.5011,6.5011,0,0,0,2.5752,2.7759,8.5767,8.5767,0,0,0,8.0088,0,6.5023,6.5023,0,0,0,2.5752-2.7759,9.8719,9.8719,0,0,0,0-8.1738,6.58,6.58,0,0,0-2.5752-2.7881,8.4884,8.4884,0,0,0-8.0088,0,6.5789,6.5789,0,0,0-2.5752,2.7881A9.0387,9.0387,0,0,0,294.2988,38.6216Z"/><path d="M335.6416,36.4478a7.0714,7.0714,0,0,0-1.0752-4.2286,4.3181,4.3181,0,0,0-3.7207-1.4648,13.9291,13.9291,0,0,0-2.7285.248,11.5279,11.5279,0,0,0-2.4922.815,10.1762,10.1762,0,0,1-.4258,2.7407,1.176,1.176,0,0,1-1.1338.9214,1.2485,1.2485,0,0,1-1.0508-.4727,1.9479,1.9479,0,0,1-.3662-1.2285,3.6772,3.6772,0,0,1,1.0391-2.5512,6.861,6.861,0,0,1,2.9063-1.772,13.192,13.192,0,0,1,4.2753-.6377,7.7148,7.7148,0,0,1,4.2647,1.0156,5.326,5.326,0,0,1,2.1621,2.9175,15.8144,15.8144,0,0,1,.6143,4.7842v7.3706a1.4787,1.4787,0,0,0,.33,1.1225,1.2989,1.2989,0,0,0,.8975.295,2.76,2.76,0,0,0,1.3-.3663,4.2193,4.2193,0,0,0,1.0869-.791.7628.7628,0,0,1,.5664-.2837.7827.7827,0,0,1,.6143.3072,1.0328,1.0328,0,0,1,.26.685.8014.8014,0,0,1-.2353.5908,5.6913,5.6913,0,0,1-1.7373,1.2637,4.7472,4.7472,0,0,1-2.043.461,3.4543,3.4543,0,0,1-2.0322-.5791,3.3091,3.3091,0,0,1-1.11-2.2559,8.82,8.82,0,0,1-3.248,2.1733,11.6753,11.6753,0,0,1-4.5479.8741,5.6674,5.6674,0,0,1-4.1337-1.4527,5.1831,5.1831,0,0,1-1.4883-3.8862,4.4751,4.4751,0,0,1,1.5586-3.71A8.3192,8.3192,0,0,1,327.7861,37.7a60.58,60.58,0,0,1,6.1309-.6616l1.7246-.1182Zm0,7.1113V38.55l-.9687.0947q-3.8746.378-5.8.7207a7.143,7.143,0,0,0-3.06,1.1929A2.9346,2.9346,0,0,0,324.68,43.063a3.2086,3.2086,0,0,0,.98,2.61,3.9526,3.9526,0,0,0,2.61.815,11.0273,11.0273,0,0,0,4.1-.7915A8.9942,8.9942,0,0,0,335.6416,43.5591Z"/><path d="M367.2988,48.0947a1.0786,1.0786,0,0,1-.78-.2954,1.2491,1.2491,0,0,1-.33-.8857l-.0713-1.4175A7.9285,7.9285,0,0,1,363.2,47.61a9.7364,9.7364,0,0,1-4.0049.8154,8.8018,8.8018,0,0,1-4.7363-1.2525,8.2515,8.2515,0,0,1-3.1065-3.4726,11.4094,11.4094,0,0,1-1.0869-5.0791,11.3742,11.3742,0,0,1,1.0869-5.044,8.3191,8.3191,0,0,1,3.1065-3.4965,8.7437,8.7437,0,0,1,4.7363-1.2637,9.862,9.862,0,0,1,3.7207.6377,10.71,10.71,0,0,1,2.9883,1.8662V22.25l-3.0234.189c-.0635.0161-.1338.0317-.2129.0473a1.332,1.332,0,0,1-.26.0235.894.894,0,0,1-.6611-.26.8636.8636,0,0,1-.26-.6377,1.0844,1.0844,0,0,1,.1885-.6142.8485.8485,0,0,1,.5908-.3545l4.4648-.4488c.252-.0312.4092-.0473.4727-.0473q.9683,0,.9688.9214V46.0156l3.496-.26h.1416a.9632.9632,0,0,1,.709.2363.8029.8029,0,0,1,.2364.5908,1.0178,1.0178,0,0,1-.2364.6494,1.1221,1.1221,0,0,1-.6611.39l-4.3945.4726Zm-7.9619-17.34a6.3549,6.3549,0,0,0-3.709,1.063,6.595,6.595,0,0,0-2.3154,2.8589,10.3764,10.3764,0,0,0,0,7.8906,6.6561,6.6561,0,0,0,2.292,2.8584,6.164,6.164,0,0,0,3.6377,1.063,7.6635,7.6635,0,0,0,6.6621-3.4253V33.8018A7.9646,7.9646,0,0,0,359.3369,30.7544Z"/><path d="M400.7744,48.0239H381.9688a1.0354,1.0354,0,0,1-.8028-.3071,1.0122,1.0122,0,0,1-.2842-.7085.9062.9062,0,0,1,.2608-.65.9649.9649,0,0,1,.7314-.2715h8.7891V31.0381l-7.8672,1.063-.165.0234a.8935.8935,0,0,1-.709-.2954,1.0156,1.0156,0,0,1-.26-.6968,1.0687,1.0687,0,0,1,.1885-.626.7719.7719,0,0,1,.5674-.3188l9.4023-1.2993a.9515.9515,0,0,1,.26-.0239.9157.9157,0,0,1,.6142.2011.69.69,0,0,1,.2364.5552V46.0869h7.8672a.8623.8623,0,0,1,.6972.2949,1.0211,1.0211,0,0,1,.2481.6734.9753.9753,0,0,1-.2608.685A.9123.9123,0,0,1,400.7744,48.0239ZM389.3867,22.32a1.8757,1.8757,0,0,1,.5791-1.3935,1.906,1.906,0,0,1,1.3819-.5669,1.867,1.867,0,0,1,1.37.5669,1.9815,1.9815,0,0,1,.0117,2.7641,1.8548,1.8548,0,0,1-1.3818.5669,1.8949,1.8949,0,0,1-1.3936-.5669A1.8687,1.8687,0,0,1,389.3867,22.32Z"/><path d="M425.415,35.2666a4.7733,4.7733,0,0,0-1.0761-3.3311,4.08,4.08,0,0,0-3.1758-1.1811,8.9348,8.9348,0,0,0-3.8867.8267,7.3039,7.3039,0,0,0-2.7051,2.0791,4.0579,4.0579,0,0,0-.9688,2.48v9.9463h2.4805a1.16,1.16,0,0,1,.8379.2832.89.89,0,0,1,.2969.6616.92.92,0,0,1-.32.6968,1.217,1.217,0,0,1-.8614.2954h-7.1582a1.0324,1.0324,0,0,1-.8027-.3071,1.0128,1.0128,0,0,1-.2852-.7085.9132.9132,0,0,1,.26-.65.9688.9688,0,0,1,.7324-.2715h2.5528V31.2739l-2.5528.52a1.6193,1.6193,0,0,1-.4707.0708.8923.8923,0,0,1-.6621-.26.8654.8654,0,0,1-.26-.6382,1.0246,1.0246,0,0,1,.19-.6021.9449.9449,0,0,1,.59-.3662l3.875-.78a4.0735,4.0735,0,0,1,.4239-.0474.8406.8406,0,0,1,.9218.9214l.1192,2.8349a6.4519,6.4519,0,0,1,1.748-2.0908,9.3729,9.3729,0,0,1,5.7871-2.02,6.6007,6.6007,0,0,1,4.9844,1.7246,6.7785,6.7785,0,0,1,1.6543,4.89V46.0869h2.5742a.8739.8739,0,0,1,.6973.2832.9707.9707,0,0,1,.248.6616,1.0169,1.0169,0,0,1-.26.6968.9244.9244,0,0,1-.7324.2954h-8.15a1.0383,1.0383,0,0,1-.8028-.3071,1.0112,1.0112,0,0,1-.2832-.7085.9053.9053,0,0,1,.26-.65.9658.9658,0,0,1,.7324-.2715h3.4492Z"/><path d="M443.0146,43.5352a1.8451,1.8451,0,0,0,.2608,1.0044,1.8212,1.8212,0,0,0,1.0273.6611,7.6646,7.6646,0,0,0,2.2325.248h2.1972a21.3436,21.3436,0,0,1,4.6778.4136A4.8426,4.8426,0,0,1,456.127,47.41a5.05,5.05,0,0,1,.9443,3.3076,4.039,4.039,0,0,1-1.3584,3.0947,8.542,8.542,0,0,1-3.5674,1.8662,17.6225,17.6225,0,0,1-4.7363.6143,10.923,10.923,0,0,1-5.2207-1.0987,3.8621,3.8621,0,0,1-2.0323-3.6972,5.5263,5.5263,0,0,1,.78-2.9649,4.8961,4.8961,0,0,1,2.0313-1.8779,4.7579,4.7579,0,0,1-1.6651-1.24,2.7308,2.7308,0,0,1-.5556-1.76,2.6815,2.6815,0,0,1,.5674-1.6181,4.7079,4.7079,0,0,1,1.37-1.252,4,4,0,0,1,1.4883-.5791,8.061,8.061,0,0,1-3.0479-1.9727,4.4757,4.4757,0,0,1-1.0156-3.083,5.8561,5.8561,0,0,1,1.0273-3.5083,6.1333,6.1333,0,0,1,2.7647-2.1259,10.2183,10.2183,0,0,1,3.8388-.6968,9.95,9.95,0,0,1,3.0713.4722,7.6872,7.6872,0,0,1,2.5742,1.394l3.5918-2.3862a5.0967,5.0967,0,0,1,2.8584-.9922q1.37,0,1.37,1.2051,0,.5434-.7442.874a6.34,6.34,0,0,1-2.3984.3305l-3.9922,1.7486a5.9132,5.9132,0,0,1,1.3467,3.8032,5.2415,5.2415,0,0,1-1.9727,4.5361q-1.9731,1.4415-5.9648,1.441a7.7666,7.7666,0,0,0-2.2325.3071,4.3,4.3,0,0,0-1.6308.8388A1.5292,1.5292,0,0,0,443.0146,43.5352Zm4.5362-4.04a7.867,7.867,0,0,0,4.04-.9214,3.375,3.375,0,0,0,1.56-3.166,4.0823,4.0823,0,0,0-1.5361-3.5317,6.4811,6.4811,0,0,0-3.9219-1.1221,6.233,6.233,0,0,0-3.8272,1.11,3.9163,3.9163,0,0,0-1.4882,3.3545A3.7408,3.7408,0,0,0,443.83,38.397,6,6,0,0,0,447.5508,39.4956Zm1.2519,7.6543h-4.3466a2.1821,2.1821,0,0,0-.9209.8149,6.499,6.499,0,0,0-.792,1.4649,4.09,4.09,0,0,0-.3184,1.4766,2.9328,2.9328,0,0,0,1.1924,2.705,7.2806,7.2806,0,0,0,3.7451.7442,14.5958,14.5958,0,0,0,5.209-.8506q2.2324-.85,2.2324-2.6934a3.8372,3.8372,0,0,0-.5557-2.2441,3.0453,3.0453,0,0,0-1.83-1.0986A15.7558,15.7558,0,0,0,448.8027,47.15Z"/><path d="M480.0352,45.9214a2.3846,2.3846,0,0,1-.7207,1.772,2.63,2.63,0,0,1-3.5791.0117,2.5974,2.5974,0,0,1,.0117-3.5791,2.51,2.51,0,0,1,4.2881,1.7954Z"/><path d="M509.3291,45.9214a2.3842,2.3842,0,0,1-.7207,1.772,2.63,2.63,0,0,1-3.5791.0117,2.5974,2.5974,0,0,1,.0117-3.5791,2.51,2.51,0,0,1,4.2881,1.7954Z"/><path d="M538.623,45.9214a2.3842,2.3842,0,0,1-.7207,1.772,2.63,2.63,0,0,1-3.5791.0117,2.5976,2.5976,0,0,1,.0118-3.5791,2.51,2.51,0,0,1,4.288,1.7954Z"/></svg>
