<svg id="Layer_1" data-name="Layer 1" xmlns="http://www.w3.org/2000/svg" viewBox="0 0 750 80"><defs><style>.cls-1{fill:#39b54a;}</style></defs><title>time10</title><rect class="cls-1" x="6" y="4" width="739.5" height="72" rx="12"/><path d="M732,77.5H18A13.5151,13.5151,0,0,1,4.5,64V16A13.5151,13.5151,0,0,1,18,2.5H732A13.5148,13.5148,0,0,1,745.5,16V64A13.5148,13.5148,0,0,1,732,77.5ZM18,5.5A10.5118,10.5118,0,0,0,7.5,16V64A10.5118,10.5118,0,0,0,18,74.5H732A10.5115,10.5115,0,0,0,742.5,64V16A10.5115,10.5115,0,0,0,732,5.5Z"/><path d="M224.1807,38.3145a11.2459,11.2459,0,0,1-1.1924,5.2675,8.7426,8.7426,0,0,1-3.3545,3.5684,9.5652,9.5652,0,0,1-4.95,1.2754,10.0192,10.0192,0,0,1-4.9961-1.2168,8.41,8.41,0,0,1-3.3662-3.5078,11.5223,11.5223,0,0,1-1.2051-5.4336V22.3906H201.69a1.1751,1.1751,0,0,1-.8506-.2949.9327.9327,0,0,1-.3066-.6973.9847.9847,0,0,1,.3184-.7324,1.1979,1.1979,0,0,1,.8623-.3066h9.4736a1.1979,1.1979,0,0,1,.8623.3066.9823.9823,0,0,1,.3193.7324.9334.9334,0,0,1-.3076.6973,1.1751,1.1751,0,0,1-.8506.2949h-3.8271v15.877a8.7291,8.7291,0,0,0,1.8906,6,6.8554,6.8554,0,0,0,5.4092,2.1269,6.9829,6.9829,0,0,0,3.8037-1.0283,6.8669,6.8669,0,0,0,2.5283-2.8584,9.4058,9.4058,0,0,0,.8975-4.1933V22.3906h-2.8584a1.2175,1.2175,0,0,1-.8623-.2949.9182.9182,0,0,1-.3194-.6973.9824.9824,0,0,1,.3194-.7324,1.2313,1.2313,0,0,1,.8857-.3066h7.8672a2.1051,2.1051,0,0,1,1.2168.3066.8863.8863,0,0,1,.4365.7324.8433.8433,0,0,1-.4248.6973,2.0924,2.0924,0,0,1-1.205.2949h-2.7881Z"/><path d="M237.8838,30.0928l.07,1.63a10.023,10.023,0,0,1,3.0479-2.09,9.3059,9.3059,0,0,1,3.8974-.8154,8.6864,8.6864,0,0,1,4.7139,1.2519,8.1615,8.1615,0,0,1,3.0586,3.4727,11.6222,11.6222,0,0,1,1.0635,5.0791,11.3719,11.3719,0,0,1-1.087,5.0439,8.3264,8.3264,0,0,1-3.1064,3.4971,8.75,8.75,0,0,1-4.7363,1.2637,9.8475,9.8475,0,0,1-3.7207-.6387,10.7272,10.7272,0,0,1-2.9893-1.8652v8.9062h5.1035a.9653.9653,0,0,1,.7324.2715.9072.9072,0,0,1,.26.6494,1.0138,1.0138,0,0,1-.2842.709,1.04,1.04,0,0,1-.8027.3076H233.749a.9253.9253,0,0,1-.7324-.2959,1.0173,1.0173,0,0,1-.26-.6963.9754.9754,0,0,1,.2481-.6621.8747.8747,0,0,1,.6972-.2832h2.126v-23.53l-2.5517.496c-.0625.0157-.1338.0323-.2119.0479a1.3508,1.3508,0,0,1-.2608.0234.8963.8963,0,0,1-.6611-.26.8679.8679,0,0,1-.26-.6387,1.027,1.027,0,0,1,.1885-.6016.9509.9509,0,0,1,.5908-.3672l3.875-.7792a4.0234,4.0234,0,0,1,.4248-.0469A.8412.8412,0,0,1,237.8838,30.0928Zm6.78,16.3955a6.3621,6.3621,0,0,0,3.7089-1.0625,6.5839,6.5839,0,0,0,2.3145-2.8594,9.7841,9.7841,0,0,0,.78-3.9453,10.0431,10.0431,0,0,0-.7559-3.957,6.5676,6.5676,0,0,0-2.2451-2.8467,6.0589,6.0589,0,0,0-3.6143-1.0635,7.89,7.89,0,0,0-6.7568,3.4258v9.2617A7.9648,7.9648,0,0,0,244.6641,46.4883Z"/><path d="M273.958,20.1a.916.916,0,0,1,.6143.2012.6893.6893,0,0,1,.2363.5547V46.0869h8.0322a.8339.8339,0,0,1,.6729.2949,1.017,1.017,0,0,1,.249.6729,1.0027,1.0027,0,0,1-.249.6855.874.874,0,0,1-.6963.2832H263.918a1.0608,1.0608,0,0,1-.8037-.2949.9747.9747,0,0,1-.2832-.6972.93.93,0,0,1,.9921-.9444h8.7178V22.2734l-8.34.6612-.1651.0244a.8939.8939,0,0,1-.709-.2959,1.0156,1.0156,0,0,1-.26-.6963,1.0729,1.0729,0,0,1,.1885-.627.77.77,0,0,1,.5673-.3183l9.875-.8985Z"/><path d="M291.7471,38.6211a10.4043,10.4043,0,0,1,1.2519-5.1973,8.5093,8.5093,0,0,1,3.52-3.414,12.13,12.13,0,0,1,10.4893,0,8.5093,8.5093,0,0,1,3.52,3.414,10.4138,10.4138,0,0,1,1.2519,5.1973,10.3644,10.3644,0,0,1-1.2519,5.1738,8.5782,8.5782,0,0,1-3.52,3.4258,12.015,12.015,0,0,1-10.4893,0,8.5782,8.5782,0,0,1-3.52-3.4258A10.3549,10.3549,0,0,1,291.7471,38.6211Zm2.5517,0a9.0974,9.0974,0,0,0,.8858,4.1,6.5027,6.5027,0,0,0,2.5752,2.7754,8.5767,8.5767,0,0,0,8.0088,0,6.5039,6.5039,0,0,0,2.5752-2.7754,9.8719,9.8719,0,0,0,0-8.1738,6.5826,6.5826,0,0,0-2.5752-2.7891,8.4884,8.4884,0,0,0-8.0088,0,6.5814,6.5814,0,0,0-2.5752,2.7891A9.0343,9.0343,0,0,0,294.2988,38.6211Z"/><path d="M335.6416,36.4473a7.073,7.073,0,0,0-1.0752-4.2285,4.3179,4.3179,0,0,0-3.7207-1.4649,13.96,13.96,0,0,0-2.7285.2481,11.5515,11.5515,0,0,0-2.4922.8154,10.1869,10.1869,0,0,1-.4258,2.7412,1.1767,1.1767,0,0,1-1.1338.9209,1.2485,1.2485,0,0,1-1.0508-.4727,1.9479,1.9479,0,0,1-.3662-1.2285,3.6793,3.6793,0,0,1,1.0391-2.5517,6.87,6.87,0,0,1,2.9063-1.7715,13.1785,13.1785,0,0,1,4.2753-.6377,7.7148,7.7148,0,0,1,4.2647,1.0156,5.323,5.323,0,0,1,2.1621,2.917,15.8214,15.8214,0,0,1,.6143,4.7852v7.37a1.4766,1.4766,0,0,0,.33,1.122,1.2965,1.2965,0,0,0,.8975.295,2.7634,2.7634,0,0,0,1.3-.3653,4.231,4.231,0,0,0,1.0869-.791.7617.7617,0,0,1,.5664-.2842.7817.7817,0,0,1,.6143.3077,1.0323,1.0323,0,0,1,.26.6845.8014.8014,0,0,1-.2353.5908,5.6913,5.6913,0,0,1-1.7373,1.2637,4.753,4.753,0,0,1-2.043.461,3.4579,3.4579,0,0,1-2.0322-.5791,3.3091,3.3091,0,0,1-1.11-2.2559,8.8129,8.8129,0,0,1-3.248,2.1728,11.6667,11.6667,0,0,1-4.5479.875,5.6655,5.6655,0,0,1-4.1337-1.4531,5.1829,5.1829,0,0,1-1.4883-3.8867,4.4748,4.4748,0,0,1,1.5586-3.709A8.3244,8.3244,0,0,1,327.7861,37.7a60.4581,60.4581,0,0,1,6.1309-.6611l1.7246-.1192Zm0,7.1113V38.5508l-.9687.0937q-3.8746.378-5.8.7207a7.1507,7.1507,0,0,0-3.06,1.1934,2.9342,2.9342,0,0,0-1.1338,2.5039,3.2108,3.2108,0,0,0,.98,2.6113,3.9551,3.9551,0,0,0,2.61.8145,11.0367,11.0367,0,0,0,4.1-.791A8.9833,8.9833,0,0,0,335.6416,43.5586Z"/><path d="M367.2988,48.0947a1.0789,1.0789,0,0,1-.78-.2959,1.2465,1.2465,0,0,1-.33-.8847l-.0713-1.418A7.9342,7.9342,0,0,1,363.2,47.61a9.7283,9.7283,0,0,1-4.0049.8154,8.81,8.81,0,0,1-4.7363-1.252,8.255,8.255,0,0,1-3.1065-3.4726,11.4123,11.4123,0,0,1-1.0869-5.08,11.3713,11.3713,0,0,1,1.0869-5.043,8.32,8.32,0,0,1,3.1065-3.497,8.7394,8.7394,0,0,1,4.7363-1.2637,9.8521,9.8521,0,0,1,3.7207.6377,10.7122,10.7122,0,0,1,2.9883,1.8662V22.25l-3.0234.1885c-.0635.0166-.1338.0322-.2129.0478a1.332,1.332,0,0,1-.26.0235.896.896,0,0,1-.6611-.26.8674.8674,0,0,1-.26-.6387,1.0807,1.0807,0,0,1,.1885-.6133.85.85,0,0,1,.5908-.3554l4.4648-.4483c.252-.0312.4092-.0478.4727-.0478q.9683,0,.9688.9219V46.0156l3.496-.26h.1416a.9632.9632,0,0,1,.709.2363.8037.8037,0,0,1,.2364.5908,1.0194,1.0194,0,0,1-.2364.6494,1.1221,1.1221,0,0,1-.6611.39l-4.3945.4726Zm-7.9619-17.3408a6.3588,6.3588,0,0,0-3.709,1.0635,6.5964,6.5964,0,0,0-2.3154,2.8584,10.3764,10.3764,0,0,0,0,7.8906,6.656,6.656,0,0,0,2.292,2.8594,6.1672,6.1672,0,0,0,3.6377,1.0625,7.6627,7.6627,0,0,0,6.6621-3.4258V33.8018A7.965,7.965,0,0,0,359.3369,30.7539Z"/><path d="M400.7744,48.0234H381.9688a1.0351,1.0351,0,0,1-.8028-.3066,1.0142,1.0142,0,0,1-.2842-.709.9044.9044,0,0,1,.2608-.6494.9649.9649,0,0,1,.7314-.2715h8.7891V31.0381l-7.8672,1.0635-.165.0234a.8938.8938,0,0,1-.709-.2959,1.0153,1.0153,0,0,1-.26-.6963,1.0724,1.0724,0,0,1,.1885-.6269.7731.7731,0,0,1,.5674-.3184l9.4023-1.2988a.9418.9418,0,0,1,.26-.0244.9157.9157,0,0,1,.6142.2011.6912.6912,0,0,1,.2364.5557V46.0869h7.8672a.8636.8636,0,0,1,.6972.2949,1.0208,1.0208,0,0,1,.2481.6729.9765.9765,0,0,1-.2608.6855A.91.91,0,0,1,400.7744,48.0234ZM389.3867,22.32a1.8757,1.8757,0,0,1,.5791-1.3935,1.9065,1.9065,0,0,1,1.3819-.5674,1.8675,1.8675,0,0,1,1.37.5674,1.9821,1.9821,0,0,1,.0117,2.7646,1.8578,1.8578,0,0,1-1.3818.5664,1.898,1.898,0,0,1-1.3936-.5664A1.8714,1.8714,0,0,1,389.3867,22.32Z"/><path d="M425.415,35.2666a4.7735,4.7735,0,0,0-1.0761-3.3311,4.0807,4.0807,0,0,0-3.1758-1.1816,8.935,8.935,0,0,0-3.8867.8272,7.3091,7.3091,0,0,0-2.7051,2.0791,4.0579,4.0579,0,0,0-.9688,2.48v9.9463h2.4805a1.1617,1.1617,0,0,1,.8379.2832.8883.8883,0,0,1,.2969.6612.92.92,0,0,1-.32.6972,1.2167,1.2167,0,0,1-.8614.2949h-7.1582a1.0321,1.0321,0,0,1-.8027-.3066,1.0148,1.0148,0,0,1-.2852-.709.9114.9114,0,0,1,.26-.6494.9688.9688,0,0,1,.7324-.2715h2.5528V31.2734l-2.5528.5205a1.6034,1.6034,0,0,1-.4707.0713.8942.8942,0,0,1-.6621-.26.8679.8679,0,0,1-.26-.6387,1.0209,1.0209,0,0,1,.19-.6016.9459.9459,0,0,1,.59-.3672l3.875-.7792a4.0184,4.0184,0,0,1,.4239-.0469.84.84,0,0,1,.9218.9209l.1192,2.8349a6.4468,6.4468,0,0,1,1.748-2.0908,9.3729,9.3729,0,0,1,5.7871-2.02,6.6027,6.6027,0,0,1,4.9844,1.7246,6.7788,6.7788,0,0,1,1.6543,4.89V46.0869h2.5742a.8752.8752,0,0,1,.6973.2832.9686.9686,0,0,1,.248.6612,1.0179,1.0179,0,0,1-.26.6972.9241.9241,0,0,1-.7324.2949h-8.15a1.038,1.038,0,0,1-.8028-.3066,1.0132,1.0132,0,0,1-.2832-.709.9035.9035,0,0,1,.26-.6494.9658.9658,0,0,1,.7324-.2715h3.4492Z"/><path d="M443.0146,43.5352a1.5546,1.5546,0,0,0,1.2881,1.666,7.6821,7.6821,0,0,0,2.2325.248h2.1972a21.348,21.348,0,0,1,4.6778.4131A4.846,4.846,0,0,1,456.127,47.41a5.0472,5.0472,0,0,1,.9443,3.3066,4.0426,4.0426,0,0,1-1.3584,3.0957,8.5409,8.5409,0,0,1-3.5674,1.8652,17.5823,17.5823,0,0,1-4.7363.6153,10.9237,10.9237,0,0,1-5.2207-1.1,3.8623,3.8623,0,0,1-2.0323-3.6973,5.5293,5.5293,0,0,1,.78-2.9648,4.8933,4.8933,0,0,1,2.0313-1.877,4.7761,4.7761,0,0,1-1.6651-1.24,2.7332,2.7332,0,0,1-.5556-1.7608,2.68,2.68,0,0,1,.5674-1.6181,4.701,4.701,0,0,1,1.37-1.252,4.0091,4.0091,0,0,1,1.4883-.5791,8.0551,8.0551,0,0,1-3.0479-1.9727,4.4764,4.4764,0,0,1-1.0156-3.083,5.8546,5.8546,0,0,1,1.0273-3.5078,6.1319,6.1319,0,0,1,2.7647-2.1269,10.2281,10.2281,0,0,1,3.8388-.6963,9.9645,9.9645,0,0,1,3.0713.4717,7.706,7.706,0,0,1,2.5742,1.3945l3.5918-2.3867a5.1,5.1,0,0,1,2.8584-.9922q1.37,0,1.37,1.2051,0,.5448-.7442.875a6.3419,6.3419,0,0,1-2.3984.33l-3.9922,1.7481a5.9175,5.9175,0,0,1,1.3467,3.8037,5.2421,5.2421,0,0,1-1.9727,4.5361q-1.9731,1.4415-5.9648,1.4414a7.7494,7.7494,0,0,0-2.2325.3067,4.3,4.3,0,0,0-1.6308.8388A1.53,1.53,0,0,0,443.0146,43.5352Zm4.5362-4.0391a7.8669,7.8669,0,0,0,4.04-.9219,3.3755,3.3755,0,0,0,1.56-3.166,4.0807,4.0807,0,0,0-1.5361-3.5312,6.4781,6.4781,0,0,0-3.9219-1.1231,6.2334,6.2334,0,0,0-3.8272,1.1113,3.9139,3.9139,0,0,0-1.4882,3.3536,3.74,3.74,0,0,0,1.4531,3.1777A6,6,0,0,0,447.5508,39.4961Zm1.2519,7.6543h-4.3466a2.1706,2.1706,0,0,0-.9209.8144,6.5206,6.5206,0,0,0-.792,1.4649,4.0878,4.0878,0,0,0-.3184,1.4766,2.9334,2.9334,0,0,0,1.1924,2.705,7.2806,7.2806,0,0,0,3.7451.7442,14.5847,14.5847,0,0,0,5.209-.8506q2.2324-.8511,2.2324-2.6934a3.8372,3.8372,0,0,0-.5557-2.2441,3.0448,3.0448,0,0,0-1.83-1.0986A15.738,15.738,0,0,0,448.8027,47.15Z"/><path d="M480.0352,45.9219a2.3843,2.3843,0,0,1-.7207,1.7715,2.6291,2.6291,0,0,1-3.5791.0117,2.5974,2.5974,0,0,1,.0117-3.5791,2.51,2.51,0,0,1,4.2881,1.7959Z"/><path d="M509.3291,45.9219a2.3839,2.3839,0,0,1-.7207,1.7715,2.6291,2.6291,0,0,1-3.5791.0117,2.5974,2.5974,0,0,1,.0117-3.5791,2.51,2.51,0,0,1,4.2881,1.7959Z"/><path d="M538.623,45.9219a2.3839,2.3839,0,0,1-.7207,1.7715,2.6291,2.6291,0,0,1-3.5791.0117,2.5976,2.5976,0,0,1,.0118-3.5791,2.51,2.51,0,0,1,4.288,1.7959Z"/></svg>
